<?xml version="1.0" encoding="UTF-8" standalone="no"?>
<!DOCTYPE svg PUBLIC "-//W3C//DTD SVG 1.1//EN" "http://www.w3.org/Graphics/SVG/1.1/DTD/svg11.dtd">
<svg width="100%" height="100%" viewBox="0 0 1012 487" version="1.1" xmlns="http://www.w3.org/2000/svg" xmlns:xlink="http://www.w3.org/1999/xlink" xml:space="preserve" xmlns:serif="http://www.serif.com/" style="fill-rule:evenodd;clip-rule:evenodd;stroke-linejoin:round;stroke-miterlimit:2;">
    <g transform="matrix(4.16667,0,0,4.16667,190.104,481.008)">
        <path d="M0,-8.722C-0.413,-9.081 -0.925,-9.366 -1.525,-9.568C-2.128,-9.771 -2.824,-9.873 -3.594,-9.873L-15.635,-9.873L-13.889,-7.116L-3.308,-7.116C-2.811,-7.116 -2.417,-6.994 -2.139,-6.755C-1.853,-6.51 -1.713,-6.189 -1.713,-5.772C-1.713,-5.356 -1.852,-5.033 -2.137,-4.781C-2.417,-4.536 -2.81,-4.412 -3.308,-4.412L-10.106,-4.412L-10.107,-1.1L-8.679,1.151L-6.321,1.151L-6.346,-1.704L-3.609,-1.704C-2.839,-1.704 -2.143,-1.805 -1.54,-2.002C-0.939,-2.198 -0.423,-2.474 -0.006,-2.824C0.409,-3.17 0.729,-3.596 0.944,-4.091C1.16,-4.586 1.269,-5.146 1.269,-5.756C1.269,-6.365 1.16,-6.928 0.944,-7.43C0.729,-7.93 0.411,-8.365 0,-8.722" style="fill:white;fill-rule:nonzero;"/>
    </g>
    <g transform="matrix(4.16667,0,0,4.16667,29.2888,479.95)">
        <path d="M0,-4.155L-0.001,-4.155L-0.014,-0.013L3.195,0L0.011,-4.149C0.007,-4.153 0.002,-4.155 0,-4.155" style="fill:rgb(237,28,36);fill-rule:nonzero;"/>
    </g>
    <g transform="matrix(4.16667,0,0,4.16667,75.7588,452.222)">
        <path d="M0,5.095C-0.153,4.933 -0.302,4.786 -0.442,4.658L-0.663,4.459L-0.375,4.383C-0.037,4.293 0.273,4.155 0.547,3.972C0.865,3.761 1.137,3.501 1.356,3.197C1.576,2.894 1.747,2.548 1.865,2.167C1.982,1.786 2.042,1.378 2.042,0.953C2.042,0.17 1.881,-0.48 1.564,-0.978C1.245,-1.479 0.836,-1.881 0.348,-2.173C-0.146,-2.468 -0.699,-2.676 -1.3,-2.79C-1.905,-2.906 -2.498,-2.965 -3.062,-2.965L-13.568,-2.965L-11.529,-0.207L-2.806,-0.207C-2.25,-0.207 -1.81,-0.092 -1.498,0.133C-1.178,0.363 -1.016,0.712 -1.016,1.17C-1.016,1.585 -1.194,1.914 -1.545,2.15C-1.887,2.38 -2.311,2.497 -2.806,2.497L-9.862,2.497L-7.844,5.104L-3.627,5.104L-1.384,8.06L2.556,8.06C2.079,7.503 0.182,5.287 0,5.095Z" style="fill:white;fill-rule:nonzero;"/>
    </g>
    <g transform="matrix(4.16667,0,0,4.16667,119.603,484.372)">
        <path d="M0,-10.52C-0.301,-10.748 -0.684,-10.864 -1.137,-10.864C-1.609,-10.864 -2.003,-10.74 -2.31,-10.496C-2.622,-10.247 -2.886,-9.96 -3.093,-9.645L-8.237,-1.595L-6.52,0.344L-5.964,0.344L-1.196,-7.137L0.278,-4.748C1.115,-3.393 1.459,-2.835 1.621,-2.597L1.792,-2.345L1.488,-2.344C0.936,-2.345 -1.204,-2.364 -2.353,-2.376L-2.647,-2.38L-4.432,0.344L7.008,0.344L0.787,-9.646C0.572,-9.994 0.307,-10.288 0,-10.52" style="fill:white;fill-rule:nonzero;"/>
    </g>
    <g transform="matrix(-0.0150529,4.16664,4.16664,0.0150529,295.49,464.684)">
        <path d="M-0.484,-3.684L3.668,-3.684L3.671,-0.467L-0.478,-3.674C-0.483,-3.678 -0.484,-3.683 -0.484,-3.684" style="fill:rgb(237,28,36);fill-rule:nonzero;"/>
    </g>
    <g transform="matrix(4.16667,0,0,4.16667,323.484,454.038)">
        <path d="M0,4.223L-0.221,4.023L0.067,3.947C0.406,3.857 0.717,3.719 0.99,3.536C1.308,3.326 1.58,3.065 1.799,2.761C2.019,2.458 2.19,2.112 2.308,1.731C2.425,1.35 2.485,0.942 2.485,0.517C2.485,-0.266 2.324,-0.916 2.007,-1.414C1.689,-1.913 1.28,-2.315 0.791,-2.609C0.297,-2.904 -0.257,-3.112 -0.857,-3.226C-1.462,-3.342 -2.055,-3.401 -2.619,-3.401L-12.935,-3.401L-10.808,-0.643L-2.363,-0.643C-1.808,-0.643 -1.367,-0.528 -1.055,-0.303C-0.735,-0.073 -0.573,0.276 -0.573,0.734C-0.573,1.148 -0.751,1.478 -1.103,1.714C-1.444,1.944 -1.868,2.061 -2.363,2.061L-9.076,2.061L-7.058,4.668L-3.184,4.668L-0.941,7.624L3.006,7.624C2.528,7.067 0.628,4.856 0.443,4.66C0.286,4.493 0.137,4.346 0,4.223" style="fill:white;fill-rule:nonzero;"/>
    </g>
    <g transform="matrix(4.16667,0,0,4.16667,369.173,484.372)">
        <path d="M0,-10.52C-0.301,-10.748 -0.684,-10.864 -1.137,-10.864C-1.609,-10.864 -2.003,-10.74 -2.31,-10.496C-2.624,-10.245 -2.888,-9.959 -3.093,-9.645L-8.235,-1.599L-6.515,0.344L-5.964,0.344L-1.196,-7.136L1.768,-2.344L1.477,-2.345C0.847,-2.346 -1.596,-2.369 -2.648,-2.38L-4.432,0.344L7.009,0.344L0.787,-9.646C0.572,-9.993 0.307,-10.288 0,-10.52" style="fill:white;fill-rule:nonzero;"/>
    </g>
    <g transform="matrix(4.16667,0,0,4.16667,-114.885,-2680.62)">
        <rect x="75.465" y="753.093" width="2.968" height="6.849" style="fill:white;"/>
    </g>
    <g transform="matrix(4.16666,0.0069375,0.0069375,-4.16666,199.396,451.271)">
        <path d="M0.002,-0.001L3.005,-0.001L3.001,2.751L-1.325,2.747L0.002,-0.001Z" style="fill:white;fill-rule:nonzero;"/>
    </g>
    <g transform="matrix(4.16667,0,0,4.16667,261.977,479.483)">
        <path d="M0,-7.998C-0.527,-8.474 -1.165,-8.848 -1.895,-9.11C-2.626,-9.374 -3.438,-9.507 -4.308,-9.507L-10.977,-9.515L-10.977,-6.762L-4.308,-6.749C-3.88,-6.749 -3.477,-6.678 -3.108,-6.537C-2.739,-6.394 -2.413,-6.198 -2.137,-5.955C-1.86,-5.71 -1.641,-5.412 -1.486,-5.069C-1.332,-4.727 -1.253,-4.351 -1.253,-3.953C-1.253,-3.543 -1.332,-3.165 -1.486,-2.828C-1.64,-2.492 -1.854,-2.2 -2.121,-1.961C-2.389,-1.721 -2.713,-1.533 -3.087,-1.403C-3.459,-1.273 -3.871,-1.207 -4.308,-1.207L-7.995,-1.207L-7.995,-5.298L-10.977,-5.298L-10.977,1.517L-4.308,1.517C-3.448,1.517 -2.642,1.373 -1.912,1.088C-1.182,0.804 -0.544,0.407 -0.016,-0.091C0.51,-0.587 0.93,-1.186 1.231,-1.871C1.532,-2.554 1.684,-3.305 1.684,-4.103C1.684,-4.89 1.534,-5.624 1.239,-6.286C0.943,-6.947 0.527,-7.523 0,-7.998" style="fill:white;fill-rule:nonzero;"/>
    </g>
    <g transform="matrix(4.16667,0,0,4.16667,418.075,451.22)">
        <path d="M0,5.576C-0.428,5.576 -0.831,5.51 -1.199,5.38C-1.567,5.25 -1.892,5.062 -2.164,4.823C-2.438,4.582 -2.651,4.29 -2.8,3.954C-2.949,3.618 -3.024,3.24 -3.024,2.83C-3.024,2.42 -2.946,2.039 -2.792,1.697C-2.638,1.355 -2.424,1.057 -2.158,0.812C-1.89,0.568 -1.568,0.374 -1.2,0.238C-0.832,0.102 -0.428,0.034 0,0.034L5.841,0.034L5.841,-2.724L0,-2.724C-0.86,-2.724 -1.667,-2.594 -2.398,-2.336C-3.129,-2.079 -3.766,-1.707 -4.293,-1.232C-4.82,-0.756 -5.239,-0.18 -5.54,0.481C-5.84,1.141 -5.992,1.881 -5.992,2.68C-5.992,3.479 -5.84,4.229 -5.539,4.912C-5.238,5.597 -4.819,6.195 -4.292,6.691C-3.765,7.19 -3.127,7.587 -2.396,7.871C-1.666,8.156 -0.86,8.3 0,8.3L6.023,8.3L3.957,5.576L0,5.576Z" style="fill:white;fill-rule:nonzero;"/>
    </g>
    <g transform="matrix(4.16667,0,0,4.16667,458.96,451.22)">
        <path d="M0,5.576L0,4.186L5.762,4.187L4.152,1.796L0,1.796L0,0.034L2.964,0.034L1.098,-2.724L-2.984,-2.724L-2.983,8.3L8.533,8.3L6.698,5.576L0,5.576Z" style="fill:white;fill-rule:nonzero;"/>
    </g>
    <g transform="matrix(4.16667,0,0,4.16667,524.505,452.22)">
        <path d="M0,5.096C-0.157,4.93 -0.307,4.784 -0.444,4.659L-0.664,4.46L-0.376,4.383C-0.037,4.293 0.273,4.155 0.546,3.973C0.863,3.762 1.135,3.501 1.356,3.198C1.575,2.895 1.746,2.548 1.864,2.167C1.981,1.787 2.042,1.378 2.042,0.953C2.042,0.17 1.88,-0.479 1.563,-0.978C1.245,-1.478 0.835,-1.88 0.346,-2.173C-0.146,-2.468 -0.7,-2.675 -1.3,-2.79C-1.906,-2.905 -2.499,-2.964 -3.063,-2.964L-13.382,-2.964L-11.524,-0.206L-2.807,-0.206C-2.251,-0.206 -1.811,-0.092 -1.499,0.134C-1.179,0.364 -1.017,0.712 -1.017,1.171C-1.017,1.585 -1.195,1.914 -1.546,2.151C-1.888,2.381 -2.312,2.497 -2.807,2.497L-9.703,2.497L-7.947,5.105L-3.628,5.105L-1.385,8.06L2.586,8.06L0.833,6.005C0.481,5.614 0.208,5.316 0,5.096" style="fill:white;fill-rule:nonzero;"/>
    </g>
    <g transform="matrix(4.16667,0,0,4.16667,540.932,452.734)">
        <path d="M0,-2.922L-0.001,-2.922L-0.015,-0.012L2.241,0L0.009,-2.918C0.006,-2.921 0.002,-2.922 0,-2.922" style="fill:rgb(237,28,36);fill-rule:nonzero;"/>
    </g>
    <g transform="matrix(4.16667,0,0,4.16667,608.567,480.651)">
        <path d="M0,-8.501C-0.399,-8.852 -0.894,-9.129 -1.473,-9.325C-2.055,-9.522 -2.727,-9.622 -3.471,-9.622L-14.965,-9.622L-12.968,-6.938L-3.194,-6.938C-2.712,-6.938 -2.332,-6.82 -2.062,-6.586C-1.79,-6.35 -1.651,-6.027 -1.651,-5.626C-1.651,-5.22 -1.786,-4.903 -2.062,-4.659C-2.332,-4.42 -2.712,-4.298 -3.194,-4.298L-11.498,-4.298L-11.498,1.121L-8.65,1.121L-8.65,-1.663L-3.485,-1.663C-2.742,-1.663 -2.069,-1.76 -1.487,-1.952C-0.908,-2.144 -0.41,-2.413 -0.006,-2.752C0.396,-3.091 0.704,-3.506 0.912,-3.986C1.12,-4.47 1.226,-5.016 1.226,-5.61C1.226,-6.205 1.12,-6.753 0.912,-7.241C0.703,-7.729 0.396,-8.153 0,-8.501" style="fill:white;fill-rule:nonzero;"/>
    </g>
    <g transform="matrix(4.16667,0,0,4.16667,715.21,456.921)">
        <path d="M0,2.889C-0.15,3.265 -0.397,3.564 -0.734,3.779C-1.067,3.99 -1.506,4.133 -2.037,4.204C-2.563,4.275 -3.212,4.311 -3.967,4.311C-4.721,4.311 -5.37,4.275 -5.896,4.204C-6.428,4.133 -6.866,3.99 -7.199,3.779C-7.536,3.564 -7.783,3.265 -7.933,2.889C-8.082,2.517 -8.157,2.029 -8.157,1.436C-8.157,0.844 -8.082,0.356 -7.934,-0.017C-7.782,-0.393 -7.535,-0.69 -7.198,-0.898C-6.867,-1.103 -6.429,-1.243 -5.897,-1.316C-5.37,-1.386 -4.721,-1.423 -3.967,-1.423C-3.212,-1.423 -2.563,-1.386 -2.037,-1.316C-1.505,-1.243 -1.067,-1.103 -0.735,-0.898C-0.398,-0.69 -0.15,-0.393 0,-0.017C0.148,0.356 0.224,0.845 0.224,1.436C0.224,2.028 0.148,2.517 0,2.889M1.319,-2.77C0.15,-3.656 -1.628,-4.106 -3.967,-4.106C-6.315,-4.106 -8.096,-3.656 -9.259,-2.77C-10.417,-1.889 -11.004,-0.474 -11.004,1.436C-11.004,3.357 -10.42,4.777 -9.267,5.659C-8.106,6.546 -6.323,6.995 -3.967,6.995C-1.62,6.995 0.161,6.546 1.326,5.659C2.484,4.777 3.071,3.356 3.071,1.436C3.071,-0.474 2.482,-1.889 1.319,-2.77" style="fill:white;fill-rule:nonzero;"/>
    </g>
    <g transform="matrix(4.16667,0,0,4.16667,775.616,479.195)">
        <path d="M0,-7.803C-0.508,-8.265 -1.124,-8.63 -1.83,-8.886C-2.535,-9.143 -3.319,-9.273 -4.161,-9.273L-10.705,-9.273L-10.605,-6.589L-4.161,-6.589C-3.746,-6.589 -3.354,-6.518 -3,-6.381C-2.644,-6.242 -2.327,-6.051 -2.06,-5.812C-1.791,-5.573 -1.58,-5.283 -1.431,-4.949C-1.282,-4.615 -1.206,-4.248 -1.206,-3.861C-1.206,-3.461 -1.282,-3.092 -1.431,-2.763C-1.58,-2.435 -1.787,-2.151 -2.045,-1.917C-2.304,-1.683 -2.618,-1.5 -2.979,-1.373C-3.34,-1.246 -3.737,-1.181 -4.161,-1.181L-7.726,-1.181L-7.726,-5.171L-10.603,-5.171L-10.603,1.47L-4.161,1.47C-3.33,1.47 -2.551,1.329 -1.846,1.052C-1.141,0.775 -0.525,0.388 -0.016,-0.096C0.493,-0.581 0.899,-1.164 1.189,-1.831C1.479,-2.497 1.626,-3.229 1.626,-4.007C1.626,-4.775 1.482,-5.49 1.197,-6.135C0.911,-6.779 0.508,-7.34 0,-7.803" style="fill:white;fill-rule:nonzero;"/>
    </g>
    <g transform="matrix(4.16667,0,0,4.16667,826.361,460.805)">
        <path d="M0,1.204C0,1.592 -0.053,1.929 -0.158,2.207C-0.265,2.494 -0.437,2.724 -0.685,2.908C-0.926,3.089 -1.25,3.219 -1.646,3.296C-2.034,3.372 -2.528,3.412 -3.114,3.412C-3.895,3.412 -4.534,3.375 -5.016,3.305C-5.51,3.233 -5.899,3.108 -6.172,2.935C-6.451,2.76 -6.645,2.525 -6.748,2.239C-6.847,1.96 -6.897,1.612 -6.897,1.204L-6.897,-4.859L-9.745,-4.859L-9.745,1.204C-9.745,2.016 -9.617,2.733 -9.365,3.332C-9.115,3.931 -8.717,4.438 -8.182,4.84C-7.645,5.246 -6.951,5.554 -6.122,5.756C-5.285,5.96 -4.273,6.063 -3.114,6.063C0.861,6.063 2.877,4.429 2.877,1.204L2.877,-4.859L0,-4.859L0,1.204Z" style="fill:white;fill-rule:nonzero;"/>
    </g>
    <g transform="matrix(4.16667,0,0,4.16667,865.824,451.606)">
        <path d="M0,5.44C-0.414,5.44 -0.804,5.376 -1.159,5.248C-1.515,5.121 -1.829,4.939 -2.092,4.705C-2.356,4.472 -2.563,4.186 -2.708,3.857C-2.852,3.529 -2.925,3.16 -2.925,2.761C-2.925,2.361 -2.849,1.989 -2.7,1.655C-2.551,1.322 -2.345,1.032 -2.086,0.793C-1.83,0.555 -1.518,0.366 -1.161,0.232C-0.805,0.1 -0.415,0.033 0,0.033L4.131,0.033L5.964,-2.651L0,-2.651C-0.83,-2.651 -1.609,-2.524 -2.317,-2.273C-3.023,-2.022 -3.639,-1.66 -4.146,-1.198C-4.654,-0.736 -5.059,-0.174 -5.35,0.471C-5.64,1.115 -5.788,1.836 -5.788,2.614C-5.788,3.392 -5.64,4.125 -5.35,4.791C-5.059,5.457 -4.654,6.04 -4.145,6.525C-3.636,7.01 -3.021,7.396 -2.315,7.674C-1.61,7.951 -0.832,8.091 0,8.091L6.893,8.091L4.899,5.44L0,5.44Z" style="fill:white;fill-rule:nonzero;"/>
    </g>
    <g transform="matrix(4.16667,0,0,4.16667,939.658,483.136)">
        <path d="M0,-9.694C0.229,-9.894 0.504,-10.07 0.822,-10.218L-10.717,-10.218L-12.565,-7.534L-8.27,-7.534L-8.27,0.524L-5.408,0.524L-5.408,-7.534L-1.086,-7.534C-1.043,-7.87 -0.967,-8.179 -0.861,-8.455C-0.677,-8.937 -0.387,-9.354 0,-9.694" style="fill:white;fill-rule:nonzero;"/>
    </g>
    <g transform="matrix(4.16667,0,0,4.16667,988.133,464.189)">
        <path d="M0,-0.6C-0.604,-1.081 -1.504,-1.324 -2.674,-1.324L-7.968,-1.324C-8.33,-1.324 -8.606,-1.386 -8.788,-1.508C-8.979,-1.636 -9.075,-1.857 -9.075,-2.164C-9.075,-2.472 -8.978,-2.69 -8.787,-2.812C-8.604,-2.93 -8.336,-2.987 -7.968,-2.987L-1.259,-2.987L0.574,-5.671L-7.736,-5.671C-8.461,-5.671 -9.093,-5.591 -9.612,-5.431C-10.127,-5.272 -10.554,-5.047 -10.879,-4.762C-11.203,-4.478 -11.446,-4.129 -11.601,-3.725C-11.695,-3.479 -11.76,-3.21 -11.799,-2.903C-11.824,-2.705 -11.835,-2.528 -11.835,-2.359C-11.835,-1.904 -11.764,-1.483 -11.623,-1.108C-11.481,-0.735 -11.263,-0.413 -10.973,-0.152C-10.682,0.112 -10.309,0.32 -9.865,0.468C-9.419,0.617 -8.879,0.692 -8.259,0.692L-2.965,0.692C-2.586,0.692 -2.315,0.755 -2.135,0.886C-1.952,1.02 -1.858,1.242 -1.858,1.548C-1.858,1.854 -1.951,2.079 -2.135,2.218C-2.313,2.354 -2.585,2.42 -2.965,2.42L-10.286,2.42L-12.117,5.071L-3.198,5.071C-2.472,5.071 -1.84,4.991 -1.321,4.831C-0.806,4.672 -0.377,4.442 -0.047,4.146C0.281,3.853 0.523,3.485 0.674,3.054C0.826,2.618 0.902,2.122 0.902,1.581C0.902,0.61 0.599,-0.123 0,-0.6" style="fill:white;fill-rule:nonzero;"/>
    </g>
    <g transform="matrix(4.16667,0,0,4.16667,661.308,448.628)">
        <path d="M0,6.869L-0.037,6.798C-0.369,6.426 -0.636,6.134 -0.836,5.918C-0.982,5.763 -1.126,5.62 -1.261,5.496L-1.478,5.298L-1.194,5.221C-0.871,5.134 -0.572,4.999 -0.307,4.822C0,4.617 0.262,4.363 0.474,4.068C0.686,3.772 0.851,3.434 0.966,3.063C1.079,2.693 1.137,2.295 1.137,1.88C1.137,1.495 1.097,1.14 1.02,0.827C0.943,0.517 0.827,0.239 0.676,-0.001C0.368,-0.488 -0.028,-0.88 -0.5,-1.166C-0.976,-1.453 -1.51,-1.656 -2.09,-1.768C-2.674,-1.88 -3.247,-1.937 -3.792,-1.937L-12.864,-1.937C-12.746,-1.878 -12.637,-1.819 -12.537,-1.758C-11.973,-1.418 -11.501,-0.952 -11.135,-0.373C-10.933,-0.051 -10.782,0.326 -10.687,0.747L-3.545,0.747C-3.008,0.747 -2.582,0.859 -2.28,1.078C-1.97,1.304 -1.813,1.645 -1.813,2.091C-1.813,2.496 -1.986,2.819 -2.326,3.048C-2.656,3.273 -3.066,3.387 -3.545,3.387L-10.358,3.387L-8.412,5.925L-4.337,5.925L-2.171,8.806L1.662,8.806L0.024,6.869L0,6.869Z" style="fill:white;fill-rule:nonzero;"/>
    </g>
    <g transform="matrix(4.16667,0,0,4.16667,128.198,290.616)">
        <path d="M0,-21.042C-0.101,-21.171 -0.253,-21.243 -0.41,-21.243C-0.466,-21.243 -0.522,-21.234 -0.578,-21.215C-0.787,-21.144 -0.928,-20.947 -0.928,-20.725L-0.928,-0.317C-0.928,-0.031 -0.696,0.201 -0.41,0.201L15.364,0.201C15.562,0.201 15.742,0.088 15.829,-0.089C15.916,-0.266 15.895,-0.478 15.774,-0.634L0,-21.042Z" style="fill:rgb(237,28,36);fill-rule:nonzero;"/>
    </g>
    <g transform="matrix(4.16667,0,0,4.16667,977.716,72.2113)">
        <path d="M0,63.339C0,68.401 -4.118,72.519 -9.179,72.519L-217.113,72.519C-222.174,72.519 -226.292,68.401 -226.292,63.339L-226.292,0C-226.292,-5.062 -222.174,-9.18 -217.113,-9.18L-9.179,-9.18C-4.118,-9.18 0,-5.062 0,0L0,63.339ZM-9.179,-11.848L-217.113,-11.848C-223.645,-11.848 -228.959,-6.533 -228.959,0L-228.959,63.339C-228.959,69.872 -223.645,75.187 -217.113,75.187L-9.179,75.187C-2.647,75.187 2.667,69.872 2.667,63.339L2.667,0C2.667,-6.533 -2.647,-11.848 -9.179,-11.848" style="fill:white;fill-rule:nonzero;"/>
    </g>
    <g transform="matrix(4.16667,0,0,4.16667,1000,66.7292)">
        <path d="M0,66.038C0,73.398 -5.988,79.385 -13.348,79.385L-223.984,79.385C-231.344,79.385 -237.332,73.398 -237.332,66.038L-237.332,0C-237.332,-7.36 -231.344,-13.347 -223.984,-13.347L-13.348,-13.347C-5.988,-13.347 0,-7.36 0,0L0,66.038ZM-13.348,-16.015L-223.984,-16.015C-232.815,-16.015 -240,-8.83 -240,0L-240,66.038C-240,74.869 -232.815,82.053 -223.984,82.053L-13.348,82.053C-4.517,82.053 2.667,74.869 2.667,66.038L2.667,0C2.667,-8.83 -4.517,-16.015 -13.348,-16.015" style="fill:white;fill-rule:nonzero;"/>
    </g>
    <g transform="matrix(4.16667,0,0,4.16667,917.438,203.821)">
        <path d="M0,0.969C-0.956,3.165 -2.318,4.983 -4.164,6.527C-6.033,8.092 -8.365,9.339 -11.095,10.235C-13.871,11.144 -17.103,11.606 -20.701,11.606L-40.687,11.606L-40.687,25.172C-40.687,25.458 -40.918,25.69 -41.205,25.69L-50.951,25.69C-51.237,25.69 -51.469,25.458 -51.469,25.172L-51.469,2.527C-51.469,2.24 -51.237,2.009 -50.951,2.009L-19.218,2.009C-16.295,2.009 -13.938,1.239 -12.212,-0.281C-10.429,-1.851 -9.486,-4.029 -9.486,-6.578C-9.486,-9.137 -10.436,-11.307 -12.233,-12.852C-13.956,-14.332 -16.306,-15.082 -19.218,-15.082L-57.714,-15.082C-57.939,-15.082 -58.139,-15.227 -58.207,-15.442C-58.716,-17.031 -59.392,-18.495 -60.217,-19.794C-61.21,-21.354 -62.359,-22.782 -63.634,-24.038C-63.783,-24.186 -63.829,-24.409 -63.75,-24.603C-63.67,-24.798 -63.48,-24.925 -63.27,-24.925L-20.626,-24.925C-17.036,-24.925 -13.811,-24.452 -11.04,-23.518C-8.317,-22.6 -6.004,-21.32 -4.163,-19.712C-2.327,-18.111 -0.967,-16.245 -0.004,-14.01C0.957,-11.776 1.444,-9.248 1.444,-6.495C1.444,-3.745 0.958,-1.234 0,0.969M2.518,-14.999C1.404,-17.587 -0.238,-19.839 -2.361,-21.692C-4.477,-23.539 -7.105,-25 -10.172,-26.034C-13.228,-27.063 -16.75,-27.585 -20.641,-27.585L-72.577,-27.585C-72.824,-27.585 -73.036,-27.411 -73.085,-27.169C-73.133,-26.927 -73.004,-26.684 -72.776,-26.589C-71.477,-26.049 -70.368,-25.499 -69.384,-24.909C-66.639,-23.262 -64.344,-21.008 -62.563,-18.209C-61.554,-16.623 -60.812,-14.744 -60.356,-12.626C-60.304,-12.388 -60.093,-12.218 -59.849,-12.218L-19.233,-12.218C-17,-12.218 -15.255,-11.692 -14.048,-10.655C-12.848,-9.622 -12.264,-8.255 -12.264,-6.476C-12.264,-4.694 -12.849,-3.312 -14.053,-2.252C-15.259,-1.19 -17.002,-0.652 -19.233,-0.652L-53.728,-0.652C-54.014,-0.652 -54.246,-0.42 -54.246,-0.134L-54.246,28.036C-54.246,28.323 -54.014,28.554 -53.728,28.554L-38.458,28.554C-38.171,28.554 -37.939,28.323 -37.939,28.036L-37.939,14.47L-20.716,14.47C-16.825,14.47 -13.304,13.963 -10.25,12.961C-7.185,11.955 -4.546,10.538 -2.407,8.748C-0.254,6.947 1.402,4.735 2.517,2.174C3.628,-0.379 4.191,-3.261 4.191,-6.393C4.191,-9.523 3.628,-12.419 2.518,-14.999" style="fill:white;fill-rule:nonzero;"/>
    </g>
    <g transform="matrix(4.16667,0,0,4.16667,646.122,102.598)">
        <path d="M0,49.575C-0.083,49.762 -0.269,49.882 -0.473,49.882L-13.571,49.882C-13.733,49.882 -13.886,49.806 -13.984,49.677L-24.156,36.25L-24.829,35.362L-45.269,35.362C-45.429,35.362 -45.58,35.287 -45.678,35.16L-51.87,27.149C-51.991,26.993 -52.012,26.782 -51.925,26.604C-51.838,26.427 -51.658,26.315 -51.46,26.315L-21.736,26.315C-18.928,26.315 -16.495,25.634 -14.503,24.291C-12.261,22.783 -11.075,20.578 -11.075,17.918C-11.075,14.325 -12.786,12.336 -14.22,11.3C-16.08,9.956 -18.609,9.274 -21.736,9.274L-56.166,9.274C-56.392,9.274 -56.591,9.128 -56.66,8.913C-57.17,7.3 -57.853,5.815 -58.689,4.5C-59.651,2.988 -60.761,1.599 -61.987,0.373C-62.135,0.225 -62.179,0.002 -62.099,-0.191C-62.019,-0.384 -61.83,-0.511 -61.621,-0.511L-22.991,-0.511C-20.339,-0.511 -17.55,-0.235 -14.701,0.311C-11.973,0.833 -9.462,1.774 -7.239,3.108C-5.093,4.395 -3.292,6.167 -1.887,8.375C-1.227,9.414 -0.719,10.634 -0.379,11.999C-0.02,13.438 0.162,15.07 0.162,16.851C0.162,18.751 -0.103,20.57 -0.624,22.26C-1.141,23.933 -1.888,25.452 -2.845,26.775C-3.789,28.08 -4.962,29.205 -6.332,30.119C-7.576,30.948 -9.095,31.89 -11.385,32.583C-11.403,32.589 -11.422,32.593 -11.44,32.596L-14.536,33.171L-11.941,35.975C-10.992,36.838 -1.21,47.763 -0.087,49.018C0.049,49.171 0.083,49.389 0,49.575M-3.195,41.228C-4.914,39.319 -6.307,37.798 -7.347,36.696C-8.091,35.909 -8.794,35.211 -9.447,34.611C-7.756,34.145 -6.202,33.443 -4.815,32.519C-3.17,31.422 -1.759,30.069 -0.622,28.495C0.513,26.928 1.395,25.138 2,23.177C2.603,21.223 2.909,19.129 2.909,16.953C2.909,14.947 2.7,13.09 2.286,11.432C1.874,9.779 1.249,8.286 0.429,6.995C-1.209,4.421 -3.316,2.35 -5.833,0.841C-8.335,-0.66 -11.149,-1.717 -14.197,-2.3C-17.217,-2.878 -20.181,-3.171 -23.006,-3.171L-70.767,-3.171C-71.013,-3.171 -71.225,-2.998 -71.274,-2.758C-71.324,-2.517 -71.197,-2.275 -70.971,-2.177C-69.759,-1.657 -68.74,-1.146 -67.856,-0.616C-65.111,1.031 -62.816,3.285 -61.035,6.085C-60.016,7.687 -59.27,9.586 -58.814,11.728C-58.764,11.968 -58.552,12.138 -58.308,12.138L-21.751,12.138C-19.217,12.138 -17.232,12.644 -15.854,13.641C-14.507,14.613 -13.853,16.045 -13.853,18.019C-13.853,19.767 -14.575,21.102 -16.06,22.101C-17.588,23.132 -19.503,23.654 -21.751,23.654L-57.102,23.654C-57.299,23.654 -57.479,23.766 -57.566,23.944C-57.654,24.121 -57.632,24.333 -57.512,24.489L-47.049,38.025C-46.951,38.152 -46.8,38.225 -46.64,38.225L-26.217,38.225L-15.372,52.541C-15.274,52.67 -15.121,52.746 -14.959,52.746L5.492,52.746C5.694,52.746 5.877,52.629 5.962,52.445C6.047,52.262 6.018,52.046 5.886,51.892L-3.195,41.228Z" style="fill:white;fill-rule:nonzero;"/>
    </g>
    <g transform="matrix(4.16667,0,0,4.16667,381.158,102.57)">
        <path d="M0,49.589C-0.085,49.772 -0.268,49.888 -0.47,49.888L-13.568,49.888C-13.73,49.888 -13.883,49.813 -13.98,49.683L-24.152,36.257L-24.826,35.368L-45.265,35.368C-45.425,35.368 -45.577,35.294 -45.675,35.167L-51.867,27.156C-51.987,27 -52.009,26.788 -51.922,26.611C-51.834,26.434 -51.654,26.321 -51.457,26.321L-21.732,26.321C-18.924,26.321 -16.491,25.64 -14.5,24.298C-12.257,22.789 -11.072,20.585 -11.072,17.924C-11.072,15.986 -11.589,14.304 -12.61,12.924C-13.101,12.262 -13.626,11.733 -14.217,11.307C-16.076,9.963 -18.605,9.281 -21.732,9.281L-63.309,9.281C-63.473,9.281 -63.628,9.203 -63.726,9.071L-70.188,0.321C-70.304,0.164 -70.321,-0.045 -70.233,-0.22C-70.146,-0.394 -69.966,-0.504 -69.771,-0.504L-22.988,-0.504C-20.336,-0.504 -17.547,-0.228 -14.698,0.318C-11.969,0.839 -9.458,1.78 -7.235,3.114C-5.089,4.401 -3.289,6.173 -1.884,8.381C-1.216,9.433 -0.704,10.671 -0.363,12.06C-0.188,12.772 -0.053,13.588 0.039,14.488C0.124,15.323 0.166,16.099 0.166,16.858C0.166,18.23 0.023,19.577 -0.257,20.864C-0.364,21.356 -0.477,21.795 -0.614,22.238L-0.636,22.309C-1.152,23.968 -1.895,25.473 -2.842,26.781C-3.786,28.087 -4.958,29.212 -6.328,30.126C-6.774,30.422 -7.09,30.661 -7.425,30.914C-8.048,31.386 -8.755,31.921 -10.468,32.952C-10.484,32.963 -10.501,32.971 -10.518,32.979L-12.85,34.056C-10.438,36.73 -1.225,47.669 -0.073,49.037C0.057,49.191 0.085,49.406 0,49.589M-3.191,41.235C-4.91,39.325 -6.304,37.804 -7.343,36.703C-8.087,35.916 -8.79,35.218 -9.443,34.618C-7.752,34.151 -6.198,33.45 -4.812,32.526C-3.167,31.429 -1.755,30.075 -0.618,28.502C0.504,26.951 1.38,25.178 1.987,23.232L2.004,23.183C2.159,22.68 2.297,22.147 2.427,21.555C2.749,20.075 2.913,18.529 2.913,16.96C2.913,16.106 2.867,15.239 2.771,14.309C2.666,13.268 2.513,12.351 2.305,11.504C1.892,9.822 1.262,8.307 0.433,7.002C-1.206,4.428 -3.313,2.357 -5.83,0.847C-8.332,-0.654 -11.146,-1.711 -14.194,-2.293C-17.214,-2.871 -20.177,-3.164 -23.003,-3.164L-75.26,-3.164C-75.456,-3.164 -75.635,-3.055 -75.723,-2.88C-75.811,-2.705 -75.793,-2.496 -75.677,-2.339L-65.134,11.935C-65.037,12.067 -64.882,12.145 -64.718,12.145L-21.748,12.145C-19.213,12.145 -17.229,12.651 -15.85,13.648C-15.488,13.909 -15.169,14.234 -14.846,14.67C-14.185,15.564 -13.849,16.693 -13.849,18.026C-13.849,19.774 -14.571,21.109 -16.057,22.108C-17.585,23.139 -19.5,23.661 -21.748,23.661L-57.098,23.661C-57.296,23.661 -57.476,23.773 -57.563,23.951C-57.65,24.128 -57.629,24.339 -57.508,24.496L-47.046,38.031C-46.948,38.158 -46.796,38.232 -46.636,38.232L-26.214,38.232L-15.369,52.547C-15.271,52.677 -15.118,52.753 -14.956,52.753L5.496,52.753C5.698,52.753 5.881,52.635 5.966,52.452C6.05,52.268 6.021,52.053 5.89,51.899L-3.191,41.235Z" style="fill:white;fill-rule:nonzero;"/>
    </g>
</svg>
