<?xml version="1.0" encoding="UTF-8"?>
<svg width="120px" height="84px" viewBox="0 0 120 84" version="1.1" xmlns="http://www.w3.org/2000/svg" xmlns:xlink="http://www.w3.org/1999/xlink">
    <!-- Generator: Sketch 41 (35326) - http://www.bohemiancoding.com/sketch -->
    <title>Slice 1</title>
    <desc>Created with Sketch.</desc>
    <defs></defs>
    <g id="Page-1" stroke="none" stroke-width="1" fill="none" fill-rule="evenodd">
        <path d="M92.0923523,75.7158379 C91.957947,76.3847033 91.6199571,76.7464381 91.2295887,76.730428 C90.8327965,76.7138766 90.5185253,76.3314137 90.3984499,75.6527258 C90.2418084,74.7693873 90.2190781,73.8675638 90.3678134,72.9770324 C90.5155604,72.0929206 90.9612722,71.651058 91.475669,71.838693 C91.8477544,71.9744306 92.0463975,72.3910792 92.1289184,72.9351897 C92.1951328,73.3710968 92.2178631,73.8233234 92.2672769,74.3470926 C92.2158866,74.7635092 92.1852501,75.2548715 92.0923523,75.7158379 L92.0923523,75.7158379 Z M91.3254513,71.1481715 C90.7161802,71.105942 90.200795,71.6486604 90.0041284,72.6296834 C89.7733664,73.7803979 89.7896729,74.952459 90.0589777,76.0823681 C90.2472439,76.8697234 90.6331651,77.3248117 91.1861046,77.3714498 C91.7286673,77.4173917 92.1145885,77.0195375 92.3819167,76.3062771 C92.6156436,75.6819615 92.6383739,74.9844792 92.6630808,74.082269 C92.6344208,73.7852705 92.6092198,73.2813785 92.5346051,72.7961263 C92.3809284,71.7960768 91.9198984,71.1892408 91.3254513,71.1481715 L91.3254513,71.1481715 Z M45.6486922,75.3377836 C45.7300766,76.3304856 45.3037844,77.0321445 44.7112151,76.9493097 C44.475907,76.9163615 44.2884807,76.6608964 44.2690117,76.3382972 C44.245639,75.9528953 44.4188341,75.8213343 44.6081381,75.7413612 C44.9477586,75.5978893 45.2909369,75.4752228 45.6486922,75.3377836 L45.6486922,75.3377836 Z M43.8468209,76.2304033 C43.8326391,76.7465928 44.0482312,77.2630144 44.3694204,77.4825922 C45.0269194,77.931957 45.9501653,77.1672633 46.0537365,76.0592424 C46.1009266,75.554345 46.0916862,75.0364539 46.1094752,74.4832169 C45.523132,74.7155563 44.9700442,74.9150249 44.4248626,75.1577283 C44.0479841,75.3254087 43.8609532,75.7110426 43.8468209,76.2304033 L43.8468209,76.2304033 Z M39.5541521,79.1864662 C39.4885801,79.18461 39.4093205,79.0390498 39.3627727,78.9320839 C38.8233232,77.6954411 38.289062,76.4532295 37.7534173,75.2126421 C37.7395814,75.1804672 37.7233737,75.1505354 37.7113168,75.116891 C37.2389216,73.7964853 36.503003,73.367075 35.5480335,73.5992597 L35.5480335,79.1791186 L33.8029385,79.1791186 L33.8029385,65.6887362 C33.8470155,65.6743504 33.878245,65.6550145 33.9095733,65.6552466 C35.3454866,65.6618207 36.7815482,65.6608153 38.2174615,65.6857198 C38.5119179,65.6908245 38.8091414,65.7663116 39.0992,65.8558752 C40.0625205,66.1532604 40.7168075,67.2603532 40.8473092,68.7813102 C41.0417028,71.0468517 40.3462046,72.6217171 38.9200752,73.1449449 C38.8418039,73.1736393 38.7634337,73.2016375 38.6249271,73.251756 C39.6145851,74.1104993 40.1100565,75.5294404 40.6562263,76.8802421 C40.9164884,77.5235841 41.1745763,78.1692464 41.4321206,78.8153728 C41.4735787,78.919477 41.5070318,79.0314701 41.564154,79.1979904 C40.8671241,79.1979904 40.2104157,79.2054153 39.5541521,79.1864662 L39.5541521,79.1864662 Z M39.5981303,73.5143367 C40.7987849,72.6586872 41.336505,71.2083446 41.2923786,69.2016713 C41.2475109,67.166613 40.4179534,65.5925211 39.1553339,65.2018598 C38.8010376,65.0921869 38.4350301,65.0326326 38.0738652,65.0265224 C36.6784712,65.002778 35.2828794,65.0088882 33.8873371,65.0063358 C33.516586,65.0056397 33.3723473,65.2396807 33.3722979,65.8363847 C33.3717544,70.2312661 33.3717544,74.6259927 33.3722979,79.0209514 C33.3723473,79.6325827 33.5166354,79.8646127 33.9094251,79.8702588 C34.3801402,79.8771424 34.8508553,79.8727338 35.3215704,79.871883 C35.836659,79.8708002 35.9645417,79.6716411 35.9650359,78.8637124 C35.9659253,77.4426056 35.9689396,76.0215762 35.9624664,74.6007788 C35.9611816,74.3088076 35.9984395,74.2089574 36.2115115,74.2166144 C36.6565315,74.2326244 36.9570163,74.5703055 37.1930163,75.111941 C37.8205705,76.5525383 38.4495578,77.9915114 39.072566,79.4369813 C39.1882435,79.7053628 39.331148,79.8701041 39.5385374,79.8690987 C40.1824476,79.8661596 40.8266542,79.8767557 41.4699715,79.8443488 C41.9594638,79.8195989 42.1281622,79.3109117 41.8617235,78.6710501 C41.138356,76.933145 40.5399064,75.0608171 39.5981303,73.5143367 L39.5981303,73.5143367 Z M38.1746692,70.6359265 C37.4459157,70.7229378 36.7136043,70.7394892 35.9602427,70.7863593 L35.9602427,68.6400813 C36.6943824,68.6400813 37.4177993,68.6097627 38.1393878,68.6532296 C38.4897805,68.6743444 38.6494857,69.0358472 38.6576884,69.600531 C38.6665334,70.205124 38.5184405,70.5947025 38.1746692,70.6359265 L38.1746692,70.6359265 Z M38.9886121,70.3847153 C39.2153716,69.4251163 39.0715777,68.0382726 38.0233644,67.9729948 C37.2740053,67.9262021 36.5230156,67.9395052 35.7727177,67.9297599 C35.7006725,67.9287544 35.6285778,67.9542777 35.5473911,67.969205 L35.5473911,71.4311708 C36.4415324,71.3882453 37.3062725,71.3613298 38.1699255,71.2988364 C38.5542654,71.2709154 38.853762,70.9553545 38.9886121,70.3847153 L38.9886121,70.3847153 Z M32.3583778,79.1899467 L30.8375223,79.1899467 L30.8375223,77.870005 C30.7559402,77.9825396 30.712802,78.029255 30.6797937,78.0895828 C29.5860704,80.0844226 27.538514,79.9541763 26.6490176,77.2062443 C26.0408829,75.3272649 26.0589684,73.3168791 26.6039523,71.3963663 C27.3032059,68.9320524 29.386686,68.4339612 30.5073398,70.1916663 C30.552158,70.2619714 30.6050801,70.3195922 30.6893305,70.428569 L30.6893305,65.6812339 L32.3583778,65.6812339 L32.3583778,79.1899467 L32.3583778,79.1899467 Z M32.307284,65.0068772 C31.8199165,65.0020819 31.3326477,65.004789 30.8453296,65.0058718 C30.4343063,65.0067225 30.3002469,65.2182566 30.2998021,65.8677861 C30.2990609,66.9141643 30.2997033,67.9604652 30.2997033,69.0811704 C30.2111045,69.016666 30.1609002,68.9799279 30.110597,68.9433445 C28.6435036,67.8780945 26.9146163,68.7772884 26.2455051,71.0717563 C25.6172097,73.2261554 25.6320832,75.4537986 26.3007497,77.5901768 C26.8885259,79.4676867 28.1994225,80.4251974 29.4463778,79.9744403 C29.7772026,79.8547901 30.0892009,79.6081422 30.4200257,79.413701 C30.5206321,79.7579563 30.7143339,79.8712643 30.9579929,79.8672424 C31.4121544,79.8599721 31.8664148,79.879076 32.3205269,79.8678612 C32.6288685,79.8600495 32.7919338,79.5964633 32.7921808,79.1103604 C32.7945033,74.6633496 32.7945033,70.2163388 32.7924279,65.769328 C32.7921314,65.2454041 32.6379112,65.0101256 32.307284,65.0068772 L32.307284,65.0068772 Z M84.0596578,79.4324181 C81.9674808,79.5038833 80.6817358,77.5612503 80.63924,74.2646446 C80.603168,71.4103655 81.9403033,69.2125768 83.7409393,69.1683364 C85.716994,69.1196874 87.089213,71.1294544 87.1312147,74.1332382 C87.1717339,77.064706 85.8345986,79.3719356 84.0596578,79.4324181 L84.0596578,79.4324181 Z M84.3294567,68.5575559 C82.9137536,68.3158579 81.6952112,68.9770662 80.8586369,70.8893033 C80.3417694,72.070259 80.1767276,73.4021889 80.2370123,74.8311847 C80.3417694,77.30099 81.1990975,79.0669707 82.6958391,79.8064505 C85.1882672,81.0374474 87.6278226,78.2321266 87.5517254,74.223962 C87.4914407,71.0828937 86.2733925,68.8895909 84.3294567,68.5575559 L84.3294567,68.5575559 Z M94.2942277,79.1685226 L92.7638848,79.1685226 L92.7638848,77.9510608 C92.3063137,78.6744532 91.817612,79.2014708 91.1979639,79.3705434 C90.0955438,79.671177 89.0089361,78.7850542 88.5340702,77.1010574 C88.0137437,75.256109 87.9964489,73.3376845 88.5024454,71.4902612 C89.1853431,68.9994185 91.1574447,68.3857763 92.4461545,70.1935225 C92.4940858,70.2606565 92.5420172,70.3279453 92.627997,70.4490649 L92.627997,65.6752011 L94.2942277,65.6752011 L94.2942277,79.1685226 L94.2942277,79.1685226 Z M94.233943,65.000071 C93.7304171,64.999607 93.2268913,65.0013859 92.7233655,65.0063358 C92.3735164,65.0097389 92.2287342,65.2368964 92.2277459,65.7842553 C92.2257693,66.7146958 92.22824,67.6449817 92.2257693,68.5754222 C92.2257693,68.7255457 92.2104511,68.8755918 92.2000742,69.0575033 C92.1378129,69.0174395 92.1012468,68.9967115 92.066163,68.9708014 C90.5659624,67.8631673 88.8369763,68.7629025 88.1545728,71.1255099 C87.5546903,73.2000133 87.5616082,75.3607546 88.1777973,77.4306948 C88.8058457,79.5404668 90.2398319,80.5359531 91.5725199,79.8937712 C91.8363892,79.7668507 92.0844461,79.5607307 92.2494879,79.4510578 C92.4842031,79.619357 92.6546804,79.8330567 92.8340522,79.8527792 C93.3020002,79.9039032 93.7743954,79.8826337 94.244814,79.8661596 C94.5630383,79.8550222 94.7117736,79.6041203 94.7122678,79.1101283 C94.7137502,74.6520574 94.7137502,70.1940639 94.7122678,65.7360704 C94.7117736,65.2568509 94.5412963,65.000303 94.233943,65.000071 L94.233943,65.000071 Z M79.9350945,70.8602222 C79.8555384,71.2100462 79.7690644,71.5556163 79.6934614,71.8699397 C79.4577579,71.7489747 79.2447848,71.5898794 79.0219289,71.5356617 C78.5643578,71.4245193 78.2392156,71.7299482 78.0524317,72.3942503 C77.8098103,73.2578662 77.8196931,74.1835114 77.8098103,75.0974005 C77.7964686,76.3116138 77.8063514,77.5264458 77.8063514,78.7409685 L77.8063514,79.1838366 L76.1435796,79.1838366 L76.1435796,69.3959578 L77.6586043,69.3959578 L77.6586043,70.5773002 C77.6763933,70.5948572 77.6941822,70.6124914 77.7119711,70.6300484 C78.0035121,70.0279304 78.2688638,69.3739923 78.7842489,69.2136596 C79.2872806,69.057194 79.7438634,69.2570492 80.199952,69.636805 C80.1090308,70.0595638 80.0250274,70.4617493 79.9350945,70.8602222 L79.9350945,70.8602222 Z M80.3363339,69.0267207 C79.627247,68.4320276 78.9058067,68.2783464 78.165095,68.9037447 C78.1127164,68.9479078 78.0326662,68.9399414 77.9699108,68.9197548 C77.8216696,68.872034 77.6773815,68.7583392 77.5291404,68.7499862 C77.1091237,68.7260871 76.6876247,68.7410917 76.2671139,68.7417878 C75.8436383,68.7427159 75.7097272,68.9532445 75.709233,69.6288387 C75.7077506,71.1787995 75.7087389,72.7288376 75.7087389,74.2787211 C75.7087389,75.8674309 75.7072565,77.4562181 75.7097272,79.0448505 C75.7107154,79.5560128 75.8554976,79.8506136 76.1445679,79.8616737 C76.6891071,79.8824017 77.2341405,79.8821697 77.7781855,79.8595854 C78.0529258,79.8480613 78.1937549,79.5922868 78.201167,79.158932 C78.2095673,78.6685751 78.1986963,78.1773675 78.2080849,77.6871653 C78.2362507,76.2563906 78.2456393,74.8231409 78.3103713,73.3962334 C78.3592909,72.3317568 78.6923394,71.7945299 79.4241566,72.4463024 C79.7176741,72.7078002 79.9845082,72.5347058 80.102607,72.0443489 C80.2681429,71.3569986 80.4237962,70.6635381 80.574508,69.9676799 C80.6669117,69.538347 80.592297,69.2413485 80.3363339,69.0267207 L80.3363339,69.0267207 Z M59.5949244,75.6894638 C59.5163566,76.4440256 59.3177134,76.8018933 58.9530402,76.8412611 C58.5117756,76.8886725 58.1629148,76.4742669 58.0240622,75.6894638 L59.5949244,75.6894638 L59.5949244,75.6894638 Z M57.5753856,75.0782967 C57.5536436,76.4482021 58.0729818,77.2326958 58.6056617,77.4226511 C59.1922026,77.6315554 59.6557033,77.2675003 59.8790533,76.3883384 C59.9447736,76.1282327 60.0263062,76.0698385 60.1908539,76.1184874 C60.6597901,76.2573961 61.1316911,76.3764275 61.6228635,76.5088393 C61.3589943,77.6906458 60.9177297,78.5913865 60.1814653,79.0522755 C59.2920183,79.6089156 58.3867589,79.581072 57.501265,79.0340225 C56.7155869,78.5487703 56.2560393,77.5758682 56.0163827,76.344098 C55.7683258,75.0660764 55.7673376,73.7653159 55.9896993,72.4815709 C56.4309638,69.937284 57.9410472,68.6249993 59.6013482,69.3261941 C60.7685003,69.8193354 61.3837011,71.1028483 61.6016156,72.8922641 C61.685619,73.5829403 61.6969841,74.2951952 61.746892,75.0782967 L57.5753856,75.0782967 L57.5753856,75.0782967 Z M62.1308366,74.672012 C62.1120594,74.1572147 62.096247,73.6405611 62.0542453,73.1297082 C61.8432487,70.5506941 60.7956778,68.88263 59.1852847,68.5444075 C57.7947825,68.252359 56.5194144,69.2476906 55.8735771,71.1636402 C55.3962405,72.5796423 55.3305203,74.1101899 55.4876559,75.6524937 C55.6803694,77.5436934 56.2797579,79.0022344 57.4706285,79.7219143 C58.0596401,80.0779257 58.6763233,80.1386402 59.2979479,80.0533305 C60.4660883,79.8929978 61.3337933,79.0136812 61.855108,77.3529647 C62.1713558,76.3453355 62.0848818,76.0486464 61.3921014,75.7371074 C61.4548569,75.7251191 61.4943879,75.7142137 61.534413,75.7103466 C62.0320091,75.6610015 62.1590024,75.4466831 62.1308366,74.672012 L62.1308366,74.672012 Z M72.0921486,71.0143675 C71.5490918,71.1228802 70.9981288,71.1378075 70.4353066,71.1942682 L70.4353066,68.5396122 C71.012953,68.5990119 71.5802225,68.6074424 72.136621,68.7321198 C72.5116711,68.8161147 72.6954902,69.3016763 72.6851133,69.896524 C72.6752305,70.4767539 72.4681871,70.9392671 72.0921486,71.0143675 L72.0921486,71.0143675 Z M72.2176595,68.082513 C71.495725,67.9386544 70.7624254,67.9444551 70.0123251,67.8841273 L70.0123251,71.8622054 C70.7629195,71.7966955 71.4804068,71.7879557 72.1885054,71.6547705 C72.7360094,71.5519038 73.0937648,70.7718961 73.1051299,69.8835303 C73.1155068,69.0100145 72.7656577,68.1918765 72.2176595,68.082513 L72.2176595,68.082513 Z M74.6092836,71.9421784 C74.1591246,73.2464967 73.4376843,73.9144339 72.5096946,74.0068592 C71.7941839,74.0780151 71.0752143,74.0681151 70.357727,74.0931744 C70.2524758,74.0968095 70.1467304,74.0935611 70.0088662,74.0935611 L70.0088662,79.1782678 L68.2650559,79.1782678 L68.2650559,65.6932995 C68.2961866,65.6779082 68.3184227,65.6565614 68.3411531,65.6568708 C69.7603151,65.6760519 71.1804655,65.6577215 72.5981451,65.7297282 C73.8779605,65.7946193 74.8133623,67.3015772 74.8904477,69.3031458 C74.9260255,70.2159521 74.8948949,71.11561 74.6092836,71.9421784 L74.6092836,71.9421784 Z M72.7300798,65.1027056 C71.2886815,65.0083468 69.8438243,65.0307763 68.3999554,65.0070319 C67.9863625,65.000071 67.8489924,65.2150855 67.8465217,65.8573447 C67.8435569,66.6323251 67.8460276,67.4073829 67.8460276,68.1824406 C67.8460276,71.7863315 67.8450393,75.3902224 67.8465217,78.9941133 C67.8470158,79.6366819 67.9888332,79.8646901 68.3930375,79.8701815 C68.888163,79.8771424 69.3832884,79.8760596 69.8789081,79.8707229 C70.2920068,79.8661596 70.4303652,79.6467365 70.4308593,79.010046 C70.4313535,77.7441674 70.4308593,76.4782887 70.4308593,75.2124874 L70.4308593,74.7528358 C70.545005,74.7528358 70.6334556,74.7552335 70.7219061,74.7525265 C71.2333382,74.7361297 71.7447702,74.7271578 72.2552139,74.6995463 C73.3808585,74.6385997 74.311813,73.9997436 74.9087307,72.4329993 C75.3099702,71.3794281 75.3682784,70.2254653 75.2921812,69.0268754 C75.1562935,66.9007839 74.0929102,65.1920372 72.7300798,65.1027056 L72.7300798,65.1027056 Z M84.8295235,75.6950326 C84.6560814,76.351523 84.312656,76.675901 83.8476729,76.6540901 C83.3920784,76.632666 83.077313,76.2696163 82.9142477,75.6305282 C82.6913918,74.7582499 82.6953449,73.8596748 82.9058474,72.9806676 C83.0644654,72.3186085 83.4474218,71.9151855 83.8812742,71.9256269 C84.3393394,71.9367643 84.6802941,72.2790087 84.8443477,72.9423826 C84.9491048,73.3673844 84.9812237,73.8363171 85.0494146,74.3101225 C84.9777647,74.779674 84.9431751,75.2630699 84.8295235,75.6950326 L84.8295235,75.6950326 Z M83.9311821,71.2883177 C83.2527317,71.2778763 82.7091808,71.8448804 82.490278,72.8450073 C82.2782931,73.8141969 82.277799,74.8013301 82.4967018,75.7700556 C82.7086866,76.7099321 83.235931,77.2945705 83.8476729,77.3121274 C84.4880747,77.3306898 85.0212488,76.8037495 85.2445988,75.8344053 C85.3622035,75.3212321 85.3967931,74.7608795 85.4610309,74.2817375 C85.3987696,73.768487 85.3730745,73.326315 85.2895653,72.9124507 C85.0894397,71.918434 84.5523126,71.2979856 83.9311821,71.2883177 L83.9311821,71.2883177 Z M30.1827905,75.6642499 C30.0657293,76.34433 29.6940393,76.7530896 29.2913669,76.730428 C28.8959583,76.7081532 28.5729408,76.2825327 28.4593881,75.5971932 C28.3209803,74.7610342 28.3040314,73.9115722 28.4240573,73.0681429 C28.5563872,72.1385532 29.0074851,71.6532236 29.5370519,71.8352899 C29.8461348,71.9414823 30.0443826,72.2498502 30.1507704,72.7006073 C30.2045325,72.9283061 30.2399127,73.169308 30.2672385,73.4088404 C30.2932301,73.6363845 30.297875,73.8700388 30.3118591,74.1009861 C30.3250031,74.1043892 30.3380484,74.1077923 30.351143,74.1112727 C30.2971338,74.6297826 30.2697092,75.1594298 30.1827905,75.6642499 L30.1827905,75.6642499 Z M29.3373217,71.1462379 C28.7848763,71.1423708 28.2958287,71.6413127 28.1126026,72.5038458 C27.9949979,73.0573148 27.9584812,73.6528587 27.8972082,74.1374921 C27.9579377,74.7602608 27.9811621,75.2786933 28.0625959,75.7736134 C28.2250188,76.7604373 28.6924232,77.3459264 29.2949247,77.385913 C29.8503844,77.4227284 30.3782711,76.8407197 30.5726153,75.9047877 C30.8058481,74.7818396 30.79473,73.6389369 30.5530475,72.5227176 C30.3622611,71.6414674 29.9008852,71.1504145 29.3373217,71.1462379 L29.3373217,71.1462379 Z M54.0556463,78.3854211 C52.9878157,79.8599721 50.9549353,79.7902858 49.9231768,78.2598929 C49.5288553,77.6754865 49.2699274,76.9623034 49.1330019,76.148342 C48.9274903,74.926317 48.9185464,73.6906022 49.1306301,72.4715163 C49.5412087,70.1119253 50.7197259,69.111953 52.1448177,69.1585137 C52.4314172,69.1679496 52.7224641,69.227736 53.0011575,69.3319949 C53.9449595,69.6852993 54.5868438,70.7340752 54.8225472,72.302289 C54.2824552,72.4558156 53.7571874,72.6052429 53.2210485,72.7574547 C53.193871,72.6528865 53.1666934,72.5613893 53.1454455,72.4667983 C52.9616265,71.6427823 52.6483435,71.2569163 52.1344408,71.2228852 C51.5760657,71.1858377 51.0913171,71.5816037 50.9104629,72.327967 C50.5961916,73.6221534 50.6134864,74.9398521 50.9490056,76.217719 C51.1471546,76.9705792 51.6249853,77.3408991 52.1858311,77.2868361 C52.6839214,77.2387286 53.0105461,76.8201463 53.1829999,76.0024724 C53.219072,75.8320076 53.2477319,75.6577531 53.2887453,75.4369378 C53.82439,75.577084 54.3565758,75.7163793 54.9149509,75.8625583 C54.7844987,76.8581219 54.5354535,77.7232073 54.0556463,78.3854211 L54.0556463,78.3854211 Z M54.965847,75.2158132 C54.4470029,75.0632147 53.9261823,74.9278638 53.4043734,74.8041145 C53.1227152,74.7372125 52.9487789,74.9314216 52.8652697,75.3577382 C52.8405629,75.4808688 52.8217856,75.6064744 52.7980671,75.7297597 C52.6770034,76.3584839 52.4877489,76.6151864 52.1285111,76.6396269 C51.7307307,76.6665424 51.4080591,76.3810681 51.2869955,75.8236546 C51.0695751,74.8207433 51.054751,73.7943197 51.2430173,72.7774093 C51.3591395,72.1523976 51.6620456,71.8608132 52.0934274,71.8836295 C52.4877489,71.9045895 52.6434021,72.1155048 52.7718778,72.8028552 C52.8608225,73.2784395 53.006593,73.4594229 53.3154287,73.3843999 C53.8362493,73.2577115 54.3550934,73.1061185 54.8724551,72.9412998 C55.167455,72.847173 55.3058134,72.4962662 55.2213159,72.0441169 C54.9510229,70.5977189 54.4331671,69.4697434 53.5056715,68.8965518 C52.9255545,68.5380654 52.3197422,68.4595619 51.7050355,68.5263092 C50.7281263,68.6325789 49.8999523,69.2186869 49.2955237,70.4588102 C48.7455984,71.587095 48.5700314,72.8972141 48.5774435,74.2866101 C48.5774435,74.4287672 48.5739845,74.5712336 48.5779376,74.7130814 C48.6263631,76.4567873 48.9830807,77.9772029 49.898964,79.0719981 C50.6574647,79.9790809 51.537523,80.1620753 52.4576065,80.0585899 C53.9242058,79.8937712 55.0300848,78.36624 55.3156962,76.1168632 C55.376475,75.6374891 55.2568938,75.3015869 54.965847,75.2158132 L54.965847,75.2158132 Z M44.1783869,72.8872368 C44.4021817,71.9295714 44.5702378,71.7304123 45.0685257,71.7908174 C45.5478882,71.8489796 45.6088153,71.9011864 45.6675189,72.3766933 C45.1697744,72.5472354 44.6842352,72.7136783 44.1783869,72.8872368 L44.1783869,72.8872368 Z M46.5240069,79.1879357 C46.4763226,79.1863115 46.4108495,79.0607833 46.3873779,78.9712197 C46.3252649,78.7335435 46.2814843,78.4840339 46.2190254,78.1847151 C46.1375916,78.2852615 46.0697465,78.3669361 46.0032851,78.4513177 C45.2710726,79.380134 44.4428986,79.6428694 43.5370463,79.2863165 C42.7695523,78.984368 42.2378113,77.9666069 42.1878046,76.7557967 C42.133153,75.4349269 42.5309335,74.3563738 43.325852,73.9357033 C43.9630914,73.598641 44.6335861,73.4160333 45.2886639,73.1605682 C45.4884435,73.0827608 45.6840724,72.9771098 45.8851863,72.9086609 C46.0747867,72.8441566 46.1072021,72.6690512 46.087239,72.3995096 C46.0277943,71.5995473 45.8596888,71.2978309 45.3445508,71.2117477 C45.0933314,71.1698277 44.826942,71.1586129 44.5844195,71.2472483 C44.4076172,71.3119074 44.2408953,71.5336508 44.1031793,71.7400802 C43.9946173,71.9028106 43.9370009,72.1486078 43.8459808,72.3854331 C43.3700773,72.2511651 42.8853287,72.114422 42.4029025,71.9782977 C42.4178255,70.9727568 43.0439467,69.7970605 43.7577774,69.4418998 C44.3398216,69.1524036 44.9420266,69.0777673 45.544281,69.1933183 C45.9493253,69.2708936 46.3639064,69.3749205 46.743305,69.5968185 C47.3251021,69.937284 47.6550375,70.6567318 47.6815233,71.6428596 C47.7124563,72.7910217 47.7146799,73.9411947 47.7256992,75.0905169 C47.7324194,75.7875352 47.6973357,76.4905863 47.7450693,77.1801023 C47.7914688,77.8501278 47.9197468,78.5062314 48.0162024,79.197681 C47.5402001,79.197681 47.0319305,79.2035591 46.5240069,79.1879357 L46.5240069,79.1879357 Z M48.1316329,76.4964644 C48.1297057,75.0240016 48.1439369,73.5514615 48.1275315,72.0795402 C48.1058883,70.1507516 47.5081306,69.1016664 46.3259567,68.6845537 C45.5804519,68.4212769 44.8191841,68.4384471 44.0635,68.6487437 C42.9642424,68.9546367 42.3020985,70.007125 41.9863449,71.6422409 C41.8844538,72.1696452 42.0262711,72.5258113 42.3725131,72.6306116 C42.7840306,72.7552891 43.1966845,72.8701439 43.6087456,72.98933 C43.6106233,73.0114502 43.612501,73.0338025 43.6143293,73.0559227 C43.4606032,73.1452542 43.3049006,73.2267741 43.153497,73.3250002 C42.1856304,73.9529509 41.7090351,75.1971734 41.7830568,76.8947827 C41.8453675,78.3222316 42.5051395,79.5349754 43.4426661,79.9168195 C44.3409087,80.2827309 45.1880575,80.0645453 45.920863,79.3635052 C46.106115,79.5466542 46.2522314,79.8073013 46.4095647,79.825245 C46.9433317,79.8865009 47.4813483,79.87954 48.0172895,79.8644581 C48.4135382,79.8531659 48.5978513,79.3920449 48.4338966,78.8286759 C48.2171186,78.0840141 48.1326212,77.3047024 48.1316329,76.4964644 L48.1316329,76.4964644 Z M58.0542046,72.801231 C58.1609382,72.1262556 58.4455613,71.7845526 58.8561893,71.8061314 C59.229757,71.8256219 59.4975794,72.1933896 59.5637938,72.801231 L58.0542046,72.801231 L58.0542046,72.801231 Z M59.4244471,71.4027085 C58.9960301,71.0110417 58.5468594,71.0320791 58.1377138,71.4716214 C57.706332,71.9347534 57.5669853,72.6272085 57.5813153,73.4366067 L60.0643548,73.4366067 C60.0426127,72.5872993 59.9096898,71.8466593 59.4244471,71.4027085 L59.4244471,71.4027085 Z M66.6754165,71.8967778 C66.4920916,71.7818456 66.3369325,71.6637423 66.1738672,71.5862443 C65.6589763,71.3413752 65.1910283,71.6311808 65.0368575,72.4308337 C64.8935577,73.1727885 64.8238844,73.9666407 64.7996717,74.7434773 C64.7586583,76.07154 64.7789179,77.4043207 64.7734824,78.7350131 C64.7729883,78.8740764 64.7734824,79.0132945 64.7734824,79.181903 L63.1265231,79.181903 L63.1265231,69.3825774 C63.5915062,69.3825774 64.05896,69.374147 64.5254255,69.3958805 C64.5713803,69.3979688 64.6455009,69.5808858 64.6514305,69.6876196 C64.6687253,69.9883306 64.6578543,70.2931407 64.6578543,70.5963267 C65.0086917,69.9448636 65.3106095,69.2783186 65.8951739,69.1798605 C66.349286,69.1034453 66.756455,69.2931685 67.1828954,69.6378879 C67.0114298,70.4012667 66.8434232,71.1480168 66.6754165,71.8967778 L66.6754165,71.8967778 Z M67.2896291,69.0016614 C66.5385405,68.3881739 65.783993,68.2821362 65.1055426,68.9374664 C64.8387085,68.8536262 64.6618074,68.759422 64.4829297,68.7493674 C64.0624189,68.7254683 63.6409199,68.7403956 63.219915,68.7420198 C62.8374528,68.7435667 62.7005768,68.9580398 62.7005768,69.5613179 C62.7000826,72.7145291 62.7000826,75.8676629 62.7005768,79.0210288 C62.7005768,79.639853 62.8384411,79.863994 63.2347391,79.8701041 C63.7056519,79.8773744 64.1760705,79.8766783 64.6469833,79.8704135 C65.0427872,79.8650768 65.1841104,79.6383834 65.1865811,79.0281444 C65.1920166,77.7232073 65.1766984,76.4171875 65.2102997,75.1141066 C65.2310534,74.3210279 65.2947971,73.5223031 65.398566,72.7456985 C65.4702159,72.2093223 65.7350734,72.0516966 66.0730633,72.2169793 C66.1748555,72.2664791 66.2712123,72.3425076 66.367569,72.4156744 C66.7302657,72.6922542 66.9659692,72.5520307 67.1038335,71.9605088 C67.2535571,71.3182495 67.3978451,70.6730513 67.5421332,70.0279304 C67.6533141,69.5321595 67.5875938,69.2448289 67.2896291,69.0016614 L67.2896291,69.0016614 Z M112.577799,79.1242822 C111.96408,79.4479641 111.338997,79.5743431 110.707489,79.2671353 C110.085865,78.9644908 109.801736,78.2742787 109.788888,77.0025993 C109.772582,75.3366235 109.775052,73.6702609 109.769617,72.0040531 C109.769123,71.8496757 109.769617,71.6952211 109.769617,71.4678316 L109.011116,71.4678316 C109.011116,70.8193076 109.004693,70.215024 109.018528,69.6119778 C109.020505,69.5302259 109.120321,69.3963446 109.181594,69.3864446 C109.367389,69.3565127 109.55615,69.3756165 109.769617,69.3756165 C109.769617,68.8042812 109.776041,68.2776503 109.766652,67.7517928 C109.762699,67.5149675 109.816066,67.3800807 109.948989,67.263911 C110.437196,66.8366663 110.918486,66.3896217 111.439801,65.9163577 L111.439801,69.3755392 C111.77532,69.3755392 112.085144,69.3806439 112.394474,69.3729095 C112.513561,69.3698931 112.580269,69.4135148 112.578787,69.6272145 C112.573846,70.2205153 112.57681,70.8139709 112.57681,71.4571582 L111.505027,71.4571582 C111.478838,71.52785 111.464013,71.5491968 111.464013,71.5705436 C111.461543,73.2236804 111.454131,74.8768172 111.462531,76.529722 C111.465002,77.0697333 111.68094,77.3275961 112.019424,77.2406621 C112.196325,77.1953389 112.369767,77.1157526 112.580764,77.0384866 C112.621777,77.6675975 112.666249,78.276831 112.694909,78.8879209 C112.698368,78.9641041 112.630177,79.0967479 112.577799,79.1242822 L112.577799,79.1242822 Z M112.997815,77.0616896 C112.952849,76.5153362 112.723569,76.2810632 112.385579,76.4216734 C112.23042,76.4863324 112.074767,76.5485165 111.885512,76.6257051 L111.885512,72.1153501 C112.104909,72.1153501 112.31047,72.1201454 112.516526,72.1142673 C112.835738,72.1052182 112.987438,71.8709451 112.989909,71.378036 C112.992874,70.7452126 112.992874,70.1122346 112.989909,69.4794887 C112.987438,68.9830217 112.835244,68.7492901 112.516526,68.7425612 C112.304541,68.7381526 112.09305,68.7417104 111.859323,68.7417104 C111.859323,67.8213245 111.860806,66.9588688 111.858829,66.096413 C111.856852,65.3932073 111.540605,65.095126 111.146283,65.4379891 C110.692665,65.8326722 110.25486,66.27322 109.79383,66.6453188 C109.477088,66.901016 109.314022,67.248365 109.340706,67.8060879 C109.34713,67.9474715 109.34713,68.0895513 109.353059,68.2309349 C109.374307,68.7201316 109.370848,68.7263964 109.061024,68.7417878 C108.749224,68.7572564 108.606912,68.9602827 108.598018,69.4499435 C108.586652,70.0693091 108.588135,70.6895254 108.589617,71.3092004 C108.590606,71.8769779 108.755153,72.129272 109.120815,72.139868 C109.186041,72.1417242 109.250773,72.1401774 109.356518,72.1401774 C109.356518,72.3435904 109.356024,72.5088731 109.357012,72.6740785 C109.364919,74.2095761 109.352565,75.7463112 109.387649,77.2803393 C109.419768,78.6690392 109.817054,79.5123138 110.580002,79.8835619 C111.342456,80.2545779 112.096509,80.1146638 112.831291,79.6689341 C113.070948,79.5236832 113.160386,79.223591 113.130738,78.8299907 C113.086266,78.2404797 113.045747,77.6503499 112.997815,77.0616896 L112.997815,77.0616896 Z M117.380318,72.4737592 C116.897546,72.2772298 116.441952,72.0920698 115.986851,71.9068325 C115.990804,71.8707905 115.994263,71.8348258 115.998216,71.7988611 C116.739916,71.4838417 117.225159,71.6946796 117.380318,72.4737592 L117.380318,72.4737592 Z M115.757078,75.7614705 C116.346583,75.9918764 116.906441,76.2104487 117.465804,76.4289436 C117.467286,76.4826199 117.468769,76.5362962 117.470251,76.5899725 C117.157462,76.9685682 116.777471,76.9339184 116.40588,76.8661656 C116.016005,76.7949324 115.831198,76.4649857 115.757078,75.7614705 L115.757078,75.7614705 Z M118.89979,78.3810125 C118.391817,79.0631036 117.792923,79.3264577 117.14758,79.4041104 C116.440963,79.4892655 115.742253,79.4316447 115.083074,78.9797274 C114.360646,78.4848073 113.894674,77.6371242 113.683184,76.3936751 C114.247488,76.2592523 114.789557,76.1302436 115.32619,76.0023177 C115.351391,76.0662033 115.368192,76.0955938 115.375109,76.1300116 C115.551516,77.007704 115.928049,77.5118279 116.519037,77.5060272 C116.850109,77.5027788 117.186122,77.4076464 117.508794,77.2837424 C117.756357,77.1888421 117.878409,76.8602102 117.873467,76.4561685 C117.867538,76.0519721 117.690636,75.8732317 117.466792,75.7812704 C116.845168,75.52596 116.214154,75.3162822 115.603895,75.0052845 C115.210068,74.8045785 114.79351,74.5596321 114.480721,74.1563639 C113.554214,72.9614864 113.770152,70.5810127 114.877513,69.705718 C115.221433,69.4339334 115.627614,69.2568945 116.01057,69.2284321 C116.598099,69.1849652 117.199958,69.2244876 117.779087,69.3801025 C118.60479,69.6019232 119.088056,70.4875046 119.347973,71.7654488 C118.821222,71.9208316 118.308308,72.0722699 117.800335,72.222084 C117.372412,71.0780211 116.516072,70.6698029 115.754607,71.2681311 C115.62959,71.3659704 115.489749,71.6462627 115.490738,71.8400852 C115.49222,72.031974 115.639967,72.3224756 115.763995,72.3930901 C116.196365,72.6385779 116.647513,72.8020044 117.089766,73.006887 C117.547337,73.2191171 118.009849,73.4127849 118.458032,73.668018 C119.893994,74.4859239 119.798626,77.1743789 118.89979,78.3810125 L118.89979,78.3810125 Z M118.623073,73.0664414 C118.501021,72.9925785 118.383417,72.9020867 118.199598,72.775089 C118.589966,72.6601567 118.917579,72.5604611 119.24618,72.4678812 C119.684974,72.3442091 119.836674,71.965072 119.684974,71.3003059 C119.405293,70.0720161 118.892378,69.1670989 118.075075,68.8301912 C117.594774,68.6321922 117.086307,68.5616551 116.587722,68.5210498 C115.949297,68.4691524 115.313836,68.5909682 114.738661,69.0721986 C113.950018,69.7321694 113.495411,70.7559634 113.498376,72.1850365 C113.501835,73.581084 113.918393,74.5931992 114.73026,75.1951625 C114.80191,75.2483747 114.870101,75.3124923 114.990671,75.4141989 C114.539523,75.5247998 114.142237,75.6213244 113.744951,75.7197051 C113.342723,75.8197101 113.193,76.1839972 113.317522,76.7963246 C113.571509,78.042558 114.076517,78.9597729 114.832053,79.516413 C115.658744,80.1256466 116.536332,80.1653237 117.424791,80.0107143 C118.150184,79.8844126 118.790586,79.4746476 119.316842,78.6492393 C120.275962,77.1452978 120.314011,74.0910861 118.623073,73.0664414 L118.623073,73.0664414 Z M6.18234842,79.1876264 C6.11059969,79.1853061 6.0245704,79.0254374 5.9734272,78.9084169 C5.4238478,77.6504272 4.88000038,76.3864048 4.33442349,75.1240066 C4.32058764,75.0919864 4.30467643,75.0618225 4.29257006,75.0281782 C3.82501743,73.7360801 3.09201429,73.3891178 2.16876833,73.6144964 L2.16876833,76.3701627 L2.16876833,79.1758702 L0.425798139,79.1758702 L0.425798139,65.6939182 C0.453370995,65.679455 0.475953066,65.6571028 0.498436309,65.6572575 C2.0501754,65.6757425 3.60226038,65.6741957 5.15355474,65.7270985 C5.75427735,65.7475172 6.32105273,66.0001206 6.78989012,66.6682898 C7.8305925,68.1508072 7.90718377,72.0305045 5.87682338,72.9976058 C5.68939713,73.08686 5.49866017,73.1600268 5.26290731,73.2606505 C6.42062138,74.296278 6.92528371,76.0908759 7.59567967,77.6739396 C7.79857241,78.1533137 7.98510921,78.649626 8.20371551,79.2002333 C7.49645692,79.2002333 6.8391556,79.2091278 6.18234842,79.1876264 L6.18234842,79.1876264 Z M8.3942054,78.4361584 C7.69687897,76.7795411 7.12540929,74.988037 6.22588191,73.5206789 C6.27435677,73.4804603 6.30800751,73.4502964 6.34279477,73.4239997 C7.45648122,72.582504 7.94844423,71.1596957 7.91508996,69.2624632 C7.88079684,67.3128693 7.14354412,65.7462797 6.00786857,65.2894125 C5.58078577,65.1176329 5.12850198,65.0418364 4.68664449,65.0301576 C3.31610552,64.9941156 1.94507241,65.0091975 0.574286371,65.0060265 C0.123534407,65.0048663 0.00513913056,65.192656 0.00484264823,65.900193 C0.00316258171,70.307836 0.00163075635,74.7154017 1.03554975e-07,79.1230447 C-0.000148137609,79.5740338 0.158865217,79.8574972 0.452580376,79.8656956 C1.00571757,79.8807775 1.55925008,79.8818603 2.11233786,79.8660823 C2.43510828,79.8568011 2.58077993,79.5921321 2.58127407,79.071302 C2.58250941,77.6107501 2.58161997,76.1499662 2.58166938,74.6894143 L2.58166938,74.2374971 C3.09438615,74.1651037 3.49063478,74.36318 3.77347892,75.0194384 C4.40093435,76.475427 5.03308409,77.9266977 5.67674722,79.3652067 C5.76860733,79.570476 5.93137613,79.8250129 6.0674121,79.8339074 C6.78420754,79.881783 7.50347367,79.8818603 8.2209609,79.8479066 C8.53281089,79.833134 8.6923678,79.3146242 8.55890134,78.868121 C8.51358896,78.7170694 8.45315597,78.5761498 8.3942054,78.4361584 L8.3942054,78.4361584 Z M10.963966,72.87579 C11.0545907,72.0458958 11.2944944,71.7430966 11.8033569,71.7811495 C12.2494145,71.8144845 12.3689463,71.9236933 12.3958768,72.3827261 C11.9132036,72.548937 11.4435261,72.7106619 10.963966,72.87579 L10.963966,72.87579 Z M13.2779611,79.1881678 C13.2237543,79.1861569 13.1487937,79.0550599 13.1229503,78.9580713 C13.0606396,78.7236436 13.0216522,78.4739019 12.9652711,78.1902065 C12.8451958,78.33538 12.7453306,78.4629965 12.6411171,78.5808678 C11.8719925,79.4523727 11.0307239,79.6708676 10.1303071,79.2083544 C9.42675452,78.8469289 8.95890541,77.8537629 8.93325969,76.7420295 C8.90242553,75.4062325 9.25375708,74.4020837 10.008107,73.9722094 C10.5851604,73.6433454 11.2006083,73.4795322 11.7986131,73.2403092 C12.0860528,73.1254543 12.3765066,73.0238252 12.6569789,72.8762541 C12.7289747,72.8385105 12.8115944,72.6529638 12.815844,72.5292144 C12.8436145,71.7079054 12.6183374,71.3095871 12.0967261,71.2091181 C12.0721181,71.2043228 12.0478065,71.1965111 12.0231491,71.1924893 C11.2299106,71.0643313 10.9869434,71.2642639 10.5983539,72.3913112 C10.1021413,72.2495409 9.61763973,72.1111736 9.09548494,71.962133 C9.31344886,70.8432067 9.66482983,69.9535261 10.3694695,69.5199392 C10.9735028,69.1483044 11.6091609,69.0904516 12.2455108,69.1895284 C12.6359781,69.2503977 13.0358339,69.3361714 13.4040649,69.5353306 C14.0161527,69.8664375 14.3863109,70.5761401 14.4241618,71.6146293 C14.4579114,72.5419761 14.4599373,73.4726487 14.4666576,74.401929 C14.4758486,75.664714 14.3847297,76.9356973 14.5877212,78.1814667 C14.6419775,78.5143525 14.7271173,78.8348633 14.8061793,79.1986091 C14.2809608,79.1986091 13.7792139,79.2057247 13.2779611,79.1881678 L13.2779611,79.1881678 Z M14.8703677,76.2252213 C14.8743208,74.8303339 14.8869213,73.4349051 14.8676994,72.0405591 C14.8423995,70.1994779 14.2917824,69.0826399 12.9952158,68.6637483 C12.2461532,68.421741 11.4845395,68.4314089 10.7321168,68.669085 C9.65993787,69.0077716 9.01884425,70.0734083 8.72320196,71.6823821 C8.63455374,72.1648499 8.78966342,72.5208613 9.10151341,72.6268991 C9.19001338,72.6571403 9.27984753,72.6777137 9.36898988,72.7039331 C9.69996299,72.801231 10.0310843,72.8990703 10.3621069,72.996755 C10.2405985,73.1274653 10.1236362,73.1864782 10.0082058,73.2519107 C9.03095062,73.8053024 8.47435446,75.0774459 8.51225478,76.6683213 C8.54961156,78.2350656 9.17884588,79.4985467 10.1648967,79.9112508 C11.0615087,80.2866754 11.9153283,80.082953 12.7283323,79.2945922 C12.8442569,79.6235335 12.9810835,79.8705682 13.2302769,79.8696401 C13.7505045,79.8679385 14.2710287,79.8867329 14.7907128,79.861055 C15.1624028,79.8428793 15.3452336,79.3883324 15.1890368,78.8647952 C14.9377186,78.0226808 14.8676994,77.1385689 14.8703677,76.2252213 L14.8703677,76.2252213 Z M19.8357549,75.7012974 C19.7296142,76.2734062 19.4949485,76.6481347 19.1068037,76.7105508 C18.7006229,76.7758286 18.3734546,76.4891941 18.2223969,75.9243556 C18.0761817,75.3776154 18.0237537,74.7691553 17.94484,74.2796492 C18.0091767,73.7244013 18.0298316,73.2807598 18.1150703,72.8696799 C18.2518969,72.209477 18.618102,71.8301079 19.0124729,71.8577968 C19.4033354,71.8851763 19.7230916,72.2804009 19.8437599,72.9509677 C20.0082088,73.8640834 20.0051451,74.787331 19.8357549,75.7012974 L19.8357549,75.7012974 Z M19.0514603,71.2238133 C18.4689714,71.1838268 18.0263727,71.5766537 17.7983778,72.3962612 C17.4375093,73.6935413 17.460042,75.0277141 17.8708183,76.284853 C18.1321674,77.0848153 18.6011037,77.4700625 19.1900658,77.3486335 C19.7393487,77.2354028 20.0850471,76.7061422 20.2302246,75.894037 C20.3224306,75.3774608 20.3533142,74.833969 20.4209122,74.2190894 C20.344568,73.6731226 20.3044935,73.0472602 20.1662339,72.4800241 C19.980043,71.7161038 19.5985196,71.2613248 19.0514603,71.2238133 L19.0514603,71.2238133 Z M25.0280993,68.0456202 L23.3820294,68.0456202 L23.3820294,65.6784496 L25.0280993,65.6784496 L25.0280993,68.0456202 L25.0280993,68.0456202 Z M25.024838,79.1958248 L23.384253,79.1958248 L23.384253,69.4103437 L25.024838,69.4103437 L25.024838,79.1958248 L25.024838,79.1958248 Z M25.4562692,65.723154 C25.4506854,65.2525971 25.287126,65.0108991 24.9895566,65.0074186 C24.4693784,65.0013859 23.9491013,65.0003804 23.4288242,65.0078827 C23.1111434,65.0123686 22.9685354,65.2470283 22.9662624,65.7581132 C22.9629517,66.4816603 22.9714014,67.2054394 22.9629517,67.9287544 C22.9588009,68.2974502 23.0511551,68.5477333 23.3135914,68.7213691 C23.0480915,68.8808511 22.9554902,69.1517075 22.9557867,69.5283697 C22.9582573,72.6952706 22.9560337,75.8620942 22.9582573,79.0289178 C22.9588009,79.6364499 23.109068,79.8645354 23.5035378,79.8704135 C23.9576499,79.8771424 24.4119102,79.8750541 24.8660717,79.8711096 C25.3159342,79.8672424 25.4589375,79.643024 25.4591846,78.9405917 C25.4600246,75.8512661 25.4577022,72.7618632 25.4618035,69.6726924 C25.4623965,69.2532594 25.4104133,68.9017338 25.2012944,68.7754321 C25.2887567,68.5022554 25.4342307,68.2439286 25.4467323,67.9708292 C25.4806302,67.2250073 25.4651143,66.4726111 25.4562692,65.723154 L25.4562692,65.723154 Z M101.130122,79.1853834 L99.5898962,79.1853834 L99.5898962,77.9505968 C99.5651893,77.9234493 99.5399883,77.8963017 99.5152815,77.8689995 C99.4411609,78.0115433 99.3764289,78.1700199 99.2914373,78.2938466 C98.5685146,79.3464896 97.7240341,79.681541 96.7738082,79.2649697 C95.9985069,78.9250457 95.5191939,77.9802193 95.4598974,76.6466652 C95.4178957,75.7076395 95.4208605,74.7630452 95.4169075,73.8207711 C95.4104837,72.3616114 95.4149309,70.9023743 95.4149309,69.4091062 L97.0836323,69.4091062 C97.0836323,69.5567547 97.0821499,69.7061047 97.0836323,69.8556094 C97.1014212,71.9217597 97.1048802,73.9886062 97.1453994,76.053751 C97.1622001,76.9237864 97.5535568,77.4289932 98.1099553,77.4401306 C98.8309014,77.4546712 99.3902648,76.6472839 99.4149716,75.4548815 C99.4535143,73.596398 99.4540085,71.735981 99.470315,69.8762601 C99.4717974,69.724203 99.470315,69.5718366 99.470315,69.3979688 L101.130122,69.3979688 L101.130122,79.1853834 L101.130122,79.1853834 Z M101.069837,68.7430253 C100.583112,68.7381526 100.095893,68.7410917 99.6086734,68.7417878 C99.1753151,68.7424839 99.0502984,68.9363836 99.0498042,69.6200215 C99.0483218,70.9896176 99.0572163,72.3594458 99.0458511,73.7288098 C99.0404156,74.3988353 99.0181795,75.0715678 98.9687657,75.7366433 C98.9223168,76.3632791 98.5057592,76.8310517 98.0877191,76.7916066 C97.7136572,76.756106 97.5629454,76.4632841 97.5367561,75.6917068 C97.5174847,75.1374643 97.5006841,74.5826031 97.4982134,74.0278966 C97.4903072,72.5162207 97.4917896,71.0046222 97.4873424,69.4929464 C97.4863541,69.0219254 97.3440426,68.7516104 97.0737495,68.745887 C96.52081,68.7337441 95.9678704,68.7352136 95.4144368,68.7453456 C95.1723095,68.7499088 95.0057853,68.9999599 95.0057853,69.3805665 C95.0052912,71.7319591 94.9726781,74.0856721 95.0295039,76.4338936 C95.0794117,78.4855034 95.8359358,79.7458907 97.0628785,80.0362376 C97.8011195,80.2108789 98.4894526,79.9534803 99.0759935,79.3958347 C99.2741425,79.5768181 99.4179365,79.8116325 99.571119,79.828184 C100.08008,79.8837166 100.592995,79.8771424 101.104427,79.8616737 C101.388556,79.8531659 101.541738,79.5820775 101.541738,79.1369665 C101.544703,75.9196377 101.544703,72.7023089 101.542232,69.4850574 C101.541738,68.9850326 101.385591,68.7461963 101.069837,68.7430253 L101.069837,68.7430253 Z M5.27017112,69.8750999 C5.21892909,70.34906 5.06342411,70.6374734 4.74450796,70.6531741 C4.03769409,70.6881332 3.32964488,70.6640795 2.58384358,70.6640795 L2.58384358,68.6106134 C3.27104021,68.6106134 3.94672343,68.5752675 4.62003479,68.6218282 C5.14713096,68.6582569 5.35313676,69.1066937 5.27017112,69.8750999 L5.27017112,69.8750999 Z M5.70348004,69.6047849 C5.69997167,68.6555499 5.30703376,68.0074126 4.68041836,67.9721441 C4.03759526,67.9359474 3.3938333,67.9364888 2.75046665,67.9307654 C2.55641897,67.9289865 2.36237129,67.9600785 2.16283868,67.9767073 L2.16283868,71.3877039 C2.77398758,71.3877039 3.35929311,71.3947421 3.9444504,71.3843008 C4.19962285,71.3796602 4.45489414,71.345165 4.70957246,71.3134543 C5.34997428,71.2334812 5.7072849,70.6159719 5.70348004,69.6047849 L5.70348004,69.6047849 Z M11.6405881,76.9291231 C11.5119641,76.9622261 11.3408444,76.9390231 11.24345,76.8265658 C11.1349375,76.7011149 11.0365053,76.4475061 11.0320087,76.2441704 C11.028698,76.0956711 11.1666116,75.8554427 11.272357,75.8001422 C11.6353996,75.6102643 12.0118828,75.4836532 12.3985945,75.3268009 C12.4807201,76.3984704 12.1054229,76.809937 11.6405881,76.9291231 L11.6405881,76.9291231 Z M11.1412624,75.1683243 C10.8305983,75.3411867 10.6126838,75.6477758 10.5955867,76.197223 C10.5777483,76.7731216 10.7516352,77.1921679 11.0722809,77.4484064 C11.6752271,77.9301781 12.6317285,77.2766268 12.7739906,76.2462586 C12.8506313,75.6909334 12.8341765,75.1042067 12.8613046,74.4973707 C12.3892553,74.6689183 11.9651868,74.8195058 11.5423042,74.9788331 C11.4067129,75.0298797 11.2726535,75.0951575 11.1412624,75.1683243 L11.1412624,75.1683243 Z M21.5672611,77.4464728 C21.0056247,79.0900191 19.8459341,79.8107044 18.7864051,79.2702291 C18.4465375,79.0969026 18.1539589,78.6931703 17.8429983,78.3865813 C17.7695696,78.3141105 17.7095813,78.2081501 17.5968192,78.0540822 L17.5968192,82.9071456 L15.9400265,82.9071456 C15.9362711,82.7826228 15.9290567,82.6577133 15.9290073,82.5326491 C15.9285131,78.2933825 15.9316756,74.054116 15.9231764,69.8147721 C15.9224847,69.4490927 15.9919109,69.3533417 16.2155574,69.3676502 C16.6262843,69.3940243 17.0382465,69.3751525 17.4873678,69.3751525 L17.4873678,70.6214633 C17.5184984,70.6496936 17.5494808,70.6778466 17.5805127,70.7061542 C17.5873812,70.6526326 17.5829339,70.5836424 17.6028971,70.5479871 C18.7550274,68.4835383 20.7058811,68.7137121 21.5651363,71.1080303 C22.3071327,73.1758049 22.2778798,75.3670968 21.5672611,77.4464728 L21.5672611,77.4464728 Z M19.2278673,68.5178014 C18.7508272,68.5638207 18.3174195,68.8226889 17.9039255,69.2188416 C17.767,68.8064468 17.5562505,68.7178113 17.2939625,68.7349042 C16.8983562,68.7608142 16.5016135,68.7414784 16.1053154,68.7416331 C15.6277318,68.7418651 15.5156615,68.9208376 15.5155627,69.6844486 C15.5155132,71.9715689 15.5155132,74.2586892 15.5155627,76.5458868 C15.5155627,78.6391073 15.5146238,80.7324825 15.5163533,82.825703 C15.516798,83.3135849 15.6618767,83.5821984 15.9494151,83.5896233 C16.4941026,83.6038545 17.0391359,83.6031584 17.5838728,83.589314 C17.8313367,83.5829718 17.9812579,83.3459144 18.000381,82.9599711 C18.0131298,82.7034232 18.0046306,82.4439362 18.00468,82.1856868 C18.0049271,81.2985585 18.0048777,80.4114303 18.0048777,79.4857077 C18.0657554,79.5251528 18.1033098,79.5434831 18.1373065,79.5725642 C19.5093278,80.7380512 21.2867394,79.918057 22.0419787,77.4531243 C22.6540665,75.4552682 22.6576243,73.3672297 22.1178288,71.3310112 C21.6152912,69.4353256 20.4899431,68.396295 19.2278673,68.5178014 L19.2278673,68.5178014 Z M107.022708,78.7292123 C106.096695,79.6828559 104.248128,79.807456 103.217357,78.3257894 C102.743974,77.6459413 102.458857,76.8037495 102.335817,75.8274444 C102.170281,74.5114472 102.178187,73.2007868 102.494435,71.9382339 C102.906545,70.2913618 103.705071,69.3747658 104.81688,69.2230954 C105.316946,69.1548786 105.843697,69.2088643 106.333387,69.3819587 C107.299919,69.7236616 107.807398,70.83292 108.08955,72.2974164 C107.541552,72.4524898 107.008872,72.6033094 106.464827,72.7571453 C106.440615,72.6525771 106.418872,72.5720626 106.402072,72.4894599 C106.242465,71.7052757 105.929182,71.2785724 105.449375,71.2286086 C104.915213,71.172844 104.434417,71.4083546 104.204644,72.2039083 C103.818722,73.5393186 103.846888,74.9336646 104.215021,76.2620367 C104.443312,77.0855887 104.932508,77.36271 105.492365,77.2778643 C105.98502,77.2030733 106.279032,76.7439631 106.42579,76.0270676 C106.463345,75.8446146 106.49744,75.6605374 106.541419,75.4357776 C107.077557,75.577316 107.608755,75.7176168 108.168612,75.8654973 C107.995664,77.062231 107.672499,78.0596509 107.022708,78.7292123 L107.022708,78.7292123 Z M108.149835,75.1929969 C107.727842,75.0772139 107.304366,74.9707121 106.880891,74.8629728 C106.299785,74.7150149 106.217264,74.7984684 106.060623,75.6822709 C105.946477,76.326541 105.75327,76.6008779 105.38662,76.6386988 C104.989828,76.6796908 104.652332,76.3798306 104.529786,75.8000648 C104.317801,74.79522 104.301,73.7667081 104.494702,72.7502617 C104.610824,72.1411828 104.920648,71.8582608 105.358948,71.8837068 C105.734492,71.9055176 105.887675,72.1173611 106.01368,72.7909443 C106.104107,73.2734122 106.264208,73.4618979 106.580949,73.3839358 C107.085958,73.2597997 107.588989,73.1149356 108.08955,72.9549122 C108.430999,72.8459355 108.563428,72.5029177 108.461142,71.9816235 C108.11821,70.2306473 107.421971,69.0266433 106.240983,68.6698584 C105.824425,68.5438661 105.387114,68.5028741 104.96265,68.5345849 C103.474803,68.6457273 102.365465,70.0709333 101.973614,72.3188405 C101.817467,73.2140125 101.804619,74.1268187 101.842174,75.047514 C101.965214,78.0816938 103.315691,80.0776937 105.253697,80.0790085 C107.025673,80.080478 108.156259,78.7384162 108.552557,76.16412 C108.637054,75.6142088 108.506108,75.2904495 108.149835,75.1929969 L108.149835,75.1929969 Z" id="RRP_Text-Logo_White-(2)" fill="#FFFFFF"></path>
        <g id="RRP_Box-Logo_white" transform="translate(1.000000, 0.000000)" fill="#FFFFFF">
            <path d="M102.000926,48.3443953 C100.971786,48.3505033 99.9438004,48.3398498 98.915558,48.349651 C98.8271995,48.5750789 98.8986301,48.8799107 98.8792656,49.1364467 C99.2887415,49.1391456 99.6991152,49.1382933 100.109489,49.1364467 C100.127186,50.4330473 100.111156,51.7296479 100.11744,53.0261064 C100.400598,53.027953 100.684653,53.0289474 100.969478,53.0242598 C100.975121,51.7286536 100.958962,50.432053 100.977429,49.137299 C101.384468,49.1382933 101.791764,49.1382933 102.199573,49.137299 C102.197906,48.8826096 102.209191,48.6286304 102.194828,48.3755035 C102.146481,48.3674068 102.049145,48.3523499 102.000926,48.3443953 L102.000926,48.3443953 Z M105.591311,48.3478044 C105.468199,48.4059015 105.497951,48.5813289 105.454605,48.6970968 C105.2398,49.6400016 104.993576,50.5738154 104.800444,51.5228281 C104.512413,50.481201 104.293632,49.4172726 104.035354,48.3665546 C103.609847,48.3291963 103.181007,48.3398498 102.755501,48.3603045 C102.758707,49.9152877 102.754603,51.4702709 102.75704,53.0261064 C103.018396,53.027953 103.28001,53.027953 103.543033,53.0242598 C103.5615,51.8143076 103.505202,50.6015144 103.574324,49.3931247 C103.80439,50.6130202 104.099731,51.8178588 104.369295,53.027953 C104.637833,53.0269587 104.907398,53.0242598 105.177603,53.0323565 C105.484229,51.8455578 105.717629,50.6354636 106.011944,49.4448297 C106.06106,50.6363158 106.019254,51.8320634 106.033745,53.0261064 C106.291254,53.027953 106.549533,53.027953 106.808453,53.0261064 C106.803708,51.4658675 106.836666,49.903782 106.798835,48.3460999 C106.395643,48.3487988 105.993605,48.3398498 105.591311,48.3478044 L105.591311,48.3478044 Z M105.781878,26.1382635 C105.453707,27.7956622 104.73363,29.3398499 103.77156,30.6534961 C102.766786,32.0390178 101.408834,33.0726903 99.9453393,33.7785194 C98.3434716,34.5661674 96.5656561,34.6721341 94.8440106,34.8182999 C91.9952483,35.0180173 89.1376373,34.8691526 86.2874643,34.9494089 C86.3002884,39.8308374 86.2897726,44.7122659 86.2922092,49.5945467 C83.9287137,49.5945467 81.5643205,49.5963933 79.2006967,49.5936944 C79.199799,36.6299612 79.199799,23.6672223 79.2006967,10.7036311 C81.7831009,10.6990856 84.3653769,10.7036311 86.948807,10.7017845 C89.7675607,10.7026368 92.5874687,10.6750798 95.4039141,10.8140013 C96.9188339,10.9397124 98.4755606,10.9868719 99.9099446,11.6053424 C101.559134,12.2753758 102.988003,13.5256692 104.049717,15.0654535 C105.129512,16.5918853 105.742636,18.4748539 105.972702,20.3843853 C106.202767,22.2949109 106.158524,24.2544426 105.781878,26.1382635 L105.781878,26.1382635 Z M107.343478,17.6977175 C106.89694,16.1322228 106.184172,14.6555072 105.228515,13.3981115 C104.204376,12.0705447 102.983002,10.9003655 101.546309,10.1573202 C100.003305,9.2485066 98.2445972,8.93643041 96.5189761,8.83856036 C95.7676077,8.76725301 95.0145721,8.71370147 94.2601259,8.7287584 C93.5167084,8.63088835 92.7659812,8.69679794 92.0194859,8.67719552 C87.7267215,8.67904212 83.4345982,8.67534891 79.1418337,8.67904212 C78.1741214,8.7021957 77.3254175,9.67791322 77.3479881,10.7517849 L77.3479881,49.6061945 C77.3301625,50.6797821 78.1814312,51.6432836 79.1476046,51.6716929 C81.4804504,51.6769486 83.814322,51.6698463 86.148322,51.6752441 C87.1506595,51.7518071 88.1159352,50.816999 88.1385057,49.6952577 C88.1458155,45.4659647 88.1441484,41.2361036 88.1392752,37.0069526 C89.537495,36.977549 90.937382,37.0078049 92.3357301,36.9917537 C92.8158672,36.9116394 93.3017752,36.9426056 93.7861444,36.9400487 C95.3983997,36.8616391 97.0193755,36.7538258 98.6082908,36.4090789 C100.940367,35.8271143 103.125478,34.4727008 104.759535,32.5353283 C105.814067,31.2522221 106.666105,29.7516428 107.197026,28.1165453 C107.750517,26.3805948 107.987123,24.5324276 107.968528,22.6967605 C107.987123,21.0091058 107.789887,19.3152011 107.343478,17.6977175 L107.343478,17.6977175 Z M112.58241,51.0317733 C112.450321,52.871986 111.775385,54.6461469 110.734318,56.081669 C109.210806,58.18552 106.843079,59.4920638 104.411871,59.5953316 C102.613024,59.6139397 100.812638,59.5980305 99.0137912,59.6032863 L10.2828086,59.6032863 C9.58286508,59.6149341 8.88061323,59.5649337 8.19349391,59.4091087 C6.36810078,59.0133671 4.67941337,57.9181884 3.44777956,56.3775519 C2.46147223,55.116605 1.76242643,53.5705707 1.48798907,51.9275187 C1.25151128,50.6354636 1.3600038,49.3113059 1.33589435,48.0020632 L1.33589435,11.1151399 C1.32076183,9.49794028 1.67714566,7.87349633 2.39145223,6.45928122 C3.75107131,3.66579444 6.46864232,1.75782563 9.32856168,1.58765391 C9.43166805,1.57259698 9.53528739,1.563506 9.63916321,1.55910256 L102.883358,1.55910256 C103.713595,1.56535261 104.549475,1.51975567 105.37253,1.67231363 C107.233318,1.97885001 108.989461,3.00186902 110.284703,4.51139734 C111.802828,6.2622627 112.654738,8.68344556 112.627423,11.1090319 C112.626525,23.5835569 112.627423,36.0579399 112.627423,48.5323229 C112.614599,49.3655677 112.662048,50.2012274 112.58241,51.0317733 L112.58241,51.0317733 Z M111.059539,3.27985405 C109.412659,1.38282283 107.091739,0.264490613 104.732091,0.0870745142 C84.9125844,0.0852279095 65.0929496,0.0870745142 45.2733147,0.0862222351 C33.1875553,0.0931825144 21.10077,0.071875537 9.01488235,0.0968757238 C6.88222198,0.332104754 4.79931941,1.29276534 3.22656253,2.92161274 C2.95866551,3.2228934 2.68666475,3.51962857 2.41722882,3.81991491 C0.984383705,5.63242845 0.110800876,7.98386647 0.00538615367,10.3934015 C0.00705329648,23.5835569 0.00538615367,36.7725759 0.0061556042,49.9625892 C-0.0847677995,52.6634617 0.841265907,55.3751297 2.46147223,57.3870765 C2.9401987,57.920035 3.40186901,58.4796983 3.95856647,58.9172016 C5.4992629,60.2013021 7.39223943,60.9568475 9.31650695,61.0763086 L104.407126,61.0763086 C105.014479,61.1057123 105.611317,60.9524441 106.205974,60.8383807 C108.032906,60.3856785 109.772248,59.3822619 111.069029,57.8718813 C112.784263,56.0470097 113.810838,53.4769621 113.957162,50.8544993 C113.958829,37.3383472 113.957162,23.8231894 113.957931,10.3070372 C113.80122,7.68542674 112.788238,5.09762332 111.059539,3.27985405 L111.059539,3.27985405 Z M66.9956725,49.5945467 C66.8812808,49.6257969 66.8316513,49.4973869 66.7792004,49.4181249 C65.0511427,46.5496376 63.3094915,43.6918037 61.5797667,40.8243107 C60.6843828,39.3549816 59.7881012,37.8836637 58.817824,36.4731418 C58.204059,35.5624816 57.4928302,34.702532 56.5839809,34.1499711 C55.9266137,33.7302236 55.1694744,33.5654497 54.4237486,33.4755342 C53.251619,33.3391696 52.0714101,33.3614709 50.8944073,33.365022 C50.8904318,38.7748636 50.8944073,44.1847051 50.8929966,49.5945467 C48.5252691,49.5927001 46.1576698,49.6007967 43.7899423,49.5901433 C43.7931484,36.6282566 43.7899423,23.66637 43.7916095,10.7044834 C48.3345736,10.6982333 52.8767683,10.7036311 57.4188348,10.7017845 C60.1855224,10.7051936 62.9852963,10.6982333 65.6996613,11.3647156 C67.2297137,11.7319058 68.6802561,12.5596109 69.7808269,13.8019497 C70.9215373,15.0744024 71.7317687,16.6944429 72.1565054,18.4222967 C72.5603387,20.1064002 72.6175345,21.8832601 72.3969587,23.6057161 C72.1716379,25.2372624 71.6230197,26.827047 70.7187871,28.1468012 C69.798396,29.5360161 68.5089252,30.5911377 67.0890325,31.2753757 C65.8806104,31.8804939 64.5780589,32.1949849 63.2803806,32.4552141 C64.7502876,33.4265282 66.1533806,34.5627582 67.2844729,35.9955815 C68.5917693,37.6761338 69.6746427,39.5510057 70.7485392,41.4177811 C72.2907745,44.1393923 73.8185185,46.8695263 75.3712697,49.5838932 C72.5797032,49.6087513 69.787239,49.5882966 66.9956725,49.5945467 L66.9956725,49.5945467 Z M76.5040291,47.714419 C75.723678,46.3260564 74.931144,44.9465006 74.15246,43.5574277 C72.9223651,41.3946275 71.7356159,39.1998668 70.4058772,37.1102205 C69.5530695,35.7397557 68.6111338,34.430797 67.4983801,33.3080614 C69.1306412,32.6147323 70.6086274,31.468701 71.7501073,30.0056219 C73.0398346,28.3739336 73.8595559,26.3217876 74.2022178,24.194641 C74.4113801,22.9934957 74.3430273,21.770049 74.3527737,20.5555513 C74.2006789,17.7218654 73.2046252,14.9354809 71.4919566,12.8145844 C71.0229765,12.321825 70.607858,11.7603151 70.0696273,11.3559087 C69.2602936,10.648375 68.3246418,10.141269 67.364111,9.73941936 C65.9699949,9.23685879 64.5136816,8.96682836 63.0551881,8.83856036 C61.13169,8.61838826 59.1952395,8.68685468 57.2621233,8.67719552 C52.7834083,8.67719552 48.305591,8.6780478 43.8277736,8.67719552 C43.0602468,8.67094547 42.3281146,9.2546146 42.0780432,10.055757 C41.9477495,10.4184017 41.95647,10.8140013 41.9621126,11.1962484 L41.9621126,49.6070468 C41.9573677,50.6691286 42.7811927,51.6243914 43.7392868,51.6698463 C46.1286872,51.6789373 48.5179593,51.6708406 50.9073597,51.6735395 C51.8961036,51.6760963 52.7673781,50.7012311 52.7673781,49.6078991 C52.7762268,44.8778921 52.760966,40.147175 52.7745596,35.417168 C53.6305733,35.4697252 54.5058233,35.490322 55.3320849,35.7745571 C56.1606549,36.1247017 56.7656995,36.891895 57.2909777,37.6528382 C59.0617399,40.2424882 60.622442,42.9969122 62.2804797,45.6736367 C63.173427,47.1466591 64.0480357,48.6330338 64.9571415,50.0927038 C65.202468,50.468701 65.3873926,50.9070565 65.7228731,51.2003826 C66.0568146,51.5032257 66.4855268,51.6716929 66.9175732,51.6742497 C69.6802853,51.6735395 72.4436387,51.6716929 75.2062225,51.6752441 C75.5047693,51.6831987 75.8089588,51.6279426 76.0816007,51.4881688 C76.7934707,51.1459787 77.2697606,50.2833303 77.1949957,49.4225284 C77.1708862,48.7738019 76.7934707,48.2470934 76.5040291,47.714419 L76.5040291,47.714419 Z M96.774049,23.9791564 C96.5624501,24.6126839 96.1633618,25.1794495 95.6283372,25.5126906 C94.8858174,26.0250524 93.981713,26.0509049 93.137754,26.1587182 C92.4707687,26.2531791 91.7981407,26.1997696 91.132053,26.2842873 C90.1361275,26.2825827 89.1402021,26.2852816 88.1441484,26.2825827 C88.1410706,23.9658041 88.1424812,21.6497356 88.1433789,19.332957 C89.2221486,19.3311103 90.3010464,19.3285535 91.3799443,19.3338092 C91.7499218,19.3846619 92.1232335,19.3926165 92.4971865,19.381963 C93.2930548,19.4531283 94.1005931,19.461225 94.8801748,19.6795505 C95.7369579,19.9504332 96.517309,20.6588191 96.7908487,21.620332 C96.9864173,22.386815 96.995266,23.2180712 96.774049,23.9791564 L96.774049,23.9791564 Z M95.4731646,17.7271211 C94.5655977,17.4134824 93.6067341,17.4038232 92.6663374,17.3325159 C90.5536827,17.2745609 88.4394891,17.2924588 86.326065,17.3031122 L86.2963129,17.3396182 C86.2874643,20.8487353 86.2970824,24.3578525 86.2922092,27.8669696 C86.2963129,28.0246412 86.2680998,28.1966595 86.3436342,28.3409788 C89.0612052,28.2821715 91.7958323,28.4764912 94.4980143,28.0646983 C95.3444099,27.9426804 96.1761859,27.6307462 96.8744623,27.0757705 C98.0532605,26.176616 98.7701319,24.6233374 98.8005252,23.0453426 C98.8406649,21.9964712 98.6589463,20.9172017 98.1673956,20.0093825 C97.5679937,18.9115049 96.5784803,18.0953057 95.4731646,17.7271211 L95.4731646,17.7271211 Z M109.394833,50.5790711 C109.304936,52.4194258 108.345174,54.1765412 106.925153,55.1326563 C106.267017,55.6130576 105.500387,55.8793948 104.726448,56.0068105 C103.979953,56.1075215 103.227687,56.0656178 102.477088,56.0727201 L10.3656527,56.0727201 C9.19429256,56.0809588 7.97625238,55.8445934 6.99238164,55.0997015 C5.93374596,54.3859177 5.16532137,53.2158806 4.78239149,51.919422 C4.62875787,51.3722588 4.57566579,50.7982489 4.5241126,50.230773 C4.5225737,37.1593686 4.5241126,24.0886743 4.52334315,11.0182641 C4.57335744,10.2918383 4.64645524,9.55404866 4.90075863,8.87506631 C5.26599115,7.88855326 5.83628223,6.97150095 6.62548199,6.34607014 C7.64962063,5.43896109 8.98513026,5.05927076 10.2811414,5.08966871 L103.361187,5.08966871 C104.033045,5.0655208 104.706314,5.12972583 105.363553,5.28753951 C106.85757,5.70103692 108.194618,6.84067611 108.862373,8.38841495 C109.254921,9.19580735 109.383548,10.1154165 109.440872,11.0182641 C109.439974,23.5247496 109.440872,36.0302408 109.440872,48.5368683 C109.42061,49.216703 109.486654,49.903782 109.394833,50.5790711 L109.394833,50.5790711 Z M106.254962,4.01679138 C105.431137,3.70130606 104.552681,3.58014039 103.683843,3.6122429 L10.0397904,3.6122429 C9.80241496,3.6140895 9.56439826,3.5978962 9.32933113,3.63894764 C7.63359041,3.78951695 6.00440717,4.68583047 4.88062468,6.10288651 C3.82186076,7.38599269 3.22566484,9.10759646 3.18796177,10.8398537 C3.18873122,23.9406618 3.18796177,37.041754 3.18873122,50.1424201 C3.17667649,52.1921513 3.98113702,54.2282461 5.36242895,55.596012 C6.61419671,56.8889194 8.33276446,57.5832427 10.0381233,57.550288 L102.881691,57.550288 C103.68551,57.5421913 104.497152,57.6001463 105.291097,57.4201733 C106.749719,57.1340917 108.105234,56.2803921 109.08436,55.0497011 C110.196985,53.7033842 110.793951,51.870416 110.773945,50.0508001 L110.773945,11.5554841 C110.798054,10.6527785 110.731112,9.73856708 110.487453,8.87236743 C109.892026,6.62590178 108.254251,4.76523447 106.254962,4.01679138 L106.254962,4.01679138 Z M30.0420416,25.0849886 C28.1466284,25.0858408 26.2519848,25.0858408 24.3574693,25.0858408 C23.5272322,25.0055846 22.690583,25.0295904 21.8634237,24.9023167 C21.3855949,24.838964 20.8803224,24.8007535 20.4604589,24.5155241 C19.9721143,24.2170844 19.6341973,23.6618245 19.5280131,23.0594052 C19.3800221,22.2717573 19.3961806,21.41891 19.684981,20.6723135 C20.0500853,19.8791258 20.8683959,19.5021344 21.6318191,19.424719 C22.0556581,19.3507128 22.4869351,19.4115087 22.9118,19.3346615 C25.288248,19.3267069 27.6646959,19.332957 30.0420416,19.3321047 C30.042811,21.2497326 30.042811,23.1673606 30.0420416,25.0849886 L30.0420416,25.0849886 Z M22.0268037,17.3252715 C21.1756632,17.3458682 20.315674,17.5347901 19.5658444,17.9971515 C18.5980039,18.5649114 17.9021642,19.6340956 17.6913347,20.8210363 C17.4821724,21.9848234 17.5343668,23.2332702 17.9511525,24.3364034 C18.409745,25.5545943 19.4259327,26.4688057 20.5795955,26.7717909 C21.3752073,26.9723606 22.192492,27.00702 23.0034929,27.0764807 C25.968827,27.2074476 28.9358282,27.156737 31.9028294,27.1611404 C31.9115499,23.8640988 31.9068049,20.5679094 31.9060355,17.271862 C28.6131719,17.2825155 25.3187695,17.2299583 22.0268037,17.3252715 L22.0268037,17.3252715 Z M31.9083438,49.5945467 C31.9051378,44.1810119 31.910011,38.7676192 31.9051378,33.3543685 C30.3484111,33.3677209 28.7660361,33.2705611 27.2382921,33.6697118 C25.9639538,34.0218451 24.9373785,35.0340686 24.153052,36.1612077 C22.2512268,38.8843814 20.5908808,41.799176 18.8602583,44.6560155 C17.8827996,46.3027607 16.8868742,47.9351593 15.9158276,49.58645 C13.0824543,49.6025013 10.2489527,49.5963933 7.41634888,49.5901433 C9.12427256,46.6244961 10.7856445,43.6248998 12.4806158,40.6514401 C13.3543268,39.1429061 14.2504802,37.6440313 15.2802615,36.2592198 C16.3976319,34.7746916 17.7903373,33.5708474 19.2826866,32.5807832 C19.3511677,32.5353283 19.4097742,32.4773733 19.4587626,32.4080546 C17.4476754,32.0951262 15.4331257,31.3973937 13.7871427,30.0429802 C12.2175919,28.7482262 11.0897057,26.8341494 10.6094403,24.7365485 C10.2465162,23.1460536 10.1741878,21.4751605 10.373732,19.8505745 C10.6552226,17.4839375 11.6431971,15.2026704 13.2174929,13.5594763 C14.0011782,12.743277 14.941575,12.1168519 15.9536589,11.71415 C17.3614969,11.1652823 18.8555134,10.9772127 20.3341408,10.8309048 C21.5134519,10.7408473 22.695328,10.6884321 23.8787429,10.6884321 C28.9253124,10.6892844 33.9718819,10.6884321 39.0185796,10.6892844 C39.020888,23.6574211 39.0201185,36.62641 39.0193491,49.5945467 C36.6484155,49.595399 34.2785079,49.595399 31.9083438,49.5945467 L31.9083438,49.5945467 Z M39.3974058,8.66909886 C39.1859351,8.62193942 38.969463,8.62648491 38.7554275,8.62648491 C33.5793339,8.62989403 28.4040096,8.62193942 23.2286854,8.62989403 C22.5882461,8.72719589 21.939984,8.6371384 21.2978776,8.69949682 C19.1305919,8.83941264 16.908547,9.04708464 14.8780953,9.96484718 C12.7051671,10.9469568 10.9215807,12.8466869 9.8274221,15.1305108 C8.67619588,17.4518349 8.25376754,20.1660598 8.44856676,22.7903691 C8.59258225,25.4067239 9.46462618,28.0058911 11.0358442,29.9860195 C12.1564206,31.4766556 13.6568491,32.5755275 15.2706434,33.3025216 C13.631842,34.94671 12.4146995,37.0149072 11.2015325,39.0421951 C9.52810585,41.9515919 7.89494711,44.8912445 6.23780716,47.8122891 C5.92169124,48.3549068 5.58056817,48.9395702 5.59813729,49.6123025 C5.59980444,50.6745264 6.42362946,51.6289369 7.38339075,51.6698463 C10.1990667,51.6789373 13.0148709,51.6698463 15.8305469,51.6742497 C16.419433,51.6929999 17.0075497,51.3893044 17.367909,50.8723972 C17.6519645,50.4562009 17.8780547,49.9963963 18.145054,49.5668476 C19.6969075,47.0102944 21.220676,44.4332865 22.7620137,41.869631 C23.7669161,40.2558406 24.7483502,38.6188965 25.8658488,37.0951635 C26.1924806,36.6585125 26.582592,36.2789643 27.0155362,35.975979 C27.5206804,35.6344992 28.1232884,35.5846409 28.694349,35.4884754 C29.144221,35.4724241 29.5906306,35.3931622 30.0420416,35.4215715 C30.042811,40.1490216 30.0420416,44.8761876 30.042811,49.6033536 C30.0330646,50.4508031 30.5577017,51.2625989 31.2784203,51.5424306 C31.6605807,51.7135966 32.0796748,51.6698463 32.4827386,51.6735395 C34.6823412,51.6725452 36.8810461,51.6760963 39.0803922,51.6716929 C40.0498998,51.6466927 40.9042464,50.6816287 40.8850101,49.6033536 C40.8856513,36.6245634 40.886549,23.6457733 40.8850101,10.6669831 C40.8897551,9.72507266 40.2268734,8.85276501 39.3974058,8.66909886 L39.3974058,8.66909886 Z M63.2829454,22.9632398 C63.1959975,23.6324209 62.8187103,24.2598404 62.2693226,24.5655245 C61.7190373,24.8764643 61.0857795,24.8639642 60.4889423,24.9602717 C59.5476479,25.019079 58.6089182,25.1018921 57.6642895,25.0858408 C56.0327979,25.0849886 54.4020757,25.0868352 52.7705841,25.0849886 C52.768917,23.1673606 52.7698147,21.2497326 52.7698147,19.3321047 C54.8316856,19.3294058 56.8927871,19.332957 58.954658,19.3311103 C59.7865623,19.4318213 60.6296235,19.3302581 61.4566546,19.4852308 C62.0888865,19.6366524 62.7695937,19.9522798 63.0745526,20.6285632 C63.3947723,21.3450458 63.4172146,22.1888022 63.2829454,22.9632398 L63.2829454,22.9632398 Z M64.1581954,25.5162418 C64.8123566,24.7400996 65.1516843,23.6841258 65.199262,22.6335498 C65.2691537,21.4795639 65.1277031,20.2534184 64.5121427,19.28736 C63.8082237,18.1487151 62.5869774,17.5337958 61.3754776,17.3886242 C60.1148611,17.2940213 58.8509104,17.3056691 57.5886268,17.2948735 C55.3561944,17.3021179 53.1229925,17.2808109 50.8904318,17.3048168 C50.8977416,20.5910629 50.8888929,23.8775932 50.8944073,27.162987 C52.9644857,27.1665382 55.0352053,27.1621348 57.1051554,27.1656859 C58.7696051,27.092674 60.451111,27.1460835 62.0954268,26.8047457 C62.8798816,26.6229262 63.6175282,26.1739172 64.1581954,25.5162418 L64.1581954,25.5162418 Z" id="Fill-1"></path>
        </g>
    </g>
</svg>