<?xml version="1.0" encoding="UTF-8" standalone="no"?>
<svg width="321px" height="30px" viewBox="0 0 321 30" version="1.1" xmlns="http://www.w3.org/2000/svg" xmlns:xlink="http://www.w3.org/1999/xlink">
    <!-- Generator: Sketch 3.6.1 (26313) - http://www.bohemiancoding.com/sketch -->
    <title>product-logos</title>
    <desc>Created with Sketch.</desc>
    <defs>
        <path id="path-1" d="M0,29.5707392 L319.667197,29.5707392 L319.667197,0.555068651 L0,0.555068651 L0,29.5707392 L0,29.5707392 Z"></path>
    </defs>
    <g id="Page-1" stroke="none" stroke-width="1" fill="none" fill-rule="evenodd">
        <g id="RearGuard-Logo_Black">
            <g id="Group-12">
                <mask id="mask-2" fill="white">
                    <use xlink:href="#path-1"></use>
                </mask>
                <g id="Clip-2"></g>
                <path d="M10.236177,5.43908018 L10.2371647,12.2786717 L16.5878612,12.2786717 C16.8041602,12.2786717 16.9740389,12.2460787 17.0955218,12.1789173 C17.2160172,12.1127437 17.3187345,12.0120017 17.3977478,11.8737283 C17.4797242,11.7660727 17.5320705,11.6307623 17.5597252,11.468785 C17.5873798,11.3068077 17.6002195,11.104336 17.6002195,10.86137 L17.5992318,6.45242615 C17.6002195,6.26279416 17.5725648,6.10081683 17.5182432,5.96451883 C17.4649092,5.83019617 17.3829328,5.7225405 17.2772525,5.64056417 C17.1676215,5.56056318 17.0402125,5.50624151 16.8910749,5.47957451 C16.7429249,5.45290751 16.6016885,5.43809251 16.4663782,5.43908018 L10.236177,5.43908018 L10.236177,5.43908018 Z M0,0.668650314 L21.8076794,0.663711981 C22.8595444,0.663711981 23.776099,0.798034644 24.5593186,1.06766764 C25.3129083,1.33631296 25.9469903,1.75804662 26.4605769,2.32002893 C26.7035429,2.59163726 26.9119406,2.90769058 27.0877452,3.27213957 C27.2615746,3.63757623 27.4037986,4.03264289 27.5134296,4.46425321 C27.6744192,5.13981719 27.7554079,5.91019717 27.7554079,6.77341781 L27.7573832,12.725097 C27.7563955,13.021397 27.7504695,13.3097956 27.7366422,13.5912806 C27.7228149,13.8777039 27.6902219,14.1651149 27.6359002,14.4594396 C27.5805909,14.7320356 27.4946639,15.0016686 27.3731809,15.2703139 C27.2507102,15.5419222 27.0956466,15.7819252 26.9070022,15.9992119 C26.7716919,16.1602015 26.6028009,16.3093392 26.4023046,16.4436619 C26.1998329,16.5799599 25.9618053,16.6876155 25.6931599,16.7695919 C25.4235269,16.8782352 25.1262393,16.9503349 24.8022846,16.9908292 C24.47833,17.0303359 24.1010413,17.0510769 23.669431,17.0500892 L29.4581452,29.5944432 L18.2105975,29.5924678 L13.3937473,17.0955218 L10.156176,17.0935465 L10.1601267,29.5964185 L0.00296299992,29.5954308 L0,0.668650314 L0,0.668650314 Z" id="Fill-1" fill="#1A1918" mask="url(#mask-2)"></path>
                <path d="M33.1352281,0.622229982 L55.5108158,0.622229982 L55.5118034,5.31265885 L43.3733804,5.31463418 L43.3743681,12.2737333 L55.1878488,12.271758 L55.1898241,17.0056442 L43.3753558,17.0086072 L43.3773311,24.8951253 L55.7982268,24.8971006 L55.8002021,29.5895048 L33.1411541,29.5914802 L33.1352281,0.622229982" id="Fill-3" fill="#1A1918" mask="url(#mask-2)"></path>
                <path d="M71.5337316,7.21292946 L67.4892368,17.0876205 L75.4606942,17.0866328 L71.5337316,7.21292946 L71.5337316,7.21292946 Z M79.9496391,0.69630498 L90.9601468,29.6230855 L80.1165547,29.6270362 L77.1209618,21.9400267 L65.3460001,21.9410144 L61.8269439,29.6299992 L56.9330557,29.6290115 L69.793463,0.69926798 L79.9496391,0.69630498 L79.9496391,0.69630498 Z" id="Fill-4" fill="#1A1918" mask="url(#mask-2)"></path>
                <path d="M105.199337,5.42722818 L105.200324,12.2638567 L111.552996,12.2618813 C111.769295,12.2618813 111.937198,12.2292883 112.057694,12.1631147 C112.180164,12.093978 112.279919,11.9952113 112.361895,11.8559503 C112.442884,11.75027 112.496218,11.616935 112.523872,11.45397 C112.550539,11.291005 112.564367,11.0885334 112.563379,10.8445797 L112.562391,6.43859882 C112.562391,6.24896682 112.535724,6.08698949 112.48239,5.95266683 C112.427081,5.81834417 112.34708,5.70871317 112.238437,5.63068751 C112.131769,5.54772351 112.002384,5.49537718 111.855222,5.46871018 C111.707072,5.44006785 111.564848,5.42722818 111.429538,5.42821585 L105.199337,5.42722818 L105.199337,5.42722818 Z M94.9611843,0.650872315 L116.770839,0.650872315 C117.821716,0.651859982 118.739259,0.785194978 119.522478,1.0538403 C120.276068,1.32446096 120.908175,1.74224395 121.422749,2.3062016 C121.665715,2.57780993 121.874113,2.89583858 122.051893,3.26127524 C122.225722,3.6237489 122.367946,4.02177855 122.475602,4.45437654 C122.636591,5.13092819 122.718568,5.89636983 122.718568,6.76156581 L122.719555,12.704356 C122.720543,13.0026313 122.713629,13.2920176 122.698814,13.5744903 C122.685975,13.8579506 122.651406,14.1493123 122.598072,14.4465999 C122.543751,14.7162329 122.456836,14.9848782 122.335353,15.2535236 C122.21387,15.5251319 122.057819,15.7680979 121.87115,15.9834092 C121.735839,16.1453865 121.566948,16.2945242 121.365464,16.4278592 C121.162005,16.5651449 120.925953,16.6708252 120.658295,16.7528015 C120.385699,16.8614449 120.089399,16.9345322 119.766432,16.9750265 C119.44149,17.0155209 119.064201,17.0362619 118.633578,17.0362619 L124.421305,29.5776528 L113.173757,29.5806158 L108.356907,17.0787315 L105.121311,17.0807068 L105.121311,29.5806158 L94.9671103,29.5816035 L94.9611843,0.650872315 L94.9611843,0.650872315 Z" id="Fill-5" fill="#1A1918" mask="url(#mask-2)"></path>
                <path d="M186.588006,0.600501316 L186.588994,5.29191785 L172.06338,5.29389318 C171.874736,5.29586852 171.679178,5.33636285 171.476706,5.41735151 C171.275222,5.49834018 171.092504,5.60599584 170.929539,5.7403185 C170.740895,5.87760417 170.593733,6.0247665 170.486077,6.18476849 C170.377434,6.34674582 170.3241,6.52255048 170.3241,6.71119481 L170.327063,23.2595493 C170.326075,23.450169 170.373483,23.6388133 170.467311,23.82647 C170.562127,24.016102 170.690524,24.1919066 170.852501,24.350921 C171.014478,24.490182 171.191271,24.6096896 171.378927,24.7173453 C171.568559,24.8259886 171.756216,24.878335 171.943873,24.8773473 L176.153308,24.8793226 C176.340965,24.878335 176.529609,24.8319146 176.720229,24.7341356 C176.907885,24.644258 177.068875,24.528701 177.204185,24.3933906 C177.36715,24.2580803 177.494559,24.0951153 177.590363,23.9054833 C177.683204,23.7178267 177.729624,23.5439973 177.731599,23.3800447 L177.728636,16.9868785 L172.347828,16.9878662 L172.347828,12.3379317 L187.926294,12.3349687 L187.927282,29.5687638 L166.28158,29.5727145 C165.741326,29.5727145 165.248481,29.5233312 164.804031,29.4127125 C164.359581,29.3040692 163.946736,29.1559192 163.570435,28.9682625 C163.136849,28.7529512 162.753635,28.4892442 162.414865,28.1801045 C162.079058,27.8709649 161.788684,27.5391089 161.546706,27.1884872 C161.331395,26.8605819 161.148676,26.5326766 161.000526,26.1958823 C160.851389,25.8581003 160.722992,25.5163676 160.615336,25.165746 C160.506693,24.7054933 160.419778,24.247216 160.352617,23.787951 C160.285456,23.3296737 160.250887,22.8832484 160.251875,22.4536134 L160.248912,8.00997644 C160.2499,7.49836512 160.282493,6.99663047 160.351629,6.50971082 C160.416815,6.0277295 160.517557,5.56648918 160.653855,5.13487885 C160.761511,4.7042562 160.907686,4.29338688 161.097318,3.90029556 C161.28695,3.51016723 161.489421,3.16645924 161.704733,2.86818392 C161.947699,2.49188293 162.223258,2.16694061 162.533385,1.89928295 C162.8445,1.62668695 163.176356,1.38470863 163.525002,1.1693973 C163.876612,0.979765306 164.246987,0.839516643 164.638103,0.743712979 C165.029219,0.649884648 165.427248,0.601488983 165.833179,0.60247665 L186.588006,0.600501316" id="Fill-6" fill="#1A1918" mask="url(#mask-2)"></path>
                <path d="M191.362387,0.559019317 L201.518563,0.558031651 L201.521526,22.3647234 C201.523501,22.632381 201.569921,22.8980634 201.66375,23.1528813 C201.757578,23.408687 201.88795,23.6467147 202.047952,23.862026 C202.236596,24.131659 202.473636,24.3548716 202.757097,24.5306763 C203.038582,24.703518 203.328956,24.789445 203.626243,24.792408 L213.255005,24.7904326 C213.579948,24.792408 213.863408,24.742037 214.105386,24.647221 C214.347365,24.555368 214.549836,24.4388233 214.711814,24.3054883 C214.928113,24.116844 215.082189,23.8936313 215.177992,23.6358503 C215.271821,23.3810323 215.318241,23.1173253 215.318241,22.8496677 L215.316266,0.555068651 L219.685703,0.555068651 L219.689653,21.915335 C219.687678,22.350896 219.667925,22.8002844 219.628418,23.272389 C219.587924,23.7444937 219.527676,24.208697 219.4457,24.667962 C219.338044,25.1282146 219.203721,25.5795783 219.042732,26.0250159 C218.879767,26.4674906 218.664455,26.8931749 218.394822,27.2991059 C218.206178,27.6230606 217.963212,27.9213359 217.665925,28.1909689 C217.370612,28.4596142 217.03283,28.6877652 216.655542,28.8754218 C216.250598,29.1213508 215.770592,29.3030815 215.218487,29.4235768 C214.665393,29.5450598 214.05304,29.6062952 213.377476,29.6072828 L198.002469,29.6082705 C197.382215,29.6082705 196.815294,29.5549365 196.302695,29.4502438 C195.789108,29.3425882 195.317991,29.1766602 194.885393,28.9613488 C194.482425,28.7460375 194.111063,28.4843059 193.773281,28.1722032 C193.435499,27.8630635 193.1471,27.5321952 192.904134,27.1825612 C192.607834,26.7776179 192.364868,26.3400816 192.175236,25.8650139 C191.986592,25.3958723 191.824615,24.9178416 191.689304,24.430922 C191.580661,23.9440023 191.498685,23.4521443 191.447326,22.9513973 C191.392017,22.4526257 191.36535,21.974595 191.36535,21.5182931 L191.362387,0.559019317" id="Fill-7" fill="#1A1918" mask="url(#mask-2)"></path>
                <path d="M235.710594,7.18626246 L231.665111,17.0599659 L239.634594,17.0609535 L235.710594,7.18626246 L235.710594,7.18626246 Z M244.124526,0.671613314 L255.133058,29.6013568 L244.289466,29.6033322 L241.293873,21.9133597 L229.519899,21.915335 L226.001831,29.6043198 L221.105967,29.6062952 L233.96835,0.672600981 L244.124526,0.671613314 L244.124526,0.671613314 Z" id="Fill-8" fill="#1A1918" mask="url(#mask-2)"></path>
                <path d="M269.209283,5.40253651 L269.211259,12.2411403 L275.563931,12.2381773 C275.779242,12.2401527 275.948133,12.203609 276.068628,12.1374353 C276.191099,12.0712617 276.291841,11.972495 276.371842,11.8352093 C276.452831,11.7285413 276.507152,11.5912557 276.534807,11.4292783 C276.562462,11.267301 276.576289,11.0648294 276.575301,10.8238387 L276.574313,6.41094415 C276.573326,6.22526282 276.546659,6.06328549 276.494313,5.92599983 C276.438016,5.79266484 276.359002,5.68402151 276.251347,5.60204517 C276.142703,5.52105651 276.014307,5.46871018 275.867144,5.44303085 C275.718007,5.41537618 275.575783,5.40056118 275.44146,5.39858585 L269.209283,5.40253651 L269.209283,5.40253651 Z M258.973106,0.631118982 L280.780786,0.626180649 C281.832651,0.627168316 282.751181,0.762478645 283.533413,1.02914864 C284.286015,1.29878163 284.920097,1.71656462 285.434671,2.28644827 C285.676649,2.55805659 285.886035,2.87114692 286.061839,3.23559591 C286.236656,3.6000449 286.379868,4.00004989 286.487524,4.42968487 C286.649501,5.10327352 286.73049,5.87167817 286.73049,6.73588648 L286.731477,12.6826273 C286.732465,12.982878 286.723576,13.2693013 286.711724,13.5527616 C286.697897,13.8372096 286.663328,14.1265959 286.609994,14.4228959 C286.555673,14.6915413 286.468758,14.9621619 286.346287,15.2288319 C286.22678,15.4994526 286.070728,15.7424186 285.881096,15.9597052 C285.745786,16.1197072 285.57887,16.2708202 285.375411,16.4051429 C285.172939,16.5394655 284.935899,16.6471212 284.668242,16.7271222 C284.398609,16.8347779 284.102309,16.9118159 283.778354,16.9503349 C283.454399,16.9918169 283.077111,17.0115702 282.6455,17.0105825 L288.433227,29.5519735 L277.185679,29.5529612 L272.368829,17.0570029 L269.133233,17.0550275 L269.133233,29.5578995 L258.978045,29.5598748 L258.973106,0.631118982 L258.973106,0.631118982 Z" id="Fill-9" fill="#1A1918" mask="url(#mask-2)"></path>
                <path d="M302.348462,5.35710385 L302.34945,24.8625323 L308.258659,24.8595693 C308.419649,24.8585816 308.574713,24.8052476 308.72385,24.6966043 C308.872,24.5899363 308.998422,24.454626 309.107065,24.291661 C309.214721,24.158326 309.303611,23.995361 309.370772,23.8067167 C309.436946,23.6180723 309.472502,23.4402923 309.470526,23.281278 L309.469539,6.48896982 C309.468551,6.35563482 309.428057,6.22229982 309.348056,6.08600183 C309.267067,5.9506915 309.159411,5.83019617 309.023113,5.7225405 C308.915458,5.61389717 308.782123,5.52698251 308.620145,5.45883351 C308.45718,5.39068451 308.30903,5.35809151 308.174708,5.35907918 L302.348462,5.35710385 L302.348462,5.35710385 Z M292.111297,0.585686317 L313.069583,0.58173565 C313.473539,0.58173565 313.871569,0.608402649 314.263672,0.661736648 C314.653801,0.71704598 315.037015,0.798034644 315.416279,0.906677974 C315.901224,1.0390253 316.367402,1.2405093 316.810865,1.51014229 C317.25729,1.77977528 317.65532,2.10570527 318.004954,2.48200626 C318.275574,2.77731859 318.524466,3.12991558 318.754593,3.53288357 C318.982744,3.93980222 319.165462,4.38326454 319.300772,4.87117186 C319.408428,5.24648518 319.497318,5.65735451 319.564479,6.10476749 C319.632628,6.54724215 319.665221,7.01539613 319.667197,7.49737745 L319.667197,22.5533677 C319.669172,23.0639913 319.641517,23.542022 319.587196,23.986472 C319.532874,24.430922 319.451885,24.842779 319.345217,25.2230306 C319.209907,25.7069873 319.042004,26.1464989 318.837557,26.5366272 C318.636073,26.9277432 318.401008,27.2714512 318.130387,27.5697266 C317.860754,27.8946689 317.565442,28.1702279 317.241487,28.4003542 C316.91852,28.6275175 316.565923,28.8230755 316.188635,28.9870282 C315.702703,29.2013518 315.203931,29.3504895 314.691332,29.4304905 C314.179721,29.5144422 313.666134,29.5509858 313.154523,29.5529612 L292.115248,29.5529612 L292.111297,0.585686317 L292.111297,0.585686317 Z" id="Fill-10" fill="#1A1918" mask="url(#mask-2)"></path>
                <path d="M141.558309,29.6230855 C152.878944,25.0037686 156.487878,14.4722793 156.48689,11.3907593 L156.485902,0.562969984 L156.483927,0.561982317 C154.549088,1.78668895 151.919919,2.53731559 149.02013,2.53731559 C146.121329,2.53929093 143.490185,1.78965195 141.555346,0.564945317 L141.554358,0.563957651 C139.620507,1.78965195 136.989363,2.53830326 134.089574,2.54027859 C131.190772,2.54126626 128.559628,1.78965195 126.625777,0.568895984 L126.626764,11.3956977 C126.627752,14.4762299 130.237674,25.008707 141.558309,29.6230855" id="Fill-11" fill="#DE4A3A" mask="url(#mask-2)"></path>
            </g>
            <path d="M141.34201,4.30128821 C139.631371,4.30128821 134.253526,4.87512253 134.255502,7.88849344 C134.254514,9.43913007 135.19181,9.60011973 135.190822,10.864333 C135.19181,13.2238686 133.156229,12.49102 133.155241,14.5275886 C133.156229,17.2950305 136.944918,16.7271222 136.374046,20.5553181 C138.004684,18.3962788 136.049104,16.9315692 136.049104,15.7463692 C136.049104,13.6712816 138.980499,13.8352343 138.980499,11.676195 C138.980499,9.92604972 137.148377,9.92604972 137.147389,8.86727108 C137.148377,7.80552945 138.653581,6.29933782 138.653581,6.29933782 C138.409627,6.91070347 138.369133,7.80552945 138.369133,8.25491777 C138.370121,9.88555539 141.219539,9.47764906 141.220527,11.5952063 C141.220527,13.7098006 138.084685,14.4851189 138.08666,17.6229358 C138.08666,21.5745901 141.792386,19.8600008 141.792386,21.7336044 C141.792386,23.6081957 140.978548,23.0402873 140.978548,24.9543853 C140.978548,25.9697066 141.792386,27.1558942 141.792386,27.1558942 C140.978548,24.2610433 144.846251,23.201277 144.846251,19.0856701 C144.846251,16.1404482 141.18102,17.4046615 141.180032,14.5661076 C141.180032,12.4920076 144.74946,11.3492773 144.858103,6.99169214 C145.551445,7.83614711 145.795399,8.3902281 145.795399,8.85146842 C145.795399,10.1542007 143.921795,10.0090137 143.921795,12.0001497 C143.921795,13.9932609 146.380097,13.9004203 146.380097,15.9231615 C146.380097,17.9468905 144.940079,17.9617055 146.286269,20.6047014 C145.878363,16.9809525 148.811732,17.5804662 148.809757,14.6303059 C148.809757,12.8841113 147.696657,12.559169 147.696657,11.092484 C147.696657,9.77296139 148.741608,9.28505407 148.742596,7.90034544 C148.741608,5.19611419 143.501049,4.30128821 141.34201,4.30128821" id="Fill-13" fill="#1A1918"></path>
        </g>
    </g>
</svg>