<?xml version="1.0" encoding="UTF-8" standalone="no"?>
<svg width="320px" height="64px" viewBox="0 0 320 64" version="1.1" xmlns="http://www.w3.org/2000/svg" xmlns:xlink="http://www.w3.org/1999/xlink">
    <!-- Generator: Sketch 3.6.1 (26313) - http://www.bohemiancoding.com/sketch -->
    <title>product-logos</title>
    <desc>Created with Sketch.</desc>
    <defs></defs>
    <g id="Page-1" stroke="none" stroke-width="1" fill="none" fill-rule="evenodd">
        <g id="Valve-Guard_Logo_Black" transform="translate(0.000000, 0.352364)">
            <path d="M10.4158462,52.3182103 L0,26.4343873 L12.9694579,26.4343873 L20.4869056,45.7497474 L27.6595664,26.4343873 L32.8182342,26.4343873 L23.0908671,52.3182103 L10.4158462,52.3182103" id="Fill-1" fill="#1A1918"></path>
            <path d="M55.7609707,39.8183192 L49.9634439,39.8183192 C49.7018437,39.8183192 49.4482703,39.8832632 49.201994,40.0131511 C48.9568123,40.1452282 48.735346,40.3086827 48.5401492,40.5035146 C48.3748705,40.7001708 48.2285641,40.9205425 48.0968519,41.1657243 C47.9665991,41.410906 47.9001957,41.6487907 47.9001957,41.8760946 L47.9001957,45.5530912 C47.9001957,45.7176403 47.9414242,45.8883918 48.0235163,46.0682648 C48.1048787,46.2481377 48.1949975,46.4199838 48.2935081,46.5834383 C48.4569626,46.7468928 48.6536188,46.8939289 48.8834767,47.0238168 C49.1118751,47.1558939 49.3249498,47.220473 49.5219708,47.220473 L54.2388007,47.220473 C54.4022552,47.220473 54.582493,47.1635559 54.7791492,47.0489918 C54.9758054,46.933698 55.1542189,46.7954184 55.3191328,46.6319639 C55.4493856,46.5020759 55.5559229,46.3466482 55.6391096,46.1667753 C55.7193774,45.9865375 55.7609707,45.8150562 55.7609707,45.6516017 L55.7609707,39.8183192 L55.7609707,39.8183192 Z M67.6504614,35.3576167 L67.6504614,52.2196998 L57.1375641,52.2196998 L56.3994649,49.4752695 C56.3673578,49.6719257 56.3089811,49.8423124 56.2276187,49.9904431 C56.1458915,50.1371143 56.0725559,50.2753939 56.0072471,50.4071061 C55.9091014,50.6026678 55.7941724,50.774149 55.6624602,50.9211851 C55.5325723,51.0678563 55.40086,51.2075953 55.2706072,51.3378482 C54.909402,51.6315555 54.5321432,51.8614134 54.140655,52.024503 C53.7141409,52.1551207 53.2719381,52.2196998 52.8136818,52.2196998 L41.8574871,52.2196998 C41.2675185,52.2196998 40.7359265,52.1719039 40.2608869,52.0733934 C39.7858472,51.9748829 39.3524009,51.8278468 38.9590885,51.6315555 C38.5325744,51.4363587 38.1640721,51.1827853 37.8539464,50.8722947 C37.5419964,50.5625338 37.2723694,50.2108148 37.0436061,49.8182321 C36.7805465,49.3935423 36.5769581,48.9115704 36.4288274,48.3726813 C36.2817913,47.8326977 36.175254,47.3022003 36.1103101,46.7782702 C36.0439067,46.2233276 36.0037727,45.6680201 35.9869895,45.1127127 C35.9702062,44.5574052 35.9621794,44.03384 35.9621794,43.5434765 L35.9621794,42.0727508 C35.9621794,41.550645 35.9939217,41.0274447 36.0603251,40.5035146 C36.1256339,39.9817737 36.2153879,39.4662353 36.3306817,38.9594534 C36.4456107,38.4541309 36.6006736,37.9874828 36.7969649,37.5620633 C37.0257282,37.1052664 37.3139627,36.6878736 37.6572902,36.3131688 C38.0006176,35.9373694 38.41874,35.6341759 38.910563,35.4057774 C39.3024159,35.2091212 39.7457133,35.0624499 40.2357119,34.9643043 C40.7275349,34.8672532 41.2675185,34.8172682 41.8574871,34.8172682 L54.0425094,34.8172682 C54.2709078,34.8172682 54.5004009,34.7523242 54.7291642,34.6217066 C54.9590221,34.4921835 55.1720967,34.3115808 55.3687529,34.0820878 C55.4990057,33.9514701 55.6059079,33.7883805 55.6872703,33.5917243 C55.7693624,33.3965275 55.8105909,33.2159249 55.8105909,33.0528352 C55.8105909,32.8558142 55.7609707,32.6609823 55.6624602,32.4639612 C55.5643145,32.2691293 55.4340617,32.1056748 55.2706072,31.9739626 C55.1056933,31.8105081 54.9258204,31.6806201 54.7291642,31.5821096 C54.5321432,31.4832342 54.3373112,31.4350735 54.140655,31.4350735 L37.927282,31.4350735 L37.927282,26.3858618 L60.5263262,26.3858618 C61.1816036,26.3858618 61.7865312,26.4424141 62.3447575,26.5577079 C62.9015244,26.672272 63.4083063,26.8441182 63.868387,27.0728815 C64.3915873,27.30128 64.8418169,27.5949873 65.218346,27.955098 C65.59524,28.3148438 65.9137574,28.7066968 66.176817,29.1306569 C66.438782,29.5225099 66.6587888,29.9391729 66.8401212,30.3813757 C67.0188995,30.8217543 67.1586385,31.271619 67.257149,31.7287808 C67.4206036,32.3508565 67.5271409,32.9714728 67.5771258,33.5917243 C67.6252865,34.2130703 67.6504614,34.8019443 67.6504614,35.3576167 L67.6504614,35.3576167 Z" id="Fill-2" fill="#1A1918"></path>
            <path d="M94.2891669,52.3182103 L83.8733207,26.4343873 L96.8431435,26.4343873 L104.360591,45.7497474 L111.532887,26.4343873 L116.69192,26.4343873 L106.963823,52.3182103 L94.2891669,52.3182103" id="Fill-3" fill="#1A1918"></path>
            <path d="M140.175734,37.1702103 L140.175734,33.1013608 C140.175734,32.9393657 140.134141,32.7671547 140.052414,32.5876466 C139.970687,32.4074089 139.86269,32.2355627 139.732437,32.0724731 C139.60109,31.9086537 139.454054,31.7787658 139.290599,31.6806201 C139.12605,31.5821096 138.962596,31.5332192 138.799141,31.5332192 L133.100125,31.5332192 C132.93667,31.5332192 132.781607,31.5821096 132.633477,31.6806201 C132.486806,31.7787658 132.346702,31.8936947 132.216449,32.0235827 C132.085102,32.1870372 131.978199,32.3588833 131.896472,32.5376617 C131.81511,32.7171697 131.773152,32.8893807 131.773152,33.0528352 L131.773152,37.1702103 L140.175734,37.1702103 L140.175734,37.1702103 Z M145.62811,26.4343873 C146.184877,26.4343873 146.741643,26.4836426 147.29841,26.582518 C147.855177,26.6795691 148.395161,26.859442 148.920185,27.121407 C149.313498,27.3166038 149.673609,27.5796634 150.000518,27.905113 C150.327427,28.2316572 150.622228,28.6085511 150.885288,29.0325112 C151.048742,29.3605148 151.195414,29.7031125 151.327126,30.0628584 C151.457379,30.4229691 151.555524,30.814822 151.621928,31.2387822 C151.687237,31.7951842 151.720438,32.3836934 151.720438,33.0039448 L151.720438,42.1708965 L131.724991,42.1708965 L131.724991,44.964582 C131.724991,45.2272768 131.789935,45.496174 131.921647,45.7734629 C132.0519,46.0518463 132.231773,46.2886364 132.461631,46.4852926 C132.690394,46.7136911 132.93667,46.8939289 133.198635,47.0238168 C133.4606,47.1558939 133.721836,47.220473 133.98526,47.220473 L150.541961,47.220473 L150.541961,52.2700496 L125.829318,52.2700496 C125.304659,52.2700496 124.78912,52.2284563 124.282338,52.146729 C123.774097,52.0650018 123.307449,51.9099389 122.882394,51.6815404 C122.489082,51.5180859 122.127512,51.2893226 121.800603,50.9945207 C121.472599,50.7008134 121.178527,50.3421621 120.917292,49.9167426 C120.720635,49.6219407 120.555722,49.2713162 120.425469,48.86268 C120.293756,48.4544086 120.179192,48.0045439 120.082141,47.5141804 C120.015373,47.1872714 119.965753,46.8370117 119.934011,46.4601177 C119.900444,46.0846832 119.88512,45.6844386 119.88512,45.2593839 L119.88512,33.6413444 C119.88512,33.2494914 119.900444,32.8740569 119.934011,32.5139462 C119.965753,32.1538355 119.998955,31.8105081 120.032156,31.4832342 C120.130302,30.9282916 120.260555,30.4145774 120.425469,29.9391729 C120.588923,29.4659575 120.785579,29.0503891 121.015437,28.6902784 C121.277037,28.2652237 121.580596,27.905113 121.923923,27.6114057 C122.267251,27.3166038 122.652171,27.0896648 123.077226,26.924386 C123.470903,26.7627558 123.895958,26.6390703 124.355674,26.5577079 C124.814295,26.4759807 125.272551,26.4343873 125.731173,26.4343873 L145.62811,26.4343873 L145.62811,26.4343873 Z" id="Fill-4" fill="#1A1918"></path>
            <path d="M173.631003,31.5332192 L167.785681,31.5332192 C167.653969,31.5332192 167.530648,31.5821096 167.417178,31.6806201 C167.301885,31.7787658 167.212131,31.9086537 167.147187,32.0724731 C167.080418,32.2038204 167.031893,32.3588833 166.998691,32.5376617 C166.966949,32.7171697 166.95053,32.8740569 166.95053,33.0039448 L166.95053,45.7497474 C166.95053,45.9132019 166.990664,46.0846832 167.073486,46.2630967 C167.153754,46.4436993 167.260656,46.6151806 167.392004,46.7782702 C167.522256,46.9103473 167.679143,47.0238168 167.858652,47.1223274 C168.038889,47.220473 168.210735,47.2686337 168.375284,47.2686337 L173.779134,47.2686337 C173.942953,47.2686337 174.097651,47.2288647 174.246147,47.1471374 C174.392818,47.0654102 174.516139,46.9588729 174.614284,46.8282552 C174.744537,46.6983673 174.843048,46.5498718 174.909451,46.3867821 C174.97476,46.2233276 175.007962,46.0598731 175.007962,45.8964186 L175.007962,33.1013608 C175.007962,32.9057992 174.966368,32.7171697 174.884641,32.5376617 C174.802914,32.3588833 174.696377,32.2038204 174.564664,32.0724731 C174.434412,31.9086537 174.286281,31.7787658 174.122826,31.6806201 C173.959372,31.5821096 173.794458,31.5332192 173.631003,31.5332192 L173.631003,31.5332192 Z M186.847467,54.8678086 C186.847467,55.3249705 186.805509,55.7737406 186.724512,56.2155786 C186.642055,56.6574165 186.519464,57.0740796 186.356009,57.4659325 C186.224297,57.8898927 186.052451,58.2821105 185.840836,58.6422212 C185.627031,59.001967 185.389147,59.343835 185.127182,59.6725683 C184.865217,59.997653 184.587198,60.2928198 184.292396,60.5544199 C183.99723,60.8145607 183.703887,61.0447834 183.40872,61.2399802 C183.015408,61.4683787 182.605677,61.6566433 182.180258,61.8036793 C181.753744,61.95181 181.345107,62.0251456 180.95216,62.0251456 L156.977617,62.0251456 L156.977617,57.0240946 L172.697707,57.0240946 C173.123127,57.0240946 173.484332,56.950759 173.779134,56.8040877 C174.074301,56.6574165 174.319483,56.4523687 174.516139,56.1904037 C174.712795,55.9620052 174.859466,55.700405 174.957977,55.4066977 C175.056122,55.1129904 175.106107,54.8181885 175.106107,54.5248461 L175.106107,52.2700496 L161.594842,52.2700496 C161.038075,52.2700496 160.521442,52.2131324 160.047861,52.0982035 C159.572822,51.9832745 159.137916,51.8278468 158.746063,51.6315555 C158.352751,51.4363587 157.984248,51.2075953 157.640921,50.9456303 C157.296134,50.6840301 156.992941,50.3906877 156.730976,50.0637787 C156.469011,49.768612 156.240977,49.4435272 156.044321,49.0834165 C155.8473,48.722941 155.682751,48.3475064 155.552498,47.9556534 C155.355842,47.4656548 155.215738,46.9672645 155.134375,46.4601177 C155.052648,45.9533358 155.012514,45.4545807 155.012514,44.964582 L155.012514,33.5917243 C155.012514,33.1998713 155.044256,32.7912351 155.11066,32.3658155 C155.175969,31.9418554 155.274114,31.5168007 155.404367,31.0917461 C155.535715,30.667786 155.707561,30.2580551 155.921,29.8658373 C156.132615,29.4739843 156.370865,29.0985498 156.63283,28.7388039 C156.927632,28.346951 157.254541,27.9966913 157.616111,27.6847413 C157.976222,27.3746156 158.369534,27.121407 158.794589,26.924386 C159.187901,26.7291892 159.604929,26.5741263 160.047861,26.4591974 C160.490064,26.3457279 160.956347,26.2873513 161.447805,26.2873513 L186.847467,26.2873513 L186.847467,54.8678086 L186.847467,54.8678086 Z" id="Fill-5" fill="#1A1918"></path>
            <path d="M202.519397,26.4343873 L202.519397,45.8478931 C202.519397,46.0117124 202.569382,46.1831937 202.667528,46.3619721 C202.766039,46.5422098 202.879508,46.6983673 203.010855,46.8282552 C203.17431,46.9588729 203.345791,47.0654102 203.526394,47.1471374 C203.706267,47.2288647 203.877748,47.2686337 204.043027,47.2686337 L209.397986,47.2686337 C209.561441,47.2686337 209.733287,47.2368915 209.91316,47.1708529 C210.093397,47.1055441 210.248095,47.008493 210.380173,46.8767808 C210.51006,46.7468928 210.624989,46.6071538 210.723135,46.4601177 C210.821646,46.3130817 210.871266,46.1580188 210.871266,45.9949291 L210.871266,26.4836426 L222.809282,26.4836426 L222.809282,52.3182103 L197.705152,52.3182103 C197.146925,52.3182103 196.623725,52.261658 196.132997,52.146729 C195.641538,52.0332595 195.181458,51.8763724 194.756403,51.6815404 C194.331349,51.453142 193.938401,51.1827853 193.57829,50.8722947 C193.21672,50.5625338 192.889446,50.2272332 192.595009,49.8667576 C192.301302,49.5084712 192.029851,49.1067672 191.784669,48.6663886 C191.539852,48.2241858 191.334804,47.7761454 191.170985,47.3175242 C191.040002,46.8603623 190.9331,46.3951738 190.851008,45.9215935 C190.769646,45.4480133 190.728052,44.9828247 190.728052,44.5242035 L190.728052,26.4343873 L202.519397,26.4343873" id="Fill-6" fill="#1A1918"></path>
            <path d="M245.850529,39.8183192 L240.053367,39.8183192 C239.791402,39.8183192 239.538193,39.8832632 239.291552,40.0131511 C239.046371,40.1452282 238.824904,40.3086827 238.629707,40.5035146 C238.464429,40.7001708 238.318122,40.9205425 238.18641,41.1657243 C238.056157,41.410906 237.989754,41.6487907 237.989754,41.8760946 L237.989754,45.5530912 C237.989754,45.7176403 238.031347,45.8883918 238.11271,46.0682648 C238.194437,46.2481377 238.284556,46.4199838 238.383431,46.5834383 C238.546521,46.7468928 238.743177,46.8939289 238.973035,47.0238168 C239.201433,47.1558939 239.414508,47.220473 239.611529,47.220473 L244.328724,47.220473 C244.491813,47.220473 244.672051,47.1635559 244.868707,47.0489918 C245.065364,46.933698 245.244142,46.7954184 245.408691,46.6319639 C245.538944,46.5020759 245.645846,46.3466482 245.729033,46.1667753 C245.808936,45.9865375 245.850529,45.8150562 245.850529,45.6516017 L245.850529,39.8183192 L245.850529,39.8183192 Z M257.739655,35.3576167 L257.739655,52.2196998 L247.227122,52.2196998 L246.489023,49.4752695 C246.457646,49.6719257 246.398904,49.8423124 246.317177,49.9904431 C246.23545,50.1371143 246.162114,50.2753939 246.09717,50.4071061 C245.999024,50.6026678 245.883731,50.774149 245.752018,50.9211851 C245.622131,51.0678563 245.490418,51.2075953 245.360165,51.3378482 C244.99896,51.6315555 244.622066,51.8614134 244.230213,52.024503 C243.803699,52.1551207 243.361496,52.2196998 242.90324,52.2196998 L231.947045,52.2196998 C231.357442,52.2196998 230.825485,52.1719039 230.35081,52.0733934 C229.875405,51.9748829 229.442324,51.8278468 229.049012,51.6315555 C228.622133,51.4363587 228.25363,51.1827853 227.94314,50.8722947 C227.631555,50.5625338 227.362293,50.2108148 227.133529,49.8182321 C226.86974,49.3935423 226.666151,48.9115704 226.518021,48.3726813 C226.371714,47.8326977 226.264812,47.3022003 226.199868,46.7782702 C226.133465,46.2233276 226.093331,45.6680201 226.076548,45.1127127 C226.059764,44.5574052 226.051738,44.03384 226.051738,43.5434765 L226.051738,42.0727508 C226.051738,41.550645 226.083845,41.0274447 226.149883,40.5035146 C226.214827,39.9817737 226.304946,39.4662353 226.42024,38.9594534 C226.535169,38.4541309 226.690232,37.9874828 226.886888,37.5620633 C227.115286,37.1052664 227.403521,36.6878736 227.746848,36.3131688 C228.090176,35.9373694 228.508298,35.6341759 229.000121,35.4057774 C229.392339,35.2091212 229.835272,35.0624499 230.32527,34.9643043 C230.817093,34.8672532 231.357442,34.8172682 231.947045,34.8172682 L244.132068,34.8172682 C244.360466,34.8172682 244.590324,34.7523242 244.818722,34.6217066 C245.048215,34.4921835 245.261655,34.3115808 245.458311,34.0820878 C245.588929,33.9514701 245.695831,33.7883805 245.776829,33.5917243 C245.858921,33.3965275 245.900149,33.2159249 245.900149,33.0528352 C245.900149,32.8558142 245.850529,32.6609823 245.752018,32.4639612 C245.653508,32.2691293 245.52362,32.1056748 245.360165,31.9739626 C245.195616,31.8105081 245.015014,31.6806201 244.818722,31.5821096 C244.622066,31.4832342 244.426869,31.4350735 244.230213,31.4350735 L228.017205,31.4350735 L228.017205,26.3858618 L250.616249,26.3858618 C251.271162,26.3858618 251.876089,26.4424141 252.434316,26.5577079 C252.991083,26.672272 253.497865,26.8441182 253.957945,27.0728815 C254.48151,27.30128 254.931375,27.5949873 255.307904,27.955098 C255.684798,28.3148438 256.00368,28.7066968 256.266375,29.1306569 C256.52834,29.5225099 256.748347,29.9391729 256.930044,30.3813757 C257.108458,30.8217543 257.248197,31.271619 257.346342,31.7287808 C257.510162,32.3508565 257.617064,32.9714728 257.666684,33.5917243 C257.714845,34.2130703 257.739655,34.8019443 257.739655,35.3576167 L257.739655,35.3576167 Z" id="Fill-7" fill="#1A1918"></path>
            <path d="M274.051174,52.3182103 L262.063537,52.3182103 L262.063537,26.4836426 L274.051174,26.4836426 L274.051174,28.7873295 C274.214993,28.5268239 274.426973,28.282007 274.690033,28.0517842 C274.788543,27.9218963 274.911499,27.8000351 275.05817,27.6847413 C275.205571,27.5712718 275.344945,27.4815177 275.476657,27.4147495 C275.671854,27.2848615 275.86851,27.1626355 276.065531,27.0477066 C276.261823,26.9327776 276.458479,26.8441182 276.655135,26.7777148 C276.883898,26.7127708 277.105365,26.6558536 277.318804,26.6058686 C277.530784,26.5577079 277.735467,26.532533 277.932123,26.532533 L285.056624,26.532533 L285.056624,33.68987 L278.767274,33.68987 C278.145563,33.68987 277.572013,33.7562734 277.048083,33.8865262 C276.490586,34.016779 276.016641,34.1966519 275.623693,34.4250504 C275.393471,34.523196 275.196815,34.6457869 275.03336,34.7939176 C274.869905,34.9402239 274.72141,35.1124349 274.591887,35.3076317 C274.394866,35.503923 274.255127,35.7246596 274.1734,35.9691116 C274.091672,36.2146582 274.051174,36.4846501 274.051174,36.7783574 L274.051174,52.3182103" id="Fill-8" fill="#1A1918"></path>
            <path d="M306.573511,31.5332192 L301.267807,31.5332192 C301.104718,31.5332192 300.931047,31.5905012 300.752999,31.7054302 C300.570937,31.8188997 300.415874,31.9586387 300.286351,32.1209986 C300.154274,32.2855477 300.047736,32.4639612 299.966009,32.6609823 C299.884647,32.8558142 299.843053,33.0528352 299.843053,33.2494914 L299.843053,45.6993976 C299.843053,45.8650412 299.884647,46.0434547 299.966009,46.2401109 C300.047736,46.4353077 300.171057,46.5998567 300.334876,46.7304744 C300.464764,46.8939289 300.620922,47.0238168 300.801524,47.1223274 C300.981032,47.220473 301.169662,47.2686337 301.366683,47.2686337 L306.573511,47.2686337 C306.736966,47.2686337 306.90188,47.2124463 307.065334,47.0971525 C307.228424,46.9836829 307.376555,46.8603623 307.507172,46.7304744 C307.63852,46.566655 307.745057,46.3867821 307.827149,46.1901259 C307.908511,45.9949291 307.95047,45.8150562 307.95047,45.6516017 L307.95047,33.1513458 C307.95047,32.9878913 307.908511,32.8076535 307.827149,32.6109973 C307.745057,32.4154356 307.63852,32.2355627 307.507172,32.0724731 C307.376555,31.9086537 307.228424,31.7787658 307.065334,31.6806201 C306.90188,31.5821096 306.736966,31.5332192 306.573511,31.5332192 L306.573511,31.5332192 Z M319.888121,17.1689252 L319.888121,52.3182103 L294.733641,52.3182103 C294.045527,52.3182103 293.51357,52.2934002 293.137405,52.2448747 C292.760511,52.196714 292.474101,52.1295809 292.277445,52.0485834 C292.080424,51.9675858 291.950171,51.8949799 291.884862,51.8278468 C291.819189,51.7632677 291.75388,51.7143773 291.688206,51.6815404 C291.261692,51.4848842 290.86838,51.2393376 290.508634,50.9456303 C290.148523,50.6511933 289.836938,50.3421621 289.575338,50.0141586 C289.313738,49.6883441 289.084609,49.3282334 288.888318,48.9360156 C288.691297,48.5430681 288.526748,48.1512151 288.396495,47.7589973 C288.264783,47.335402 288.166637,46.918739 288.101693,46.5086433 C288.034925,46.1014664 288.003548,45.6993976 288.003548,45.3079094 L288.003548,33.8365412 C288.003548,33.2494914 288.044776,32.6941839 288.126503,32.1706187 C288.208231,31.648513 288.330092,31.1581495 288.494641,30.6998931 C288.65846,30.2427313 288.855116,29.834095 289.084609,29.4739843 C289.313738,29.115333 289.55819,28.7723705 289.821614,28.4447318 C290.148523,28.1181876 290.499877,27.8317774 290.876771,27.5865956 C291.253665,27.3417787 291.655369,27.1374606 292.080424,26.974371 C292.637191,26.7456076 293.088515,26.5905448 293.432207,26.507723 C293.775535,26.4274551 294.0375,26.3858618 294.218467,26.3858618 C294.39761,26.3858618 294.520566,26.4026451 294.587334,26.4343873 C294.652278,26.467589 294.700804,26.4836426 294.733641,26.4836426 L301.317792,26.4836426 L307.900485,26.4836426 L307.900485,17.1689252 L319.888121,17.1689252 L319.888121,17.1689252 Z" id="Fill-9" fill="#1A1918"></path>
            <path d="M10.0699648,57.3331258 L13.8173782,57.3331258 L13.8173782,58.0216049 L11.784048,58.0216049 L11.784048,59.0421009 L13.7633798,59.0421009 L13.7633798,59.7375123 L11.784048,59.7375123 L11.784048,60.8951934 L13.8644443,60.8951934 L13.8644443,61.5847671 L10.0699648,61.5847671 L10.0699648,57.3331258" id="Fill-10" fill="#1A1918"></path>
            <path d="M14.4872497,57.3331258 L16.2020626,57.3331258 L16.2020626,60.8951934 L18.2142313,60.8951934 L18.2142313,61.5847671 L14.4872497,61.5847671 L14.4872497,57.3331258" id="Fill-11" fill="#1A1918"></path>
            <path d="M18.8983322,57.3440714 L20.6062128,57.3331258 L20.6062128,61.5902399 L18.8983322,61.5902399 L18.8983322,57.3440714" id="Fill-12" fill="#1A1918"></path>
            <path d="M21.0936575,57.3331258 L23.2747535,57.3331258 L24.1292411,59.7553901 L25.0504969,57.3331258 L27.1775945,57.3331258 L27.1775945,61.5902399 L25.4978076,61.5902399 L25.4978076,58.193451 L24.2306704,61.5847671 L23.05876,61.5847671 L21.8317567,58.2292067 L21.8317567,61.5847671 L21.0936575,61.5847671 L21.0936575,57.3331258" id="Fill-13" fill="#1A1918"></path>
            <path d="M27.9766243,57.3440714 L29.6841401,57.3331258 L29.6841401,61.5902399 L27.9766243,61.5902399 L27.9766243,57.3440714" id="Fill-14" fill="#1A1918"></path>
            <path d="M30.1577203,57.3265584 L32.3738423,57.3265584 L34.2170837,60.8068988 L34.2170837,57.3265584 L34.9745202,57.3265584 L34.9745202,61.5781997 L32.7602225,61.5781997 L30.8903468,58.0340099 L30.8903468,61.5781997 L30.1577203,61.5781997 L30.1577203,57.3265584" id="Fill-15" fill="#1A1918"></path>
            <path d="M37.6642224,58.2999883 L36.9870537,59.7499173 L38.3220538,59.7499173 L37.6642224,58.2999883 L37.6642224,58.2999883 Z M39.0740175,57.3440714 L40.9161643,61.5902399 L39.1002869,61.5902399 L38.5989778,60.4617471 L36.6284024,60.4617471 L36.0384339,61.5902399 L35.2186074,61.5902399 L37.3734339,57.3440714 L39.0740175,57.3440714 L39.0740175,57.3440714 Z" id="Fill-16" fill="#1A1918"></path>
            <path d="M41.3233411,57.3265584 L45.5706042,57.3265584 L45.5706042,58.0449555 L44.2979941,58.0449555 L44.2979941,61.5902399 L42.6043428,61.5902399 L42.6043428,58.0449555 L41.3233411,58.0449555 L41.3233411,57.3265584" id="Fill-17" fill="#1A1918"></path>
            <path d="M46.1397761,57.3331258 L49.8871895,57.3331258 L49.8871895,58.0216049 L47.8545889,58.0216049 L47.8545889,59.0421009 L49.8331911,59.0421009 L49.8331911,59.7375123 L47.8545889,59.7375123 L47.8545889,60.8951934 L49.9346204,60.8951934 L49.9346204,61.5847671 L46.1397761,61.5847671 L46.1397761,57.3331258" id="Fill-18" fill="#1A1918"></path>
            <path d="M55.2403244,61.5902399 L53.6072388,57.3265584 L55.4092517,57.3265584 L56.71105,60.6875916 L58.0653873,57.3265584 L58.8782816,57.3265584 L57.1444963,61.5902399 L55.2403244,61.5902399" id="Fill-19" fill="#1A1918"></path>
            <path d="M61.5679838,58.2999883 L60.8908151,59.7499173 L62.2254503,59.7499173 L61.5679838,58.2999883 L61.5679838,58.2999883 Z M62.9777789,57.3440714 L64.8195608,61.5902399 L63.0040483,61.5902399 L62.5027392,60.4617471 L60.531799,60.4617471 L59.9421953,61.5902399 L59.1220039,61.5902399 L61.2768305,57.3440714 L62.9777789,57.3440714 L62.9777789,57.3440714 Z" id="Fill-20" fill="#1A1918"></path>
            <path d="M65.5175261,57.3331258 L67.2319741,57.3331258 L67.2319741,60.8951934 L69.2445077,60.8951934 L69.2445077,61.5847671 L65.5175261,61.5847671 L65.5175261,57.3331258" id="Fill-21" fill="#1A1918"></path>
            <path d="M71.0808168,61.5902399 L69.4480961,57.3265584 L71.2497442,57.3265584 L72.5515425,60.6875916 L73.9058798,57.3265584 L74.7191389,57.3265584 L72.9853537,61.5902399 L71.0808168,61.5902399" id="Fill-22" fill="#1A1918"></path>
            <path d="M75.3284448,57.3331258 L79.0758581,57.3331258 L79.0758581,58.0216049 L77.0428928,58.0216049 L77.0428928,59.0421009 L79.0218598,59.0421009 L79.0218598,59.7375123 L77.0428928,59.7375123 L77.0428928,60.8951934 L79.1229243,60.8951934 L79.1229243,61.5847671 L75.3284448,61.5847671 L75.3284448,57.3331258" id="Fill-23" fill="#1A1918"></path>
            <path d="M84.8759389,58.0394827 L84.8759389,59.0421009 L85.9394878,59.0421009 C85.9756083,59.0421009 86.0033372,59.0380876 86.0241338,59.0286014 C86.0449305,59.0187503 86.0613489,59.0034264 86.0752134,58.9840892 C86.0890778,58.9673059 86.0974695,58.9479687 86.1014828,58.924618 C86.1069556,58.9009025 86.1084151,58.8706197 86.1084151,58.8341343 L86.1084151,58.1876133 C86.1084151,58.1598845 86.1044017,58.136169 86.0945506,58.1168317 C86.0865238,58.096035 86.0726594,58.081076 86.0544167,58.068671 C86.0365389,58.0577254 86.0142828,58.0493338 85.9909321,58.0449555 C85.9657572,58.0409421 85.9424066,58.0394827 85.9186911,58.0394827 L84.8759389,58.0394827 L84.8759389,58.0394827 Z M83.1614909,57.3385986 L86.8136775,57.3385986 C86.989537,57.3385986 87.1431404,57.3579358 87.2748527,57.3980697 C87.4007272,57.4367442 87.5072645,57.4994991 87.59337,57.5826858 C87.6335039,57.6209954 87.668165,57.6684264 87.6969885,57.7213302 C87.7276362,57.7749637 87.7509869,57.8329755 87.7692296,57.8968249 C87.795499,57.9953354 87.8093635,58.1088049 87.8093635,58.2346795 L87.8093635,59.1085043 C87.8093635,59.1515571 87.8079041,59.1946098 87.8064446,59.2362032 C87.8038907,59.2774316 87.798053,59.3204844 87.7882019,59.3635371 C87.7801752,59.4036711 87.7648513,59.4419807 87.7455141,59.4824795 C87.7247174,59.521154 87.6984479,59.5572745 87.6667056,59.5893816 C87.6444496,59.6127323 87.6167207,59.6349884 87.5820596,59.6539608 C87.5488579,59.6736629 87.5087239,59.6900813 87.4642118,59.7013918 C87.4186051,59.7178102 87.3689849,59.7291206 87.3146217,59.7345935 C87.2609882,59.7400663 87.1971388,59.7429851 87.1248977,59.7429851 L88.0946791,61.5847671 L86.210939,61.5847671 L85.4035175,59.7499173 L84.8620745,59.7499173 L84.8620745,61.5847671 L83.1614909,61.5847671 L83.1614909,57.3385986 L83.1614909,57.3385986 Z" id="Fill-24" fill="#1A1918"></path>
            <path d="M90.7894893,58.2999883 L90.1123206,59.7499173 L91.4473207,59.7499173 L90.7894893,58.2999883 L90.7894893,58.2999883 Z M92.1992844,57.3440714 L94.0410663,61.5902399 L92.2255538,61.5902399 L91.7246096,60.4617471 L89.7536694,60.4617471 L89.1637008,61.5902399 L88.3438743,61.5902399 L90.4987008,57.3440714 L92.1992844,57.3440714 L92.1992844,57.3440714 Z" id="Fill-25" fill="#1A1918"></path>
            <path d="M94.448608,57.3265584 L98.6962359,57.3265584 L98.6962359,58.0449555 L97.423261,58.0449555 L97.423261,61.5902399 L95.7296097,61.5902399 L95.7296097,58.0449555 L94.448608,58.0449555 L94.448608,57.3265584" id="Fill-26" fill="#1A1918"></path>
            <path d="M99.0424822,57.3265584 L103.289745,57.3265584 L103.289745,58.0449555 L102.017135,58.0449555 L102.017135,61.5902399 L100.323484,61.5902399 L100.323484,58.0449555 L99.0424822,58.0449555 L99.0424822,57.3265584" id="Fill-27" fill="#1A1918"></path>
            <path d="M103.927145,57.3331258 L105.641228,57.3331258 L105.641228,60.8951934 L107.653762,60.8951934 L107.653762,61.5847671 L103.927145,61.5847671 L103.927145,57.3331258" id="Fill-28" fill="#1A1918"></path>
            <path d="M108.209434,57.3331258 L111.956847,57.3331258 L111.956847,58.0216049 L109.923517,58.0216049 L109.923517,59.0421009 L111.902849,59.0421009 L111.902849,59.7375123 L109.923517,59.7375123 L109.923517,60.8951934 L112.003548,60.8951934 L112.003548,61.5847671 L108.209434,61.5847671 L108.209434,57.3331258" id="Fill-29" fill="#1A1918"></path>
            <path d="M116.604355,57.3385986 L116.604355,58.0394827 L114.334599,58.0394827 C114.312343,58.0394827 114.290452,58.0434961 114.27075,58.0504283 C114.250318,58.05882 114.230616,58.068671 114.212738,58.081076 C114.194496,58.0923865 114.179537,58.1058861 114.168591,58.1226694 C114.15728,58.1376284 114.151808,58.1558711 114.151808,58.1752083 L114.151808,58.4908069 C114.151808,58.5061307 114.154362,58.5214546 114.161294,58.535319 C114.168591,58.5491835 114.179537,58.5645073 114.191942,58.5794663 C114.210184,58.5991684 114.233535,58.6170463 114.259804,58.6338295 C114.287533,58.6491534 114.313803,58.6571802 114.341532,58.6571802 L115.831959,58.6571802 C115.891431,58.6571802 115.951996,58.6611936 116.018765,58.6681258 C116.084073,58.6768823 116.145734,58.6889225 116.20411,58.7042463 C116.26796,58.7206647 116.327431,58.7414614 116.384348,58.7695552 C116.441265,58.797284 116.493804,58.8286615 116.543424,58.864782 C116.579545,58.8965243 116.612747,58.9300908 116.644489,58.9662114 C116.676596,59.0005076 116.704325,59.0406415 116.726216,59.0836943 C116.748472,59.1282064 116.76635,59.1749077 116.77766,59.226717 C116.788606,59.2788911 116.794444,59.3358082 116.794444,59.3996577 L116.794444,60.6999966 C116.794444,60.7430493 116.79116,60.7871967 116.787511,60.8302494 C116.783133,60.8740319 116.776201,60.91599 116.76635,60.9550294 C116.753945,61.0145006 116.734608,61.0695935 116.709798,61.120673 C116.684988,61.1724823 116.655799,61.2202781 116.625152,61.2636957 C116.557289,61.3549092 116.468629,61.4282448 116.360633,61.4840674 C116.29277,61.5201879 116.217975,61.5460926 116.136612,61.5643352 C116.05598,61.5822131 115.970239,61.5902399 115.88012,61.5902399 L112.661745,61.5902399 L112.661745,60.8842478 L114.924568,60.8842478 C114.950837,60.8842478 114.978566,60.8802344 115.004836,60.8714779 C115.032565,60.8634511 115.05774,60.8536 115.079631,60.8426544 C115.103346,60.8302494 115.121224,60.8145607 115.137643,60.7981423 C115.153331,60.7798996 115.161358,60.7594678 115.161358,60.7361171 L115.161358,60.3606826 C115.161358,60.3413453 115.154426,60.3220081 115.140926,60.3026708 C115.126697,60.2815093 115.108819,60.2665503 115.086563,60.2537804 C115.06832,60.2388214 115.047889,60.2260515 115.022714,60.2176599 C114.997904,60.2107277 114.974553,60.2070791 114.950837,60.2070791 L113.311185,60.2070791 C113.248795,60.2070791 113.189323,60.2008766 113.132406,60.1917553 C113.075489,60.1822691 113.024409,60.1705937 112.980262,60.1596481 C112.930277,60.1432297 112.884306,60.124987 112.844536,60.1030958 C112.804403,60.0808397 112.766823,60.0556648 112.736175,60.0279359 C112.69896,59.9965585 112.668677,59.9615325 112.640948,59.9246823 C112.614679,59.8867375 112.590963,59.8440496 112.57272,59.7969835 C112.536965,59.7097834 112.519087,59.6127323 112.519087,59.5058301 L112.519087,58.1752083 C112.519087,58.1281422 112.5231,58.0785221 112.532951,58.0267128 C112.540978,57.9756333 112.554843,57.9245538 112.57272,57.8734742 C112.590963,57.8220298 112.614679,57.7720449 112.644961,57.7249787 C112.67415,57.6771829 112.705892,57.6308465 112.741648,57.5877937 C112.773755,57.552038 112.809875,57.5188363 112.851469,57.4867292 C112.891603,57.4549869 112.937574,57.427258 112.986829,57.4039074 C113.03572,57.3842053 113.089353,57.3677869 113.146271,57.3568413 C113.201728,57.3440714 113.2612,57.3385986 113.325049,57.3385986 L116.604355,57.3385986" id="Fill-30" fill="#1A1918"></path>
            <path d="M124.585897,57.3331258 L124.585897,58.0216049 L122.538702,58.0216049 L122.538702,59.0307905 L124.531533,59.0307905 L124.531533,59.7429851 L122.526297,59.7429851 L122.526297,61.5902399 L120.838118,61.5902399 L120.838118,57.3331258 L124.585897,57.3331258" id="Fill-31" fill="#1A1918"></path>
            <path d="M127.090983,58.0340099 C127.046835,58.0340099 127.006702,58.0409421 126.973135,58.0548066 C126.938839,58.068671 126.908191,58.0854543 126.881922,58.1044267 C126.849814,58.1325204 126.826464,58.1653573 126.80968,58.2029372 C126.794721,58.2401523 126.78633,58.2762728 126.78633,58.3123933 L126.78633,60.6693489 C126.78633,60.6974426 126.796181,60.7248067 126.814059,60.7496167 C126.831937,60.776251 126.851274,60.7981423 126.874989,60.8189389 C126.901259,60.838641 126.930447,60.8550595 126.962189,60.8689239 C126.994296,60.8827884 127.026039,60.8893557 127.057781,60.8893557 L127.964808,60.8893557 C127.996915,60.8893557 128.027198,60.8813289 128.056386,60.8663699 C128.086669,60.8495867 128.111844,60.8302494 128.135194,60.8068988 C128.15745,60.7871967 128.175328,60.7634812 128.189193,60.7361171 C128.203057,60.7083882 128.208895,60.6806593 128.208895,60.6529305 L128.208895,58.2580301 C128.208895,58.2303012 128.203057,58.2029372 128.189193,58.1752083 C128.175328,58.1478443 128.154896,58.1237639 128.128262,58.1044267 C128.104547,58.0854543 128.078642,58.068671 128.046535,58.0548066 C128.014793,58.0409421 127.985604,58.0340099 127.957875,58.0340099 L127.090983,58.0340099 L127.090983,58.0340099 Z M126.177024,57.3265584 L128.826227,57.3265584 C128.90686,57.3265584 128.987128,57.3331258 129.065936,57.3440714 C129.144745,57.3568413 129.218445,57.3761785 129.285943,57.4039074 C129.358184,57.427258 129.426047,57.4608246 129.489896,57.5020531 C129.553381,57.5436464 129.608839,57.5961853 129.658824,57.6585753 C129.70443,57.7140331 129.744564,57.7789771 129.780685,57.8526776 C129.8179,57.9260132 129.847088,58.0077404 129.869344,58.0993187 C129.883209,58.1617087 129.892695,58.2303012 129.899627,58.3040017 C129.906559,58.3773373 129.909478,58.4550512 129.909478,58.5382378 L129.909478,60.3676148 C129.909478,60.4577337 129.9051,60.5434743 129.896708,60.6226476 C129.887222,60.701456 129.873358,60.7777105 129.85548,60.8481272 C129.837237,60.9309491 129.811333,61.0101223 129.774847,61.0823634 C129.737632,61.155699 129.697498,61.2202781 129.652986,61.2757359 C129.575637,61.3633008 129.486978,61.4322582 129.388467,61.4840674 C129.320969,61.5154448 129.249093,61.5391603 129.171379,61.5544842 C129.095125,61.5709026 129.010479,61.5781997 128.920725,61.5781997 L126.0745,61.5781997 C125.998246,61.5781997 125.927829,61.5709026 125.861061,61.5570382 C125.796117,61.5435386 125.733727,61.5252959 125.675715,61.5015804 C125.603474,61.470203 125.53707,61.430069 125.479059,61.3826381 C125.420682,61.3359368 125.368143,61.2815736 125.322536,61.2221024 C125.286416,61.170658 125.254674,61.1166596 125.225485,61.0586479 C125.195202,61.0017307 125.171487,60.941165 125.153609,60.8773155 C125.135731,60.8189389 125.121867,60.7594678 125.113475,60.6999966 C125.103624,60.6405254 125.099246,60.5836082 125.099246,60.526691 L125.099246,58.4258629 C125.099246,58.3386628 125.105084,58.2569356 125.116029,58.1821405 C125.12734,58.1058861 125.142663,58.0365639 125.160541,57.9745387 C125.182797,57.9026625 125.211986,57.8373537 125.244823,57.7778825 C125.279484,57.7184114 125.317064,57.666967 125.357197,57.6239142 C125.401345,57.5753887 125.45133,57.5341602 125.506788,57.4994991 C125.560786,57.4633786 125.616244,57.4327308 125.675715,57.4093802 C125.751969,57.3816513 125.833697,57.3608546 125.919437,57.3469902 C126.005178,57.3331258 126.091283,57.3265584 126.177024,57.3265584 L126.177024,57.3265584 Z" id="Fill-32" fill="#1A1918"></path>
            <path d="M132.240164,58.0394827 L132.240164,59.0421009 L133.303713,59.0421009 C133.339834,59.0421009 133.367563,59.0380876 133.388359,59.0286014 C133.409156,59.0187503 133.425574,59.0034264 133.439439,58.9840892 C133.453303,58.9673059 133.461695,58.9479687 133.465708,58.924618 C133.471181,58.9009025 133.472641,58.8706197 133.472641,58.8341343 L133.472641,58.1876133 C133.472641,58.1598845 133.468627,58.136169 133.458776,58.1168317 C133.450749,58.096035 133.436885,58.081076 133.418642,58.068671 C133.400764,58.0577254 133.378508,58.0493338 133.354793,58.0449555 C133.329983,58.0409421 133.306632,58.0394827 133.282917,58.0394827 L132.240164,58.0394827 L132.240164,58.0394827 Z M130.525716,57.3385986 L134.177538,57.3385986 C134.353762,57.3385986 134.507366,57.3579358 134.638713,57.3980697 C134.764953,57.4367442 134.87149,57.4994991 134.957231,57.5826858 C134.997365,57.6209954 135.03239,57.6684264 135.061214,57.7213302 C135.091862,57.7749637 135.115212,57.8329755 135.13309,57.8968249 C135.159724,57.9953354 135.173589,58.1088049 135.173589,58.2346795 L135.173589,59.1085043 C135.173589,59.1515571 135.172129,59.1946098 135.17067,59.2362032 C135.167751,59.2774316 135.162278,59.3204844 135.152792,59.3635371 C135.144401,59.4036711 135.129077,59.4419807 135.109739,59.4824795 C135.088943,59.521154 135.062673,59.5572745 135.030931,59.5893816 C135.008675,59.6127323 134.980946,59.6349884 134.946285,59.6539608 C134.913083,59.6736629 134.872949,59.6900813 134.828802,59.7013918 C134.78283,59.7178102 134.73321,59.7291206 134.678847,59.7345935 C134.624849,59.7400663 134.561364,59.7429851 134.489488,59.7429851 L135.458905,61.5847671 L133.575164,61.5847671 L132.767743,59.7499173 L132.2263,59.7499173 L132.2263,61.5847671 L130.525716,61.5847671 L130.525716,57.3385986 L130.525716,57.3385986 Z" id="Fill-33" fill="#1A1918"></path>
            <path d="M136.073683,57.3331258 L139.821097,57.3331258 L139.821097,58.0216049 L137.788131,58.0216049 L137.788131,59.0421009 L139.767463,59.0421009 L139.767463,59.7375123 L137.788131,59.7375123 L137.788131,60.8951934 L139.868163,60.8951934 L139.868163,61.5847671 L136.073683,61.5847671 L136.073683,57.3331258" id="Fill-34" fill="#1A1918"></path>
            <path d="M141.704837,61.5902399 L140.072116,57.3265584 L141.873764,57.3265584 L143.175198,60.6875916 L144.5299,57.3265584 L145.342794,57.3265584 L143.609009,61.5902399 L141.704837,61.5902399" id="Fill-35" fill="#1A1918"></path>
            <path d="M145.9521,57.3331258 L149.699878,57.3331258 L149.699878,58.0216049 L147.666913,58.0216049 L147.666913,59.0421009 L149.64588,59.0421009 L149.64588,59.7375123 L147.666913,59.7375123 L147.666913,60.8951934 L149.746944,60.8951934 L149.746944,61.5847671 L145.9521,61.5847671 L145.9521,57.3331258" id="Fill-36" fill="#1A1918"></path>
            <path d="M152.030564,58.0394827 L152.030564,59.0421009 L153.094113,59.0421009 C153.130233,59.0421009 153.157962,59.0380876 153.178759,59.0286014 C153.199556,59.0187503 153.215974,59.0034264 153.230203,58.9840892 C153.243703,58.9673059 153.252095,58.9479687 153.256108,58.924618 C153.261946,58.9009025 153.26304,58.8706197 153.26304,58.8341343 L153.26304,58.1876133 C153.26304,58.1598845 153.259027,58.136169 153.249541,58.1168317 C153.241149,58.096035 153.227285,58.081076 153.209042,58.068671 C153.191164,58.0577254 153.168908,58.0493338 153.145557,58.0449555 C153.120382,58.0409421 153.097032,58.0394827 153.073316,58.0394827 L152.030564,58.0394827 L152.030564,58.0394827 Z M150.316116,57.3385986 L153.968303,57.3385986 C154.143797,57.3385986 154.297766,57.3579358 154.429478,57.3980697 C154.555352,57.4367442 154.66189,57.4994991 154.747995,57.5826858 C154.788129,57.6209954 154.822425,57.6684264 154.851614,57.7213302 C154.882261,57.7749637 154.905612,57.8329755 154.923855,57.8968249 C154.950124,57.9953354 154.963989,58.1088049 154.963989,58.2346795 L154.963989,59.1085043 C154.963989,59.1515571 154.962529,59.1946098 154.96107,59.2362032 C154.958151,59.2774316 154.953043,59.3204844 154.943192,59.3635371 C154.9348,59.4036711 154.919476,59.4419807 154.900139,59.4824795 C154.879343,59.521154 154.853073,59.5572745 154.820966,59.5893816 C154.799075,59.6127323 154.771711,59.6349884 154.736685,59.6539608 C154.703483,59.6736629 154.663349,59.6900813 154.619202,59.7013918 C154.573595,59.7178102 154.523245,59.7291206 154.469612,59.7345935 C154.415613,59.7400663 154.351764,59.7429851 154.279888,59.7429851 L155.248939,61.5847671 L153.365929,61.5847671 L152.558143,59.7499173 L152.0167,59.7499173 L152.0167,61.5847671 L150.316116,61.5847671 L150.316116,57.3385986 L150.316116,57.3385986 Z" id="Fill-37" fill="#1A1918"></path>
            <path d="M75.297797,6.76438941 L77.1286334,6.76438941 L77.1286334,5.39180942 L75.297797,5.39180942 L75.297797,6.76438941 Z M80.7877521,17.5002124 L80.7877521,13.8786736 L81.6659552,13.8786736 L81.6659552,12.6042393 L80.7877521,12.6042393 L80.7877521,11.8482622 L81.6659552,11.8482622 L81.6659552,10.5756522 L80.7877521,10.5756522 L80.7877521,9.81931025 L81.6659552,9.81931025 L81.6659552,8.54524079 L80.7877521,8.54524079 L80.7877521,6.83517104 L78.9985091,6.83517104 L78.9985091,2.2577153 L77.2479406,2.2577153 L77.2479406,0.0682276602 L75.1788547,0.0682276602 L75.1788547,2.2577153 L73.4257322,2.2577153 L73.4257322,6.83517104 L71.6361243,6.83517104 L71.6361243,8.54524079 L70.7608401,8.54524079 L70.7608401,9.81931025 L71.6361243,9.81931025 L71.6361243,10.5756522 L70.7608401,10.5756522 L70.7608401,11.8482622 L71.6361243,11.8482622 L71.6361243,12.6042393 L70.7608401,12.6042393 L70.7608401,13.8786736 L71.6361243,13.8786736 L71.6361243,17.5002124 L70.2040732,17.5002124 L70.2040732,52.3182103 L82.2223573,52.3182103 L82.2223573,17.5002124 L80.7877521,17.5002124 L80.7877521,17.5002124 Z" id="Fill-38" fill="#D9222A"></path>
        </g>
    </g>
</svg>