<?xml version="1.0" encoding="UTF-8" standalone="no"?>
<svg width="400px" height="78px" viewBox="0 0 400 78" version="1.1" xmlns="http://www.w3.org/2000/svg" xmlns:xlink="http://www.w3.org/1999/xlink">
    <!-- Generator: Sketch 3.7.2 (28276) - http://www.bohemiancoding.com/sketch -->
    <title>product-logos</title>
    <desc>Created with Sketch.</desc>
    <defs></defs>
    <g id="Page-1" stroke="none" stroke-width="1" fill="none" fill-rule="evenodd">
        <g id="Valve-Guard_Logo_Black">
            <polyline id="Fill-1" fill="#1A1918" points="13.0202249 65.3998582 0 33.0440428 16.2123418 33.0440428 25.6094525 57.1890164 34.5755657 33.0440428 41.0241071 33.0440428 28.8645087 65.3998582 13.0202249 65.3998582"></polyline>
            <path d="M69.7034466,49.7744937 L62.4563058,49.7744937 C62.1292951,49.7744937 61.8123182,49.8556762 61.504463,50.0180414 C61.197976,50.183143 60.9211343,50.3874677 60.6771305,50.6310154 C60.4705254,50.8768435 60.2876366,51.152317 60.122991,51.458804 C59.9601698,51.765291 59.8771629,52.0626564 59.8771629,52.3467953 L59.8771629,56.9431883 C59.8771629,57.1488812 59.9287002,57.3623276 60.0313186,57.5871759 C60.1330248,57.8120243 60.2456771,58.0268388 60.3688192,58.2311635 C60.5731438,58.4354882 60.818972,58.6192892 61.1063035,58.7816543 C61.3918108,58.9467559 61.6581626,59.0274824 61.9044468,59.0274824 L67.8006731,59.0274824 C68.0049977,59.0274824 68.2303022,58.9563336 68.4761303,58.8131239 C68.7219584,58.6690021 68.9449824,58.4961471 69.1511314,58.2918224 C69.3139527,58.1294572 69.4471286,57.9351664 69.5511152,57.710318 C69.6514532,57.4850136 69.7034466,57.2706551 69.7034466,57.0663304 L69.7034466,49.7744937 L69.7034466,49.7744937 Z M84.5657861,44.1984369 L84.5657861,65.276716 L71.4242434,65.276716 L70.5015898,61.8460683 C70.4614546,62.0918964 70.3884815,62.3048867 70.2867753,62.4900559 C70.1846129,62.6734008 70.0929405,62.8462558 70.0113018,63.0109014 C69.8886158,63.2553612 69.74495,63.4697197 69.5803045,63.6535207 C69.4179393,63.8368656 69.2532938,64.011545 69.0904726,64.1743662 C68.6389515,64.5415121 68.1673629,64.8288437 67.677987,65.0327123 C67.1448273,65.1959896 66.5920561,65.276716 66.0192173,65.276716 L52.3235352,65.276716 C51.5860508,65.276716 50.9215395,65.2169693 50.327721,65.0938272 C49.7339024,64.9706851 49.1920771,64.7868841 48.7004209,64.5415121 C48.1672612,64.2975083 47.7066185,63.9805314 47.3189489,63.5924057 C46.9289989,63.2051922 46.5919545,62.7655293 46.3059911,62.2747853 C45.9771561,61.743906 45.7226624,61.1414218 45.5374932,60.4677889 C45.3536922,59.7927878 45.2205163,59.1296448 45.1393337,58.4747112 C45.0563268,57.7810107 45.0061578,57.0868541 44.9851781,56.3926975 C44.9641983,55.6985409 44.9541645,55.0440635 44.9541645,54.4310894 L44.9541645,52.5926235 C44.9541645,51.9399703 44.9938436,51.2859489 45.0768505,50.6310154 C45.1584892,49.9788183 45.2706853,49.3343747 45.4148072,48.700877 C45.558473,48.0692036 45.7523078,47.4858749 45.9976798,46.9540835 C46.2836431,46.383069 46.6439478,45.8613113 47.0731208,45.3929152 C47.5022938,44.9231509 48.0249637,44.5441469 48.639762,44.2586397 C49.1295939,44.0128115 49.6837334,43.8294666 50.2962513,43.7067806 C50.9110497,43.5854628 51.5860508,43.5229796 52.3235352,43.5229796 L67.555301,43.5229796 C67.8408083,43.5229796 68.1276837,43.4417971 68.4136471,43.2785198 C68.7009786,43.1166107 68.9673305,42.8908502 69.2131586,42.6039747 C69.3759798,42.4406974 69.5096118,42.2368288 69.611318,41.9910007 C69.7139365,41.7469969 69.7654737,41.5212363 69.7654737,41.3173678 C69.7654737,41.0710836 69.7034466,40.8275358 69.5803045,40.5812516 C69.4576184,40.3377039 69.2947972,40.1333793 69.0904726,39.9687337 C68.8843236,39.764409 68.6594752,39.6020439 68.4136471,39.4789018 C68.1673629,39.3553036 67.9238152,39.2951008 67.677987,39.2951008 L47.4106214,39.2951008 L47.4106214,32.983384 L75.6603317,32.983384 C76.4794547,32.983384 77.2356385,33.0540766 77.9334437,33.1981985 C78.6294246,33.3414082 79.2629223,33.5562228 79.8380416,33.8421861 C80.4920629,34.1276933 81.054868,34.4948392 81.5255444,34.944992 C81.996677,35.3946887 82.3948365,35.8845207 82.7236715,36.4144878 C83.0511383,36.9043197 83.3261556,37.4251652 83.5528283,37.9779364 C83.7763084,38.5284272 83.9509878,39.0907761 84.0741299,39.6622467 C84.2784545,40.4398663 84.4116304,41.2156615 84.4741137,41.9910007 C84.5343165,42.7677081 84.5657861,43.5038242 84.5657861,44.1984369 L84.5657861,44.1984369 Z" id="Fill-2" fill="#1A1918"></path>
            <polyline id="Fill-3" fill="#1A1918" points="117.865235 65.3998582 104.84501 33.0440428 121.057808 33.0440428 130.454918 57.1890164 139.420576 33.0440428 145.869573 33.0440428 133.709062 65.3998582 117.865235 65.3998582"></polyline>
            <path d="M175.225282,46.4642515 L175.225282,41.3780266 C175.225282,41.1755263 175.173289,40.9602557 175.071126,40.7358634 C174.968964,40.5105589 174.833964,40.2957444 174.671142,40.0918758 C174.506953,39.887095 174.323152,39.7247299 174.118827,39.6020439 C173.913134,39.4789018 173.70881,39.4177868 173.504485,39.4177868 L166.380486,39.4177868 C166.176162,39.4177868 165.982327,39.4789018 165.797158,39.6020439 C165.613813,39.7247299 165.438677,39.8683957 165.275856,40.0307608 C165.111667,40.2350855 164.978035,40.4499001 164.875872,40.6733802 C164.774166,40.8977724 164.721717,41.1130431 164.721717,41.3173678 L164.721717,46.4642515 L175.225282,46.4642515 L175.225282,46.4642515 Z M182.040969,33.0440428 C182.73695,33.0440428 183.432931,33.1056139 184.128912,33.2292121 C184.824893,33.3505298 185.499894,33.5753782 186.156196,33.902845 C186.647852,34.1468488 187.098005,34.4756838 187.506654,34.8825088 C187.915304,35.2907021 188.283818,35.7618346 188.612653,36.2918018 C188.816977,36.7018193 189.000322,37.1300802 189.164968,37.5797769 C189.327789,38.0299297 189.450475,38.5197616 189.533482,39.0497288 C189.615121,39.7452536 189.656624,40.4809136 189.656624,41.2562528 L189.656624,52.7153095 L164.661514,52.7153095 L164.661514,56.2075283 C164.661514,56.5359072 164.742696,56.8720396 164.907342,57.2186618 C165.070163,57.5666522 165.295012,57.8626494 165.582343,58.1084775 C165.868307,58.3939847 166.176162,58.6192892 166.503629,58.7816543 C166.831095,58.9467559 167.15765,59.0274824 167.486941,59.0274824 L188.18348,59.0274824 L188.18348,65.3396553 L157.291687,65.3396553 C156.635841,65.3396553 155.991398,65.287662 155.3579,65.1854997 C154.722578,65.0833373 154.139249,64.8895026 153.607914,64.6039953 C153.116258,64.3996706 152.664281,64.1137073 152.255631,63.7451932 C151.845614,63.3780473 151.478012,62.9297188 151.151457,62.3979274 C150.905629,62.0294132 150.69948,61.5911185 150.536659,61.0803069 C150.372013,60.5699513 150.228803,60.0076023 150.107486,59.3946283 C150.024023,58.985979 149.961996,58.5481404 149.922316,58.0770078 C149.880357,57.6076996 149.861202,57.1073778 149.861202,56.5760424 L149.861202,42.0530278 C149.861202,41.5631959 149.880357,41.0938876 149.922316,40.6437349 C149.961996,40.1935821 150.003499,39.764409 150.045002,39.3553036 C150.167689,38.6616031 150.33051,38.0194398 150.536659,37.4251652 C150.740983,36.833627 150.986812,36.3141498 151.274143,35.863997 C151.601154,35.3326616 151.980614,34.8825088 152.409787,34.5153629 C152.83896,34.1468488 153.320126,33.8631659 153.851462,33.6565608 C154.343574,33.4545165 154.874909,33.2999048 155.449573,33.1981985 C156.022867,33.0960362 156.595706,33.0440428 157.169001,33.0440428 L182.040969,33.0440428 L182.040969,33.0440428 Z" id="Fill-4" fill="#1A1918"></path>
            <path d="M217.045708,39.4177868 L209.738821,39.4177868 C209.574175,39.4177868 209.420019,39.4789018 209.278178,39.6020439 C209.134056,39.7247299 209.02186,39.887095 208.940677,40.0918758 C208.857214,40.2560653 208.796555,40.4499001 208.755052,40.6733802 C208.715373,40.8977724 208.694849,41.0938876 208.694849,41.2562528 L208.694849,57.1890164 C208.694849,57.3933411 208.745018,57.6076996 208.848549,57.8307236 C208.948887,58.0564841 209.082519,58.2708426 209.246708,58.4747112 C209.409529,58.6398128 209.605645,58.7816543 209.830037,58.9047964 C210.055341,59.0274824 210.270156,59.0876852 210.475849,59.0876852 L217.230877,59.0876852 C217.435658,59.0876852 217.629037,59.0379723 217.814662,58.93581 C217.998007,58.8336476 218.152163,58.7004717 218.274849,58.5371944 C218.43767,58.3748293 218.560812,58.189204 218.643819,57.9853354 C218.725457,57.7810107 218.766961,57.576686 218.766961,57.3723614 L218.766961,41.3780266 C218.766961,41.1335668 218.714968,40.8977724 218.612805,40.6733802 C218.510643,40.4499001 218.377467,40.2560653 218.212821,40.0918758 C218.05,39.887095 217.864831,39.7247299 217.660506,39.6020439 C217.456182,39.4789018 217.250033,39.4177868 217.045708,39.4177868 L217.045708,39.4177868 Z M233.566817,68.5869582 C233.566817,69.1584287 233.514368,69.7194094 233.413118,70.2717246 C233.310043,70.8240397 233.1568,71.3448852 232.952475,71.8347171 C232.787829,72.3646842 232.573015,72.8549722 232.308487,73.305125 C232.041223,73.7548217 231.743858,74.1821704 231.416391,74.5931002 C231.088924,74.9994691 230.74139,75.3684393 230.372876,75.69545 C230.003906,76.0206364 229.637216,76.3084241 229.268246,76.5524278 C228.776589,76.8379351 228.26441,77.0732733 227.732618,77.2570743 C227.199458,77.4422436 226.688647,77.533916 226.197447,77.533916 L196.228308,77.533916 L196.228308,71.282402 L215.879051,71.282402 C216.410842,71.282402 216.862363,71.1907295 217.230877,71.0073846 C217.599847,70.8240397 217.906334,70.5677217 218.152163,70.2402549 C218.397991,69.9547477 218.581336,69.627737 218.704478,69.2605911 C218.827164,68.8934452 218.889647,68.524931 218.889647,68.1582412 L218.889647,65.3396553 L202.000024,65.3396553 C201.304043,65.3396553 200.658231,65.2685066 200.066236,65.1248408 C199.472418,64.981175 198.928768,64.7868841 198.438936,64.5415121 C197.94728,64.2975083 197.486637,64.011545 197.057464,63.6840782 C196.626467,63.3570675 196.247463,62.9903777 195.919996,62.5817283 C195.592529,62.2127581 195.307478,61.8063892 195.06165,61.3562364 C194.815366,60.9056275 194.609673,60.4363193 194.446852,59.9464874 C194.201024,59.3339694 194.025888,58.7109616 193.924182,58.0770078 C193.82202,57.4435101 193.771851,56.8200462 193.771851,56.2075283 L193.771851,41.9910007 C193.771851,41.5011687 193.81153,40.9903571 193.894537,40.4585656 C193.976175,39.9285985 194.098861,39.3972631 194.261683,38.8659278 C194.425872,38.3359606 194.640687,37.8237807 194.907495,37.3334927 C195.172022,36.8436608 195.469843,36.3743526 195.79731,35.9246559 C196.165824,35.4348239 196.574474,34.9969854 197.026451,34.6070354 C197.476604,34.2193658 197.96826,33.902845 198.499595,33.6565608 C198.991252,33.412557 199.512553,33.2187222 200.066236,33.0750564 C200.619008,32.9332149 201.20188,32.8602418 201.816223,32.8602418 L233.566817,32.8602418 L233.566817,68.5869582 L233.566817,68.5869582 Z" id="Fill-5" fill="#1A1918"></path>
            <path d="M253.157357,33.0440428 L253.157357,57.3117025 C253.157357,57.5164832 253.219841,57.7308417 253.342527,57.9543218 C253.465669,58.1796262 253.60751,58.3748293 253.7717,58.5371944 C253.976024,58.7004717 254.190383,58.8336476 254.416143,58.93581 C254.640992,59.0379723 254.85535,59.0876852 255.061955,59.0876852 L261.755869,59.0876852 C261.960193,59.0876852 262.175008,59.0480061 262.399856,58.9654553 C262.625161,58.8838166 262.818539,58.7624989 262.983641,58.5978533 C263.146006,58.4354882 263.289672,58.2608088 263.412358,58.0770078 C263.5355,57.8932068 263.597527,57.699372 263.597527,57.4955035 L263.597527,33.1056139 L278.520526,33.1056139 L278.520526,65.3998582 L247.139357,65.3998582 C246.441552,65.3998582 245.787531,65.3291655 245.174101,65.1854997 C244.559758,65.0436582 243.984639,64.847543 243.453304,64.6039953 C242.921968,64.3184881 242.430768,63.9805314 241.980615,63.5924057 C241.528638,63.2051922 241.119533,62.786053 240.751475,62.3354441 C240.384329,61.8875718 240.045004,61.3854256 239.738517,60.8349348 C239.432486,60.2821636 239.176168,59.7220951 238.971387,59.1488002 C238.807654,58.5773296 238.674022,57.9958253 238.571403,57.403831 C238.469697,56.8118367 238.417704,56.2303324 238.417704,55.6570375 L238.417704,33.0440428 L253.157357,33.0440428" id="Fill-6" fill="#1A1918"></path>
            <path d="M307.323007,49.7744937 L300.076323,49.7744937 C299.748856,49.7744937 299.432335,49.8556762 299.124024,50.0180414 C298.817537,50.183143 298.540695,50.3874677 298.296691,50.6310154 C298.090086,50.8768435 297.907197,51.152317 297.742552,51.458804 C297.57973,51.765291 297.496724,52.0626564 297.496724,52.3467953 L297.496724,56.9431883 C297.496724,57.1488812 297.548717,57.3623276 297.650423,57.5871759 C297.752585,57.8120243 297.865238,58.0268388 297.988836,58.2311635 C298.192704,58.4354882 298.438533,58.6192892 298.725864,58.7816543 C299.011371,58.9467559 299.277723,59.0274824 299.524007,59.0274824 L305.42069,59.0274824 C305.624558,59.0274824 305.849863,58.9563336 306.095691,58.8131239 C306.341519,58.6690021 306.564999,58.4961471 306.770692,58.2918224 C306.933513,58.1294572 307.067145,57.9351664 307.171132,57.710318 C307.271014,57.4850136 307.323007,57.2706551 307.323007,57.0663304 L307.323007,49.7744937 L307.323007,49.7744937 Z M322.184891,44.1984369 L322.184891,65.276716 L309.043804,65.276716 L308.12115,61.8460683 C308.081927,62.0918964 308.008498,62.3048867 307.906336,62.4900559 C307.804174,62.6734008 307.712501,62.8462558 307.631319,63.0109014 C307.508633,63.2553612 307.364511,63.4697197 307.199865,63.6535207 C307.0375,63.8368656 306.872854,64.011545 306.710033,64.1743662 C306.258512,64.5415121 305.78738,64.8288437 305.297548,65.0327123 C304.764388,65.1959896 304.211617,65.276716 303.638778,65.276716 L289.943096,65.276716 C289.206068,65.276716 288.5411,65.2169693 287.947738,65.0938272 C287.353463,64.9706851 286.812094,64.7868841 286.320438,64.5415121 C285.786822,64.2975083 285.326179,63.9805314 284.938053,63.5924057 C284.54856,63.2051922 284.211971,62.7655293 283.926008,62.2747853 C283.596261,61.743906 283.341767,61.1414218 283.156598,60.4677889 C282.973709,59.7927878 282.840077,59.1296448 282.758894,58.4747112 C282.675887,57.7810107 282.625718,57.0868541 282.604739,56.3926975 C282.583759,55.6985409 282.573725,55.0440635 282.573725,54.4310894 L282.573725,52.5926235 C282.573725,51.9399703 282.61386,51.2859489 282.696411,50.6310154 C282.777594,49.9788183 282.890246,49.3343747 283.034368,48.700877 C283.178034,48.0692036 283.371868,47.4858749 283.617697,46.9540835 C283.903204,46.383069 284.263508,45.8613113 284.692681,45.3929152 C285.121854,44.9231509 285.644524,44.5441469 286.259323,44.2586397 C286.749611,44.0128115 287.303294,43.8294666 287.915812,43.7067806 C288.53061,43.5854628 289.206068,43.5229796 289.943096,43.5229796 L305.174862,43.5229796 C305.460369,43.5229796 305.7477,43.4417971 306.033208,43.2785198 C306.320083,43.1166107 306.586891,42.8908502 306.832719,42.6039747 C306.995997,42.4406974 307.129628,42.2368288 307.230879,41.9910007 C307.333497,41.7469969 307.385034,41.5212363 307.385034,41.3173678 C307.385034,41.0710836 307.323007,40.8275358 307.199865,40.5812516 C307.076723,40.3377039 306.914358,40.1333793 306.710033,39.9687337 C306.50434,39.764409 306.27858,39.6020439 306.033208,39.4789018 C305.78738,39.3553036 305.543376,39.2951008 305.297548,39.2951008 L285.030638,39.2951008 L285.030638,32.983384 L313.280348,32.983384 C314.099015,32.983384 314.855199,33.0540766 315.553004,33.1981985 C316.248985,33.3414082 316.882483,33.5562228 317.457602,33.8421861 C318.11208,34.1276933 318.674429,34.4948392 319.145105,34.944992 C319.616238,35.3946887 320.014853,35.8845207 320.343232,36.4144878 C320.670699,36.9043197 320.945716,37.4251652 321.172845,37.9779364 C321.395869,38.5284272 321.570548,39.0907761 321.693234,39.6622467 C321.898015,40.4398663 322.031647,41.2156615 322.093674,41.9910007 C322.153877,42.7677081 322.184891,43.5038242 322.184891,44.1984369 L322.184891,44.1984369 Z" id="Fill-7" fill="#1A1918"></path>
            <path d="M342.574942,65.3998582 L327.589917,65.3998582 L327.589917,33.1056139 L342.574942,33.1056139 L342.574942,35.9853147 C342.779723,35.6596723 343.044707,35.3536414 343.373542,35.0658537 C343.496684,34.9034886 343.650383,34.7511572 343.833728,34.6070354 C344.017985,34.4651939 344.192209,34.3529978 344.356854,34.2695348 C344.600858,34.1071697 344.846686,33.9543822 345.09297,33.8107164 C345.338342,33.6670507 345.58417,33.5562228 345.829999,33.4732159 C346.115962,33.3920333 346.392804,33.3208845 346.659611,33.2584013 C346.924595,33.1981985 347.180457,33.1667289 347.426285,33.1667289 L356.332196,33.1667289 L356.332196,42.1136867 L348.470256,42.1136867 C347.693093,42.1136867 346.976132,42.1966936 346.321199,42.3595148 C345.624306,42.522336 345.031855,42.7471844 344.540655,43.0326916 C344.252867,43.1553776 344.007039,43.3086212 343.802715,43.4937904 C343.59839,43.6766792 343.412765,43.8919499 343.250856,44.1359536 C343.004571,44.3813257 342.829892,44.6572552 342.72773,44.9628301 C342.625567,45.2697731 342.574942,45.6072737 342.574942,45.9744196 L342.574942,65.3998582" id="Fill-8" fill="#1A1918"></path>
            <path d="M383.229167,39.4177868 L376.596825,39.4177868 C376.392956,39.4177868 376.175861,39.4893917 375.953293,39.6330575 C375.725708,39.7748989 375.531874,39.9495783 375.369964,40.1525347 C375.204863,40.3582276 375.071687,40.5812516 374.969525,40.8275358 C374.867818,41.0710836 374.815825,41.3173678 374.815825,41.5631959 L374.815825,57.1260771 C374.815825,57.3331383 374.867818,57.5561623 374.969525,57.8019905 C375.071687,58.0459943 375.225843,58.2516872 375.430623,58.4149645 C375.592988,58.6192892 375.788192,58.7816543 376.013952,58.9047964 C376.238344,59.0274824 376.474139,59.0876852 376.720423,59.0876852 L383.229167,59.0876852 C383.433492,59.0876852 383.639641,59.0174486 383.843965,58.8733267 C384.047834,58.7314853 384.233003,58.5773296 384.396281,58.4149645 C384.56047,58.2101837 384.693646,57.9853354 384.796264,57.7395072 C384.897971,57.4955035 384.95042,57.2706551 384.95042,57.0663304 L384.95042,41.4405099 C384.95042,41.2361852 384.897971,41.0108807 384.796264,40.7650526 C384.693646,40.5205927 384.56047,40.2957444 384.396281,40.0918758 C384.233003,39.887095 384.047834,39.7247299 383.843965,39.6020439 C383.639641,39.4789018 383.433492,39.4177868 383.229167,39.4177868 L383.229167,39.4177868 Z M399.872962,21.461844 L399.872962,65.3998582 L368.428855,65.3998582 C367.568684,65.3998582 366.903717,65.3688446 366.433497,65.3081857 C365.962364,65.2479829 365.60434,65.1640638 365.358512,65.0628137 C365.112227,64.9615635 364.949406,64.8708032 364.867767,64.7868841 C364.785673,64.7061576 364.704034,64.6450427 364.621939,64.6039953 C364.08878,64.3581672 363.597123,64.0512241 363.147427,63.6840782 C362.697274,63.3160201 362.30778,62.9297188 361.980769,62.5197012 C361.653759,62.1124201 361.367339,61.6622673 361.121967,61.1719793 C360.875683,60.6807792 360.66999,60.1909472 360.507169,59.7006592 C360.342523,59.1711482 360.219837,58.6503027 360.138655,58.1376667 C360.055192,57.6286794 360.015969,57.1260771 360.015969,56.6367013 L360.015969,42.2970316 C360.015969,41.5631959 360.067506,40.8690393 360.169668,40.2145618 C360.271831,39.5619087 360.424162,38.9489347 360.629855,38.3760958 C360.834636,37.8046253 361.080464,37.2938136 361.367339,36.8436608 C361.653759,36.3953323 361.959333,35.9666154 362.288625,35.5570539 C362.697274,35.1488606 363.136481,34.7908364 363.607613,34.4843493 C364.078746,34.1783184 364.580892,33.9229126 365.112227,33.719044 C365.808208,33.4330807 366.372382,33.2392459 366.802011,33.1357153 C367.231184,33.0353773 367.55865,32.983384 367.784867,32.983384 C368.008803,32.983384 368.162503,33.0043637 368.245966,33.0440428 C368.327148,33.0855463 368.387807,33.1056139 368.428855,33.1056139 L376.659308,33.1056139 L384.887937,33.1056139 L384.887937,21.461844 L399.872962,21.461844 L399.872962,21.461844 Z" id="Fill-9" fill="#1A1918"></path>
            <polyline id="Fill-10" fill="#1A1918" points="12.5878593 71.6687033 17.2722761 71.6687033 17.2722761 72.5293298 14.7305319 72.5293298 14.7305319 73.8049907 17.204776 73.8049907 17.204776 74.6742827 14.7305319 74.6742827 14.7305319 76.1214305 17.3311106 76.1214305 17.3311106 76.9834252 12.5878593 76.9834252 12.5878593 71.6687033"></polyline>
            <polyline id="Fill-11" fill="#1A1918" points="18.1096424 71.6687033 20.2532271 71.6687033 20.2532271 76.1214305 22.7685186 76.1214305 22.7685186 76.9834252 18.1096424 76.9834252 18.1096424 71.6687033"></polyline>
            <polyline id="Fill-12" fill="#1A1918" points="23.623672 71.6823858 25.7585912 71.6687033 25.7585912 76.9902664 23.623672 76.9902664 23.623672 71.6823858"></polyline>
            <polyline id="Fill-13" fill="#1A1918" points="26.3679166 71.6687033 29.0943739 71.6687033 30.1625177 74.6966308 31.3141243 71.6687033 33.9730816 71.6687033 33.9730816 76.9902664 31.8732807 76.9902664 31.8732807 72.7441443 30.2893084 76.9834252 28.8243735 76.9834252 27.2905702 72.7888403 27.2905702 76.9834252 26.3679166 76.9834252 26.3679166 71.6687033"></polyline>
            <polyline id="Fill-14" fill="#1A1918" points="34.9719009 71.6823858 37.106364 71.6687033 37.106364 76.9902664 34.9719009 76.9902664 34.9719009 71.6823858"></polyline>
            <polyline id="Fill-15" fill="#1A1918" points="37.6983582 71.6604938 40.4685994 71.6604938 42.772725 76.0110587 42.772725 71.6604938 43.7195509 71.6604938 43.7195509 76.9752157 40.9515901 76.9752157 38.6141706 72.5448366 38.6141706 76.9752157 37.6983582 76.9752157 37.6983582 71.6604938"></polyline>
            <path d="M47.0817864,72.8773202 L46.2352984,74.6897895 L47.904102,74.6897895 L47.0817864,72.8773202 L47.0817864,72.8773202 Z M48.8440867,71.6823858 L51.146844,76.9902664 L48.8769246,76.9902664 L48.2502681,75.5796052 L45.78697,75.5796052 L45.0494856,76.9902664 L44.0246697,76.9902664 L46.7182891,71.6823858 L48.8440867,71.6823858 L48.8440867,71.6823858 Z" id="Fill-16" fill="#1A1918"></path>
            <polyline id="Fill-17" fill="#1A1918" points="51.6558313 71.6604938 56.9650803 71.6604938 56.9650803 72.558519 55.3742667 72.558519 55.3742667 76.9902664 53.2571347 76.9902664 53.2571347 72.558519 51.6558313 72.558519 51.6558313 71.6604938"></polyline>
            <polyline id="Fill-18" fill="#1A1918" points="57.676568 71.6687033 62.3609847 71.6687033 62.3609847 72.5293298 59.8201527 72.5293298 59.8201527 73.8049907 62.2934846 73.8049907 62.2934846 74.6742827 59.8201527 74.6742827 59.8201527 76.1214305 62.4202754 76.1214305 62.4202754 76.9834252 57.676568 76.9834252 57.676568 71.6687033"></polyline>
            <polyline id="Fill-19" fill="#1A1918" points="69.0526178 76.9902664 67.0111954 71.6604938 69.2637837 71.6604938 70.8910837 75.8619199 72.5840596 71.6604938 73.60021 71.6604938 71.432909 76.9902664 69.0526178 76.9902664"></polyline>
            <path d="M76.9624454,72.8773202 L76.1159575,74.6897895 L77.7843049,74.6897895 L76.9624454,72.8773202 L76.9624454,72.8773202 Z M78.7247457,71.6823858 L81.027047,76.9902664 L78.7575836,76.9902664 L78.1309272,75.5796052 L75.667173,75.5796052 L74.9301447,76.9902664 L73.9048727,76.9902664 L76.5984921,71.6823858 L78.7247457,71.6823858 L78.7247457,71.6823858 Z" id="Fill-20" fill="#1A1918"></path>
            <polyline id="Fill-21" fill="#1A1918" points="81.8995316 71.6687033 84.0426602 71.6687033 84.0426602 76.1214305 86.5584077 76.1214305 86.5584077 76.9834252 81.8995316 76.9834252 81.8995316 71.6687033"></polyline>
            <polyline id="Fill-22" fill="#1A1918" points="88.8538677 76.9902664 86.8129014 71.6604938 89.0650336 71.6604938 90.6923337 75.8619199 92.3853096 71.6604938 93.401916 71.6604938 91.234615 76.9902664 88.8538677 76.9902664"></polyline>
            <polyline id="Fill-23" fill="#1A1918" points="94.1635727 71.6687033 98.8479895 71.6687033 98.8479895 72.5293298 96.3067014 72.5293298 96.3067014 73.8049907 98.7804894 73.8049907 98.7804894 74.6742827 96.3067014 74.6742827 96.3067014 76.1214305 98.9068241 76.1214305 98.9068241 76.9834252 94.1635727 76.9834252 94.1635727 71.6687033"></polyline>
            <path d="M106.098323,72.5516778 L106.098323,73.8049907 L107.427801,73.8049907 C107.472954,73.8049907 107.507616,73.7999738 107.533612,73.7881157 C107.559609,73.7758015 107.580133,73.756646 107.597464,73.7324737 C107.614795,73.7114939 107.625285,73.6873216 107.630302,73.6581324 C107.637143,73.628487 107.638967,73.5906323 107.638967,73.5450241 L107.638967,72.736847 C107.638967,72.7021848 107.63395,72.6725395 107.621636,72.6483671 C107.611602,72.6223705 107.594271,72.6036711 107.571467,72.5881643 C107.549119,72.5744819 107.521298,72.563992 107.492109,72.558519 C107.460639,72.5535021 107.43145,72.5516778 107.401805,72.5516778 L106.098323,72.5516778 L106.098323,72.5516778 Z M103.955194,71.6755445 L108.520574,71.6755445 C108.740405,71.6755445 108.932415,71.6997169 109.097061,71.7498859 C109.254409,71.7982305 109.387585,71.8766766 109.495221,71.9806633 C109.54539,72.0285519 109.588717,72.0878425 109.624748,72.1539744 C109.663059,72.2210184 109.692248,72.2935354 109.715052,72.3733498 C109.74789,72.4964919 109.765221,72.6383333 109.765221,72.7956816 L109.765221,73.8879976 C109.765221,73.9418153 109.763397,73.9956329 109.761572,74.0476263 C109.75838,74.0991635 109.751082,74.1529812 109.738768,74.2067988 C109.728734,74.2569678 109.709579,74.3048564 109.685407,74.3554815 C109.65941,74.4038262 109.626572,74.4489783 109.586893,74.4891135 C109.559072,74.5183028 109.52441,74.5461237 109.481082,74.56984 C109.439579,74.5944684 109.38941,74.6149921 109.333768,74.6291306 C109.276757,74.6496543 109.21473,74.6637929 109.146774,74.6706341 C109.07973,74.6774753 108.999916,74.681124 108.909611,74.681124 L110.121877,76.9834252 L107.767126,76.9834252 L106.757817,74.6897895 L106.080992,74.6897895 L106.080992,76.9834252 L103.955194,76.9834252 L103.955194,71.6755445 L103.955194,71.6755445 Z" id="Fill-24" fill="#1A1918"></path>
            <path d="M113.490498,72.8773202 L112.64401,74.6897895 L114.312813,74.6897895 L113.490498,72.8773202 L113.490498,72.8773202 Z M115.252798,71.6823858 L117.555099,76.9902664 L115.285636,76.9902664 L114.659435,75.5796052 L112.195681,75.5796052 L111.458197,76.9902664 L110.433381,76.9902664 L113.127,71.6823858 L115.252798,71.6823858 L115.252798,71.6823858 Z" id="Fill-25" fill="#1A1918"></path>
            <polyline id="Fill-26" fill="#1A1918" points="118.064543 71.6604938 123.374248 71.6604938 123.374248 72.558519 121.782978 72.558519 121.782978 76.9902664 119.665846 76.9902664 119.665846 72.558519 118.064543 72.558519 118.064543 71.6604938"></polyline>
            <polyline id="Fill-27" fill="#1A1918" points="123.807069 71.6604938 129.116318 71.6604938 129.116318 72.558519 127.525505 72.558519 127.525505 76.9902664 125.408373 76.9902664 125.408373 72.558519 123.807069 72.558519 123.807069 71.6604938"></polyline>
            <polyline id="Fill-28" fill="#1A1918" points="129.913093 71.6687033 132.055766 71.6687033 132.055766 76.1214305 134.571513 76.1214305 134.571513 76.9834252 129.913093 76.9834252 129.913093 71.6687033"></polyline>
            <polyline id="Fill-29" fill="#1A1918" points="135.266126 71.6687033 139.950543 71.6687033 139.950543 72.5293298 137.408799 72.5293298 137.408799 73.8049907 139.883043 73.8049907 139.883043 74.6742827 137.408799 74.6742827 137.408799 76.1214305 140.008921 76.1214305 140.008921 76.9834252 135.266126 76.9834252 135.266126 71.6687033"></polyline>
            <path d="M145.760113,71.6755445 L145.760113,72.5516778 L142.922828,72.5516778 C142.895007,72.5516778 142.867642,72.5566947 142.843014,72.5653602 C142.817473,72.5758501 142.792845,72.5881643 142.770497,72.6036711 C142.747693,72.6178096 142.728993,72.6346847 142.715311,72.6556644 C142.701172,72.6743638 142.694331,72.6971679 142.694331,72.7213402 L142.694331,73.115851 C142.694331,73.1350065 142.697524,73.1541619 142.706189,73.171493 C142.715311,73.1888241 142.728993,73.2079796 142.7445,73.2266789 C142.767304,73.2513074 142.796494,73.2736554 142.829331,73.2946351 C142.863994,73.3137906 142.896832,73.3238244 142.931494,73.3238244 L144.794588,73.3238244 C144.868929,73.3238244 144.944639,73.3288413 145.028102,73.3375068 C145.109741,73.3484528 145.186819,73.3635035 145.259792,73.3826589 C145.339606,73.4031826 145.413947,73.4291793 145.485096,73.4642976 C145.556245,73.4989598 145.621921,73.5381828 145.683948,73.5833349 C145.7291,73.6230141 145.770603,73.6649736 145.810282,73.7101257 C145.850418,73.7529974 145.88508,73.8031664 145.912445,73.8569841 C145.940266,73.912626 145.962614,73.9710045 145.976752,74.0357681 C145.990435,74.1009879 145.997732,74.1721366 145.997732,74.2519509 L145.997732,75.8774267 C145.997732,75.9312444 145.993627,75.9864303 145.989067,76.0402479 C145.983594,76.0949777 145.974928,76.1474272 145.962614,76.1962279 C145.947107,76.2705693 145.922935,76.3394376 145.891921,76.4032891 C145.860908,76.4680527 145.824421,76.5277994 145.78611,76.5820732 C145.701279,76.6960936 145.590451,76.7877661 145.455451,76.8575466 C145.37062,76.9026987 145.277123,76.9350805 145.175416,76.9578846 C145.074622,76.9802326 144.967443,76.9902664 144.854791,76.9902664 L140.831693,76.9902664 L140.831693,76.107748 L143.660313,76.107748 C143.69315,76.107748 143.727813,76.1027311 143.760651,76.0917852 C143.795313,76.0817514 143.826782,76.0694372 143.854147,76.0557547 C143.883793,76.0402479 143.906141,76.0206364 143.926664,76.0001127 C143.946276,75.9773086 143.95631,75.951768 143.95631,75.9225788 L143.95631,75.4532706 C143.95631,75.4290982 143.947644,75.4049259 143.930769,75.3807535 C143.912982,75.3543008 143.890634,75.3356014 143.862813,75.3196386 C143.840009,75.3009392 143.814468,75.2849764 143.782999,75.2744865 C143.751985,75.2658209 143.722796,75.2612601 143.69315,75.2612601 L141.643519,75.2612601 C141.565529,75.2612601 141.491187,75.2535067 141.420038,75.2421047 C141.34889,75.2302465 141.285038,75.2156519 141.229852,75.2019695 C141.167369,75.1814458 141.109903,75.1586417 141.06019,75.1312768 C141.010021,75.1034558 140.963044,75.0719861 140.924734,75.0373239 C140.878213,74.9981009 140.840358,74.954317 140.805696,74.9082527 C140.772858,74.8608202 140.743213,74.8074587 140.720409,74.7486241 C140.675713,74.6396205 140.653365,74.5183028 140.653365,74.3846708 L140.653365,72.7213402 C140.653365,72.6625057 140.658382,72.6004785 140.670696,72.5357149 C140.68073,72.4718635 140.698061,72.408012 140.720409,72.3441605 C140.743213,72.279853 140.772858,72.2173698 140.810713,72.1585352 C140.8472,72.0987885 140.886879,72.0408661 140.931575,71.9870484 C140.97171,71.9423524 141.016862,71.900849 141.068855,71.8607138 C141.119024,71.8210346 141.176491,71.7863724 141.238062,71.7571832 C141.299177,71.7325548 141.366221,71.7120311 141.43737,71.6983486 C141.506694,71.6823858 141.581035,71.6755445 141.66085,71.6755445 L145.760113,71.6755445" id="Fill-30" fill="#1A1918"></path>
            <polyline id="Fill-31" fill="#1A1918" points="155.73736 71.6687033 155.73736 72.5293298 153.178285 72.5293298 153.178285 73.7908522 155.669404 73.7908522 155.669404 74.681124 153.162778 74.681124 153.162778 76.9902664 151.052487 76.9902664 151.052487 71.6687033 155.73736 71.6687033"></polyline>
            <path d="M158.868818,72.5448366 C158.813632,72.5448366 158.763463,72.5535021 158.721504,72.5708332 C158.678632,72.5881643 158.640321,72.6091441 158.607483,72.6328603 C158.567348,72.6679787 158.538159,72.709026 158.517179,72.7560025 C158.49848,72.8025228 158.48799,72.8476749 158.48799,72.892827 L158.48799,75.8391158 C158.48799,75.8742341 158.500304,75.9084403 158.522652,75.9394538 C158.545,75.9727478 158.569172,76.0001127 158.598818,76.0261094 C158.631656,76.0507378 158.668142,76.0712615 158.707821,76.0885926 C158.747957,76.1059237 158.787636,76.1141332 158.827315,76.1141332 L159.961134,76.1141332 C160.001269,76.1141332 160.039124,76.1040994 160.075611,76.0854 C160.113466,76.0644203 160.144935,76.0402479 160.174125,76.0110587 C160.201945,75.9864303 160.224294,75.9567849 160.241625,75.9225788 C160.258956,75.8879166 160.266253,75.8532544 160.266253,75.8185921 L160.266253,72.8248708 C160.266253,72.7902086 160.258956,72.7560025 160.241625,72.7213402 C160.224294,72.6871341 160.198753,72.6570327 160.165459,72.6328603 C160.135814,72.6091441 160.103432,72.5881643 160.063297,72.5708332 C160.023617,72.5535021 159.987131,72.5448366 159.952469,72.5448366 L158.868818,72.5448366 L158.868818,72.5448366 Z M157.726333,71.6604938 L161.037944,71.6604938 C161.138738,71.6604938 161.239076,71.6687033 161.337589,71.6823858 C161.436103,71.6983486 161.528232,71.722521 161.612607,71.7571832 C161.702911,71.7863724 161.787742,71.828332 161.867556,71.8798692 C161.946915,71.9318625 162.016239,71.9975383 162.078722,72.0755283 C162.135733,72.1448528 162.185902,72.2260353 162.231054,72.3181639 C162.277574,72.4098363 162.314061,72.5119987 162.341882,72.6264752 C162.359213,72.7044652 162.371071,72.7902086 162.379736,72.8823371 C162.388402,72.9740096 162.392051,73.071155 162.392051,73.1751417 L162.392051,75.4619361 C162.392051,75.5745883 162.386578,75.6817676 162.376088,75.7807373 C162.36423,75.879251 162.346898,75.9745721 162.32455,76.0625959 C162.301746,76.1661265 162.269365,76.2650963 162.223756,76.3554005 C162.177236,76.4470729 162.127067,76.5277994 162.071425,76.5971239 C161.974736,76.7065835 161.863908,76.792783 161.740766,76.8575466 C161.656391,76.8967696 161.566542,76.926415 161.469397,76.9455704 C161.374076,76.9660941 161.268265,76.9752157 161.156069,76.9752157 L157.598174,76.9752157 C157.502853,76.9752157 157.414829,76.9660941 157.331366,76.948763 C157.250184,76.931888 157.172194,76.9090839 157.099677,76.8794385 C157.009372,76.8402155 156.926366,76.7900465 156.853849,76.7307559 C156.780875,76.6723774 156.7152,76.6044212 156.658189,76.5300798 C156.613037,76.4657723 156.573358,76.3982722 156.536872,76.3257552 C156.499017,76.2546064 156.469372,76.1788968 156.447024,76.0990825 C156.424676,76.0261094 156.407344,75.951768 156.396855,75.8774267 C156.38454,75.8030854 156.379067,75.7319366 156.379067,75.6607878 L156.379067,73.0346685 C156.379067,72.9256649 156.386365,72.8235026 156.400047,72.7300058 C156.414186,72.6346847 156.433341,72.5480291 156.455689,72.4704952 C156.48351,72.3806471 156.519997,72.2990084 156.561044,72.2246671 C156.604372,72.1503257 156.651348,72.0860182 156.701517,72.0322005 C156.756703,71.9715417 156.819186,71.9200044 156.888511,71.8766766 C156.956011,71.8315245 157.025335,71.7932136 157.099677,71.7640244 C157.194998,71.7293622 157.29716,71.7033655 157.404339,71.6860344 C157.511519,71.6687033 157.619154,71.6604938 157.726333,71.6604938 L157.726333,71.6604938 Z" id="Fill-32" fill="#1A1918"></path>
            <path d="M165.305501,72.5516778 L165.305501,73.8049907 L166.63498,73.8049907 C166.680132,73.8049907 166.714794,73.7999738 166.740791,73.7881157 C166.766788,73.7758015 166.787311,73.756646 166.804643,73.7324737 C166.821974,73.7114939 166.832464,73.6873216 166.83748,73.6581324 C166.844322,73.628487 166.846146,73.5906323 166.846146,73.5450241 L166.846146,72.736847 C166.846146,72.7021848 166.841129,72.6725395 166.828815,72.6483671 C166.818781,72.6223705 166.80145,72.6036711 166.778646,72.5881643 C166.756298,72.5744819 166.728477,72.563992 166.698832,72.558519 C166.667818,72.5535021 166.638629,72.5516778 166.608983,72.5516778 L165.305501,72.5516778 L165.305501,72.5516778 Z M163.162373,71.6755445 L167.727296,71.6755445 C167.947584,71.6755445 168.139594,71.6997169 168.303784,71.7498859 C168.461588,71.7982305 168.594764,71.8766766 168.701943,71.9806633 C168.752112,72.0285519 168.795896,72.0878425 168.831926,72.1539744 C168.870237,72.2210184 168.899427,72.2935354 168.921775,72.3733498 C168.955069,72.4964919 168.9724,72.6383333 168.9724,72.7956816 L168.9724,73.8879976 C168.9724,73.9418153 168.970575,73.9956329 168.968751,74.0476263 C168.965102,74.0991635 168.958261,74.1529812 168.946403,74.2067988 C168.935913,74.2569678 168.916758,74.3048564 168.892585,74.3554815 C168.866589,74.4038262 168.833751,74.4489783 168.794072,74.4891135 C168.766251,74.5183028 168.731588,74.5461237 168.688261,74.56984 C168.646757,74.5944684 168.596588,74.6149921 168.541402,74.6291306 C168.483936,74.6496543 168.421909,74.6637929 168.353953,74.6706341 C168.286453,74.6774753 168.207094,74.681124 168.117246,74.681124 L169.329056,76.9834252 L166.974305,76.9834252 L165.964996,74.6897895 L165.28817,74.6897895 L165.28817,76.9834252 L163.162373,76.9834252 L163.162373,71.6755445 L163.162373,71.6755445 Z" id="Fill-33" fill="#1A1918"></path>
            <polyline id="Fill-34" fill="#1A1918" points="170.097554 71.6687033 174.78197 71.6687033 174.78197 72.5293298 172.240682 72.5293298 172.240682 73.8049907 174.714926 73.8049907 174.714926 74.6742827 172.240682 74.6742827 172.240682 76.1214305 174.840805 76.1214305 174.840805 76.9834252 170.097554 76.9834252 170.097554 71.6687033"></polyline>
            <polyline id="Fill-35" fill="#1A1918" points="177.136721 76.9902664 175.095755 71.6604938 177.347887 71.6604938 178.974731 75.8619199 180.668163 71.6604938 181.684313 71.6604938 179.517012 76.9902664 177.136721 76.9902664"></polyline>
            <polyline id="Fill-36" fill="#1A1918" points="182.44597 71.6687033 187.130843 71.6687033 187.130843 72.5293298 184.589555 72.5293298 184.589555 73.8049907 187.063343 73.8049907 187.063343 74.6742827 184.589555 74.6742827 184.589555 76.1214305 187.189677 76.1214305 187.189677 76.9834252 182.44597 76.9834252 182.44597 71.6687033"></polyline>
            <path d="M190.044294,72.5516778 L190.044294,73.8049907 L191.373772,73.8049907 C191.418924,73.8049907 191.453587,73.7999738 191.479583,73.7881157 C191.50558,73.7758015 191.526104,73.756646 191.543891,73.7324737 C191.560766,73.7114939 191.571256,73.6873216 191.576273,73.6581324 C191.58357,73.628487 191.584938,73.5906323 191.584938,73.5450241 L191.584938,72.736847 C191.584938,72.7021848 191.579921,72.6725395 191.568063,72.6483671 C191.557573,72.6223705 191.540242,72.6036711 191.517438,72.5881643 C191.49509,72.5744819 191.467269,72.563992 191.43808,72.558519 C191.40661,72.5535021 191.377421,72.5516778 191.347776,72.5516778 L190.044294,72.5516778 L190.044294,72.5516778 Z M187.901165,71.6755445 L192.466544,71.6755445 C192.68592,71.6755445 192.878386,71.6997169 193.043032,71.7498859 C193.20038,71.7982305 193.333556,71.8766766 193.441191,71.9806633 C193.49136,72.0285519 193.534232,72.0878425 193.570719,72.1539744 C193.609029,72.2210184 193.638219,72.2935354 193.661023,72.3733498 C193.693861,72.4964919 193.711192,72.6383333 193.711192,72.7956816 L193.711192,73.8879976 C193.711192,73.9418153 193.709368,73.9956329 193.707543,74.0476263 C193.703895,74.0991635 193.697509,74.1529812 193.685195,74.2067988 C193.674705,74.2569678 193.65555,74.3048564 193.631378,74.3554815 C193.605381,74.4038262 193.572543,74.4489783 193.532408,74.4891135 C193.505043,74.5183028 193.470837,74.5461237 193.427053,74.56984 C193.385549,74.5944684 193.33538,74.6149921 193.280194,74.6291306 C193.223184,74.6496543 193.160245,74.6637929 193.093201,74.6706341 C193.025701,74.6774753 192.945886,74.681124 192.856038,74.681124 L194.067392,76.9834252 L191.713553,76.9834252 L190.703788,74.6897895 L190.026963,74.6897895 L190.026963,76.9834252 L187.901165,76.9834252 L187.901165,71.6755445 L187.901165,71.6755445 Z" id="Fill-37" fill="#1A1918"></path>
            <path d="M94.1252619,8.45575766 L96.4138806,8.45575766 L96.4138806,6.73997771 L94.1252619,6.73997771 L94.1252619,8.45575766 Z M100.987926,21.8759664 L100.987926,17.3488978 L102.085715,17.3488978 L102.085715,15.7558039 L100.987926,15.7558039 L100.987926,14.8108023 L102.085715,14.8108023 L102.085715,13.2199888 L100.987926,13.2199888 L100.987926,12.2745311 L102.085715,12.2745311 L102.085715,10.6818932 L100.987926,10.6818932 L100.987926,8.54423754 L98.7513002,8.54423754 L98.7513002,2.82223454 L96.5630194,2.82223454 L96.5630194,0.0852873076 L93.9765792,0.0852873076 L93.9765792,2.82223454 L91.7851058,2.82223454 L91.7851058,8.54423754 L89.5480243,8.54423754 L89.5480243,10.6818932 L88.453884,10.6818932 L88.453884,12.2745311 L89.5480243,12.2745311 L89.5480243,13.2199888 L88.453884,13.2199888 L88.453884,14.8108023 L89.5480243,14.8108023 L89.5480243,15.7558039 L88.453884,15.7558039 L88.453884,17.3488978 L89.5480243,17.3488978 L89.5480243,21.8759664 L87.757903,21.8759664 L87.757903,65.3998582 L102.781239,65.3998582 L102.781239,21.8759664 L100.987926,21.8759664 L100.987926,21.8759664 Z" id="Fill-38" fill="#D9222A"></path>
        </g>
    </g>
</svg>