<?xml version="1.0" encoding="UTF-8" standalone="no"?>
<svg width="320px" height="69px" viewBox="0 0 320 69" version="1.1" xmlns="http://www.w3.org/2000/svg" xmlns:xlink="http://www.w3.org/1999/xlink">
    <!-- Generator: Sketch 3.6.1 (26313) - http://www.bohemiancoding.com/sketch -->
    <title>product-logos</title>
    <desc>Created with Sketch.</desc>
    <defs>
        <path id="path-1" d="M274.951568,68.2282776 L0,68.2282776 L0,34.2099743 L0,0.191670951 L274.951568,0.191670951 L274.951568,68.2282776 L274.951568,68.2282776 Z"></path>
    </defs>
    <g id="Page-1" stroke="none" stroke-width="1" fill="none" fill-rule="evenodd">
        <g id="FatGuard_Logo_Black">
            <g id="Group-9">
                <mask id="mask-2" fill="white">
                    <use xlink:href="#path-1"></use>
                </mask>
                <g id="Clip-2"></g>
                <path d="M26.9359383,37.133162 C26.9359383,36.7662725 26.7483805,36.5194859 26.3658612,36.3870437 C26.0269409,36.5194859 25.8599486,36.7662725 25.8599486,37.133162 C25.8599486,37.396401 26.0269409,37.5765553 26.3658612,37.6760925 C26.7483805,37.5091003 26.9359383,37.328946 26.9359383,37.133162 L26.9359383,37.133162 Z M19.2041131,38.9133162 L18.3173265,39.2086375 L17.5555784,38.9133162 L17.6205656,38.6657069 L18.3173265,38.5686375 L19.0132648,38.6657069 L19.2041131,38.9133162 L19.2041131,38.9133162 Z M17.3671979,33.2676607 C17.3671979,33.4996401 17.2602571,33.6987147 17.0504884,33.8624165 C17.0504884,33.6633419 17.1549614,33.4675578 17.3671979,33.2676607 L17.3671979,33.2676607 Z M18.1906427,32.0789717 C18.1906427,31.7491003 17.9775835,31.501491 17.5555784,31.3369666 C17.2174807,31.501491 17.0504884,31.7491003 17.0504884,32.0789717 C17.0504884,32.3455013 17.2174807,32.5256555 17.5555784,32.6251928 C17.9775835,32.5256555 18.1906427,32.3455013 18.1906427,32.0789717 L18.1906427,32.0789717 Z M18.1906427,33.9619537 C18.1906427,33.5991774 17.9775835,33.3515681 17.5555784,33.2166581 L17.3671979,33.2676607 C17.3671979,33.0044216 17.1985604,32.7913625 16.8596401,32.6251928 C16.4368123,32.7913625 16.2245758,33.0044216 16.2245758,33.2676607 C16.2245758,33.5670951 16.4368123,33.7974293 16.8596401,33.9619537 L17.0504884,33.8624165 C17.0504884,34.1931105 17.2174807,34.405347 17.5555784,34.5073522 C17.9775835,34.405347 18.1906427,34.2276607 18.1906427,33.9619537 L18.1906427,33.9619537 Z M16.0361954,32.0789717 L14.4526478,31.3369666 L14.4526478,32.0789717 L15.1485861,32.6251928 L16.0361954,32.0789717 L16.0361954,32.0789717 Z M14.9577378,25.1977378 C14.9577378,25.4609769 14.7882776,25.643599 14.4526478,25.7406684 C14.0273522,25.643599 13.8175835,25.4609769 13.8175835,25.1977378 C13.8175835,24.9007712 14.0273522,24.7025193 14.4526478,24.602982 C14.7882776,24.7025193 14.9577378,24.9007712 14.9577378,25.1977378 L14.9577378,25.1977378 Z M28.1410797,29.4572751 L27.9526992,30.2478149 C27.1917738,31.0729049 26.6620051,32.0633419 26.3658612,33.2166581 L26.6216967,33.7143445 L27.1276093,33.9619537 C26.8314653,33.9965039 26.5789203,34.142108 26.3658612,34.405347 L26.2391774,35.0502828 L26.3658612,35.7931105 L27.9526992,35.0502828 L27.9526992,35.7931105 C27.9526992,36.7827249 27.6762982,37.4120308 27.1276093,37.6760925 L12.8032905,37.6760925 L12.8032905,30.7915681 C13.1397429,30.430437 15.5278149,30.2478149 19.9650386,30.2478149 C20.8929563,30.2478149 22.2568638,30.1161954 24.0534704,29.8496658 C25.8500771,29.5864267 27.2106941,29.4572751 28.1410797,29.4572751 L28.1410797,29.4572751 Z M32.8308483,4.54910026 L32.8308483,8.0633419 C32.8308483,10.0137789 32.5133162,11.132545 31.8815424,11.4303342 L13.6267352,11.4303342 L12.8032905,10.836401 C12.7177378,9.74724936 12.6774293,9.08832905 12.6774293,8.85717224 C12.6774293,5.88503856 13.3741902,4.07033419 14.7668895,3.40894602 C15.7811825,2.94580977 17.660874,2.71465296 20.4092545,2.71465296 L21.6135733,2.71465296 L19.9650386,3.35958869 L23.1979434,3.35958869 C22.7759383,3.19341902 22.5637018,2.98118252 22.5637018,2.71465296 C22.5637018,2.45059126 22.7759383,2.2548072 23.1979434,2.12318766 C23.5771722,2.2548072 23.7680206,2.45059126 23.7680206,2.71465296 C23.7680206,2.98118252 23.5771722,3.19341902 23.1979434,3.35958869 L24.720617,3.35958869 C24.3816967,3.19341902 24.2122365,2.98118252 24.2122365,2.71465296 C24.2122365,2.45059126 24.3816967,2.2548072 24.720617,2.12318766 C25.1393316,2.2548072 25.3523907,2.45059126 25.3523907,2.71465296 C25.3523907,2.98118252 25.1393316,3.19341902 24.720617,3.35958869 L31.8815424,3.35958869 C32.1752185,3.45994859 32.4927506,3.8548072 32.8308483,4.54910026 L32.8308483,4.54910026 Z M13.3741902,22.7232905 C13.3741902,22.9544473 13.1825193,23.151054 12.8032905,23.3147558 C12.4651928,23.151054 12.2957326,22.9544473 12.2957326,22.7232905 C12.2957326,22.4246787 12.4651928,22.1935219 12.8032905,22.0289974 C13.1825193,22.1935219 13.3741902,22.4246787 13.3741902,22.7232905 L13.3741902,22.7232905 Z M11.7898201,28.911054 C11.7898201,29.1751157 11.5989717,29.3552699 11.2197429,29.4572751 C10.7952699,29.3552699 10.5855013,29.1751157 10.5855013,28.911054 C10.5855013,28.6445244 10.7952699,28.4487404 11.2197429,28.3171208 C11.5989717,28.4487404 11.7898201,28.6445244 11.7898201,28.911054 L11.7898201,28.911054 Z M9.18951157,32.9690488 C9.18951157,32.6416452 9.06282776,32.3455013 8.81028278,32.0789717 L8.49275064,32.2270437 L8.43105398,32.9690488 L8.49275064,33.7143445 L8.81028278,33.9619537 C9.06282776,33.5991774 9.18951157,33.2676607 9.18951157,32.9690488 L9.18951157,32.9690488 Z M8.81028278,50.05491 L8.81028278,49.5095116 L7.98683805,50.7483805 C8.32329049,50.5846787 8.59804627,50.3535219 8.81028278,50.05491 L8.81028278,50.05491 Z M8.61861183,53.2252956 C8.61861183,52.9620566 8.40719794,52.762982 7.98683805,52.6288946 C7.60514139,52.762982 7.41429306,52.9620566 7.41429306,53.2252956 C7.41429306,53.4885347 7.60514139,53.6884319 7.98683805,53.8175835 C8.40719794,53.6884319 8.61861183,53.4885347 8.61861183,53.2252956 L8.61861183,53.2252956 Z M7.79681234,41.3894087 C7.79681234,41.0907969 7.60514139,40.8760925 7.2259126,40.7469409 C6.84421594,40.8760925 6.65583548,41.0907969 6.65583548,41.3894087 C6.65583548,41.6534704 6.84421594,41.8328021 7.2259126,41.9356298 C7.60514139,41.8328021 7.79681234,41.6534704 7.79681234,41.3894087 L7.79681234,41.3894087 Z M4.05552699,32.6251928 L4.05552699,32.0789717 L3.23290488,32.0789717 L4.05552699,32.6251928 L4.05552699,32.6251928 Z M3.04123393,5.2911054 C3.04123393,4.99496144 2.82899743,4.74735219 2.40946015,4.54910026 C2.07053985,4.74735219 1.90190231,4.99496144 1.90190231,5.2911054 C1.90190231,5.55434447 2.07053985,5.75341902 2.40946015,5.88503856 C2.82899743,5.75341902 3.04123393,5.55434447 3.04123393,5.2911054 L3.04123393,5.2911054 Z M2.1544473,48.8653985 C2.1544473,48.6021594 1.98498715,48.3899229 1.6485347,48.2229306 C1.26683805,48.3899229 1.07845758,48.6021594 1.07845758,48.8653985 C1.07845758,49.1327506 1.26683805,49.3441645 1.6485347,49.5095116 C1.98498715,49.3441645 2.1544473,49.1327506 2.1544473,48.8653985 L2.1544473,48.8653985 Z M2.1544473,43.2699229 C2.1544473,43.0058612 1.98498715,42.7911568 1.6485347,42.6266324 C1.26683805,42.7261697 1.07845758,42.9416967 1.07845758,43.2699229 C1.07845758,43.5685347 1.26683805,43.7643188 1.6485347,43.8663239 C1.98498715,43.7643188 2.1544473,43.5685347 2.1544473,43.2699229 L2.1544473,43.2699229 Z M2.1544473,25.8402057 C2.1544473,25.5769666 1.98498715,25.3639075 1.6485347,25.1977378 C1.26683805,25.3639075 1.07845758,25.5769666 1.07845758,25.8402057 C1.07845758,26.1059126 1.26683805,26.3214396 1.6485347,26.4826735 C1.98498715,26.3214396 2.1544473,26.1059126 2.1544473,25.8402057 L2.1544473,25.8402057 Z M11.6639589,18.3123907 C11.6639589,23.0350643 10.9647301,27.193419 9.57120823,30.7915681 L11.2197429,30.2478149 L11.2197429,62.5842674 C10.7952699,63.1115681 10.5205141,63.7375835 10.3938303,64.4639589 C10.6068895,64.6597429 10.8808226,64.8431877 11.2197429,65.0101799 L11.2197429,66.0968638 C11.2197429,67.5512596 10.3082776,68.277635 8.49275064,68.277635 C7.98683805,68.277635 7.2448329,68.1542416 6.27413882,67.9041645 C5.30344473,67.6565553 4.56390746,67.533162 4.05552699,67.533162 L1.96606684,67.533162 C1.58437018,67.533162 1.18293059,67.6187147 0.76092545,67.7799486 L0.887609254,68.1780977 L0,68.1780977 L0.76092545,67.7799486 L0,61.9878663 L0,4.00534704 C2.78868895,3.73881748 4.66838046,3.31187661 5.64236504,2.71465296 L5.64236504,3.20904884 C6.31691517,3.20904884 7.30982005,3.08565553 8.61861183,2.83804627 C9.92904884,2.59043702 10.9022108,2.4670437 11.5339846,2.4670437 C11.5339846,4.41748072 11.5561954,7.05809769 11.5989717,10.3897172 C11.6392802,14.2198458 11.6639589,16.8604627 11.6639589,18.3123907 L11.6639589,18.3123907 Z" id="Fill-1" fill="#D7332F" mask="url(#mask-2)"></path>
                <path d="M66.3617481,51.9346015 L65.6625193,51.391671 L66.3617481,51.391671 L66.3617481,51.9346015 L66.3617481,51.9346015 Z M64.522365,43.8663239 C64.522365,44.129563 64.3529049,44.34509 64.0164524,44.5087918 C63.6775321,44.34509 63.508072,44.129563 63.508072,43.8663239 C63.508072,43.5685347 63.6775321,43.3373779 64.0164524,43.1720308 C64.3529049,43.3373779 64.522365,43.5685347 64.522365,43.8663239 L64.522365,43.8663239 Z M62.4296144,49.5095116 L62.4296144,48.8152185 L61.6069923,48.8152185 L62.4296144,49.5095116 L62.4296144,49.5095116 Z M62.1120823,45.6958355 C62.1120823,45.4309512 61.9459126,45.2195373 61.6069923,45.0550129 C61.268072,45.2195373 61.0986118,45.4309512 61.0986118,45.6958355 C61.0986118,45.9615424 61.268072,46.1770694 61.6069923,46.3407712 C61.9459126,46.1770694 62.1120823,45.9615424 62.1120823,45.6958355 L62.1120823,45.6958355 Z M60.719383,38.2190231 C60.719383,37.9557841 60.466838,37.7402571 59.9584576,37.5765553 C59.6195373,37.7402571 59.452545,37.9557841 59.452545,38.2190231 C59.452545,38.517635 59.6195373,38.7487918 59.9584576,38.9133162 C60.466838,38.7487918 60.719383,38.517635 60.719383,38.2190231 L60.719383,38.2190231 Z M59.9584576,48.2229306 L59.5150643,47.9753213 L59.1975321,48.2229306 L59.5150643,48.4705398 L59.9584576,48.2229306 L59.9584576,48.2229306 Z M58.1832391,13.2623136 C58.1832391,13.5280206 57.9710026,13.7410797 57.5514653,13.9072494 C57.212545,13.7410797 57.0430848,13.5280206 57.0430848,13.2623136 C57.0430848,12.9661697 57.212545,12.7506427 57.5514653,12.6190231 C57.9710026,12.7506427 58.1832391,12.9661697 58.1832391,13.2623136 L58.1832391,13.2623136 Z M54.2543959,2.07218509 C54.2543959,2.33789203 54.0421594,2.51886889 53.6201542,2.61758355 C53.1973265,2.51886889 52.9875578,2.33789203 52.9875578,2.07218509 C52.9875578,1.741491 53.1973265,1.50951157 53.6201542,1.38118252 C54.0421594,1.50951157 54.2543959,1.741491 54.2543959,2.07218509 L54.2543959,2.07218509 Z M52.6058612,37.0303342 C52.6058612,36.702108 52.436401,36.4544987 52.1007712,36.2875064 C51.6351671,36.4544987 51.4007198,36.702108 51.4007198,37.0303342 C51.4007198,37.261491 51.6351671,37.4449357 52.1007712,37.5765553 C52.436401,37.4449357 52.6058612,37.261491 52.6058612,37.0303342 L52.6058612,37.0303342 Z M51.2123393,25.0982005 L51.2123393,24.5034447 L50.3872494,24.5034447 L51.2123393,25.0982005 L51.2123393,25.0982005 Z M51.021491,29.4572751 C51.021491,29.1932134 50.8092545,28.9949614 50.3872494,28.8600514 C50.048329,28.9949614 49.8813368,29.1932134 49.8813368,29.4572751 C49.8813368,29.7205141 50.048329,29.9360411 50.3872494,30.0972751 C50.8092545,29.9360411 51.021491,29.7205141 51.021491,29.4572751 L51.021491,29.4572751 Z M49.6904884,43.1720308 C49.4379434,43.4369152 49.1417995,43.6672494 48.8028792,43.8663239 L48.8028792,43.1720308 C49.0159383,42.9737789 49.3112596,42.7911568 49.6904884,42.6266324 L49.6904884,43.1720308 L49.6904884,43.1720308 Z M47.7894087,30.7915681 C47.7894087,31.0572751 47.6199486,31.2382519 47.2834961,31.3369666 C46.8582005,31.2382519 46.6492545,31.0572751 46.6492545,30.7915681 C46.6492545,30.4625193 46.8582005,30.2321851 47.2834961,30.0972751 C47.6199486,30.2321851 47.7894087,30.4625193 47.7894087,30.7915681 L47.7894087,30.7915681 Z M46.140874,3.31187661 C46.140874,3.01326478 45.9714139,2.78457584 45.6349614,2.61758355 C45.2532648,2.78457584 45.0648843,3.01326478 45.0648843,3.31187661 C45.0648843,3.57511568 45.2532648,3.75526992 45.6349614,3.8548072 C45.9714139,3.75526992 46.140874,3.57511568 46.140874,3.31187661 L46.140874,3.31187661 Z M42.9729563,31.3369666 C42.9729563,31.0729049 42.8034961,30.8590231 42.4645758,30.6936761 C42.085347,30.8590231 41.8944987,31.0729049 41.8944987,31.3369666 C41.8944987,31.6034961 42.085347,31.8313625 42.4645758,32.0312596 C42.8034961,31.8313625 42.9729563,31.6034961 42.9729563,31.3369666 L42.9729563,31.3369666 Z M35.0494602,67.6351671 C35.0494602,67.2691003 34.8158355,67.0223136 34.3535219,66.8923393 C34.0146015,67.0223136 33.8451414,67.2691003 33.8451414,67.6351671 C33.8879177,67.6672494 33.9282262,67.7988689 33.9710026,68.0300257 L35.0494602,67.6351671 L35.0494602,67.6351671 Z M70.4172751,64.4639589 C68.8518252,64.4639589 68.0719794,65.2742416 68.0719794,66.8923393 L55.9646272,66.8923393 L55.9646272,61.9878663 C55.120617,61.7558869 54.5069409,60.1394344 54.1277121,57.1360411 C53.7484833,53.8677635 53.30509,51.9535219 52.7967095,51.391671 C51.9930077,51.8219023 51.4648843,52.4314653 51.2123393,53.2252956 L41.5769666,53.2252956 C41.2380463,53.3544473 40.7543445,53.7525964 40.1192802,54.4139846 L40.1192802,55.0054499 L40.3101285,55.3525964 L43.2255013,55.3525964 C41.1121851,55.3525964 39.5919794,57.071054 38.6615938,60.5030334 C37.6045244,64.4639589 36.4026735,66.8413368 35.0494602,67.6351671 C34.9639075,67.8984062 34.7327506,68.0785604 34.3535219,68.1780977 L33.9710026,68.0300257 C33.2964524,68.1937275 32.0699229,68.277635 30.295527,68.277635 C30.1260668,68.277635 29.8833933,68.2587147 29.5658612,68.2258098 C29.2491517,68.1937275 29.0286889,68.1780977 28.9020051,68.1780977 L28.584473,67.7799486 L27.9502314,67.6351671 C27.2748586,67.7988689 26.1750129,68.011928 24.6556298,68.277635 C24.6556298,66.0318766 25.5218509,61.0138817 27.2534704,53.2252956 C27.3801542,52.9620566 27.6113111,52.7308997 27.9502314,52.5310026 L38.4090488,3.31187661 L39.1058098,3.20904884 C40.1192802,3.20904884 40.8802057,3.37604113 41.3885861,3.70673522 C42.3592802,4.33357326 43.2468895,7.09017995 44.0514139,11.9765553 C44.8098715,16.5001542 45.0838046,19.6195373 44.874036,21.335527 L45.4441131,21.5346015 C45.4868895,21.6637532 45.5494087,21.7978406 45.6349614,21.9269923 C45.6349614,23.4496658 45.126581,25.6847301 44.1131105,28.6395887 C43.0988175,31.5919794 42.5937275,33.8303342 42.5937275,35.3472494 C43.2255013,35.2822622 43.7519794,35.1827249 44.1772751,35.0502828 C44.5137275,35.1827249 45.0007198,35.4138817 45.6349614,35.7445758 L42.4645758,37.0303342 C41.8722879,39.7392288 41.5769666,41.3737789 41.5769666,41.9356298 C41.5769666,42.7582519 42.3806684,43.4040103 43.9864267,43.8663239 C43.5644216,44.0629306 43.311054,44.2430848 43.2255013,44.4092545 L43.4780463,45.0550129 L49.6904884,45.0550129 C50.2819537,45.0550129 50.7903342,45.877635 51.2123393,47.5294602 C51.6754756,49.4757841 51.9740874,50.5172237 52.1007712,50.6488432 C52.436401,50.6167609 52.6922365,50.4012339 52.860874,50.0039075 L52.860874,49.1130077 C52.860874,45.5502314 52.1007712,41.3219537 50.5780977,36.4388689 C48.8028792,30.726581 47.9160925,26.5172237 47.9160925,23.8091517 C47.9160925,23.3822108 48.2114139,22.7397429 48.8028792,21.8784576 C49.3943445,21.0212853 49.6904884,20.4265296 49.6904884,20.0983033 C49.6904884,19.5364524 48.8867866,19.3373779 47.2834961,19.5010797 C45.0838046,14.0906941 43.9864267,9.30385604 43.9864267,5.14303342 C43.9864267,3.39249357 44.4948072,2.51886889 45.5082776,2.51886889 L46.5225707,2.61758355 C46.8582005,2.78457584 47.114036,3.01326478 47.2834961,3.31187661 L53.6201542,3.31187661 C53.7057069,3.73881748 54.1491003,4.53264781 54.9511568,5.6892545 C55.6257069,6.61141388 55.9646272,7.88318766 55.9646272,9.4996401 C56.5133162,9.63125964 57.3392288,9.86323907 58.4390746,10.1939332 L58.6916195,10.4407198 L58.8183033,10.7393316 L55.9646272,10.7393316 C56.5996915,15.0317738 57.4223136,19.4204627 58.4390746,23.9086889 L63.255527,25.0982005 C60.971928,25.0982005 59.8317738,26.1708997 59.8317738,28.3171208 C59.8317738,28.5161954 59.8753728,28.8954242 59.9584576,29.4572751 C60.5926992,29.8496658 61.416144,30.4789717 62.4296144,31.3369666 C61.7978406,32.3298715 61.4803085,32.953419 61.4803085,33.2166581 C61.4803085,33.3515681 61.8167609,33.8624165 62.4946015,34.7549614 L62.4296144,35.7445758 C62.8516195,35.8761954 63.0646787,36.0892545 63.0646787,36.3870437 C63.0646787,36.6543959 62.8516195,36.8658098 62.4296144,37.0303342 L62.1120823,36.9817995 C61.9031362,37.4449357 61.7978406,38.0898715 61.7978406,38.9133162 L62.4296144,38.9133162 C62.9379949,41.3894087 63.1905398,43.2213882 63.1905398,44.4092545 C63.1905398,46.1926992 63.8873008,48.8152185 65.2832905,52.2842159 C65.6197429,53.2738303 66.2325964,54.6936761 67.1202057,56.5412853 C67.162982,56.6079177 67.2246787,56.6737275 67.311054,56.737892 L67.311054,56.6408226 L67.2485347,56.6893573 C67.0798972,56.8884319 66.7812853,57.3663753 66.3617481,58.1248329 C66.3617481,61.5921851 67.711671,63.7055013 70.4172751,64.4639589 L70.4172751,64.4639589 Z" id="Fill-3" fill="#D7332F" mask="url(#mask-2)"></path>
                <path d="M89.1779949,40.1011825 C89.1779949,40.3973265 89.0085347,40.6120308 88.6696144,40.7469409 C88.3306941,40.6120308 88.1637018,40.3973265 88.1637018,40.1011825 C88.1637018,39.8379434 88.3306941,39.6232391 88.6696144,39.4562468 C89.0085347,39.6232391 89.1779949,39.8379434 89.1779949,40.1011825 L89.1779949,40.1011825 Z M89.1779949,33.8624165 C89.1779949,34.1256555 89.0085347,34.3091003 88.6696144,34.405347 C88.3306941,34.3091003 88.1637018,34.1256555 88.1637018,33.8624165 C88.1637018,33.5670951 88.3306941,33.3515681 88.6696144,33.2166581 C89.0085347,33.3515681 89.1779949,33.5670951 89.1779949,33.8624165 L89.1779949,33.8624165 Z M89.1779949,25.0982005 C89.1779949,25.3639075 89.0085347,25.5605141 88.6696144,25.6921337 C88.3306941,25.5605141 88.1637018,25.3639075 88.1637018,25.0982005 C88.1637018,24.8341388 88.3306941,24.6375321 88.6696144,24.5034447 C89.0085347,24.6375321 89.1779949,24.8341388 89.1779949,25.0982005 L89.1779949,25.0982005 Z M88.4812339,12.6190231 C88.4812339,12.8855527 88.3117738,13.0657069 87.9728535,13.1652442 C87.5072494,13.0657069 87.2769152,12.8855527 87.2769152,12.6190231 C87.2769152,12.3557841 87.5072494,12.1591774 87.9728535,12.02509 C88.3117738,12.1591774 88.4812339,12.3557841 88.4812339,12.6190231 L88.4812339,12.6190231 Z M77.261491,45.1035476 C77.261491,44.8403085 77.0706427,44.6412339 76.6914139,44.5087918 C76.3524936,44.6412339 76.1855013,44.8403085 76.1855013,45.1035476 C76.1855013,45.3988689 76.3524936,45.5987661 76.6914139,45.6958355 C77.0706427,45.5987661 77.261491,45.3988689 77.261491,45.1035476 L77.261491,45.1035476 Z M75.8038046,67.6351671 C75.8038046,67.2691003 75.5512596,67.0223136 75.0428792,66.8923393 C74.7039589,67.0223136 74.5369666,67.2691003 74.5369666,67.6351671 C74.5369666,67.8984062 74.7039589,68.0785604 75.0428792,68.1780977 C75.5512596,68.0785604 75.8038046,67.8984062 75.8038046,67.6351671 L75.8038046,67.6351671 Z M74.8544987,3.31187661 C74.8544987,3.01326478 74.6636504,2.78457584 74.2819537,2.61758355 C73.9455013,2.78457584 73.7760411,3.01326478 73.7760411,3.31187661 C73.7760411,3.57511568 73.9455013,3.75526992 74.2819537,3.8548072 C74.6636504,3.75526992 74.8544987,3.57511568 74.8544987,3.31187661 L74.8544987,3.31187661 Z M87.4677635,50.05491 L84.6140874,50.05491 L84.6140874,68.1780977 L78.3399486,68.1780977 C77.9582519,67.7470437 77.557635,67.533162 77.1348072,67.533162 C76.9661697,67.533162 76.5647301,67.6565553 75.9304884,67.9041645 C75.297892,68.1542416 74.8306427,68.277635 74.5369666,68.277635 C73.9027249,68.277635 73.354036,68.1460154 72.8884319,67.8819537 C72.7625707,67.2205656 72.6975835,66.5937275 72.6975835,65.9989717 L72.6975835,13.1652442 L73.5851928,12.6190231 L76.5005656,12.5203085 L78.6574807,12.5203085 C81.4864781,12.5203085 83.4739332,12.7350129 84.6140874,13.1652442 L84.6140874,33.2166581 L85.1224679,33.4157326 L85.5016967,33.8624165 L85.5016967,34.209563 C85.5016967,34.6044216 85.3536247,35.2074036 85.0574807,36.0160411 C84.7621594,36.8263239 84.6140874,37.4284833 84.6140874,37.8233419 C84.6140874,38.4501799 84.9102314,38.8154242 85.5016967,38.9133162 L84.6140874,39.4562468 L84.6140874,48.8152185 C86.5151671,49.0809254 87.4677635,49.4922365 87.4677635,50.05491 L87.4677635,50.05491 Z M73.3968123,3.31187661 C73.3968123,3.01326478 73.162365,2.78457584 72.6975835,2.61758355 C72.3183548,2.78457584 72.1275064,3.01326478 72.1275064,3.31187661 C72.1275064,3.57511568 72.3183548,3.75526992 72.6975835,3.8548072 C73.162365,3.75526992 73.3968123,3.57511568 73.3968123,3.31187661 L73.3968123,3.31187661 Z M71.7482776,3.31187661 L71.4307455,2.71465296 L70.6081234,2.91372751 C70.565347,3.01326478 70.5217481,3.14488432 70.4789717,3.31187661 C70.4789717,3.57511568 70.7339846,3.75526992 71.2398972,3.8548072 C71.5788175,3.75526992 71.7482776,3.57511568 71.7482776,3.31187661 L71.7482776,3.31187661 Z M67.6902828,3.31187661 C67.6902828,3.01326478 67.5208226,2.78457584 67.1843702,2.61758355 C66.762365,2.78457584 66.5501285,3.01326478 66.5501285,3.31187661 C66.5501285,3.57511568 66.762365,3.75526992 67.1843702,3.8548072 C67.5208226,3.75526992 67.6902828,3.57511568 67.6902828,3.31187661 L67.6902828,3.31187661 Z M99.1284319,3.31187661 C99.1284319,7.43732648 98.5797429,10.0935733 97.4798972,11.2830848 L60.719383,11.2830848 L60.719383,3.50848329 C61.3544473,3.50848329 62.2708483,3.34395887 63.4759897,3.01326478 C64.6803085,2.68257069 65.6008226,2.51886889 66.2325964,2.51886889 C66.6142931,2.51886889 67.1415938,2.65048843 67.8194344,2.91372751 C68.4939846,3.17696658 68.9382005,3.31187661 69.1479692,3.31187661 C69.8661183,3.31187661 70.565347,3.08071979 71.2398972,2.61758355 L71.4307455,2.71465296 C72.0230334,2.58550129 72.9715167,2.51886889 74.2819537,2.51886889 L75.3595887,2.71465296 L75.994653,3.31187661 L82.2046272,3.31187661 C82.6266324,2.2548072 83.1967095,1.72503856 83.9173265,1.72503856 L83.9173265,3.31187661 L89.4947044,3.31187661 C89.6213882,2.78457584 90.5493059,2.51886889 92.2842159,2.51886889 C92.7062211,2.51886889 93.2976864,2.65048843 94.0586118,2.91372751 C94.8203599,3.17696658 95.4085347,3.31187661 95.8338303,3.31187661 C97.4395887,2.74920308 98.5147558,2.48596401 99.0667352,2.51886889 L99.1284319,2.51886889 L99.1284319,3.31187661 L99.1284319,3.31187661 Z" id="Fill-4" fill="#D7332F" mask="url(#mask-2)"></path>
                <path d="M143.179023,48.8653985 C143.179023,49.1327506 143.010386,49.3441645 142.673933,49.5095116 C142.251105,49.3441645 142.038869,49.1327506 142.038869,48.8653985 C142.038869,48.6021594 142.251105,48.3899229 142.673933,48.2229306 C143.010386,48.3899229 143.179023,48.6021594 143.179023,48.8653985 L143.179023,48.8653985 Z M143.179023,14.5505398 C143.179023,14.8491517 143.010386,15.0474036 142.673933,15.144473 C142.251105,15.0474036 142.038869,14.8491517 142.038869,14.5505398 C142.038869,14.2198458 142.251105,14.0043188 142.673933,13.9072494 C143.010386,14.0043188 143.179023,14.2198458 143.179023,14.5505398 L143.179023,14.5505398 Z M140.076093,50.7483805 C140.076093,51.0124422 139.885244,51.2271465 139.502725,51.391671 C139.037943,51.2271465 138.806787,51.0124422 138.806787,50.7483805 C138.806787,50.4497686 139.037943,50.2186118 139.502725,50.05491 C139.885244,50.2186118 140.076093,50.4497686 140.076093,50.7483805 L140.076093,50.7483805 Z M138.932648,11.132545 L138.615116,11.3817995 L138.300874,11.132545 L138.615116,10.836401 L138.932648,11.132545 L138.932648,11.132545 Z M137.919177,56.9871465 L137.474961,56.6408226 L137.095733,56.9871465 L137.474961,57.2347558 L137.919177,56.9871465 L137.919177,56.9871465 Z M137.730797,52.6288946 C137.730797,52.3648329 137.51856,52.1336761 137.095733,51.9346015 C136.673728,52.1336761 136.461491,52.3648329 136.461491,52.6288946 C136.461491,52.8946015 136.673728,53.0912082 137.095733,53.2252956 C137.51856,53.0912082 137.730797,52.8946015 137.730797,52.6288946 L137.730797,52.6288946 Z M136.018098,23.9086889 C136.018098,23.6454499 135.848638,23.4496658 135.512185,23.3147558 C135.130488,23.4496658 134.942108,23.6454499 134.942108,23.9086889 C134.942108,24.1760411 135.130488,24.3718252 135.512185,24.5034447 C135.848638,24.3718252 136.018098,24.1760411 136.018098,23.9086889 L136.018098,23.9086889 Z M135.512185,59.4138817 L135.130488,59.1662725 L134.687095,59.4138817 L135.130488,59.7602057 L135.512185,59.4138817 L135.512185,59.4138817 Z M135.130488,57.3342931 L134.687095,56.9871465 L134.242879,57.3342931 L134.687095,57.5819023 L135.130488,57.3342931 L135.130488,57.3342931 Z M135.321337,62.5842674 C135.321337,62.2856555 135.1091,62.0898715 134.687095,61.9878663 C134.264267,62.0898715 134.054499,62.2856555 134.054499,62.5842674 C134.054499,62.8475064 134.264267,63.0276607 134.687095,63.1271979 C135.1091,63.0276607 135.321337,62.8475064 135.321337,62.5842674 L135.321337,62.5842674 Z M135.321337,46.9857069 C135.321337,46.7224679 135.1091,46.5077635 134.687095,46.3407712 C134.264267,46.5077635 134.054499,46.7224679 134.054499,46.9857069 C134.054499,47.2818509 134.264267,47.4809254 134.687095,47.5779949 C135.1091,47.4809254 135.321337,47.2818509 135.321337,46.9857069 L135.321337,46.9857069 Z M135.321337,45.1035476 C135.321337,44.8403085 135.1091,44.6412339 134.687095,44.5087918 C134.264267,44.6412339 134.054499,44.8403085 134.054499,45.1035476 C134.054499,45.3988689 134.264267,45.5987661 134.687095,45.6958355 C135.1091,45.5987661 135.321337,45.3988689 135.321337,45.1035476 L135.321337,45.1035476 Z M136.208946,51.9346015 L135.512185,51.9346015 L134.560411,52.0366067 C134.221491,52.2011311 133.989512,52.3969152 133.86365,52.6288946 L134.687095,52.6288946 C134.812956,52.6288946 135.321337,52.3969152 136.208946,51.9346015 L136.208946,51.9346015 Z M133.86365,23.9086889 L133.419434,23.562365 L133.166889,23.9086889 L133.419434,24.1085861 L133.86365,23.9086889 L133.86365,23.9086889 Z M132.911054,56.3446787 C132.911054,56.0814396 132.701285,55.8659126 132.27928,55.6997429 C131.854807,55.8659126 131.645039,56.0814396 131.645039,56.3446787 C131.645039,56.6079177 131.854807,56.8234447 132.27928,56.9871465 C132.701285,56.8234447 132.911054,56.6079177 132.911054,56.3446787 L132.911054,56.3446787 Z M131.26581,59.513419 C131.26581,59.2493573 131.09635,59.0182005 130.757429,58.819126 C130.334602,59.0182005 130.123188,59.2493573 130.123188,59.513419 C130.123188,59.7766581 130.334602,59.9601028 130.757429,60.0563496 C131.09635,59.9601028 131.26581,59.7766581 131.26581,59.513419 L131.26581,59.513419 Z M131.26581,0.83496144 C131.26581,1.10066838 131.09635,1.32935733 130.757429,1.52596401 C130.334602,1.32935733 130.123188,1.10066838 130.123188,0.83496144 C130.123188,0.570899743 130.334602,0.356195373 130.757429,0.191670951 C131.09635,0.356195373 131.26581,0.570899743 131.26581,0.83496144 L131.26581,0.83496144 Z M130.757429,56.9871465 L130.314036,56.6408226 L129.808123,56.9871465 L130.187352,57.2347558 L130.757429,56.9871465 L130.757429,56.9871465 Z M127.398663,0.735424165 L127.019434,1.08174807 L126.701902,0.735424165 L127.019434,0.536349614 L127.398663,0.735424165 L127.398663,0.735424165 Z M126.511054,59.513419 C126.511054,59.2493573 126.320206,59.0182005 125.940977,58.819126 C125.475373,59.0182005 125.244216,59.2493573 125.244216,59.513419 C125.244216,59.7766581 125.475373,59.9601028 125.940977,60.0563496 C126.320206,59.9601028 126.511054,59.7766581 126.511054,59.513419 L126.511054,59.513419 Z M125.750129,64.4639589 C125.750129,64.2007198 125.518149,64.0041131 125.053368,63.8700257 C124.714447,64.0041131 124.544987,64.2007198 124.544987,64.4639589 C124.544987,64.7304884 124.714447,64.9106427 125.053368,65.0101799 C125.518149,64.9106427 125.750129,64.7304884 125.750129,64.4639589 L125.750129,64.4639589 Z M125.750129,62.5842674 C125.750129,62.2856555 125.518149,62.0898715 125.053368,61.9878663 C124.714447,62.0898715 124.544987,62.2856555 124.544987,62.5842674 C124.544987,62.8475064 124.714447,63.0276607 125.053368,63.1271979 C125.518149,63.0276607 125.750129,62.8475064 125.750129,62.5842674 L125.750129,62.5842674 Z M123.342314,62.5842674 C123.342314,62.2856555 123.108689,62.0898715 122.643907,61.9878663 C122.304987,62.0898715 122.137995,62.2856555 122.137995,62.5842674 C122.137995,62.8475064 122.304987,63.0276607 122.643907,63.1271979 C123.108689,63.0276607 123.342314,62.8475064 123.342314,62.5842674 L123.342314,62.5842674 Z M122.455527,66.2959383 C122.455527,66.0318766 122.286067,65.8492545 121.947147,65.7521851 C121.481542,65.8492545 121.251208,66.0318766 121.251208,66.2959383 C121.251208,66.5591774 121.481542,66.7574293 121.947147,66.8923393 C122.286067,66.7574293 122.455527,66.5591774 122.455527,66.2959383 L122.455527,66.2959383 Z M121.694602,61.3445758 C121.694602,61.0813368 121.481542,60.8847301 121.059537,60.7506427 C120.680308,60.8847301 120.48946,61.0813368 120.48946,61.3445758 C120.48946,61.6102828 120.680308,61.8225193 121.059537,61.9878663 C121.481542,61.8225193 121.694602,61.6102828 121.694602,61.3445758 L121.694602,61.3445758 Z M121.694602,36.3870437 C121.694602,36.1238046 121.481542,35.9115681 121.059537,35.7445758 C120.680308,35.9115681 120.48946,36.1238046 120.48946,36.3870437 C120.48946,36.6543959 120.680308,36.8658098 121.059537,37.0303342 C121.481542,36.8658098 121.694602,36.6543959 121.694602,36.3870437 L121.694602,36.3870437 Z M139.502725,14.7973265 C139.502725,15.6232391 139.333265,17.0430848 138.997635,19.0552185 C138.658715,20.8723907 138.532031,22.2930591 138.615116,23.3147558 C137.222416,23.4142931 136.417892,24.0411311 136.208946,25.1977378 L130.757429,25.1977378 L130.757429,23.562365 L127.398663,23.562365 C127.146118,17.5539332 124.504679,12.8666324 119.47599,9.4996401 L119.47599,3.35958869 C119.47599,2.80102828 120.215527,2.50241645 121.694602,2.4670437 L120.616144,2.51886889 L124.8,2.51886889 C125.55928,2.51886889 126.193522,2.36997429 126.701902,2.07218509 L126.701902,2.61758355 C128.895835,2.61758355 131.580051,4.19372751 134.75126,7.34601542 C137.919177,10.4974807 139.502725,12.9826221 139.502725,14.7973265 L139.502725,14.7973265 Z M140.264473,64.4639589 C138.954859,65.0907969 138.17419,65.9002571 137.919177,66.8923393 L133.166889,66.8923393 L133.166889,64.4639589 L131.645039,64.4639589 C131.685347,63.5738817 130.926889,63.1271979 129.363907,63.1271979 C128.051825,63.1271979 127.164216,63.5738817 126.701902,64.4639589 L127.398663,65.0101799 C126.806375,65.7686375 126.024062,66.3954756 125.053368,66.8923393 L124.8,66.8923393 C125.093676,66.8923393 124.375527,66.7574293 122.643907,66.4941902 L122.643907,68.277635 C120.529769,68.011928 119.47599,67.5512596 119.47599,66.8923393 C119.47599,64.8111054 120.255835,63.7729563 121.820463,63.7729563 C122.07383,63.7729563 122.347763,63.8050386 122.643907,63.8700257 C120.529769,63.1436504 119.47599,62.3851928 119.47599,61.5921851 C119.47599,60.9003599 120.425296,59.9082776 122.326375,58.6200514 C124.439692,57.1360411 125.644833,56.1620566 125.940977,55.6997429 C126.911671,54.0479177 127.398663,51.1119794 127.398663,46.8837018 C127.398663,44.971928 126.362982,43.5512596 124.292442,42.6266324 C124.249666,42.8586118 124.039897,43.0379434 123.657378,43.1720308 C122.982005,43.237018 122.474447,43.2699229 122.137995,43.2699229 C121.841851,43.1053985 121.481542,42.893162 121.059537,42.6266324 C120.384987,42.7261697 119.855219,42.9087918 119.47599,43.1720308 C119.644627,42.9087918 119.728535,42.6455527 119.728535,42.3798458 C119.728535,40.9624679 118.652545,40.1686375 116.49563,40.0024679 L116.308072,40.1011825 L115.99054,40.0024679 L115.99054,39.9531105 L116.49563,40.0024679 C116.961234,39.7392288 117.700771,39.3756298 118.715064,38.9133162 C119.096761,37.9878663 119.349306,36.702108 119.47599,35.0502828 L122.643907,35.7445758 L122.643907,36.1402571 C123.025604,36.1756298 123.318458,36.2554242 123.530694,36.3870437 L123.848226,36.1912596 L124.292442,35.4969666 L136.208946,35.4969666 L137.095733,34.5073522 L136.208946,33.8624165 L138.615116,33.8624165 L138.615116,36.3870437 L139.75856,36.3870437 C139.502725,37.0492545 139.188483,38.0709512 138.806787,39.4562468 L139.567712,39.4562468 C139.144884,42.0326992 138.59455,44.5087918 137.919177,46.8837018 C137.875578,46.9857069 137.836093,47.1148586 137.792494,47.2818509 C137.792494,48.1398458 137.929871,49.451928 138.203805,51.2197429 C138.47856,52.9834447 138.615116,54.3111568 138.615116,55.2045244 C138.615116,57.0546015 138.384781,58.455527 137.919177,59.4138817 L138.615116,59.4138817 L138.615116,60.3549614 L134.687095,60.3549614 C135.786118,62.1055013 137.031568,62.9774807 138.427558,62.9774807 L140.264473,64.4639589 L140.264473,64.4639589 Z M115.482159,35.7445758 L115.037943,36.0398972 L114.721234,35.7445758 L115.037943,35.4969666 L115.482159,35.7445758 L115.482159,35.7445758 Z M112.884319,16.3816967 C112.884319,16.0863753 112.714859,15.8864781 112.375938,15.7902314 C111.953933,15.8864781 111.744165,16.0863753 111.744165,16.3816967 C111.744165,16.6803085 111.953933,16.8769152 112.375938,16.9789203 C112.714859,16.8769152 112.884319,16.6803085 112.884319,16.3816967 L112.884319,16.3816967 Z M110.286478,16.7798458 L109.968946,16.3816967 L109.587249,16.7798458 L109.968946,16.9789203 L110.286478,16.7798458 L110.286478,16.7798458 Z M110.474036,10.2449357 C110.474036,9.91095116 110.305398,9.66416452 109.968946,9.4996401 C109.503342,9.66416452 109.269717,9.91095116 109.269717,10.2449357 C109.269717,10.5081748 109.503342,10.7072494 109.968946,10.836401 C110.305398,10.6726992 110.474036,10.4760925 110.474036,10.2449357 L110.474036,10.2449357 Z M109.968946,37.0303342 C109.544473,36.5351157 109.121645,36.2875064 108.69964,36.2875064 C108.659332,36.2875064 108.53018,36.3204113 108.320411,36.3870437 L109.081337,37.5765553 L109.968946,37.0303342 L109.968946,37.0303342 Z M108.826324,39.5582519 C108.826324,39.2267352 108.659332,39.0128535 108.320411,38.9133162 C107.981491,39.0128535 107.812031,39.2267352 107.812031,39.5582519 C107.812031,39.821491 107.981491,40.0024679 108.320411,40.1011825 C108.659332,40.0024679 108.826324,39.821491 108.826324,39.5582519 L108.826324,39.5582519 Z M106.419332,41.3894087 C106.419332,41.0907969 106.249871,40.8760925 105.910951,40.7469409 C105.572031,40.8760925 105.405039,41.0907969 105.405039,41.3894087 C105.405039,41.6534704 105.572031,41.8328021 105.910951,41.9356298 C106.249871,41.8328021 106.419332,41.6534704 106.419332,41.3894087 L106.419332,41.3894087 Z M105.722571,33.9619537 C105.722571,33.5991774 105.553111,33.3515681 105.21419,33.2166581 C104.7091,33.3515681 104.453265,33.5991774 104.453265,33.9619537 C104.453265,34.2276607 104.7091,34.405347 105.21419,34.5073522 C105.553111,34.405347 105.722571,34.2276607 105.722571,33.9619537 L105.722571,33.9619537 Z M104.7091,31.7326478 L104.264884,31.3369666 L103.947352,31.7326478 L104.264884,32.0312596 L104.7091,31.7326478 L104.7091,31.7326478 Z M103.313111,35.7931105 C103.313111,35.4969666 103.14365,35.2501799 102.807198,35.0502828 C102.298817,35.2501799 102.046272,35.4969666 102.046272,35.7931105 C102.046272,36.0571722 102.298817,36.2554242 102.807198,36.3870437 C103.14365,36.2554242 103.313111,36.0571722 103.313111,35.7931105 L103.313111,35.7931105 Z M103.313111,25.1977378 C103.313111,24.8686889 103.14365,24.6375321 102.807198,24.5034447 C102.298817,24.6375321 102.046272,24.8686889 102.046272,25.1977378 C102.046272,25.4609769 102.298817,25.643599 102.807198,25.7406684 C103.14365,25.643599 103.313111,25.4609769 103.313111,25.1977378 L103.313111,25.1977378 Z M117.953316,5.78550129 C117.953316,8.09871465 117.826632,9.56709512 117.574087,10.1939332 C117.404627,10.5887918 116.391157,11.9930077 114.532853,14.4024679 C114.403702,14.996401 114.107558,15.8058612 113.645244,16.8283805 L113.075167,16.9789203 C112.52401,20.5770694 112.249254,22.6212853 112.249254,23.1165039 C112.292853,23.218509 112.35455,23.4496658 112.440925,23.8091517 L113.706941,24.3043702 L114.024473,24.8505913 C114.024473,25.3795373 113.558869,26.1544473 112.630951,27.1769666 C111.488329,28.3969152 110.835167,29.1586632 110.665707,29.4572751 L112.375938,30.0972751 L112.375938,42.6266324 C112.375938,42.9581491 112.491928,43.4196401 112.725553,44.011928 C112.95671,44.608329 113.075167,45.0714653 113.075167,45.3988689 C113.075167,45.9261697 112.935321,46.7060154 112.661388,47.7277121 C112.386632,48.751054 112.249254,49.5276093 112.249254,50.05491 C112.249254,52.1336761 113.075167,53.8175835 114.721234,55.1049871 L114.721234,55.6997429 C114.511465,55.962982 114.215321,56.178509 113.833625,56.3446787 C114.25563,56.8719794 115.608843,58.3403599 117.89162,60.7506427 L117.89162,66.8923393 L117.130694,67.6351671 C114.637326,67.5002571 113.284936,67.4360925 113.075167,67.4360925 C112.018098,67.4360925 111.1091,67.5833419 110.348175,67.8819537 L110.665707,68.1780977 L109.968946,68.1780977 L110.348175,67.8819537 C108.786015,67.156401 107.306118,66.1988689 105.910951,65.0101799 C104.684422,63.9531105 103.565656,62.2025707 102.552185,59.7602057 C101.620977,57.4502828 101.158663,55.5006684 101.158663,53.9162982 L101.158663,34.5073522 L101.72874,34.5073522 L101.982108,33.8138817 C101.895733,33.6148072 101.620977,33.4157326 101.158663,33.2166581 L101.158663,14.4024679 C101.158663,11.7618509 102.637738,9.12863753 105.595887,6.50365039 C108.551568,3.88195373 111.700566,2.56987147 115.037943,2.56987147 C115.673008,2.56987147 116.315476,2.60935733 116.971928,2.69326478 C117.62509,2.77388175 117.953316,3.80627249 117.953316,5.78550129 L117.953316,5.78550129 Z" id="Fill-5" fill="#1A1918" mask="url(#mask-2)"></path>
                <path d="M187.357121,25.1977378 C187.357121,25.4609769 187.187661,25.643599 186.851208,25.7406684 C186.34365,25.643599 186.087815,25.4609769 186.087815,25.1977378 C186.087815,24.8686889 186.34365,24.6375321 186.851208,24.5034447 C187.187661,24.6375321 187.357121,24.8686889 187.357121,25.1977378 L187.357121,25.1977378 Z M184.125039,31.3369666 C184.125039,31.6034961 183.91527,31.8313625 183.489974,32.0312596 C183.151054,31.8313625 182.984062,31.6034961 182.984062,31.3369666 C182.984062,31.1403599 183.151054,30.9577378 183.489974,30.7915681 C183.91527,30.9577378 184.125039,31.1403599 184.125039,31.3369666 L184.125039,31.3369666 Z M183.301594,57.6312596 C183.301594,57.8944987 183.129666,58.0771208 182.793213,58.1741902 C182.454293,58.0771208 182.284833,57.8944987 182.284833,57.6312596 C182.284833,57.3663753 182.454293,57.1524936 182.793213,56.9871465 C183.129666,57.1524936 183.301594,57.3663753 183.301594,57.6312596 L183.301594,57.6312596 Z M182.602365,50.05491 C182.602365,49.7908483 182.371208,49.6115167 181.905604,49.5095116 C181.526375,49.6115167 181.335527,49.7908483 181.335527,50.05491 C181.335527,50.3535219 181.526375,50.5493059 181.905604,50.6488432 C182.371208,50.5493059 182.602365,50.3535219 182.602365,50.05491 L182.602365,50.05491 Z M181.082982,55.6997429 L180.387044,55.1049871 L181.082982,55.1049871 L181.082982,55.6997429 L181.082982,55.6997429 Z M179.307763,38.2190231 C179.307763,37.9557841 179.117738,37.7402571 178.738509,37.5765553 C178.399589,37.7402571 178.230129,37.9557841 178.230129,38.2190231 C178.230129,38.517635 178.399589,38.7487918 178.738509,38.9133162 C179.117738,38.7487918 179.307763,38.517635 179.307763,38.2190231 L179.307763,38.2190231 Z M177.789203,57.6312596 C177.789203,57.8944987 177.573676,58.0771208 177.154139,58.1741902 C176.728843,58.0771208 176.519897,57.8944987 176.519897,57.6312596 C176.519897,57.3663753 176.728843,57.1524936 177.154139,56.9871465 C177.573676,57.1524936 177.789203,57.3663753 177.789203,57.6312596 L177.789203,57.6312596 Z M177.154139,39.4562468 L176.328226,38.9133162 L175.567301,39.4562468 L176.328226,40.1011825 L177.154139,39.4562468 L177.154139,39.4562468 Z M176.137378,60.7506427 C176.137378,61.0138817 175.948997,61.1965039 175.567301,61.2935733 C175.188072,61.1965039 174.997224,61.0138817 174.997224,60.7506427 C174.997224,60.4544987 175.188072,60.2233419 175.567301,60.0563496 C175.948997,60.2233419 176.137378,60.4544987 176.137378,60.7506427 L176.137378,60.7506427 Z M175.37892,5.24257069 C175.37892,4.87650386 175.166684,4.6288946 174.743856,4.50056555 C174.362159,4.6288946 174.173779,4.87650386 174.173779,5.24257069 C174.173779,5.50580977 174.362159,5.6892545 174.743856,5.78550129 C175.166684,5.6892545 175.37892,5.50580977 175.37892,5.24257069 L175.37892,5.24257069 Z M172.716093,56.3446787 L172.399383,55.6997429 L172.081851,55.8502828 L171.95599,56.3446787 L172.081851,56.7888946 L172.399383,56.9871465 L172.716093,56.3446787 L172.716093,56.3446787 Z M183.619126,35.0502828 C183.619126,35.4813368 183.544267,36.1320308 183.396195,37.008946 C183.248123,37.8801028 183.172442,38.5340874 183.172442,38.9610283 C183.172442,39.7219537 183.226735,40.8547044 183.334499,42.3551671 C183.436504,43.8556298 183.489974,44.971928 183.489974,45.6958355 C183.489974,49.3959897 182.68874,52.1015938 181.082982,53.8175835 C180.997429,53.3889974 180.703753,53.1742931 180.195373,53.1742931 L178.799383,53.1742931 C178.294293,53.1742931 177.551465,53.2812339 176.584062,53.4942931 C175.610077,53.7098201 174.871362,53.8175835 174.362159,53.8175835 C172.673316,53.8175835 171.617069,53.3889974 171.194242,52.5310026 C170.941697,52.0695116 170.815013,51.0626221 170.815013,49.5095116 C170.815013,44.3936247 170.941697,36.702108 171.194242,26.4349614 C171.447609,16.1661697 171.576761,8.47794344 171.576761,3.35958869 C171.828483,3.35958869 172.229923,3.37604113 172.78108,3.40894602 C173.329769,3.44102828 173.749306,3.45994859 174.047918,3.45994859 C175.992596,3.45994859 177.320308,3.17696658 178.040925,2.61758355 L178.040925,3.11280206 C179.052751,2.88164524 180.638766,2.66611825 182.793213,2.4670437 L182.793213,18.8586118 L183.489974,19.5529049 C183.194653,19.6845244 182.963496,19.8671465 182.793213,20.0983033 L182.66653,20.7383033 C182.66653,20.9373779 182.826118,21.2516195 183.142828,21.679383 C183.457892,22.1096144 183.619126,22.4411311 183.619126,22.6714653 C183.619126,23.3303856 183.341902,23.9440617 182.793213,24.5034447 L182.793213,33.2166581 C183.341902,33.8788689 183.619126,34.4917224 183.619126,35.0502828 L183.619126,35.0502828 Z M178.799383,61.9878663 C178.799383,63.4389717 177.541594,64.8538817 175.029306,66.2202571 C172.51455,67.5915681 170.285244,68.277635 168.343856,68.277635 C167.160925,68.277635 166.019949,68.1616452 164.920103,67.9304884 L164.350026,67.6351671 L164.350026,60.0563496 C165.025398,59.8572751 166.316093,58.9351157 168.214704,57.2841131 C169.946324,55.7671979 171.172853,55.0054499 171.89347,55.0054499 C173.329769,55.0054499 174.047918,55.3369666 174.047918,55.9950643 C174.047918,57.6139846 172.420771,58.3403599 169.166478,58.1741902 L169.040617,58.5238046 C169.33347,59.1144473 170.984473,59.6285861 173.983753,60.0563496 L173.983753,60.7506427 L171.005861,60.7506427 C170.963085,61.0813368 170.87671,61.4276607 170.750848,61.790437 C170.666941,61.7558869 170.645553,61.7238046 170.689152,61.6908997 C170.689152,61.8899743 170.984473,61.9878663 171.576761,61.9878663 L178.799383,61.9878663 L178.799383,61.9878663 Z M160.989614,40.1011825 C160.989614,40.3973265 160.756812,40.6120308 160.292853,40.7469409 C159.953933,40.6120308 159.786118,40.3973265 159.786118,40.1011825 C159.786118,39.8379434 159.953933,39.6232391 160.292853,39.4562468 C160.756812,39.6232391 160.989614,39.8379434 160.989614,40.1011825 L160.989614,40.1011825 Z M160.989614,33.9619537 C160.989614,34.2276607 160.756812,34.405347 160.292853,34.5073522 C159.953933,34.405347 159.786118,34.2276607 159.786118,33.9619537 C159.786118,33.5991774 159.953933,33.3515681 160.292853,33.2166581 C160.756812,33.3515681 160.989614,33.5991774 160.989614,33.9619537 L160.989614,33.9619537 Z M160.989614,25.1977378 C160.989614,25.4609769 160.756812,25.643599 160.292853,25.7406684 C159.953933,25.643599 159.786118,25.4609769 159.786118,25.1977378 C159.786118,24.8686889 159.953933,24.6375321 160.292853,24.5034447 C160.756812,24.6375321 160.989614,24.8686889 160.989614,25.1977378 L160.989614,25.1977378 Z M159.088535,49.8583033 L158.771825,50.05491 L158.328432,49.8583033 L158.771825,49.5095116 L159.088535,49.8583033 L159.088535,49.8583033 Z M152.180977,36.3870437 C152.180977,36.1238046 151.989306,35.9115681 151.610077,35.7445758 C151.185604,35.9115681 150.975835,36.1238046 150.975835,36.3870437 C150.975835,36.6543959 151.185604,36.8658098 151.610077,37.0303342 C151.989306,36.8658098 152.180977,36.6543959 152.180977,36.3870437 L152.180977,36.3870437 Z M151.610077,53.2252956 L150.784987,52.6288946 L150.784987,53.2252956 L151.610077,53.2252956 L151.610077,53.2252956 Z M149.770694,34.5073522 C149.770694,34.2441131 149.579846,34.0285861 149.200617,33.8624165 C148.821388,34.0285861 148.63054,34.2441131 148.63054,34.5073522 C148.63054,34.7714139 148.821388,34.9515681 149.200617,35.0502828 C149.579846,34.9515681 149.770694,34.7714139 149.770694,34.5073522 L149.770694,34.5073522 Z M148.821388,45.4992288 L148.377995,45.0550129 L148.122159,45.3988689 L148.377995,45.6958355 L148.821388,45.4992288 L148.821388,45.4992288 Z M149.009769,6.43125964 C149.009769,6.16802057 148.8,5.95249357 148.377995,5.78550129 C147.996298,5.95249357 147.807918,6.16802057 147.807918,6.43125964 C147.807918,6.7274036 147.996298,6.94210797 148.377995,7.07455013 C148.8,6.94210797 149.009769,6.7274036 149.009769,6.43125964 L149.009769,6.43125964 Z M147.552082,54.4625193 L149.200617,54.4625193 L149.200617,53.8175835 L147.552082,53.8175835 L147.552082,54.4625193 Z M149.200617,51.391671 C148.98838,51.0626221 148.713625,50.8158355 148.377995,50.6488432 L147.552082,50.6488432 L147.552082,51.9346015 L149.200617,51.391671 L149.200617,51.391671 Z M146.855321,49.5095116 L147.552082,49.5095116 L147.552082,48.2237532 L146.855321,48.2237532 L146.855321,49.5095116 Z M147.363702,5.78550129 C147.363702,5.52226221 147.194242,5.3396401 146.855321,5.24257069 C146.433316,5.3396401 146.22108,5.52226221 146.22108,5.78550129 C146.22108,6.04956298 146.433316,6.23218509 146.855321,6.3292545 C147.194242,6.23218509 147.363702,6.04956298 147.363702,5.78550129 L147.363702,5.78550129 Z M146.602776,33.2166581 C146.602776,32.9887918 146.411928,32.7913625 146.032699,32.6251928 C145.567918,32.7913625 145.33347,32.9887918 145.33347,33.2166581 C145.33347,33.4831877 145.567918,33.6987147 146.032699,33.8624165 C146.411928,33.6987147 146.602776,33.4831877 146.602776,33.2166581 L146.602776,33.2166581 Z M162.764833,67.7799486 C155.749512,67.7799486 150.849152,65.8846272 148.060463,62.0898715 C145.906015,59.2172751 144.82838,54.8063753 144.82838,48.8653985 C144.82838,47.0186118 144.879383,44.2110026 144.986324,40.448329 C145.09162,36.6864781 145.14509,33.8788689 145.14509,32.0312596 L146.032699,31.3369666 L145.14509,30.7915681 L145.14509,3.75526992 C151.185604,3.75526992 154.947455,3.19341902 156.42653,2.07218509 L156.300668,2.36997429 L156.42653,2.61758355 C156.892134,2.88164524 157.398046,3.1292545 157.945913,3.35958869 L157.249974,3.9033419 C157.12329,4.86087404 156.932442,6.26426735 156.679897,8.1151671 L156.488226,9.05624679 L156.42653,9.30385604 L156.42653,9.35156812 L156.42653,9.25285347 L156.42653,9.4996401 C156.975219,9.59917738 157.758355,9.83033419 158.771825,10.1939332 L159.216041,10.836401 L156.744062,10.836401 C156.744062,12.02509 156.690591,13.8430848 156.586118,16.2846272 C156.478355,18.7269923 156.42653,20.5614396 156.42653,21.7813882 C156.42653,22.4732134 156.563907,23.4973779 156.838663,24.8505913 C157.112596,26.202982 157.249974,27.2279692 157.249974,27.9181491 C157.249974,28.3171208 157.091208,28.8871979 156.773676,29.6300257 C156.459434,30.3720308 156.300668,30.9412853 156.300668,31.3369666 C156.300668,31.6997429 156.467661,32.2056555 156.805758,32.8456555 C157.144679,33.4914139 157.314139,33.9463239 157.314139,34.209563 C157.314139,34.3091003 157.144679,34.620874 156.805758,35.1498201 C156.467661,35.6804113 156.300668,36.0571722 156.300668,36.2875064 C156.300668,36.486581 156.618201,37.3643188 157.249974,38.9133162 L156.932442,39.5582519 L157.249974,39.4562468 C157.588895,39.6232391 157.758355,39.8379434 157.758355,40.1011825 C157.758355,40.3973265 157.588895,40.6120308 157.249974,40.7469409 C156.78437,40.6120308 156.618201,40.3167095 156.744062,39.8535733 L156.42653,40.1011825 L156.42653,48.8152185 L157.249974,49.5095116 C156.618201,49.6115167 156.300668,50.2515167 156.300668,51.439383 C156.300668,52.7950643 156.849357,53.3889974 157.945913,53.2252956 C157.481131,53.8496658 156.892134,54.511054 156.173985,55.2045244 L156.744062,55.3525964 L157.249974,55.7992802 C157.715578,57.0200514 159.553316,58.671054 162.764833,60.7506427 L162.764833,67.7799486 L162.764833,67.7799486 Z" id="Fill-6" fill="#1A1918" mask="url(#mask-2)"></path>
                <path d="M226.212853,51.9346015 L225.512802,51.391671 L226.212853,51.391671 L226.212853,51.9346015 L226.212853,51.9346015 Z M224.372648,43.8663239 C224.372648,44.129563 224.203188,44.34509 223.867558,44.5087918 C223.528638,44.34509 223.359177,44.129563 223.359177,43.8663239 C223.359177,43.5685347 223.528638,43.3373779 223.867558,43.1720308 C224.203188,43.3373779 224.372648,43.5685347 224.372648,43.8663239 L224.372648,43.8663239 Z M222.28072,49.5095116 L222.28072,48.8152185 L221.457275,48.8152185 L222.28072,49.5095116 L222.28072,49.5095116 Z M221.963188,45.6958355 C221.963188,45.4309512 221.797018,45.2195373 221.457275,45.0550129 C221.118355,45.2195373 220.952185,45.4309512 220.952185,45.6958355 C220.952185,45.9615424 221.118355,46.1770694 221.457275,46.3407712 C221.797018,46.1770694 221.963188,45.9615424 221.963188,45.6958355 L221.963188,45.6958355 Z M220.569666,38.2190231 C220.569666,37.9557841 220.317943,37.7402571 219.809563,37.5765553 C219.46982,37.7402571 219.30036,37.9557841 219.30036,38.2190231 C219.30036,38.517635 219.46982,38.7487918 219.809563,38.9133162 C220.317943,38.7487918 220.569666,38.517635 220.569666,38.2190231 L220.569666,38.2190231 Z M219.809563,48.2229306 L219.36617,47.9753213 L219.048638,48.2229306 L219.36617,48.4705398 L219.809563,48.2229306 L219.809563,48.2229306 Z M218.036812,13.2623136 C218.036812,13.5280206 217.822108,13.7410797 217.402571,13.9072494 C217.06365,13.7410797 216.89419,13.5280206 216.89419,13.2623136 C216.89419,12.9661697 217.06365,12.7506427 217.402571,12.6190231 C217.822108,12.7506427 218.036812,12.9661697 218.036812,13.2623136 L218.036812,13.2623136 Z M214.105501,2.07218509 C214.105501,2.33789203 213.892442,2.51886889 213.470437,2.61758355 C213.048432,2.51886889 212.835373,2.33789203 212.835373,2.07218509 C212.835373,1.741491 213.048432,1.50951157 213.470437,1.38118252 C213.892442,1.50951157 214.105501,1.741491 214.105501,2.07218509 L214.105501,2.07218509 Z M212.459434,37.0303342 C212.459434,36.702108 212.287506,36.4544987 211.948586,36.2875064 C211.48545,36.4544987 211.254293,36.702108 211.254293,37.0303342 C211.254293,37.261491 211.48545,37.4449357 211.948586,37.5765553 C212.287506,37.4449357 212.459434,37.261491 212.459434,37.0303342 L212.459434,37.0303342 Z M211.063445,25.0982005 L211.063445,24.5034447 L210.238355,24.5034447 L211.063445,25.0982005 L211.063445,25.0982005 Z M210.872596,29.4572751 C210.872596,29.1932134 210.662828,28.9949614 210.238355,28.8600514 C209.899434,28.9949614 209.732442,29.1932134 209.732442,29.4572751 C209.732442,29.7205141 209.899434,29.9360411 210.238355,30.0972751 C210.662828,29.9360411 210.872596,29.7205141 210.872596,29.4572751 L210.872596,29.4572751 Z M209.541594,43.1720308 C209.289049,43.4369152 208.992905,43.6672494 208.653985,43.8663239 L208.653985,43.1720308 C208.866221,42.9737789 209.162365,42.7911568 209.541594,42.6266324 L209.541594,43.1720308 L209.541594,43.1720308 Z M207.640514,30.7915681 C207.640514,31.0572751 207.471054,31.2382519 207.133779,31.3369666 C206.709306,31.2382519 206.499537,31.0572751 206.499537,30.7915681 C206.499537,30.4625193 206.709306,30.2321851 207.133779,30.0972751 C207.471054,30.2321851 207.640514,30.4625193 207.640514,30.7915681 L207.640514,30.7915681 Z M205.994447,3.31187661 C205.994447,3.01326478 205.822519,2.78457584 205.485244,2.61758355 C205.106838,2.78457584 204.912699,3.01326478 204.912699,3.31187661 C204.912699,3.57511568 205.106838,3.75526992 205.485244,3.8548072 C205.822519,3.75526992 205.994447,3.57511568 205.994447,3.31187661 L205.994447,3.31187661 Z M202.823239,31.3369666 C202.823239,31.0729049 202.653779,30.8590231 202.314859,30.6936761 C201.93563,30.8590231 201.745604,31.0729049 201.745604,31.3369666 C201.745604,31.6034961 201.93563,31.8313625 202.314859,32.0312596 C202.653779,31.8313625 202.823239,31.6034961 202.823239,31.3369666 L202.823239,31.3369666 Z M194.900566,67.6351671 C194.900566,67.2691003 194.666941,67.0223136 194.204627,66.8923393 C193.864884,67.0223136 193.695424,67.2691003 193.695424,67.6351671 C193.735733,67.6672494 193.779332,67.7988689 193.822108,68.0300257 L194.900566,67.6351671 L194.900566,67.6351671 Z M230.267558,64.4639589 C228.702931,64.4639589 227.923085,65.2742416 227.923085,66.8923393 L215.815733,66.8923393 L215.815733,61.9878663 C214.971722,61.7558869 214.358046,60.1394344 213.978817,57.1360411 C213.599589,53.8677635 213.153728,51.9535219 212.647815,51.391671 C211.846581,51.8219023 211.31599,52.4314653 211.063445,53.2252956 L201.428072,53.2252956 C201.089152,53.3544473 200.604627,53.7525964 199.969563,54.4139846 L199.969563,55.0054499 L200.161234,55.3525964 L203.076607,55.3525964 C200.964936,55.3525964 199.443085,57.071054 198.512699,60.5030334 C197.45892,64.4639589 196.253779,66.8413368 194.900566,67.6351671 C194.815013,67.8984062 194.583856,68.0785604 194.204627,68.1780977 L193.822108,68.0300257 C193.14509,68.1937275 191.921028,68.277635 190.1491,68.277635 C189.97635,68.277635 189.734499,68.2587147 189.416967,68.2258098 C189.100257,68.1937275 188.879794,68.1780977 188.753111,68.1780977 L188.435578,67.7799486 L187.802982,67.6351671 C187.125964,67.7988689 186.028586,68.011928 184.506735,68.277635 C184.506735,66.0318766 185.372134,61.0138817 187.104576,53.2252956 C187.230437,52.9620566 187.464884,52.7308997 187.802982,52.5310026 L198.259332,3.31187661 L198.959383,3.20904884 C199.969563,3.20904884 200.731311,3.37604113 201.238869,3.70673522 C202.210386,4.33357326 203.097995,7.09017995 203.902519,11.9765553 C204.660977,16.5001542 204.93491,19.6195373 204.725141,21.335527 L205.295219,21.5346015 C205.337995,21.6637532 205.399692,21.7978406 205.485244,21.9269923 C205.485244,23.4496658 204.977686,25.6847301 203.964216,28.6395887 C202.9491,31.5919794 202.44401,33.8303342 202.44401,35.3472494 C203.076607,35.2822622 203.605553,35.1827249 204.025913,35.0502828 C204.36401,35.1827249 204.851003,35.4138817 205.485244,35.7445758 L202.314859,37.0303342 C201.723393,39.7392288 201.428072,41.3737789 201.428072,41.9356298 C201.428072,42.7582519 202.228483,43.4040103 203.837532,43.8663239 C203.415527,44.0629306 203.159692,44.2430848 203.076607,44.4092545 L203.33162,45.0550129 L209.541594,45.0550129 C210.133059,45.0550129 210.64144,45.877635 211.063445,47.5294602 C211.529049,49.4757841 211.825193,50.5172237 211.948586,50.6488432 C212.287506,50.6167609 212.540051,50.4012339 212.711979,50.0039075 L212.711979,49.1130077 C212.711979,45.5502314 211.948586,41.3219537 210.42838,36.4388689 C208.653985,30.726581 207.766375,26.5172237 207.766375,23.8091517 C207.766375,23.3822108 208.061697,22.7397429 208.653985,21.8784576 C209.24545,21.0212853 209.541594,20.4265296 209.541594,20.0983033 C209.541594,19.5364524 208.737892,19.3373779 207.133779,19.5010797 C204.93491,14.0906941 203.837532,9.30385604 203.837532,5.14303342 C203.837532,3.39249357 204.343445,2.51886889 205.359383,2.51886889 L206.371208,2.61758355 C206.709306,2.78457584 206.961851,3.01326478 207.133779,3.31187661 L213.470437,3.31187661 C213.556812,3.73881748 213.997738,4.53264781 214.80473,5.6892545 C215.476812,6.61141388 215.815733,7.88318766 215.815733,9.4996401 C216.364422,9.63125964 217.189512,9.86323907 218.29018,10.1939332 L218.542725,10.4407198 L218.669409,10.7393316 L215.815733,10.7393316 C216.450797,15.0317738 217.273419,19.4204627 218.29018,23.9086889 L223.103342,25.0982005 C220.823033,25.0982005 219.682879,26.1708997 219.682879,28.3171208 C219.682879,28.5161954 219.725656,28.8954242 219.809563,29.4572751 C220.443805,29.8496658 221.266427,30.4789717 222.28072,31.3369666 C221.645656,32.3298715 221.331414,32.953419 221.331414,33.2166581 C221.331414,33.3515681 221.667044,33.8624165 222.345707,34.7549614 L222.28072,35.7445758 C222.702725,35.8761954 222.915784,36.0892545 222.915784,36.3870437 C222.915784,36.6543959 222.702725,36.8658098 222.28072,37.0303342 L221.963188,36.9817995 C221.753419,37.4449357 221.645656,38.0898715 221.645656,38.9133162 L222.28072,38.9133162 C222.7891,41.3894087 223.041645,43.2213882 223.041645,44.4092545 C223.041645,46.1926992 223.738406,48.8152185 225.133573,52.2842159 C225.470026,53.2738303 226.083702,54.6936761 226.971311,56.5412853 C227.013265,56.6079177 227.078252,56.6737275 227.162159,56.737892 L227.162159,56.6408226 L227.100463,56.6893573 C226.927712,56.8884319 226.632391,57.3663753 226.212853,58.1248329 C226.212853,61.5921851 227.561954,63.7055013 230.267558,64.4639589 L230.267558,64.4639589 Z" id="Fill-7" fill="#1A1918" mask="url(#mask-2)"></path>
                <path d="M274.951568,16.333162 C274.782108,16.5643188 274.52874,16.6803085 274.18982,16.6803085 L273.302211,16.333162 L273.493059,16.18509 L274.18982,16.0863753 L274.759897,16.18509 L274.951568,16.333162 L274.951568,16.333162 Z M273.936452,55.6997429 C273.936452,55.962982 273.727506,56.1464267 273.302211,56.2426735 C272.964113,56.1464267 272.797121,55.962982 272.797121,55.6997429 C272.797121,55.4044216 272.964113,55.2045244 273.302211,55.1049871 C273.727506,55.2045244 273.936452,55.4044216 273.936452,55.6997429 L273.936452,55.6997429 Z M269.059126,49.5095116 C269.059126,49.7398458 268.887198,49.9224679 268.550746,50.05491 C268.211003,49.9224679 268.041542,49.7398458 268.041542,49.5095116 C268.041542,49.212545 268.211003,48.9813882 268.550746,48.8152185 C268.887198,48.9813882 269.059126,49.212545 269.059126,49.5095116 L269.059126,49.5095116 Z M269.059126,30.7915681 C269.059126,30.4625193 268.887198,30.2321851 268.550746,30.0972751 C268.211003,30.2321851 268.041542,30.4625193 268.041542,30.7915681 C268.041542,31.0572751 268.211003,31.2382519 268.550746,31.3369666 C268.887198,31.2382519 269.059126,31.0572751 269.059126,30.7915681 L269.059126,30.7915681 Z M268.359075,6.3292545 C268.359075,6.62786632 268.189614,6.85902314 267.853985,7.02272494 C267.428689,6.85902314 267.21892,6.62786632 267.21892,6.3292545 C267.21892,6.06601542 267.428689,5.8529563 267.853985,5.6892545 C268.189614,5.8529563 268.359075,6.06601542 268.359075,6.3292545 L268.359075,6.3292545 Z M267.600617,29.4572751 C267.600617,29.1932134 267.386735,28.9949614 266.966375,28.8600514 C266.54108,28.9949614 266.331311,29.1932134 266.331311,29.4572751 C266.331311,29.7205141 266.54108,29.9360411 266.966375,30.0972751 C267.386735,29.9360411 267.600617,29.7205141 267.600617,29.4572751 L267.600617,29.4572751 Z M266.648843,67.6351671 C266.648843,67.2691003 266.479383,67.0223136 266.143753,66.8923393 C265.762057,67.0223136 265.570386,67.2691003 265.570386,67.6351671 L265.949614,68.1780977 L266.331311,68.1780977 L266.648843,67.6351671 L266.648843,67.6351671 Z M266.648843,32.0312596 C266.648843,31.7326478 266.479383,31.501491 266.143753,31.3369666 C265.762057,31.501491 265.570386,31.7326478 265.570386,32.0312596 C265.570386,32.2944987 265.762057,32.474653 266.143753,32.5774807 C266.479383,32.474653 266.648843,32.2944987 266.648843,32.0312596 L266.648843,32.0312596 Z M266.143753,30.6936761 L265.317841,30.6936761 L265.317841,31.3369666 L266.143753,30.6936761 L266.143753,30.6936761 Z M269.373368,19.5010797 C268.612442,19.5364524 267.853985,19.9477635 267.093059,20.7383033 C266.498303,21.4005141 265.906838,22.0454499 265.317841,22.6714653 L265.762057,22.6714653 C267.662314,22.6714653 268.864987,21.6152185 269.373368,19.5010797 L269.373368,19.5010797 Z M265.949614,35.0502828 C265.949614,34.7870437 265.740668,34.5723393 265.317841,34.405347 C264.97892,34.5723393 264.80946,34.7870437 264.80946,35.0502828 C264.80946,35.3472494 264.97892,35.5784062 265.317841,35.7445758 C265.740668,35.5784062 265.949614,35.3472494 265.949614,35.0502828 L265.949614,35.0502828 Z M265.126992,48.2229306 C265.126992,47.9596915 264.917224,47.7449871 264.491928,47.5779949 C264.15383,47.7449871 263.986838,47.9596915 263.986838,48.2229306 C263.986838,48.4861697 264.15383,48.6860668 264.491928,48.8152185 C264.917224,48.6860668 265.126992,48.4861697 265.126992,48.2229306 L265.126992,48.2229306 Z M264.303548,30.7915681 C264.303548,30.4625193 264.134087,30.2321851 263.795167,30.0972751 C263.373985,30.2321851 263.164216,30.4625193 263.164216,30.7915681 C263.164216,31.0572751 263.373985,31.2382519 263.795167,31.3369666 C264.134087,31.2382519 264.303548,31.0572751 264.303548,30.7915681 L264.303548,30.7915681 Z M264.491928,11.3817995 C264.368535,11.3472494 264.217995,11.3151671 264.051003,11.2830848 L263.860154,11.2830848 C263.605141,11.3817995 263.308175,11.6294087 262.972545,12.02509 L263.795167,12.02509 L264.491928,11.3817995 L264.491928,11.3817995 Z M261.705707,22.9708997 L261.388175,22.6714653 L261.007301,22.9708997 L261.388175,23.218509 L261.705707,22.9708997 L261.705707,22.9708997 Z M261.198149,51.9346015 C261.198149,51.6705398 260.963702,51.4912082 260.501388,51.391671 C260.119692,51.4912082 259.931311,51.6705398 259.931311,51.9346015 C259.931311,52.2332134 260.119692,52.4314653 260.501388,52.5310026 C260.963702,52.4314653 261.198149,52.2332134 261.198149,51.9346015 L261.198149,51.9346015 Z M260.31054,53.8175835 C260.31054,53.5535219 260.119692,53.3544473 259.740463,53.2252956 C259.40072,53.3544473 259.23126,53.5535219 259.23126,53.8175835 C259.23126,54.0808226 259.40072,54.2790746 259.740463,54.4139846 C260.119692,54.2790746 260.31054,54.0808226 260.31054,53.8175835 L260.31054,53.8175835 Z M261.388175,47.5779949 C261.302622,47.3789203 261.092853,47.1823136 260.753933,46.9857069 L259.740463,46.8837018 L258.979537,46.8837018 C259.145707,47.346838 259.40072,47.7935219 259.740463,48.2229306 L260.501388,48.2229306 C260.880617,47.9917738 261.176761,47.7770694 261.388175,47.5779949 L261.388175,47.5779949 Z M259.484627,36.3870437 C259.484627,36.1238046 259.318458,35.9115681 258.979537,35.7445758 C258.55671,35.9115681 258.344473,36.1238046 258.344473,36.3870437 C258.344473,36.6543959 258.55671,36.8658098 258.979537,37.0303342 C259.318458,36.8658098 259.484627,36.6543959 259.484627,36.3870437 L259.484627,36.3870437 Z M258.597018,48.5190746 L258.156093,48.2229306 L257.83856,48.5190746 L258.156093,48.8152185 L258.597018,48.5190746 L258.597018,48.5190746 Z M257.965244,47.5779949 C257.965244,47.3147558 257.753008,47.0827763 257.33347,46.8837018 C256.99455,47.0827763 256.822622,47.3147558 256.822622,47.5779949 C256.822622,47.8437018 256.99455,48.0567609 257.33347,48.2229306 C257.753008,48.0567609 257.965244,47.8437018 257.965244,47.5779949 L257.965244,47.5779949 Z M249.980051,35.0502828 C249.980051,34.7870437 249.786735,34.5723393 249.410797,34.405347 C249.028278,34.5723393 248.838252,34.7870437 248.838252,35.0502828 C248.838252,35.3472494 249.028278,35.5784062 249.410797,35.7445758 C249.786735,35.5784062 249.980051,35.3472494 249.980051,35.0502828 L249.980051,35.0502828 Z M249.980051,14.5505398 C249.980051,14.8491517 249.786735,15.0474036 249.410797,15.144473 C249.028278,15.0474036 248.838252,14.8491517 248.838252,14.5505398 C248.838252,14.2198458 249.028278,14.0043188 249.410797,13.9072494 C249.786735,14.0043188 249.980051,14.2198458 249.980051,14.5505398 L249.980051,14.5505398 Z M249.410797,25.0982005 L248.899949,25.445347 L248.523188,25.0982005 L249.028278,24.8505913 L249.410797,25.0982005 L249.410797,25.0982005 Z M249.217481,53.8175835 C249.217481,54.0808226 248.985501,54.2790746 248.523188,54.4139846 C248.184267,54.2790746 248.014807,54.0808226 248.014807,53.8175835 C248.014807,53.5535219 248.184267,53.3544473 248.523188,53.2252956 C248.985501,53.3544473 249.217481,53.5535219 249.217481,53.8175835 L249.217481,53.8175835 Z M274.951568,64.4639589 L274.253985,64.3644216 C273.619743,64.3644216 272.861285,65.0184062 271.974499,66.3222622 C271.086889,67.6236504 270.300463,68.277635 269.62838,68.277635 C269.62838,67.6828792 269.268895,67.2205656 268.550746,66.8923393 C268.29491,67.7470437 267.492853,68.1780977 266.143753,68.1780977 L262.972545,68.1780977 C260.394447,68.1780977 259.105398,67.7470437 259.105398,66.8923393 C259.105398,66.5591774 259.318458,66.1824165 259.740463,65.7521851 C258.048329,60.3039589 255.66108,52.1657584 252.578715,41.3384062 L249.410797,41.3384062 C250.082879,41.1072494 250.887404,40.663856 251.817789,40.0024679 L248.523188,40.0024679 L248.523188,33.8624165 L248.899949,33.2166581 L248.523188,33.2166581 C248.184267,33.1204113 248.014807,32.9205141 248.014807,32.6251928 C248.014807,32.3298715 248.184267,32.1307969 248.523188,32.0312596 C249.238046,32.1628792 249.428895,32.474653 249.093265,32.9690488 C250.825707,31.9794344 254.202571,31.2538817 259.23126,30.7915681 C258.513933,30.6936761 258.156093,30.1828278 258.156093,29.2582005 C258.156093,28.4322879 258.430848,27.2115167 258.979537,25.5925964 C259.528226,23.976144 259.802159,22.7553728 259.802159,21.9269923 C259.802159,15.4595373 256.041954,11.944473 248.523188,11.3817995 L248.523188,3.8548072 C252.238972,3.6911054 254.944576,3.27897172 256.634242,2.61758355 L256.634242,3.60719794 C262.972545,3.60719794 266.143753,4.92832905 266.143753,7.56894602 C266.143753,7.76473008 266.003907,8.09871465 265.729152,8.56102828 C265.455219,9.02416452 265.317841,9.31948586 265.317841,9.44863753 C265.317841,9.94632391 265.465913,10.1939332 265.762057,10.1939332 C266.181594,10.1939332 266.584679,10.1100257 266.966375,9.94632391 L266.966375,8.85717224 L268.10653,8.85717224 C268.10653,9.94632391 267.515064,10.7557841 266.331311,11.2830848 C266.794447,11.0840103 267.21892,10.9869409 267.600617,10.9869409 C270.599897,10.9869409 272.26982,15.2629306 272.60545,23.8091517 L274.18982,25.0982005 C272.543753,25.4288946 271.253059,26.8808226 270.322674,29.4572751 C269.773985,31.0729049 268.951362,32.9369666 267.853985,35.0502828 C266.838046,35.7766581 265.826221,36.5030334 264.80946,37.2294087 C263.459537,38.2190231 262.781697,39.0630334 262.781697,39.7548586 C262.781697,40.5478663 263.900463,41.6888432 266.143753,43.1720308 L265.632905,43.4196401 L265.317841,43.8663239 C266.458817,45.4153213 267.262519,46.8837018 267.724833,48.2722879 C267.810386,48.7016967 267.915681,49.3285347 268.041542,50.1544473 C268.29491,51.6384576 268.569666,52.9941388 268.864987,54.21491 C269.373368,56.5922879 270.344062,58.3239075 271.782828,59.4138817 L271.909512,59.6606684 C271.656967,60.0563496 271.318046,60.6025707 270.895219,61.2935733 L270.895219,61.5921851 C270.895219,62.5842674 272.248432,63.5417995 274.951568,64.4639589 L274.951568,64.4639589 Z M247.065501,54.4139846 L246.113728,54.4139846 L247.065501,53.8175835 L247.065501,54.4139846 L247.065501,54.4139846 Z M246.810488,53.2252956 C246.810488,53.4885347 246.576041,53.6884319 246.113728,53.8175835 C245.774807,53.6884319 245.605347,53.4885347 245.605347,53.2252956 C245.605347,52.9266838 245.774807,52.6963496 246.113728,52.5310026 C246.576041,52.6963496 246.810488,52.9266838 246.810488,53.2252956 L246.810488,53.2252956 Z M245.922879,37.0303342 C245.922879,36.702108 245.731208,36.4544987 245.351979,36.2875064 C244.972751,36.4544987 244.781902,36.702108 244.781902,37.0303342 C244.781902,37.261491 244.972751,37.4449357 245.351979,37.5765553 C245.731208,37.4449357 245.922879,37.261491 245.922879,37.0303342 L245.922879,37.0303342 Z M245.922879,27.6228278 C245.922879,27.3595887 245.731208,27.1440617 245.351979,26.977892 C244.972751,27.1440617 244.781902,27.3595887 244.781902,27.6228278 C244.781902,27.8860668 244.972751,28.1015938 245.351979,28.2685861 C245.731208,28.1015938 245.922879,27.8860668 245.922879,27.6228278 L245.922879,27.6228278 Z M244.338509,23.9086889 C244.338509,23.6454499 244.147661,23.4142931 243.768432,23.218509 C243.386735,23.4142931 243.198355,23.6454499 243.198355,23.9086889 C243.198355,24.1760411 243.386735,24.3718252 243.768432,24.5034447 C244.147661,24.3718252 244.338509,24.1760411 244.338509,23.9086889 L244.338509,23.9086889 Z M243.260051,36.5869409 L243.007506,36.2875064 L242.564113,36.5869409 L243.007506,37.0303342 L243.260051,36.5869409 L243.260051,36.5869409 Z M243.007506,53.8175835 L242.564113,53.5699743 C242.310746,53.5699743 242.181594,53.6530591 242.181594,53.8175835 L242.564113,54.0643702 L243.007506,53.8175835 L243.007506,53.8175835 Z M242.751671,38.2190231 C242.751671,37.9557841 242.564113,37.7402571 242.181594,37.5765553 C241.762057,37.7402571 241.54982,37.9557841 241.54982,38.2190231 C241.54982,38.517635 241.762057,38.7487918 242.181594,38.9133162 C242.564113,38.7487918 242.751671,38.517635 242.751671,38.2190231 L242.751671,38.2190231 Z M242.751671,26.3856041 C242.751671,26.0557326 242.564113,25.8245758 242.181594,25.6921337 C241.762057,25.8245758 241.54982,26.0557326 241.54982,26.3856041 C241.54982,26.6817481 241.762057,26.8808226 242.181594,26.977892 C242.564113,26.8808226 242.751671,26.6817481 242.751671,26.3856041 L242.751671,26.3856041 Z M242.181594,35.7445758 L241.864062,35.4969666 L241.358972,35.7445758 L241.676504,35.9921851 L242.181594,35.7445758 L242.181594,35.7445758 Z M241.993213,31.3369666 C241.993213,31.0729049 241.780977,30.8590231 241.358972,30.6936761 C240.976452,30.8590231 240.788072,31.0729049 240.788072,31.3369666 C240.788072,31.6034961 240.976452,31.8313625 241.358972,32.0312596 C241.780977,31.8313625 241.993213,31.6034961 241.993213,31.3369666 L241.993213,31.3369666 Z M241.105604,52.6288946 C241.105604,52.3648329 240.936144,52.1336761 240.600514,51.9346015 C240.175219,52.1336761 239.96545,52.3648329 239.96545,52.6288946 C239.96545,52.8946015 240.175219,53.0912082 240.600514,53.2252956 C240.936144,53.0912082 241.105604,52.8946015 241.105604,52.6288946 L241.105604,52.6288946 Z M240.600514,53.8175835 L240.282982,53.7205141 C239.900463,53.7205141 239.712905,53.8842159 239.712905,54.21491 L239.774602,54.4139846 L240.471362,54.3111568 L240.600514,53.8175835 L240.600514,53.8175835 Z M240.407198,49.5095116 C240.407198,49.212545 240.197429,48.9813882 239.774602,48.8152185 C239.395373,48.9813882 239.204524,49.212545 239.204524,49.5095116 C239.204524,49.7398458 239.395373,49.9224679 239.774602,50.05491 C240.197429,49.9224679 240.407198,49.7398458 240.407198,49.5095116 L240.407198,49.5095116 Z M239.774602,38.1704884 L239.395373,37.9237018 C239.100051,37.9237018 238.948689,38.0034961 238.948689,38.1704884 L239.266221,38.4666324 L239.774602,38.1704884 L239.774602,38.1704884 Z M239.266221,41.637018 L238.948689,41.3384062 L238.631157,41.637018 L238.948689,41.8846272 L239.266221,41.637018 L239.266221,41.637018 Z M239.266221,36.0398972 L238.948689,35.7445758 L238.631157,36.0398972 L238.948689,36.2875064 L239.266221,36.0398972 L239.266221,36.0398972 Z M239.266221,23.562365 L238.948689,23.218509 L238.631157,23.562365 L238.948689,23.8091517 L239.266221,23.562365 L239.266221,23.562365 Z M239.583753,25.7406684 C239.583753,25.4774293 239.373985,25.2619023 238.948689,25.0982005 C238.610591,25.2619023 238.443599,25.4774293 238.443599,25.7406684 C238.443599,26.0063753 238.610591,26.2194344 238.948689,26.3856041 C239.373985,26.2194344 239.583753,26.0063753 239.583753,25.7406684 L239.583753,25.7406684 Z M240.600514,30.6936761 L239.774602,30.6936761 L238.825296,30.7915681 C238.487198,30.9577378 238.274139,31.1403599 238.190231,31.3369666 L238.948689,31.3369666 C239.161748,31.3369666 239.712905,31.1247301 240.600514,30.6936761 L240.600514,30.6936761 Z M237.112596,35.0502828 C237.112596,34.7870437 236.920925,34.5723393 236.541697,34.405347 C236.202776,34.5723393 236.033316,34.7870437 236.033316,35.0502828 C236.033316,35.3472494 236.202776,35.5784062 236.541697,35.7445758 C236.920925,35.5784062 237.112596,35.3472494 237.112596,35.0502828 L237.112596,35.0502828 Z M236.350848,28.911054 C236.350848,28.5803599 236.184679,28.3648329 235.845758,28.2685861 C235.420463,28.3648329 235.210694,28.5803599 235.210694,28.911054 C235.210694,29.1751157 235.420463,29.3552699 235.845758,29.4572751 C236.184679,29.3552699 236.350848,29.1751157 236.350848,28.911054 L236.350848,28.911054 Z M236.350848,23.9086889 C236.350848,23.6454499 236.184679,23.4142931 235.845758,23.218509 C235.420463,23.4142931 235.210694,23.6454499 235.210694,23.9086889 C235.210694,24.1760411 235.420463,24.3718252 235.845758,24.5034447 C236.184679,24.3718252 236.350848,24.1760411 236.350848,23.9086889 L236.350848,23.9086889 Z M235.654087,45.6958355 C235.654087,45.9615424 235.441851,46.1770694 235.023136,46.3407712 C234.597841,46.1770694 234.388072,45.9615424 234.388072,45.6958355 C234.388072,45.4309512 234.597841,45.2195373 235.023136,45.0550129 C235.441851,45.2195373 235.654087,45.4309512 235.654087,45.6958355 L235.654087,45.6958355 Z M248.014807,50.0039075 C247.084422,50.0384576 245.669512,50.499126 243.768432,51.391671 L245.351979,51.9346015 C245.310026,52.4314653 245.290283,52.9776864 245.290283,53.5699743 C245.290283,54.9898201 245.565039,55.6997429 246.113728,55.6997429 L246.113728,63.1271979 C246.533265,63.2941902 247.102519,63.5417995 247.823959,63.8700257 L247.888123,64.1168123 L247.823959,64.4639589 C246.597429,65.3894087 245.074756,66.4135733 243.260051,67.533162 C243.090591,67.6030848 240.618612,67.6351671 235.845758,67.6351671 C235.549614,67.8309512 235.274859,68.011928 235.023136,68.1780977 L234.135527,68.1780977 L235.023136,46.8837018 L237.429306,45.0550129 L236.415835,45.0550129 L235.845758,44.5087918 L236.541697,43.8663239 L234.576452,43.8663239 C234.619229,42.7426221 234.767301,41.0907969 235.023136,38.9133162 C235.063445,38.6813368 235.337378,38.234653 235.845758,37.5765553 L235.14653,37.5765553 C235.14653,34.7039589 234.979537,30.3720308 234.640617,24.579126 C234.302519,18.7862211 234.135527,14.4510026 234.135527,11.5784062 L234.135527,3.31187661 C235.189306,2.78457584 236.286684,2.51886889 237.429306,2.51886889 L238.190231,2.61758355 C236.669203,2.74920308 235.909923,3.45994859 235.909923,4.74735219 C235.909923,4.81233933 235.947763,5.3396401 236.033316,6.3292545 L236.541697,6.3292545 L238.190231,3.8548072 L238.631157,3.8548072 C238.631157,5.30755784 239.287609,6.13264781 240.600514,6.3292545 C241.105604,6.23218509 241.632905,6.0166581 242.181594,5.6892545 L245.351979,5.6892545 C245.605347,5.25902314 246.177892,4.64534704 247.065501,3.8548072 L247.065501,12.02509 C246.641028,12.288329 246.323496,12.7029306 246.113728,13.2623136 L246.554653,13.6596401 L247.065501,13.9072494 C246.258509,19.9156812 245.944267,25.3129049 246.113728,30.0972751 C245.605347,30.2321851 245.074756,30.430437 244.526067,30.6936761 C244.951362,30.8590231 245.161131,31.0729049 245.161131,31.3369666 C245.161131,31.6034961 244.951362,31.8313625 244.526067,32.0312596 L244.020977,31.6355784 L243.956812,32.178509 C246.027352,32.178509 247.065501,33.286581 247.065501,35.4969666 C247.065501,35.7931105 246.904267,36.2315681 246.586735,36.8098715 C246.270026,37.3848843 246.113728,37.8422622 246.113728,38.1704884 C246.113728,38.6657069 246.43126,39.5261697 247.065501,40.7469409 L246.618817,40.8431877 L246.113728,40.7469409 C245.774807,40.3167095 245.52144,39.8864781 245.351979,39.4562468 L238.948689,39.4562468 C240.092134,41.1072494 242.436607,41.9356298 245.984576,41.9356298 C246.366272,41.9356298 246.726581,41.9191774 247.065501,41.8846272 C246.554653,42.3798458 246.239589,42.8067866 246.113728,43.1720308 C246.366272,43.4689974 246.683805,43.7001542 247.065501,43.8663239 L247.065501,48.2229306 C247.61419,48.32 247.928432,48.9172237 248.014807,50.0039075 L248.014807,50.0039075 Z" id="Fill-8" fill="#1A1918" mask="url(#mask-2)"></path>
            </g>
            <path d="M319.828072,53.9162982 C319.828072,54.1828278 319.657789,54.362982 319.322159,54.4625193 C318.897686,54.362982 318.687918,54.1828278 318.687918,53.9162982 C318.687918,53.5864267 318.897686,53.3544473 319.322159,53.2252956 C319.657789,53.3544473 319.828072,53.5864267 319.828072,53.9162982 L319.828072,53.9162982 Z M319.322159,14.5505398 L318.370386,14.8491517 L317.670334,14.5505398 L317.862005,14.4024679 C317.987866,14.3703856 318.157326,14.3383033 318.370386,14.3029306 L319.128843,14.4024679 L319.322159,14.5505398 L319.322159,14.5505398 Z M318.179537,53.9162982 C318.179537,54.1828278 318.010077,54.362982 317.670334,54.4625193 C317.331414,54.362982 317.165244,54.1828278 317.165244,53.9162982 C317.165244,53.5864267 317.331414,53.3544473 317.670334,53.2252956 C318.010077,53.3544473 318.179537,53.5864267 318.179537,53.9162982 L318.179537,53.9162982 Z M314.567404,33.9619537 L315.264165,33.9619537 L315.264165,33.2166581 L314.567404,33.2166581 L314.567404,33.9619537 Z M315.072494,40.1011825 C315.072494,39.8379434 314.906324,39.6553213 314.567404,39.5582519 C314.059023,39.6553213 313.806478,39.8379434 313.806478,40.1011825 C313.806478,40.3973265 314.059023,40.6120308 314.567404,40.7469409 C314.906324,40.6120308 315.072494,40.3973265 315.072494,40.1011825 L315.072494,40.1011825 Z M307.910746,52.0366067 C307.910746,51.7059126 307.72072,51.4912082 307.341491,51.391671 C306.875887,51.4912082 306.64473,51.7059126 306.64473,52.0366067 C306.64473,52.2998458 306.875887,52.4989203 307.341491,52.6288946 C307.72072,52.4989203 307.910746,52.2998458 307.910746,52.0366067 L307.910746,52.0366067 Z M307.14982,66.2959383 C307.14982,66.5591774 306.918663,66.7574293 306.453882,66.8923393 C306.114961,66.7574293 305.945501,66.5591774 305.945501,66.2959383 C305.945501,66.0318766 306.114961,65.8492545 306.453882,65.7521851 C306.918663,65.8492545 307.14982,66.0318766 307.14982,66.2959383 L307.14982,66.2959383 Z M307.14982,53.9162982 C307.14982,53.5864267 306.918663,53.3544473 306.453882,53.2252956 C306.114961,53.3544473 305.945501,53.5864267 305.945501,53.9162982 C305.945501,54.1828278 306.114961,54.362982 306.453882,54.4625193 C306.918663,54.362982 307.14982,54.1828278 307.14982,53.9162982 L307.14982,53.9162982 Z M306.010488,62.9281234 L305.757121,62.5842674 L305.375424,62.9281234 L305.757121,63.1271979 L306.010488,62.9281234 L306.010488,62.9281234 Z M306.010488,51.6869923 L305.757121,51.391671 L305.375424,51.6869923 L305.757121,51.9346015 L306.010488,51.6869923 L306.010488,51.6869923 Z M304.678663,56.9871465 C304.678663,56.7214396 304.466427,56.5092031 304.046889,56.3446787 C303.707969,56.5092031 303.538509,56.7214396 303.538509,56.9871465 C303.538509,57.2520308 303.707969,57.4502828 304.046889,57.5819023 C304.466427,57.4502828 304.678663,57.2520308 304.678663,56.9871465 L304.678663,56.9871465 Z M303.347661,58.1741902 L302.58838,58.1741902 L302.58838,58.819126 L303.347661,58.1741902 L303.347661,58.1741902 Z M301.446581,61.9878663 C301.446581,61.6908997 301.277121,61.4605656 300.938201,61.2935733 C300.59928,61.4605656 300.432288,61.6908997 300.432288,61.9878663 C300.432288,62.2190231 300.59928,62.4172751 300.938201,62.5842674 C301.277121,62.4172751 301.446581,62.2190231 301.446581,61.9878663 L301.446581,61.9878663 Z M299.926375,66.2959383 C299.926375,66.5591774 299.710848,66.7574293 299.292134,66.8923393 C298.910437,66.7574293 298.722057,66.5591774 298.722057,66.2959383 C298.722057,66.0318766 298.910437,65.8492545 299.292134,65.7521851 C299.710848,65.8492545 299.926375,66.0318766 299.926375,66.2959383 L299.926375,66.2959383 Z M296.882674,67.088946 L296.629306,67.088946 C295.489974,67.088946 294.768535,66.8248843 294.472391,66.2959383 L296.882674,66.2959383 L296.882674,67.088946 L296.882674,67.088946 Z M295.107455,58.1741902 C295.107455,58.4398972 294.897686,58.6529563 294.472391,58.819126 C294.13347,58.6529563 293.967301,58.4398972 293.967301,58.1741902 C293.967301,57.9101285 294.13347,57.7135219 294.472391,57.5819023 C294.897686,57.7135219 295.107455,57.9101285 295.107455,58.1741902 L295.107455,58.1741902 Z M295.107455,3.45994859 C295.107455,3.09634961 294.897686,2.84874036 294.472391,2.71465296 C294.13347,2.84874036 293.967301,3.09634961 293.967301,3.45994859 C293.967301,3.72318766 294.13347,3.9033419 294.472391,4.00534704 C294.897686,3.9033419 295.107455,3.72318766 295.107455,3.45994859 L295.107455,3.45994859 Z M294.284833,50.7483805 C294.284833,51.0124422 294.115373,51.2271465 293.77892,51.391671 C293.354447,51.2271465 293.143856,51.0124422 293.143856,50.7483805 C293.143856,50.4497686 293.354447,50.2186118 293.77892,50.05491 C294.115373,50.2186118 294.284833,50.4497686 294.284833,50.7483805 L294.284833,50.7483805 Z M292.95383,66.2959383 L292.574602,66.5435476 L292.065398,66.2959383 L292.574602,66.0968638 L292.95383,66.2959383 L292.95383,66.2959383 Z M292.065398,18.2646787 L292.95383,18.2646787 L292.95383,17.7209254 L292.065398,17.7209254 L292.065398,18.2646787 Z M316.912699,49.5095116 L315.960103,50.05491 C315.621183,50.7804627 315.390026,51.4073008 315.264165,51.9346015 C315.812853,52.4314653 316.090077,53.1742931 316.090077,54.1639075 C316.090077,54.5266838 315.812853,55.4685861 315.264165,56.9871465 C315.433625,57.2520308 315.664781,57.4502828 315.960103,57.5819023 C315.455013,57.8130591 314.376555,59.2172751 312.728021,61.790437 C311.292545,64.0041131 309.624267,65.1064267 307.72072,65.1064267 C307.002571,65.1064267 305.988278,64.9024165 304.678663,64.4886375 C303.369049,64.0773265 302.374499,63.8700257 301.701594,63.8700257 C301.149614,63.8700257 300.305604,64.0773265 299.162982,64.4886375 C298.022828,64.9024165 297.156607,65.1064267 296.565141,65.1064267 C296.438458,65.1064267 296.038663,65.0743445 295.36,65.0101799 L298.531208,61.2935733 L300.115578,61.2935733 C300.02838,61.0640617 299.818612,60.8847301 299.480514,60.7506427 L298.531208,60.6527506 L297.705296,60.7506427 C295.9309,63.5903342 294.348997,65.0101799 292.95383,65.0101799 L292.95383,64.4639589 L291.36946,64.4639589 L291.36946,59.4138817 L295.36,59.4138817 L293.77892,61.2935733 C294.789923,61.2935733 296.64,60.4709512 299.324216,58.819126 C302.005141,57.1681234 303.578817,55.9308997 304.046889,55.1049871 L304.046889,18.1166067 C304.046889,15.9358355 302.564524,14.251928 299.608843,13.0657069 C297.242159,12.1081748 294.494602,11.6294087 291.36946,11.6294087 L291.36946,4.54910026 C291.36946,3.26087404 292.891311,2.61758355 295.9309,2.61758355 C305.187044,2.61758355 310.995578,4.96287918 313.362262,9.64771208 C313.910951,10.7072494 314.777172,11.944473 315.960103,13.3643188 C315.917326,15.1123907 315.895938,16.0378406 315.895938,16.1340874 C315.895938,17.4576864 316.234859,18.5945501 316.912699,19.5529049 L316.912699,20.146838 C316.912699,20.9727506 316.753933,22.1852956 316.436401,23.7852956 C316.119692,25.3852956 315.960103,26.5846787 315.960103,27.3752185 L315.960103,30.2478149 C316.425707,30.3473522 316.743239,30.5275064 316.912699,30.7915681 L316.912699,31.0383548 C316.912699,31.5681234 316.753933,32.3619537 316.436401,33.4157326 C316.119692,34.4752699 315.960103,35.2658098 315.960103,35.7931105 C315.960103,35.9280206 316.277635,36.4544987 316.912699,37.3799486 L316.912699,37.6760925 C316.912699,37.9714139 316.753933,38.460874 316.436401,39.1362468 C316.119692,39.8132648 315.960103,40.3487918 315.960103,40.7469409 L316.912699,41.3894087 L316.912699,41.637018 C316.912699,41.8328021 316.753933,42.1503342 316.436401,42.5756298 C316.119692,43.0058612 315.960103,43.3209254 315.960103,43.5167095 C315.960103,43.8506941 316.119692,44.3187661 316.436401,44.9316195 C316.753933,45.5387147 316.912699,46.0133676 316.912699,46.3407712 L315.960103,47.5779949 L315.960103,48.2229306 L316.912699,48.8653985 L316.912699,49.5095116 L316.912699,49.5095116 Z M291.87455,48.2722879 C291.87455,48.535527 291.70838,48.7337789 291.36946,48.8653985 C290.987763,48.7337789 290.79856,48.535527 290.79856,48.2722879 C290.79856,47.9753213 290.987763,47.7449871 291.36946,47.5779949 C291.70838,47.7449871 291.87455,47.9753213 291.87455,48.2722879 L291.87455,48.2722879 Z M291.87455,33.2676607 C291.87455,33.5670951 291.70838,33.7974293 291.36946,33.9619537 C290.987763,33.7974293 290.79856,33.5670951 290.79856,33.2676607 C290.79856,33.0044216 290.987763,32.7913625 291.36946,32.6251928 C291.70838,32.7913625 291.87455,33.0044216 291.87455,33.2676607 L291.87455,33.2676607 Z M288.706632,66.2959383 C288.706632,66.5591774 288.537172,66.7574293 288.20072,66.8923393 C287.73347,66.7574293 287.502314,66.5591774 287.502314,66.2959383 C287.502314,66.0318766 287.73347,65.8492545 288.20072,65.7521851 C288.537172,65.8492545 288.706632,66.0318766 288.706632,66.2959383 L288.706632,66.2959383 Z M287.313933,39.5582519 C287.184781,39.4916195 287.05892,39.4562468 286.931414,39.4562468 C286.636093,39.4562468 286.488021,39.6232391 286.488021,39.9531105 L286.614704,40.1011825 L287.248946,40.0024679 L287.313933,39.5582519 L287.313933,39.5582519 Z M285.727095,66.8923393 L284.96946,66.2959383 L285.727095,66.2959383 L285.727095,66.8923393 L285.727095,66.8923393 Z M285.727095,63.8700257 L284.96946,62.5842674 L284.96946,63.8700257 L285.727095,63.8700257 L285.727095,63.8700257 Z M284.713625,48.8653985 C284.713625,48.6021594 284.522776,48.3899229 284.143548,48.2229306 C283.764319,48.3899229 283.572648,48.6021594 283.572648,48.8653985 C283.572648,49.1327506 283.764319,49.3441645 284.143548,49.5095116 C284.522776,49.3441645 284.713625,49.1327506 284.713625,48.8653985 L284.713625,48.8653985 Z M284.143548,67.6351671 L283.255938,67.8819537 L282.559177,67.6351671 L282.685039,67.3875578 L283.255938,67.1884833 L284.016041,67.3875578 L284.143548,67.6351671 L284.143548,67.6351671 Z M281.48072,55.1049871 C281.48072,54.8417481 281.31126,54.6295116 280.972339,54.4625193 C280.593111,54.6295116 280.402262,54.8417481 280.402262,55.1049871 C280.402262,55.4044216 280.593111,55.6002057 280.972339,55.6997429 C281.31126,55.6002057 281.48072,55.4044216 281.48072,55.1049871 L281.48072,55.1049871 Z M281.48072,51.391671 C281.48072,51.1276093 281.31126,50.9129049 280.972339,50.7483805 C280.593111,50.9129049 280.402262,51.1276093 280.402262,51.391671 C280.402262,51.65491 280.593111,51.8383548 280.972339,51.9346015 C281.31126,51.772545 281.48072,51.5907455 281.48072,51.391671 L281.48072,51.391671 Z M283.381799,60.7506427 L282.938406,60.7506427 C281.967712,60.7506427 281.036504,61.1644216 280.149717,61.9878663 L280.593111,61.9878663 C281.563805,61.9878663 282.495013,61.5757326 283.381799,60.7506427 L283.381799,60.7506427 Z M280.972339,43.2699229 L280.149717,43.2699229 L280.149717,43.8663239 L280.972339,43.2699229 L280.972339,43.2699229 Z M280.784781,60.7506427 C280.784781,60.4544987 280.571722,60.2233419 280.149717,60.0563496 C279.770488,60.2233419 279.57964,60.4544987 279.57964,60.7506427 C279.57964,61.0138817 279.770488,61.1965039 280.149717,61.2935733 C280.571722,61.1965039 280.784781,61.0138817 280.784781,60.7506427 L280.784781,60.7506427 Z M289.782622,60.7506427 C289.782622,62.6969666 289.529254,63.902108 289.024165,64.3644216 C288.093779,64.4639589 286.743856,64.6794859 284.96946,65.0101799 C284.081028,65.637018 282.472802,66.5106427 280.149717,67.6351671 L280.972339,68.1780977 L279.326272,68.1780977 L279.326272,55.1049871 C279.326272,54.1828278 281.058715,53.7205141 284.522776,53.7205141 C288.028792,53.7205141 289.782622,56.0625193 289.782622,60.7506427 L289.782622,60.7506427 Z M289.720925,33.2166581 C289.720925,34.1774807 288.916401,35.034653 287.313933,35.7931105 C287.607609,35.9601028 288.180154,36.3714139 289.024165,37.0303342 L289.024165,37.3799486 C289.024165,38.5686375 288.609563,40.3816967 287.786941,42.8257069 C286.964319,45.2705398 286.549717,47.1313111 286.549717,48.4220051 C286.549717,48.7831362 286.571928,49.1483805 286.614704,49.5095116 C285.64072,49.7752185 284.417481,50.3214396 282.938406,51.1440617 C281.289871,52.0695116 280.08473,52.6634447 279.326272,52.9266838 L279.326272,53.2252956 L278.627866,53.2252956 L279.326272,52.9266838 L279.326272,48.8653985 C279.705501,48.8333162 279.982725,48.6696144 280.149717,48.3718252 L280.278046,47.5779949 L280.149717,46.8359897 C279.982725,46.571928 279.705501,46.4082262 279.326272,46.3407712 L279.326272,3.35958869 L285.347866,2.71465296 C286.488021,2.58550129 287.502314,2.94087404 288.389923,3.77994859 C289.277532,4.62395887 289.720925,5.50580977 289.720925,6.43125964 L289.720925,33.2166581 L289.720925,33.2166581 Z" id="Fill-10" fill="#1A1918"></path>
        </g>
    </g>
</svg>