<?xml version="1.0" encoding="UTF-8" standalone="no"?>
<svg width="321px" height="54px" viewBox="0 0 321 54" version="1.1" xmlns="http://www.w3.org/2000/svg" xmlns:xlink="http://www.w3.org/1999/xlink">
    <!-- Generator: Sketch 3.6.1 (26313) - http://www.bohemiancoding.com/sketch -->
    <title>product-logos</title>
    <desc>Created with Sketch.</desc>
    <defs>
        <path id="path-1" d="M156.827834,52.7768372 L313.48235,52.7768372 L313.48235,0.0952998889 L0.173318168,0.0952998889 L0.173318168,52.7768372 L156.827834,52.7768372 L156.827834,52.7768372 Z"></path>
    </defs>
    <g id="Page-1" stroke="none" stroke-width="1" fill="none" fill-rule="evenodd">
        <g id="EnduroGuard_Logo_Black">
            <g id="Group-3" transform="translate(130.886556, 0.000000)" fill="#D8242C">
                <path d="M26.818776,48.2012362 C14.8725127,48.2039505 5.18539965,38.5216627 5.18147909,26.5690662 C5.18147909,14.6231045 14.8658779,4.9359914 26.8148555,4.93840405 C38.7620235,4.9359914 48.4533587,14.6152633 48.454565,26.5654472 C48.4533587,38.51925 38.7686583,48.2000299 26.818776,48.2012362 L26.818776,48.2012362 Z M26.8121412,0.00753954817 C12.1425931,0.0105553674 0.257249384,11.904645 0.259662039,26.5690662 C0.260868367,41.2416301 12.1516406,53.1296881 26.8199823,53.1254659 C41.493451,53.1284817 53.3800011,41.2349953 53.3787947,26.5642409 C53.3763821,11.8971054 41.4856099,0.00512689276 26.8121412,0.00753954817 L26.8121412,0.00753954817 Z" id="Fill-1"></path>
            </g>
            <path d="M157.703824,37.8970865 C151.450222,37.8970865 146.377312,32.8280975 146.376106,26.5690662 C146.373693,20.3115428 151.446301,15.241649 157.699904,15.2401411 C163.962856,15.2389348 169.03667,20.3115428 169.035765,26.5666535 C169.03667,32.8229706 163.964062,37.8970865 157.703824,37.8970865 L157.703824,37.8970865 Z M157.699904,10.0022662 C148.552321,10.0058852 141.136723,17.4202768 141.138231,26.5702725 C141.139437,35.7208713 148.554733,43.142501 157.706539,43.1391836 C166.856836,43.1361678 174.270926,35.7181571 174.270926,26.5666535 C174.26972,17.4163563 166.850201,10.0031709 157.699904,10.0022662 L157.699904,10.0022662 Z" id="Fill-4" fill="#D8242C"></path>
            <g id="Group-8" transform="translate(0.000000, 1.809492)">
                <path d="M163.978538,24.757162 C163.979443,28.2241478 161.169604,31.0354945 157.703824,31.0370024 C154.239553,31.0370024 151.429412,28.2265605 151.429412,24.7607809 C151.429412,21.295303 154.236839,18.4842579 157.701412,18.4812421 C161.169604,18.4812421 163.97703,21.2937951 163.978538,24.757162" id="Fill-5" fill="#D8242C"></path>
                <path d="M0,0.918015386 C1.91414049,0.703892217 3.82978889,0.48675323 5.81118215,0.26599526 C5.83289605,0.579338882 5.85611786,0.791652558 5.85611786,1.00698205 C5.86124475,4.24446404 5.85099096,7.4774223 5.86787955,10.7094758 C5.87180012,11.3150523 5.78645243,11.6790617 5.05602101,11.71495 C4.46461885,11.737267 4.28547918,12.2300519 4.54996653,12.7671693 C4.72820145,13.1299724 4.85185004,13.5172035 5.0144027,13.9315771 C5.19535186,13.8697528 5.48185469,13.7690245 5.86245108,13.6396458 C5.86395899,13.9737986 5.86395899,14.2322543 5.86395899,14.4955353 C5.86395899,26.3136263 5.86395899,38.1335268 5.86667322,49.9492051 C5.86667322,51.4544005 5.45079175,51.712253 4.02069025,51.1223588 C3.78063104,51.025551 3.49654086,51.0318842 3.22813295,51.0231383 C2.15178705,50.9959959 1.07785381,50.9739805 0.00663480239,50.9507586 C0.00241265542,34.2678496 0.00120632771,17.5945912 0,0.918015386" id="Fill-7" fill="#1A1918"></path>
            </g>
            <path d="M200.282669,53.3230021 C200.223257,53.2868123 200.16656,53.2304164 200.103228,53.2132263 C199.451509,53.0030237 198.613714,53.0392135 198.524446,52.0828972 C198.407131,50.8138405 198.81879,50.103615 199.901771,49.6247029 C199.887596,49.590021 199.883676,49.5360378 199.852915,49.5179429 C198.164357,48.4608983 198.077803,47.7364985 199.510619,46.3269045 C200.01788,45.8301991 200.539315,45.3395253 201.104781,44.9136916 C202.337346,43.9739623 202.962224,42.7115404 203.081047,41.206345 C203.212537,39.5015024 203.341614,37.788517 203.353376,36.073119 C203.36755,34.8236651 202.759561,33.8323653 201.648232,33.1676787 C201.015814,33.6915265 200.405111,33.7292243 199.699108,33.2825815 C199.460255,33.1251557 199.030501,33.2581533 198.679459,33.2581533 C198.620048,31.7595927 198.217436,31.2779664 196.49299,31.0198123 C198.532287,30.3343165 198.376068,28.688584 198.545255,26.9743923 C199.29529,27.323021 199.952135,27.6547611 200.638837,27.9219627 C200.824611,27.9955487 201.100861,27.9114073 201.318904,27.8408372 C201.597868,27.7554895 201.854815,27.5181445 202.118096,27.5087955 C204.178203,27.4792404 206.239515,27.5063828 208.298415,27.4934148 C209.088258,27.4843673 209.396776,26.9279487 208.983609,26.2581352 C209.426331,26.2557226 209.854879,26.2542146 210.209841,26.2569289 C210.728864,26.8570769 209.739976,27.9361371 210.999986,28.2265605 C210.891416,28.6382198 210.746958,29.0541013 210.678499,29.4835539 C210.613961,29.8994354 210.189333,30.383776 210.841052,30.7348173 C210.909511,30.7682929 210.866988,31.061129 210.838639,31.2224753 C210.619088,32.5069127 210.508106,33.8142704 210.15435,35.0573911 C209.589185,37.0258163 209.968576,38.9387505 210.203508,40.882446 C210.394409,42.5182264 210.444773,44.1521973 210.056336,45.7707875 C210.020146,45.9297211 210.151937,46.1257494 210.202301,46.302778 C210.258999,46.5117743 210.318411,46.7180563 210.401044,47.0163208 C209.528567,47.0163208 208.780946,47.0163208 207.905755,47.0190351 C208.431111,47.9756529 208.902182,48.7642897 209.947766,49.1089978 C210.465583,49.2854232 210.887496,49.7709701 211.338059,50.1024087 C210.776513,50.7800633 210.268046,51.3895604 209.675438,52.100389 C208.924197,52.1018969 208.001357,52.1034048 207.001009,52.100389 C206.999803,51.5249706 206.998295,50.9417112 207.001009,50.3192461 C206.413829,50.3092939 206.058867,50.1413128 205.743714,49.6391788 C205.283199,48.8997 203.581673,49.1578541 203.212537,49.9823791 C203.115729,50.1799152 203.265616,50.4947668 203.312059,50.8539508 C202.62023,51.9999622 202.166953,52.1947841 200.579425,51.9357252 C200.578219,52.400463 200.579425,52.8636928 200.579425,53.3230021 L200.282669,53.3230021" id="Fill-9" fill="#1A1918"></path>
            <g id="Group-13" transform="translate(6.333220, 0.603164)">
                <mask id="mask-2" fill="white">
                    <use xlink:href="#path-1"></use>
                </mask>
                <g id="Clip-11"></g>
                <path d="M17.360262,52.7403458 C17.3563415,47.1746513 17.3575478,41.6140838 17.360262,36.0456751 C17.360262,34.9871225 17.437467,34.8710135 18.4818452,34.9174571 C20.2346394,34.9985826 21.9838146,35.1406277 23.5996905,35.2491972 C23.9534461,36.9054851 24.2734246,38.3328724 24.5665622,39.7602597 C24.7200674,40.5232619 24.8904612,41.2642487 24.2993606,41.9756805 C24.0243179,42.3098333 23.9416844,42.8379032 23.8759396,43.288165 C23.8334165,43.5939691 23.9805885,43.919376 24.0671425,44.357273 C24.0023024,44.6383473 23.8385434,45.0735301 23.8267817,45.5159507 C23.7547036,47.230444 23.7378151,48.9404135 23.6925778,50.6533989 C23.6886572,50.8946644 23.6138649,51.1332157 23.5469137,51.3708623 C23.2745852,52.2783223 22.9802413,52.4550493 22.0920825,52.1211981 C21.396333,51.8603297 20.7883438,51.7942833 20.1713072,52.306671 C20.03077,52.4137326 19.7080773,52.2653543 19.486113,52.3133058 C18.9194406,52.4345417 18.3630219,52.5946817 17.8041906,52.7403458 C17.654606,52.7394411 17.507434,52.7394411 17.360262,52.7403458" id="Fill-10" fill="#1A1918" mask="url(#mask-2)"></path>
                <path d="M246.359863,23.2697599 C246.407513,23.178079 246.452751,23.0797633 246.501607,22.9844634 C246.309801,22.8954967 246.120106,22.7404836 245.921062,22.7302298 C245.815207,22.7302298 245.598068,22.9663685 245.604702,23.0942392 C245.611036,23.2697599 245.779017,23.4338205 245.883666,23.6078332 C246.037171,23.4944384 246.201231,23.3846626 246.359863,23.2697599 L246.359863,23.2697599 Z M124.070805,42.6856044 C123.818079,42.4971157 123.668193,42.3086269 123.502926,42.2968653 C123.406118,42.2902305 123.1739,42.5794475 123.202249,42.6877154 C123.236931,42.8454428 123.42934,43.024884 123.597321,43.0870099 C123.668193,43.1216918 123.843714,42.8855532 124.070805,42.6856044 L124.070805,42.6856044 Z M286.664177,43.2857524 C286.80773,42.982361 286.975409,42.7993007 286.937712,42.6738427 C286.888855,42.51129 286.687399,42.3909588 286.554401,42.2531359 C286.443721,42.395181 286.24347,42.5435593 286.252518,42.6801759 C286.265486,42.8469507 286.455181,42.9965353 286.664177,43.2857524 L286.664177,43.2857524 Z M231.123643,43.7906005 C231.009947,43.7875847 230.898964,43.7851721 230.788284,43.7809499 C230.790696,44.1054521 230.790696,44.4278431 230.78949,44.7505358 C230.898964,44.75325 231.009947,44.75325 231.123643,44.754758 C231.126357,44.434478 231.126357,44.1144995 231.123643,43.7906005 L231.123643,43.7906005 Z M0.928570753,20.2777656 C0.999442506,20.161355 1.07574273,20.0440396 1.14420183,19.9300416 C0.962046347,19.8811854 0.754256399,19.7599494 0.584164192,19.7988535 C0.420103624,19.8323291 0.185171303,20.0286589 0.176123845,20.1694977 C0.167076388,20.3097333 0.3787869,20.5151106 0.537418994,20.5859823 C0.609798656,20.6170453 0.793160468,20.3884462 0.928570753,20.2777656 L0.928570753,20.2777656 Z M95.1834783,44.7354567 C95.2826987,44.7493295 95.375586,44.7583769 95.4711874,44.7701386 C95.9139097,44.4278431 95.8234351,44.1090711 95.2311282,43.7890926 C95.2169539,44.1066584 95.1976526,44.4227163 95.1834783,44.7354567 L95.1834783,44.7354567 Z M54.8209595,38.3820303 C54.669867,38.3820303 54.5187744,38.3729828 54.3676819,38.3639353 C54.358936,38.644105 54.3345079,38.9269888 54.3574281,39.1963015 C54.3562218,39.2288723 54.6312645,39.2391261 54.7796428,39.2596337 C54.7898966,38.9667976 54.8040709,38.67366 54.8209595,38.3820303 L54.8209595,38.3820303 Z M299.431648,38.3808239 C299.289904,38.3548879 299.139113,38.3289518 298.994354,38.3072379 C298.96118,38.583487 298.903879,38.8648629 298.900864,39.1438262 C298.900864,39.1809208 299.178319,39.2174122 299.323078,39.26084 C299.359268,38.9652897 299.398474,38.6748663 299.431648,38.3808239 L299.431648,38.3808239 Z M108.336371,41.8719363 C108.542954,41.5676402 108.755871,41.3984527 108.73265,41.2512807 C108.714555,41.0938549 108.48867,40.9635716 108.348133,40.8230344 C108.226595,40.9521114 108.020011,41.0808869 108.012472,41.2153925 C108.007345,41.383072 108.17231,41.5573864 108.336371,41.8719363 L108.336371,41.8719363 Z M271.38664,41.8529367 C271.595636,41.5510531 271.803727,41.3791514 271.788045,41.2331858 C271.766331,41.0733474 271.537732,40.946683 271.3981,40.8046379 C271.278372,40.9352229 271.069074,41.062792 271.064249,41.1997102 C271.057614,41.3649771 271.224087,41.5365772 271.38664,41.8529367 L271.38664,41.8529367 Z M298.180083,25.1229808 C297.984055,24.9486665 297.85739,24.8352717 297.724694,24.7176547 C297.595014,24.863922 297.368827,25.0174272 297.368827,25.1642976 C297.371843,25.316898 297.59803,25.4664827 297.724694,25.6175752 C297.860406,25.4740222 297.990086,25.329866 298.180083,25.1229808 L298.180083,25.1229808 Z M53.6025685,25.1528375 C53.4062387,24.9761104 53.2810822,24.8609061 53.1520051,24.7447971 C53.0202138,24.8922707 52.7904084,25.0430616 52.7919163,25.1902336 C52.794329,25.3428341 53.0178012,25.4963393 53.1468782,25.6462255 C53.278368,25.5053867 53.4089529,25.364548 53.6025685,25.1528375 L53.6025685,25.1528375 Z M34.6191926,22.5055513 C34.4177358,22.8424183 34.2331677,23.0218596 34.2461357,23.1847138 C34.2615164,23.3394253 34.4771475,23.4799625 34.6035103,23.6322614 C34.7172067,23.4968511 34.9069017,23.3602345 34.9108223,23.2166815 C34.9222824,23.043875 34.7766183,22.8641322 34.6191926,22.5055513 L34.6191926,22.5055513 Z M91.033711,46.058195 C90.8464286,46.3317299 90.6642731,46.4840287 90.6748285,46.61582 C90.6929234,46.7913407 90.8554761,46.9487665 90.9546965,47.1179539 C91.0955353,46.9861626 91.3289597,46.8664346 91.3473562,46.720469 C91.3690701,46.5630432 91.1950573,46.3718402 91.033711,46.058195 L91.033711,46.058195 Z M226.586644,47.291062 C226.735023,46.9731946 226.91175,46.7862138 226.87948,46.6378355 C226.846005,46.4828224 226.62012,46.3694276 226.478377,46.2337157 C226.380061,46.4080301 226.216302,46.569678 226.20454,46.7539446 C226.199112,46.8845295 226.3876,47.022654 226.586644,47.291062 L226.586644,47.291062 Z M283.456552,3.51704843 C283.360045,3.50015984 283.260523,3.48447758 283.162208,3.47030323 C282.680883,3.79209115 282.675756,4.11719647 283.33803,4.63350473 C283.388394,4.15308472 283.426997,3.83702686 283.456552,3.51704843 L283.456552,3.51704843 Z M119.922244,4.49658653 C120.057956,4.4953802 120.180398,4.4953802 120.313396,4.49658653 C120.32757,4.21129003 120.346871,3.91996189 120.368887,3.63195115 C120.205128,3.64461759 120.042273,3.65517295 119.878514,3.65999827 C119.893895,3.93383465 119.910482,4.21792483 119.922244,4.49658653 L119.922244,4.49658653 Z M250.321142,0.689114703 C250.101892,0.430658992 249.955926,0.265392096 249.815389,0.0952998889 C249.682392,0.244884525 249.434491,0.397183398 249.438713,0.53530792 C249.443539,0.725002952 249.651329,0.903237871 249.771358,1.07725064 C249.92999,0.963855838 250.082289,0.855587927 250.321142,0.689114703 L250.321142,0.689114703 Z M20.5986488,3.05743758 C20.735567,3.0704056 20.8800247,3.07915147 21.0157366,3.0921195 C21.0440853,2.81074356 21.0790688,2.52816129 21.0712277,2.25040434 C21.072434,2.22356355 20.7639157,2.21330976 20.6001567,2.19521485 C20.5974424,2.48322559 20.6001567,2.76942684 20.5986488,3.05743758 L20.5986488,3.05743758 Z M206.650571,36.8901045 C206.513955,36.8834697 206.379449,36.8665811 206.244039,36.8599463 C206.214182,37.1404175 206.17558,37.4178728 206.183421,37.6953282 C206.185833,37.7300101 206.486511,37.7472003 206.652984,37.7662 C206.652984,37.4757766 206.651777,37.1838453 206.650571,36.8901045 L206.650571,36.8901045 Z M1.02025166,35.9953109 C0.815175949,35.7709339 0.682178319,35.625873 0.554307582,35.4817169 C0.416183059,35.6225556 0.183663394,35.7591722 0.173409608,35.9063442 C0.168282715,36.0652779 0.379993228,36.2302432 0.494895942,36.387669 C0.64327425,36.2769884 0.791652558,36.163292 1.02025166,35.9953109 L1.02025166,35.9953109 Z M27.9509146,35.4313527 C28.1134672,35.4340669 28.2799405,35.4364796 28.4452073,35.4416065 C28.4467153,35.1535957 28.4467153,34.8698071 28.4467153,34.5869233 C28.2799405,34.585717 27.9753427,34.5715426 27.9717237,34.5884312 C27.9418671,34.8673945 27.9509146,35.1499767 27.9509146,35.4313527 L27.9509146,35.4313527 Z M0.747923179,31.4839468 C0.590497413,31.4827405 0.43669063,31.4854548 0.276852209,31.4827405 C0.274137972,31.7656244 0.266296841,32.0364449 0.29735978,32.3075671 C0.301280345,32.3310905 0.587783176,32.3193288 0.747923179,32.3193288 C0.749129507,32.0406671 0.746716851,31.7668307 0.747923179,31.4839468 L0.747923179,31.4839468 Z M216.944467,31.0222249 C217.082592,31.0412246 217.224637,31.0593195 217.367888,31.0840492 C217.414332,30.8090065 217.47887,30.540297 217.480077,30.2643495 C217.480077,30.2242391 217.182114,30.1793034 217.024688,30.1416057 C216.997545,30.433537 216.972816,30.7275794 216.944467,31.0222249 L216.944467,31.0222249 Z M81.4265171,31.0451451 C81.5800223,31.0569068 81.7359402,31.0644464 81.8885406,31.0774144 C81.906334,30.7987527 81.945238,30.5212973 81.9259368,30.2423341 C81.915683,30.1970968 81.6533067,30.1750813 81.5115632,30.1443199 C81.4820082,30.4437908 81.4560721,30.7459759 81.4265171,31.0451451 L81.4265171,31.0451451 Z M252.475643,8.94823735 C252.330884,8.94190413 252.187633,8.93195193 252.048302,8.92380922 C252.04981,9.2094073 252.043175,9.49711646 252.066095,9.78482562 C252.070317,9.81076167 252.304043,9.81468223 252.432819,9.82614234 C252.443073,9.53330629 252.460263,9.24167657 252.475643,8.94823735 L252.475643,8.94823735 Z M206.495558,11.1042465 C206.632476,10.748983 206.775728,10.5529548 206.747379,10.3891958 C206.725363,10.2341827 206.520288,10.1051056 206.396338,9.96818743 C206.281435,10.1334543 206.077565,10.296007 206.074851,10.4627818 C206.072439,10.6277471 206.272387,10.7866808 206.495558,11.1042465 L206.495558,11.1042465 Z M24.5445467,16.0903005 C24.5433404,16.557451 24.5418325,16.8530012 24.5418325,17.1488531 C24.6838776,17.1398057 24.8904612,17.1977094 24.9589203,17.1217107 C25.3036284,16.7652409 25.1100128,16.4917061 24.5445467,16.0903005 L24.5445467,16.0903005 Z M82.2962794,19.003582 C82.2344551,18.9067742 82.1801703,18.80876 82.1207587,18.7143649 C81.9660472,18.593129 81.8110341,18.4679725 81.6533067,18.3416096 C81.5516736,18.5080829 81.3683118,18.6721434 81.374645,18.8292676 C81.3785656,18.9803602 81.5785144,19.2333874 81.7036709,19.2421333 C81.8936675,19.2514823 82.0975369,19.0913423 82.2962794,19.003582 L82.2962794,19.003582 Z M217.841673,18.999963 C217.782262,18.8965204 217.712596,18.7945857 217.657105,18.6914447 C217.496965,18.5714151 217.339539,18.4498775 217.18332,18.3298479 C217.081385,18.4911943 216.900436,18.6591754 216.905865,18.8190138 C216.910991,18.9673921 217.11094,19.2164988 217.237605,19.2204194 C217.436347,19.2361016 217.644137,19.0822948 217.841673,18.999963 L217.841673,18.999963 Z M299.666882,44.2239738 C299.265778,44.4721757 299.187366,44.7752655 299.49498,45.1094183 C299.555296,45.1778774 299.841799,45.150735 299.905131,45.0756411 C300.218777,44.7016795 300.040843,44.4332716 299.666882,44.2239738 L299.666882,44.2239738 Z M55.0724788,44.2435766 C54.695803,44.5131908 54.6014079,44.8217091 54.9280211,45.147116 C54.9898454,45.2152736 55.2766498,45.1742584 55.3372678,45.0913234 C55.6355323,44.710727 55.4521705,44.4525729 55.0724788,44.2435766 L55.0724788,44.2435766 Z M70.9634337,41.5392915 C70.5526792,41.1650283 70.4097293,41.0434908 70.2664779,40.9159216 C70.1437341,41.0691252 69.9268967,41.2241383 69.9253887,41.3806594 C69.9293093,41.5290377 70.1295597,41.7871918 70.2767317,41.810112 C70.4522524,41.8399686 70.6573281,41.6747017 70.9634337,41.5392915 L70.9634337,41.5392915 Z M1.10017087,9.29716764 C0.978934935,9.327929 0.867952786,9.35507137 0.747923179,9.38613431 C0.794366796,9.69585895 0.844730977,10.0067899 0.889968266,10.3168161 C1.05644149,10.2522776 1.36103924,10.161803 1.35983291,10.1334543 C1.30554816,9.84815782 1.1930581,9.57462302 1.10017087,9.29716764 L1.10017087,9.29716764 Z M108.919932,11.072882 C109.082485,10.7206343 109.250164,10.5258124 109.221815,10.3683866 C109.197387,10.2055324 108.985677,10.0728364 108.846044,9.92837862 C108.742903,10.0921376 108.562256,10.2546903 108.554415,10.4250841 C108.548081,10.5825098 108.726316,10.7532052 108.919932,11.072882 L108.919932,11.072882 Z M272.6373,10.2160878 C272.326369,10.0830901 272.121293,9.91902958 271.939138,9.93983873 C271.804934,9.95913997 271.604985,10.2169925 271.608604,10.3656724 C271.608604,10.5246061 271.811267,10.6832382 271.928884,10.8421719 C272.073342,10.7155074 272.219307,10.5876367 272.6373,10.2160878 L272.6373,10.2160878 Z M0.690019449,15.6373245 C-0.0199044072,16.3161854 -0.00965062166,16.4090726 0.808541146,16.9084923 C0.764811767,16.4374213 0.736161484,16.1216651 0.690019449,15.6373245 L0.690019449,15.6373245 Z M227.7601,43.7969338 C227.612626,43.7851721 227.463042,43.7761246 227.31587,43.7634582 C227.297775,44.0421199 227.263997,44.3301306 227.2836,44.6009512 C227.281188,44.6347284 227.557437,44.6498074 227.705815,44.6721245 C227.722402,44.3813995 227.738084,44.092484 227.7601,43.7969338 L227.7601,43.7969338 Z M92.1706748,43.7800452 C92.0415978,43.7800452 91.9164413,43.7788388 91.7912848,43.7682835 C91.7668566,44.0508657 91.7487617,44.3364638 91.7189051,44.6124113 C91.8892989,44.6217603 92.0545658,44.6305062 92.2147058,44.6410616 C92.1978172,44.3542572 92.1848492,44.0638338 92.1706748,43.7800452 L92.1706748,43.7800452 Z M81.6237517,24.9139846 C81.4907541,25.3141838 81.3668039,25.5207674 81.3695181,25.7222241 C81.3785656,25.8576344 81.5682606,25.9800767 81.6780364,26.1121696 C81.8059072,25.9375536 82.0149034,25.7674614 82.0408395,25.5813854 C82.0574265,25.4305944 81.8445097,25.2562801 81.6237517,24.9139846 L81.6237517,24.9139846 Z M217.237605,24.8895564 C217.058163,25.2405978 216.901944,25.4097853 216.904357,25.5774648 C216.904357,25.7481602 217.06329,25.9236809 217.157384,26.0949794 C217.302143,25.9634897 217.564218,25.8422537 217.575678,25.6950818 C217.594979,25.5026725 217.421871,25.2936762 217.237605,24.8895564 L217.237605,24.8895564 Z M270.120599,40.2135373 C269.975839,40.2328385 269.828667,40.2500287 269.683908,40.2717426 C269.706225,40.5543249 269.729447,40.8293676 269.756589,41.1146641 C269.916428,41.0977755 270.077774,41.0787759 270.23912,41.0615857 C270.204137,40.7802097 270.164027,40.4925006 270.120599,40.2135373 L270.120599,40.2135373 Z M204.475562,38.302111 C204.134775,38.5304086 203.902557,38.7991181 204.244551,39.174286 C204.323263,39.2584273 204.664051,39.2596337 204.723463,39.1797145 C205.000918,38.8232446 204.876968,38.5150279 204.475562,38.302111 L204.475562,38.302111 Z M297.996118,36.4458743 C297.845327,36.4277794 297.69152,36.4057639 297.543745,36.3864626 C297.501523,36.6627117 297.447239,36.9519288 297.450255,37.234511 C297.450255,37.2782404 297.724694,37.3198587 297.869453,37.3690166 C297.911675,37.0589903 297.953896,36.7516784 297.996118,36.4458743 L297.996118,36.4458743 Z M53.3893501,36.4639692 C53.2460987,36.4470806 53.114609,36.426573 52.9725639,36.4057639 C52.9273266,36.6910604 52.8730418,36.9736427 52.867915,37.2553202 C52.8667086,37.2860815 53.1752269,37.3222714 53.3417002,37.3572549 C53.3570808,37.057784 53.3727631,36.7607258 53.3893501,36.4639692 L53.3893501,36.4639692 Z M107.106218,40.2533461 C106.965681,40.2563619 106.82243,40.2626952 106.685511,40.2614888 C106.685511,40.5440711 106.682797,40.8266534 106.684305,41.1029024 C106.845651,41.1056166 107.00549,41.1044103 107.16955,41.1044103 C107.146329,40.8230344 107.12944,40.5311031 107.106218,40.2533461 L107.106218,40.2533461 Z M100.680714,35.1008189 C100.669254,34.9461074 100.649651,34.7859674 100.63427,34.6297479 C100.443369,34.5419876 100.199389,34.3420388 100.066391,34.3999425 C99.8751883,34.4801633 99.7035882,34.7368095 99.6520177,34.9473137 C99.6300022,35.051661 99.8932832,35.3306243 100.034122,35.3408781 C100.244626,35.3487192 100.463876,35.1924998 100.680714,35.1008189 L100.680714,35.1008189 Z M263.73249,35.0878509 C263.713189,34.9252982 263.702634,34.7654598 263.691174,34.6089388 C263.489717,34.5238927 263.248451,34.3236423 263.113946,34.3809428 C262.926965,34.4605605 262.752651,34.7190162 262.703493,34.9280125 C262.682985,35.0323598 262.942647,35.3125294 263.084692,35.3227832 C263.296101,35.3321322 263.518066,35.1741033 263.73249,35.0878509 L263.73249,35.0878509 Z M97.8527799,19.4797798 C98.0322212,19.163722 98.201107,18.9933282 98.1920596,18.839823 C98.1805995,18.6627944 97.998444,18.4966227 97.8965093,18.3274353 C97.7378772,18.471893 97.4640408,18.6021764 97.4435332,18.7647291 C97.4215178,18.9354244 97.6410694,19.1392938 97.8527799,19.4797798 L97.8527799,19.4797798 Z M233.881911,18.7571895 C233.669296,18.5687008 233.521822,18.4393222 233.373444,18.3129593 C233.236827,18.4743057 232.968118,18.6537469 232.982292,18.7985063 C233.005514,18.9673921 233.267287,19.1082309 233.428935,19.2641487 C233.556504,19.1172783 233.685581,18.9776459 233.881911,18.7571895 L233.881911,18.7571895 Z M56.4615652,51.8343937 C56.4537241,51.0725977 56.1967763,50.9993133 55.1267636,51.438115 C55.5423435,51.5608589 55.9606376,51.6848091 56.4615652,51.8343937 L56.4615652,51.8343937 Z M299.642755,51.0792325 C300.06497,51.7994102 300.556548,51.7222052 301.156696,51.6217784 C300.85813,50.7450798 300.218777,51.2740545 299.642755,51.0792325 L299.642755,51.0792325 Z M41.1595998,20.7886454 C41.3619613,20.3694465 41.519387,20.0440396 41.6771144,19.7186327 C41.6201154,19.6516815 41.563418,19.5820161 41.5028,19.5120491 C41.1336638,19.7047599 40.7633212,19.8929471 40.2648062,20.1471806 C40.6469105,20.4285566 40.8432404,20.5615542 41.1595998,20.7886454 L41.1595998,20.7886454 Z M32.2867579,23.7896871 C32.1498397,23.7372119 32.005382,23.678705 31.8645432,23.6256266 C31.5973416,24.0867453 31.3029977,24.5385151 31.0991283,25.0210462 C31.037304,25.1787735 31.2203642,25.4369276 31.2927439,25.6495429 C31.5300889,25.554243 31.918828,25.5141326 31.9755254,25.3542942 C32.1498397,24.8624141 32.1899501,24.3189634 32.2867579,23.7896871 L32.2867579,23.7896871 Z M31.7252124,20.7268211 C31.1093821,21.5594888 30.5104404,22.3776806 29.9440695,23.1470161 C31.2113168,23.2281416 32.0542383,22.1533036 31.7252124,20.7268211 L31.7252124,20.7268211 Z M222.540018,45.12118 C222.576208,45.0307054 222.621445,44.9272628 222.663968,44.8295503 C222.998121,44.8090427 223.34675,44.8425183 223.664316,44.7647102 C224.153481,44.6434742 224.67371,44.5297778 225.092004,44.2664968 C225.614646,43.9374709 225.819722,43.2960062 225.551314,42.7836185 C225.389967,42.4763065 224.79766,42.2567549 224.398668,42.2531359 C224.007516,42.2531359 223.542778,42.4865603 223.239688,42.7640157 C222.057185,43.8524248 220.909666,44.9921029 219.775115,46.1293684 C219.6578,46.2490964 219.63699,46.4945841 219.634276,46.6791522 C219.62553,48.3194563 219.644832,49.9630778 219.620403,51.6045883 C219.611356,52.1365788 219.861669,52.332607 220.340581,52.4230816 C223.107897,52.9433104 226.436758,51.5608589 227.957334,49.2012819 C228.245345,48.758258 228.384374,48.2154106 228.645243,47.57093 C226.844799,47.5721363 225.263303,47.5736442 223.697791,47.5721363 C223.567508,46.939719 223.789472,46.7035804 224.345589,46.7527382 C224.611584,46.7756585 224.890548,46.7874201 225.152622,46.7421829 C225.299794,46.7180563 225.422237,46.55671 225.557948,46.4580927 C225.437919,46.3368567 225.33327,46.1525902 225.186098,46.1070513 C224.744582,45.9665141 224.274717,45.9137373 223.835916,45.75601 C223.38686,45.5883304 222.969772,45.3368111 222.540018,45.12118 L222.540018,45.12118 Z M87.0103065,45.1404812 C87.0461947,45.0451814 87.0863051,44.944453 87.1288282,44.8488515 C87.459362,44.8280424 87.8028638,44.857899 88.1279691,44.7788845 C88.6159287,44.6606644 89.1349512,44.5442538 89.5544516,44.2821791 C90.0810137,43.9567722 90.284883,43.3204343 90.0203957,42.8041261 C89.8587478,42.4959093 89.2688535,42.2748498 88.8716701,42.2736434 C88.4805184,42.2661039 88.0118601,42.4992267 87.7111829,42.7757774 C86.5223469,43.8678055 85.3838752,45.0074836 84.2466097,46.1459554 C84.131707,46.2581439 84.1060725,46.5036316 84.102152,46.689406 C84.0958187,48.3300117 84.1111994,49.97303 84.0879776,51.6151436 C84.0813428,52.1495468 84.3241163,52.3455751 84.8069489,52.4387639 C87.5640109,52.9598974 90.8979991,51.581668 92.4249084,49.222091 C92.7114112,48.7805751 92.8483294,48.2359181 93.1131184,47.5902312 L88.1523972,47.5902312 C88.0468436,46.970782 88.2452845,46.7165484 88.8044174,46.7681189 C89.0767459,46.7952613 89.3529949,46.8043087 89.6099427,46.7602778 C89.7607337,46.7343417 89.8910171,46.5745033 90.0282368,46.4804097 C89.905493,46.3573643 89.802352,46.1679709 89.658799,46.1212257 C89.2199973,45.9834027 88.7462121,45.932737 88.3125372,45.7728985 C87.856847,45.6076316 87.4400607,45.358525 87.0103065,45.1404812 L87.0103065,45.1404812 Z M290.942117,52.1224044 C292.569453,51.2239919 293.794478,49.7317645 295.755364,49.6530516 C296.310275,49.6271156 296.542493,49.2784869 296.62392,48.8270187 C296.970739,46.8392922 296.934549,44.870867 296.18361,42.9748214 C295.725206,41.8242864 294.838857,41.1611077 293.57372,41.1698536 C292.820972,41.1764884 292.062493,41.2657566 291.317586,41.4038812 C290.646265,41.5251171 290.31181,41.9238084 290.323572,42.6919376 C290.362476,45.7572163 290.340461,48.8191776 290.338953,51.8784247 C290.338953,52.0940557 290.340461,52.3081789 290.338953,52.5328574 C290.667074,52.5352701 290.931561,52.5340638 291.260587,52.5352701 C291.143272,52.3790507 291.05913,52.2731954 290.942117,52.1224044 L290.942117,52.1224044 Z M46.3778719,52.1504516 C48.0338582,51.1992622 49.3623266,49.6955747 51.4326866,49.6011795 C51.649524,49.5882115 51.9710103,49.1587588 52.0237871,48.8813035 C52.4031772,46.8492444 52.3543209,44.8319629 51.5527162,42.8933943 C51.2288172,42.1177256 50.6621447,41.4114207 49.8219375,41.3432632 C48.7220682,41.2564076 47.5989771,41.3972464 46.4939809,41.5290377 C45.9469113,41.5956873 45.7327881,42.0453459 45.7520894,42.6195579 C45.7867713,43.8177429 45.7608353,45.0204516 45.7608353,46.2195414 C45.7608353,48.3236785 45.7623432,50.4235934 45.7608353,52.5612061 C46.0787026,52.5599998 46.3392694,52.5599998 46.6607557,52.5599998 C46.5612337,52.4179547 46.4773939,52.3003378 46.3778719,52.1504516 L46.3778719,52.1504516 Z M2.16505665,22.1324945 C2.06975676,22.1324945 1.91866422,22.1584305 1.77812704,22.1285739 C1.08479019,22.0007032 0.725907698,22.267 0.685797302,22.9805428 C0.599544871,24.540023 0.478007354,26.0949794 0.421309952,27.6571738 C0.403215036,28.0842138 0.523244643,28.5308566 0.661369166,28.9440239 C0.822715497,29.4166027 1.11585313,29.5942345 1.68493823,29.3906667 C2.30981598,29.1674961 3.00797814,29.0212288 3.66633149,29.0534981 C4.9827366,29.1294967 6.28526894,29.3710639 7.59805507,29.5119026 C8.48983283,29.6062978 9.35989668,28.9669441 9.4630377,28.0917533 C9.63765364,26.5910817 9.78965093,25.0780451 9.86474483,23.5677228 C9.92656913,22.4036166 9.26942211,21.9180697 8.13366457,22.1671764 C7.90385914,22.2226675 7.66530784,22.3092215 7.44304196,22.4099498 C6.73583234,22.7350551 6.05154295,22.6578502 5.3081435,22.4554887 C4.46401568,22.2268896 3.57223792,22.1596368 2.78872808,22.0356867 C2.74469712,22.4563934 2.73444333,22.7079128 2.68015858,22.9482736 C2.67744435,22.9805428 2.38189406,23.004971 2.37314818,22.9805428 C2.29051474,22.7302298 2.23622999,22.4615203 2.16505665,22.1324945 L2.16505665,22.1324945 Z M0.272931644,8.46842051 C0.786525665,8.46962684 1.10409143,8.4834996 1.41773664,8.46721418 C4.59701331,8.3016457 7.77116309,8.13396615 10.9462176,7.95844547 C11.5943172,7.91712875 12.421858,8.0347457 12.8268825,7.68883123 C13.2530178,7.32632975 13.2916203,6.49336047 13.4659346,5.85822893 C13.730422,4.89015095 13.9756081,3.92750143 13.4722678,2.93077317 C13.3600794,2.70639621 13.4982039,2.33484728 13.5576155,2.03658275 C13.6260746,1.67890659 13.7394694,1.32635731 13.8287377,0.972903296 C13.7654055,0.936713465 13.7008669,0.885142956 13.6390426,0.842619904 C13.3392702,0.980744426 12.9972763,1.0645842 12.7520902,1.26724726 C12.3054474,1.63879619 11.8666457,1.63246297 11.3979873,1.3715946 C10.6726828,0.963855838 9.98085387,1.04377505 9.22328007,1.33811901 C8.78538311,1.50730647 8.113157,1.60924116 7.77116309,1.38968952 C6.62756443,0.642369504 5.52769514,1.39873698 4.42269896,1.37068986 C3.25587848,1.33419844 2.06975676,1.90720411 0.764811767,1.16380466 C0.601957526,3.60209454 0.440611195,5.98368701 0.272931644,8.46842051 L0.272931644,8.46842051 Z M8.0730466,52.5895548 C8.13366457,52.2409261 8.18644141,51.9426616 8.2383135,51.645905 C8.34658141,51.6537461 8.45123034,51.6652062 8.55949825,51.6727458 C8.57518051,51.9776451 8.59327543,52.2759096 8.61498932,52.5919675 C9.24891454,52.5934754 9.93048969,52.5946817 10.5668276,52.5958881 C10.6042237,52.2554021 10.6404135,51.9520106 10.6738891,51.6446987 C10.7758238,51.6380639 10.8753459,51.6305243 10.9721537,51.6238895 C11.0445333,51.9351221 11.1087703,52.242434 11.1838642,52.5895548 C12.5533477,52.6592203 12.2951936,52.7626629 12.7418364,51.5388434 C13.1239407,50.4884336 13.4348717,49.4012307 13.6839784,48.3031709 C13.7819925,47.8589407 13.7252951,47.3269502 13.5705835,46.8893548 C13.3148421,46.1667645 13.0594022,45.4891099 13.5757104,44.7158539 C13.3175563,44.771345 13.1676701,44.7918525 13.0295456,44.8331693 C12.2514642,45.0551336 11.4546847,45.695392 10.7305865,44.7052985 C10.6829366,44.6395537 10.4959558,44.6730293 10.3744183,44.6721245 C8.71330503,44.6730293 7.04314432,44.6706166 5.37780892,44.681172 C5.21525626,44.681172 4.97007016,44.7068064 4.91578541,44.8060269 C4.61360032,45.3199225 4.15549737,45.2864469 3.68714064,45.2336701 C2.77304582,45.1365607 1.85653834,45.0267849 0.875793916,44.9082632 C0.445738088,47.3736954 0.191504524,49.9706174 0.690019449,52.6272526 C0.862825893,52.4746521 0.973808042,52.2825444 1.09383765,52.2795286 C2.18465948,52.229466 3.38616188,51.9079797 4.33252596,52.2695764 C5.32623841,52.6501728 6.22465097,52.5005882 7.02233517,52.6115703 C7.12939675,52.2333866 7.20810964,51.9327094 7.29225099,51.6281117 C7.38755088,51.6446987 7.4807397,51.6600793 7.57362693,51.6781743 C7.57603959,51.9761372 7.57362693,52.2810365 7.57483326,52.5883485 C7.78654377,52.5895548 7.97744513,52.5895548 8.0730466,52.5895548 L8.0730466,52.5895548 Z M196.619956,0.770240241 C196.21463,0.843826232 195.818351,0.968681149 195.409105,0.978030189 C194.775481,1.00637889 194.135223,0.968681149 193.500091,0.930380245 C192.550108,0.863127475 192.18248,1.1831059 192.180972,2.11016874 C192.177051,3.38133656 192.158956,4.65672653 192.19394,5.92819594 C192.206908,6.22495255 192.355286,6.59559674 192.568203,6.79675189 C194.6838,8.79503374 196.023729,11.2239746 196.609702,14.0612573 C196.841921,15.2009354 196.969791,16.362629 197.155566,17.5864485 C197.802459,17.5864485 198.446638,17.5852422 199.088103,17.5864485 C199.117658,18.0240439 199.14088,18.3750852 199.168022,18.8009189 C200.055879,18.8009189 200.88342,18.782824 201.71458,18.8075537 C202.187159,18.8190138 202.518597,18.7843319 202.721562,18.2279132 C202.847925,17.8946652 203.315377,17.6935101 203.603086,17.4082136 C203.756591,17.2637558 203.943873,17.0740608 203.965889,16.894318 C204.1206,15.4823114 204.246058,14.0651779 204.365786,12.6516634 C204.474356,11.3880351 204.639623,10.132248 204.100093,8.89184153 C203.224902,6.89627392 202.027019,5.12025796 200.542632,3.537556 C199.533238,2.4597022 198.469558,1.42979992 196.956823,1.08026646 C196.828953,1.05433042 196.733653,0.882428718 196.619956,0.770240241 L196.619956,0.770240241 Z M23.8023536,2.17561202 C23.7405293,2.10504185 23.6708639,2.03145586 23.6060237,1.96028253 C23.111731,2.21692874 22.450965,2.3577675 22.1554147,2.76580785 C21.7811515,3.27306865 21.4053804,3.36082899 20.881231,3.32192493 C20.6116168,3.30533792 20.3456215,3.32192493 20.0953085,3.3207186 C19.8127263,4.45526981 19.6163964,4.53760167 17.8726497,4.23601975 C17.8711418,3.83702686 17.8699355,3.42657385 17.8726497,3.01491452 C17.8711418,2.16053292 17.8711418,2.16053292 17.3973566,2.13218422 C17.3819759,2.19400852 17.3575478,2.27000716 17.360262,2.33967259 C17.3563415,6.04038441 17.3536272,9.738382 17.3575478,13.4415065 C17.3614684,14.0742254 17.9978062,14.487091 18.6546517,14.293777 C18.8521878,14.2301432 19.0421844,14.1309228 19.2484665,14.0416545 C19.3684961,15.1032229 18.9737254,15.4618038 17.3548336,15.7353386 C17.3548336,16.0112861 17.3563415,16.2992968 17.3563415,16.5876091 C17.3536272,21.5606951 17.3563415,26.5367969 17.3575478,31.5189303 C17.3563415,33.9442522 17.3575478,33.9596329 19.7879966,33.9107766 C20.203878,33.9005228 20.6206643,33.6577494 21.0323236,33.5271644 C22.6910242,33.7753663 23.7417356,33.3353583 24.0786026,31.9203359 C24.4863414,30.216398 24.5303724,28.484413 24.0384922,26.7638881 C23.9082088,26.3027693 23.8204485,25.8151114 23.8165279,25.3310724 C23.8035599,17.9028079 23.8062741,10.4703213 23.8062741,3.05110435 C23.8062741,2.75796672 23.8035599,2.46874965 23.8023536,2.17561202 L23.8023536,2.17561202 Z M290.338953,40.7723686 C291.383331,40.0419372 292.209665,39.2726017 293.189203,38.8298794 C294.465498,38.2517469 294.771604,37.3994763 294.900681,36.0535162 C295.095503,33.9520933 295.710127,31.8826382 296.135357,29.8011197 C296.337417,28.8098199 296.433923,27.8314881 295.248706,27.1559446 C296.693284,26.4282274 296.756616,25.2134554 296.7536,23.9030819 C296.723442,17.4986881 296.741537,11.1042465 296.735505,4.70709072 C296.735505,4.31443105 296.723442,3.91332708 296.66011,3.53122278 C296.433923,2.18978637 295.315054,1.00004567 294.211566,1.07875855 C292.928335,1.17556635 291.651739,1.43884737 290.333826,1.62854241 C290.332619,1.89453767 290.335334,2.08574061 290.337746,2.27905462 C290.337746,13.1151948 290.338953,23.9525414 290.33654,34.7926022 C290.338953,34.9174571 290.286176,35.0893588 290.350714,35.1578179 C291.158652,36.0137074 290.779262,36.7752018 290.407412,37.731518 C290.086227,38.552424 290.33654,39.6019292 290.338953,40.7723686 L290.338953,40.7723686 Z M45.8139137,1.65568478 C45.7828507,1.80677732 45.7623432,1.8505067 45.7608353,1.89936298 C45.7650574,12.931833 45.7635495,23.9667157 45.7674701,35.0015984 C45.7686764,35.1614369 45.7713906,35.3538461 45.859151,35.4762884 C46.4966952,36.3891769 46.5045363,36.4431601 45.859151,37.4308409 C45.8087868,37.5095537 45.7662637,37.6075679 45.7662637,37.6929156 C45.7596289,38.657073 45.7635495,39.6248494 45.7635495,40.8010189 C46.8064198,40.0742065 47.6185799,39.3202516 48.5748962,38.8814499 C49.8629526,38.289143 50.2257557,37.4395867 50.3276904,36.0547225 C50.4567675,34.2129617 51.0931053,32.4173429 51.4197185,30.5909628 C51.632937,29.4111743 52.1929746,28.116483 50.6892871,27.1677063 C52.0675165,26.4656236 52.1788003,25.316898 52.176086,24.0466349 C52.1450231,17.6199241 52.159499,11.1995464 52.1555784,4.77796247 C52.1543721,4.38047749 52.1489436,3.98932573 52.089532,3.60360244 C51.8702819,2.19400852 50.6877792,0.988283975 49.5275935,1.10318669 C48.2883934,1.22200997 47.0606534,1.4684024 45.8139137,1.65568478 L45.8139137,1.65568478 Z M88.5954211,1.87764908 C88.5939132,1.89302976 88.5848657,2.03507484 88.5785325,2.17470728 C88.5396284,5.45953762 88.5022323,8.74346323 88.4585029,12.0294999 C88.4015039,15.5791192 88.3255053,19.132659 88.2829822,22.6886115 C88.2145231,28.1758947 88.1563178,33.6692095 88.1279691,39.1601116 C88.1216359,40.9352229 89.1192689,41.6888761 90.8657298,41.3106924 C91.4351165,41.1882501 91.9900273,40.9454766 92.5681598,40.8782239 C93.2060056,40.8010189 93.9301038,40.5338173 94.4991889,41.4268014 C94.814342,40.6161492 95.1343204,39.9357803 95.344523,39.2159043 C95.8970211,37.385302 95.8146893,35.4841295 95.8183082,33.5998456 C95.8198162,31.4480586 95.8970211,29.2962715 95.8997354,27.1468972 C95.9024496,26.6203351 95.7628172,26.0883446 95.664803,25.5647984 C95.5797569,25.0807594 95.4597273,24.599133 95.3602053,24.1138877 C95.4558068,24.1473633 95.5499003,24.1823468 95.651835,24.2170287 C95.8415301,24.0390954 96.0366536,23.8506067 96.2302692,23.6699591 C96.0185586,23.48901 95.8041339,23.3005213 95.5924234,23.117461 C95.4271565,22.1143995 95.3810145,20.9885942 95.4401245,19.8645984 C95.4817428,19.1208973 95.7100403,18.3931801 95.7706583,17.6570187 C95.8107687,17.1434246 95.8300699,16.570419 95.6403749,16.1201572 C95.3704591,15.4630101 95.2374615,14.9159405 95.6699299,14.5118207 C95.57463,13.9424341 95.4365055,13.4997118 95.4377119,13.0566879 C95.4156964,9.33064324 95.4247438,5.60791593 95.4235375,1.87644275 C95.4247438,1.58843201 95.4259502,1.29559596 95.4259502,0.965363748 C93.1375465,1.27207257 90.929062,1.56792444 88.5954211,1.87764908 L88.5954211,1.87764908 Z M223.989421,1.89182343 C223.992135,5.02827547 224.014151,8.30948683 223.985802,11.5894919 C223.952025,15.2862831 223.855217,18.9894076 223.812694,22.6834846 C223.749362,28.1758947 223.686029,33.6692095 223.662808,39.1589053 C223.655268,40.9313023 224.664663,41.677416 226.411124,41.2953117 C226.984431,41.1698536 227.541754,40.9261754 228.11476,40.8577163 C228.753812,40.7880509 229.481831,40.5142145 230.034329,41.39604 C230.341339,40.6140381 230.662826,39.9514626 230.873028,39.2584273 C231.425526,37.4229997 231.348321,35.5254462 231.356163,33.6408608 C231.362496,31.4622329 231.433066,29.2872241 231.433066,27.1164374 C231.433066,26.5672567 231.267196,26.0126475 231.16496,25.4664827 C231.08504,25.0044591 230.990947,24.5433404 230.897758,24.0882533 C230.986725,24.118713 231.063025,24.1500775 231.150785,24.1859658 C231.353448,24.02854 231.552191,23.8699079 231.759981,23.7100695 C231.549477,23.5071049 231.333846,23.3017276 231.123643,23.0969535 C230.95717,22.1089711 230.914647,21.0042765 230.975265,19.9059151 C231.016581,19.1368812 231.247593,18.3880532 231.308211,17.6238446 C231.349528,17.1126633 231.366416,16.5345307 231.16496,16.0878879 C230.87725,15.4307409 230.802458,14.8875918 231.207483,14.4819641 C231.112183,13.9333866 230.971344,13.5181083 230.96863,13.1022268 C230.953249,9.34873815 230.958376,5.59615424 230.955662,1.84296716 C230.955662,1.55767065 230.955662,1.26875517 230.954455,0.944253013 C228.662131,1.25699347 226.451234,1.56128964 223.989421,1.89182343 L223.989421,1.89182343 Z M263.950534,3.92207296 C263.86398,3.90699386 263.78014,3.89613691 263.693586,3.88347047 C263.693586,3.33609928 263.577477,2.75947463 263.73249,2.26126129 C263.873329,1.79230139 264.296449,1.40537178 264.604967,0.980744426 C264.339273,1.00879155 264.0202,1.01422002 263.714395,1.07483799 C262.62478,1.30584974 262.52948,1.41411766 262.546067,2.52936762 C262.627494,7.28742568 262.694747,12.0349284 262.800602,16.7887643 C262.880521,20.391462 263.003265,23.986017 263.120581,27.5911273 C263.132342,27.9292007 263.239404,28.2648614 263.301228,28.6107758 C263.035535,29.6008693 262.729429,32.3244557 262.936012,33.3854209 C263.224928,33.4059285 263.511732,33.424325 263.848599,33.4472452 C263.431512,34.1004716 263.892329,34.2889603 264.395669,34.4463861 C264.088659,34.7524918 263.85252,35.0477405 263.560589,35.2648795 C263.151644,35.5733978 263.04036,35.960629 263.023773,36.4703024 C262.956822,39.7255777 262.826237,42.9835673 262.755365,46.2391442 C262.714048,48.292314 262.746317,50.34096 262.747524,52.4435892 C262.782507,52.4475098 262.968282,52.5135562 263.053328,52.4514303 C263.723443,51.9299952 264.501826,52.1236108 265.246432,52.1015953 C268.837669,52.0358504 267.882258,52.5081277 270.670081,49.8427466 C271.221373,49.3098514 271.209611,49.1666 270.541004,48.8632085 C270.036457,48.6346094 269.88446,48.3079962 269.902253,47.7711804 C269.93211,46.3048891 269.911301,44.8295503 269.903761,43.3566241 C269.903761,43.1397867 269.883254,42.9205367 269.836509,42.7085246 C269.690543,42.0619329 269.428468,41.4216745 269.40012,40.769956 C269.369358,40.1179358 269.539752,39.4689315 268.53277,39.3323149 C268.562627,39.273808 268.589769,39.2159043 268.614197,39.157699 C269.405548,38.8181177 270.195391,38.4709969 271.0549,38.1006543 C271.031678,37.9417206 271.064249,37.6540115 270.938791,37.4730623 C270.230073,36.4081765 270.581114,35.2142137 270.493354,34.0721229 C270.480386,33.8537776 270.546432,33.5078632 270.436958,33.4357851 C269.689337,32.969841 270.134773,32.4559454 270.373324,31.9541131 C268.545738,31.8805271 266.892164,31.4981212 265.668646,30.0680197 C266.697041,29.9817673 267.696483,29.9947353 268.700449,29.9687992 C269.162775,29.9546249 269.479134,30.0254966 269.644099,30.5378843 C269.717685,30.7637692 270.060886,30.8994811 270.283151,31.0786207 C270.333516,31.0297645 270.386292,30.9778924 270.441783,30.9187823 C270.110043,29.9003401 269.743621,28.9232147 270.231279,27.8043458 C270.96352,26.1236297 270.354023,24.790336 268.610276,24.0686504 C269.576847,24.0339685 269.269836,23.4672961 269.092808,23.0061773 C269.391374,22.8629259 269.636258,22.7468168 269.877825,22.6319141 C269.885365,22.5145988 269.900746,22.4229178 269.904968,22.3194752 C270.085615,18.3621172 270.27531,14.3942038 270.433942,10.4326236 C270.443291,10.1798979 270.251787,9.92174381 270.201724,9.6533359 C270.147741,9.40422923 270.104916,9.13190075 270.146535,8.87615927 C270.228867,8.42167531 270.453244,7.96990558 270.474053,7.51059631 C270.528036,6.53226454 270.492148,5.55121853 270.493354,4.57017252 C270.492148,3.77640889 270.492148,2.98385159 270.492148,1.9807901 C270.192677,2.34751372 270.001474,2.50614581 269.904968,2.71423734 C269.589815,3.36324165 269.078935,3.52066742 268.404899,3.45643046 C268.031842,3.41873272 267.608723,3.44346244 267.273062,3.59184075 C266.253112,4.0565785 265.648139,3.80837657 265.384858,2.72298322 C265.327557,2.49860626 265.298002,2.27000716 265.203909,1.81944377 C264.717457,2.63522288 264.335051,3.27970346 263.950534,3.92207296 L263.950534,3.92207296 Z M107.440371,2.22356355 C107.380055,2.21330976 107.325468,2.19913541 107.276612,2.18858004 C107.137281,2.35897383 106.955126,2.51036796 106.87008,2.70639621 C106.560053,3.40847894 106.007857,3.50528674 105.318441,3.47573171 C104.904067,3.46155736 104.44717,3.54660346 104.066574,3.71187036 C103.311413,4.04753104 102.714884,3.8496933 102.429889,3.05351701 C102.308351,2.72811011 102.256781,2.38098931 102.123783,1.85291936 C101.657839,2.66115892 101.28237,3.30533792 100.911725,3.95192957 C100.814918,3.9247872 100.732284,3.90277172 100.638191,3.87562934 C100.638191,3.35178154 100.526002,2.79023599 100.671666,2.31132389 C100.818838,1.84025292 101.237132,1.4400537 101.542936,0.998839342 C101.262767,1.03352126 100.900265,1.04136239 100.554351,1.12912273 C99.5331944,1.37400726 99.4804176,1.43613314 99.4985125,2.51519327 C99.5720985,7.14538059 99.6417639,11.77406 99.7449049,16.4024378 C99.8290463,20.1498949 99.947568,23.8997645 100.071518,27.6463168 C100.081772,27.9834854 100.210849,28.3179398 100.315498,28.8019788 C99.5359087,30.1301456 100.098661,31.7936715 99.7283179,33.3971826 C100.14631,33.4216107 100.427686,33.4357851 100.789283,33.4523721 C100.434321,34.0808688 100.759728,34.3366103 101.428034,34.4671953 C101.084833,34.7781262 100.829092,35.0468357 100.53897,35.2609589 C100.097454,35.5809373 99.9864721,35.9823429 99.9722977,36.5245872 C99.8857437,40.1981566 99.7449049,43.8678055 99.6535256,47.5437876 C99.6119073,49.1765522 99.6468908,50.8093167 99.6456845,52.4746521 C99.7358575,52.4785727 99.8947912,52.5340638 99.9656629,52.4821917 C100.662619,51.9634708 101.461811,52.1374835 102.229638,52.1236108 C105.756036,52.0539453 104.846163,52.510842 107.539893,49.9422687 C107.574877,49.9045709 107.609558,49.869889 107.644542,49.8376198 C108.089978,49.4582297 108.173818,49.1159342 107.521798,48.8849224 C106.970808,48.6913069 106.826049,48.3236785 106.846858,47.7554981 C106.884254,46.2804609 106.861032,44.810249 106.853191,43.3388308 C106.851985,43.1268187 106.807954,42.9111876 106.757891,42.6997787 C106.619767,42.0721867 106.34201,41.447309 106.351057,40.8266534 C106.360105,40.1296975 106.428564,39.5165815 105.572674,39.1655401 C106.367946,38.8247525 107.171963,38.483965 108.010964,38.125384 C107.968441,37.8991976 108.004631,37.5780128 107.861379,37.3880162 C107.297421,36.6560769 107.46118,35.8185839 107.448212,35.0103443 C107.437958,34.6170815 107.44972,34.2229139 107.443085,33.8284447 C107.440371,33.6863997 107.454847,33.4590069 107.374626,33.4149759 C106.63002,32.969841 107.063695,32.472834 107.359245,31.9707001 C105.513564,31.9073679 103.858482,31.5174224 102.607822,30.0885273 C103.621137,29.9959416 104.621485,30.0167508 105.611578,29.9853862 C106.108585,29.9675929 106.43369,30.0538453 106.608005,30.5933754 C106.676464,30.8023717 107.022378,30.9172744 107.248263,31.0774144 C107.11798,29.9766404 106.619767,29.0676724 107.107425,28.0727537 C107.485608,27.3124656 107.50883,26.5277495 107.315214,25.7092561 C107.09325,24.7876217 106.507276,24.2984559 105.54704,24.118713 C106.573021,24.0752852 106.214139,23.5043906 106.003936,22.9648606 C107.003077,22.9404324 106.864953,22.254032 106.853191,21.6418207 C106.848064,21.3206359 106.818509,21.0003559 106.835096,20.6852028 C107.011823,17.3578494 107.200312,14.0356229 107.369499,10.7025394 C107.385181,10.3891958 107.386388,9.96185421 107.199105,9.76823861 C106.859826,9.4129751 106.930698,9.1394403 107.139694,8.79744639 C107.252184,8.61800514 107.419863,8.42167531 107.423784,8.2232344 C107.447006,6.22495255 107.439165,4.22546438 107.440371,2.22356355 L107.440371,2.22356355 Z M214.822537,30.8853067 C215.07285,30.9073222 215.342464,31.0038284 215.407304,30.9239092 C215.524619,30.7818641 215.611173,30.5110435 215.556889,30.3343165 C215.362067,29.6047899 215.044501,28.9039135 214.906376,28.1668472 C214.822537,27.6993952 214.853298,27.1212627 215.061088,26.7108097 C215.385288,26.0708528 215.409717,25.5053867 215.092151,24.8998102 C214.667524,24.0882533 214.75257,23.28122 214.963074,22.4111562 C215.168451,21.5736631 215.252291,20.6776632 215.226355,19.8142342 C215.151562,17.8120318 214.921757,15.8152578 214.859933,13.8148649 C214.794188,11.7390765 214.844552,9.6599707 214.846965,7.55945258 C215.506524,7.52899281 215.953167,7.50818365 216.401016,7.48466026 C216.480936,7.39177303 216.562363,7.28863201 216.642584,7.18669732 C216.426952,7.09109585 216.210115,7.00574816 215.99569,6.90019449 C214.898535,6.33714103 214.902456,6.33352205 214.995343,5.15252722 C214.999264,5.08135389 215.004391,5.00535524 215.013438,4.93418191 C215.145229,3.81259872 215.281846,2.70217407 215.423891,1.50610014 C215.229069,1.34203957 214.915424,1.07725064 214.751363,0.939427702 C213.557702,1.24131121 212.464166,1.58963834 211.338662,1.76666693 C210.217079,1.94218761 209.065639,1.9406797 207.888565,2.01848784 C207.87801,2.22356355 207.856296,2.41325858 207.854788,2.60687418 C207.853581,9.27394584 207.848455,15.9364938 207.87047,22.6086923 C207.87047,22.9727017 208.075546,23.3394253 208.181401,23.6841335 C208.080673,23.9525414 207.872883,24.2465838 207.872883,24.5499752 C207.79809,29.4241423 207.715457,34.300722 207.724504,39.1730797 C207.729631,41.60383 208.061371,44.0083427 208.922388,46.3112223 C210.490614,50.5282424 214.512812,52.4179547 218.698468,52.0626912 C218.698468,50.6033363 218.661071,49.1340291 218.712943,47.6716584 C218.738578,46.996718 218.500027,46.5811381 218.019607,46.1097656 C217.096766,45.2164799 216.287622,44.2022599 215.458874,43.2184996 C215.213688,42.9292826 215.049628,42.584876 214.830076,42.2326283 C215.067723,41.8656031 215.340051,41.4412773 215.613586,41.0178563 C214.591525,40.3941849 214.428671,38.9432742 215.181419,37.9390064 C215.053548,37.5867587 214.846965,37.2797483 214.839425,36.97123 C214.809569,34.9394726 214.824949,32.9010803 214.822537,30.8853067 L214.822537,30.8853067 Z M79.2913171,30.8566564 C79.5340905,30.9187823 79.8037048,31.0351929 79.8414025,30.9857335 C79.9614321,30.8195619 80.0814617,30.5728678 80.0362244,30.4012677 C79.8516563,29.6744553 79.5235352,28.9669441 79.395966,28.2353063 C79.3069993,27.7437278 79.3275069,27.1435798 79.5365032,26.7108097 C79.8607037,26.0654244 79.867037,25.4975456 79.5558044,24.8973976 C79.1480657,24.1060466 79.2177311,23.3303779 79.4191878,22.4784089 C79.629692,21.6158846 79.7159444,20.6981708 79.688802,19.8103136 C79.6206445,17.8056985 79.366411,15.8140515 79.3326338,13.8148649 C79.2925234,11.7366639 79.4203941,9.66238336 79.4810121,7.5657858 C79.9807334,7.54165925 80.4285825,7.52356433 81.0790947,7.49099348 C80.7772112,7.20720489 80.6339598,7.01479562 80.4466774,6.91286093 C79.3688236,6.35282329 79.3649031,6.35885493 79.4617109,5.15101931 C79.4680441,5.05421151 79.473171,4.95468948 79.4837263,4.85546902 C79.6191366,3.787869 79.7560548,2.71303101 79.90956,1.53535359 C79.719865,1.37551517 79.3932518,1.09775821 79.0744797,0.824524988 C76.9836122,1.98621857 74.660225,1.88156964 72.317235,2.01697993 C72.3187429,2.32549824 72.317235,2.5981283 72.3187429,2.85869509 C72.3187429,9.37708685 72.313616,15.9030182 72.3314094,22.4189973 C72.3365362,22.8590053 72.5328661,23.2953944 72.6308802,23.7133869 C72.5391993,23.9766679 72.3419647,24.2842815 72.3341236,24.5876729 C72.2668708,29.4340945 72.1779042,34.2916746 72.1947927,39.1344772 C72.2038402,41.8604762 72.563929,44.550587 73.7189878,47.0856847 C75.4422269,50.8714426 79.5521854,52.4526366 83.1651369,52.0626912 C83.1651369,50.383483 83.1753907,48.6943227 83.1455341,47.0084797 C83.1431214,46.807023 82.9455853,46.5772175 82.7803184,46.4324582 C81.5800223,45.3742072 80.3613297,44.3476224 79.7186587,42.822221 C79.629692,42.6207642 79.4113467,42.4751002 79.2590478,42.3122459 C79.5419316,41.8656031 79.8127522,41.4461026 80.0850807,41.020269 C79.0578927,40.4213272 78.9040859,38.9873052 79.64266,37.9405143 C79.5159956,37.6151074 79.3121262,37.324684 79.309412,37.0384828 C79.2771427,34.9847099 79.2913171,32.9221911 79.2913171,30.8566564 L79.2913171,30.8566564 Z M186.767576,22.1710969 C186.976573,21.8278967 187.086348,21.6397096 187.209092,21.4560462 C187.698258,20.7280274 188.235074,20.0193099 188.666336,19.2605298 C188.928411,18.8048395 189.026425,18.2224848 188.399135,17.9332677 C187.869858,17.6935101 187.770336,17.3282944 187.832462,16.8156051 C188.05322,15.0796995 187.9923,13.3266038 188.778525,11.6449829 C189.26769,10.5918589 189.66789,9.49048166 190.308148,8.50461034 C191.718948,6.35885493 191.408017,4.01918234 191.092864,1.67739868 C191.038881,1.28142161 190.800028,1.02839437 190.324735,1.05674307 C189.936298,1.08509177 189.542733,1.00517256 189.156708,1.03110861 C187.264282,1.14450341 185.74642,2.07488366 184.440269,3.34514673 C182.403384,5.33287321 180.953981,7.62670535 180.969362,10.6177949 C180.987457,15.1801263 180.966949,19.7421561 180.987457,24.3023764 C180.987457,24.6534178 181.205501,24.9993323 181.275468,25.3618337 C181.323118,25.5789727 181.312864,25.8202383 181.264912,26.0331551 C181.20158,26.3006583 180.988663,26.5573045 180.987457,26.8193792 C180.970568,31.4739946 180.941013,36.137356 180.997711,40.795892 C181.010679,42.0800278 181.175946,43.3849728 181.458528,44.6446806 C182.146436,47.6791979 183.392271,50.4082128 186.199698,52.1275313 C186.36225,52.2204186 186.465693,52.4137326 186.554358,52.510842 C186.832115,52.3829712 187.092983,52.1646259 187.363804,52.1504516 C188.168123,52.0952621 188.970934,52.0874209 189.777665,52.1211981 C191.083817,52.1788003 191.277432,52.0189618 191.277432,50.7296991 C191.278639,49.6994952 191.246671,48.6720056 191.291607,47.6390875 C191.317543,47.0117971 191.121213,46.5241391 190.74695,46.0310527 C190.078343,45.1600841 189.4601,44.2499098 188.818635,43.3514973 C189.17601,42.9446632 189.651001,42.645494 189.155502,42.0875674 C187.827335,40.5814673 187.611704,38.8054513 187.991094,36.9235801 C188.254677,35.6095876 188.451911,34.3224359 187.925349,33.0189989 C187.783304,32.6727828 187.798685,32.2481554 187.798685,31.8570037 C187.787225,29.2356536 187.791145,26.6103829 187.791145,23.9899375 C187.792352,23.2193957 188.002856,22.3532524 186.767576,22.1710969 L186.767576,22.1710969 Z M302.93603,47.0519075 C302.586195,47.1348425 302.16398,47.1218745 302.019221,47.3182043 C301.361772,48.1777128 300.779719,49.0993472 300.143381,50.0414891 C301.129554,50.4118317 301.886525,50.0209816 302.60429,49.6168618 C303.56332,49.0734112 304.50124,49.0631574 305.487413,49.5004512 C305.954865,49.7112569 306.437396,49.8958251 306.922943,50.0508382 C308.014669,50.4018795 309.003858,50.1693599 309.712576,49.2839153 C310.258439,48.6062607 310.671606,47.8124971 311.099853,47.0519075 C311.633653,46.0995118 312.119199,45.1199737 312.535383,44.3207816 C312.571572,43.7619503 312.538398,43.3216406 312.643952,42.9151082 C312.882202,41.9726647 313.045056,41.0513319 312.628873,40.1143168 C312.369512,39.5488507 312.601731,38.5111073 313.117436,38.1588596 C313.609014,37.8256116 313.584888,37.501411 313.168705,37.1699725 C312.758553,36.8469783 312.701253,36.4703024 313.04204,36.1078009 C313.605998,35.5100656 313.467271,34.9020764 313.141562,34.2850398 C312.785696,33.5944172 312.725379,32.956873 313.235053,32.2985196 C313.512508,31.9423514 313.584888,31.5692945 313.111404,31.2297133 C312.954581,31.1111916 312.864107,30.7625629 312.900297,30.5418049 C312.963629,30.15578 313.141562,29.7996118 313.283306,29.4371103 C313.506476,28.852343 313.467271,28.3396537 313.165689,27.7588069 C312.94855,27.3200052 312.891249,26.7340315 312.942518,26.2346118 C313.036009,25.364548 313.298385,24.5128806 313.422033,23.6413088 C313.452192,23.4130113 313.232037,23.1494287 313.126483,22.9018299 C313.029977,22.6744372 312.830933,22.4488539 312.842996,22.230207 C312.954581,20.5214438 313.117436,18.8190138 313.235053,17.1162823 C313.304416,16.1497122 313.572824,15.1002071 313.304416,14.2226037 C312.894265,12.931833 312.649984,11.6850933 312.794743,10.3415459 C312.827917,10.0366465 312.849028,9.67746245 312.725379,9.41840358 C312.179516,8.2799318 311.543178,7.18006252 311.003346,6.03495594 C310.255423,4.46280935 309.224013,3.13765837 307.649755,2.35897383 C304.896312,0.987077647 301.946841,0.892984086 298.964196,1.24281912 C298.083577,1.34203957 297.72771,1.8906171 297.718662,2.78902966 C297.712631,3.34665464 297.715647,3.91031126 297.715647,4.47698371 C297.718662,5.69326362 297.715647,6.90803562 297.715647,8.16502909 C298.074529,8.20121892 298.345953,8.19096514 298.602298,8.25037678 C299.926242,8.56643463 301.304472,8.76517712 302.553021,9.26881894 C304.534414,10.0686142 305.49646,11.6075868 305.484397,13.8160712 C305.451223,23.0589541 305.478365,32.3024402 305.448207,41.543212 C305.448207,42.0516791 305.219005,42.6660015 304.887265,43.0484074 C303.593478,44.5686819 302.004142,45.7572163 300.264014,46.7485161 C299.99259,46.8999102 299.687992,46.9943053 299.398474,47.1092081 C299.374347,47.0690977 299.356252,47.0214477 299.332126,46.9813373 C299.573391,46.6001378 299.817673,46.2246683 300.107191,45.7792318 C299.244667,45.778327 298.505791,45.7807397 297.766916,45.7807397 C297.769931,47.083272 297.766916,48.3248848 297.766916,49.5547359 C298.092624,49.6129412 298.563092,49.5782593 298.632456,49.7242249 C298.964196,50.4944652 299.380379,49.9537288 299.564344,49.7396056 C300.215761,48.9609211 300.818925,48.1309676 301.382883,47.2750781 C301.838272,46.5760112 302.182075,46.4804097 302.93603,47.0519075 L302.93603,47.0519075 Z M53.144164,8.1948857 C53.4864595,8.22564706 53.7572801,8.21901225 54.009101,8.27872548 C55.3604896,8.60383079 56.7571155,8.80920809 58.0361244,9.32943691 C59.9840421,10.1177721 60.9186445,11.6591573 60.9080891,13.8377851 C60.870693,23.0773506 60.9044701,32.325662 60.870693,41.5637196 C60.867074,42.0697741 60.6448081,42.6856044 60.3181949,43.072534 C59.0222973,44.5934116 57.4347701,45.7858666 55.6961503,46.7693252 C55.4186949,46.9228304 55.106256,47.0199398 54.6300582,47.221095 C54.9952739,46.6390418 55.2365394,46.2557312 55.5218359,45.8039615 C54.6737875,45.8051678 53.9328007,45.8051678 53.1842744,45.8027552 C53.1842744,47.1010653 53.1866871,48.3453924 53.1842744,49.490499 C53.6089018,49.6554643 53.9626574,49.796303 54.314905,49.9371418 C54.3345079,50.0261085 54.345968,50.1189957 54.3601423,50.2121845 C54.7359134,49.9163326 55.1849689,49.6916541 55.4636306,49.330359 C55.9865737,48.6590376 56.424169,47.920765 56.8744309,47.1927463 C57.2619636,46.569678 57.7689229,46.5343929 58.3084529,47.086891 C58.0195374,47.1643976 57.5961164,47.1450963 57.4462302,47.337204 C56.7866705,48.2024425 56.2046174,49.1237753 55.564359,50.0701394 C56.5764679,50.45345 57.3418828,50.0270132 58.0879965,49.6207823 C59.0017898,49.1147279 59.8935675,49.0954266 60.8293762,49.5019591 C61.3704142,49.7356851 61.9177854,49.943475 62.4817436,50.1048213 C63.4627896,50.4118317 64.3805034,50.1977086 65.0258888,49.4220399 C65.6142751,48.7148302 66.0648385,47.8900037 66.5178146,47.0856847 C67.0585509,46.1396222 67.5338441,45.1519414 67.9635983,44.3364638 C67.9943597,43.8005527 67.9545509,43.3593384 68.0604061,42.9500917 C68.3185602,41.9328559 68.3791782,40.9801586 67.9985818,39.9400025 C67.8372355,39.4818995 68.1403253,38.6724537 68.505541,38.2565722 C68.9111687,37.7933423 69.0399442,37.5457436 68.5456514,37.1570045 C68.1469601,36.8436609 68.1532933,36.4769372 68.4578911,36.1400702 C68.9754057,35.5758104 68.9250415,35.0000905 68.5948093,34.3884824 C68.1985306,33.6643842 68.1403253,32.9683331 68.6889028,32.2677583 C68.9615329,31.9257644 68.9624377,31.5846752 68.5405245,31.2583636 C68.3740513,31.1289849 68.2941321,30.7471822 68.3402741,30.5044087 C68.415368,30.0797814 68.6876965,29.6819948 68.7407749,29.2585738 C68.796266,28.8276132 68.8025992,28.3088923 68.6129042,27.9497082 C68.2784498,27.3381001 68.2151176,26.7741419 68.3713371,26.1251376 C68.566159,25.2921683 68.7278069,24.4480405 68.8490428,23.6093412 C68.8801058,23.4090908 68.7109183,23.1832059 68.6192374,22.9727017 C68.501922,22.710627 68.2540217,22.4458381 68.2733229,22.193414 C68.3662102,20.5126979 68.536604,18.8346961 68.6593478,17.1527737 C68.7278069,16.1856004 69.0013417,15.1351906 68.726299,14.2627141 C68.3095128,12.9408805 68.0631203,11.6697127 68.2268793,10.3077687 C68.2642755,10.0251864 68.2706087,9.69465262 68.152087,9.44946652 C67.5827003,8.26847169 66.937315,7.11823822 66.3655157,5.93844972 C65.6130688,4.39223918 64.5689921,3.11564289 63.0134326,2.35897383 C62.2079072,1.96661575 61.3330181,1.67257337 60.4578273,1.48529099 C58.5292109,1.07604432 56.5698331,0.961141601 54.6131696,1.21688308 C53.6490121,1.34686489 53.1622589,1.81160264 53.1480846,2.58636661 C53.1236564,4.42058789 53.1414498,6.25722182 53.144164,8.1948857 L53.144164,8.1948857 Z M281.911547,32.8899218 C281.973372,32.8706205 282.040624,32.8564462 282.101242,32.8380497 C281.805692,32.5165634 281.505316,32.1941723 281.223639,31.8609243 C279.762173,30.1328598 279.726285,29.5749332 281.521602,28.1424191 C283.107923,26.8736639 284.010256,25.2985015 284.414376,23.3701867 C284.506057,22.9160043 284.631213,22.4575998 284.761798,22.0151791 C285.179791,20.6517272 285.678004,19.3314015 287.086392,18.6359536 C286.163249,17.5152752 286.163249,17.5152752 286.093885,16.0450633 C286.084536,15.8282259 286.100219,15.6011347 286.064029,15.3870115 C285.716908,13.3914439 285.435231,11.3817019 284.983762,9.40664188 C284.750036,8.41685 284.12154,7.57392851 282.958338,7.53231021 C283.126319,7.02414466 283.292793,6.5295503 283.474948,5.97976645 C283.123907,5.97735379 282.902847,5.97976645 282.657661,5.97735379 C282.719787,6.60162838 282.606091,7.02625573 281.73482,6.87938534 C281.797851,6.52201075 281.85485,6.16041402 281.918182,5.8003252 C281.995689,5.35247604 282.182669,4.88773829 282.132607,4.45949195 C281.958293,3.01220029 280.867169,2.4195918 279.626763,2.12434309 C278.586607,1.88156964 277.507546,1.81431687 276.424566,1.66744647 C276.393503,1.50067167 276.36244,1.30705607 276.352488,1.26332669 C274.812309,1.50338591 273.294447,1.72655653 271.779299,1.98229801 C271.613731,2.00551981 271.354672,2.20275439 271.351958,2.32549824 C271.32753,4.17389387 271.332355,6.03163854 271.329641,7.91200185 C272.823376,8.11195067 274.199193,8.4451987 275.386822,9.29445341 C277.48915,10.8162358 278.205709,13.0452278 278.196661,15.4684386 C278.193042,17.006808 277.737352,18.5430664 277.46623,20.0787215 C277.291915,21.094751 276.936953,22.1143995 277.543435,23.0037646 C275.652516,23.4956448 273.768232,23.9766679 271.820314,24.4827224 C271.762109,24.4326598 271.563668,24.2544249 271.346831,24.1087608 C271.324815,24.0969991 271.067566,24.3153444 271.085962,24.3979779 C271.137835,24.6663858 271.262689,24.9296668 271.401116,25.3012158 C271.399608,26.8812035 271.402322,28.600522 271.401116,30.4079025 C272.006391,30.4063946 272.571555,30.4063946 273.305907,30.4079025 C272.831217,30.7872926 272.50581,31.0439388 272.069723,31.3976944 C272.590856,31.3976944 272.965119,31.4233289 273.322796,31.388647 C273.75647,31.3485366 273.908769,31.5303905 274.004672,31.941145 C275.364505,37.9857516 276.751179,44.0201044 278.115234,50.0583777 C278.169519,50.2776278 278.172233,50.5448294 278.085981,50.7474924 C277.679147,51.7209989 277.925841,52.290084 278.97233,52.3868918 C279.961519,52.479779 280.967897,52.406193 281.909135,52.4049867 C281.945325,52.1248171 281.980006,51.8265526 282.021323,51.5285896 C282.120845,51.5361292 282.218859,51.5349228 282.314461,51.5400497 C282.372365,51.8277589 282.425141,52.1181823 282.505362,52.5793011 C282.978846,52.246053 283.408902,51.9414553 283.880274,51.6088104 C284.04916,51.8938053 284.238855,52.2231328 284.539532,52.7509012 C284.942144,52.2101648 285.328169,51.7671409 285.638195,51.2782766 C286.08333,50.5731781 286.314643,49.7046221 287.255277,49.4039449 C287.124089,49.3249305 287.041154,49.2784869 286.959727,49.2296306 C285.143601,48.2630605 285.022365,47.964796 285.602005,46.041608 C285.658703,45.8633731 285.621307,45.5847114 285.508817,45.4505075 C283.8661,43.4470987 283.766578,40.985587 283.430616,38.5949471 C283.412822,38.4722033 283.569042,38.3343803 283.628453,38.1959542 C283.721039,37.9908785 283.803974,37.7764538 283.890226,37.5662511 C283.700531,37.4980936 283.514757,37.4296345 283.417949,37.3931431 C282.937831,36.2136562 282.440824,35.0504547 281.991768,33.8589045 C281.879278,33.5660685 281.935071,33.2174398 281.911547,32.8899218 L281.911547,32.8899218 Z M110.743598,31.4004087 C110.81447,31.5692945 110.875389,31.6712292 110.903738,31.7849256 C112.295237,37.8955786 113.689148,44.0062316 115.074013,50.1214083 C115.11925,50.3304046 115.098742,50.6018284 115.013395,50.7966503 C114.628878,51.6872217 114.857477,52.2837508 115.814999,52.3844791 C116.843997,52.4939534 117.894407,52.4101136 118.867612,52.4089073 C118.898675,52.1196902 118.92069,51.8371079 118.954166,51.5545257 C119.047053,51.5530178 119.146575,51.5503035 119.242177,51.5490972 C119.307921,51.8482665 119.375174,52.1441183 119.475903,52.6130782 C119.944259,52.2641479 120.351998,51.9583439 120.814323,51.6136357 C120.988637,51.9079797 121.191301,52.2475609 121.506152,52.7768372 C121.921732,52.2101648 122.292075,51.7529666 122.60572,51.2598801 C123.047236,50.5656385 123.267994,49.7019079 124.12901,49.4582297 C123.612702,49.0812523 123.055077,48.7262904 122.556863,48.2965361 C122.116554,47.9144318 121.913891,47.3580132 122.228742,46.8392922 C122.691067,46.07629 122.622608,45.4839831 122.012207,44.8265345 C121.675339,44.4628267 121.436487,43.9543595 121.314949,43.4676063 C120.90721,41.7600494 120.566423,40.0380166 120.201207,38.3159838 C120.322443,38.3226186 120.446393,38.3355866 120.566423,38.3395072 C120.660516,38.0982417 120.792308,37.862103 120.821863,37.6151074 C120.828497,37.5469499 120.49163,37.4486342 120.340538,37.3789688 C119.905355,36.2857343 119.42011,35.1355008 118.987641,33.9738072 C118.866405,33.6372418 118.871532,33.2509154 118.819962,32.8860012 C118.889627,32.8730332 118.955372,32.8564462 119.022625,32.835637 C118.668869,32.4303109 118.302447,32.0340323 117.960453,31.6172461 C116.793633,30.1793034 116.827108,29.6886296 118.148942,28.4029859 C118.218607,28.3321141 118.285559,28.2612424 118.365478,28.2054497 C120.15597,27.0048521 120.98713,25.2405978 121.409344,23.204015 C121.55531,22.5106782 121.761592,21.8251825 122.005572,21.1629086 C122.39039,20.1085781 122.93746,19.163722 124.136851,18.6253982 C122.98903,17.9709654 123.062918,16.9060797 123.039395,15.8710505 C123.029141,15.7045773 123.039395,15.5314692 123.00984,15.3634881 C122.669052,13.3953644 122.388882,11.4022095 121.943747,9.4530855 C121.706101,8.44127814 121.072477,7.59594399 119.917117,7.53381812 C120.085098,7.01479562 120.238603,6.5295503 120.410203,5.98609967 C120.061575,5.98489334 119.853785,5.98248068 119.62036,5.98097278 C119.660169,6.59559674 119.569996,7.06395347 118.689678,6.88451223 C118.732201,6.55940691 118.684552,6.18635007 118.838057,5.92819594 C119.643582,4.56353772 118.813629,2.8300448 117.224593,2.37495767 C116.203437,2.08302637 115.127091,1.93826704 114.062205,1.82577699 C113.565198,1.76938117 113.234966,1.6970015 113.262108,1.25035867 C111.605821,1.54832161 109.978183,1.84296716 108.330038,2.14364434 C108.32853,4.0448168 108.33245,5.99906769 108.331244,7.94939801 C109.86328,8.13396615 111.276795,8.50310243 112.481011,9.42503838 C114.489547,10.9634078 115.164487,13.1628448 115.1479,15.5275487 C115.129504,17.067426 114.666274,18.6006685 114.402993,20.1342126 C114.238932,21.1336551 113.884272,22.1466688 114.494674,23.0191453 C112.610088,23.5086128 110.701075,23.9974771 108.771252,24.4984047 C108.709428,24.4365804 108.529986,24.2607581 108.326117,24.1175067 C108.297768,24.0969991 108.060122,24.265885 108.069169,24.3126302 C108.114407,24.5671654 108.223881,24.8081293 108.291134,25.0611565 C108.324609,25.1965668 108.322197,25.3452467 108.32099,25.4924187 C108.324609,27.1004535 108.326117,28.7063773 108.326117,30.3973472 C108.932598,30.3973472 109.500477,30.3949345 110.074991,30.3973472 C110.087959,30.450124 110.109673,30.4980755 110.127768,30.5484397 C109.789694,30.8023717 109.463081,31.0517799 108.994724,31.4004087 C109.695601,31.401615 110.219448,31.401615 110.743598,31.4004087 L110.743598,31.4004087 Z M43.862377,25.3877698 C43.0245824,25.3877698 42.4024189,25.3877698 41.7956361,25.3889761 C41.6912887,24.6365292 41.6409246,23.9486208 41.5040064,23.2839343 C41.3891037,22.7157539 41.1553777,22.1750175 40.449676,22.1376213 C39.787402,22.1065584 39.5162799,22.5547092 39.3588541,23.1213816 C39.2065552,23.6398009 38.9185445,23.9887312 38.2680323,23.8919234 C38.2707465,23.3765199 37.998418,22.793562 38.7599124,22.4705678 C38.0861784,21.829103 38.4450609,21.2343835 38.854006,20.7216942 C39.3407592,20.1152129 39.8401789,19.4502248 40.4843579,19.0448987 C41.8809838,18.1606605 42.0565045,16.9516185 41.8939518,15.4630101 C41.7169232,13.8598006 41.6433372,12.215576 42.2603738,10.6717781 C42.5637653,9.90485523 42.501941,9.23654968 42.1328047,8.57789475 C41.8616825,8.09536366 41.9581887,7.75427451 42.4244344,7.49762829 C41.7868902,6.90140082 41.7672874,5.67637503 42.3119443,5.02073592 C41.4111191,3.82043985 42.8116656,2.75525248 42.487465,1.53203619 C41.8227785,1.53324252 41.1541713,1.53414726 40.4882784,1.53324252 C40.466263,1.10710725 40.4418348,0.778081372 40.4237399,0.443325433 C40.361614,0.412865658 40.2946628,0.379088482 40.2352512,0.33656543 C39.9330661,0.713241257 39.6351032,1.09444081 39.2439514,1.58089246 C37.942927,1.58089246 36.503778,1.58209879 35.0151696,1.58089246 C35.0151696,1.91655315 35.0151696,2.17983417 35.0139633,2.44974999 C35.0151696,7.96749293 35.0166775,13.4804106 35.012757,18.999963 C35.0100427,19.2605298 34.9648054,19.5183823 34.9171555,19.7783459 C34.8372363,20.2105128 34.6499539,20.6375528 34.657795,21.0600691 C34.6719694,22.1183201 35.2308007,22.9534005 35.863218,23.5586754 C34.9340441,24.5822444 34.0525201,25.5554493 33.1902974,26.5108609 C32.3705977,25.9079986 31.8208139,26.0036001 31.3624093,26.7895226 C31.1326039,27.1897218 30.9854319,27.6429994 30.8590691,28.0866264 C30.6847547,28.6729017 30.6048355,29.292351 30.4033788,29.8602298 C30.319539,30.1120507 30.0098144,30.2812381 29.8005165,30.4839012 C29.6186626,30.2347945 29.2983826,29.9947353 29.2817956,29.7299464 C29.2558596,29.3170807 29.3617148,28.8586762 29.5333149,28.4687307 C30.0511311,27.2192768 29.9814657,26.0979952 28.9422144,25.1000606 C29.075212,25.0469822 29.1952416,25.0080781 29.2998905,24.9462538 C29.6069009,24.7797806 29.9039591,24.6093868 30.2097632,24.4338661 C29.9748309,24.1823468 29.7839295,23.8490988 29.4998393,23.6841335 C28.8828027,23.3406317 28.6195217,22.8553863 28.7190437,22.184065 C28.867422,21.1179729 29.0492759,20.067563 29.1901147,19.1531666 C30.9196871,19.3510043 32.476453,18.869378 34.0666945,18.6640007 C33.7322401,18.5415585 33.4017063,18.4999401 33.0675535,18.458925 C30.7028497,18.1389466 28.7938361,16.4425482 28.3137176,14.1541446 C28.1496571,13.36973 27.9316133,12.5201737 28.561618,11.7945676 C27.4991448,10.5604943 26.2961345,7.83871744 25.9128239,5.64531209 C25.8172224,5.10216304 25.9490137,4.5170941 25.9773624,3.78666267 C25.7306684,3.69769601 25.2623117,3.54027024 24.7122263,3.35660685 C24.7110199,6.55820058 24.7149405,9.62106663 24.7164484,12.6788058 C24.7164484,12.7771215 24.7110199,12.8995638 24.7625904,12.9641023 C25.3603258,13.6598518 25.4327055,14.3890769 24.9227304,15.2051576 C25.1820909,15.1002071 25.4390387,15.0024945 25.7282558,14.8900045 C26.1981204,15.5519768 26.3594667,16.259488 26.0859319,16.9926337 C25.8235557,17.698637 25.5011646,18.3904659 25.1552501,19.0641999 C24.6311007,20.0944038 24.5614353,21.1077191 25.1085049,22.1520973 C25.3512784,22.6213588 25.4933234,23.1367623 25.6854311,23.6385946 C25.0014433,23.8297975 24.6401482,24.2064734 24.736956,24.8195894 C24.8750805,25.6781932 25.0454743,26.564844 25.4043568,27.3537824 C26.054869,28.7748364 26.862807,30.1198918 27.5869052,31.5110892 C28.0000724,32.299726 28.3782562,33.1142987 28.7694079,33.924951 C29.1889084,33.7470176 29.5580447,33.5829571 30.0058938,33.3929604 C29.9193398,33.6345276 29.870182,33.7545572 29.8005165,33.9261573 C30.6371048,33.9261573 31.3973928,33.924951 32.1522524,33.924951 C33.6290991,33.9276652 33.7750647,33.777779 33.6857965,32.2933927 C33.6728285,32.0934439 33.5398308,31.9085742 33.4768002,31.7059111 C33.4068332,31.5165177 33.3670244,31.3213942 33.3036922,31.1045568 C33.1450601,31.081335 32.942397,31.0581132 32.6960046,31.0270502 C32.8350339,30.6916911 32.9463176,30.4139342 33.093188,30.0680197 C32.7125916,30.1726686 32.4248825,30.2528894 32.0762537,30.350602 C32.44539,29.5764412 33.5594337,28.9039135 34.2123585,29.0806405 C34.5130357,29.1620676 34.9777735,29.5067757 34.9741545,29.7233116 C34.9533453,30.9896541 35.3004661,32.2897738 34.6783026,33.5621479 C34.9545517,33.6487019 35.202452,33.7569698 35.4593998,33.7958739 C36.109912,33.8990149 36.770678,33.9454585 37.4211902,34.0679008 C37.8548651,34.1429947 38.2707465,34.3121822 38.2577785,34.9599801 C37.3298109,34.9599801 36.4262715,34.9551548 35.5200178,34.9626944 C34.7416348,34.961488 34.5633999,35.1436435 34.6062245,35.9178043 C34.6409065,36.5502216 34.7120798,37.1763057 34.7687772,37.8048025 C34.6963975,37.8578809 34.6306527,37.9043245 34.5609872,37.9561966 C34.4098947,37.8011835 34.1800893,37.6721064 34.1245982,37.4872367 C34.0214572,37.1389096 33.9994417,36.7646464 33.9659661,36.4057639 C33.8601108,35.3345449 33.35285,34.8088876 32.2879643,34.9292188 C31.4049324,35.0323598 30.5466302,35.3447987 29.6442971,35.5733978 C29.706423,35.9889777 29.7269305,36.3569076 29.8083577,36.7064411 C31.0086537,41.6734954 32.826288,46.4209981 34.8191414,51.1115018 C34.908108,51.318387 35.2733238,51.5388434 35.5136846,51.542764 C37.2779388,51.5735253 39.0488279,51.5620652 40.8109711,51.5530178 C40.9747301,51.555732 41.1360764,51.5089868 41.2187099,51.5014472 C41.3619613,50.9371875 41.4819909,50.4416884 41.6137822,49.9522209 C41.7220501,49.5471964 41.9455223,49.1509177 41.947935,48.7495122 C41.9726647,45.4152224 41.960903,42.0800278 41.9596967,38.8350063 C42.2615802,38.734278 42.531496,38.6878343 42.7495397,38.5575509 C42.8140783,38.5213611 42.7959833,38.1383521 42.7314448,38.1112097 C42.5094805,38.0153066 42.2501201,38.0050529 41.9750773,37.9613235 C42.0242352,37.2782404 41.6704796,36.4754293 42.4645448,35.9271534 C41.6614321,35.0570895 41.7802554,32.7593368 42.7613014,32.3835657 C42.4256407,31.9978424 42.1183288,31.6464995 41.8758569,31.3666315 C41.8782695,30.4591715 41.8782695,29.61625 41.8770632,28.7048694 C41.7066694,28.9823248 41.5724655,29.202178 41.4367536,29.4199201 C40.7515595,27.2919581 42.268215,26.4101325 43.862377,25.3877698 L43.862377,25.3877698 Z M245.772382,14.2636188 C245.9856,14.2883485 246.056472,14.3064435 246.131566,14.3037292 C247.453098,14.2753805 247.747442,14.6396915 247.028169,15.7175453 C246.081202,17.1488531 246.152074,18.6591754 246.429529,20.1809578 C246.947043,23.0155263 247.555033,25.8407458 248.18745,28.6599337 C248.861486,31.651928 249.344318,34.6698583 249.40192,37.7441845 C249.412777,38.1510185 249.444745,38.5846933 248.852438,38.7421191 C248.790312,38.5316149 248.725774,38.3573005 248.684759,38.1703197 C248.469127,37.1660519 248.279432,36.1554509 248.058373,35.1535957 C247.930804,34.6041135 247.593635,34.3495783 246.993487,34.3809428 C246.114677,34.4270849 245.229233,34.3948156 244.34228,34.3948156 C243.392297,34.3936093 243.286442,34.2192949 243.748466,33.4255313 C242.352141,32.6278471 242.283682,32.4924368 242.495091,30.8467042 C242.548169,30.433537 242.674834,30.0282109 242.696548,29.6111231 C242.770134,28.5000953 243.281617,27.7485531 244.36309,27.3987181 C244.537404,27.343227 244.688496,27.2011819 244.848335,27.1067868 C244.852557,27.0256612 244.853462,26.9430278 244.855874,26.8631086 C244.268694,26.7533327 243.684229,26.6501917 242.970384,26.5226226 C243.132937,25.5361481 243.274982,24.5023252 243.483978,23.4799625 C243.938161,21.3037473 244.449644,19.1353733 244.899001,16.9537296 C244.963238,16.6325449 244.813653,16.2570754 244.734638,15.9123672 C244.684576,15.6683874 244.512976,15.4397883 244.510262,15.1985228 C244.448437,11.7131405 244.037683,8.26032898 243.361536,4.84762789 C243.187222,3.9881194 242.912179,3.14278526 242.600042,2.32308558 C242.368728,1.72022331 241.595774,1.40899076 240.866549,1.51243336 C240.153609,1.6001937 240.364113,2.19521485 240.286908,2.60054096 C239.985929,4.23722607 239.717522,5.88295865 239.438558,7.52356433 C238.504257,13.1498768 237.640527,18.7879509 236.617259,24.4031048 C235.593389,30.0227824 235.075874,35.7244903 233.5556,41.2657566 C232.986213,43.3346087 232.7359,45.4903163 232.424667,47.6240084 C232.188227,49.238678 232.092927,50.8741568 231.922835,52.6049355 C232.600188,52.4475098 233.120417,52.3145121 233.642154,52.2047363 C233.854769,52.1634196 234.154541,52.0795798 234.276984,52.1830224 C235.034557,52.8308204 235.916383,52.492747 236.742416,52.5458255 C238.310642,52.643538 239.103199,51.6872217 239.640015,50.4018795 C239.798949,50.0155531 239.935867,49.6247029 240.039008,49.2193768 C240.390049,47.7684662 240.681679,46.3033812 241.06499,44.8630259 C241.33762,43.829203 241.785469,42.8713788 243.061764,42.4416246 C242.793356,42.4259423 242.691722,42.4352914 242.594613,42.4114664 C242.234826,42.3173728 241.602107,42.684398 241.568631,42.0875674 C241.549029,41.7301928 241.972751,41.3106924 242.278254,40.9970471 C242.411553,40.85651 242.736658,40.8806365 242.979432,40.8746049 C244.500008,40.8631448 246.019377,40.8501767 247.538446,40.8794302 C248.074055,40.8887792 248.472746,40.8384151 248.652188,40.2292196 C248.741154,39.9372883 249.029165,39.7011496 249.339191,39.2970298 C249.502649,39.8751624 249.671836,40.2575683 249.722502,40.6589738 C249.895308,41.9678394 249.980354,43.289673 250.183018,44.5934116 C250.327777,45.531633 250.611565,46.4430136 250.850418,47.3568068 C250.944813,47.7208162 251.162556,48.0588895 251.178238,48.4138515 C251.224682,49.4063576 251.19392,50.4067049 251.195126,51.4203217 C253.729018,51.4203217 256.172435,51.4191154 258.554932,51.4160996 C258.700897,50.9673457 258.753976,50.5255281 258.978353,50.2004228 C259.181016,49.8931108 259.570961,49.7124633 259.89486,49.459436 C258.859831,48.9431278 258.201478,48.0667307 257.920102,46.9098624 C257.654408,45.8015488 257.461697,44.69414 258.120352,43.6367938 C258.161367,43.569541 258.118844,43.4314165 258.085067,43.3291802 C257.44119,41.2331858 256.737901,39.1438262 256.155546,37.0212926 C255.863615,35.9552005 255.785203,34.8284904 255.62627,33.8163815 C255.98274,33.7856201 256.262909,33.8423175 256.36605,33.7298275 C256.470398,33.6128137 256.395605,33.3365646 256.398319,33.1272668 C256.176054,33.1272668 255.951375,33.1284731 255.686888,33.1260604 C255.66246,32.8676047 255.643158,32.5708481 255.609683,32.2855516 C255.498399,31.4595187 255.584048,30.5291385 255.22215,29.8345953 C254.788777,29.0148956 254.688048,28.4762703 255.472463,27.9111058 C255.559319,27.8477736 255.625063,27.6273172 255.594,27.5151287 C255.394052,26.8890446 255.124136,26.2783412 254.958869,25.6420033 C254.858141,25.2484389 254.729365,24.7345433 254.897045,24.4287392 C255.281863,23.7329897 255.033661,23.3342984 254.540876,22.8683544 C254.19074,22.530281 253.774255,22.0978125 253.717256,21.668963 C253.634924,21.0458948 253.696749,20.3021937 253.988378,19.7626637 C254.262215,19.2475617 254.905791,18.9312023 255.352735,18.5572407 C254.775809,18.3750852 254.061964,18.1326134 253.332739,17.9257282 C252.899064,17.8084128 252.704242,17.6018292 252.644529,17.1256313 C252.51304,16.012794 252.304043,14.9017662 252.142395,13.7865162 C251.842924,11.731537 251.552501,9.67414505 251.242776,7.49521563 C251.866146,7.49642196 252.409597,7.49642196 252.950333,7.49762829 C252.975063,7.41409009 253.000999,7.33115506 253.029348,7.24339472 C252.792003,7.10165122 252.565816,6.8833059 252.307662,6.83173539 C251.463534,6.65078623 251.140842,6.20806397 251.148683,5.31236564 C251.156222,4.68507523 250.86218,4.03184878 250.621819,3.42808176 C250.378141,2.82129893 250.037353,2.25854705 249.680884,1.57667031 C248.693504,1.57425766 247.620777,1.59386048 246.543225,1.56551178 C246.282658,1.56008331 245.97022,1.46327551 245.768763,1.30192918 C245.028982,0.722590297 244.185156,0.976823861 243.980985,1.90207721 C243.902272,2.25975338 243.834115,2.63281022 243.870003,2.99561328 C244.064825,5.03883084 244.20687,7.09230218 244.542531,9.11229792 C244.836875,10.8653937 245.359516,12.5780774 245.772382,14.2636188 L245.772382,14.2636188 Z M0.869159113,40.3311543 C0.829350299,40.6538469 0.788033575,40.9750317 0.749129507,41.2989307 C0.844730977,41.3339142 0.932491318,41.3676913 1.03171177,41.4026748 C1.16621731,41.2111703 1.44879958,40.9650795 1.40235596,40.8486688 C1.31972251,40.6444979 1.0395529,40.5142145 0.839604085,40.3516618 C0.852572107,40.2099183 0.90926951,40.048572 0.860413238,39.9282408 C0.782906682,39.7297999 0.640560013,39.5591045 0.525958881,39.3799649 C0.408643511,39.4840106 0.177330173,39.6031355 0.186377631,39.6881816 C0.212313677,39.8908446 0.319375261,40.1103963 0.453579218,40.2717426 C0.524752553,40.3504555 0.725907698,40.315472 0.869159113,40.3311543 L0.869159113,40.3311543 Z" id="Fill-12" fill="#1A1918" mask="url(#mask-2)"></path>
            </g>
        </g>
    </g>
</svg>