<svg width="321" height="54" viewBox="0 0 321 54" xmlns="http://www.w3.org/2000/svg" xmlns:xlink="http://www.w3.org/1999/xlink"><title>product-logos</title><defs><path id="a" d="M156.828 52.777h156.654V.095H.173v52.682h156.655z"/></defs><g fill="none" fill-rule="evenodd"><path d="M157.705 48.201c-11.946.003-21.633-9.68-21.637-21.632 0-11.946 9.684-21.633 21.633-21.63 11.948-.003 21.639 9.676 21.64 21.626-.001 11.954-9.686 21.635-21.636 21.636zM157.7.008c-14.67.003-26.555 11.897-26.553 26.561.001 14.673 11.892 26.56 26.56 26.556 14.674.003 26.56-11.89 26.56-26.56-.003-14.668-11.894-26.56-26.567-26.557z" fill="#D8242C"/><path d="M157.704 37.897c-6.254 0-11.327-5.069-11.328-11.328-.002-6.257 5.07-11.327 11.324-11.329 6.263-.001 11.337 5.072 11.336 11.327 0 6.256-5.072 11.33-11.332 11.33zm-.004-27.895c-9.148.004-16.563 7.418-16.562 16.568.001 9.15 7.417 16.573 16.569 16.57 9.15-.004 16.564-7.422 16.564-16.573-.001-9.15-7.42-16.564-16.571-16.565z" fill="#D8242C"/><path d="M163.979 26.567a6.278 6.278 0 0 1-6.275 6.28 6.279 6.279 0 0 1-.002-12.556 6.278 6.278 0 0 1 6.277 6.276" fill="#D8242C"/><path d="M0 2.728c1.914-.215 3.83-.432 5.811-.653.022.314.045.526.045.741.005 3.238-.005 6.47.012 9.703.004.606-.082.97-.812 1.005-.591.023-.77.516-.506 1.053.178.362.302.75.464 1.164l.848-.292c.002.334.002.593.002.856 0 11.818 0 23.638.003 35.454 0 1.505-.416 1.763-1.846 1.173-.24-.097-.524-.09-.793-.1-1.076-.027-2.15-.049-3.221-.072C.002 36.077 0 19.404 0 2.728M200.283 53.323c-.06-.036-.116-.093-.18-.11-.651-.21-1.49-.174-1.579-1.13-.117-1.27.295-1.98 1.378-2.458-.014-.035-.018-.089-.05-.107-1.688-1.057-1.774-1.782-.341-3.191.507-.497 1.028-.987 1.594-1.413 1.232-.94 1.857-2.202 1.976-3.708.132-1.704.26-3.417.272-5.133.015-1.25-.593-2.24-1.705-2.905-.632.524-1.243.561-1.949.115-.239-.158-.668-.025-1.02-.025-.059-1.498-.462-1.98-2.186-2.238 2.04-.686 1.883-2.331 2.052-4.046.75.349 1.407.68 2.094.948.186.074.462-.01.68-.081.279-.086.536-.323.8-.332 2.06-.03 4.12-.003 6.18-.016.79-.009 1.098-.565.685-1.235a99.15 99.15 0 0 1 1.226-.001c.519.6-.47 1.68.79 1.97-.109.411-.253.827-.322 1.257-.064.415-.489.9.163 1.25.069.034.026.327-.002.488-.22 1.285-.33 2.592-.685 3.835-.565 1.969-.185 3.882.05 5.825.19 1.636.24 3.27-.148 4.889-.036.159.096.355.146.532.057.209.116.415.199.713-.872 0-1.62 0-2.495.003.525.957.996 1.745 2.042 2.09.518.176.94.662 1.39.993-.561.678-1.07 1.288-1.663 1.998-.75.002-1.674.003-2.674 0-.001-.575-.003-1.158 0-1.78-.587-.01-.942-.179-1.257-.68-.46-.74-2.162-.482-2.531.342-.097.198.053.513.1.872-.693 1.146-1.146 1.34-2.734 1.082v1.387h-.296" fill="#1A1918"/><g transform="translate(6.333 .603)"><mask id="b" fill="#fff"><use xlink:href="#a"/></mask><path d="M17.36 52.74c-.004-5.565-.002-11.126 0-16.694 0-1.059.077-1.175 1.122-1.129 1.753.082 3.502.224 5.118.332.353 1.656.673 3.084.967 4.511.153.763.323 1.504-.268 2.216-.275.334-.357.862-.423 1.312-.043.306.105.631.191 1.07-.065.28-.228.716-.24 1.158-.072 1.714-.09 3.424-.134 5.137-.004.242-.08.48-.146.718-.272.907-.567 1.084-1.455.75-.696-.26-1.304-.327-1.92.186-.141.107-.464-.042-.686.006-.567.122-1.123.282-1.682.427h-.444M246.36 23.27c.048-.092.093-.19.142-.286-.192-.089-.382-.244-.58-.254-.107 0-.324.236-.317.364.006.176.174.34.279.514.153-.114.317-.223.476-.338zM124.07 42.686c-.252-.189-.402-.377-.567-.39-.097-.006-.33.283-.3.392.034.157.226.337.394.399.071.035.247-.201.474-.401zm162.594.6c.144-.304.311-.487.274-.612-.05-.163-.25-.283-.384-.42-.11.141-.31.29-.301.426.012.167.202.317.411.606zm-55.54.505l-.336-.01c.003.324.003.647.001.97l.335.004c.002-.32.002-.64 0-.964zM.929 20.278c.07-.117.147-.234.215-.348-.182-.049-.39-.17-.56-.131-.164.033-.399.23-.408.37-.009.14.203.346.361.417.073.031.256-.198.392-.308zm94.254 24.457c.1.014.193.023.288.035.443-.342.352-.66-.24-.98-.014.317-.033.633-.048.945zm-40.362-6.353a7.59 7.59 0 0 1-.453-.018c-.01.28-.033.563-.01.832-.002.033.273.043.422.064.01-.293.024-.586.041-.878zm244.61-.001a14.055 14.055 0 0 0-.437-.074c-.033.276-.09.558-.093.837 0 .037.277.073.422.117.036-.296.075-.586.109-.88zm-191.095 3.49c.207-.303.42-.473.397-.62-.018-.157-.244-.287-.385-.428-.121.13-.328.258-.336.392-.005.168.16.342.324.657zm163.05-.018c.21-.302.418-.474.402-.62-.022-.16-.25-.286-.39-.428-.12.13-.329.258-.334.395-.006.165.16.337.323.653zm26.794-16.73l-.455-.405c-.13.146-.356.3-.356.446.003.153.229.302.356.454.135-.144.265-.288.455-.495zm-244.577.03l-.451-.408c-.132.147-.362.298-.36.445.002.153.226.306.355.456.131-.14.262-.281.456-.493zm-18.984-2.647c-.201.336-.386.516-.373.679.016.154.231.295.358.447.113-.135.303-.272.307-.415.011-.173-.134-.353-.292-.711zm56.415 23.552c-.188.274-.37.426-.36.558.019.175.181.333.28.502.142-.132.375-.252.393-.398.022-.157-.152-.348-.313-.662zm135.553 1.233c.148-.318.325-.505.292-.653-.033-.155-.259-.269-.4-.404-.099.174-.263.336-.274.52-.006.13.183.269.382.537zm56.87-43.774a9.989 9.989 0 0 0-.295-.047c-.481.322-.486.647.176 1.164.05-.48.089-.797.119-1.117zm-163.535.98c.136-.002.258-.002.391 0 .015-.286.034-.577.056-.865-.164.013-.327.023-.49.028.015.274.031.558.043.837zm130.4-3.808c-.22-.258-.366-.424-.507-.594-.133.15-.38.302-.376.44.005.19.212.368.332.542.159-.113.311-.221.55-.388zM20.598 3.057c.137.013.281.022.417.035.028-.281.063-.564.055-.842.001-.026-.307-.037-.47-.055-.004.288 0 .574-.002.862zM206.65 36.89c-.137-.007-.272-.023-.407-.03-.03.28-.068.558-.06.835.002.035.303.052.469.071l-.002-.876zM1.02 35.995c-.206-.224-.339-.37-.467-.513-.138.14-.37.277-.38.424-.006.16.206.324.32.482.15-.111.298-.225.526-.393zm26.93-.564c.162.003.329.005.494.01.002-.287.002-.571.002-.854-.167-.001-.472-.015-.475.001-.03.28-.021.562-.021.843zM.748 31.484c-.158-.001-.311.001-.471-.001-.003.283-.01.553.02.825.004.023.29.011.45.011.002-.278 0-.552 0-.835zm216.196-.462c.139.02.28.037.424.062.046-.275.11-.544.112-.82 0-.04-.298-.085-.455-.122-.027.292-.052.586-.08.88zm-135.517.023c.153.012.309.02.462.032.017-.278.056-.556.037-.835-.01-.045-.273-.067-.414-.098-.03.3-.056.602-.085.901zM252.476 8.948c-.145-.006-.288-.016-.428-.024.002.285-.005.573.018.86.004.027.238.03.367.042.01-.293.027-.584.043-.878zm-45.98 2.156c.136-.355.28-.551.251-.715-.022-.155-.227-.284-.35-.42-.116.164-.32.327-.322.494-.003.165.197.324.42.641zM24.545 16.09l-.003 1.059c.142-.01.348.049.417-.027.345-.357.151-.63-.414-1.032zm57.751 2.914c-.062-.097-.116-.195-.175-.29-.155-.12-.31-.246-.468-.372-.101.166-.285.33-.278.487.004.151.204.404.329.413.19.01.394-.15.592-.238zM217.842 19c-.06-.103-.13-.205-.185-.309-.16-.12-.317-.241-.474-.361-.102.161-.283.33-.277.489.005.148.205.397.332.401.198.016.406-.138.604-.22zm81.825 25.224c-.401.248-.48.551-.172.885.06.069.347.042.41-.033.314-.374.136-.643-.238-.852zm-244.595.02c-.376.27-.47.578-.144.903.062.068.349.027.41-.056.298-.38.114-.638-.266-.847zm15.891-2.705c-.41-.374-.553-.496-.697-.623-.122.153-.34.308-.34.465.003.148.204.406.35.43.176.029.381-.136.687-.272zM1.1 9.297c-.121.03-.232.058-.352.09.046.309.097.62.142.93.166-.065.471-.155.47-.184-.054-.285-.167-.558-.26-.836zm107.82 1.776c.162-.352.33-.547.302-.705-.025-.162-.236-.295-.376-.44-.103.164-.284.327-.292.497-.006.158.172.328.366.648zm163.717-.857c-.31-.133-.516-.297-.698-.276-.134.02-.334.277-.33.426 0 .159.202.317.32.476.144-.126.29-.254.708-.626zM.69 15.637c-.71.68-.7.772.119 1.271l-.119-1.27zm227.07 28.16c-.147-.012-.297-.02-.444-.034-.018.28-.052.567-.032.838-.003.034.273.049.422.071.016-.29.032-.58.054-.875zM92.17 43.78c-.128 0-.254-.001-.379-.012-.024.283-.042.568-.072.844.17.01.336.019.496.03-.017-.288-.03-.578-.044-.862zM81.625 24.914c-.133.4-.257.607-.254.808.009.136.198.258.308.39.128-.174.337-.345.363-.53.016-.151-.196-.326-.417-.668zm135.614-.024c-.18.35-.336.52-.334.687 0 .171.16.347.253.518.145-.132.407-.253.419-.4.019-.192-.154-.401-.338-.805zm52.883 15.324c-.145.019-.292.036-.437.058.022.282.045.557.073.843l.482-.053c-.035-.282-.075-.57-.118-.848zm-65.645-1.912c-.341.228-.573.497-.231.872.078.084.42.086.478.006.278-.357.154-.665-.247-.878zm93.52-1.856c-.15-.018-.304-.04-.452-.06-.042.277-.097.566-.094.849 0 .043.275.085.42.134l.126-.923zm-244.607.018c-.143-.017-.274-.037-.416-.058-.046.285-.1.568-.105.85-.001.03.307.066.474.101.015-.3.03-.596.047-.893zm53.717 3.79c-.14.002-.284.009-.42.007 0 .283-.003.566-.002.842.162.003.321.001.486.001-.024-.281-.04-.573-.064-.85zm-6.425-5.153c-.012-.155-.031-.315-.047-.471-.19-.088-.435-.288-.568-.23-.19.08-.362.337-.414.547-.022.105.241.384.382.394.21.008.43-.149.647-.24zm163.051-.013c-.019-.163-.03-.323-.04-.48-.202-.084-.444-.284-.578-.227-.187.08-.361.338-.41.547-.021.104.239.385.38.395.212.01.434-.149.648-.235zM97.852 19.48c.18-.316.35-.487.34-.64-.011-.177-.194-.343-.295-.513-.16.145-.433.275-.453.438-.022.17.197.374.409.715zm136.03-.723c-.213-.188-.36-.318-.509-.444-.136.161-.405.34-.39.486.023.168.284.31.446.465.128-.147.257-.286.453-.507zM56.462 51.834c-.008-.761-.265-.835-1.335-.396l1.335.396zm243.18-.755c.423.72.915.643 1.515.543-.299-.877-.938-.348-1.514-.543zM41.16 20.79l.517-1.07-.174-.207c-.37.193-.74.38-1.238.635.382.282.578.415.895.642zm-8.873 3c-.137-.052-.282-.11-.422-.163-.268.46-.562.913-.766 1.395-.062.158.121.416.194.629.237-.096.626-.136.683-.296.174-.492.214-1.035.31-1.564zm-.562-3.062c-.616.832-1.215 1.65-1.78 2.42 1.266.081 2.11-.994 1.78-2.42zM222.54 45.12c.036-.09.081-.194.124-.291.334-.021.683.013 1-.065.49-.122 1.01-.235 1.428-.499.523-.329.728-.97.46-1.482-.162-.308-.754-.527-1.153-.53-.391 0-.856.233-1.16.51-1.182 1.088-2.33 2.228-3.464 3.365-.117.12-.138.366-.14.55-.01 1.64.01 3.284-.015 4.926-.009.532.242.728.72.818 2.768.52 6.097-.862 7.617-3.222.288-.443.427-.986.688-1.63-1.8.001-3.382.003-4.947.001-.13-.632.091-.868.648-.82.266.024.545.035.807-.01.147-.024.27-.185.405-.284-.12-.121-.225-.305-.372-.35-.441-.141-.911-.194-1.35-.352-.45-.168-.866-.42-1.296-.635zm-135.53.02c.036-.096.076-.197.119-.292.33-.021.674.009.999-.07.488-.118 1.007-.235 1.426-.497.527-.325.73-.962.466-1.478-.161-.308-.751-.53-1.148-.53-.391-.008-.86.225-1.16.502-1.19 1.092-2.328 2.231-3.465 3.37-.115.112-.14.358-.145.543-.006 1.641.01 3.284-.014 4.926-.007.535.236.73.719.824 2.757.52 6.091-.857 7.618-3.217.286-.441.423-.986.688-1.632h-4.96c-.106-.62.092-.873.651-.822.273.027.549.036.806-.008.15-.026.281-.185.418-.28-.123-.123-.226-.312-.37-.359-.438-.138-.912-.188-1.345-.348-.456-.165-.873-.414-1.303-.633zm203.932 6.981c1.627-.898 2.852-2.39 4.813-2.469.555-.026.787-.375.869-.826.347-1.988.31-3.956-.44-5.852-.459-1.15-1.345-1.814-2.61-1.805-.753.006-1.512.096-2.256.234-.672.121-1.006.52-.994 1.288.038 3.065.016 6.127.015 9.186v.655c.328.002.593.001.922.002-.118-.156-.202-.262-.319-.413zm-244.564.028c1.656-.95 2.984-2.454 5.055-2.549.217-.013.538-.442.59-.72.38-2.032.331-4.049-.47-5.988-.324-.775-.89-1.482-1.731-1.55-1.1-.087-2.223.054-3.328.186-.547.067-.761.516-.742 1.09.035 1.199.009 2.401.009 3.6v6.342l.9-.001c-.1-.142-.184-.26-.283-.41zM2.165 22.132c-.095 0-.246.026-.387-.003-.693-.128-1.052.138-1.092.852C.6 24.54.478 26.095.42 27.657c-.018.427.102.874.24 1.287.162.473.455.65 1.024.447.625-.224 1.323-.37 1.981-.338 1.317.076 2.62.318 3.932.459.892.094 1.762-.545 1.865-1.42.175-1.5.327-3.014.402-4.524.062-1.164-.596-1.65-1.731-1.4-.23.055-.469.141-.691.242-.707.325-1.391.248-2.135.045-.844-.228-1.736-.295-2.52-.42-.043.421-.054.673-.108.913-.003.033-.298.057-.307.033-.082-.25-.137-.52-.208-.849zM.273 8.468c.514.002.831.015 1.145 0 3.179-.166 6.353-.334 9.528-.51.648-.04 1.476.077 1.88-.27.427-.362.466-1.195.64-1.83.264-.968.51-1.93.006-2.927-.112-.225.026-.596.086-.894.068-.358.181-.71.27-1.064-.063-.036-.127-.088-.189-.13-.3.138-.642.222-.887.424-.447.372-.885.365-1.354.105-.725-.408-1.417-.328-2.175-.034-.438.17-1.11.271-1.452.052-1.143-.748-2.243.009-3.348-.02-1.167-.036-2.353.537-3.658-.206C.602 3.602.44 5.984.273 8.468zm7.8 44.122c.06-.35.113-.647.165-.944.109.008.213.02.321.027.016.305.034.603.056.919l1.952.004c.037-.34.073-.644.107-.951l.298-.021c.073.311.137.618.212.966 1.37.07 1.111.173 1.558-1.051.382-1.05.693-2.138.942-3.236.098-.444.041-.976-.113-1.414-.256-.722-.512-1.4.005-2.173-.258.055-.408.076-.546.117-.779.222-1.575.862-2.3-.128-.047-.065-.234-.032-.356-.033-1.66.001-3.33-.001-4.996.01-.163 0-.408.025-.462.124-.302.514-.76.48-1.229.428a196.15 196.15 0 0 1-2.811-.326c-.43 2.466-.684 5.063-.186 7.72.173-.153.284-.345.404-.348 1.09-.05 2.292-.372 3.239-.01.993.38 1.892.23 2.69.342.106-.379.185-.68.27-.984.095.017.188.032.28.05.003.298 0 .603.002.91.212.002.402.002.498.002zM196.62.77c-.405.074-.802.199-1.21.208-.635.028-1.275-.01-1.91-.048-.95-.067-1.318.253-1.319 1.18-.004 1.271-.022 2.547.013 3.818.013.297.161.668.374.869 2.116 1.998 3.456 4.427 4.042 7.264.232 1.14.36 2.302.546 3.525h1.932c.03.438.053.79.08 1.215.888 0 1.715-.018 2.547.007.472.011.804-.024 1.007-.58.126-.333.593-.534.881-.82.154-.144.34-.334.363-.514.155-1.412.28-2.829.4-4.242.108-1.264.274-2.52-.266-3.76a18.856 18.856 0 0 0-3.557-5.354c-1.01-1.078-2.073-2.108-3.586-2.458-.128-.026-.223-.198-.337-.31zM23.802 2.176c-.061-.071-.131-.145-.196-.216-.494.257-1.155.398-1.45.806-.375.507-.75.595-1.275.556-.27-.017-.535 0-.786-.001-.282 1.134-.479 1.217-2.222.915-.002-.399-.003-.81 0-1.221-.002-.854-.002-.854-.476-.883-.015.062-.04.138-.037.208-.004 3.7-.006 7.398-.002 11.102.003.632.64 1.045 1.297.852.197-.064.387-.163.593-.252.12 1.061-.274 1.42-1.893 1.693l.001.853c-.002 4.973 0 9.949.002 14.93-.002 2.426 0 2.442 2.43 2.393.416-.01.833-.253 1.244-.384 1.659.248 2.71-.192 3.047-1.607.407-1.704.451-3.436-.04-5.156a5.482 5.482 0 0 1-.222-1.433c-.013-7.428-.01-14.86-.01-22.28 0-.293-.003-.582-.005-.875zM290.34 40.772c1.044-.73 1.87-1.5 2.85-1.942 1.276-.578 1.583-1.43 1.712-2.776.195-2.102.81-4.171 1.234-6.253.202-.991.299-1.97-.886-2.645 1.444-.728 1.508-1.943 1.505-3.253-.03-6.404-.012-12.799-.018-19.196 0-.393-.013-.794-.076-1.176-.226-1.341-1.345-2.531-2.448-2.452-1.284.097-2.56.36-3.878.55-.001.266.001.457.004.65 0 10.836.001 21.674-.001 32.514.002.124-.05.296.014.365.808.856.428 1.617.056 2.574-.32.82-.07 1.87-.068 3.04zM45.814 1.656c-.031.15-.052.195-.053.243.004 11.033.003 22.068.006 33.103.002.16.004.352.092.474.638.913.646.967 0 1.955a.528.528 0 0 0-.093.262c-.006.964-.002 1.932-.002 3.108 1.042-.727 1.855-1.48 2.81-1.92 1.289-.592 1.652-1.441 1.754-2.826.129-1.842.765-3.638 1.092-5.464.213-1.18.773-2.475-.73-3.423 1.378-.702 1.489-1.851 1.486-3.121-.031-6.427-.017-12.847-.02-19.269a7.857 7.857 0 0 0-.066-1.174c-.22-1.41-1.402-2.616-2.562-2.5-1.24.118-2.467.364-3.714.552zm42.781.222c-.001.015-.01.157-.016.297-.04 3.285-.077 6.568-.12 9.854-.057 3.55-.133 7.104-.176 10.66a2253.09 2253.09 0 0 0-.155 16.471c-.006 1.775.991 2.529 2.738 2.15.57-.122 1.124-.365 1.702-.432.638-.077 1.362-.344 1.931.549.315-.81.635-1.491.846-2.211.552-1.83.47-3.732.473-5.616.002-2.152.079-4.304.082-6.453.002-.527-.137-1.059-.235-1.582-.085-.484-.205-.966-.305-1.451l.292.103c.19-.178.385-.366.578-.547-.211-.181-.426-.37-.638-.553-.165-1.003-.211-2.128-.152-3.252.042-.744.27-1.472.33-2.208.04-.514.06-1.087-.13-1.537-.27-.657-.403-1.204.03-1.608-.095-.57-.233-1.012-.232-1.455-.022-3.726-.013-7.45-.014-11.18l.002-.912c-2.288.307-4.497.603-6.83.913zm135.394.014c.003 3.136.025 6.417-.003 9.697-.034 3.697-.13 7.4-.173 11.094-.064 5.493-.127 10.986-.15 16.476-.008 1.772 1.002 2.518 2.748 2.136.573-.125 1.13-.369 1.704-.437.639-.07 1.367-.344 1.92.538.306-.782.628-1.445.838-2.138.553-1.835.475-3.733.483-5.617.006-2.179.077-4.354.077-6.525 0-.549-.166-1.103-.268-1.65-.08-.462-.174-.923-.267-1.378.089.03.165.062.253.098.202-.157.401-.316.609-.476-.21-.203-.426-.408-.636-.613-.167-.988-.21-2.093-.149-3.191.042-.77.273-1.518.333-2.282.042-.511.058-1.09-.143-1.536-.288-.657-.363-1.2.042-1.606-.095-.549-.236-.964-.238-1.38-.016-3.753-.01-7.506-.013-11.259 0-.285 0-.574-.002-.899-2.292.313-4.503.617-6.965.948zm39.962 2.03c-.087-.015-.17-.026-.257-.039 0-.547-.117-1.124.038-1.622.141-.469.564-.856.873-1.28-.266.028-.585.033-.89.094-1.09.23-1.186.34-1.169 1.454.081 4.758.149 9.506.255 14.26.08 3.602.202 7.197.32 10.802.011.338.118.674.18 1.02-.265.99-.572 3.713-.365 4.774l.913.062c-.417.653.043.842.547 1-.307.305-.543.6-.835.818-.41.308-.52.696-.537 1.205-.067 3.256-.198 6.514-.269 9.77-.041 2.052-.009 4.101-.007 6.204.035.004.22.07.305.007.67-.521 1.449-.327 2.193-.35 3.592-.065 2.636.407 5.424-2.258.551-.533.54-.676-.129-.98-.505-.228-.657-.555-.639-1.092.03-1.466.01-2.941.002-4.414 0-.217-.02-.436-.067-.648-.146-.647-.409-1.287-.437-1.939-.03-.652.14-1.301-.867-1.438.03-.058.057-.116.081-.174.792-.34 1.581-.687 2.44-1.057-.022-.16.01-.447-.115-.628-.709-1.065-.358-2.259-.446-3.4-.013-.22.053-.565-.056-.637-.748-.466-.302-.98-.064-1.482-1.827-.073-3.48-.456-4.704-1.886 1.028-.086 2.027-.073 3.031-.1.463-.013.78.057.944.57.074.226.417.361.64.54.05-.048.102-.1.158-.16-.332-1.018-.698-1.995-.21-3.114.732-1.68.122-3.014-1.622-3.735.967-.035.66-.602.483-1.063.298-.143.543-.26.785-.374.007-.117.023-.21.027-.313.18-3.957.37-7.925.529-11.886.01-.253-.182-.511-.232-.78-.054-.249-.097-.521-.055-.777.082-.454.306-.906.327-1.365.054-.979.018-1.96.02-2.94-.002-.795-.002-1.587-.002-2.59-.3.367-.49.525-.587.733-.315.65-.826.807-1.5.742-.373-.037-.796-.013-1.132.136-1.02.465-1.625.216-1.888-.869-.057-.224-.087-.453-.181-.904l-1.253 2.103zM107.44 2.224c-.06-.01-.116-.025-.164-.035-.14.17-.322.321-.407.517-.31.702-.862.8-1.552.77a2.997 2.997 0 0 0-1.251.236c-.756.336-1.352.138-1.637-.658-.122-.326-.173-.673-.306-1.201-.466.808-.842 1.452-1.212 2.099l-.274-.076c0-.524-.112-1.086.034-1.565.147-.47.565-.87.87-1.312-.28.035-.642.042-.988.13-1.02.245-1.074.307-1.055 1.386.073 4.63.143 9.26.246 13.887.084 3.748.203 7.498.327 11.244.01.337.139.672.243 1.156-.78 1.328-.216 2.992-.587 4.595.418.025.7.039 1.061.055-.355.629-.03.885.639 1.015-.343.311-.599.58-.889.794-.442.32-.553.721-.567 1.264-.086 3.673-.227 7.343-.318 11.019-.042 1.633-.007 3.265-.008 4.93.09.005.249.06.32.008.697-.519 1.496-.345 2.264-.358 3.526-.07 2.616.387 5.31-2.182.035-.037.07-.072.105-.104.445-.38.529-.722-.123-.953-.551-.194-.696-.561-.675-1.13.037-1.475.014-2.945.006-4.416a2.883 2.883 0 0 0-.095-.64c-.138-.627-.416-1.252-.407-1.872.01-.697.078-1.31-.778-1.661.795-.341 1.599-.682 2.438-1.04-.043-.227-.006-.548-.15-.738-.564-.732-.4-1.57-.413-2.378-.01-.393.002-.787-.005-1.182-.003-.142.012-.369-.068-.413-.745-.445-.311-.942-.016-1.444-1.845-.064-3.5-.454-4.751-1.882 1.013-.093 2.013-.072 3.004-.104.497-.017.822.069.996.608.068.21.414.324.64.484-.13-1.1-.628-2.01-.14-3.004.378-.76.4-1.545.207-2.364-.222-.921-.808-1.41-1.768-1.59 1.026-.044.667-.615.457-1.154 1-.025.861-.711.85-1.323-.006-.321-.035-.642-.019-.957.177-3.327.365-6.65.534-9.982.016-.314.017-.741-.17-.935-.34-.355-.268-.629-.06-.97.113-.18.28-.376.285-.575.023-1.998.015-3.998.016-6zm107.382 28.661c.25.022.52.119.584.039.118-.142.204-.413.15-.59-.195-.73-.512-1.43-.65-2.167-.084-.468-.054-1.046.154-1.456.324-.64.349-1.206.031-1.811-.424-.812-.34-1.619-.129-2.489.205-.837.29-1.733.263-2.597-.074-2.002-.304-3.999-.366-6-.066-2.075-.015-4.154-.013-6.255.66-.03 1.106-.05 1.554-.074.08-.093.161-.196.242-.298-.216-.096-.433-.181-.647-.287-1.097-.563-1.094-.566-1-1.747.003-.072.008-.148.017-.219.132-1.121.269-2.232.41-3.428l-.672-.567c-1.193.302-2.287.65-3.412.828-1.122.175-2.273.174-3.45.251-.011.206-.033.395-.034.589-.001 6.667-.007 13.33.015 20.002 0 .364.206.73.311 1.075-.1.269-.308.563-.308.866-.075 4.874-.158 9.75-.148 14.623.005 2.43.336 4.835 1.197 7.138 1.569 4.217 5.59 6.107 9.776 5.752 0-1.46-.037-2.929.015-4.391.026-.675-.213-1.09-.693-1.562-.923-.894-1.732-1.908-2.561-2.892-.245-.289-.41-.633-.629-.985l.784-1.215c-1.022-.624-1.185-2.075-.433-3.079-.127-.352-.334-.66-.342-.968-.03-2.032-.014-4.07-.016-6.086zM79.29 30.857c.243.062.513.178.55.129.12-.166.24-.413.195-.585-.184-.727-.512-1.434-.64-2.166-.089-.491-.068-1.091.14-1.524.325-.646.331-1.213.02-1.814-.408-.791-.338-1.567-.137-2.419.21-.862.297-1.78.27-2.668-.068-2.004-.323-3.996-.356-5.995-.04-2.078.087-4.153.148-6.25.5-.023.948-.041 1.598-.074-.302-.284-.445-.476-.632-.578-1.078-.56-1.082-.554-.985-1.762.006-.097.011-.196.022-.296.135-1.067.272-2.142.426-3.32-.19-.16-.517-.437-.836-.71-2.09 1.161-4.414 1.057-6.757 1.192.002.308 0 .581.002.842 0 6.518-.005 13.044.012 19.56.006.44.202.876.3 1.294-.092.264-.289.571-.297.875-.067 4.846-.156 9.704-.14 14.546.01 2.726.37 5.417 1.525 7.952 1.723 3.785 5.833 5.367 9.446 4.977 0-1.68.01-3.369-.02-5.055-.002-.201-.2-.43-.365-.576-1.2-1.058-2.419-2.084-3.061-3.61-.09-.201-.308-.347-.46-.51.283-.446.554-.866.826-1.292-1.027-.599-1.18-2.033-.442-3.08-.127-.325-.33-.615-.334-.902-.032-2.053-.018-4.116-.018-6.181zm107.477-8.686c.209-.343.318-.531.441-.715.49-.728 1.026-1.437 1.457-2.195.262-.456.36-1.039-.267-1.328-.53-.24-.629-.605-.567-1.117.221-1.736.16-3.49.947-5.171.489-1.053.889-2.155 1.53-3.14 1.41-2.146 1.099-4.486.784-6.828-.054-.396-.293-.649-.768-.62-.389.028-.782-.052-1.168-.026-1.893.114-3.41 1.044-4.717 2.314-2.037 1.988-3.486 4.282-3.47 7.273.017 4.562-.003 9.124.017 13.684 0 .351.219.697.288 1.06.048.217.038.458-.01.671-.063.268-.276.524-.278.786-.016 4.655-.046 9.318.01 13.977a18.56 18.56 0 0 0 .462 3.849c.687 3.034 1.933 5.763 4.74 7.483.163.092.267.286.355.383.278-.128.539-.346.81-.36a21.845 21.845 0 0 1 2.414-.03c1.306.058 1.5-.102 1.5-1.391 0-1.03-.031-2.058.014-3.09.026-.628-.17-1.116-.545-1.609-.669-.87-1.287-1.781-1.928-2.68.357-.406.832-.706.337-1.263-1.329-1.507-1.544-3.283-1.165-5.164.264-1.314.46-2.602-.066-3.905-.142-.346-.126-.77-.126-1.162-.012-2.621-.008-5.247-.008-7.867.001-.77.212-1.637-1.023-1.819zm116.168 24.88c-.35.084-.772.07-.917.267-.657.86-1.24 1.781-1.876 2.723.987.37 1.744-.02 2.461-.424.96-.544 1.897-.554 2.883-.117.468.211.95.396 1.436.55 1.092.352 2.08.12 2.79-.766.545-.678.959-1.472 1.387-2.232.534-.952 1.02-1.932 1.435-2.731.037-.559.003-1 .109-1.406.238-.942.401-1.864-.015-2.8-.26-.566-.027-1.604.488-1.956.492-.333.468-.658.052-.989-.41-.323-.468-.7-.127-1.062.564-.598.425-1.206.1-1.823-.356-.69-.417-1.328.093-1.986.278-.357.35-.73-.124-1.07-.156-.118-.247-.466-.21-.687.063-.386.24-.742.382-1.105.223-.585.184-1.097-.117-1.678-.217-.439-.275-1.025-.223-1.524.093-.87.355-1.722.479-2.594.03-.228-.19-.492-.296-.74-.096-.227-.295-.452-.283-.67.112-1.71.274-3.412.392-5.115.07-.966.338-2.016.07-2.893-.41-1.291-.655-2.538-.51-3.881.033-.305.054-.665-.07-.924-.545-1.138-1.182-2.238-1.722-3.383-.748-1.572-1.779-2.897-3.353-3.676-2.754-1.372-5.703-1.466-8.686-1.116-.88.099-1.236.648-1.245 1.546-.006.558-.003 1.121-.003 1.688.003 1.216 0 2.431 0 3.688.359.036.63.026.886.085 1.324.316 2.702.515 3.951 1.019 1.981.8 2.943 2.339 2.931 4.547-.033 9.243-.006 18.486-.036 27.727a2.49 2.49 0 0 1-.56 1.505c-1.295 1.52-2.884 2.71-4.624 3.7-.271.152-.576.246-.866.361-.024-.04-.042-.088-.066-.128.241-.38.486-.756.775-1.202l-2.34.002c.003 1.302 0 2.544 0 3.774.326.058.796.023.865.17.332.77.748.229.932.015a26.929 26.929 0 0 0 1.819-2.465c.455-.699.8-.795 1.553-.223zM53.144 8.196c.342.03.613.024.865.084 1.351.325 2.748.53 4.027 1.05 1.948.789 2.883 2.33 2.872 4.509-.037 9.24-.004 18.488-.037 27.726-.004.506-.226 1.122-.553 1.509-1.296 1.52-2.883 2.713-4.622 3.696-.277.154-.59.25-1.066.452.365-.582.607-.965.892-1.417-.848.001-1.59.001-2.338-.001 0 1.298.003 2.542 0 3.687.425.165.779.306 1.13.447.02.09.032.182.046.275.376-.296.825-.52 1.104-.882.523-.671.96-1.41 1.41-2.137.388-.623.895-.659 1.434-.106-.288.077-.712.058-.862.25-.66.865-1.241 1.787-1.882 2.733 1.012.383 1.778-.043 2.524-.45.914-.505 1.806-.525 2.741-.118a13.61 13.61 0 0 0 1.653.603c.98.307 1.899.093 2.544-.683.588-.707 1.039-1.532 1.492-2.336.54-.946 1.016-1.934 1.446-2.75.03-.535-.01-.977.096-1.386.259-1.017.32-1.97-.061-3.01-.162-.458.141-1.268.507-1.683.405-.464.534-.711.04-1.1-.399-.313-.393-.68-.088-1.017.517-.564.467-1.14.137-1.752-.396-.724-.455-1.42.094-2.12.273-.342.273-.683-.148-1.01-.167-.129-.247-.51-.2-.754.074-.424.347-.822.4-1.245.055-.431.062-.95-.128-1.31-.335-.61-.398-1.175-.242-1.824.195-.833.357-1.677.478-2.516.031-.2-.138-.426-.23-.636-.117-.262-.365-.527-.346-.78.093-1.68.264-3.358.386-5.04.069-.967.342-2.018.067-2.89-.416-1.322-.663-2.593-.5-3.955.038-.283.045-.613-.074-.859-.57-1.18-1.215-2.33-1.786-3.51-.753-1.547-1.797-2.823-3.353-3.58a11.267 11.267 0 0 0-2.555-.874c-1.929-.409-3.888-.524-5.845-.268-.964.13-1.45.595-1.465 1.37-.024 1.834-.007 3.67-.004 5.608zM281.912 32.89c.061-.02.129-.034.19-.052-.296-.321-.597-.644-.878-.977-1.462-1.728-1.498-2.286.298-3.719 1.586-1.268 2.488-2.843 2.892-4.772.092-.454.217-.912.348-1.355.418-1.363.916-2.684 2.324-3.379-.923-1.12-.923-1.12-.992-2.59-.01-.218.006-.445-.03-.659-.347-1.996-.629-4.005-1.08-5.98-.234-.99-.862-1.833-2.026-1.875.168-.508.335-1.002.517-1.552-.351-.003-.572 0-.817-.003.062.625-.052 1.05-.923.902.063-.357.12-.719.183-1.079.078-.448.265-.912.215-1.34-.175-1.448-1.266-2.04-2.506-2.336-1.04-.242-2.12-.31-3.202-.457-.031-.166-.063-.36-.073-.404-1.54.24-3.058.464-4.573.72-.165.023-.424.22-.427.342-.024 1.849-.02 3.707-.022 5.587 1.493.2 2.87.533 4.057 1.382 2.102 1.522 2.819 3.751 2.81 6.174-.004 1.539-.46 3.075-.73 4.61-.175 1.017-.53 2.036.076 2.926-1.89.492-3.775.973-5.723 1.479-.058-.05-.256-.229-.473-.374-.022-.012-.28.206-.261.289.052.268.177.532.315.903v5.107c.605-.002 1.17-.002 1.905 0-.475.38-.8.636-1.236.99.52 0 .895.025 1.253-.01.433-.04.586.142.682.553 1.36 6.045 2.746 12.08 4.11 18.117.055.22.057.487-.029.69-.407.973-.16 1.542.886 1.639.99.093 1.996.02 2.937.018.036-.28.071-.578.112-.876.1.007.198.006.293.011.058.288.111.578.191 1.04l1.375-.971c.17.285.359.614.66 1.142.402-.54.788-.984 1.098-1.473.445-.705.677-1.573 1.617-1.874-.13-.08-.214-.126-.295-.174-1.816-.967-1.938-1.265-1.358-3.188.057-.179.02-.457-.093-.591-1.643-2.004-1.742-4.465-2.078-6.856-.018-.123.138-.26.197-.399.093-.205.176-.42.262-.63-.19-.068-.375-.136-.472-.173-.48-1.18-.977-2.343-1.426-3.534-.113-.293-.057-.642-.08-.97zM110.744 31.4c.07.17.131.271.16.385 1.391 6.11 2.785 12.221 4.17 18.336.045.21.025.48-.06.676-.385.89-.157 1.487.801 1.587 1.029.11 2.08.026 3.053.025.03-.29.053-.572.086-.854l.288-.006c.066.3.133.595.234 1.064l1.338-1 .692 1.164c.416-.567.786-1.024 1.1-1.517.441-.694.662-1.558 1.523-1.802-.516-.377-1.074-.732-1.572-1.161-.44-.383-.643-.939-.328-1.458.462-.763.394-1.355-.217-2.012-.337-.364-.576-.873-.697-1.36-.408-1.707-.749-3.429-1.114-5.151.121.007.245.02.365.024.095-.242.226-.478.256-.725.006-.068-.33-.166-.481-.236-.436-1.093-.92-2.243-1.353-3.405-.122-.337-.116-.723-.168-1.088.07-.013.135-.03.203-.05-.354-.406-.72-.802-1.063-1.219-1.166-1.438-1.133-1.928.189-3.214.07-.07.137-.142.216-.198 1.791-1.2 2.622-2.964 3.044-5.001.146-.693.353-1.379.597-2.041.384-1.054.931-2 2.13-2.538-1.147-.654-1.073-1.719-1.097-2.754-.01-.166 0-.34-.03-.508-.34-1.968-.62-3.96-1.065-5.91-.238-1.012-.872-1.857-2.027-1.92.168-.518.322-1.003.493-1.547-.348-.001-.556-.004-.79-.005.04.615-.05 1.083-.93.904.042-.326-.005-.699.148-.957.806-1.364-.024-3.098-1.613-3.553-1.022-.292-2.098-.437-3.163-.55-.497-.056-.827-.128-.8-.575-1.656.298-3.284.593-4.932.894-.001 1.9.002 3.855.001 5.805 1.532.185 2.946.554 4.15 1.476 2.009 1.538 2.683 3.738 2.667 6.103-.018 1.54-.482 3.073-.745 4.606-.164 1-.519 2.013.092 2.885-1.885.49-3.794.978-5.724 1.48a3.6 3.6 0 0 0-.445-.381c-.028-.021-.266.148-.257.195.045.254.155.495.222.748.034.136.031.284.03.431.004 1.608.005 3.214.005 4.905.607 0 1.174-.002 1.749 0 .013.053.035.101.053.151-.338.254-.665.504-1.133.852.7.002 1.224.002 1.749 0zm-66.882-6.012l-2.066.001c-.105-.752-.155-1.44-.292-2.105-.115-.568-.349-1.109-1.054-1.146-.663-.031-.934.417-1.091.983-.152.519-.44.868-1.091.77.003-.514-.27-1.097.492-1.42-.674-.642-.315-1.237.094-1.75.487-.606.986-1.27 1.63-1.676 1.397-.884 1.573-2.093 1.41-3.582-.177-1.603-.25-3.247.366-4.791.304-.767.242-1.435-.127-2.094-.271-.483-.175-.824.291-1.08-.637-.597-.657-1.822-.112-2.477-.9-1.2.5-2.266.175-3.489-.664.001-1.333.002-1.999.001-.022-.426-.046-.755-.064-1.09a1.324 1.324 0 0 1-.189-.106c-.302.376-.6.757-.991 1.244h-4.229l-.001.869c.001 5.517.003 11.03-.001 16.55-.003.26-.048.518-.096.778-.08.433-.267.86-.26 1.282.015 1.058.574 1.893 1.206 2.499-.929 1.023-1.81 1.996-2.673 2.952-.82-.603-1.37-.507-1.828.279-.23.4-.377.853-.503 1.297-.174.586-.254 1.205-.456 1.773-.083.252-.393.421-.602.624-.182-.25-.503-.49-.52-.754-.025-.413.08-.871.252-1.261.518-1.25.448-2.371-.59-3.369.132-.053.252-.092.357-.154.307-.166.604-.337.91-.512-.235-.252-.426-.585-.71-.75-.617-.343-.88-.829-.781-1.5.148-1.066.33-2.116.471-3.03 1.73.197 3.286-.285 4.877-.49-.335-.122-.665-.164-1-.205-2.364-.32-4.273-2.016-4.753-4.305-.164-.784-.382-1.634.248-2.36-1.063-1.234-2.266-3.955-2.65-6.149-.095-.543.037-1.128.065-1.858a72.16 72.16 0 0 0-1.265-.43c-.001 3.201.003 6.264.004 9.322 0 .098-.005.22.047.285.597.696.67 1.425.16 2.241.26-.105.516-.203.805-.315.47.662.631 1.37.358 2.103a19.241 19.241 0 0 1-.93 2.071c-.525 1.03-.595 2.044-.047 3.088.242.47.384.985.576 1.487-.684.19-1.045.567-.948 1.18.138.86.308 1.746.667 2.535.65 1.42 1.459 2.766 2.183 4.157.413.789.791 1.603 1.182 2.414.42-.178.789-.342 1.237-.532-.087.242-.136.362-.205.533l2.351-.001c1.477.003 1.623-.147 1.534-1.632-.013-.2-.146-.384-.21-.587-.07-.19-.109-.385-.172-.601-.159-.024-.362-.047-.608-.078.139-.335.25-.613.397-.959l-1.017.283c.37-.775 1.483-1.447 2.136-1.27.301.081.766.426.762.642-.02 1.267.326 2.567-.296 3.84.277.086.524.194.781.233.65.103 1.312.15 1.962.272.434.075.85.244.837.892-.928 0-1.832-.005-2.738.003-.778-.002-.957.18-.914.955.035.632.106 1.258.163 1.887l-.208.151c-.151-.155-.38-.284-.436-.469-.104-.348-.126-.722-.159-1.081-.106-1.071-.613-1.597-1.678-1.477-.883.103-1.741.416-2.644.644.062.416.083.784.164 1.133 1.2 4.967 3.018 9.715 5.011 14.406.09.206.454.427.695.43 1.764.032 3.535.02 5.297.011.164.003.325-.044.408-.052.143-.564.263-1.06.395-1.549.108-.405.332-.801.334-1.202.025-3.335.013-6.67.012-9.915.302-.1.571-.147.79-.277.064-.037.046-.42-.019-.447-.222-.096-.48-.106-.756-.15.05-.683-.305-1.486.49-2.034-.804-.87-.685-3.168.296-3.543l-.885-1.017c.002-.908.002-1.75.001-2.662l-.44.715c-.685-2.128.831-3.01 2.425-4.032zm201.91-11.124c.214.024.284.042.36.04 1.321-.029 1.615.336.896 1.414-.947 1.43-.876 2.941-.598 4.463.517 2.835 1.125 5.66 1.757 8.479.674 2.992 1.157 6.01 1.215 9.084.01.407.043.84-.55.998-.062-.21-.126-.385-.167-.572-.216-1.004-.406-2.015-.627-3.016-.127-.55-.464-.804-1.065-.773-.878.046-1.764.014-2.65.014-.95-.001-1.057-.176-.595-.97-1.396-.797-1.464-.933-1.253-2.578.053-.413.18-.819.202-1.236.073-1.11.585-1.862 1.666-2.212.174-.056.325-.198.485-.292.005-.081.005-.164.008-.244-.587-.11-1.172-.213-1.886-.34.163-.987.305-2.02.514-3.043.454-2.176.966-4.345 1.415-6.526.064-.321-.085-.697-.164-1.042-.05-.244-.222-.472-.225-.713-.062-3.486-.472-6.939-1.148-10.351-.175-.86-.45-1.705-.762-2.525-.231-.603-1.004-.914-1.733-.81-.713.087-.503.682-.58 1.088-.301 1.636-.57 3.282-.848 4.923-.935 5.626-1.798 11.264-2.822 16.88-1.024 5.619-1.541 11.32-3.061 16.862-.57 2.069-.82 4.224-1.131 6.358-.237 1.615-.332 3.25-.502 4.98.677-.156 1.197-.29 1.72-.4.212-.04.512-.124.634-.021.758.648 1.64.31 2.465.363 1.569.098 2.361-.859 2.898-2.144a8.82 8.82 0 0 0 .399-1.183c.351-1.45.643-2.916 1.026-4.356.273-1.034.72-1.992 1.997-2.421-.269-.016-.37-.007-.467-.03-.36-.095-.993.272-1.026-.324-.02-.358.404-.777.71-1.091.133-.14.458-.116.7-.122 1.521-.012 3.04-.025 4.56.004.535.01.934-.04 1.113-.65.09-.292.377-.528.687-.932.164.578.333.96.384 1.362.172 1.309.257 2.63.46 3.934.145.939.429 1.85.667 2.764.095.364.313.702.328 1.057.047.992.016 1.993.017 3.006 2.534 0 4.977 0 7.36-.004.146-.449.199-.89.423-1.216.203-.307.593-.488.917-.74-1.035-.517-1.694-1.393-1.975-2.55-.266-1.108-.458-2.216.2-3.273.041-.067-.001-.206-.035-.308-.644-2.096-1.347-4.185-1.93-6.308-.291-1.066-.37-2.193-.529-3.205.357-.03.637.026.74-.086.104-.117.03-.393.032-.603h-.711c-.025-.26-.044-.556-.077-.841-.112-.826-.026-1.757-.388-2.451-.433-.82-.534-1.359.25-1.924.087-.063.153-.284.122-.396-.2-.626-.47-1.237-.635-1.873-.1-.394-.23-.907-.062-1.213.385-.696.137-1.095-.356-1.56-.35-.339-.767-.771-.824-1.2-.082-.623-.02-1.367.271-1.906.274-.515.918-.832 1.365-1.206-.577-.182-1.291-.424-2.02-.631-.434-.118-.629-.324-.688-.8-.132-1.113-.341-2.224-.503-3.34-.3-2.054-.59-4.112-.9-6.29.624 0 1.168 0 1.708.002.025-.084.051-.167.08-.255-.238-.141-.464-.36-.722-.411-.844-.181-1.167-.624-1.16-1.52.008-.627-.286-1.28-.526-1.884-.244-.607-.585-1.17-.941-1.851-.987-.003-2.06.017-3.138-.011a1.37 1.37 0 0 1-.774-.264c-.74-.58-1.584-.325-1.788.6-.079.358-.147.73-.111 1.094.195 2.043.337 4.096.673 6.116.294 1.753.817 3.466 1.23 5.152zM.87 40.33c-.04.323-.081.644-.12.968.096.035.183.069.283.104.134-.192.417-.438.37-.554-.082-.205-.362-.335-.562-.497.013-.142.07-.303.02-.424-.077-.198-.22-.369-.334-.548-.117.104-.349.223-.34.308.026.203.133.422.268.584.07.078.272.043.415.06z" fill="#1A1918" mask="url(#b)"/></g></g></svg>