<svg viewBox="0 0 2612 428" xmlns="http://www.w3.org/2000/svg" fill-rule="evenodd" clip-rule="evenodd" stroke-linejoin="round" stroke-miterlimit="2"><path d="M967.577 26.74v19.48l-31.909-.058-9.346-19.471 41.255.05z" fill="#2a3890" fill-rule="nonzero"/><path fill="#2a3890" d="M1028.344 26.737V46.38h66.254V26.737z"/><path d="M1052.613 116.062h-24.263v30.034l24.263 12.133v-42.167zM2357.58 215.485l-8.604-12.792h-150.817V134.41h7.446l97.45.012-7.954-11.825h-92.513l-28.708 14.354.004 78.534h183.696zM1519.59 58.027l.225.18.304.237c.309.241.621.487 1.017.816.333.288.675.596 1.012.913l.242.22.213.192c.204.184.412.371.612.563l.2.191.02.017c.3.292.547.63.838.925 1.071 1.096 2.138 2.2 3.075 3.392l.155.179.154.2c.325.42.637.875.962 1.354.242.342.471.696.704 1.05l.138.217a47.128 47.128 0 0 1 1.596 2.583c.858 1.538 1.496 2.817 2.037 4.083l.03.059.104.25c.675 1.612 1.287 3.412 1.829 5.366.083.305.162.625.237.942l.063.275c.358 1.442.662 3 .908 4.642l.046.283c.067.458.133.917.187 1.383.271 2.338.396 4.392.396 6.459 0 1.97-.129 3.987-.379 5.95-.042.329-.1.65-.167.979-.275 1.842-.6 3.446-.983 4.867-.083.32-.187.629-.317 1.012-1.066 3.621-2.554 7.008-4.416 10.067-.875 1.437-1.9 2.887-3.154 4.47-.234.288-.484.563-.75.846a45.894 45.894 0 0 1-2.455 2.721c-.1.105-.191.209-.295.313a46.417 46.417 0 0 1-1.613 1.504c-.817.725-1.87 1.6-3.03 2.5v19.496c.626-.271 1.238-.538 1.88-.825l.246-.121c.25-.125.5-.25.75-.362.729-.334 1.4-.646 2.062-.955 2.521-1.179 4.613-2.208 6.559-3.237l.6-.304.35-.18c.358-.191.696-.387 1.033-.587l.904-.525.25-.142c.95-.537 1.896-1.07 2.767-1.616a3.15 3.15 0 0 1 .342-.196 46.885 46.885 0 0 0 3.241-2.238c1.171-.895 2.35-1.816 3.521-2.779 1.354-1.108 2.742-2.358 4.25-3.816.346-.338.68-.68 1.017-1.025 1.591-1.638 2.716-2.938 3.654-4.234a49.524 49.524 0 0 0 2.4-3.642c.887-1.475 1.758-3.162 2.737-5.304.213-.458.417-.925.621-1.391.93-2.192 1.621-4.042 2.171-5.821l.008-.025c.563-1.813 1.05-3.83 1.55-6.359.109-.541.209-1.091.305-1.645.437-2.567.708-4.709.854-6.734.12-1.725.183-3.5.183-5.258 0-12.85-2.383-23.117-7.08-30.504a65.8 65.8 0 0 0-4.145-5.809c-2.9-3.616-6.042-6.716-9.604-9.466a58.302 58.302 0 0 0-5.38-3.688l-.053-.025-.205-.12a77.693 77.693 0 0 0-6.512-3.505 9.453 9.453 0 0 1-.646-.27l-.32-.134-.147-.07a91.929 91.929 0 0 0-5.225-2.238c-.191-.075-.379-.163-.575-.238-.225-.083-.466-.154-.704-.225-.35-.108-.7-.216-1.041-.333l-.03-.008-.125-.046c-.92-.321-1.629-.5-2.462-.767v24.87c.087.068.17.13.254.2M1730.22 57.87l6.383-10.033 6.234 10.125 4.491 7.292 22.317-11.154-7.846-12.617a52.74 52.74 0 0 0-2.67-3.925c-.171-.2-.342-.404-.505-.612-.75-.98-1.508-1.946-2.312-2.842a6.509 6.509 0 0 0-.38-.38c-.229-.224-.454-.45-.674-.678l-.138-.138-.037-.041-.559-.584c-.42-.437-.837-.883-1.283-1.291-.354-.325-.73-.625-1.108-.93l-.713-.583-.75-.637c-.25-.217-.5-.438-.767-.646-.466-.35-.954-.675-1.458-.967a9.177 9.177 0 0 1-.58-.27l-.362-.167-.304-.138-.666-.32-.109-.067-.316-.092-.709-.213-.316-.104c-.155-.05-.309-.104-.467-.146a21.36 21.36 0 0 0-2.875-.6l-.392-.045-.025-.005c-.816-.091-1.812-.141-3.154-.162a9.981 9.981 0 0 1-.77-.042c-5.467.025-9.555 1.188-12.513 3.554a60.7 60.7 0 0 0-3.471 2.975c-.167.18-.33.35-.492.505a61.637 61.637 0 0 0-3.917 4.091c-.329.38-.654.763-.975 1.15-1.491 1.809-2.62 3.321-3.52 4.7l-38.271 59.963 41.1-20.546 14.879-23.38zM2354.884 46.447h136.35c3.434.004 6.854.2 10.2.579l.067.004.233.03c2.18.274 4.446.679 6.938 1.237.525.117 1.041.25 1.554.383l.417.109c.308.079.6.183.908.266 1.317.363 2.637.734 3.887 1.163l.38.129c.504.167 1.008.337 1.495.525 2.288.867 4.238 1.73 5.967 2.633 1.683.88 3.338 1.896 5.2 3.188.3.175.592.358.858.554 5.109 3.687 9.246 8.28 12.296 13.646a43.25 43.25 0 0 1 2.434 5.02c1.525 3.738 2.566 7.792 3.1 12.042a57.27 57.27 0 0 1 .425 7c0 1.88-.105 3.75-.317 5.559-.421 3.658-1.275 7.204-2.542 10.525a41.946 41.946 0 0 1-5.066 9.433c-1.275 1.775-2.78 3.512-4.734 5.462-.429.43-.875.85-1.325 1.267-2.02 1.858-3.862 3.33-5.796 4.63a57.492 57.492 0 0 1-4.075 2.512 58.854 58.854 0 0 1-4.279 2.175 61.731 61.731 0 0 1-9.096 3.333 68.32 68.32 0 0 1-4.8 1.158 74 74 0 0 1-10.041 1.317 82.754 82.754 0 0 1-5.225.163h-109.75l7.391 9.566.15.196.138.2 4.4 6.538h90.008l2.238 2.95 40.562 53.546h32.484l-4.25-4.988c-5.3-5.892-9.7-10.717-13.292-14.592l-.142-.154-.133-.167-3.983-4.82c-3.921-4.759-7.638-9.275-10.867-13.209l-3.058-3.729-.234-.287-1.812-2.209-4.254-5.187-.33-.404-6.504-7.942 9.567-3.717c2.917-1.129 7.433-2.95 12.442-5.204.379-.17.77-.354 1.166-.542l.846-.4.846-.395c.72-.33 1.437-.663 2.042-.955l.287-.141.067-.034.437-.216.654-.317a139.8 139.8 0 0 0 5.092-2.633 87.772 87.772 0 0 0 3.45-1.992l.275-.167.292-.141c1.916-.954 3.425-1.804 4.725-2.675a48.02 48.02 0 0 0 6.641-5.321 46.689 46.689 0 0 0 5.505-6.325c2.545-3.517 4.691-7.467 6.387-11.746a63.984 63.984 0 0 0 1.558-4.437 64.11 64.11 0 0 0 2.15-9.642 72.63 72.63 0 0 0 .734-10.354c0-3.296-.163-6.463-.475-9.425-.467-4.33-1.275-8.334-2.404-11.896-1.088-3.43-2.5-6.52-4.196-9.183a65.35 65.35 0 0 0-4.138-5.8 60.399 60.399 0 0 0-3.379-3.863c-3.517-3.67-7.392-6.758-11.85-9.433-1.408-.846-2.954-1.634-4.787-2.571a85.458 85.458 0 0 0-4.805-2.242l-.316-.133a82.657 82.657 0 0 0-5.408-2.12c-.859-.305-1.734-.576-2.609-.851l-.342-.108-.9-.284c-.804-.25-1.604-.508-2.445-.733a89.595 89.595 0 0 0-6.888-1.612 194.559 194.559 0 0 0-17.412-2.525c-5.859-.6-11.571-.905-16.984-.905h-90.62l-39.38 19.688zM967.577 46.223V26.744l-41.255-.05 9.346 19.467 31.909.062zM401.62 147.495l-22.617 35.438-.42.658-10.45 16.375 13.72 15.517h4.588l13.916-21.867 22.992-36.12 14.021-22.03-21.283-10.642-14.046 22.013-.421.658zM880.117 71.508a61.354 61.354 0 0 0-1.775-4.67l-.038-.08c-.691-1.595-1.504-3.233-2.55-5.129-.187-.337-.387-.67-.587-1l-.267-.45a56.064 56.064 0 0 0-2.279-3.533c-.179-.254-.346-.517-.517-.808-.15-.18-.3-.363-.441-.55-1.259-1.684-2.371-3.042-3.488-4.267l-.07-.07-.15-.155-.296-.28a28.411 28.411 0 0 1-.796-.77c-1.021-1.05-2.025-2.063-3.067-2.988-.17-.154-.329-.308-.5-.479-6.767-5.87-15.37-10.591-25.575-14.025-5.3-1.787-11.137-3.154-17.354-4.062-6.308-.925-13.104-1.388-20.208-1.388h-10.334l90.442 45.23c-.046-.163-.083-.28-.15-.526M301.258 214.093l-3.7-4.446-1.438-1.734-.545-.658-2.6-3.137-1.2-1.45-.342-.413a7238.023 7238.023 0 0 1-9.296-11.258l-.617-.746-.387-.467-3.988-4.846-.62-.754-1.225-1.491-2.596-3.159-.734-.891-6.254-7.617-1.225-1.5-.779-.954-.954-1.159-1.038-1.27-.3-.363-6.483-7.93 9.542-3.728.237-.092h.004l1.588-.625.52-.208.3-.117.23-.092.354-.145.43-.175 1.608-.663.545-.22.955-.397.32-.141c1.025-.43 2.092-.884 3.196-1.367l.759-.337.387-.171c1-.446 2.008-.904 3.221-1.463l1.046-.483c1.396-.658 2.796-1.33 4.187-2.033a117.028 117.028 0 0 0 3.946-2.084l.73-.412.353-.2a78.101 78.101 0 0 0 2.65-1.567l.242-.15.758-.475c.184-.117.313-.208.484-.32.975-.638 1.783-1.188 2.416-1.676l.192-.146.2-.137a48.294 48.294 0 0 0 6.534-5.208l.179-.196.066-.063.184-.2.129-.129c1.033-1.017 1.837-1.862 2.537-2.675a45.548 45.548 0 0 0 2.409-3.03l.204-.274.025-.03c.95-1.324 1.904-2.853 2.992-4.783.241-.429.475-.862.704-1.3.146-.275.296-.541.446-.808.091-.162.187-.325.275-.5a59.355 59.355 0 0 0 1.85-4.183 62.93 62.93 0 0 0 1.558-4.45 60.76 60.76 0 0 0 1.254-4.721c.067-.308.113-.625.175-.938a76.69 76.69 0 0 0 .846-5.304c.037-.3.087-.596.146-.879.312-2.762.466-5.508.466-8.154a79.59 79.59 0 0 0-1.337-14.646L220.09 26.801h-173.2l14.48 19.604h174.783c2.946 0 5.975.163 9.258.496l.117.004.275.008.266.03.059.004.062.008c.221.017.446.038.646.058 2.942.342 5.817.859 8.792 1.58l.316.07c.305.067.609.138.9.213 1.696.442 3.388.958 5.034 1.537a55.96 55.96 0 0 1 4.412 1.767l.109.038.187.087c1.25.57 2.55 1.238 3.842 1.967.22.112.446.229.641.341a49.7 49.7 0 0 1 3.834 2.467l.07.046.226.162c.966.696 1.95 1.48 2.945 2.338.217.183.438.387.734.67l.32.297c.634.579 1.267 1.179 1.905 1.837.637.667 1.27 1.37 1.983 2.208.154.18.313.359.471.559a42.14 42.14 0 0 1 4.754 7.291l.13.25.033.067a44.753 44.753 0 0 1 1.762 4.03c.083.212.163.433.28.787.474 1.3.891 2.641 1.241 3.979.083.312.158.633.275 1.133.308 1.309.575 2.704.804 4.263.054.362.108.725.154 1.083a58.87 58.87 0 0 1 .375 4.408c.042.846.084 1.684.084 2.509 0 2.008-.146 4.079-.442 6.333-.07.5-.163.992-.254 1.48l-.08.428c-.27 1.53-.583 2.921-.958 4.246a48.817 48.817 0 0 1-.633 2.054 41.52 41.52 0 0 1-1.596 3.996l-.162.375c-.205.454-.405.909-.634 1.354-.708 1.38-1.541 2.767-2.712 4.509a51.88 51.88 0 0 1-1.984 2.637 44.143 44.143 0 0 1-3.825 4.163 55.44 55.44 0 0 1-2.929 2.616c-.646.525-1.487 1.125-2.279 1.713-.446.333-.796.642-1.287.97-.838.567-1.713 1.067-2.596 1.563l-.796.45c-1.946 1.13-4 2.167-6.092 3.075l-.37.163-.871.379-.225.1-.134.05a62.456 62.456 0 0 1-7.512 2.483l-.059.017-.208.054a69.224 69.224 0 0 1-8.187 1.592c-.63.087-1.267.166-1.896.233-3.109.338-5.913.5-8.575.5H126.4l12.687 16.42h89.342l2.233 2.947 40.6 53.587h31.159l-1.163-1.391z" fill="#2a3890" fill-rule="nonzero"/><path d="M469.375 85.182l17.38-27.313 6.387-10.033 6.237 10.13 11.338 18.42 1.812 2.925.417.667 1.608 2.579.588.942 1.791 2.85.434.687 1.966 3.121.25.387.259.413 2.216 3.496.2.316.205.325a5204.48 5204.48 0 0 0 8.95 14.034l3.641 5.683.225.35.18.28a9970.348 9970.348 0 0 0 16.2 25.17l.283.442 4.054 6.267 40.854 20.433-10.58-17.017-6.4-10.296-61.532-98.954c-3.346-5.404-7.238-9.754-11.896-13.287-.53-.396-1.196-.805-2.042-1.242l-.354-.163-.313-.141a16.383 16.383 0 0 0-1.795-.692l-.33-.104-.458-.146c-1.092-.296-2.042-.492-2.875-.6l-.392-.042-.025-.008c-.833-.092-1.854-.142-3.175-.162a11.207 11.207 0 0 1-.737-.038c-.867.008-1.683.092-2.638.18-.295.028-.604.045-.991.058-.213.02-.421.058-.63.091l-.366.059c-.467.075-.908.183-1.346.287l-.254.054c-.225.054-.463.1-.692.138l-.333.087c-.171.046-.346.088-.508.138-1.025.325-1.834.646-2.505.991l-.062.03c-.783.408-1.521.891-2.204 1.437a61.451 61.451 0 0 0-6.896 6.413 54.48 54.48 0 0 0-5.475 7.012L448.158 74.57l-.42.659-8.684 13.608 21.233 10.621 9.088-14.275zM722.791 211.918l-.37-43.333-.068-7.513h51.176l-37.08-18.542h-54.67l-.03 45.134 3.463 5.462 14.162 22.359h23.446l-.029-3.567zM2109.146 26.802h-99.188c-3.491 0-7.1.138-11.033.425-.833.059-1.654.155-2.47.246l-1.597.175c-2.104.209-4.191.438-6.241.738-.409.062-.825.104-1.246.15-.204.016-.4.033-.596.066-.313.05-.608.121-.904.188-.467.104-.942.208-1.434.296-2.004.358-4.1.791-6.22 1.279l-.971.225c-.284.062-.559.133-.842.2-.525.12-1.046.237-1.57.375-3.497.912-6.5 1.817-9.176 2.758-2.62.925-5.416 2.059-8.541 3.459-.584.262-1.155.537-1.73.812l-.687.333-1.292.6c-.579.267-1.154.53-1.712.817-.55.288-1.08.6-1.609.908l-1.212.696-.658.367c-.542.304-1.088.6-1.617.917-2.804 1.675-5.154 3.204-7.23 4.716l-.05.034c-1.758 1.283-3.595 2.783-5.662 4.583-.233.2-.433.358-.67.57-.259.226-.53.442-.846.68a84.61 84.61 0 0 0-6.075 6.087 9.825 9.825 0 0 1-.55.563c-1.459 1.633-2.963 3.5-4.842 6.004l-.167.225-.05.063c-.17.216-.366.45-.633.758-1.483 2.05-2.992 4.37-4.642 7.146l-.166.27-.05.067a8.966 8.966 0 0 1-.292.45 94.955 94.955 0 0 0-4.242 8.259l-.12.262a80.85 80.85 0 0 0-3.121 8.142c-.788 2.396-1.421 5.02-1.955 7.287-.075.338-.17.663-.258.992l-.108.396c-1.054 4.825-1.721 9.787-2.046 14.804a102.434 102.434 0 0 0-.242 6.704c0 2.7.188 5.35.38 7.996l23.933-11.963c.029-.375.012-.745.05-1.116.241-2.421.616-4.925 1.108-7.434l.042-.27.05-.263c.5-2.454 1.137-4.87 1.875-7.254a73.642 73.642 0 0 1 2.825-7.67c.1-.276.204-.547.32-.805.15-.325.309-.638.505-.992 1-2.15 1.941-4 2.9-5.679a78.78 78.78 0 0 1 3.941-6.2c.305-.433.625-.858.942-1.283l.27-.367a73.002 73.002 0 0 1 3.222-4.033l.279-.334c.35-.408.696-.816 1.058-1.216 1.73-1.913 3.325-3.538 4.88-4.971 1.441-1.32 3.041-2.654 5.029-4.175l.129-.113.17-.133.4-.287 1.267-.921a78.5 78.5 0 0 1 4.309-2.896l.387-.246c.454-.283.908-.567 1.37-.842 2.243-1.32 4.284-2.416 6.238-3.35a85.69 85.69 0 0 1 7.363-3.112 87.663 87.663 0 0 1 15.58-4.17c5.345-.922 10.916-1.388 16.553-1.388h59.98l39.208-19.605zM1545.25 213.762l-3.45 1.725 4.89-.003-.802-.95a82.206 82.206 0 0 0-.637-.772M1830.21 151.497l-11.092-17.838-11.491-18.479-15.467-24.875-22.208 11.104 1.254 1.967.433.683.596.925 3.475 5.438.55.862.292.454.275.434.95 1.479.812 1.267 2.925 4.554.404.629.584.908.362.563.358.558.838 1.304 1.28 1.992.437.679 7.67 11.9.342.533.363.559 1.175 1.825.725 1.116 2.291 3.55.546.85 1.03 1.592 1.553 2.4.68 1.05.833 1.292.542.833 4.691 7.25.242.375.183.288.375.575 3.909 6.025.433.675.35.541.537.83 2 3.083 20.971-10.484-6.641-10.679-.367-.587zM1671.04 150.866l-41.27 20.638-18.168 28.462 8.113 9.171 5.612 6.346h4.588l10.683-16.788 30.442-47.829z" fill="#ce171e" fill-rule="nonzero"/><path d="M967.574 116.018v106.305h-23.958V116.018h23.958zM1165.79 27.756l-.392-.041c-.512-.05-1.02-.113-1.529-.175-.62-.075-1.242-.15-1.879-.205-.188-.012-.375-.012-.57-.016-.405-.009-.813-.021-1.238-.05-3.838-.267-7.059-.392-10.15-.392h-.838l-50.958-.062-3.634-.005v19.567l3.634.008 51.846.096h.216l.017.004c2.25.005 4.654.109 7.342.321.575.046 1.141.104 1.712.163l.513.054c1.829.187 3.67.433 5.466.725l.492.08a71.54 71.54 0 0 1 1.692.287c2.683.508 5.025 1.041 7.158 1.637 1.492.413 3.158 1.008 4.817 1.583v-21.2c-4.046-.87-8.092-1.733-12.43-2.237l-1.287-.142zM1175.65 199.515c-1.975.52-3.95.925-5.646 1.263l-.85.183c-.646.142-1.296.279-1.958.387-3 .509-5.834.859-8.667 1.084-2.8.22-5.654.333-8.487.333h-97.434v-44.538l-24.262-12.133v75.567h121.696c2.92 0 6.008-.133 10.029-.43a127.146 127.146 0 0 0 9.287-1.074 65.339 65.339 0 0 1 1.842-.234c.57-.062 1.146-.125 1.7-.225a82.339 82.339 0 0 0 4.246-.879c.767-.179 1.579-.391 2.358-.587v-19.809c-1.17.355-2.425.717-3.854 1.092" fill="#fff" fill-rule="nonzero"/><path d="M943.614 116.016v106.305h23.958V116.016h-23.958zM561.392 155.667c5.117 7.904 9.925 15.325 13.975 21.571l4.442 6.833.196.309 1.141 1.754 3.367 5.183.142.208v.009l.825 1.262.7 1.075 7.529 11.575-13.809-.066-1.187-.009-1.588-.008 20.238 10.12H465.57l-5.267 8.05h171.234L596.85 167.75l-40.854-20.429 5.396 8.346z" fill="#fff" fill-rule="nonzero"/><path d="M384.522 218.5l1.917-3.017h-4.584l2.667 3.017z" fill="#2a3890" fill-rule="nonzero"/><path d="M460.289 99.456l-21.238-10.62-6.304 9.879-16.658 26.108 21.28 10.646 22.92-36.013z" fill="#fff" fill-rule="nonzero"/><path d="M722.874 221.59l-.05-5.867-.004-.238h-23.446l3.867 6.104h19.633z" fill="#ce171e" fill-rule="nonzero"/><path d="M799.838 161.073c5.354 0 10.563-.258 15.47-.766 4.868-.504 9.547-1.263 13.918-2.263a92.349 92.349 0 0 0 8.35-2.3 98.325 98.325 0 0 0 7.541-2.812 86.284 86.284 0 0 0 6.863-3.263c4.296-2.296 8.208-4.912 11.633-7.775.596-.496 1.104-1.046 1.675-1.566 1.004-.909 2.038-1.8 2.942-2.75a51.768 51.768 0 0 0 5.708-7.159c.613-.933 1.242-1.983 2.046-3.437l.158-.259a53.494 53.494 0 0 0 2.234-4.537c.12-.27.208-.563.304-.85.15-.438.3-.88.462-1.308l.325-.846c.454-1.175.888-2.292 1.23-3.396l.02-.083.054-.192a62.323 62.323 0 0 0 1.517-6.13c.033-.303.075-.608.13-.903.783-4.359 1.187-8.905 1.208-13.496 0-.117 0-.23.004-.342-.013-.204-.021-.408-.021-.617-.017-2.629-.12-4.912-.308-6.991a79.355 79.355 0 0 0-.692-5.404l-.054-.246a21.48 21.48 0 0 1-.167-.813c-.08-.429-.17-.85-.258-1.275l-.121-.558a65.418 65.418 0 0 0-1.104-4.492l-.154-.537c-.113-.409-.225-.817-.355-1.217-.037-.12-.087-.312-.129-.454l-90.442-45.233H580.613l12.4 19.6h213.196c2.45 0 4.683.17 6.429.325.254.004.508.02.767.041.583.054 1.162.117 1.737.184 2.65.316 4.813.675 6.8 1.129a55.273 55.273 0 0 1 9.434 3.054c1.833.787 3.65 1.729 5.72 2.967.459.27.913.55 1.359.841 2.033 1.309 3.67 2.509 5.162 3.788 1.613 1.387 3.192 2.996 4.83 4.904.324.383.645.762.962 1.154 1.57 1.97 2.85 3.825 3.929 5.725l.117.213.004.004c1.05 1.883 1.979 3.912 2.892 6.362l.241.65c.83 2.363 1.467 4.738 1.863 6.875l.07.35.013.113a52.78 52.78 0 0 1 .6 4.383c.154 1.704.23 3.283.23 4.83 0 1.57-.076 3.162-.23 4.866-.037.4-.092.796-.146 1.187l-.05.375a52.733 52.733 0 0 1-.366 2.534c-.03.212-.063.433-.105.654-.091.492-.2.97-.308 1.45l-.08.333c-.212.95-.445 1.9-.716 2.825-.179.609-.375 1.209-.579 1.809-.3.895-.625 1.779-.98 2.645a45.3 45.3 0 0 1-.74 1.738c-.397.87-.834 1.72-1.284 2.562l-.246.45-.217.396c-.133.25-.266.496-.404.734a28.8 28.8 0 0 1-.72 1.129l-.176.258-.208.325c-.196.308-.392.613-.596.908l-.179.275c-.22.334-.446.667-.683.988a44.774 44.774 0 0 1-2.967 3.612 46.644 46.644 0 0 1-3.396 3.33c-.062.058-.12.125-.183.183-.758.662-1.558 1.275-2.358 1.883l-.267.204c-1.071.813-2.2 1.592-3.508 2.409l-.209.137-.058.034a49.154 49.154 0 0 1-3.446 1.925l-.637.32a49.68 49.68 0 0 1-3.38 1.505l-1.02.391c-1.059.4-2.134.775-3.246 1.121-.396.117-.796.23-1.196.338l-.275.075c-1 .279-2.004.541-3.05.775-.538.116-1.083.216-1.633.316l-.384.071-.325.058a58.93 58.93 0 0 1-2.404.409c-.804.112-1.63.191-2.45.27l-.367.038-.579.063c-.52.054-1.046.112-1.591.15a81.59 81.59 0 0 1-4.946.175h-70.03l37.08 18.545h26.308zM312.264 59.93l-.167-.225a18.38 18.38 0 0 1-.637-.892c-1.163-1.741-2.142-3.158-3.159-4.433a8.587 8.587 0 0 1-.337-.454c-1.117-1.38-2.42-2.821-3.975-4.388a10.48 10.48 0 0 1-.492-.529 14.244 14.244 0 0 1-.808-.708 56.96 56.96 0 0 0-3.37-2.942 12.34 12.34 0 0 1-.772-.679c-.212-.138-.42-.283-.62-.433-1.78-1.338-3.388-2.442-4.917-3.367l-.313-.163-.204-.12a79.145 79.145 0 0 0-5.942-3.213l-.016-.008-.192-.092c-1.792-.862-3.825-1.725-6.217-2.646-.454-.175-.912-.333-1.37-.496l-.555-.2c-1.6-.57-3.225-1.1-4.879-1.587l-.57-.17c-.476-.138-.946-.284-1.43-.413-2.554-.688-4.816-1.217-6.966-1.63l-.088-.016a197.03 197.03 0 0 0-8.554-1.442c-8.57-1.25-16.975-1.883-24.975-1.883h-10.65l97.888 48.954c-1.15-6.18-2.996-11.55-5.713-15.825" fill="#fff" fill-rule="nonzero"/><path d="M307.528 221.59l-2.35-2.805-.225-.267-2.533-3.033H271.26l4.625 6.104h31.642z" fill="#2a3890" fill-rule="nonzero"/><path d="M1904.59 142.543a93.493 93.493 0 0 0 2.483 9.662 89.871 89.871 0 0 0 3.455 9.2c1.116 2.546 2.437 5.192 4.025 8.084.141.258.275.525.354.716 4.741 8.467 10.654 16.075 17.575 22.609.662.625 1.408 1.175 2.087 1.783 8.934 7.958 19.546 14.467 31.742 19.225 6.546 2.558 13.542 4.508 20.792 5.804 3.633.65 7.395 1.142 11.183 1.471 3.804.325 7.737.492 11.675.492h88.383l-4.625-6.104h-76.908l25.583-12.792h-32.433c-.708 0-1.4-.033-2.092-.071l-.916-.042-.85-.025a82.319 82.319 0 0 1-4.063-.175 104.156 104.156 0 0 1-7.687-.904 72.122 72.122 0 0 1-1.655-.287l-.458-.084a95.802 95.802 0 0 1-5.246-1.1l-.458-.112c-.538-.13-1.08-.254-1.608-.4-2.575-.683-4.813-1.363-6.813-2.075l-.183-.067-.017-.008c-1.954-.696-3.967-1.513-6.33-2.567a83.624 83.624 0 0 1-2.112-1 79.515 79.515 0 0 1-4.145-2.146l-.496-.27c-.604-.33-1.2-.663-1.78-1.005a80.217 80.217 0 0 1-5.116-3.3l-.021-.016-.158-.113a82.845 82.845 0 0 1-3.154-2.346 72.11 72.11 0 0 1-3.288-2.716l-.22-.196a70.12 70.12 0 0 1-5.772-5.792 68.294 68.294 0 0 1-5.437-6.904c-.142-.204-.28-.413-.5-.758a77.81 77.81 0 0 1-4.642-7.9l-.487-.934c-.454-.866-.913-1.733-1.309-2.641-.154-.35-.295-.713-.429-1.109-.962-2.296-1.691-4.229-2.291-6.096a78.458 78.458 0 0 1-1.955-7.508c-.383-1.883-.708-3.954-1.041-6.687a80.744 80.744 0 0 1-.375-3.65c-.159-2.059-.309-4.259-.309-6.609 0-2.366.146-4.766.35-7.154l-23.933 11.963c.32 4.312.8 8.562 1.625 12.654M2114.136 46.407V26.803h-4.988l-39.208 19.604h44.196z" fill="#fff" fill-rule="nonzero"/><path d="M2173.89 215.485v6.104h187.8l-4.104-6.104H2173.89z" fill="#2a3890" fill-rule="nonzero"/><path d="M2198.16 122.595V46.403h45.7l-2.717-4.025-.533-.8-9.937-14.775h-56.8l.004 48.142.004 62.004 28.704-14.354h-4.425zM1479.6 46.405c3.558 0 7.05.191 10.417.583l.05.004.187.02c2.992.355 5.98.905 9.121 1.68 2.325.57 4.108 1.088 5.733 1.65l.246.07.254.093c1.971.704 3.975 1.575 6.142 2.658.45.229.896.462 1.333.7 2.134 1.146 3.867 2.208 5.342 3.27l.038.022.2.145.212.159.058.05c.138.1.271.208.405.316v-24.87c-1.325-.425-2.717-.9-3.93-1.225a85.719 85.719 0 0 0-6.754-1.584 203.566 203.566 0 0 0-8.67-1.462c-8.571-1.25-16.976-1.884-24.976-1.884h-40.691v19.605h45.283zM1545.25 213.761c-2.288-2.746-4.633-5.575-7.03-8.458l-.878-1.07-.259-.31-.766-.924-7.792-9.421-3.33-4.05-.59-.717-.334-.4-3.446-4.187-.52-.638-1.138-1.379-2.113-2.57-.933-1.138-1.759-2.142-2.812-3.425-.263-.32-.445-.538-.167-.209-2.446-2.983-.65-.792-.733-.895-.225-.271-.163-.2-.008-.009-.525-.641-.233-.292-6.521-7.946 9.587-3.716 2.021-.796.008-.004.575-.23.267-.104c1.1-.441 2.338-.946 3.667-1.504l.866-.375.817-.354 1.146-.496c.396-.17.812-.354 1.208-.533v-19.496c-.704.546-1.408 1.1-2.22 1.646a57.44 57.44 0 0 1-4.076 2.508 57.267 57.267 0 0 1-4.279 2.18 62.886 62.886 0 0 1-4.458 1.837 64.272 64.272 0 0 1-5.325 1.666c-.42.109-.85.213-1.275.313l-.433.1c-1.28.308-2.58.592-3.9.829a71.358 71.358 0 0 1-6.021.82l-.48.05c-.433.047-.87.088-1.308.122-2.146.154-4.096.229-5.966.229h-45.28v16.42h37.559l2.233 2.95 45.225 59.692h32.463l-.646-.77-.358-.425-.371-.442-3.73-4.467-1.437-1.725zM1671.036 150.868l44.309-69.617-41.097 20.547-44.482 69.704 41.27-20.634z" fill="#fff" fill-rule="nonzero"/><path d="M1627.99 218.502l1.92-3.017h-4.587l2.667 3.017z" fill="#ce171e" fill-rule="nonzero"/><path d="M1816.6 173.778l.392.605.625.962.458.708.346.538 2.42 3.725.772 1.187.295.459.338.516.217.33.804 1.237 1.346 2.075.666 1.025.5.771 3.875 5.954 7.53 11.58-13.809-.072c-10.68-.054-43.12-.216-70.63-.379l-20.966 10.484h-22.73l-3.678 5.625-1.588 2.425h171.23l-37.792-60.771-20.967 10.483.346.533zM1754.19 76.387c.75 1.213 1.58 2.55 2.454 3.954l.746 1.196.142.225 1.991 3.18 1.034 1.65 2.508 3.966.325.52.408.642 3.6 5.675.221.346.367.575 1.97 3.092 22.209-11.104-22.512-36.204-22.317 11.158 6.854 11.13zM2301.03 26.76l6.52 8.828 8.022 10.859h39.312l39.375-19.688h-93.229z" fill="#fff" fill-rule="nonzero"/><path d="M2530.09 221.63h33.058l-5.233-6.145h-32.483l4.658 6.146z" fill="#2a3890" fill-rule="nonzero"/><path fill="#ce171e" d="M1306.892 427.808l.05.105.038-.018-.05-.105z"/><path d="M1306.98 427.895h.058l-.025-.025-.033.025zM1306.95 427.956l.03-.063-.03.038v.025z" fill="#ce171e" fill-rule="nonzero"/><path d="M1306.98 427.895l-.03.063v-.025l-.058-.126.121.063.025.025h-.058zM1181.52 51.997c.308.092.613.196.917.313.329.125.641.283.966.416.842.354 1.684.713 2.505 1.092l1.108.504a96.413 96.413 0 0 1 5.32 2.57c.284.15.559.31.834.468l.304.175c3.584 1.954 6.93 4.066 9.959 6.304 2.054 1.525 3.829 2.954 5.333 4.283l.217.188.054.05c1.566 1.404 3.17 2.987 4.9 4.837.375.404.741.82 1.1 1.233l.308.35a71.961 71.961 0 0 1 3.32 4.046l.272.363c.341.437.679.879 1.004 1.333 1.525 2.125 2.8 4.067 3.883 5.93 1.067 1.833 2.096 3.828 3.2 6.203.159.288.309.58.442.88a73.339 73.339 0 0 1 2.9 7.508c.679 2.087 1.287 4.387 1.867 7.025.125.55.229 1.108.333 1.667l.083.454a77.09 77.09 0 0 1 .83 5.362l.058.484c.066.558.137 1.12.187 1.687.25 2.725.371 5.158.371 7.433 0 2.838-.142 5.667-.417 8.417a77.31 77.31 0 0 1-2.187 12.117 71.77 71.77 0 0 1-4.08 11.383 73.082 73.082 0 0 1-4.403 8.167c-.121.2-.246.387-.434.666-1.4 2.209-2.946 4.375-4.77 6.684l-.33.412c-1.162 1.45-2.366 2.95-3.704 4.367a64.75 64.75 0 0 1-4.212 4.212l-.084.084-.187.166c-1.604 1.438-3.396 2.884-5.475 4.417-1.063.783-2.175 1.508-3.288 2.225l-.537.346-.492.325c-.437.287-.875.575-1.362.875a83.104 83.104 0 0 1-5.421 2.983l-.392.204c-2.02 1-4.083 1.93-6.125 2.759l-1.033.425c-.58.242-1.175.467-1.759.696-.37.141-.729.304-1.108.437-.87.304-1.804.6-2.788.9v19.809c.713-.18 1.392-.338 2.15-.538l.492-.142c.421-.108.834-.237 1.254-.354.817-.225 1.638-.446 2.446-.691 2.846-.863 5.396-1.655 7.825-2.6l.321-.125a116.94 116.94 0 0 0 9.246-4.109 106.33 106.33 0 0 0 8.837-4.925c2.805-1.746 5.53-3.629 8.092-5.6a94.86 94.86 0 0 0 7.342-6.254c1.841-1.746 3.779-3.77 5.916-6.2.396-.45.775-.913 1.159-1.37l.475-.576a94.983 94.983 0 0 0 3.912-5.029l.434-.596c.358-.487.712-.975 1.054-1.475 1.804-2.633 3.291-4.992 4.541-7.217.096-.195.196-.391.313-.6 1.192-2.137 2.408-4.575 3.708-7.45.134-.295.28-.583.454-.904a91.389 91.389 0 0 0 3.45-9.196c.792-2.516 1.521-5.362 2.23-8.7.133-.62.245-1.258.358-1.891l.137-.75c.405-2.209.742-4.475 1-6.742l.092-.792c.08-.645.154-1.291.213-1.95.308-3.52.458-6.625.458-9.487 0-13.946-2.604-26.846-7.73-38.342-.983-2.2-2.14-4.475-3.658-7.183-.508-.917-1.05-1.808-1.612-2.746a90.817 90.817 0 0 0-2.404-3.72c-.304-.447-.592-.913-.88-1.376-.233-.37-.458-.75-.712-1.108-1.33-1.838-2.817-3.625-4.642-5.746-.279-.325-.545-.667-.808-1.008-.1-.13-.196-.263-.304-.384a86.604 86.604 0 0 0-6.317-6.358l-.129-.104-.212-.188a90.303 90.303 0 0 0-6.959-5.666l-.008-.004-.171-.125c-2.046-1.496-4.412-3.042-7.23-4.734-.528-.32-1.078-.625-1.624-.929l-.65-.367a103.432 103.432 0 0 0-5.854-3.066l-.675-.33c-.58-.283-1.154-.566-1.75-.833-3.13-1.425-5.934-2.579-8.559-3.525-3.537-1.27-7.27-2.35-11.125-3.291-1.241-.305-2.633-.43-3.896-.7v21.2c.692.241 1.263.383 2.013.662M1370.673 142.528l12.692 16.421h50.95l.001-16.42-63.643-.001zM1291.162 26.8l14.481 19.608h128.674l-.001-19.605-143.154-.002z" fill="#ce171e" fill-rule="nonzero"/><path d="M577.127 205.365l-.48-.004-1.92-.009-1.338-.008-3.412-.017-2.383-.016-3.692-.017-1.533-.008-1.488-.009-1.304-.008-4.3-.02-.267-.005-1.812-.008-4.371-.025-3.004-.017-.388-.004-2.787-.013-2.525-.012-3.321-.021-.508-.004h-.434l-1.687-.013-2.009-.008-3.416-.02-4.825-.026-4.834-.029-.666-.004-6.45-.038-2.53-.012-3.708-.025h-.316l-.609-.004h-.408l-.458-.005-.538-.004-1.304-.008-4.604-.025-3.175-.02-2.792-.018-2.392-.016-1.983-.013-1.27-.008-4.81-.03h-.316l-.354-.003-4.512-.034h-.396l-2.075-.016-.834-.005-12.195 18.721 152.054.575-35.321-18.687z" fill="#2a3890" fill-rule="nonzero"/><path d="M1752.74 205a23120.681 23120.681 0 0 1-29.167-.183c-2.862-.02-5.466-.041-7.516-.062l-3.705 5.67-8.745 13.055h13.533l35.6-18.48z" fill="#ce171e" fill-rule="nonzero"/><path d="M2099.296 222.328l-15.55-19.346-41.64-.001-36.98 18.77 94.17.577z" fill="#2a3890" fill-rule="nonzero"/><path d="M61.16 130.71a3.87 3.87 0 0 0-4.313-1.295 3.863 3.863 0 0 0-2.617 3.662v87.48c0 2.141 1.73 3.87 3.871 3.87h67.617c1.475 0 2.82-.837 3.47-2.162a3.873 3.873 0 0 0-.408-4.071L61.16 130.71zM1378.13 224.428a3.874 3.874 0 0 0 3.475-2.167c.65-1.32.492-2.9-.412-4.07l-67.767-87.676a3.86 3.86 0 0 0-4.309-1.292 3.866 3.866 0 0 0-2.62 3.659v87.675a3.87 3.87 0 0 0 3.866 3.87h67.767z" fill="#ed1c24" fill-rule="nonzero"/><path d="M729.863 168.518l.404 47.141.1 11.425c.004.259-.05.509-.141.742-.096.237-.238.45-.421.633a1.934 1.934 0 0 1-1.371.575h-28.225c-.667 0-1.28-.341-1.638-.9l-23.966-37.841c-.196-.309-.3-.671-.3-1.034l.004-1.587.025-50.654c0-1.067.866-1.934 1.937-1.934H806.21c.037 0 .075-.004.112-.004 1.571 0 3.105-.058 4.605-.158.662-.042 1.291-.13 1.941-.192.846-.083 1.692-.158 2.513-.27.82-.117 1.612-.272 2.404-.417.6-.109 1.2-.213 1.783-.338.904-.2 1.78-.433 2.65-.675.43-.117.863-.233 1.284-.362a45.68 45.68 0 0 0 2.787-.959 41.621 41.621 0 0 0 3.754-1.62c.188-.088.371-.184.55-.276a40.95 40.95 0 0 0 2.909-1.62l.266-.171c1-.63 1.975-1.292 2.913-2.004.746-.567 1.504-1.125 2.208-1.746a39.494 39.494 0 0 0 3.008-2.95 35.972 35.972 0 0 0 2.471-3.017c.254-.338.475-.696.713-1.046l.008-.008c.246-.359.47-.73.704-1.092.238-.362.488-.717.713-1.092.116-.2.225-.408.337-.616.125-.234.254-.463.38-.696.374-.704.741-1.413 1.07-2.138.221-.479.421-.962.621-1.45.296-.725.567-1.462.82-2.216.172-.5.338-1.004.484-1.517.23-.783.425-1.579.604-2.383.117-.5.238-1 .334-1.509v-.004c.029-.15.041-.308.066-.458a49.73 49.73 0 0 0 .33-2.254c.004 0 .004 0 .004-.004l.012-.113c.054-.404.117-.808.154-1.22.125-1.376.196-2.772.196-4.197a44.734 44.734 0 0 0-.746-8.108c0-.008 0-.017-.004-.025a39.66 39.66 0 0 0-1.6-5.95c-.083-.233-.175-.462-.258-.692-.692-1.845-1.488-3.633-2.446-5.325-.008-.016-.017-.033-.025-.045-.942-1.655-2.046-3.209-3.246-4.705a29.232 29.232 0 0 0-.796-.954c-1.233-1.446-2.554-2.833-4.033-4.108l-.008-.008c-1.354-1.163-2.817-2.196-4.33-3.167a35.16 35.16 0 0 0-1.145-.708c-1.546-.925-3.146-1.788-4.846-2.521-2.55-1.096-5.27-1.975-8.154-2.638-1.925-.441-3.95-.746-6.017-.991a45.535 45.535 0 0 0-1.554-.163c-.196-.02-.408-.017-.604-.033-1.917-.167-3.859-.3-5.896-.3h-216.23a1.944 1.944 0 0 1-1.637-.9l-19.367-30.625a1.926 1.926 0 0 1-.058-1.97c.167-.305.417-.555.708-.73.292-.171.63-.271.984-.271h229.55c7.5 0 14.608.492 21.283 1.467 6.675.979 12.909 2.437 18.659 4.379 11.208 3.77 20.704 9.02 28.229 15.591.146.125.266.271.412.4 1.217 1.08 2.338 2.213 3.45 3.355.388.4.834.77 1.213 1.179.046.05.1.091.146.141 1.462 1.588 2.8 3.255 4.075 4.963.145.192.316.362.454.554.229.317.416.67.641.992.909 1.3 1.771 2.633 2.584 4.008.32.546.654 1.088.966 1.646 1.042 1.892 2.03 3.825 2.909 5.862v.009a66.55 66.55 0 0 1 2 5.25c.12.358.204.737.32 1.1.2.646.376 1.304.563 1.958a73.48 73.48 0 0 1 1.233 4.996c.142.68.292 1.35.417 2.037.071.388.171.759.238 1.15.32 1.95.579 3.938.762 5.963v.004c.23 2.48.325 5.025.342 7.608.004.234.029.446.029.675v.005c0 .116-.017.229-.017.35a85.089 85.089 0 0 1-1.32 14.8c-.059.316-.076.654-.138.97a71.77 71.77 0 0 1-1.7 6.863c-.004.012-.004.02-.008.033-.009.03-.013.059-.021.084-.509 1.704-1.159 3.312-1.784 4.941-.312.817-.55 1.68-.891 2.471a63.33 63.33 0 0 1-2.534 5.142c-.058.108-.129.208-.191.32a59.726 59.726 0 0 1-2.33 3.897 58.645 58.645 0 0 1-6.533 8.2 63.598 63.598 0 0 1-5.229 4.887c-3.83 3.204-8.142 6.088-12.904 8.63a90.25 90.25 0 0 1-7.47 3.553c-2.6 1.1-5.31 2.113-8.118 3.03a99.872 99.872 0 0 1-9.016 2.487c-4.68 1.067-9.621 1.87-14.804 2.408-5.18.538-10.6.805-16.238.805h-69.975zm114.02 10.85c13.363-4.384 24.884-10.58 34.247-18.405 9.446-7.9 16.712-17.608 21.608-28.854 2.433-5.591 4.263-11.533 5.488-17.792a97.643 97.643 0 0 0 1.379-9.616c.308-3.284.462-6.638.462-10.054 0-6.838-.616-13.421-1.841-19.705-1.221-6.287-3.055-12.275-5.484-17.925-4.887-11.345-12.083-21.22-21.391-29.341-9.255-8.08-20.734-14.463-34.117-18.975-9.975-3.363-21.083-5.48-33.138-6.33-4.02-.283-8.145-.424-12.37-.424h-257.65a3.86 3.86 0 0 0-1.967.537 3.834 3.834 0 0 0-1.421 1.463 3.876 3.876 0 0 0 .12 3.937l38.947 61.58a3.932 3.932 0 0 0 1.4 1.32c.566.308 1.204.48 1.87.48h224.75c6.892 0 12.63 1.195 17.126 3.562 1.5.791 2.862 1.708 4.083 2.758a20.285 20.285 0 0 1 3.12 3.342c1.78 2.4 2.95 5.162 3.538 8.32.292 1.58.434 3.259.434 5.046 0 1.788-.142 3.475-.438 5.067-.587 3.183-1.767 5.98-3.554 8.43a21.19 21.19 0 0 1-3.138 3.42c-4.87 4.288-11.995 6.463-21.17 6.463H659.37a3.877 3.877 0 0 0-3.566 2.362c-.196.463-.305.971-.305 1.509l-.037 72.2c0 .62.18 1.216.458 1.762.054.1.08.213.142.308l11.992 18.938 18.933 29.896a3.896 3.896 0 0 0 3.27 1.8h52.355c1.033 0 2.02-.413 2.746-1.146a3.843 3.843 0 0 0 1.12-2.758l-.487-56.613h52.417c16.887 0 32.187-2.208 45.475-6.562M301.307 202.502c.663.8 1.325 1.6 1.98 2.388 1.25 1.508 2.483 2.987 3.69 4.437 1.263 1.513 6.2 7.413 7.284 8.709a.835.835 0 0 1 .054.062c.005 0 .009.004.009.008.016.025.041.05.062.071.042.05.084.104.125.154.28.33.546.646.813.967.454.538.879 1.038 1.312 1.55a308.304 308.304 0 0 0 1.654 1.954c.296.354.555.654.846.996.596.7 1.2 1.417 1.742 2.046a1.94 1.94 0 0 1 .288 2.067 1.945 1.945 0 0 1-1.758 1.125h-46.26c-.608 0-1.179-.284-1.541-.767l-46.88-61.875h-88.345c-.6 0-1.163-.275-1.53-.75l-21.208-27.442a1.935 1.935 0 0 1-.395-.987c-.038-.35.029-.717.191-1.05.321-.663.996-1.08 1.734-1.08h120.979c2.675 0 5.25-.183 7.775-.458a73.951 73.951 0 0 0 1.712-.208 62.624 62.624 0 0 0 7.309-1.421l.075-.025a55.51 55.51 0 0 0 6.787-2.225c.058-.025.108-.05.167-.075.416-.17.829-.358 1.241-.538a51.865 51.865 0 0 0 5.33-2.691c.991-.575 2.016-1.104 2.966-1.746 1.075-.72 2.063-1.504 3.038-2.296a50.176 50.176 0 0 0 2.466-2.204 38.156 38.156 0 0 0 3.184-3.463 45.31 45.31 0 0 0 1.687-2.254c.792-1.175 1.538-2.37 2.18-3.616.233-.467.429-.95.645-1.421a35 35 0 0 0 1.313-3.284c.187-.562.362-1.125.525-1.695.32-1.146.579-2.325.787-3.521.096-.534.213-1.054.284-1.596.233-1.742.383-3.517.383-5.35 0-2.125-.167-4.096-.404-5.988-.042-.354-.096-.695-.146-1.041a43.36 43.36 0 0 0-.67-3.525c-.076-.317-.147-.638-.23-.95a37.277 37.277 0 0 0-1.042-3.338c-.075-.216-.146-.441-.225-.65-.47-1.229-.983-2.4-1.541-3.5-.013-.016-.021-.041-.03-.058a34.678 34.678 0 0 0-3.95-6.07c-.154-.188-.312-.36-.466-.543a33.597 33.597 0 0 0-1.563-1.737 35.43 35.43 0 0 0-1.57-1.517c-.138-.129-.28-.254-.417-.383-.154-.15-.309-.296-.463-.433a37.18 37.18 0 0 0-2.45-1.942l-.079-.05a40.7 40.7 0 0 0-3.42-2.213c-.142-.083-.297-.15-.438-.229a44.291 44.291 0 0 0-3.404-1.75c-.038-.02-.084-.033-.125-.054a51.773 51.773 0 0 0-3.967-1.592 56.352 56.352 0 0 0-4.442-1.354c-.354-.096-.72-.166-1.079-.254a66.881 66.881 0 0 0-7.912-1.417c-.221-.029-.455-.037-.675-.062h-.005c-.15-.017-.32-.013-.47-.025-2.784-.283-5.646-.47-8.671-.47H58.59c-.308 0-.604-.076-.87-.21a1.905 1.905 0 0 1-.684-.578L34.416 22.44a1.915 1.915 0 0 1-.372-.988c-.029-.35.034-.708.2-1.033.163-.325.413-.592.713-.775a1.923 1.923 0 0 1 1.012-.288H230.74c8.388 0 17.117.659 26.046 1.963 2.98.433 5.98.937 8.992 1.512.012.004.02.004.029.009 2.537.487 5.012 1.087 7.458 1.745.725.196 1.442.417 2.163.63 1.787.525 3.55 1.1 5.279 1.716.7.25 1.404.492 2.096.759 2.304.887 4.57 1.829 6.762 2.883l.025.012a86.696 86.696 0 0 1 6.7 3.605c.138.083.284.145.421.229 1.992 1.196 3.875 2.508 5.696 3.883.204.15.433.275.633.43.334.258.621.566.95.828a63.032 63.032 0 0 1 3.821 3.334c.304.291.65.537.95.833.18.18.334.388.513.57 1.612 1.626 3.17 3.318 4.633 5.138.08.1.15.217.23.317 1.233 1.55 2.383 3.23 3.516 4.93.283.424.596.79.87 1.22 5.472 8.604 8.242 20.213 8.242 34.5 0 3.054-.187 6.046-.516 8.988-.038.337-.117.658-.163.991-.296 2.346-.633 4.671-1.137 6.925a70.84 70.84 0 0 1-1.404 5.288 72.644 72.644 0 0 1-1.75 4.991 67.15 67.15 0 0 1-2.092 4.73c-.254.512-.55.991-.813 1.491-.262.496-.529.992-.804 1.48-1.104 1.962-2.27 3.87-3.566 5.662-.046.062-.096.117-.142.18a52.636 52.636 0 0 1-2.792 3.512c-.925 1.075-1.916 2.096-2.925 3.096-.096.087-.175.187-.27.279-.088.083-.163.179-.25.262a56.213 56.213 0 0 1-7.672 6.146c-1.02.78-2.179 1.563-3.395 2.346-.363.233-.742.462-1.121.696a87.013 87.013 0 0 1-2.892 1.712c-.387.221-.767.438-1.162.654-1.363.75-2.755 1.492-4.18 2.213a175.163 175.163 0 0 1-5.645 2.708c-1.067.492-2.109.967-3.142 1.425-.4.175-.792.35-1.18.521-1.137.5-2.233.967-3.287 1.413-.179.075-.387.166-.566.241-.475.2-.863.354-1.313.538-.575.237-1.117.462-1.646.675-.254.104-.562.233-.8.329-.212.087-.35.137-.55.22-.191.076-.337.13-.525.205-.583.233-1.162.462-1.641.65-.071.029-.175.067-.242.096.083.1.208.25.296.362.558.68 1.233 1.5 1.991 2.43.621.758 1.259 1.537 2.005 2.445 1.787 2.18 3.904 4.763 6.25 7.613 1.062 1.296 2.175 2.65 3.325 4.046.604.737 1.22 1.487 1.85 2.245 1.291 1.575 2.62 3.192 3.983 4.842a5705.137 5705.137 0 0 0 10.288 12.458c.512.625 1.024 1.242 1.537 1.863.87 1.05 1.733 2.092 2.6 3.133m-6.858-29.837a160.99 160.99 0 0 0-3.446-3.384 72.668 72.668 0 0 0 9.233-3.633c2.954-1.404 5.775-3 8.454-4.787a73.142 73.142 0 0 0 10.096-8.096 71.243 71.243 0 0 0 8.417-9.671 74.395 74.395 0 0 0 3.537-5.358 78.123 78.123 0 0 0 3.113-5.705 82.51 82.51 0 0 0 2.67-6.025 84.687 84.687 0 0 0 2.226-6.329 85.98 85.98 0 0 0 1.746-6.55c1.495-6.658 2.25-13.62 2.25-20.779 0-15.446-2.821-28.667-8.396-39.396a59.443 59.443 0 0 0-2.559-4.442 88.593 88.593 0 0 0-5.787-8.075c-6.167-7.645-13.458-14.016-21.767-19.004-10.958-6.575-23.279-11.204-36.617-13.75-13.129-2.516-26.016-3.791-38.308-3.791H3.87a3.87 3.87 0 1 0-3.113 6.17l45.48 61.58a3.883 3.883 0 0 0 3.112 1.57h185.376c5.291 0 9.995.517 14.087 1.546 4.092 1.034 7.567 2.575 10.4 4.625 5.35 3.863 7.954 9.609 7.954 17.563 0 6.954-2.879 12.27-8.804 16.254-2.367 1.6-4.97 2.9-7.783 3.904-2.821 1.004-5.854 1.708-9.096 2.113-2.163.27-4.417.404-6.758.404H82.219a3.865 3.865 0 0 0-3.846 4.258c.071.704.334 1.392.788 1.975l45.133 58.396c.363.47.83.85 1.355 1.104a3.849 3.849 0 0 0 1.704.396h87.291l46.296 61.113a3.882 3.882 0 0 0 3.088 1.529h87.558a3.876 3.876 0 0 0 3.83-3.313 3.867 3.867 0 0 0-.888-3.07c-2.121-2.48-52.004-60.876-56.475-65.613-1.225-1.3-2.43-2.542-3.604-3.73" fill="#fff" fill-rule="nonzero"/><path d="M643.095 228.025a1.938 1.938 0 0 1 .05 1.963 1.95 1.95 0 0 1-1.696.991H450.116a1.932 1.932 0 0 1-1.617-2.991l5.075-7.759 14.433-22.066v-.004c.175-.263.413-.484.684-.646.083-.05.179-.05.266-.084 0 0 .005 0 .005-.004.166-.062.325-.154.495-.154.063 0 .125.004.188.013l1.587.012c.65.008 1.4.013 2.246.02.646.005 1.33.01 2.075.018.196 0 .409 0 .609.004 1.295.008 2.741.016 4.295.029.213 0 .45.004.667.004 1.508.008 3.096.02 4.808.03.459.003.896.008 1.367.008 1.38.012 2.796.02 4.275.029 1.9.012 3.925.025 5.967.033 1.496.013 3.046.02 4.604.03l1.837.012c.292 0 .584.004.871.004.304 0 .621.004.925.004l6.238.038c2.346.012 4.72.025 7.116.041 1.613.009 3.213.017 4.834.03 2.758.012 5.508.029 8.241.041l3.692.025c.313 0 .633 0 .946.004 1.98.013 3.92.021 5.842.03.937.008 1.87.012 2.787.016 1.146.008 2.275.013 3.392.02 2.129.013 4.191.022 6.187.034h.267c1.946.013 3.817.021 5.6.03 1.037.008 2.05.012 3.02.016 2.21.013 4.242.025 6.072.038 1.795.008 3.387.016 4.754.02h.041l1.88.013c1.691.008 2.816.012 3.25.017l-1.521-2.342a5.844 5.844 0 0 0-.138-.204c-.95-1.467-2.104-3.242-3.375-5.196l-1.337-2.063a17683.174 17683.174 0 0 1-27.875-43.038l-.288-.445a9520.91 9520.91 0 0 1-16.212-25.188c-.138-.208-.267-.416-.404-.625-1.23-1.92-2.446-3.82-3.646-5.691l-.067-.104a4839.49 4839.49 0 0 1-8.896-13.954l-.408-.646c-.758-1.192-1.5-2.359-2.22-3.5l-.51-.805c-.674-1.07-1.333-2.112-1.974-3.125l-.521-.829-1.708-2.725c-.2-.316-.4-.637-.596-.946-.563-.9-1.096-1.758-1.617-2.595-.137-.221-.283-.45-.417-.667a493.085 493.085 0 0 1-1.829-2.958L493.037 61.87 386.87 228.67a1.926 1.926 0 0 1-1.48.888c-.037.004-.079.004-.116.004-.167 0-.333-.059-.496-.1-.004 0-.004 0-.008-.004-.092-.021-.184-.017-.271-.055a1.814 1.814 0 0 1-.708-.491l-23.988-27.13c-.287-.32-.45-.72-.48-1.129-.007-.079.055-.15.055-.229-.012-.329.05-.658.242-.958v-.004l12.687-19.875 23.038-36.1 31.125-48.775 14.992-23.492 21.308-33.392a61.867 61.867 0 0 1 6.27-8.046 68.922 68.922 0 0 1 7.734-7.191 20.958 20.958 0 0 1 3.52-2.28c.005-.004.01-.004.013-.004 1.13-.583 2.35-1.045 3.625-1.45.384-.12.784-.216 1.18-.325.295-.079.625-.125.933-.191.696-.163 1.387-.334 2.125-.45.429-.063.846-.138 1.287-.192.371-.042.788-.033 1.163-.07 1.129-.105 2.254-.213 3.483-.213h.021c.238 0 .442.033.675.037 1.492.025 2.946.088 4.3.259.008 0 .013.004.017.004 1.404.179 2.716.466 3.983.808.38.104.738.23 1.104.346.909.292 1.784.625 2.621 1.008.333.154.68.3 1.004.467 1.092.567 2.142 1.187 3.113 1.925 5.396 4.096 9.887 9.096 13.729 15.296l67.92 109.237 50.505 81.221zM520.032 8.395C512.687 2.826 503.487 0 492.691 0c-11.254 0-20.75 3.025-28.213 8.988-7.079 5.65-13.037 12.15-17.712 19.312l-109.53 171.634a3.863 3.863 0 0 0-.595 2.383c.029.408.125.812.287 1.196.163.379.383.741.67 1.066l37.588 42.505a3.876 3.876 0 0 0 2.896 1.308h13.325c1.321 0 2.554-.675 3.263-1.792l95.967-150.783.725-1.138c.17.275.391.638.575.934.254.412.495.812.758 1.233.296.48.546.883.862 1.404 5.684 9.22 15.055 24.438 24.438 39.654 7.475 12.121 14.954 24.246 20.58 33.338 2.257 3.654 4.216 6.816 5.753 9.296-6.608-.021-17.262-.105-28.812-.205l-7.013-.062c-2.354-.02-4.72-.046-7.075-.067-3.525-.033-7.02-.066-10.396-.1l-9.683-.096-3.346-.037c-5.416-.054-10.008-.104-13.208-.133a1267.08 1267.08 0 0 0-4.867-.055h-.046c-1.304 0-2.52.659-3.237 1.75l-39.813 60.871a3.868 3.868 0 0 0 3.238 5.988h247.8a3.873 3.873 0 0 0 3.87-3.963c-.003-.158-.112-.295-.137-.45a6.976 6.976 0 0 0-.145-.77 2.42 2.42 0 0 0-.305-.73L538.02 28.371c-4.904-7.917-10.954-14.642-17.988-19.975M1565.43 227.909a1.93 1.93 0 0 1-1.758 1.125h-47.088c-.6 0-1.17-.283-1.537-.767l-46.884-61.875h-87.516c-.6 0-1.163-.275-1.53-.75l-21.212-27.437c-.03-.042-.033-.084-.046-.13a.995.995 0 0 0-.062-.154 2.15 2.15 0 0 1-.263-.85c-.02-.304.025-.612.167-.9v-.008a1.94 1.94 0 0 1 1.737-1.08h120.15c1.85 0 3.65-.083 5.425-.212.546-.037 1.075-.104 1.613-.154a68.169 68.169 0 0 0 3.662-.446c.584-.091 1.171-.187 1.75-.291a61.965 61.965 0 0 0 3.48-.738c.504-.125 1.016-.233 1.512-.367 1.604-.433 3.18-.908 4.704-1.47a52.169 52.169 0 0 0 3.917-1.613 51.628 51.628 0 0 0 3.741-1.9 52.46 52.46 0 0 0 3.555-2.192c1.625-1.091 3.07-2.295 4.462-3.533.463-.412.913-.833 1.35-1.258.817-.804 1.546-1.659 2.267-2.517.204-.242.441-.467.641-.712.942-1.188 1.825-2.405 2.6-3.68 1.575-2.583 2.771-5.366 3.638-8.304.08-.27.183-.529.254-.8.358-1.32.613-2.687.821-4.07.042-.267.104-.521.142-.792.208-1.638.32-3.313.32-5.034v-.004c0-1.975-.137-3.82-.345-5.6-.055-.487-.13-.958-.205-1.429-.2-1.37-.454-2.683-.766-3.937-.088-.342-.159-.7-.25-1.034-.438-1.579-.938-3.083-1.521-4.475-.008-.02-.02-.037-.03-.058-.537-1.275-1.145-2.446-1.778-3.575-.417-.73-.855-1.43-1.3-2.104-.238-.363-.463-.73-.709-1.071a27.11 27.11 0 0 0-.796-1.133c-.054-.071-.112-.13-.162-.196a36.16 36.16 0 0 0-3.313-3.663c-.062-.058-.12-.112-.179-.17-.004-.005-.004-.005-.004-.009-.25-.23-.492-.437-.737-.667-.355-.325-.709-.658-1.063-.962-.367-.304-.729-.58-1.096-.867-.27-.216-.55-.458-.825-.654 0 0 0-.004-.004-.004-.029-.02-.058-.05-.083-.067l-.009-.008c-1.479-1.067-3.07-2.008-4.716-2.896-.38-.204-.763-.404-1.15-.6-1.696-.85-3.45-1.637-5.309-2.304-.091-.033-.191-.054-.279-.088-1.666-.583-3.429-1.062-5.22-1.504a67.153 67.153 0 0 0-8.217-1.516c-.021 0-.038-.005-.059-.005a83.423 83.423 0 0 0-9.729-.55h-176.733c-.234 0-.45-.079-.667-.158a1.822 1.822 0 0 1-.517-.312h-.004c-.125-.105-.27-.18-.37-.313l-22.617-30.63a1.92 1.92 0 0 1 .541-2.79 1.89 1.89 0 0 1 1.013-.292h194.77c8.393 0 17.118.658 26.047 1.962 2.979.433 5.975.942 8.991 1.517 2.5.475 4.942 1.054 7.334 1.716 2.341.625 4.62 1.363 6.866 2.142.009.004.017.008.025.008.005 0 .005.005.005.005.67.233 1.375.416 2.033.662 2.162.808 4.246 1.733 6.312 2.688.109.054.23.095.342.145.292.138.608.242.896.384a87.027 87.027 0 0 1 7.096 3.82c.004.005.008.005.012.009.004.004.009.004.013.004a65.965 65.965 0 0 1 6.325 4.313c4.012 3.095 7.62 6.65 10.87 10.704a74.32 74.32 0 0 1 4.617 6.466c5.467 8.605 8.242 20.213 8.242 34.5 0 1.95-.07 3.88-.204 5.788-.18 2.542-.525 5.017-.942 7.462-.104.613-.216 1.221-.337 1.83-.475 2.42-1.025 4.808-1.738 7.112v.004l-.004.004c-.7 2.271-1.542 4.442-2.446 6.563-.225.53-.458 1.054-.7 1.575-.95 2.083-1.967 4.117-3.12 6.033v.009a57.171 57.171 0 0 1-2.755 4.166c0 .004-.004.004-.004.009-1.313 1.816-2.8 3.466-4.342 5.05-.387.4-.77.791-1.17 1.179a77.202 77.202 0 0 1-4.713 4.229 134.62 134.62 0 0 1-3.717 2.937 52.584 52.584 0 0 1-3.779 2.609c-.112.075-.254.146-.37.22-1.042.65-2.18 1.288-3.309 1.926-.7.4-1.35.8-2.07 1.191-.334.18-.68.342-1.018.517-2.991 1.58-6.029 3.02-9 4.375-.337.154-.687.346-1.025.5-1.091.492-2.145.95-3.183 1.4a91.15 91.15 0 0 1-1.175.508c-.567.242-1.2.525-1.742.755-1.362.57-2.633 1.087-3.766 1.545-.192.075-.321.125-.504.2h-.009c-.054.021-.1.042-.141.059-.067.025-.13.05-.2.079-.75.296-1.513.6-2.1.829.045.058.104.133.158.196.183.225.392.475.604.733.03.042.063.084.096.121l.058.07.05.063.188.225c.412.509.904 1.105 1.383 1.692.742.904 1.546 1.888 2.446 2.983.062.075.104.125.167.205.02.025.041.054.066.075.209.258.43.529.642.787.892 1.088 1.804 2.196 2.808 3.42.025.03.054.063.08.097.82 1 1.729 2.104 2.616 3.179.692.85 1.375 1.679 2.104 2.567.534.654 1.109 1.345 1.659 2.016 1.237 1.5 2.479 3.009 3.775 4.588 1.291 1.562 2.591 3.146 3.92 4.758 2.563 3.1 5.18 6.267 7.784 9.413.341.416.683.825 1.02 1.233a5182.134 5182.134 0 0 0 8.538 10.283c1.554 1.863 3.063 3.671 4.517 5.404.004.009.008.013.012.017l.034.042c.112.129.216.258.32.383.125.146.246.292.371.442 1.438 1.712 2.821 3.358 4.117 4.891l.308.367c.009.004.013.013.021.02.738.872 1.371 1.613 2.05 2.413.596.696 1.246 1.467 1.783 2.096a1.931 1.931 0 0 1 .288 2.067m.27-23.663l-2.79-3.245c-1.08-1.25-2.138-2.48-3.18-3.688-1.208-1.4-2.4-2.78-3.546-4.104-1.487-1.725-2.912-3.371-4.25-4.917-2.008-2.312-3.82-4.4-5.358-6.166a734.73 734.73 0 0 0-2.817-3.209c-.537-.608-1-1.133-1.383-1.558-.384-.425-.68-.754-.88-.967a197.89 197.89 0 0 0-7.054-7.112c1.6-.509 3.171-1.063 4.709-1.671a70.838 70.838 0 0 0 4.525-1.958 68.064 68.064 0 0 0 8.458-4.792 73.287 73.287 0 0 0 10.088-8.092 71.273 71.273 0 0 0 8.42-9.67 75.415 75.415 0 0 0 3.538-5.363 79.102 79.102 0 0 0 5.783-11.734 83.952 83.952 0 0 0 2.23-6.325 85.425 85.425 0 0 0 1.737-6.55c1.5-6.658 2.254-13.62 2.254-20.779 0-6.62-.52-12.833-1.55-18.612a82.082 82.082 0 0 0-1.204-5.638 72.005 72.005 0 0 0-3.42-10.396 65.258 65.258 0 0 0-2.222-4.75c-.8-1.529-1.65-3.012-2.558-4.441-3.6-5.659-7.717-10.767-12.317-15.292a81.639 81.639 0 0 0-15.237-11.783 105.232 105.232 0 0 0-8.471-4.567 111.14 111.14 0 0 0-18.342-6.887c-3.2-.896-6.47-1.663-9.808-2.3-13.125-2.513-26.017-3.788-38.308-3.788h-221.48c-.366 0-.729.054-1.075.15a3.888 3.888 0 0 0-2.396 2.008 3.864 3.864 0 0 0 .405 4.071l47.42 61.58c.167.216.409.324.613.5.696.591 1.525 1.008 2.454 1.008h179.475c7.934 0 14.554 1.166 19.759 3.479 1.733.77 3.312 1.667 4.729 2.692a17.466 17.466 0 0 1 3.804 3.725c1.046 1.4 1.88 2.954 2.53 4.65 1.02 2.675 1.62 5.683 1.62 9.187 0 2.608-.408 4.988-1.225 7.15a17.068 17.068 0 0 1-2.192 4.046c-.912 1.258-2.016 2.42-3.308 3.504a24.536 24.536 0 0 1-2.08 1.554c-3.158 2.13-6.728 3.738-10.674 4.813-1.98.533-4.046.937-6.209 1.204-2.162.27-4.416.404-6.754.404h-145.237a3.856 3.856 0 0 0-3.471 2.167 3.862 3.862 0 0 0-.38 2.091c.05.484.221.942.446 1.38.109.204.2.412.342.6l45.134 58.391c.433.563 1.033.93 1.679 1.184.441.17.896.32 1.383.32h80.02l46.305 61.109a3.878 3.878 0 0 0 3.083 1.533h87.734a3.86 3.86 0 0 0 3.512-2.254c.317-.687.421-1.433.317-2.15-.1-.72-.4-1.408-.892-1.983-.266-.313-1.283-1.496-2.862-3.338-.788-.925-1.721-2.008-2.771-3.233-1.054-1.225-2.22-2.588-3.487-4.063-1.267-1.475-2.625-3.062-4.059-4.733-.716-.833-1.454-1.687-2.204-2.562-1.5-1.75-3.062-3.567-4.667-5.434-1.604-1.862-3.241-3.77-4.9-5.7a8072.426 8072.426 0 0 0-7.487-8.696" fill="#fff" fill-rule="nonzero"/><path d="M1836.9 148.153l45.196 72.679 4.47 7.191a1.938 1.938 0 0 1 .05 1.963 1.945 1.945 0 0 1-1.695.996h-191.334a1.945 1.945 0 0 1-1.7-1.013 1.94 1.94 0 0 1-.225-1.004c.013-.342.117-.68.313-.975l7.162-10.954 12.342-18.875a1.938 1.938 0 0 1 1.62-.875h.018c4.67.046 13.895.112 25.154.183 29.333.184 72.504.404 85.141.463-.975-1.496-2.283-3.513-3.875-5.954-.366-.567-.77-1.188-1.166-1.8-.438-.667-.884-1.355-1.35-2.075-.338-.521-.663-1.021-1.021-1.567-.192-.3-.43-.667-.63-.975-1.008-1.554-2.07-3.188-3.19-4.917-.126-.187-.226-.346-.355-.537l-1.08-1.671c-.887-1.367-1.8-2.77-2.74-4.22l-.884-1.372c-.146-.216-.3-.458-.442-.675l-4.279-6.604c-.146-.225-.28-.433-.43-.658-1.52-2.359-3.095-4.788-4.695-7.254-.454-.709-.913-1.417-1.375-2.13-.742-1.15-1.475-2.283-2.23-3.45l-1.578-2.445c-.767-1.18-1.521-2.355-2.292-3.55-.638-.984-1.263-1.95-1.904-2.946l-.704-1.092c-2.7-4.187-5.413-8.396-8.109-12.587-.712-1.105-1.412-2.196-2.12-3.296-.238-.375-.484-.75-.726-1.121-.333-.521-.65-1.021-.983-1.538-.987-1.537-1.958-3.05-2.925-4.562-.587-.908-1.187-1.846-1.767-2.746a166.48 166.48 0 0 0-.566-.892c-.188-.291-.371-.57-.55-.862-1.184-1.846-2.342-3.658-3.484-5.442-.341-.541-.683-1.079-1.025-1.612a2265.416 2265.416 0 0 1-3.233-5.067c-.196-.308-.396-.62-.583-.925-1.246-1.954-2.454-3.858-3.617-5.688-.25-.4-.483-.77-.73-1.162-.866-1.37-1.712-2.7-2.516-3.983-.354-.563-.696-1.109-1.041-1.655-.696-1.108-1.359-2.17-2-3.195-.305-.48-.609-.967-.892-1.43a845.931 845.931 0 0 1-2.475-3.987l-11.346-18.42-106.158 166.803a1.92 1.92 0 0 1-1.484.888c-.045.004-.095.004-.145.004-.171 0-.326-.062-.484-.1-.004-.004-.004-.004-.008-.004-.092-.02-.184-.02-.267-.058a1.837 1.837 0 0 1-.696-.488l-23.987-27.13c-.08-.087-.075-.212-.134-.307-.016-.063-.045-.113-.07-.171-.109-.217-.259-.417-.28-.654-.004-.075.055-.146.059-.225-.017-.33.05-.65.237-.95.004 0 0-.005.004-.005v-.012l103.15-161.634c1.226-1.875 2.605-3.67 4.05-5.429a69.464 69.464 0 0 1 5.492-5.883c.146-.142.267-.3.417-.442a73.316 73.316 0 0 1 4.05-3.483c4.354-3.483 10.03-5.175 17.342-5.175.254 0 .466.037.712.042 1.48.025 2.92.087 4.267.258h.016c1.405.18 2.717.47 3.98.812.379.1.741.225 1.108.342.45.146.937.263 1.37.43.438.166.83.387 1.25.578.338.155.68.3 1.005.471.18.092.383.163.562.259.892.495 1.742 1.05 2.546 1.662.617.467 1.175.988 1.771 1.48.708.587 1.442 1.145 2.117 1.766.741.687 1.433 1.442 2.141 2.175.067.067.138.137.205.208.4.417.825.8 1.216 1.234.93 1.037 1.809 2.145 2.675 3.27.196.255.404.475.596.734a61.945 61.945 0 0 1 3.008 4.429l57.309 92.163 11.454 18.425zm-63.62-130.734a70.494 70.494 0 0 0-9.797-9.02c-5.512-4.18-12.07-6.813-19.55-7.872a56.124 56.124 0 0 0-7.796-.525c-5.625 0-10.812.755-15.529 2.255-4.712 1.504-8.954 3.75-12.683 6.729a90.005 90.005 0 0 0-5.104 4.4 85.372 85.372 0 0 0-4.659 4.7 78.571 78.571 0 0 0-7.945 10.212l-109.488 171.563c-.233.362-.4.754-.5 1.158-.096.4-.13.813-.096 1.221.063.82.388 1.617.954 2.263l37.659 42.583a3.868 3.868 0 0 0 2.9 1.304h13.208c1.32 0 2.554-.675 3.267-1.792l96.696-151.925 53.016 85.859c-1.32-.004-2.8-.013-4.42-.021-4.046-.02-8.946-.058-14.313-.1-2.146-.017-4.367-.033-6.633-.054-4.538-.038-9.271-.084-13.996-.125-8.413-.075-16.804-.159-24.025-.23-1.509-.016-2.959-.033-4.35-.045-1.05-.013-2.063-.021-3.038-.034-1.946-.016-3.741-.037-5.341-.054-.8-.008-1.555-.016-2.255-.02-3.716-.042-5.97-.063-6.091-.067h-.042a3.882 3.882 0 0 0-3.237 1.754l-39.817 60.867a3.878 3.878 0 0 0-.163 3.958 3.861 3.861 0 0 0 3.405 2.03h247.804c1.404 0 2.7-.76 3.383-1.988a3.863 3.863 0 0 0-.1-3.925L1781.467 28.369a76.47 76.47 0 0 0-8.188-10.95M975.019 110.506v117.329a1.935 1.935 0 0 1-1.933 1.933h-34.98a1.936 1.936 0 0 1-1.937-1.933v-117.33c0-1.07.867-1.933 1.937-1.933h34.98c1.066 0 1.933.863 1.933 1.934m12.113-19.93h-65.934a3.871 3.871 0 0 0-3.87 3.871v148.275a3.869 3.869 0 0 0 3.87 3.871h65.934a3.868 3.868 0 0 0 3.866-3.87V94.446a3.87 3.87 0 0 0-3.866-3.87M915.927 20.143c.354-.562.97-.904 1.638-.904l55.52.063c1.071 0 1.934.866 1.934 1.937v30.504a1.933 1.933 0 0 1-1.934 1.934h-.004l-40.887-.075c-.742 0-1.421-.43-1.742-1.096l-14.633-30.492a1.942 1.942 0 0 1 .108-1.87m2.213 49.566c.37.412.841.708 1.35.93.479.207.983.353 1.52.353l66.113.121h.008a3.863 3.863 0 0 0 2.734-1.129 3.88 3.88 0 0 0 1.137-2.738V5.777a3.867 3.867 0 0 0-3.867-3.867l-95.604-.113h-.004a3.872 3.872 0 0 0-3.492 5.542l29.496 61.458c.159.338.367.642.609.913M1020.9 51.757V21.22c0-.517.204-1.004.567-1.367a1.923 1.923 0 0 1 1.366-.566h.005l75.4.087 50.966.058h.842c3.62 0 7.158.167 10.658.413.617.042 1.259.025 1.871.07 1.213.097 2.388.272 3.588.397.6.062 1.204.125 1.8.195 10.279 1.188 20.037 3.355 29.087 6.613 3.142 1.133 6.163 2.408 9.117 3.75.879.4 1.729.825 2.591 1.246a108.754 108.754 0 0 1 6.271 3.283c.817.463 1.642.913 2.446 1.396 2.683 1.608 5.304 3.287 7.783 5.1l.021.012a97.884 97.884 0 0 1 7.709 6.263c.058.054.129.1.187.154a94.567 94.567 0 0 1 7.038 7.063c.429.479.791 1.016 1.212 1.504 1.742 2.029 3.463 4.075 5.03 6.246.62.862 1.141 1.804 1.733 2.687a92.529 92.529 0 0 1 2.587 4.004c.596.992 1.196 1.984 1.763 3 1.412 2.517 2.75 5.088 3.95 7.763 5.554 12.462 8.37 26.379 8.37 41.379 0 3.433-.195 6.8-.483 10.133-.087.988-.212 1.959-.325 2.938a105.676 105.676 0 0 1-1.075 7.246c-.175.95-.333 1.904-.533 2.845-.675 3.184-1.45 6.325-2.413 9.384a98.609 98.609 0 0 1-3.733 9.954c-.15.337-.337.642-.487.975-1.238 2.742-2.55 5.433-3.996 8.017-.084.15-.146.312-.23.462-1.537 2.742-3.22 5.367-4.979 7.93-.516.758-1.062 1.491-1.604 2.233a101.052 101.052 0 0 1-4.22 5.429c-.584.7-1.159 1.408-1.759 2.096-2.042 2.316-4.15 4.57-6.4 6.691a101.087 101.087 0 0 1-7.913 6.75 106.89 106.89 0 0 1-8.7 6.017 114.154 114.154 0 0 1-9.445 5.267c-3.271 1.629-6.663 3.129-10.167 4.5l-.017.004c-2.72 1.058-5.541 1.929-8.37 2.792a133.71 133.71 0 0 1-3.938 1.116c-.225.059-.442.13-.67.188-.005 0-.01.004-.013.004-1.513.392-3.03.775-4.559 1.129-1.52.354-3.062.683-4.62.958-1.226.221-2.513.309-3.755.496-1.879.284-3.766.538-5.679.746-1.383.142-2.758.288-4.158.392-3.48.254-6.988.446-10.571.446h-127.213c-.8 0-1.487-.488-1.779-1.184-.1-.229-.154-.483-.154-.75V110.55c0-.267.054-.52.154-.75v-.004c.13-.308.359-.55.621-.75.063-.05.125-.092.196-.133.287-.171.604-.296.962-.296h35.292c.358 0 .675.125.963.296.066.041.133.083.195.133.263.2.488.442.621.75v.004c.096.23.15.483.15.75v84.775h89.992c2.67 0 5.304-.108 7.896-.312a94.417 94.417 0 0 0 8.025-1c.875-.15 1.72-.363 2.583-.534 1.75-.35 3.496-.712 5.196-1.162 2.062-.542 4.104-1.13 6.092-1.825 1.225-.43 2.375-.95 3.562-1.43a83.514 83.514 0 0 0 5.613-2.524c.15-.075.295-.155.445-.23a75.142 75.142 0 0 0 4.838-2.67c.558-.342 1.092-.713 1.642-1.063 1.166-.758 2.345-1.5 3.454-2.317 1.704-1.258 3.362-2.566 4.929-3.97.02-.021.037-.042.058-.059l.03-.029a58.491 58.491 0 0 0 3.879-3.862c1.316-1.4 2.508-2.913 3.712-4.413a73.394 73.394 0 0 0 4.292-6.012c.116-.188.25-.363.362-.555a65.338 65.338 0 0 0 3.988-7.383 63.945 63.945 0 0 0 3.654-10.2c.937-3.525 1.6-7.179 1.975-10.946.254-2.508.38-5.066.38-7.67 0-2.288-.138-4.534-.338-6.759-.063-.662-.15-1.312-.225-1.97a71.078 71.078 0 0 0-.75-4.847c-.121-.641-.234-1.283-.375-1.916-.471-2.142-1.009-4.259-1.68-6.325a66.107 66.107 0 0 0-2.604-6.746c-.112-.25-.258-.48-.375-.73-.9-1.937-1.85-3.84-2.912-5.666-1.08-1.846-2.263-3.612-3.5-5.333-.371-.517-.763-1.017-1.15-1.521a64.14 64.14 0 0 0-2.984-3.642c-.42-.479-.833-.962-1.266-1.425-1.45-1.558-2.954-3.07-4.563-4.491-.004-.005-.004-.009-.008-.013-1.575-1.392-3.233-2.7-4.93-3.962-2.853-2.105-5.895-4.005-9.078-5.738-.359-.196-.705-.412-1.067-.6a85.02 85.02 0 0 0-4.88-2.358c-1.395-.63-2.762-1.3-4.212-1.863-.262-.1-.541-.166-.804-.266-2.05-.763-4.125-1.471-6.25-2.063-2.146-.596-4.337-1.075-6.55-1.492-.662-.125-1.333-.229-2.004-.337a85.725 85.725 0 0 0-5.025-.667c-.68-.066-1.358-.146-2.046-.2-2.296-.179-4.612-.3-6.962-.3h-.042l-127.238-.237a1.937 1.937 0 0 1-1.933-1.934m-14.98 19.392l142.684.263c8.4 0 16.288 1.4 23.463 4.166 1.012.392 1.97.85 2.95 1.284 2.491 1.1 4.912 2.283 7.175 3.637a60.46 60.46 0 0 1 4.562 3.02 56.254 56.254 0 0 1 4.204 3.38c3.517 3.113 6.488 6.704 8.98 10.654 1.262 2 2.445 4.063 3.433 6.263.404.9.72 1.837 1.067 2.762.775 2.092 1.458 4.221 1.966 6.425.142.604.284 1.209.4 1.821a54.97 54.97 0 0 1 1.004 10.408c0 1.971-.095 3.909-.279 5.796-.554 5.675-1.946 10.959-4.15 15.771-2.941 6.438-7.025 12.025-12.12 16.604-3.846 3.446-8.33 6.338-13.371 8.638a63.292 63.292 0 0 1-5.23 2.091c-3.654 1.28-7.504 2.242-11.52 2.884-4.017.646-8.205.97-12.525.97h-72.575V95.15a3.871 3.871 0 0 0-3.871-3.87h-66.238a3.854 3.854 0 0 0-2.737 1.133c-.7.7-1.134 1.666-1.134 2.737v147.575a3.871 3.871 0 0 0 3.871 3.871h142.684c6.966 0 13.779-.433 20.408-1.3a142.93 142.93 0 0 0 15.13-2.792 132.304 132.304 0 0 0 17.15-5.375c16.107-6.287 30.19-15.066 41.858-26.095 5.837-5.521 11.079-11.6 15.7-18.192 4.616-6.596 8.608-13.704 11.945-21.288a116.217 116.217 0 0 0 6.1-17.666c2.617-10.138 3.938-20.792 3.938-31.842 0-6.546-.471-12.933-1.4-19.133a115.344 115.344 0 0 0-4.175-18.013 108.91 108.91 0 0 0-4.313-11.325c-3.279-7.346-7.237-14.23-11.837-20.592a111.747 111.747 0 0 0-15.704-17.504c-11.68-10.554-25.775-18.854-41.892-24.662-16.063-5.784-33.867-8.721-52.908-8.721l-142.68-.163h-.004a3.869 3.869 0 0 0-2.737 1.13 3.876 3.876 0 0 0-1.134 2.737v61.483a3.869 3.869 0 0 0 3.863 3.867M2373.74 228.01a1.939 1.939 0 0 1-1.708 1.026h-203.655c-.27 0-.52-.055-.754-.155a1.913 1.913 0 0 1-.612-.412c-.063-.058-.092-.142-.138-.204a2.86 2.86 0 0 1-.137-.2c-.042-.075-.109-.134-.142-.213a1.943 1.943 0 0 1-.15-.75s-.004 0-.004-.004l-.013-205.808c0-.255.05-.509.146-.742.1-.23.242-.442.421-.625a1.933 1.933 0 0 1 1.367-.567h65.246c.32 0 .633.08.908.23.275.145.517.358.696.624l12.116 18.013 8.484 12.612c.2.296.308.638.325.98a1.925 1.925 0 0 1-1.93 2.037h-48.6v61.3h92.43a1.923 1.923 0 0 1 1.608.85l15.367 22.854a1.958 1.958 0 0 1 .104 1.992c-.338.63-1 1.025-1.708 1.025l-107.8-.017v53.392h146.304c.641 0 1.25.32 1.604.854l20.125 29.917c.196.296.308.637.325.983.017.342-.058.692-.225 1.009m29.133 12.408l-40.941-60.871a3.86 3.86 0 0 0-3.209-1.713h-137.137V159.27l119.45.016c.358 0 .708-.05 1.046-.141a3.885 3.885 0 0 0 2.375-1.909c.554-1.054.475-2.254.012-3.325-.096-.212-.087-.458-.217-.654l-36.195-53.808a3.908 3.908 0 0 0-1.392-1.258 3.887 3.887 0 0 0-1.817-.455h-83.262v-26.47h60.25a3.878 3.878 0 0 0 3.416-2.05 3.848 3.848 0 0 0 .446-2.021 3.823 3.823 0 0 0-.65-1.959l-39.025-58.02-2.75-3.709a3.878 3.878 0 0 0-3.108-1.558h-88.696a3.869 3.869 0 0 0-2.742 1.133 3.908 3.908 0 0 0-.841 1.254c-.196.467-.3.967-.3 1.48l.016 229.187v5.288c-.041 2.266.213 3.454.25 3.529.346 1 1.088 1.779 2.021 2.225.492.233 1.017.4 1.596.4h248.196a3.868 3.868 0 0 0 3.208-6.025M2576.84 227.954c-.317.683-1 1.125-1.758 1.125h-47.025c-.196 0-.384-.033-.563-.083h-.204a1.928 1.928 0 0 1-1.542-.771l-46.808-61.788h-89.246c-.642 0-1.25-.32-1.608-.854l-6.034-8.975-14.266-18.446a1.95 1.95 0 0 1-.396-.987c-.004-.063.037-.125.037-.192-.025-.287.017-.58.15-.858.163-.334.417-.6.717-.788.3-.187.654-.291 1.025-.291h120.98c1.612 0 3.195-.05 4.758-.15a66.29 66.29 0 0 0 9.025-1.18 60.12 60.12 0 0 0 4.266-1.029 54.851 54.851 0 0 0 8.009-2.933 51.67 51.67 0 0 0 7.3-4.096l.004-.004c1.8-1.208 3.4-2.546 4.908-3.933.383-.35.754-.705 1.117-1.063 1.433-1.433 2.787-2.92 3.933-4.52a34.342 34.342 0 0 0 4.158-7.742 36.25 36.25 0 0 0 2.109-8.738c.175-1.53.262-3.1.262-4.7 0-2.142-.129-4.163-.37-6.075-.476-3.82-1.392-7.192-2.605-10.158a35.637 35.637 0 0 0-2.012-4.159c-2.93-5.15-6.717-8.787-10.175-11.283-.184-.133-.4-.23-.584-.358-1.45-1.013-2.954-1.975-4.57-2.821-1.63-.85-3.367-1.592-5.163-2.275-.533-.2-1.092-.38-1.633-.567-1.371-.47-2.78-.887-4.238-1.262-.583-.146-1.154-.305-1.75-.438a67.478 67.478 0 0 0-6.241-1.117h-.03a85.262 85.262 0 0 0-9.708-.55H2314c-.197 0-.384-.033-.568-.083h-.695c-.059 0-.109-.037-.167-.042h-.004c-.271-.029-.53-.091-.763-.22-.083-.05-.141-.13-.216-.184-.142-.104-.296-.196-.409-.341l-9.608-13.013-13.013-17.612c-.158-.213-.208-.467-.27-.717-.021-.092-.092-.175-.1-.27-.03-.35.033-.71.2-1.034a1.94 1.94 0 0 1 1.729-1.063h194.77c5.663 0 11.634.317 17.742.942 2.971.292 5.975.658 8.996 1.096 3.013.437 6.042.946 9.059 1.52a98.384 98.384 0 0 1 7.445 1.742c1.221.33 2.405.721 3.596 1.092 1.084.342 2.167.68 3.23 1.05 1.57.55 3.108 1.15 4.633 1.775.529.22 1.054.446 1.579.675a90.185 90.185 0 0 1 5.217 2.437c1.77.905 3.541 1.8 5.229 2.817 4.996 2.992 9.433 6.525 13.4 10.671a65.98 65.98 0 0 1 3.808 4.35 72.12 72.12 0 0 1 4.613 6.462c2.05 3.221 3.72 6.871 5.008 10.921 1.288 4.054 2.192 8.513 2.708 13.363.346 3.233.521 6.641.521 10.212 0 3.904-.27 7.721-.808 11.425a70.884 70.884 0 0 1-2.408 10.767 68.243 68.243 0 0 1-1.75 4.983c-1.921 4.863-4.359 9.342-7.271 13.371a54.017 54.017 0 0 1-6.388 7.334 55.235 55.235 0 0 1-7.662 6.141c-1.571 1.05-3.338 2.05-5.55 3.15a99.571 99.571 0 0 1-3.738 2.154l-.033.017c-1.734.954-3.534 1.87-5.346 2.767l-.908.446c-.155.075-.305.15-.463.225-.004 0-.004.004-.008.004-1.05.508-2.075.975-3.109 1.458-.7.325-1.42.68-2.104.983-.016.009-.029.017-.046.025a273.672 273.672 0 0 1-12.75 5.33c1.084 1.325 2.646 3.237 4.575 5.591l2.05 2.492 3.055 3.73c3.229 3.928 6.941 8.44 10.858 13.19 1.304 1.588 2.633 3.197 3.975 4.822 3.612 3.9 8.033 8.745 13.367 14.67l17.35 20.371c.241.288.391.634.441.992.05.358 0 .73-.158 1.075m-5.913-33.892c-1.916-2.129-3.72-4.12-5.412-5.991a1915.63 1915.63 0 0 0-4.77-5.238c-1.493-1.625-2.88-3.133-4.172-4.53-1.296-1.39-2.5-2.674-3.608-3.853a201.674 201.674 0 0 0-7.058-7.117 72.093 72.093 0 0 0 9.237-3.63 67.986 67.986 0 0 0 8.454-4.787c7.254-4.841 13.484-10.82 18.509-17.766 5-6.909 8.883-14.792 11.55-23.421 2.65-8.592 3.991-17.784 3.991-27.33 0-8.824-.92-16.924-2.75-24.25-.916-3.658-2.054-7.129-3.425-10.395a62.688 62.688 0 0 0-2.22-4.746 59.532 59.532 0 0 0-2.559-4.446 88.228 88.228 0 0 0-5.779-8.07c-6.167-7.647-13.458-14.017-21.77-19.005-10.963-6.575-23.284-11.204-36.622-13.754-13.129-2.513-26.016-3.788-38.308-3.788h-221.309c-.716 0-1.404.2-1.991.555a3.877 3.877 0 0 0-1.425 1.495 3.874 3.874 0 0 0-.446 2.017c.033.692.25 1.37.654 1.963l41.413 61.579a3.892 3.892 0 0 0 3.212 1.712h185.3c10.584 0 18.825 2.075 24.492 6.167 4.017 2.9 6.483 6.854 7.462 12.008.33 1.717.492 3.571.492 5.559 0 .87-.046 1.712-.137 2.529-.267 2.458-.946 4.687-2.042 6.712a17.968 17.968 0 0 1-2.75 3.767c-1.104 1.17-2.392 2.246-3.875 3.246-6.317 4.258-14.27 6.42-23.642 6.42h-148.879c-.717 0-1.4.197-1.996.55a3.84 3.84 0 0 0-1.417 1.5 3.852 3.852 0 0 0 .2 3.976l39.276 58.396a3.88 3.88 0 0 0 3.212 1.708h89.53l46.3 61.108a3.874 3.874 0 0 0 3.087 1.534h88.225a3.875 3.875 0 0 0 3.513-2.246 3.87 3.87 0 0 0-.567-4.134l-39.18-46.004zM2111.16 227.962a1.925 1.925 0 0 1-1.73 1.07h-99.47c-4.175 0-8.28-.17-12.313-.52-4.029-.346-7.983-.867-11.858-1.554-7.742-1.384-15.158-3.455-22.187-6.2-14.021-5.471-26.213-13.055-36.238-22.534-7.483-7.07-13.837-15.241-18.954-24.379-.138-.246-.246-.517-.38-.762-1.545-2.813-3.012-5.692-4.324-8.684a98.082 98.082 0 0 1-3.738-9.958 102.41 102.41 0 0 1-2.679-10.425c-1.433-7.104-2.154-14.492-2.154-22.121 0-8.062.862-15.758 2.462-23.096v-.004c.109-.508.275-.992.392-1.496.63-2.679 1.283-5.341 2.13-7.908a88.164 88.164 0 0 1 3.524-9.15l.013-.017c1.416-3.12 2.97-6.137 4.658-9.05.117-.196.254-.37.367-.566.041-.067.091-.125.133-.196 1.563-2.638 3.204-5.213 4.992-7.675.27-.375.596-.709.875-1.084l.029-.029c1.712-2.287 3.475-4.537 5.383-6.658.146-.167.321-.309.471-.475a91.204 91.204 0 0 1 6.588-6.604c.287-.259.62-.48.916-.738 2.225-1.967 4.513-3.87 6.95-5.642l.013-.012c2.47-1.8 5.083-3.463 7.762-5.058.796-.48 1.621-.925 2.442-1.384 1.017-.57 1.992-1.175 3.033-1.716 1.042-.542 2.15-1.013 3.221-1.525.858-.413 1.708-.834 2.583-1.225 2.955-1.325 5.967-2.575 9.109-3.684 3.175-1.12 6.45-2.075 9.775-2.941 1.179-.309 2.379-.571 3.575-.85 2.175-.5 4.366-.955 6.596-1.355.833-.15 1.625-.37 2.462-.504.638-.104 1.304-.137 1.946-.233 2.167-.317 4.367-.558 6.575-.783 1.43-.142 2.833-.334 4.28-.438a160 160 0 0 1 11.57-.442h109.683c1.067 0 1.934.863 1.934 1.934v30.625c0 1.07-.867 1.933-1.934 1.933H2009.96c-5.246 0-10.35.43-15.288 1.283a80.007 80.007 0 0 0-21 6.659c-1.958.937-3.833 1.97-5.666 3.054-.542.317-1.063.654-1.592.983a70.84 70.84 0 0 0-3.904 2.621c-.396.288-.796.575-1.192.867-.1.075-.204.142-.3.22h-.004c-.058.042-.112.092-.167.138-1.604 1.23-3.17 2.496-4.645 3.854-1.546 1.417-2.992 2.925-4.396 4.471-.413.459-.804.93-1.2 1.396a65.615 65.615 0 0 0-2.9 3.638c-.371.495-.746.987-1.1 1.491a71.612 71.612 0 0 0-3.575 5.617c-.938 1.658-1.796 3.379-2.617 5.129-.142.308-.317.588-.454.896-.088.192-.142.396-.23.592a67.184 67.184 0 0 0-4.287 13.57c-.025.105-.029.217-.05.321a71.558 71.558 0 0 0-1.037 6.896 78.72 78.72 0 0 0-.367 7.538c0 2.045.138 4.045.288 6.037.087 1.18.229 2.333.362 3.488.246 2.004.533 3.995.925 5.933a70.31 70.31 0 0 0 1.763 6.75c.595 1.858 1.304 3.662 2.05 5.446.141.325.233.67.375.996.491 1.108 1.087 2.141 1.629 3.212a70.645 70.645 0 0 0 4.196 7.133c.141.209.266.43.412.638a60.904 60.904 0 0 0 4.883 6.196 61.539 61.539 0 0 0 5.367 5.366c.004.005.008.013.017.017a70.13 70.13 0 0 0 5.8 4.558l.025.013a71.877 71.877 0 0 0 4.775 3.087c.679.409 1.383.78 2.075 1.167a80.343 80.343 0 0 0 3.77 1.95c.638.308 1.28.617 1.93.913 1.933.862 3.896 1.683 5.929 2.404a.06.06 0 0 1 .025.008c2.037.725 4.133 1.342 6.254 1.904.625.167 1.263.313 1.892.467 1.591.38 3.2.717 4.82 1.008.655.121 1.3.242 1.955.346 2.337.367 4.708.646 7.116.838 1.496.112 3.025.133 4.542.179.938.029 1.85.108 2.796.108h76.808c.6 0 1.175.283 1.542.77l22.662 29.918c.442.583.517 1.37.188 2.029m31.82 14.587c0-.775-.287-1.454-.678-2.058l.1.008-46.292-61.129a3.925 3.925 0 0 0-1.358-1.13 3.893 3.893 0 0 0-1.73-.403h-84.495c-8.434 0-16.359-1.292-23.546-3.846-7.142-2.533-13.417-6.154-18.646-10.763a47.697 47.697 0 0 1-3.68-3.604 47.232 47.232 0 0 1-4.703-6.079 49.07 49.07 0 0 1-3.696-6.846c-2.134-4.825-3.475-10.12-4.017-15.804a61.752 61.752 0 0 1-.27-5.812c0-5.934.84-11.534 2.5-16.725.553-1.73 1.2-3.413 1.937-5.046a53.655 53.655 0 0 1 2.425-4.759c2.637-4.595 5.891-8.687 9.72-12.208a52.028 52.028 0 0 1 8.484-6.308c3.083-1.85 6.425-3.446 9.996-4.767a61.582 61.582 0 0 1 5.516-1.746c3.763-1.004 7.696-1.67 11.771-2.008a76.001 76.001 0 0 1 6.209-.25h125.162a3.871 3.871 0 0 0 3.871-3.871V5.815a3.871 3.871 0 0 0-3.87-3.87h-125.163c-18.813 0-36.505 2.875-52.567 8.537-8.071 2.85-15.633 6.338-22.638 10.43-7 4.087-13.441 8.787-19.279 14.062-11.7 10.567-21.017 23.375-27.683 38.075-6.68 14.717-10.063 31.15-10.063 48.846 0 17.692 3.375 34.346 10.042 49.513 6.654 15.154 15.954 28.433 27.642 39.475 8.741 8.27 18.85 15.275 30.158 20.916 3.767 1.88 7.67 3.609 11.704 5.18 2.009.787 4.042 1.52 6.104 2.208a133.075 133.075 0 0 0 12.654 3.546c4.313.987 8.713 1.779 13.205 2.375 6.725.891 13.646 1.337 20.72 1.337h130.617c.367 0 .725-.05 1.067-.15.113-.033.204-.1.304-.162 1.442-.563 2.467-1.946 2.467-3.584" fill="#fff" fill-rule="nonzero"/><path d="M837.106 271.028a.962.962 0 0 0-1.075-.321.958.958 0 0 0-.658.912v25.259c0 .533.433.967.966.967h19.521a.972.972 0 0 0 .767-1.563l-19.521-25.254z" fill="#ed1c24" fill-rule="nonzero"/><path d="M980.768 280.348c-3.625-3.196-8.125-5.717-13.37-7.5-5.23-1.78-11.255-2.683-17.913-2.683H848.118a.968.968 0 0 0-.775 1.546l18.346 24.704c.183.246.47.391.775.391h85.425c3.791 0 6.754.9 8.804 2.671 2.03 1.763 3.02 4.1 3.02 7.15 0 3.046-.995 5.413-3.033 7.225-2.045 1.817-5 2.738-8.791 2.738h-72.942a.967.967 0 0 0-.967.966v48.555c0 .533.434.966.967.966h26.088a.965.965 0 0 0 .966-.966v-23.309h43.354c6.655 0 12.675-.879 17.909-2.604 5.25-1.742 9.766-4.192 13.425-7.279a30.592 30.592 0 0 0 8.433-11.363c1.9-4.404 2.863-9.379 2.863-14.787 0-5.404-.963-10.404-2.859-14.867a32.148 32.148 0 0 0-8.358-11.554M1199.03 330.611c-1.183 2.963-3.12 5.317-5.763 7-2.695 1.713-6.295 2.888-10.691 3.475-4.459.609-10.038.913-16.588.913-6.546 0-12.125-.304-16.587-.913-4.4-.587-8-1.762-10.692-3.475-2.637-1.679-4.58-4.033-5.758-7-1.217-3.041-1.834-7.1-1.834-12.062 0-4.954.617-9.017 1.834-12.063 1.179-2.954 3.116-5.283 5.75-6.917 2.696-1.67 6.296-2.816 10.7-3.416 4.516-.609 10.096-.913 16.587-.913 6.492 0 12.075.304 16.588.913 4.4.6 8 1.746 10.7 3.416 2.637 1.634 4.57 3.963 5.754 6.917 1.217 3.046 1.83 7.109 1.83 12.063 0 4.962-.613 9.02-1.83 12.062m13.958-50.025c-10.47-7.95-26.283-11.979-47-11.979-20.8 0-36.637 4.03-47.058 11.98-10.504 8.012-15.83 20.782-15.83 37.962 0 17.275 5.305 30.1 15.763 38.104 10.38 7.954 26.234 11.983 47.125 11.983 20.804 0 36.642-4.029 47.063-11.979 10.504-8.008 15.833-20.833 15.833-38.108 0-17.175-5.35-29.946-15.896-37.963M1327.84 283.41h-.004c-4.596-4.187-10.134-7.48-16.467-9.78-6.329-2.295-13.342-3.466-20.846-3.466h-57.65a.982.982 0 0 0-.696.296.987.987 0 0 0-.27.708l.916 24.705c.021.52.45.933.967.933h56.733c3.413 0 6.617.575 9.53 1.704 2.916 1.138 5.5 2.704 7.679 4.65 2.17 1.933 3.879 4.288 5.083 6.983 1.208 2.696 1.817 5.671 1.817 8.834 0 3.254-.609 6.25-1.813 8.9-1.208 2.654-2.875 4.958-4.958 6.85-2.096 1.891-4.65 3.375-7.592 4.42-2.954 1.046-6.233 1.576-9.746 1.576h-29.425V306.91a.967.967 0 0 0-.966-.967h-26.342a.967.967 0 0 0-.967.967v59.2c0 .534.434.967.967.967h56.733c7.434 0 14.409-1.267 20.742-3.758 6.342-2.496 11.883-5.984 16.462-10.355 4.584-4.362 8.238-9.629 10.859-15.641 2.617-6.017 3.942-12.617 3.942-19.625 0-6.921-1.309-13.38-3.888-19.196-2.567-5.821-6.204-10.9-10.8-15.092M1458.48 270.165h-26.338a.97.97 0 0 0-.97.967v53.525c0 3.183-.425 5.933-1.267 8.175-.82 2.179-2.175 3.996-4.042 5.387-1.904 1.421-4.5 2.463-7.708 3.092-3.313.646-7.508.975-12.48.975-6.658 0-12.153-.304-16.324-.908-4.063-.596-7.238-1.6-9.434-2.992-2.158-1.354-3.583-3.08-4.354-5.254-.804-2.254-1.208-5.104-1.208-8.475v-53.525a.97.97 0 0 0-.97-.967h-26.088a.967.967 0 0 0-.967.967v53.525c0 7.287 1.15 13.741 3.43 19.183 2.295 5.483 5.932 10.13 10.824 13.813 4.85 3.662 11.08 6.437 18.52 8.258 7.388 1.808 16.326 2.725 26.572 2.725 35.683 0 53.77-14.792 53.77-43.98v-53.524a.967.967 0 0 0-.966-.967M1559 341.109a.977.977 0 0 0-.775-.387h-42.975c-3.425 0-6.642-.53-9.55-1.575-2.904-1.038-5.467-2.53-7.596-4.43-2.125-1.879-3.792-4.179-4.954-6.829-1.163-2.658-1.754-5.658-1.754-8.912 0-3.259.612-6.28 1.816-8.971 1.213-2.717 2.88-5.067 4.963-7 2.092-1.938 4.633-3.475 7.537-4.558 2.917-1.088 6.125-1.642 9.538-1.642h36.308a.97.97 0 0 0 .8-.421l16.846-24.708c.2-.292.225-.68.054-.996a.963.963 0 0 0-.854-.513h-53.154c-7.413 0-14.383 1.142-20.713 3.392-6.345 2.262-11.891 5.53-16.47 9.712-4.592 4.18-8.246 9.255-10.867 15.08-2.62 5.825-3.95 12.337-3.95 19.35 0 7.008 1.325 13.608 3.942 19.62 2.62 6.013 6.27 11.276 10.854 15.646 4.579 4.371 10.116 7.855 16.458 10.35 6.338 2.496 13.317 3.759 20.746 3.759h61.313a.964.964 0 0 0 .77-1.546L1559 341.109z" fill="#fff" fill-rule="nonzero"/><path d="M1670.59 277.575c2.53-2.216 5.775-4.079 9.638-5.537a.97.97 0 0 0 .616-1.08.97.97 0 0 0-.954-.791h-104.017a.982.982 0 0 0-.8.417l-16.97 24.704a.97.97 0 0 0-.063 1c.17.316.496.516.858.516h37.009v69.309c0 .529.437.962.97.962h26.213a.966.966 0 0 0 .967-.962v-69.309h36.579a.969.969 0 0 0 .962-.854c.35-3 1-5.762 1.938-8.216a25.452 25.452 0 0 1 7.054-10.159" fill="#fff" fill-rule="nonzero"/><path d="M1771.82 314.741c-5.554-4.425-13.725-6.67-24.28-6.67h-46.1c-2.824 0-4.916-.446-6.233-1.33-1.204-.804-1.787-2.237-1.787-4.375 0-2.125.58-3.533 1.77-4.295 1.313-.838 3.417-1.267 6.25-1.267h58.76a.97.97 0 0 0 .8-.42l16.845-24.705a.97.97 0 0 0-.8-1.513h-73.575c-6.483 0-12.138.734-16.813 2.171-4.712 1.454-8.62 3.53-11.625 6.163a24.25 24.25 0 0 0-6.72 9.679c-.859 2.25-1.475 4.787-1.817 7.537a38.838 38.838 0 0 0-.338 4.946c0 4.167.663 8.034 1.959 11.488 1.32 3.496 3.37 6.508 6.083 8.962 2.7 2.446 6.138 4.375 10.22 5.738 4.047 1.354 8.922 2.037 14.493 2.037h46.091c2.9 0 5.013.467 6.271 1.375 1.183.859 1.754 2.321 1.754 4.475 0 2.159-.575 3.646-1.775 4.55-1.25.95-3.354 1.434-6.25 1.434h-64.075a.964.964 0 0 0-.8.42l-16.841 24.421a.97.97 0 0 0 .8 1.517h78.895c6.48 0 12.134-.733 16.809-2.175 4.716-1.458 8.65-3.58 11.696-6.308 3.058-2.746 5.325-6.175 6.725-10.2 1.379-3.967 2.079-8.471 2.079-13.38 0-8.97-2.846-15.791-8.467-20.275h-.004zM1088.89 347.013c-2.958-3.32-5.33-5.929-7.104-7.829a76.14 76.14 0 0 0-3.517-3.529c2.858-.808 5.492-2.012 7.842-3.596a27.986 27.986 0 0 0 7.212-6.983c1.955-2.717 3.467-5.825 4.509-9.225 1.037-3.383 1.562-7.013 1.562-10.783 0-3.48-.358-6.7-1.07-9.571-.709-2.875-1.784-5.463-3.192-7.696-2.817-4.467-6.438-8.059-10.767-10.68-4.304-2.6-9.138-4.433-14.375-5.445-5.192-1.004-10.28-1.509-15.125-1.509h-81.917a.968.968 0 0 0-.387 1.855c2.112.92 3.808 1.77 5.333 2.695 4.696 2.846 8.625 6.738 11.68 11.571 1.74 2.771 3.02 6.05 3.795 9.75a.971.971 0 0 0 .946.767h62.704c4.33 0 7.717.87 10.067 2.583 2.287 1.667 3.4 4.13 3.4 7.521 0 3-1.225 5.296-3.754 7.009-2.609 1.77-5.875 2.67-9.713 2.67h-60.633a.96.96 0 0 0-.867.542.967.967 0 0 0 .1 1.017l17.942 23.42c.183.238.466.38.766.38h34.988l18.58 24.746c.182.241.47.383.774.383h35.075a.965.965 0 0 0 .742-1.588l-15.596-18.475z" fill="#fff" fill-rule="nonzero"/></svg>