<svg viewBox="0 0 1012 487" xmlns="http://www.w3.org/2000/svg" fill-rule="evenodd" clip-rule="evenodd" stroke-linejoin="round" stroke-miterlimit="2"><path d="M190.102 444.666c-1.717-1.496-3.854-2.683-6.354-3.525-2.509-.846-5.413-1.27-8.621-1.27h-50.17l7.274 11.487h44.088c2.075 0 3.712.508 4.875 1.504 1.187 1.021 1.77 2.358 1.77 4.096 0 1.73-.579 3.08-1.766 4.125-1.163 1.025-2.804 1.542-4.88 1.542h-28.32l-.009 13.795 5.95 9.384h9.83l-.105-11.896h11.4c3.213 0 6.113-.417 8.621-1.242 2.504-.816 4.654-1.966 6.392-3.425a14.146 14.146 0 0 0 3.958-5.275c.9-2.066 1.359-4.404 1.359-6.941 0-2.538-.459-4.884-1.359-6.975a14.847 14.847 0 0 0-3.933-5.384" fill="#231f20" fill-rule="nonzero"/><path d="M29.285 462.64l-.055 17.258 13.371.05-13.262-17.283c-.025-.021-.046-.025-.054-.025" fill="#ed1c24" fill-rule="nonzero"/><path d="M75.759 473.451a35.636 35.636 0 0 0-1.842-1.82l-.92-.83 1.2-.316c1.408-.38 2.7-.95 3.841-1.713a13.145 13.145 0 0 0 3.37-3.225 14.72 14.72 0 0 0 2.122-4.296c.487-1.587.737-3.287.737-5.062 0-3.259-.67-5.967-1.992-8.042-1.329-2.088-3.037-3.763-5.07-4.983-2.055-1.225-4.363-2.092-6.863-2.571-2.52-.48-4.992-.725-7.342-.725H19.221l8.5 11.491h36.346c2.317 0 4.15.48 5.446 1.417 1.337.959 2.012 2.413 2.012 4.321 0 1.725-.741 3.1-2.204 4.083-1.425.959-3.191 1.442-5.254 1.442h-29.4l8.408 10.867h17.571l9.346 12.316H86.41c-1.988-2.325-9.896-11.554-10.65-12.35v-.004z" fill="#231f20" fill-rule="nonzero"/><path d="M119.603 440.537c-1.254-.95-2.85-1.434-4.738-1.434-1.966 0-3.612.517-4.887 1.534a15.248 15.248 0 0 0-3.263 3.55l-21.433 33.541 7.154 8.075h2.317l19.867-31.166 6.141 9.954c3.484 5.646 4.917 7.966 5.596 8.962l.713 1.05-1.271.004c-2.296-.004-11.213-.087-16-.137l-1.225-.013-7.438 11.346h47.667l-25.92-41.625c-.9-1.446-2-2.67-3.28-3.641" fill="#231f20" fill-rule="nonzero"/><path d="M280.145 462.616l-.062 17.3 13.408.053-13.3-17.328a.08.08 0 0 0-.046-.025" fill="#ed1c24" fill-rule="nonzero"/><path d="M323.484 471.636l-.92-.833 1.2-.317a13.022 13.022 0 0 0 3.845-1.712 12.954 12.954 0 0 0 3.37-3.23 14.748 14.748 0 0 0 2.122-4.291c.487-1.588.737-3.288.737-5.063 0-3.258-.67-5.97-1.991-8.046-1.325-2.079-3.03-3.75-5.071-4.979-2.054-1.229-4.363-2.096-6.863-2.57-2.52-.48-4.992-.726-7.342-.726h-42.987l8.862 11.492h35.192c2.313 0 4.146.475 5.446 1.417 1.337.954 2.012 2.412 2.012 4.32 0 1.726-.741 3.1-2.208 4.08-1.42.962-3.187 1.446-5.25 1.446h-27.97l8.408 10.862h16.137l9.35 12.317h16.446c-1.992-2.321-9.908-11.53-10.68-12.346a33.785 33.785 0 0 0-1.845-1.821" fill="#231f20" fill-rule="nonzero"/><path d="M369.173 440.537c-1.254-.95-2.85-1.434-4.738-1.434-1.966 0-3.612.517-4.887 1.534-1.308 1.045-2.408 2.241-3.263 3.55l-21.425 33.52 7.167 8.096h2.296l19.867-31.166 12.35 19.97-1.213-.004c-2.625-.004-12.804-.104-17.187-.146l-7.434 11.346h47.671l-25.925-41.625c-.896-1.446-2-2.67-3.279-3.641" fill="#231f20" fill-rule="nonzero"/><path fill="#231f20" d="M199.556 457.266h12.363v28.538h-12.363z"/><path d="M199.406 451.276l12.513.025-.002-11.466-18.025-.024 5.514 11.465zM261.975 446.156c-2.196-1.984-4.85-3.542-7.896-4.634-3.046-1.095-6.429-1.654-10.054-1.654l-27.788-.033v11.47l27.792.055c1.78 0 3.458.296 4.996.887 1.537.592 2.9 1.413 4.046 2.425a10.674 10.674 0 0 1 2.712 3.692c.642 1.425.971 2.988.971 4.65 0 1.704-.329 3.28-.97 4.683a10.893 10.893 0 0 1-2.647 3.617c-1.112.996-2.466 1.783-4.025 2.325-1.55.542-3.262.817-5.087.817h-15.363v-17.05h-12.425v28.4h27.788c3.583 0 6.942-.604 9.987-1.792 3.038-1.183 5.696-2.837 7.896-4.912 2.192-2.067 3.942-4.563 5.196-7.413 1.254-2.85 1.888-5.979 1.888-9.3 0-3.283-.621-6.342-1.854-9.096a21.174 21.174 0 0 0-5.163-7.137M418.075 474.456c-1.783 0-3.463-.275-4.996-.817-1.533-.546-2.887-1.33-4.02-2.325-1.142-1-2.03-2.217-2.65-3.621-.622-1.4-.934-2.975-.934-4.68 0-1.707.325-3.3.967-4.72a11.228 11.228 0 0 1 2.641-3.687c1.113-1.021 2.459-1.825 3.992-2.396 1.533-.567 3.217-.85 5-.85h24.338v-11.492h-24.338c-3.583 0-6.946.546-9.996 1.62-3.042 1.072-5.7 2.617-7.892 4.6a21.535 21.535 0 0 0-5.195 7.134c-1.25 2.75-1.884 5.838-1.884 9.167 0 3.325.634 6.454 1.888 9.3 1.25 2.85 3 5.346 5.196 7.412 2.195 2.075 4.854 3.73 7.895 4.913 3.042 1.187 6.405 1.792 9.988 1.792h25.096l-8.608-11.35h-16.488zM458.958 474.456v-5.796l24.013.004-6.713-9.958h-17.3v-7.346h12.35l-7.775-11.492h-17.004l.004 45.938h47.98l-7.647-11.35h-27.908zM524.505 473.455a35.367 35.367 0 0 0-1.85-1.821l-.92-.834 1.203-.316c1.409-.38 2.705-.95 3.842-1.713a13.089 13.089 0 0 0 3.37-3.229 14.645 14.645 0 0 0 2.122-4.292c.487-1.587.737-3.287.737-5.062 0-3.258-.67-5.967-1.991-8.042-1.325-2.083-3.034-3.762-5.071-4.983-2.05-1.225-4.363-2.088-6.863-2.571-2.52-.48-4.992-.725-7.342-.725h-42.995l7.741 11.492h36.321c2.317 0 4.146.479 5.45 1.416 1.333.959 2.008 2.413 2.008 4.321 0 1.725-.741 3.1-2.204 4.084-1.425.958-3.191 1.441-5.254 1.441h-28.737l7.32 10.867h17.996l9.346 12.317h16.546l-7.304-8.563a222.702 222.702 0 0 0-3.471-3.787" fill="#231f20" fill-rule="nonzero"/><path d="M540.932 440.557s-.004 0-.004.004l-.059 12.12 9.396.055-9.3-12.158c-.012-.013-.025-.021-.033-.021" fill="#ed1c24" fill-rule="nonzero"/><path d="M608.567 445.228c-1.663-1.462-3.73-2.612-6.138-3.429-2.425-.825-5.229-1.242-8.325-1.242h-47.891l8.316 11.184h40.725c2.009 0 3.596.495 4.717 1.466 1.138.984 1.717 2.334 1.717 4 0 1.696-.563 3.017-1.713 4.03-1.125 1-2.708 1.504-4.72 1.504h-34.596v22.579h11.866v-11.596h21.521c3.096 0 5.896-.408 8.325-1.204 2.408-.8 4.488-1.921 6.171-3.338a13.933 13.933 0 0 0 3.825-5.141c.867-2.013 1.308-4.292 1.308-6.763 0-2.479-.441-4.767-1.308-6.8a14.604 14.604 0 0 0-3.8-5.25M715.208 468.959c-.625 1.566-1.654 2.816-3.058 3.708-1.388.879-3.213 1.475-5.43 1.77-2.191.297-4.895.447-8.037.447-3.146 0-5.85-.15-8.042-.446-2.216-.296-4.041-.892-5.429-1.771-1.4-.892-2.429-2.142-3.058-3.708-.621-1.546-.934-3.584-.934-6.055 0-2.466.313-4.5.934-6.05.629-1.57 1.658-2.808 3.062-3.675 1.38-.854 3.204-1.441 5.425-1.737 2.192-.296 4.896-.45 8.042-.45 3.142 0 5.846.154 8.037.45 2.217.296 4.042.883 5.425 1.737 1.409.871 2.438 2.104 3.063 3.675.62 1.55.933 3.588.933 6.05 0 2.471-.312 4.505-.933 6.055m5.5-23.58c-4.87-3.696-12.283-5.566-22.025-5.566-9.788 0-17.208 1.87-22.054 5.566-4.825 3.671-7.271 9.571-7.271 17.525 0 8.005 2.433 13.925 7.237 17.6 4.838 3.692 12.267 5.563 22.088 5.563 9.78 0 17.2-1.871 22.054-5.563 4.821-3.675 7.271-9.595 7.271-17.6 0-7.954-2.458-13.85-7.3-17.525M775.615 446.68c-2.117-1.925-4.68-3.441-7.62-4.512-2.938-1.067-6.21-1.613-9.718-1.613h-27.266l.416 11.188h26.85c1.734 0 3.363.292 4.838.867 1.487.579 2.804 1.375 3.917 2.366a10.462 10.462 0 0 1 2.62 3.596c.621 1.392.938 2.921.938 4.533 0 1.671-.317 3.209-.938 4.575a10.71 10.71 0 0 1-2.558 3.53c-1.079.97-2.387 1.733-3.892 2.266-1.504.53-3.158.796-4.925.796h-14.854v-16.62H731.44v27.666h26.837c3.463 0 6.713-.583 9.646-1.737 2.938-1.159 5.509-2.767 7.63-4.788 2.116-2.017 3.808-4.45 5.02-7.225 1.209-2.775 1.821-5.83 1.821-9.067 0-3.2-.604-6.183-1.791-8.866-1.192-2.684-2.871-5.025-4.988-6.955M826.359 465.822c0 1.616-.22 3.025-.654 4.179a6.31 6.31 0 0 1-2.196 2.92c-1.008.755-2.358 1.3-4.004 1.617-1.621.321-3.68.48-6.121.48-3.25 0-5.917-.146-7.92-.438-2.063-.308-3.684-.825-4.818-1.546-1.166-.725-1.975-1.708-2.404-2.904-.412-1.158-.62-2.608-.62-4.308v-25.263h-11.867v25.263c0 3.383.533 6.366 1.583 8.87 1.042 2.492 2.7 4.605 4.93 6.284 2.241 1.687 5.128 2.97 8.583 3.812 3.491.85 7.708 1.28 12.533 1.28 16.567 0 24.963-6.809 24.963-20.246v-25.263h-11.988v25.263zM865.823 474.273c-1.725 0-3.35-.267-4.83-.8-1.483-.525-2.79-1.288-3.887-2.263a10.15 10.15 0 0 1-2.566-3.533c-.6-1.367-.9-2.904-.9-4.57 0-1.663.312-3.21.933-4.6.62-1.392 1.483-2.6 2.558-3.592 1.067-.996 2.367-1.78 3.859-2.338 1.479-.554 3.108-.833 4.833-.833h17.213l7.637-11.188h-24.85c-3.458 0-6.704.533-9.654 1.575-2.942 1.05-5.504 2.558-7.621 4.483-2.117 1.925-3.804 4.267-5.013 6.955-1.212 2.683-1.825 5.687-1.825 8.933 0 3.238.613 6.292 1.825 9.067 1.209 2.775 2.896 5.204 5.017 7.225 2.121 2.02 4.688 3.629 7.63 4.787 2.933 1.154 6.178 1.738 9.641 1.738h28.725l-8.312-11.046h-20.413z" fill="#231f20" fill-rule="nonzero"/><path d="M939.659 442.746c.954-.833 2.1-1.566 3.425-2.187h-48.083l-7.696 11.183H905.2v33.58h11.925v-33.58h18.008c.18-1.4.496-2.687.937-3.837a12.93 12.93 0 0 1 3.588-5.159M988.131 461.691c-2.517-2.004-6.263-3.02-11.142-3.02h-22.058c-1.508 0-2.658-.255-3.417-.763-.791-.534-1.196-1.454-1.196-2.734 0-1.283.405-2.195 1.205-2.704.758-.487 1.875-.729 3.408-.729h27.958l7.638-11.183h-34.625c-3.025 0-5.659.337-7.821 1.004-2.146.658-3.92 1.6-5.28 2.787a10.838 10.838 0 0 0-3.003 4.317c-.396 1.025-.663 2.15-.825 3.425-.105.83-.155 1.567-.155 2.267 0 1.9.296 3.654.888 5.216a10.135 10.135 0 0 0 2.704 3.984c1.213 1.1 2.767 1.967 4.617 2.579 1.858.62 4.108.933 6.691.933h22.063c1.575 0 2.708.263 3.454.809.767.558 1.158 1.487 1.158 2.758 0 1.275-.391 2.217-1.158 2.792-.742.566-1.87.846-3.454.846h-30.508l-7.63 11.045h37.167c3.021 0 5.654-.337 7.817-1 2.146-.662 3.933-1.62 5.308-2.854 1.367-1.225 2.375-2.754 3.009-4.554.629-1.812.95-3.88.95-6.137 0-4.042-1.267-7.096-3.763-9.084M661.306 477.251l-.15-.296a243.36 243.36 0 0 0-3.333-3.666 33.289 33.289 0 0 0-1.771-1.759l-.904-.829 1.183-.317a12.347 12.347 0 0 0 3.696-1.666 12.622 12.622 0 0 0 3.254-3.142c.888-1.23 1.575-2.642 2.05-4.187.47-1.542.713-3.196.713-4.925 0-1.605-.167-3.084-.488-4.392-.32-1.292-.8-2.45-1.433-3.446-1.284-2.033-2.93-3.667-4.9-4.854-1.984-1.196-4.209-2.042-6.625-2.509-2.434-.466-4.821-.708-7.092-.708h-37.8c.496.25.946.496 1.367.746 2.35 1.42 4.316 3.362 5.837 5.775.846 1.342 1.475 2.908 1.867 4.667h29.758c2.238 0 4.013.462 5.271 1.379 1.292.942 1.95 2.358 1.95 4.22 0 1.688-.72 3.03-2.142 3.988-1.375.934-3.083 1.413-5.079 1.413h-28.387l8.112 10.57h16.975l9.03 12.009h15.966l-6.82-8.071h-.105z" fill="#231f20" fill-rule="nonzero"/><path d="M128.196 202.939a2.159 2.159 0 0 0-3.867 1.32v85.038c0 1.192.967 2.155 2.159 2.155h65.725c.825 0 1.575-.467 1.937-1.205a2.163 2.163 0 0 0-.229-2.275l-65.725-85.033z" fill="#ed1c24" fill-rule="nonzero"/><path d="M977.714 336.126c0 21.092-17.158 38.25-38.246 38.25H73.08c-21.092 0-38.25-17.158-38.25-38.25V72.21c0-21.091 17.158-38.25 38.25-38.25h866.388c21.088 0 38.246 17.159 38.246 38.25v263.917zM939.468 22.842H73.08c-27.22 0-49.363 22.146-49.363 49.367v263.917c0 27.217 22.142 49.367 49.363 49.367h866.388c27.217 0 49.359-22.15 49.359-49.367V72.21c0-27.22-22.142-49.367-49.359-49.367" fill="#231f20" fill-rule="nonzero"/><path d="M1000 341.888c0 30.666-24.95 55.616-55.617 55.616H66.733c-30.671 0-55.621-24.95-55.621-55.616V66.729c0-30.666 24.95-55.612 55.62-55.612h877.651c30.667 0 55.617 24.946 55.617 55.612v275.159zM944.383 0H66.733C29.937 0-.001 29.938-.001 66.73v275.158c0 36.796 29.938 66.729 66.734 66.729h877.65c36.796 0 66.73-29.933 66.73-66.73V66.73c0-36.791-29.934-66.729-66.73-66.729" fill="#231f20" fill-rule="nonzero"/><path d="M917.436 207.858c-3.983 9.146-9.654 16.725-17.346 23.163-7.792 6.512-17.508 11.712-28.883 15.446-11.567 3.791-25.034 5.712-40.021 5.712H747.91v56.525a2.162 2.162 0 0 1-2.158 2.163H705.14a2.161 2.161 0 0 1-2.154-2.163V214.35c0-1.196.966-2.158 2.154-2.158h132.22c12.18 0 22.001-3.209 29.197-9.542 7.425-6.542 11.354-15.617 11.354-26.238 0-10.658-3.958-19.7-11.446-26.141-7.179-6.167-16.97-9.292-29.104-9.292h-160.4a2.156 2.156 0 0 1-2.054-1.5c-2.117-6.62-4.938-12.725-8.371-18.133-4.138-6.5-8.93-12.45-14.238-17.684a2.157 2.157 0 1 1 1.513-3.696h177.683c14.959 0 28.4 1.971 39.946 5.863 11.342 3.825 20.98 9.158 28.654 15.854 7.646 6.675 13.313 14.446 17.325 23.763 4.005 9.308 6.034 19.841 6.034 31.312 0 11.459-2.025 21.921-6.017 31.1m10.496-66.537c-4.646-10.78-11.488-20.163-20.334-27.88-8.816-7.7-19.766-13.787-32.545-18.095-12.734-4.288-27.409-6.463-43.621-6.463h-216.4a2.158 2.158 0 0 0-.825 4.15c5.408 2.25 10.029 4.538 14.129 6.996 11.437 6.867 21.004 16.258 28.425 27.92 4.2 6.61 7.291 14.434 9.196 23.26a2.15 2.15 0 0 0 2.108 1.703h169.233c9.305 0 16.575 2.192 21.605 6.513 5.004 4.304 7.433 10 7.433 17.412 0 7.425-2.438 13.184-7.45 17.6-5.03 4.425-12.288 6.667-21.588 6.667H693.57a2.159 2.159 0 0 0-2.158 2.158v117.376a2.16 2.16 0 0 0 2.158 2.162h63.63a2.16 2.16 0 0 0 2.158-2.162v-56.525h71.766c16.209 0 30.88-2.117 43.605-6.288 12.77-4.192 23.766-10.096 32.683-17.554 8.967-7.5 15.867-16.717 20.517-27.392 4.625-10.642 6.97-22.646 6.97-35.696 0-13.041-2.345-25.108-6.966-35.862" fill="#231f20" fill-rule="nonzero"/><path d="M646.12 309.16a2.157 2.157 0 0 1-1.97 1.28h-54.576c-.675 0-1.312-.321-1.72-.854l-42.384-55.942-2.804-3.708h-85.163c-.67 0-1.3-.309-1.708-.838l-25.8-33.38a2.16 2.16 0 0 1 1.708-3.48l123.85.002c11.7 0 21.838-2.834 30.142-8.425 9.342-6.288 14.28-15.471 14.28-26.559 0-14.97-7.126-23.258-13.105-27.575-7.75-5.6-18.283-8.441-31.317-8.441H412.095c-.938 0-1.771-.609-2.054-1.504-2.13-6.721-4.975-12.909-8.455-18.388-4.012-6.3-8.633-12.087-13.745-17.196a2.157 2.157 0 1 1 1.525-3.683h160.958c11.05 0 22.67 1.15 34.542 3.425 11.366 2.175 21.829 6.092 31.096 11.65 8.941 5.362 16.441 12.75 22.295 21.95 2.75 4.333 4.867 9.412 6.288 15.1 1.492 5.996 2.25 12.796 2.25 20.217 0 7.916-1.1 15.495-3.275 22.541-2.15 6.967-5.267 13.296-9.254 18.809-3.934 5.441-8.817 10.129-14.53 13.933-5.183 3.454-11.508 7.375-21.054 10.267a1.142 1.142 0 0 1-.229.054l-12.9 2.4 10.813 11.679c3.954 3.596 44.712 49.117 49.391 54.346.567.637.709 1.541.363 2.32m-13.313-34.779c-7.158-7.954-12.966-14.291-17.3-18.883-3.095-3.279-6.025-6.183-8.75-8.687 7.046-1.946 13.521-4.867 19.3-8.717 6.855-4.567 12.734-10.213 17.471-16.767 4.73-6.529 8.405-13.987 10.925-22.158 2.517-8.146 3.788-16.867 3.788-25.93 0-8.362-.871-16.1-2.592-23.008-1.72-6.887-4.325-13.108-7.741-18.483-6.826-10.725-15.605-19.358-26.092-25.646-10.425-6.254-22.15-10.658-34.85-13.087-12.584-2.409-24.934-3.63-36.704-3.63H351.257a2.158 2.158 0 0 0-.85 4.142c5.054 2.171 9.296 4.296 12.98 6.504 11.437 6.863 21.004 16.255 28.424 27.921 4.242 6.675 7.355 14.588 9.25 23.513a2.15 2.15 0 0 0 2.109 1.708h152.32c10.563 0 18.83 2.108 24.576 6.258 5.608 4.055 8.333 10.021 8.333 18.246 0 7.284-3.008 12.846-9.196 17.009-6.366 4.295-14.346 6.47-23.712 6.47H408.195c-.821 0-1.571.467-1.934 1.209a2.157 2.157 0 0 0 .23 2.27l43.591 56.396c.409.53 1.038.838 1.705.838h85.095l45.188 59.65a2.163 2.163 0 0 0 1.72.854h85.213a2.16 2.16 0 0 0 1.646-3.558l-37.842-44.434z" fill="#231f20" fill-rule="nonzero"/><path d="M381.158 309.189a2.15 2.15 0 0 1-1.958 1.25h-54.575a2.163 2.163 0 0 1-1.721-.854l-42.38-55.942-2.808-3.708h-85.162a2.16 2.16 0 0 1-1.709-.838l-25.8-33.379a2.16 2.16 0 0 1 1.708-3.48h123.85c11.7 0 21.842-2.832 30.138-8.428 9.346-6.284 14.284-15.467 14.284-26.554 0-8.08-2.159-15.084-6.413-20.834-2.046-2.758-4.229-4.962-6.692-6.741-7.75-5.6-18.283-8.442-31.316-8.442H117.37a2.16 2.16 0 0 1-1.737-.875l-26.925-36.458a2.16 2.16 0 0 1-.192-2.255 2.169 2.169 0 0 1 1.93-1.183h194.929c11.05 0 22.67 1.154 34.541 3.425 11.371 2.175 21.834 6.092 31.096 11.65 8.942 5.363 16.442 12.75 22.296 21.95 2.783 4.383 4.917 9.538 6.337 15.33.73 2.966 1.292 6.366 1.676 10.112.354 3.479.525 6.716.525 9.879 0 5.712-.592 11.33-1.759 16.692a70.44 70.44 0 0 1-1.487 5.72l-.092.3c-2.15 6.913-5.246 13.184-9.192 18.634-3.933 5.441-8.816 10.129-14.529 13.933-1.854 1.238-3.17 2.233-4.567 3.288-2.6 1.966-5.545 4.195-12.679 8.491-.066.042-.137.08-.208.113l-9.72 4.483c10.05 11.146 48.44 56.721 53.24 62.421.538.646.66 1.537.305 2.3m-13.296-34.808c-7.162-7.959-12.97-14.292-17.304-18.884-3.096-3.279-6.03-6.183-8.746-8.687 7.046-1.946 13.521-4.867 19.296-8.713 6.854-4.57 12.733-10.216 17.47-16.77 4.68-6.463 8.33-13.846 10.855-21.955l.07-.204a80.63 80.63 0 0 0 1.763-6.787c1.346-6.167 2.03-12.609 2.03-19.142 0-3.558-.196-7.175-.592-11.046-.442-4.337-1.08-8.162-1.942-11.692-1.72-7.008-4.346-13.316-7.804-18.754-6.825-10.725-15.604-19.354-26.092-25.646-10.425-6.254-22.15-10.658-34.85-13.087-12.583-2.409-24.933-3.63-36.704-3.63H67.57a2.16 2.16 0 0 0-1.925 1.184 2.16 2.16 0 0 0 .192 2.254l43.925 59.48c.408.55 1.054.874 1.737.874h179.042c10.563 0 18.83 2.105 24.575 6.259 1.509 1.087 2.838 2.446 4.184 4.258 2.754 3.725 4.15 8.43 4.15 13.988 0 7.283-3.005 12.845-9.196 17.008-6.367 4.292-14.346 6.467-23.713 6.467H143.245c-.82 0-1.575.47-1.933 1.208a2.157 2.157 0 0 0 .23 2.27l43.59 56.397c.41.529 1.038.841 1.71.841h85.09l45.188 59.646a2.163 2.163 0 0 0 1.721.854h85.217a2.156 2.156 0 1 0 1.642-3.554l-37.838-44.437z" fill="#231f20" fill-rule="nonzero"/></svg>