<svg viewBox="0 0 1012 487" xmlns="http://www.w3.org/2000/svg" fill-rule="evenodd" clip-rule="evenodd" stroke-linejoin="round" stroke-miterlimit="2"><path d="M190.104 444.666c-1.72-1.496-3.854-2.683-6.354-3.525-2.513-.846-5.413-1.27-8.621-1.27h-50.17l7.274 11.487h44.088c2.07 0 3.712.508 4.87 1.504 1.192 1.021 1.775 2.358 1.775 4.096 0 1.733-.579 3.08-1.766 4.13-1.167 1.02-2.804 1.537-4.88 1.537h-28.324l-.005 13.8 5.95 9.379h9.825l-.104-11.896h11.404c3.209 0 6.109-.42 8.621-1.242 2.504-.816 4.654-1.966 6.392-3.425a14.16 14.16 0 0 0 3.958-5.279c.9-2.062 1.355-4.396 1.355-6.937 0-2.538-.455-4.884-1.355-6.975a14.847 14.847 0 0 0-3.933-5.384" fill="#fff" fill-rule="nonzero"/><path d="M29.289 462.637h-.004l-.055 17.259 13.371.054-13.266-17.288a.083.083 0 0 0-.046-.025" fill="#ed1c24" fill-rule="nonzero"/><path d="M75.759 473.451a35.636 35.636 0 0 0-1.842-1.82l-.92-.83 1.2-.316c1.408-.375 2.7-.95 3.841-1.713a12.957 12.957 0 0 0 3.37-3.23 14.645 14.645 0 0 0 2.122-4.29c.487-1.588.737-3.288.737-5.06 0-3.262-.67-5.97-1.992-8.045-1.329-2.088-3.033-3.763-5.066-4.98-2.059-1.228-4.363-2.095-6.867-2.57-2.52-.483-4.992-.73-7.342-.73H19.225l8.496 11.492h36.346c2.317 0 4.15.48 5.45 1.417 1.333.959 2.008 2.413 2.008 4.321 0 1.73-.741 3.1-2.204 4.083-1.425.959-3.191 1.446-5.254 1.446h-29.4l8.408 10.863h17.571l9.346 12.316H86.41c-1.988-2.32-9.892-11.554-10.65-12.354z" fill="#fff" fill-rule="nonzero"/><path d="M119.603 440.539c-1.254-.95-2.85-1.434-4.738-1.434-1.966 0-3.608.517-4.887 1.534a15.322 15.322 0 0 0-3.263 3.545l-21.433 33.542 7.154 8.08h2.317l19.867-31.172 6.141 9.955c3.488 5.645 4.921 7.97 5.596 8.962l.713 1.05-1.267.004c-2.3-.004-11.217-.083-16.004-.133l-1.225-.017-7.438 11.35h47.667l-25.92-41.625c-.897-1.45-2-2.675-3.28-3.641" fill="#fff" fill-rule="nonzero"/><path d="M280.147 462.612l-.062 17.3 13.404.06-13.3-17.335a.064.064 0 0 0-.042-.025" fill="#ed1c24" fill-rule="nonzero"/><path d="M323.484 471.634l-.92-.833 1.2-.317a12.765 12.765 0 0 0 3.845-1.713 12.89 12.89 0 0 0 3.37-3.229 14.645 14.645 0 0 0 2.122-4.291c.487-1.588.737-3.288.737-5.059 0-3.262-.67-5.97-1.991-8.046-1.325-2.079-3.03-3.754-5.067-4.979-2.058-1.229-4.367-2.096-6.867-2.57-2.52-.484-4.992-.73-7.342-.73h-42.983l8.863 11.492h35.187c2.313 0 4.15.479 5.45 1.416 1.333.959 2.008 2.413 2.008 4.321 0 1.725-.741 3.1-2.208 4.084-1.42.958-3.187 1.446-5.25 1.446h-27.97l8.408 10.862h16.141l9.346 12.317h16.446c-1.992-2.321-9.908-11.534-10.68-12.35a31.047 31.047 0 0 0-1.845-1.821" fill="#fff" fill-rule="nonzero"/><path d="M369.173 440.539c-1.254-.95-2.85-1.434-4.738-1.434-1.966 0-3.608.517-4.887 1.534-1.308 1.045-2.408 2.237-3.263 3.545L334.86 477.71l7.167 8.096h2.296l19.867-31.166 12.35 19.966-1.213-.004c-2.625-.004-12.804-.1-17.187-.146l-7.434 11.35h47.671l-25.925-41.625c-.896-1.446-2-2.675-3.279-3.641" fill="#fff" fill-rule="nonzero"/><path fill="#fff" d="M199.553 457.27h12.366v28.538h-12.366z"/><path d="M199.404 451.275l12.513.021.002-11.467-18.025-.013 5.51 11.46zM261.977 446.158c-2.196-1.983-4.854-3.542-7.896-4.633-3.046-1.1-6.429-1.655-10.054-1.655l-27.788-.033v11.471l27.788.054c1.783 0 3.462.296 5 .883 1.537.596 2.896 1.413 4.046 2.425a10.86 10.86 0 0 1 2.712 3.692c.642 1.425.971 2.992.971 4.65 0 1.708-.329 3.283-.97 4.688a10.919 10.919 0 0 1-2.647 3.612c-1.116 1-2.466 1.783-4.025 2.325-1.55.542-3.266.817-5.087.817h-15.363v-17.046H216.24v28.396h27.788c3.583 0 6.942-.6 9.983-1.788 3.042-1.183 5.7-2.837 7.9-4.912 2.192-2.067 3.942-4.563 5.196-7.417 1.254-2.846 1.888-5.975 1.888-9.3 0-3.279-.625-6.337-1.854-9.096-1.234-2.754-2.967-5.154-5.163-7.133M418.075 474.453c-1.783 0-3.463-.275-4.996-.816-1.533-.542-2.887-1.325-4.02-2.321a10.383 10.383 0 0 1-2.65-3.621c-.622-1.4-.934-2.975-.934-4.683 0-1.709.325-3.296.967-4.721a11.271 11.271 0 0 1 2.641-3.688c1.117-1.016 2.459-1.825 3.992-2.391 1.533-.567 3.217-.85 5-.85h24.338V439.87h-24.338c-3.583 0-6.946.542-9.992 1.617-3.046 1.07-5.7 2.62-7.896 4.6-2.195 1.983-3.941 4.383-5.195 7.137-1.25 2.75-1.884 5.834-1.884 9.163 0 3.329.634 6.454 1.888 9.3 1.254 2.854 3 5.346 5.196 7.412 2.195 2.08 4.854 3.734 7.9 4.917 3.041 1.187 6.4 1.787 9.983 1.787h25.096l-8.608-11.35h-16.488zM458.96 474.453v-5.791l24.008.004-6.708-9.963h-17.3v-7.341h12.35l-7.775-11.492h-17.008l.004 45.933h47.983l-7.646-11.35H458.96zM524.505 473.453a35.4 35.4 0 0 0-1.85-1.82l-.917-.83 1.2-.32a12.837 12.837 0 0 0 3.842-1.709 13.243 13.243 0 0 0 3.375-3.229 14.763 14.763 0 0 0 2.117-4.296c.487-1.583.741-3.287.741-5.058 0-3.263-.675-5.967-1.995-8.046-1.325-2.083-3.034-3.758-5.071-4.98-2.05-1.228-4.359-2.09-6.859-2.57-2.525-.48-4.996-.725-7.346-.725h-42.995l7.741 11.492h36.321c2.317 0 4.15.475 5.45 1.416 1.333.959 2.008 2.409 2.008 4.321 0 1.725-.741 3.096-2.204 4.084-1.425.958-3.191 1.441-5.254 1.441h-28.733l7.316 10.867h17.996l9.346 12.312h16.546l-7.304-8.562a221.289 221.289 0 0 0-3.471-3.788" fill="#fff" fill-rule="nonzero"/><path d="M540.932 440.559h-.004l-.059 12.125 9.4.05-9.3-12.158a.058.058 0 0 0-.037-.017" fill="#ed1c24" fill-rule="nonzero"/><path d="M608.567 445.23c-1.663-1.462-3.725-2.617-6.138-3.433-2.425-.821-5.225-1.238-8.325-1.238h-47.891l8.32 11.184h40.726c2.008 0 3.591.491 4.716 1.466 1.134.984 1.713 2.33 1.713 4 0 1.692-.563 3.013-1.713 4.03-1.125.995-2.708 1.504-4.716 1.504h-34.6v22.579h11.866v-11.6h21.521c3.096 0 5.9-.404 8.325-1.204 2.413-.8 4.488-1.921 6.171-3.334a13.887 13.887 0 0 0 3.825-5.141c.867-2.017 1.308-4.292 1.308-6.767 0-2.48-.441-4.763-1.308-6.796-.87-2.033-2.15-3.8-3.8-5.25M715.21 468.959a7.685 7.685 0 0 1-3.058 3.708c-1.388.879-3.217 1.475-5.43 1.77-2.191.297-4.895.447-8.041.447-3.142 0-5.846-.15-8.038-.446-2.216-.296-4.041-.892-5.429-1.771a7.685 7.685 0 0 1-3.058-3.708c-.621-1.55-.934-3.584-.934-6.055 0-2.466.313-4.5.93-6.054.633-1.567 1.662-2.804 3.066-3.67 1.38-.855 3.204-1.438 5.421-1.742 2.196-.292 4.9-.446 8.042-.446 3.146 0 5.85.154 8.041.446 2.217.304 4.042.887 5.425 1.741 1.405.867 2.438 2.104 3.063 3.671.617 1.554.933 3.592.933 6.054 0 2.467-.316 4.505-.933 6.055m5.496-23.58c-4.871-3.691-12.28-5.566-22.025-5.566-9.784 0-17.204 1.875-22.05 5.566-4.825 3.671-7.271 9.567-7.271 17.525 0 8.005 2.433 13.921 7.237 17.596 4.838 3.696 12.267 5.567 22.084 5.567 9.779 0 17.2-1.871 22.054-5.567 4.825-3.675 7.27-9.596 7.27-17.596 0-7.958-2.453-13.854-7.3-17.525M775.616 446.682c-2.117-1.925-4.683-3.445-7.625-4.512-2.938-1.07-6.204-1.613-9.713-1.613h-27.266l.416 11.184h26.85c1.73 0 3.363.296 4.838.866 1.483.58 2.804 1.375 3.917 2.371 1.12.996 2 2.204 2.62 3.596.621 1.392.938 2.921.938 4.533 0 1.667-.317 3.205-.938 4.575a10.693 10.693 0 0 1-2.558 3.525c-1.079.975-2.387 1.738-3.892 2.267-1.504.53-3.158.8-4.925.8h-14.854V457.65h-11.987v27.671h26.841c3.463 0 6.709-.587 9.646-1.742 2.938-1.154 5.504-2.766 7.625-4.783 2.121-2.02 3.813-4.45 5.021-7.23 1.209-2.774 1.821-5.824 1.821-9.066 0-3.2-.6-6.179-1.787-8.867a20.7 20.7 0 0 0-4.988-6.95M826.361 465.822c0 1.616-.22 3.02-.658 4.179a6.255 6.255 0 0 1-2.196 2.92c-1.004.755-2.354 1.297-4.004 1.617-1.617.317-3.675.484-6.117.484-3.254 0-5.917-.154-7.925-.446-2.058-.3-3.68-.821-4.817-1.542-1.162-.729-1.97-1.708-2.4-2.9-.412-1.162-.62-2.612-.62-4.312v-25.263h-11.867v25.263c0 3.383.533 6.37 1.583 8.866 1.042 2.496 2.7 4.609 4.93 6.284 2.237 1.691 5.128 2.975 8.583 3.816 3.487.85 7.704 1.28 12.533 1.28 16.563 0 24.963-6.809 24.963-20.246v-25.263H826.36v25.263zM865.824 474.273c-1.725 0-3.35-.267-4.83-.8-1.483-.53-2.79-1.288-3.887-2.263a10.111 10.111 0 0 1-2.566-3.533c-.6-1.367-.905-2.904-.905-4.567 0-1.666.317-3.216.938-4.608a10.905 10.905 0 0 1 2.558-3.592c1.067-.991 2.367-1.779 3.854-2.337 1.484-.55 3.109-.83 4.838-.83h17.213l7.637-11.183h-24.85c-3.458 0-6.704.53-9.654 1.575-2.942 1.046-5.509 2.554-7.621 4.48-2.117 1.924-3.804 4.266-5.017 6.954-1.208 2.683-1.825 5.687-1.825 8.929 0 3.241.617 6.296 1.825 9.07 1.213 2.776 2.9 5.205 5.021 7.226 2.121 2.02 4.683 3.629 7.625 4.787 2.938 1.154 6.18 1.738 9.646 1.738h28.72l-8.307-11.046h-20.413z" fill="#fff" fill-rule="nonzero"/><path d="M939.658 442.744c.954-.833 2.1-1.566 3.425-2.183h-48.08l-7.7 11.183H905.2v33.575h11.925v-33.575h18.008c.18-1.4.496-2.687.937-3.837a12.956 12.956 0 0 1 3.588-5.163M988.133 461.689c-2.517-2.004-6.267-3.017-11.142-3.017h-22.058c-1.508 0-2.658-.258-3.417-.766-.796-.534-1.196-1.455-1.196-2.734 0-1.283.405-2.191 1.2-2.7.763-.491 1.88-.729 3.413-.729h27.954l7.638-11.183H955.9c-3.021 0-5.655.333-7.817 1-2.146.662-3.925 1.6-5.28 2.787a10.861 10.861 0 0 0-3.008 4.321c-.391 1.025-.662 2.146-.825 3.425-.104.825-.15 1.563-.15 2.267 0 1.896.296 3.65.884 5.212a10.158 10.158 0 0 0 2.708 3.984c1.213 1.1 2.767 1.966 4.617 2.583 1.858.62 4.108.933 6.691.933h22.059c1.579 0 2.708.263 3.458.809.763.558 1.154 1.483 1.154 2.758s-.387 2.213-1.154 2.792c-.742.566-1.875.841-3.458.841h-30.504l-7.63 11.046h37.163c3.025 0 5.658-.333 7.82-1 2.147-.662 3.934-1.62 5.31-2.854 1.366-1.22 2.374-2.754 3.003-4.55.634-1.817.95-3.883.95-6.137 0-4.046-1.262-7.1-3.758-9.088M661.308 477.249l-.154-.296a270.35 270.35 0 0 0-3.33-3.667 34.932 34.932 0 0 0-1.77-1.758l-.904-.825 1.183-.32a12.49 12.49 0 0 0 6.95-4.805c.883-1.233 1.57-2.642 2.05-4.187.47-1.542.713-3.2.713-4.93 0-1.604-.167-3.083-.488-4.387-.32-1.292-.804-2.45-1.433-3.45-1.284-2.03-2.934-3.663-4.9-4.854-1.984-1.196-4.209-2.042-6.625-2.509-2.434-.466-4.821-.704-7.092-.704h-37.8c.492.246.946.492 1.362.746 2.35 1.417 4.317 3.358 5.842 5.77.842 1.342 1.471 2.913 1.867 4.668h29.758c2.238 0 4.013.466 5.271 1.379 1.292.941 1.946 2.362 1.946 4.22 0 1.688-.721 3.034-2.138 3.988-1.375.938-3.083 1.413-5.079 1.413H618.15l8.108 10.575h16.98l9.024 12.004h15.971l-6.825-8.071h-.1z" fill="#fff" fill-rule="nonzero"/><path d="M128.198 202.94a2.17 2.17 0 0 0-2.408-.72 2.155 2.155 0 0 0-1.459 2.042v85.033c0 1.192.967 2.159 2.159 2.159h65.725a2.16 2.16 0 0 0 1.708-3.48l-65.725-85.033z" fill="#ed1c24" fill-rule="nonzero"/><path d="M977.716 336.124c0 21.092-17.158 38.25-38.246 38.25H73.078c-21.088 0-38.246-17.158-38.246-38.25V72.211c0-21.091 17.158-38.25 38.246-38.25H939.47c21.088 0 38.246 17.159 38.246 38.25v263.913zM939.47 22.844H73.078c-27.217 0-49.359 22.146-49.359 49.367v263.913c0 27.22 22.142 49.367 49.359 49.367H939.47c27.217 0 49.359-22.146 49.359-49.367V72.211c0-27.22-22.142-49.366-49.359-49.366" fill="#fff" fill-rule="nonzero"/><path d="M1000 341.888c0 30.666-24.95 55.612-55.617 55.612H66.733c-30.667 0-55.617-24.946-55.617-55.612V66.729c0-30.666 24.95-55.612 55.617-55.612h877.65c30.667 0 55.617 24.946 55.617 55.612v275.159zM944.383 0H66.733C29.937 0-.001 29.938-.001 66.73v275.158c0 36.796 29.938 66.729 66.734 66.729h877.65c36.796 0 66.73-29.933 66.73-66.73V66.73c0-36.791-29.934-66.729-66.73-66.729" fill="#fff" fill-rule="nonzero"/><path d="M917.438 207.859c-3.983 9.15-9.658 16.725-17.35 23.158-7.788 6.52-17.504 11.717-28.88 15.45-11.566 3.787-25.033 5.712-40.024 5.712h-83.275v56.525a2.156 2.156 0 0 1-2.159 2.159h-40.608a2.159 2.159 0 0 1-2.158-2.159V214.35c0-1.196.966-2.158 2.158-2.158h132.22c12.18 0 22.001-3.208 29.193-9.542 7.429-6.542 11.358-15.617 11.358-26.237 0-10.663-3.958-19.705-11.446-26.142-7.179-6.167-16.97-9.292-29.104-9.292h-160.4c-.938 0-1.771-.604-2.054-1.5-2.121-6.62-4.938-12.72-8.375-18.133-4.138-6.5-8.925-12.45-14.238-17.683a2.168 2.168 0 0 1-.483-2.355 2.163 2.163 0 0 1 2-1.341h177.683c14.959 0 28.396 1.97 39.942 5.862 11.346 3.825 20.983 9.159 28.654 15.859 7.65 6.67 13.317 14.445 17.33 23.758 4.004 9.308 6.033 19.842 6.033 31.312 0 11.459-2.025 21.921-6.017 31.1m10.492-66.533c-4.642-10.783-11.484-20.167-20.33-27.887-8.816-7.696-19.766-13.784-32.545-18.092-12.734-4.288-27.409-6.463-43.621-6.463h-216.4a2.16 2.16 0 0 0-2.117 1.734 2.163 2.163 0 0 0 1.287 2.416c5.413 2.25 10.034 4.542 14.134 7 11.437 6.863 21 16.255 28.42 27.917 4.205 6.608 7.296 14.438 9.196 23.263a2.162 2.162 0 0 0 2.113 1.7H837.3c9.305 0 16.575 2.191 21.605 6.512 5 4.304 7.433 10 7.433 17.413 0 7.425-2.438 13.183-7.454 17.6-5.025 4.425-12.288 6.666-21.584 6.666H693.571a2.159 2.159 0 0 0-2.158 2.159v117.375c0 1.196.966 2.158 2.158 2.158h63.625a2.157 2.157 0 0 0 2.163-2.158v-56.525h71.762c16.213 0 30.884-2.113 43.609-6.288 12.77-4.191 23.766-10.096 32.679-17.554 8.97-7.504 15.87-16.72 20.517-27.392 4.629-10.637 6.975-22.646 6.975-35.696 0-13.041-2.346-25.108-6.971-35.858" fill="#fff" fill-rule="nonzero"/><path d="M646.122 309.16a2.157 2.157 0 0 1-1.97 1.28h-54.576a2.163 2.163 0 0 1-1.72-.854l-42.384-55.946-2.804-3.7H457.5a2.155 2.155 0 0 1-1.704-.842l-25.8-33.38a2.156 2.156 0 0 1 1.708-3.474h123.85c11.7 0 21.838-2.838 30.138-8.433 9.341-6.284 14.283-15.471 14.283-26.555 0-14.97-7.129-23.258-13.104-27.575-7.75-5.6-18.288-8.441-31.317-8.441H412.097c-.942 0-1.771-.609-2.059-1.504-2.125-6.721-4.97-12.909-8.454-18.388-4.008-6.3-8.633-12.087-13.741-17.196a2.158 2.158 0 0 1 1.525-3.683h160.958c11.05 0 22.67 1.15 34.542 3.425 11.366 2.175 21.829 6.096 31.091 11.654 8.942 5.363 16.446 12.746 22.3 21.946 2.75 4.329 4.867 9.412 6.284 15.1 1.496 5.996 2.254 12.796 2.254 20.217 0 7.916-1.104 15.495-3.275 22.537-2.154 6.97-5.267 13.3-9.254 18.813-3.934 5.437-8.821 10.125-14.53 13.933-5.183 3.454-11.512 7.38-21.054 10.267a1.522 1.522 0 0 1-.229.054l-12.9 2.396 10.813 11.683c3.954 3.596 44.712 49.117 49.391 54.346.567.637.709 1.546.363 2.32m-13.313-34.779c-7.162-7.954-12.966-14.291-17.3-18.883-3.1-3.279-6.029-6.187-8.75-8.687 7.046-1.942 13.521-4.867 19.3-8.717 6.855-4.57 12.734-10.208 17.471-16.767 4.73-6.529 8.405-13.987 10.925-22.158 2.513-8.142 3.788-16.867 3.788-25.933 0-8.359-.871-16.096-2.596-23.005-1.717-6.887-4.32-13.108-7.737-18.487-6.826-10.725-15.605-19.354-26.092-25.642-10.425-6.254-22.15-10.658-34.85-13.087-12.584-2.409-24.934-3.63-36.704-3.63H351.259c-1.025 0-1.908.721-2.112 1.721a2.161 2.161 0 0 0 1.262 2.421c5.05 2.167 9.296 4.296 12.98 6.504 11.437 6.863 21 16.255 28.42 27.921 4.246 6.675 7.354 14.588 9.254 23.513a2.15 2.15 0 0 0 2.109 1.708h152.32c10.56 0 18.83 2.108 24.572 6.263 5.612 4.05 8.337 10.016 8.337 18.241 0 7.284-3.008 12.846-9.196 17.009-6.366 4.295-14.346 6.47-23.712 6.47H408.197c-.821 0-1.571.467-1.934 1.209a2.156 2.156 0 0 0 .225 2.27l43.596 56.4c.409.53 1.038.834 1.705.834h85.095l45.188 59.65a2.163 2.163 0 0 0 1.72.854h85.213c.842 0 1.605-.487 1.959-1.254a2.148 2.148 0 0 0-.317-2.304l-37.838-44.434z" fill="#fff" fill-rule="nonzero"/><path d="M381.158 309.191a2.154 2.154 0 0 1-1.958 1.246h-54.575a2.137 2.137 0 0 1-1.717-.854l-42.383-55.942-2.809-3.704h-85.162a2.16 2.16 0 0 1-1.709-.838l-25.8-33.379a2.165 2.165 0 0 1-.229-2.27 2.17 2.17 0 0 1 1.938-1.21h123.854c11.7 0 21.837-2.837 30.133-8.428 9.346-6.288 14.284-15.471 14.284-26.559 0-8.075-2.155-15.083-6.409-20.833-2.046-2.758-4.233-4.962-6.696-6.737-7.745-5.6-18.283-8.442-31.312-8.442H117.37c-.683 0-1.329-.325-1.737-.875l-26.925-36.458a2.159 2.159 0 0 1 1.737-3.438h194.93c11.05 0 22.67 1.15 34.541 3.425 11.371 2.17 21.834 6.092 31.096 11.65 8.942 5.363 16.442 12.746 22.296 21.946 2.783 4.383 4.917 9.542 6.337 15.329.73 2.967 1.292 6.367 1.676 10.117.354 3.479.529 6.712.529 9.875 0 5.716-.596 11.329-1.763 16.691a67.68 67.68 0 0 1-1.487 5.725l-.092.296c-2.15 6.913-5.246 13.184-9.192 18.634-3.933 5.441-8.816 10.129-14.525 13.937-1.858 1.233-3.175 2.23-4.57 3.283-2.596 1.967-5.542 4.196-12.68 8.492-.066.046-.137.08-.208.113l-9.717 4.487c10.05 11.142 48.438 56.721 53.238 62.421.542.642.658 1.537.304 2.3m-13.296-34.808c-7.162-7.959-12.97-14.296-17.3-18.884-3.1-3.279-6.029-6.187-8.75-8.687 7.046-1.946 13.521-4.867 19.296-8.717 6.854-4.57 12.737-10.212 17.475-16.767 4.675-6.462 8.325-13.85 10.854-21.958l.071-.204a84.295 84.295 0 0 0 1.763-6.783c1.341-6.167 2.025-12.609 2.025-19.146 0-3.559-.192-7.171-.592-11.046-.438-4.338-1.075-8.158-1.942-11.688-1.72-7.008-4.346-13.32-7.8-18.758-6.829-10.725-15.608-19.354-26.096-25.646-10.425-6.254-22.15-10.658-34.85-13.083-12.583-2.409-24.929-3.63-36.704-3.63H67.574a2.153 2.153 0 0 0-1.737 3.438l43.93 59.475c.403.55 1.05.875 1.732.875h179.042c10.563 0 18.83 2.109 24.575 6.263 1.509 1.087 2.838 2.441 4.184 4.258 2.754 3.725 4.154 8.43 4.154 13.983 0 7.284-3.009 12.846-9.2 17.009-6.367 4.296-14.346 6.47-23.713 6.47H143.25c-.825 0-1.575.467-1.937 1.209a2.158 2.158 0 0 0 .23 2.27l43.59 56.397a2.16 2.16 0 0 0 1.71.837h85.09l45.188 59.646a2.155 2.155 0 0 0 1.721.858h85.217c.842 0 1.604-.491 1.958-1.254.35-.766.23-1.662-.316-2.304l-37.838-44.433z" fill="#fff" fill-rule="nonzero"/></svg>