<svg width="120" height="84" viewBox="0 0 120 84" xmlns="http://www.w3.org/2000/svg"><title>Slice 1</title><g fill="#FFF" fill-rule="evenodd"><path d="M92.092 75.716c-.134.669-.472 1.03-.862 1.014-.397-.016-.711-.399-.832-1.077a7.871 7.871 0 0 1-.03-2.676c.148-.884.593-1.326 1.108-1.138.372.135.57.552.653 1.096.066.436.089.888.138 1.412-.051.417-.082.908-.175 1.369zm-.767-4.568c-.609-.042-1.124.5-1.32 1.482a8.038 8.038 0 0 0 .054 3.452c.188.788.574 1.243 1.127 1.29.543.045.929-.352 1.196-1.066.234-.624.256-1.322.281-2.224-.029-.297-.054-.8-.128-1.286-.154-1-.615-1.607-1.21-1.648zm-45.676 4.19c.081.992-.345 1.694-.938 1.611-.235-.033-.423-.288-.442-.61-.023-.386.15-.518.34-.598.339-.143.682-.266 1.04-.403zm-1.802.892c-.014.517.201 1.033.522 1.253.658.449 1.581-.316 1.685-1.424.047-.505.038-1.023.055-1.576-.586.233-1.139.432-1.684.675-.377.167-.564.553-.578 1.072zm-4.293 2.956c-.065-.001-.145-.147-.191-.254-.54-1.237-1.074-2.479-1.61-3.72-.013-.032-.03-.061-.042-.095-.472-1.32-1.208-1.75-2.163-1.518v5.58h-1.745V65.69c.044-.015.075-.034.107-.034 1.435.007 2.872.006 4.307.03.295.006.592.081.882.17.964.298 1.618 1.405 1.748 2.926.195 2.266-.5 3.84-1.927 4.364l-.295.107c.99.858 1.485 2.277 2.031 3.628.26.644.519 1.29.776 1.935.042.104.075.216.132.383-.697 0-1.354.007-2.01-.012zm.044-5.672c1.2-.855 1.739-2.306 1.694-4.312-.044-2.035-.874-3.61-2.137-4-.354-.11-.72-.17-1.081-.175-1.396-.024-2.791-.018-4.187-.02-.37-.001-.515.233-.515.83V79.02c0 .612.145.844.537.85.471.006.942.002 1.413 0 .515 0 .643-.2.643-1.007 0-1.421.004-2.842-.003-4.263 0-.292.036-.392.25-.384.445.016.745.353.981.895.628 1.44 1.257 2.88 1.88 4.325.115.268.258.433.466.432.643-.003 1.288.008 1.931-.025.49-.024.658-.533.392-1.173-.724-1.738-1.322-3.61-2.264-5.157zm-1.423-2.878c-.73.087-1.461.103-2.215.15V68.64c.734 0 1.458-.03 2.18.013.35.021.51.383.518.948.009.604-.14.994-.483 1.035zm.814-.251c.226-.96.083-2.347-.966-2.412-.749-.047-1.5-.033-2.25-.043-.072-.001-.144.024-.226.04v3.461c.895-.043 1.76-.07 2.623-.132.384-.028.684-.344.819-.914zm-6.63 8.805h-1.521v-1.32c-.082.113-.125.16-.158.22-1.094 1.994-3.141 1.864-4.031-.884-.608-1.879-.59-3.89-.045-5.81.7-2.464 2.783-2.962 3.903-1.204.045.07.098.128.182.237V65.68h1.67V79.19zm-.052-14.183c-.487-.005-.974-.002-1.462-.001-.41 0-.545.212-.545.862v3.213l-.19-.138c-1.466-1.065-3.195-.166-3.864 2.129a11.163 11.163 0 0 0 .055 6.518c.588 1.878 1.898 2.835 3.145 2.384.331-.12.643-.366.974-.56.1.344.294.457.538.453.454-.007.908.012 1.363 0 .308-.007.47-.27.471-.757.003-4.447.003-8.894 0-13.34 0-.525-.154-.76-.485-.763zM84.06 79.432c-2.093.072-3.378-1.87-3.42-5.167-.037-2.855 1.3-5.052 3.1-5.097 1.977-.048 3.35 1.961 3.391 4.965.04 2.932-1.296 5.239-3.071 5.3zm.27-10.874c-1.416-.242-2.635.42-3.471 2.331-.517 1.181-.682 2.513-.622 3.942.105 2.47.962 4.236 2.459 4.975 2.492 1.231 4.932-1.574 4.856-5.582-.06-3.141-1.279-5.334-3.223-5.666zm9.964 10.61h-1.53v-1.217c-.458.723-.946 1.25-1.566 1.42-1.102.3-2.19-.586-2.664-2.27a10.417 10.417 0 0 1-.032-5.61c.683-2.492 2.655-3.105 3.944-1.297l.182.255v-4.774h1.666V79.17zM94.234 65c-.504 0-1.007.001-1.51.006-.35.004-.495.23-.496.778-.002.93 0 1.861-.002 2.791 0 .15-.016.3-.026.483-.062-.04-.099-.061-.134-.087-1.5-1.108-3.229-.208-3.911 2.155-.6 2.074-.593 4.235.023 6.305.628 2.11 2.062 3.105 3.395 2.463.263-.127.511-.333.676-.443.235.168.406.382.585.402.468.05.94.03 1.41.013.319-.011.468-.262.468-.756.002-4.458.002-8.916 0-13.374 0-.48-.17-.736-.478-.736zm-14.299 5.86c-.08.35-.166.696-.242 1.01-.235-.121-.448-.28-.671-.334-.458-.111-.783.194-.97.858-.242.864-.232 1.79-.242 2.703-.014 1.215-.004 2.43-.004 3.644v.443h-1.662v-9.788h1.515v1.181l.053.053c.292-.602.557-1.256 1.072-1.416.503-.157.96.043 1.416.423-.091.423-.175.825-.265 1.223zm.401-1.833c-.709-.595-1.43-.749-2.17-.123-.053.044-.133.036-.196.016-.148-.048-.293-.162-.44-.17-.42-.024-.842-.009-1.263-.008-.423 0-.557.211-.558.887v4.65c0 1.588-.002 3.177 0 4.766.002.511.146.806.436.817.544.02 1.09.02 1.633-.002.275-.012.416-.268.423-.701.009-.49-.002-.982.007-1.472.028-1.43.038-2.864.102-4.29.05-1.065.382-1.602 1.114-.95.294.26.56.088.679-.403.165-.687.32-1.38.472-2.076.092-.43.017-.727-.239-.941zm-20.741 6.662c-.079.755-.277 1.113-.642 1.152-.441.048-.79-.367-.929-1.152h1.57zm-2.02-.61c-.021 1.37.498 2.154 1.03 2.344.587.209 1.05-.155 1.274-1.035.066-.26.147-.318.312-.27.469.14.94.258 1.432.39-.264 1.183-.705 2.083-1.442 2.544-.889.557-1.794.53-2.68-.018-.785-.485-1.245-1.458-1.485-2.69a10.66 10.66 0 0 1-.026-3.862c.441-2.545 1.951-3.857 3.611-3.156 1.168.493 1.783 1.777 2 3.566.085.69.096 1.403.146 2.186h-4.172zm4.556-.407c-.019-.515-.035-1.031-.077-1.542-.21-2.58-1.258-4.247-2.869-4.586-1.39-.292-2.666.704-3.311 2.62-.478 1.416-.543 2.946-.386 4.488.192 1.892.792 3.35 1.983 4.07.589.356 1.205.417 1.827.331 1.168-.16 2.036-1.04 2.557-2.7.316-1.008.23-1.304-.463-1.616.063-.012.102-.023.142-.027.498-.049.625-.263.597-1.038zm9.961-3.658c-.543.109-1.094.124-1.657.18V68.54c.578.059 1.145.067 1.702.192.375.084.558.57.548 1.165-.01.58-.217 1.042-.593 1.117zm.126-2.931c-.722-.144-1.456-.139-2.206-.199v3.978c.75-.065 1.468-.074 2.177-.207.547-.103.905-.883.916-1.771.01-.874-.34-1.692-.887-1.801zm2.391 3.86c-.45 1.303-1.171 1.971-2.1 2.064-.715.071-1.434.061-2.151.086-.106.004-.211 0-.35 0v5.085h-1.743V65.693c.031-.015.053-.036.076-.036 1.42.02 2.84 0 4.257.073 1.28.065 2.215 1.572 2.292 3.573.036.913.005 1.813-.28 2.64zm-1.879-6.84c-1.441-.095-2.886-.072-4.33-.096-.414-.007-.551.208-.553.85-.003.775-.001 1.55-.001 2.325v10.812c.001.643.143.87.547.876.495.007.99.006 1.486 0 .413-.004.551-.223.552-.86v-4.258c.114 0 .202.003.29 0 .512-.016 1.024-.025 1.534-.052 1.126-.061 2.057-.7 2.654-2.267.401-1.054.46-2.208.383-3.406-.136-2.126-1.2-3.835-2.562-3.924zm12.1 10.592c-.174.657-.517.98-.982.96-.456-.022-.77-.385-.934-1.024a5.482 5.482 0 0 1-.008-2.65c.158-.662.541-1.066.975-1.055.458.01.8.353.963 1.016.105.425.137.894.205 1.368-.071.47-.106.953-.22 1.385zm-.899-4.407c-.678-.01-1.222.557-1.44 1.557a6.7 6.7 0 0 0 .006 2.925c.212.94.739 1.525 1.35 1.542.641.019 1.174-.508 1.398-1.478.117-.513.152-1.073.216-1.552-.062-.514-.088-.956-.171-1.37-.2-.994-.738-1.614-1.359-1.624zm-53.748 4.376c-.117.68-.489 1.09-.892 1.066-.395-.022-.718-.447-.832-1.133a8.297 8.297 0 0 1-.035-2.529c.132-.93.583-1.415 1.113-1.233.31.106.507.415.614.866.054.227.089.468.116.708.026.227.03.461.045.692l.04.01c-.055.519-.082 1.048-.17 1.553zm-.846-4.518c-.552-.004-1.041.495-1.224 1.358-.118.553-.155 1.149-.216 1.633.06.623.084 1.142.166 1.637.162.986.63 1.572 1.232 1.612.555.037 1.083-.545 1.278-1.481a8.117 8.117 0 0 0-.02-3.382c-.19-.882-.652-1.373-1.216-1.377zm24.719 7.24c-1.068 1.474-3.101 1.404-4.133-.126-.394-.585-.653-1.298-.79-2.112a10.87 10.87 0 0 1-.002-3.676c.41-2.36 1.589-3.36 3.014-3.313.286.009.577.069.856.173.944.353 1.586 1.402 1.822 2.97l-1.602.455c-.027-.104-.054-.196-.076-.29-.183-.824-.497-1.21-1.01-1.244-.559-.037-1.044.359-1.225 1.105a7.883 7.883 0 0 0 .039 3.89c.198.753.676 1.123 1.237 1.069.498-.048.825-.467.997-1.285.036-.17.065-.344.106-.565l1.626.426c-.13.995-.38 1.86-.86 2.522zm.91-3.17a30.343 30.343 0 0 0-1.562-.412c-.281-.067-.455.127-.539.554-.024.123-.043.248-.067.372-.121.628-.31.885-.67.91-.397.027-.72-.259-.841-.816a7.7 7.7 0 0 1-.044-3.047c.116-.625.419-.916.85-.893.395.02.55.232.679.919.089.475.235.656.543.581.521-.126 1.04-.278 1.557-.443.295-.094.434-.445.35-.897-.271-1.446-.789-2.574-1.716-3.147-.58-.359-1.186-.437-1.801-.37-.977.106-1.805.692-2.41 1.932-.55 1.128-.725 2.438-.718 3.828 0 .142-.003.284 0 .426.05 1.744.406 3.264 1.322 4.359.758.907 1.639 1.09 2.559.987 1.466-.165 2.572-1.693 2.858-3.942.06-.48-.06-.815-.35-.901zm-10.788-2.329c.224-.957.392-1.157.89-1.096.48.058.54.11.6.586l-1.49.51zm2.346 6.3c-.048 0-.113-.126-.137-.216-.062-.237-.106-.487-.168-.786-.081.1-.15.182-.216.266-.732.93-1.56 1.192-2.466.835-.767-.302-1.3-1.32-1.35-2.53-.054-1.321.344-2.4 1.139-2.82.637-.337 1.308-.52 1.963-.775.2-.078.395-.184.596-.252.19-.065.222-.24.202-.51-.06-.8-.227-1.101-.742-1.187-.252-.042-.518-.053-.76.035-.177.065-.344.287-.482.493-.108.163-.166.409-.257.645l-1.443-.407c.015-1.005.64-2.18 1.355-2.536a2.76 2.76 0 0 1 1.786-.249c.405.078.82.182 1.2.404.581.34.911 1.06.938 2.046.03 1.148.033 2.298.044 3.448.006.697-.029 1.4.02 2.09.045.67.174 1.325.27 2.017-.476 0-.984.006-1.492-.01zm1.608-2.69c-.002-1.473.012-2.946-.004-4.417-.022-1.93-.62-2.978-1.802-3.395-.746-.264-1.507-.247-2.263-.036-1.099.306-1.76 1.358-2.077 2.993-.102.528.04.884.387.989.411.124.824.24 1.236.358l.005.067c-.153.09-.31.17-.46.269-.968.628-1.445 1.872-1.37 3.57.061 1.427.721 2.64 1.659 3.022.898.366 1.745.148 2.478-.553.185.183.331.443.489.461.533.062 1.071.055 1.607.04.397-.012.58-.473.417-1.036-.217-.745-.301-1.524-.302-2.333zm9.922-3.696c.107-.675.392-1.016.802-.995.374.02.642.387.708.995h-1.51zm1.37-1.398c-.428-.392-.877-.37-1.286.069-.432.463-.571 1.155-.557 1.965h2.483c-.021-.85-.154-1.59-.64-2.034zm7.251.494c-.183-.115-.338-.233-.501-.31-.515-.246-.983.044-1.137.844a14.786 14.786 0 0 0-.237 2.312c-.041 1.329-.021 2.661-.027 3.992v.447h-1.646v-9.8c.465 0 .932-.008 1.398.014.046.002.12.185.126.292.018.3.007.605.007.908.35-.651.653-1.318 1.237-1.416.454-.077.861.113 1.288.458l-.508 2.259zm.615-2.895c-.751-.614-1.506-.72-2.184-.065-.267-.083-.444-.178-.623-.188-.42-.024-.842-.009-1.263-.007-.383.002-.52.216-.52.82v9.459c0 .619.138.843.535.85.47.006.941.006 1.412 0 .396-.006.537-.233.54-.843.005-1.305-.01-2.61.023-3.914a22.4 22.4 0 0 1 .189-2.368c.071-.537.336-.694.674-.529.102.05.198.126.295.199.362.276.598.136.736-.455.15-.643.294-1.288.438-1.933.111-.496.046-.783-.252-1.026zm45.288 10.122c-.614.324-1.239.45-1.87.143-.622-.303-.906-.993-.92-2.264-.015-1.666-.013-3.333-.018-4.999v-.536h-.759c0-.649-.006-1.253.008-1.856.002-.082.101-.216.163-.226.185-.03.374-.01.588-.01 0-.572.006-1.098-.003-1.624-.004-.237.05-.372.182-.488.488-.427.97-.874 1.49-1.348v3.46c.336 0 .646.005.955-.003.12-.003.186.04.185.254-.005.594-.002 1.187-.002 1.83h-1.072c-.026.07-.041.092-.041.114-.002 1.653-.01 3.306-.001 4.959.002.54.218.798.556.71.177-.045.35-.124.562-.202.04.63.085 1.239.114 1.85.003.076-.065.209-.117.236zm.42-2.062c-.045-.547-.274-.78-.612-.64l-.5.204v-4.51c.219 0 .424.004.63-.002.32-.009.471-.243.474-.736.003-.633.003-1.266 0-1.899-.003-.496-.155-.73-.473-.736-.212-.005-.424-.001-.658-.001 0-.92.002-1.783 0-2.646-.002-.703-.318-1-.713-.658-.453.395-.891.835-1.352 1.207-.317.256-.48.603-.453 1.161.006.141.006.284.012.425.021.49.018.495-.292.51-.312.016-.454.22-.463.709-.011.62-.01 1.24-.008 1.86 0 .567.165.82.53.83.066.002.13 0 .237 0 0 .204-.001.369 0 .534.008 1.536-.004 3.072.03 4.606.033 1.389.43 2.232 1.193 2.604.762.37 1.517.23 2.251-.215.24-.145.33-.445.3-.839-.045-.59-.085-1.18-.133-1.768zm4.382-4.588l-1.393-.567.011-.108c.742-.315 1.227-.104 1.382.675zm-1.623 3.287l1.709.668.004.161c-.313.379-.693.344-1.064.276-.39-.071-.575-.401-.649-1.105zm3.143 2.62c-.508.682-1.107.945-1.752 1.023-.707.085-1.406.028-2.065-.424-.722-.495-1.188-1.343-1.4-2.586l1.643-.392c.025.064.042.094.05.128.176.878.552 1.382 1.143 1.376.331-.003.667-.098.99-.222.247-.095.37-.424.364-.828-.005-.404-.182-.583-.406-.675-.622-.255-1.253-.465-1.863-.776-.394-.2-.81-.445-1.123-.849-.927-1.195-.71-3.575.397-4.45.343-.272.75-.45 1.133-.478a5.313 5.313 0 0 1 1.768.152c.826.222 1.31 1.108 1.569 2.385l-1.548.457c-.428-1.144-1.284-1.552-2.045-.954-.125.098-.265.378-.264.572.001.192.149.482.273.553.432.246.884.409 1.326.614.457.212.92.406 1.368.661 1.436.818 1.34 3.506.442 4.713zm-.277-5.315c-.122-.073-.24-.164-.423-.29.39-.116.718-.216 1.046-.308.439-.124.59-.503.439-1.168-.28-1.228-.793-2.133-1.61-2.47-.48-.198-.989-.268-1.487-.309-.639-.052-1.274.07-1.85.551-.788.66-1.243 1.684-1.24 3.113.004 1.396.42 2.408 1.232 3.01.072.053.14.117.26.22-.45.11-.848.206-1.245.305-.402.1-.552.464-.427 1.076.254 1.247.759 2.164 1.514 2.72.827.61 1.704.65 2.593.495.725-.127 1.366-.536 1.892-1.362.959-1.504.997-4.558-.694-5.583zM6.183 79.188c-.072-.003-.158-.163-.21-.28-.55-1.258-1.093-2.522-1.639-3.784-.013-.032-.03-.062-.041-.096-.468-1.292-1.201-1.639-2.124-1.414V79.176H.426V65.694c.027-.015.05-.037.072-.037 1.552.019 3.104.017 4.656.07.6.02 1.167.273 1.636.941 1.04 1.483 1.117 5.363-.913 6.33-.188.089-.378.162-.614.263 1.158 1.035 1.662 2.83 2.333 4.413.203.48.39.976.608 1.526-.708 0-1.365.01-2.022-.012zm2.211-.752c-.697-1.656-1.269-3.448-2.168-4.915.048-.04.082-.07.117-.097 1.113-.841 1.605-2.264 1.572-4.162-.034-1.95-.771-3.516-1.907-3.973a3.808 3.808 0 0 0-1.321-.259c-1.37-.036-2.742-.02-4.113-.024-.45-.001-.569.187-.57.894 0 4.408-.002 8.815-.004 13.223 0 .451.159.734.453.743.553.015 1.106.016 1.66 0 .322-.01.468-.274.468-.795.002-1.46 0-2.921 0-4.382v-.452c.513-.072.91.126 1.192.782.628 1.456 1.26 2.908 1.904 4.346.092.205.254.46.39.469.717.048 1.436.048 2.154.014.312-.015.471-.533.338-.98-.045-.15-.106-.292-.165-.432zm2.57-5.56c.09-.83.33-1.133.84-1.095.445.033.565.143.592.602l-1.432.493zm2.314 6.312c-.054-.002-.13-.133-.155-.23-.062-.234-.101-.484-.158-.768-.12.145-.22.273-.324.39-.769.872-1.61 1.09-2.51.628-.704-.361-1.172-1.354-1.198-2.466-.03-1.336.32-2.34 1.075-2.77.577-.329 1.193-.492 1.79-.732.288-.115.579-.216.859-.364.072-.037.155-.223.159-.347.028-.821-.198-1.22-.72-1.32l-.073-.017c-.793-.128-1.036.072-1.425 1.2l-1.503-.43c.218-1.119.57-2.008 1.274-2.442.605-.372 1.24-.43 1.877-.33.39.06.79.146 1.158.345.612.331.982 1.041 1.02 2.08.034.927.036 1.858.043 2.787.009 1.263-.082 2.534.12 3.78.055.332.14.653.22 1.017-.526 0-1.028.007-1.529-.01zm1.592-2.963c.004-1.395.017-2.79-.002-4.184-.026-1.842-.576-2.958-1.873-3.377a3.649 3.649 0 0 0-2.263.005c-1.072.339-1.713 1.404-2.009 3.013-.088.483.067.839.379.945.088.03.178.05.267.077l.993.293c-.121.13-.238.19-.354.255-.977.553-1.534 1.825-1.496 3.416.038 1.567.667 2.83 1.653 3.243.897.376 1.75.172 2.563-.616.116.329.253.576.502.575.52-.002 1.041.017 1.56-.009.372-.018.555-.473.399-.996-.251-.842-.321-1.726-.319-2.64zm4.966-.524c-.106.572-.341.947-.73 1.01-.405.065-.733-.222-.884-.787-.146-.546-.198-1.155-.277-1.644.064-.556.085-1 .17-1.41.137-.66.503-1.04.897-1.012.391.027.711.422.832 1.093a7.616 7.616 0 0 1-.008 2.75zm-.785-4.477c-.582-.04-1.025.353-1.253 1.172a6.674 6.674 0 0 0 .073 3.889c.261.8.73 1.185 1.32 1.064.548-.114.894-.643 1.04-1.455.091-.517.122-1.06.19-1.675-.076-.546-.117-1.172-.255-1.739-.186-.764-.567-1.219-1.115-1.256zm5.977-3.178h-1.646v-2.368h1.646v2.368zm-.003 11.15h-1.64V69.41h1.64v9.786zm.431-13.473c-.005-.47-.169-.712-.466-.716-.52-.006-1.04-.007-1.561 0-.318.005-.46.24-.463.751-.003.724.005 1.447-.003 2.17-.004.37.088.62.35.793-.265.16-.358.43-.357.807.002 3.167 0 6.334.002 9.5 0 .608.151.837.546.842.454.007.908.005 1.362.001.45-.004.593-.228.593-.93.001-3.09-.001-6.18.003-9.268 0-.42-.052-.771-.26-.898.087-.273.232-.531.245-.804.034-.746.018-1.498.01-2.248zm75.674 13.462h-1.54v-1.234l-.075-.082c-.074.143-.139.301-.224.425-.722 1.052-1.567 1.388-2.517.971-.775-.34-1.255-1.285-1.314-2.618-.042-.94-.04-1.884-.043-2.826-.007-1.46-.002-2.919-.002-4.412h1.669c0 .148-.002.297 0 .447.017 2.066.02 4.133.061 6.198.017.87.409 1.375.965 1.386.72.015 1.28-.793 1.305-1.985.039-1.859.039-3.719.055-5.579.002-.152 0-.304 0-.478h1.66v9.787zm-.06-10.442c-.487-.005-.974-.002-1.461-.001-.434 0-.559.194-.56.878 0 1.37.008 2.74-.003 4.109a30.5 30.5 0 0 1-.077 2.008c-.047.626-.463 1.094-.881 1.055-.374-.036-.525-.329-.551-1.1-.02-.555-.036-1.11-.039-1.664-.008-1.512-.006-3.023-.01-4.535-.002-.471-.144-.741-.414-.747a41.206 41.206 0 0 0-1.66 0c-.242.004-.408.254-.408.635 0 2.351-.033 4.705.024 7.053.05 2.052.806 3.312 2.033 3.602.738.175 1.426-.083 2.013-.64.198.18.342.416.495.432.51.056 1.022.05 1.533.034.285-.009.438-.28.438-.725.003-3.217.003-6.435 0-9.652 0-.5-.156-.739-.472-.742zm-95.8 1.132c-.051.474-.207.762-.525.778-.707.035-1.415.011-2.161.011v-2.053c.687 0 1.363-.036 2.036.01.527.037.733.486.65 1.254zm.433-.27c-.003-.95-.396-1.598-1.023-1.633-.642-.036-1.286-.036-1.93-.041-.194-.002-.388.03-.587.046v3.41c.611 0 1.196.008 1.781-.003.256-.004.51-.039.766-.07.64-.08.997-.698.993-1.71zm5.938 7.324c-.129.033-.3.01-.398-.102a1.05 1.05 0 0 1-.211-.583c-.003-.148.135-.389.24-.444.363-.19.74-.316 1.127-.473.082 1.071-.294 1.483-.758 1.602zm-.5-1.76c-.31.172-.528.479-.545 1.028-.018.576.156.995.476 1.251.603.482 1.56-.171 1.702-1.202.077-.555.06-1.142.087-1.749-.472.172-.896.323-1.319.482-.135.05-.27.116-.4.19zm10.426 2.277c-.561 1.644-1.721 2.365-2.78 1.824-.34-.173-.633-.577-.944-.883-.073-.073-.133-.179-.246-.333v4.853H15.94c-.004-.124-.01-.25-.011-.374 0-4.24.003-8.479-.006-12.718 0-.366.069-.462.293-.447.41.026.822.007 1.271.007v1.246l.094.085c.006-.053.002-.122.022-.158 1.152-2.064 3.103-1.834 3.962.56.742 2.068.713 4.26.002 6.338zm-2.34-8.928c-.476.046-.91.305-1.323.7-.137-.412-.348-.5-.61-.483-.396.026-.792.006-1.189.007-.477 0-.59.179-.59.942v6.862l.001 6.28c0 .488.146.756.433.764.545.014 1.09.013 1.635 0 .247-.007.397-.244.416-.63.013-.257.005-.516.005-.774v-2.7c.06.04.098.057.132.087 1.372 1.165 3.15.345 3.905-2.12.612-1.998.616-4.086.076-6.122-.503-1.896-1.628-2.935-2.89-2.813zm87.796 10.211a2.47 2.47 0 0 1-3.806-.403c-.473-.68-.758-1.522-.881-2.499-.166-1.316-.158-2.626.158-3.889.413-1.647 1.211-2.563 2.323-2.715a3.26 3.26 0 0 1 1.516.159c.967.342 1.474 1.45 1.757 2.915l-1.625.46c-.024-.104-.046-.185-.063-.268-.16-.784-.473-1.21-.953-1.26-.534-.056-1.015.18-1.244.975-.386 1.335-.358 2.73.01 4.058.228.824.718 1.1 1.277 1.016.493-.075.787-.534.934-1.25.037-.183.071-.367.115-.592l1.628.43c-.173 1.196-.497 2.194-1.146 2.863zm1.127-3.536c-.422-.116-.846-.222-1.27-.33-.58-.148-.663-.065-.82.82-.114.644-.307.918-.673.956-.397.04-.735-.26-.857-.839a7.717 7.717 0 0 1-.035-3.05c.116-.609.426-.892.864-.866.375.022.529.233.655.907.09.482.25.67.567.593a22.952 22.952 0 0 0 1.509-.43c.341-.108.473-.451.371-.972-.343-1.751-1.039-2.955-2.22-3.312a3.523 3.523 0 0 0-1.278-.135c-1.488.11-2.598 1.536-2.99 3.784-.156.895-.168 1.808-.13 2.729.122 3.034 1.473 5.03 3.41 5.031 1.773.001 2.903-1.34 3.3-3.915.084-.55-.047-.874-.403-.971zM103 48.344c-1.028.007-2.056-.004-3.084.006-.089.225-.017.53-.037.786.41.003.82.002 1.23 0 .018 1.297.002 2.594.008 3.89.284.002.568.003.852-.002.006-1.295-.01-2.592.008-3.887h1.223c-.002-.254.01-.508-.005-.761l-.194-.032zm3.591.004c-.123.058-.093.233-.136.35-.215.942-.461 1.876-.655 2.825-.288-1.042-.506-2.106-.765-3.156a9.456 9.456 0 0 0-1.28-.007c.004 1.555 0 3.11.002 4.666.261.002.523.002.786-.002.018-1.21-.038-2.422.031-3.63.23 1.219.526 2.424.795 3.634.269-.001.538-.004.809.004.306-1.186.54-2.397.834-3.587.05 1.191.007 2.387.022 3.581.257.002.516.002.774 0-.004-1.56.029-3.122-.01-4.68-.402.003-.804-.006-1.207.002zm.19-22.21c-.327 1.658-1.047 3.202-2.01 4.515-1.004 1.386-2.362 2.42-3.826 3.126-1.602.787-3.38.893-5.101 1.04-2.849.199-5.706.05-8.557.13.013 4.882.003 9.763.005 14.646-2.363 0-4.728.001-7.091-.001v-38.89c2.582-.005 5.164 0 7.748-.002 2.819 0 5.638-.027 8.455.112 1.515.126 3.072.173 4.506.791 1.65.67 3.078 1.92 4.14 3.46 1.08 1.527 1.693 3.41 1.923 5.32.23 1.91.186 3.87-.191 5.753zm1.562-8.44c-.446-1.566-1.159-3.042-2.114-4.3-1.025-1.327-2.246-2.498-3.683-3.24-1.543-.91-3.301-1.222-5.027-1.32a19.745 19.745 0 0 0-2.259-.11c-.743-.097-1.494-.031-2.24-.05-4.293.001-8.585-.003-12.878.001-.968.023-1.817.999-1.794 2.073v38.854c-.018 1.074.833 2.037 1.8 2.066 2.332.005 4.666-.002 7 .003 1.003.077 1.968-.858 1.99-1.98.008-4.229.006-8.459.001-12.688 1.398-.03 2.798 0 4.197-.015.48-.08.966-.05 1.45-.052 1.612-.078 3.233-.186 4.822-.53 2.332-.583 4.517-1.937 6.152-3.875a13.624 13.624 0 0 0 2.437-4.418c.554-1.736.79-3.585.772-5.42a18.084 18.084 0 0 0-.626-5zm5.24 33.334a9.895 9.895 0 0 1-1.849 5.05c-1.523 2.104-3.89 3.41-6.322 3.513-1.799.019-3.6.003-5.398.008H11.283a8.77 8.77 0 0 1-2.09-.194c-1.825-.396-3.514-1.49-4.745-3.031a9.934 9.934 0 0 1-1.96-4.45c-.236-1.293-.128-2.617-.152-3.926V11.115C2.32 9.498 2.677 7.873 3.39 6.46c1.36-2.793 4.078-4.701 6.938-4.871.103-.015.206-.024.31-.029h93.244c.83.006 1.666-.04 2.49.113 1.86.307 3.616 1.33 4.912 2.84 1.518 1.75 2.37 4.171 2.342 6.597v37.423c-.012.834.035 1.67-.045 2.5zM112.06 3.28a9.366 9.366 0 0 0-6.328-3.193c-19.82-.002-39.64 0-59.459 0-12.085.006-24.172-.015-36.258.01a9.51 9.51 0 0 0-5.788 2.825c-.268.3-.54.598-.81.898-1.433 1.812-2.306 4.164-2.412 6.573.002 13.19 0 26.38.001 39.57-.09 2.7.835 5.412 2.455 7.424.48.533.94 1.093 1.498 1.53 1.54 1.284 3.433 2.04 5.358 2.16h95.09c.607.029 1.204-.125 1.799-.239 1.827-.452 3.566-1.456 4.863-2.966 1.715-1.825 2.742-4.395 2.888-7.018.002-13.516 0-27.03 0-40.547-.156-2.622-1.169-5.21-2.897-7.027zM67.996 49.595c-.115.03-.164-.098-.217-.177-1.728-2.868-3.47-5.726-5.2-8.594-.895-1.469-1.79-2.94-2.761-4.35-.614-.912-1.325-1.771-2.234-2.324-.657-.42-1.415-.585-2.16-.674-1.172-.137-2.353-.115-3.53-.111-.004 5.41 0 10.82-.001 16.23-2.368-.002-4.735.006-7.103-.005.003-12.962 0-25.924.002-38.886 4.543-.006 9.085 0 13.627-.002 2.767.003 5.566-.004 8.28.663a7.933 7.933 0 0 1 4.082 2.437c1.14 1.272 1.95 2.892 2.376 4.62.403 1.684.46 3.461.24 5.184-.225 1.631-.774 3.221-1.678 4.54-.92 1.39-2.21 2.445-3.63 3.13-1.208.604-2.51.919-3.809 1.18 1.47.97 2.873 2.107 4.004 3.54 1.308 1.68 2.39 3.555 3.465 5.422 1.542 2.721 3.07 5.452 4.622 8.166-2.791.025-5.584.004-8.375.01zm9.508-1.88c-.78-1.389-1.573-2.768-2.352-4.158-1.23-2.162-2.416-4.357-3.746-6.447-.853-1.37-1.795-2.68-2.908-3.802 1.633-.693 3.11-1.84 4.252-3.302 1.29-1.632 2.11-3.684 2.452-5.811.21-1.202.141-2.425.15-3.64-.151-2.833-1.147-5.62-2.86-7.74-.469-.493-.884-1.055-1.422-1.46-.81-.707-1.745-1.214-2.706-1.616-1.394-.502-2.85-.772-4.309-.9-1.923-.22-3.86-.152-5.793-.162H44.828c-.768-.006-1.5.578-1.75 1.379-.13.362-.122.758-.116 1.14v38.411c-.005 1.062.82 2.017 1.777 2.063 2.39.009 4.779 0 7.168.004.99.002 1.86-.973 1.86-2.066.01-4.73-.006-9.46.008-14.19.856.052 1.73.072 2.557.357.829.35 1.434 1.117 1.959 1.878 1.77 2.59 3.331 5.344 4.99 8.02.892 1.474 1.767 2.96 2.676 4.42.245.376.43.814.766 1.107.334.303.763.472 1.195.474 2.762 0 5.526-.002 8.288.001a1.81 1.81 0 0 0 .876-.187c.711-.342 1.188-1.205 1.113-2.065-.024-.65-.402-1.176-.691-1.709zm20.27-23.736c-.212.634-.61 1.2-1.146 1.534-.742.512-1.646.538-2.49.646-.667.094-1.34.04-2.006.125-.996-.001-1.992.001-2.988-.001-.003-2.317-.002-4.633 0-6.95 1.078-.002 2.157-.004 3.236 0 .37.052.743.06 1.117.049.796.071 1.604.08 2.383.298.857.27 1.637.979 1.91 1.94a4.528 4.528 0 0 1-.016 2.36zm-1.3-6.252c-.908-.314-1.867-.323-2.808-.394-2.112-.058-4.227-.04-6.34-.03l-.03.037c-.009 3.509.001 7.018-.004 10.527.004.158-.024.33.052.474 2.717-.059 5.452.135 8.154-.276.846-.122 1.678-.434 2.376-.99 1.18-.898 1.896-2.452 1.927-4.03.04-1.049-.142-2.128-.634-3.036-.599-1.097-1.589-1.914-2.694-2.282zm13.92 32.852c-.09 1.84-1.049 3.598-2.469 4.554-.658.48-1.425.746-2.199.874-.746.1-1.498.059-2.249.066H11.366c-1.172.008-2.39-.228-3.374-.973-1.058-.714-1.827-1.884-2.21-3.18-.153-.548-.206-1.122-.258-1.69V11.019c.05-.726.122-1.464.377-2.143.365-.986.935-1.903 1.724-2.529C8.65 5.44 9.985 5.06 11.281 5.09h93.08a7.428 7.428 0 0 1 2.003.198c1.494.413 2.83 1.553 3.498 3.1.393.808.522 1.727.579 2.63v37.519c-.02.68.046 1.367-.046 2.042zm-3.139-46.562a6.51 6.51 0 0 0-2.571-.405H11.04c-.238.002-.476-.014-.71.027-1.696.15-3.326 1.047-4.45 2.464-1.058 1.283-1.654 3.005-1.692 4.737v39.302c-.011 2.05.793 4.086 2.174 5.454 1.252 1.293 2.97 1.987 4.676 1.954h92.844c.804-.008 1.615.05 2.41-.13 1.458-.286 2.813-1.14 3.792-2.37 1.113-1.347 1.71-3.18 1.69-5V11.556c.024-.902-.043-1.816-.287-2.683-.595-2.246-2.233-4.107-4.232-4.855zM31.042 25.085h-5.685c-.83-.08-1.666-.055-2.494-.183-.477-.063-.983-.101-1.403-.386-.488-.299-.826-.854-.932-1.457-.148-.787-.132-1.64.157-2.387.365-.793 1.183-1.17 1.947-1.247.424-.074.855-.013 1.28-.09 2.376-.008 4.753-.002 7.13-.003v5.753zm-8.015-7.76c-.851.02-1.711.21-2.461.672-.968.568-1.664 1.637-1.875 2.824-.209 1.164-.157 2.412.26 3.515.459 1.219 1.475 2.133 2.629 2.436.795.2 1.612.235 2.423.304 2.966.131 5.933.08 8.9.085.009-3.297.004-6.593.003-9.89-3.293.012-6.587-.041-9.88.054zm9.881 32.27c-.003-5.414.002-10.827-.003-16.24-1.557.013-3.139-.084-4.667.315-1.274.352-2.3 1.364-3.085 2.491-1.902 2.723-3.562 5.638-5.293 8.495-.977 1.647-1.973 3.28-2.944 4.93-2.834.017-5.667.01-8.5.004 1.708-2.966 3.37-5.965 5.065-8.939.873-1.508 1.77-3.007 2.8-4.392 1.117-1.484 2.51-2.688 4.002-3.678a.667.667 0 0 0 .176-.173c-2.011-.313-4.026-1.01-5.672-2.365-1.57-1.295-2.697-3.209-3.178-5.306a14.261 14.261 0 0 1-.235-4.886c.281-2.367 1.27-4.648 2.843-6.292a7.804 7.804 0 0 1 2.737-1.845c1.407-.549 2.902-.737 4.38-.883 1.18-.09 2.361-.143 3.545-.143l15.14.001c.002 12.968.001 25.937 0 38.906h-7.11zm7.49-40.926c-.212-.047-.429-.043-.643-.043-5.176.004-10.351-.004-15.526.004-.64.097-1.289.007-1.931.07-2.167.14-4.39.347-6.42 1.265-2.173.982-3.956 2.882-5.05 5.166-1.152 2.32-1.574 5.035-1.38 7.66.145 2.616 1.017 5.215 2.588 7.195 1.12 1.49 2.62 2.59 4.235 3.317-1.64 1.644-2.856 3.712-4.07 5.74-1.673 2.909-3.306 5.848-4.963 8.77-.316.542-.657 1.127-.64 1.8.002 1.062.826 2.016 1.785 2.057 2.816.009 5.632 0 8.448.004.588.019 1.177-.285 1.537-.802.284-.416.51-.876.777-1.305 1.552-2.557 3.076-5.134 4.617-7.697 1.005-1.614 1.986-3.251 3.104-4.775a5.081 5.081 0 0 1 1.15-1.119c.505-.342 1.107-.391 1.678-.488.45-.016.897-.095 1.348-.066v14.181c-.009.848.516 1.66 1.236 1.94.383.17.802.127 1.205.13 2.2 0 4.398.003 6.597-.001.97-.025 1.824-.99 1.805-2.069 0-12.978.002-25.957 0-38.936.005-.942-.658-1.814-1.488-1.998zm23.885 14.294c-.087.67-.464 1.297-1.014 1.603-.55.31-1.183.298-1.78.394-.941.06-1.88.142-2.825.126l-4.893-.001c-.002-1.918-.001-3.835-.001-5.753 2.062-.003 4.123.001 6.185 0 .832.1 1.675-.002 2.502.153.632.152 1.313.467 1.618 1.144.32.716.342 1.56.208 2.334zm.875 2.553c.654-.776.994-1.832 1.041-2.882.07-1.154-.071-2.38-.687-3.347-.704-1.138-1.925-1.753-3.137-1.898-1.26-.095-2.524-.083-3.786-.094-2.233.007-4.466-.014-6.699.01.008 3.286-.001 6.573.004 9.858 2.07.004 4.141 0 6.211.003 1.665-.073 3.346-.02 4.99-.361a3.8 3.8 0 0 0 2.063-1.289z"/></g></svg>