<svg viewBox="0 0 1381 125" xmlns="http://www.w3.org/2000/svg" fill-rule="evenodd" clip-rule="evenodd" stroke-linejoin="round" stroke-miterlimit="2"><path d="M457.017 14.876c-4.596-4.008-10.313-7.183-16.996-9.429-6.712-2.262-14.467-3.404-23.054-3.404H282.784l19.462 30.73h117.908c5.546 0 9.934 1.35 13.034 4.016 3.187 2.733 4.733 6.312 4.733 10.958 0 4.63-1.546 8.242-4.72 11.042-3.109 2.725-7.5 4.108-13.047 4.108h-75.75l-.02 36.909 15.92 25.091h26.28l-.275-31.82H416.8c8.584 0 16.346-1.117 23.063-3.313 6.691-2.192 12.441-5.27 17.083-9.163a37.89 37.89 0 0 0 10.592-14.116c2.404-5.521 3.625-11.763 3.625-18.554 0-6.784-1.221-13.063-3.63-18.663a39.704 39.704 0 0 0-10.516-14.392" fill="#231f20" fill-rule="nonzero"/><path d="M26.918 62.936c-.004 0-.004 0-.008.004l-.142 46.15 35.758.15-35.479-46.23a.201.201 0 0 0-.13-.074" fill="#ed1c24" fill-rule="nonzero"/><path d="M151.204 91.858a90.464 90.464 0 0 0-4.93-4.862l-2.453-2.225 3.2-.854c3.77-1 7.229-2.542 10.283-4.571a34.88 34.88 0 0 0 9.013-8.638c2.445-3.375 4.354-7.237 5.67-11.479 1.309-4.246 1.971-8.792 1.971-13.533 0-8.725-1.787-15.963-5.316-21.521-3.559-5.575-8.125-10.054-13.567-13.313-5.492-3.291-11.667-5.6-18.354-6.879-6.746-1.287-13.35-1.941-19.638-1.941H0L22.729 32.77h97.204c6.196 0 11.1 1.275 14.575 3.791 3.567 2.559 5.38 6.446 5.38 11.555 0 4.616-1.988 8.291-5.905 10.92-3.804 2.563-8.533 3.863-14.05 3.863h-78.63l22.493 29.054h46.987L135.78 124.9h43.904c-5.312-6.217-26.458-30.904-28.479-33.037v-.005z" fill="#231f20" fill-rule="nonzero"/><path d="M268.463 3.83C265.109 1.291 260.846 0 255.796 0c-5.262 0-9.662 1.38-13.075 4.096-3.479 2.78-6.416 5.975-8.725 9.496l-57.325 89.696L195.81 124.9h6.187l53.138-83.362 16.429 26.62c9.32 15.096 13.154 21.309 14.963 23.967l1.904 2.808-3.388.009c-6.15-.009-29.992-.225-42.796-.363l-3.283-.037L219.08 124.9h127.483l-69.33-111.33c-2.403-3.87-5.35-7.15-8.77-9.74" fill="#231f20" fill-rule="nonzero"/><path d="M697.84 62.872l-.163 46.271 35.841.147-35.57-46.346c-.042-.055-.092-.076-.109-.072" fill="#ed1c24" fill-rule="nonzero"/><path d="M813.745 86.996l-2.463-2.225 3.209-.854c3.779-1 7.237-2.542 10.287-4.571a34.944 34.944 0 0 0 9.013-8.638c2.45-3.379 4.358-7.237 5.67-11.479 1.309-4.246 1.976-8.792 1.976-13.533 0-8.725-1.792-15.963-5.325-21.521-3.538-5.558-8.104-10.033-13.563-13.313-5.496-3.291-11.67-5.604-18.354-6.879-6.742-1.287-13.35-1.941-19.638-1.941H669.595l23.704 30.729h94.108c6.196 0 11.1 1.275 14.58 3.791 3.562 2.563 5.375 6.45 5.375 11.555 0 4.616-1.992 8.291-5.905 10.92-3.804 2.563-8.533 3.863-14.05 3.863h-74.795l22.487 29.054h43.158l25 32.946h43.988c-5.325-6.217-26.496-30.854-28.562-33.037a91.549 91.549 0 0 0-4.938-4.867" fill="#231f20" fill-rule="nonzero"/><path d="M935.937 3.83C932.579 1.291 928.32 0 923.267 0c-5.263 0-9.655 1.38-13.072 4.096-3.5 2.796-6.437 5.992-8.72 9.492l-57.305 89.654 19.167 21.658h6.137l53.138-83.362 33.025 53.404-3.242-.009c-7.02-.012-34.241-.262-45.962-.391l-19.88 30.358h127.488L944.708 13.57c-2.396-3.866-5.346-7.145-8.771-9.74" fill="#231f20" fill-rule="nonzero"/><path fill="#231f20" d="M482.295 48.575h33.07V124.9h-33.07z"/><path d="M481.897 32.552l33.467.062-.001-30.67-48.209-.049 14.743 30.657zM649.243 18.86c-5.875-5.3-12.975-9.471-21.113-12.396-8.15-2.938-17.2-4.421-26.891-4.421l-74.321-.088v30.68l74.32.137c4.763 0 9.26.796 13.367 2.37 4.113 1.597 7.755 3.78 10.825 6.493 3.088 2.72 5.53 6.041 7.255 9.87 1.716 3.817 2.587 7.996 2.587 12.434 0 4.562-.87 8.779-2.592 12.529-1.716 3.754-4.095 7.004-7.075 9.667-2.983 2.679-6.6 4.77-10.762 6.216-4.15 1.454-8.733 2.188-13.604 2.188H560.15V48.947h-33.233v75.95h74.32c9.576 0 18.563-1.612 26.7-4.787 8.134-3.167 15.242-7.588 21.122-13.142 5.866-5.53 10.541-12.196 13.904-19.825 3.346-7.617 5.046-15.988 5.046-24.88 0-8.766-1.667-16.95-4.959-24.32-3.295-7.37-7.941-13.792-13.808-19.083M1066.72 94.54c-4.767 0-9.263-.734-13.363-2.188-4.095-1.45-7.716-3.537-10.75-6.212-3.05-2.671-5.433-5.93-7.087-9.68-1.663-3.745-2.5-7.958-2.5-12.52 0-4.571.867-8.821 2.583-12.625 1.721-3.813 4.104-7.13 7.071-9.859 2.98-2.733 6.575-4.883 10.675-6.4 4.104-1.516 8.6-2.283 13.371-2.283h65.092V2.043h-65.092c-9.588 0-18.58 1.45-26.73 4.326-8.137 2.866-15.237 7.008-21.108 12.308-5.875 5.3-10.55 11.717-13.891 19.08-3.346 7.358-5.042 15.603-5.042 24.508 0 8.904 1.696 17.266 5.046 24.879 3.35 7.625 8.025 14.291 13.896 19.825 5.879 5.554 12.983 9.975 21.125 13.142 8.137 3.175 17.125 4.787 26.704 4.787h67.117l-23.021-30.358h-44.096zM1176.07 94.54V79.052l64.213.004-17.946-26.637h-46.267V32.773h33.033l-20.8-30.73h-45.479l.004 122.855h128.33l-20.45-30.358h-74.638zM1351.37 91.863c-1.754-1.846-3.413-3.484-4.946-4.867l-2.45-2.225 3.204-.854c3.775-1 7.238-2.542 10.284-4.571a35.11 35.11 0 0 0 9.016-8.642c2.442-3.37 4.35-7.233 5.667-11.479 1.308-4.242 1.975-8.787 1.975-13.53 0-8.724-1.792-15.962-5.32-21.52-3.555-5.567-8.117-10.05-13.572-13.312-5.487-3.288-11.662-5.6-18.35-6.88-6.746-1.287-13.354-1.941-19.637-1.941h-114.992l20.7 30.729h97.142c6.191 0 11.096 1.275 14.575 3.796 3.566 2.558 5.375 6.441 5.375 11.55 0 4.616-1.984 8.291-5.9 10.92-3.804 2.563-8.534 3.863-14.05 3.863h-76.85l19.566 29.054h48.134l24.996 32.946h44.258l-19.537-22.904c-3.93-4.367-6.967-7.688-9.288-10.133" fill="#231f20" fill-rule="nonzero"/></svg>