<svg width="320" height="69" viewBox="0 0 320 69" xmlns="http://www.w3.org/2000/svg" xmlns:xlink="http://www.w3.org/1999/xlink"><title>product-logos</title><defs><path id="a" d="M274.952 68.228H0V.192h274.952v68.036z"/></defs><g fill="none" fill-rule="evenodd"><mask id="b" fill="#fff"><use xlink:href="#a"/></mask><path d="M26.936 37.133c0-.367-.188-.614-.57-.746-.34.132-.506.38-.506.746 0 .263.167.444.506.543.382-.167.57-.347.57-.543zm-7.732 1.78l-.887.296-.761-.296.065-.247.696-.097.696.097.191.247zm-1.837-5.645c0 .232-.107.43-.317.594 0-.199.105-.394.317-.594zm.824-1.189c0-.33-.213-.578-.635-.742-.339.164-.506.412-.506.742 0 .267.167.447.506.546.422-.1.635-.28.635-.546zm0 1.883c0-.363-.213-.61-.635-.745l-.189.05c0-.263-.168-.476-.507-.642-.423.166-.635.38-.635.643 0 .3.212.53.635.694l.19-.1c0 .331.167.543.506.645.422-.102.635-.28.635-.545zm-2.155-1.883l-1.583-.742v.742l.696.546.887-.546zm-1.078-6.881c0 .263-.17.446-.505.543-.426-.097-.635-.28-.635-.543 0-.297.21-.495.635-.595.335.1.505.298.505.595zm13.183 4.26l-.188.79c-.761.825-1.291 1.815-1.587 2.969l.256.497.506.248c-.297.035-.55.18-.762.443l-.127.645.127.743 1.587-.743v.743c0 .99-.277 1.619-.825 1.883H12.803v-6.884c.337-.362 2.725-.544 7.162-.544.928 0 2.292-.132 4.088-.398 1.797-.264 3.158-.393 4.088-.393zm4.69-24.909v3.514c0 1.95-.318 3.07-.95 3.367H13.628l-.824-.594c-.085-1.089-.126-1.748-.126-1.979 0-2.972.697-4.787 2.09-5.448 1.014-.463 2.894-.694 5.642-.694h1.205l-1.649.645h3.233c-.422-.167-.634-.379-.634-.645 0-.264.212-.46.634-.592.38.132.57.328.57.592 0 .266-.19.478-.57.645h1.523c-.34-.167-.509-.379-.509-.645 0-.264.17-.46.509-.592.418.132.631.328.631.592 0 .266-.213.478-.631.645h7.16c.294.1.612.495.95 1.19zM13.374 22.723c0 .231-.191.428-.57.592-.339-.164-.508-.36-.508-.592 0-.298.17-.53.507-.694.38.165.571.396.571.694zm-1.584 6.188c0 .264-.191.444-.57.546-.425-.102-.634-.282-.634-.546 0-.266.21-.462.634-.594.379.132.57.328.57.594zm-2.6 4.058c0-.327-.127-.623-.38-.89l-.317.148-.062.742.062.745.317.248c.253-.363.38-.694.38-.993zm-.38 17.086v-.545l-.823 1.238c.336-.163.611-.394.823-.693zm-.191 3.17c0-.263-.212-.462-.632-.596-.382.134-.573.333-.573.596 0 .264.191.463.573.593.42-.13.632-.33.632-.593zM7.797 41.39c0-.298-.192-.513-.571-.642-.382.13-.57.344-.57.642 0 .264.188.444.57.547.38-.103.57-.283.57-.547zm-3.741-8.764v-.546h-.823l.823.546zM3.04 5.291c0-.296-.212-.544-.632-.742-.338.198-.507.446-.507.742 0 .263.169.462.507.594.42-.132.632-.33.632-.594zm-.887 43.574c0-.263-.169-.475-.505-.642-.382.167-.57.38-.57.642 0 .268.188.48.57.645.336-.166.505-.377.505-.645zm0-5.595c0-.264-.169-.479-.505-.643-.382.1-.57.315-.57.643 0 .299.188.494.57.596.336-.102.505-.297.505-.596zm0-17.43c0-.263-.169-.476-.505-.642-.382.166-.57.379-.57.642 0 .266.188.481.57.643.336-.162.505-.377.505-.643zm9.51-7.528c0 4.723-.7 8.881-2.093 12.48l1.649-.544v32.336c-.425.528-.7 1.154-.826 1.88a3.5 3.5 0 0 0 .826.546v1.087c0 1.454-.912 2.18-2.727 2.18-.506 0-1.248-.123-2.219-.373-.97-.247-1.71-.37-2.218-.37h-2.09c-.382 0-.783.085-1.205.246l.127.398H0l.76-.398L0 61.988V4.005c2.789-.266 4.668-.693 5.642-1.29v.494c.675 0 1.668-.123 2.977-.371 1.31-.248 2.283-.371 2.915-.371 0 1.95.022 4.591.065 7.923.04 3.83.065 6.47.065 7.922zM66.362 51.935l-.7-.543h.7v.543zm-1.84-8.069c0 .264-.17.48-.506.643-.338-.164-.508-.38-.508-.643 0-.297.17-.529.508-.694.337.165.506.397.506.694zM62.43 49.51v-.695h-.823l.823.695zm-.318-3.814c0-.265-.166-.476-.505-.641-.339.165-.508.376-.508.64 0 .267.17.482.508.646.339-.164.505-.38.505-.645zm-1.393-7.477c0-.263-.252-.479-.76-.642-.34.163-.506.379-.506.642 0 .299.167.53.505.694.509-.164.761-.395.761-.694zm-.76 10.004l-.444-.248-.317.248.317.248.443-.248zm-1.776-34.96c0 .265-.212.478-.632.644-.338-.166-.508-.379-.508-.645 0-.296.17-.511.508-.643.42.132.632.347.632.643zm-3.929-11.19c0 .265-.212.446-.634.545-.423-.1-.632-.28-.632-.546 0-.33.21-.562.632-.69.422.128.634.36.634.69zM52.606 37.03c0-.328-.17-.576-.505-.742-.466.166-.7.414-.7.742 0 .231.234.415.7.547.335-.132.505-.316.505-.547zm-1.394-11.932v-.595h-.825l.825.595zm-.19 4.36c0-.265-.213-.463-.635-.598-.339.135-.506.333-.506.597 0 .264.167.479.506.64.422-.161.634-.376.634-.64zM49.69 43.171a4.048 4.048 0 0 1-.887.694v-.694c.213-.198.508-.38.887-.545v.545zm-1.9-12.38c0 .265-.17.446-.507.545-.425-.099-.634-.28-.634-.545 0-.33.21-.56.634-.695.337.135.506.366.506.695zm-1.65-27.48c0-.299-.169-.527-.505-.694-.382.167-.57.395-.57.694 0 .263.188.443.57.543.336-.1.506-.28.506-.543zm-3.167 28.025c0-.264-.17-.478-.508-.643-.38.165-.57.379-.57.643 0 .266.19.494.57.694.338-.2.508-.428.508-.694zm-7.924 36.298c0-.366-.233-.613-.695-.743-.34.13-.509.377-.509.743.043.032.083.164.126.395l1.078-.395zm35.368-3.171c-1.565 0-2.345.81-2.345 2.428H55.965v-4.904c-.844-.232-1.458-1.849-1.837-4.852-.38-3.268-.823-5.182-1.331-5.744-.804.43-1.332 1.04-1.585 1.833h-9.635c-.339.13-.823.528-1.458 1.189v.591l.191.348h2.916c-2.114 0-3.634 1.718-4.564 5.15-1.057 3.961-2.26 6.338-3.613 7.132-.085.263-.316.444-.695.543l-.383-.148c-.675.164-1.901.248-3.675.248-.17 0-.413-.02-.73-.052a7.663 7.663 0 0 0-.664-.048l-.318-.398-.634-.145c-.675.164-1.775.377-3.294.643 0-2.246.866-7.264 2.597-15.053.127-.263.358-.494.697-.694L38.41 3.311l.697-.102c1.013 0 1.774.167 2.283.498.97.627 1.858 3.383 2.662 8.27.759 4.523 1.033 7.643.823 9.359l.57.199c.043.129.105.263.191.392 0 1.523-.508 3.758-1.522 6.713-1.014 2.952-1.52 5.19-1.52 6.707.633-.065 1.159-.164 1.584-.297.337.133.824.364 1.458.695l-3.17 1.285c-.593 2.71-.888 4.344-.888 4.906 0 .822.804 1.468 2.41 1.93-.423.197-.676.377-.761.543l.252.646h6.212c.592 0 1.1.823 1.522 2.474.463 1.947.762 2.988.889 3.12.335-.032.591-.248.76-.645v-.891c0-3.563-.76-7.791-2.283-12.674-1.775-5.712-2.662-9.922-2.662-12.63 0-.427.295-1.07.887-1.93.591-.858.887-1.452.887-1.78 0-.563-.803-.762-2.407-.598-2.2-5.41-3.297-10.197-3.297-14.358 0-1.75.509-2.624 1.522-2.624l1.015.099c.335.167.591.395.76.694h6.337c.086.427.53 1.22 1.331 2.377.675.922 1.014 2.194 1.014 3.81a49.98 49.98 0 0 1 2.474.695l.253.247.126.298h-2.853a176.59 176.59 0 0 0 2.474 13.17l4.817 1.19c-2.284 0-3.424 1.072-3.424 3.218 0 .2.043.578.126 1.14.635.393 1.458 1.022 2.472 1.88-.632.993-.95 1.616-.95 1.88 0 .135.337.645 1.015 1.538l-.065.99c.422.131.635.344.635.642 0 .267-.213.479-.635.643l-.318-.048c-.209.463-.314 1.108-.314 1.931h.632c.508 2.476.76 4.308.76 5.496 0 1.784.697 4.406 2.093 7.875.337.99.95 2.41 1.837 4.257a.76.76 0 0 0 .191.197v-.097l-.062.048c-.17.2-.468.677-.887 1.436 0 3.467 1.35 5.58 4.055 6.339zM89.178 40.101c0 .296-.17.511-.508.646-.34-.135-.506-.35-.506-.646 0-.263.167-.478.506-.645.339.167.508.382.508.645zm0-6.239c0 .264-.17.447-.508.543-.34-.096-.506-.28-.506-.543 0-.295.167-.51.506-.645.339.135.508.35.508.645zm0-8.764c0 .266-.17.463-.508.594-.34-.131-.506-.328-.506-.594 0-.264.167-.46.506-.595.339.135.508.331.508.595zm-.697-12.479c0 .267-.17.447-.508.546-.466-.1-.696-.28-.696-.546 0-.263.23-.46.696-.594.339.134.508.33.508.594zm-11.22 32.485c0-.264-.19-.463-.57-.595-.339.132-.505.331-.505.595 0 .295.166.495.505.592.38-.097.57-.297.57-.592zm-1.457 22.531c0-.366-.253-.613-.761-.743-.339.13-.506.377-.506.743 0 .263.167.444.506.543.508-.1.76-.28.76-.543zm-.95-64.323c0-.299-.19-.527-.572-.694-.336.167-.506.395-.506.694 0 .263.17.443.506.543.382-.1.572-.28.572-.543zm12.614 46.743h-2.854v18.123H78.34c-.382-.431-.782-.645-1.205-.645-.169 0-.57.124-1.205.371-.632.25-1.1.374-1.393.374-.634 0-1.183-.132-1.649-.396a10.088 10.088 0 0 1-.19-1.883V13.165l.887-.546 2.916-.099h2.156c2.83 0 4.817.215 5.957.645v20.052l.508.199.38.446v.348c0 .394-.148.997-.445 1.806-.295.81-.443 1.412-.443 1.807 0 .627.296.992.888 1.09l-.888.543v9.36c1.901.265 2.854.676 2.854 1.239zM73.397 3.312c0-.299-.235-.527-.7-.694-.379.167-.57.395-.57.694 0 .263.191.443.57.543.465-.1.7-.28.7-.543zm-1.649 0l-.317-.597-.823.199c-.043.1-.086.23-.129.398 0 .263.255.443.76.543.34-.1.51-.28.51-.543zm-4.058 0c0-.299-.17-.527-.506-.694-.422.167-.634.395-.634.694 0 .263.212.443.634.543.337-.1.506-.28.506-.543zm31.438 0c0 4.125-.548 6.782-1.648 7.971H60.72V3.508c.634 0 1.55-.164 2.756-.495 1.204-.33 2.125-.494 2.757-.494.381 0 .909.131 1.586.395.675.263 1.12.398 1.329.398.718 0 1.417-.231 2.092-.694l.19.097c.593-.13 1.542-.196 2.852-.196l1.078.196.635.597h6.21c.422-1.057.992-1.587 1.712-1.587v1.587h5.578c.126-.527 1.054-.793 2.79-.793.421 0 1.013.131 1.774.395.761.263 1.35.398 1.775.398 1.606-.563 2.68-.826 3.233-.793h.061v.793z" fill="#D7332F" mask="url(#b)"/><path d="M143.179 48.865c0 .268-.169.48-.505.645-.423-.166-.635-.377-.635-.645 0-.263.212-.475.635-.642.336.167.505.38.505.642zm0-34.314c0 .298-.169.496-.505.593-.423-.097-.635-.295-.635-.593 0-.331.212-.547.635-.644.336.097.505.313.505.644zm-3.103 36.197c0 .264-.19.48-.573.644-.465-.165-.696-.38-.696-.644 0-.298.23-.53.696-.693.382.164.573.395.573.693zm-1.143-39.615l-.318.249-.314-.25.314-.296.318.297zm-1.014 45.854l-.444-.346-.38.346.38.248.444-.248zm-.188-4.358c0-.264-.212-.495-.635-.694-.422.199-.635.43-.635.694 0 .266.213.462.635.596.423-.134.635-.33.635-.596zm-1.713-28.72c0-.264-.17-.46-.506-.594-.382.135-.57.33-.57.594 0 .267.188.463.57.594.337-.131.506-.327.506-.594zm-.506 35.505l-.382-.248-.443.248.443.346.382-.346zm-.382-2.08l-.443-.347-.444.347.444.248.443-.248zm.191 5.25c0-.298-.212-.494-.634-.596-.423.102-.633.298-.633.596 0 .264.21.444.633.543.422-.1.634-.28.634-.543zm0-15.598c0-.264-.212-.478-.634-.645-.423.167-.633.381-.633.645 0 .296.21.495.633.592.422-.097.634-.296.634-.592zm0-1.882c0-.264-.212-.463-.634-.595-.423.132-.633.331-.633.595 0 .295.21.495.633.592.422-.097.634-.297.634-.592zm.888 6.83h-.697l-.952.103c-.339.164-.57.36-.696.592h.823c.126 0 .634-.232 1.522-.694zm-2.345-28.025l-.445-.347-.252.347.252.2.445-.2zm-.953 32.436c0-.264-.21-.48-.632-.645-.424.166-.634.381-.634.645 0 .263.21.478.634.642.422-.164.632-.38.632-.642zm-1.645 3.168c0-.264-.17-.495-.509-.694-.422.2-.634.43-.634.694 0 .264.212.447.634.543.34-.096.509-.28.509-.543zm0-58.678c0 .266-.17.494-.509.691-.422-.197-.634-.425-.634-.691 0-.264.212-.479.634-.643.34.164.509.379.509.643zm-.509 56.152l-.443-.346-.506.346.38.248.57-.248zM127.4.735l-.38.347-.317-.347.317-.199.38.2zm-.888 58.778c0-.264-.19-.495-.57-.694-.466.2-.697.43-.697.694 0 .264.231.447.697.543.38-.096.57-.28.57-.543zm-.76 4.951c0-.263-.233-.46-.698-.594-.339.134-.508.33-.508.594 0 .266.17.447.508.546.465-.1.697-.28.697-.546zm0-1.88c0-.298-.233-.494-.698-.596-.339.102-.508.298-.508.596 0 .264.17.444.508.543.465-.1.697-.28.697-.543zm-2.409 0c0-.298-.233-.494-.698-.596-.339.102-.506.298-.506.596 0 .264.167.444.506.543.465-.1.698-.28.698-.543zm-.886 3.712c0-.264-.17-.447-.509-.544-.465.097-.696.28-.696.544 0 .263.23.461.696.596.34-.135.509-.333.509-.596zm-.761-4.951c0-.264-.213-.46-.635-.594-.38.134-.57.33-.57.594 0 .265.19.478.57.643.422-.165.635-.378.635-.643zm0-24.958c0-.263-.213-.475-.635-.642-.38.167-.57.379-.57.642 0 .267.19.479.57.643.422-.164.635-.376.635-.643zm17.808-21.59c0 .826-.17 2.246-.505 4.258-.34 1.817-.466 3.238-.383 4.26-1.393.1-2.197.726-2.406 1.883h-5.452v-1.636H127.4c-.253-6.008-2.894-10.695-7.923-14.062V3.36c0-.559.74-.858 2.219-.893l-1.079.052h4.184c.76 0 1.394-.149 1.902-.447v.546c2.194 0 4.878 1.576 8.05 4.728 3.167 3.151 4.75 5.637 4.75 7.451zm.761 49.667c-1.31.627-2.09 1.436-2.345 2.428h-4.752v-2.428h-1.522c.04-.89-.718-1.337-2.281-1.337-1.312 0-2.2.447-2.662 1.337l.697.546c-.593.759-1.375 1.385-2.346 1.882h-.253c.294 0-.424-.135-2.156-.398v1.784c-2.114-.266-3.168-.727-3.168-1.386 0-2.08.78-3.119 2.344-3.119.254 0 .528.032.824.097-2.114-.726-3.168-1.485-3.168-2.278 0-.692.95-1.684 2.85-2.972 2.114-1.484 3.319-2.458 3.615-2.92.97-1.652 1.458-4.588 1.458-8.816 0-1.912-1.036-3.333-3.107-4.257-.042.232-.252.41-.635.545-.675.065-1.183.098-1.519.098a22.523 22.523 0 0 1-1.078-.643c-.675.1-1.205.282-1.584.545.169-.263.253-.526.253-.792 0-1.418-1.076-2.211-3.233-2.378l-.188.1-.317-.1v-.049l.505.05c.465-.264 1.205-.627 2.22-1.09.38-.925.633-2.21.76-3.863l3.168.695v.395c.382.036.674.115.887.247l.317-.196.444-.694h11.917l.887-.99-.887-.645h2.406v2.525h1.144c-.256.662-.57 1.684-.952 3.07h.76a66.526 66.526 0 0 1-1.648 7.427 2.92 2.92 0 0 0-.127.398c0 .858.138 2.17.412 3.938.275 1.763.411 3.091.411 3.985 0 1.85-.23 3.25-.696 4.209h.696v.941h-3.928c1.1 1.75 2.345 2.622 3.74 2.622l1.837 1.487zm-24.782-28.72l-.444.296-.317-.295.317-.248.444.248zm-2.598-19.362c0-.296-.17-.496-.508-.592-.422.096-.632.296-.632.592 0 .298.21.495.632.597.339-.102.508-.299.508-.597zm-2.598.398l-.317-.398-.382.398.382.199.317-.2zm.188-6.535c0-.334-.169-.58-.505-.745-.466.164-.7.411-.7.745 0 .263.234.462.7.591.336-.163.505-.36.505-.591zm-.505 26.785c-.425-.495-.847-.742-1.27-.742-.04 0-.169.032-.379.099l.761 1.19.888-.547zm-1.143 2.528c0-.331-.167-.545-.506-.645-.339.1-.508.314-.508.645 0 .263.17.444.508.543.34-.099.506-.28.506-.543zm-2.407 1.831c0-.298-.17-.513-.508-.642-.339.13-.506.344-.506.642 0 .264.167.444.506.547.339-.103.508-.283.508-.547zm-.696-7.427c0-.363-.17-.61-.509-.745-.505.135-.76.382-.76.745 0 .266.255.443.76.545.34-.102.509-.28.509-.545zm-1.014-2.23l-.444-.395-.318.396.318.298.444-.298zm-1.396 4.061c0-.296-.17-.543-.506-.743-.508.2-.76.447-.76.743 0 .264.252.462.76.594.337-.132.506-.33.506-.594zm0-10.595c0-.33-.17-.56-.506-.695-.508.135-.76.366-.76.695 0 .263.252.446.76.543.337-.097.506-.28.506-.543zm14.64-19.412c0 2.313-.126 3.781-.379 4.408-.17.395-1.183 1.799-3.041 4.208-.13.594-.425 1.404-.888 2.426l-.57.15c-.551 3.6-.826 5.643-.826 6.139.044.102.106.333.192.692l1.266.495.317.547c0 .529-.465 1.303-1.393 2.326-1.143 1.22-1.796 1.982-1.965 2.28l1.71.64v12.53c0 .331.116.793.35 1.385.23.596.35 1.06.35 1.387 0 .527-.14 1.307-.415 2.329-.274 1.023-.412 1.8-.412 2.327 0 2.079.826 3.763 2.472 5.05v.595c-.21.263-.506.479-.887.645.422.527 1.775 1.995 4.058 4.406v6.141l-.761.743c-2.494-.135-3.846-.199-4.056-.199-1.057 0-1.966.147-2.727.446l.318.296h-.697l.38-.296a19.504 19.504 0 0 1-4.438-2.872c-1.227-1.057-2.345-2.807-3.359-5.25-.931-2.31-1.393-4.26-1.393-5.844V34.507h.57l.253-.693c-.086-.2-.361-.398-.823-.597V14.402c0-2.64 1.479-5.273 4.437-7.898 2.956-2.622 6.105-3.934 9.442-3.934.635 0 1.277.04 1.934.123.653.08.981 1.113.981 3.093zM187.357 25.198c0 .263-.17.446-.506.543-.507-.097-.763-.28-.763-.543 0-.33.256-.56.763-.695.337.135.506.366.506.695zm-3.232 6.139c0 .266-.21.494-.635.694-.339-.2-.506-.428-.506-.694 0-.197.167-.38.506-.545.425.166.635.348.635.545zm-.823 26.294c0 .263-.172.446-.509.543-.339-.097-.508-.28-.508-.543 0-.265.17-.479.508-.644.337.165.509.38.509.644zm-.7-7.576c0-.264-.23-.443-.696-.545-.38.102-.57.28-.57.545 0 .299.19.494.57.594.465-.1.696-.295.696-.594zm-1.519 5.645l-.696-.595h.696v.595zm-1.775-17.481c0-.263-.19-.479-.57-.642-.338.163-.508.379-.508.642 0 .299.17.53.509.694.379-.164.569-.395.569-.694zm-1.519 19.412c0 .263-.215.446-.635.543-.425-.097-.634-.28-.634-.543 0-.265.209-.479.634-.644.42.165.635.38.635.644zm-.635-18.175l-.826-.543-.76.543.76.645.826-.645zm-1.017 21.295c0 .263-.188.446-.57.543-.379-.097-.57-.28-.57-.543 0-.297.191-.528.57-.695.382.167.57.398.57.695zm-.758-55.508c0-.366-.212-.614-.635-.742-.382.128-.57.376-.57.742 0 .263.188.446.57.543.423-.097.635-.28.635-.543zm-2.663 51.102l-.317-.645-.317.15-.126.495.126.444.317.198.317-.642zM183.62 35.05c0 .431-.075 1.082-.223 1.959-.148.871-.224 1.525-.224 1.952 0 .761.055 1.894.162 3.394.103 1.5.156 2.617.156 3.34 0 3.701-.801 6.407-2.407 8.123-.086-.429-.38-.644-.888-.644H178.8c-.505 0-1.248.107-2.215.32-.974.216-1.713.324-2.222.324-1.689 0-2.745-.429-3.168-1.287-.252-.461-.379-1.468-.379-3.021 0-5.116.127-12.808.38-23.075.253-10.269.382-17.957.382-23.075.251 0 .653.016 1.204.049.549.032.968.05 1.267.05 1.945 0 3.272-.282 3.993-.841v.495c1.012-.231 2.598-.447 4.752-.646v16.392l.697.694a1.706 1.706 0 0 0-.697.545l-.126.64c0 .2.16.514.476.941.315.43.476.762.476.992 0 .66-.277 1.273-.826 1.832v8.714c.549.662.826 1.275.826 1.833zm-4.82 26.938c0 1.451-1.257 2.866-3.77 4.232-2.514 1.372-4.744 2.058-6.685 2.058-1.183 0-2.324-.116-3.424-.348l-.57-.295v-7.579c.675-.199 1.966-1.12 3.865-2.772 1.731-1.517 2.958-2.279 3.678-2.279 1.437 0 2.155.332 2.155.99 0 1.619-1.627 2.345-4.882 2.18l-.125.349c.292.59 1.943 1.105 4.943 1.532v.695h-2.978c-.043.33-.13.677-.255 1.04-.084-.035-.105-.067-.062-.1 0 .199.295.297.888.297h7.222zM160.99 40.1c0 .296-.232.511-.696.646-.34-.135-.507-.35-.507-.646 0-.263.168-.478.507-.645.464.167.697.382.697.645zm0-6.139c0 .266-.232.443-.696.545-.34-.102-.507-.28-.507-.545 0-.363.168-.61.507-.745.464.135.697.382.697.745zm0-8.764c0 .263-.232.446-.696.543-.34-.097-.507-.28-.507-.543 0-.33.168-.56.507-.695.464.135.697.366.697.695zm-1.9 24.66l-.317.197-.444-.197.444-.348.317.348zm-6.908-13.471c0-.263-.192-.475-.57-.642-.425.167-.635.379-.635.642 0 .267.21.479.634.643.38-.164.571-.376.571-.643zm-.57 16.838l-.826-.596v.596h.825zm-1.84-18.718c0-.263-.191-.478-.57-.645-.38.167-.57.382-.57.645 0 .264.19.445.57.543.379-.098.57-.279.57-.543zm-.95 10.992l-.443-.444-.256.344.256.297.443-.197zm.189-39.068c0-.263-.21-.479-.632-.645-.382.166-.57.382-.57.645 0 .296.188.511.57.644.422-.133.632-.348.632-.644zm-1.458 48.032h1.649v-.645h-1.649v.645zm1.649-3.071a2.055 2.055 0 0 0-.823-.743h-.826v1.286l1.649-.543zm-2.346-1.882h.697v-1.286h-.697v1.286zm.509-43.724c0-.264-.17-.446-.509-.543-.422.097-.634.28-.634.543 0 .264.212.446.634.543.34-.097.509-.28.509-.543zm-.761 27.43c0-.227-.191-.425-.57-.59-.465.165-.7.363-.7.59 0 .267.235.483.7.646.379-.163.57-.379.57-.645zm16.162 34.564c-7.015 0-11.916-1.895-14.705-5.69-2.154-2.873-3.232-7.284-3.232-13.225 0-1.846.051-4.654.158-8.417.106-3.762.16-6.57.16-8.417l.887-.694-.888-.545V3.755c6.04 0 9.802-.562 11.282-1.683l-.126.298.126.248c.465.264.971.511 1.519.742l-.696.543c-.127.958-.318 2.361-.57 4.212l-.192.941-.061.248v.048-.1.248c.548.1 1.331.33 2.345.694l.444.642h-2.472c0 1.19-.053 3.007-.158 5.449-.108 2.442-.16 4.276-.16 5.496 0 .692.138 1.716.413 3.07.274 1.352.411 2.377.411 3.067 0 .4-.159.97-.476 1.712-.315.742-.473 1.311-.473 1.707 0 .363.167.869.505 1.509.339.645.508 1.1.508 1.364 0 .1-.17.41-.508.94-.338.53-.505.907-.505 1.138 0 .199.317 1.076.949 2.625l-.318.645.318-.102c.339.167.508.382.508.645 0 .296-.17.511-.508.646-.466-.135-.632-.43-.506-.893l-.317.247v8.714l.823.695c-.632.102-.95.742-.95 1.93 0 1.355.55 1.949 1.646 1.785a16.45 16.45 0 0 1-1.772 1.98l.57.148.506.446c.466 1.221 2.303 2.872 5.515 4.952v7.029zM226.213 51.935l-.7-.543h.7v.543zm-1.84-8.069c0 .264-.17.48-.505.643-.34-.164-.509-.38-.509-.643 0-.297.17-.529.509-.694.335.165.505.397.505.694zm-2.092 5.644v-.695h-.824l.824.695zm-.318-3.814c0-.265-.166-.476-.506-.641-.339.165-.505.376-.505.64 0 .267.166.482.505.646.34-.164.506-.38.506-.645zm-1.393-7.477c0-.263-.252-.479-.76-.642-.34.163-.51.379-.51.642 0 .299.17.53.51.694.508-.164.76-.395.76-.694zm-.76 10.004l-.444-.248-.317.248.317.248.444-.248zm-1.773-34.96c0 .265-.215.478-.634.644-.34-.166-.509-.379-.509-.645 0-.296.17-.511.509-.643.42.132.634.347.634.643zm-3.931-11.19c0 .265-.214.446-.636.545-.422-.1-.635-.28-.635-.546 0-.33.213-.562.635-.69.422.128.636.36.636.69zm-1.647 34.957c0-.328-.171-.576-.51-.742-.464.166-.695.414-.695.742 0 .231.231.415.695.547.339-.132.51-.316.51-.547zm-1.396-11.932v-.595h-.825l.825.595zm-.19 4.36c0-.265-.21-.463-.635-.598-.339.135-.506.333-.506.597 0 .264.167.479.506.64.425-.161.635-.376.635-.64zm-1.331 13.714a4.048 4.048 0 0 1-.888.694v-.694c.212-.198.508-.38.888-.545v.545zm-1.901-12.38c0 .265-.17.446-.507.545-.425-.099-.634-.28-.634-.545 0-.33.21-.56.634-.695.337.135.507.366.507.695zm-1.647-27.48c0-.299-.171-.527-.509-.694-.378.167-.572.395-.572.694 0 .263.194.443.572.543.338-.1.51-.28.51-.543zm-3.17 28.025c0-.264-.17-.478-.51-.643-.378.165-.568.379-.568.643 0 .266.19.494.569.694.339-.2.508-.428.508-.694zM194.9 67.635c0-.366-.234-.613-.696-.743-.34.13-.51.377-.51.743.04.032.084.164.127.395l1.079-.395zm35.367-3.171c-1.565 0-2.345.81-2.345 2.428h-12.107v-4.904c-.844-.232-1.458-1.849-1.837-4.852-.38-3.268-.825-5.182-1.331-5.744-.801.43-1.332 1.04-1.585 1.833h-9.635c-.339.13-.823.528-1.458 1.189v.591l.191.348h2.916c-2.112 0-3.634 1.718-4.564 5.15-1.054 3.961-2.26 6.338-3.612 7.132-.086.263-.317.444-.696.543l-.383-.148c-.677.164-1.901.248-3.673.248-.173 0-.415-.02-.732-.052a7.663 7.663 0 0 0-.664-.048l-.317-.398-.633-.145c-.677.164-1.774.377-3.296.643 0-2.246.865-7.264 2.598-15.053.125-.263.36-.494.698-.694l10.456-49.22.7-.102c1.01 0 1.772.167 2.28.498.971.627 1.859 3.383 2.664 8.27.758 4.523 1.032 7.643.822 9.359l.57.199c.043.129.105.263.19.392 0 1.523-.507 3.758-1.52 6.713-1.016 2.952-1.521 5.19-1.521 6.707.633-.065 1.162-.164 1.582-.297.338.133.825.364 1.46.695l-3.171 1.285c-.592 2.71-.887 4.344-.887 4.906 0 .822.8 1.468 2.41 1.93-.422.197-.678.377-.761.543l.255.646h6.21c.591 0 1.1.823 1.521 2.474.466 1.947.762 2.988.886 3.12.339-.032.591-.248.763-.645v-.891c0-3.563-.763-7.791-2.284-12.674-1.774-5.712-2.662-9.922-2.662-12.63 0-.427.296-1.07.888-1.93.591-.858.888-1.452.888-1.78 0-.563-.804-.762-2.408-.598-2.2-5.41-3.296-10.197-3.296-14.358 0-1.75.505-2.624 1.521-2.624l1.012.099c.338.167.59.395.763.694h6.336c.087.427.528 1.22 1.335 2.377.672.922 1.01 2.194 1.01 3.81.55.132 1.375.364 2.475.695l.253.247.126.298h-2.853a176.59 176.59 0 0 0 2.474 13.17l4.813 1.19c-2.28 0-3.42 1.072-3.42 3.218 0 .2.043.578.127 1.14.634.393 1.456 1.022 2.47 1.88-.634.993-.949 1.616-.949 1.88 0 .135.336.645 1.015 1.538l-.065.99c.422.131.635.344.635.642 0 .267-.213.479-.635.643l-.318-.048c-.21.463-.317 1.108-.317 1.931h.635c.508 2.476.76 4.308.76 5.496 0 1.784.697 4.406 2.093 7.875.336.99.95 2.41 1.837 4.257a.788.788 0 0 0 .191.197v-.097l-.062.048c-.172.2-.468.677-.887 1.436 0 3.467 1.349 5.58 4.055 6.339zM274.952 16.333c-.17.231-.423.347-.762.347l-.888-.347.191-.148.697-.099.57.1.192.147zM273.936 55.7c0 .263-.208.446-.634.543-.338-.097-.505-.28-.505-.543 0-.296.167-.495.505-.595.426.1.634.3.634.595zm-4.877-6.19c0 .23-.172.412-.508.545-.34-.133-.51-.315-.51-.545 0-.297.17-.529.51-.695.336.166.508.398.508.695zm0-18.718c0-.33-.172-.56-.508-.695-.34.135-.51.366-.51.695 0 .265.17.446.51.545.336-.099.508-.28.508-.545zm-.7-24.463c0 .299-.17.53-.505.694-.425-.164-.635-.395-.635-.694 0-.263.21-.476.635-.64.336.164.505.377.505.64zm-.758 23.128c0-.264-.214-.462-.635-.597-.425.135-.635.333-.635.597 0 .264.21.479.635.64.42-.161.635-.376.635-.64zm-.952 38.178c0-.366-.17-.613-.505-.743-.382.13-.574.377-.574.743l.38.543h.381l.318-.543zm0-35.604c0-.298-.17-.53-.505-.694-.382.164-.574.396-.574.694 0 .263.192.444.574.546.335-.102.505-.283.505-.546zm-.505-1.337h-.826v.643l.826-.643zm3.23-11.193c-.762.035-1.52.447-2.28 1.237-.596.663-1.187 1.307-1.776 1.933h.444c1.9 0 3.103-1.056 3.611-3.17zm-3.424 15.55c0-.264-.21-.479-.632-.646-.34.167-.509.382-.509.645 0 .297.17.528.509.695.423-.167.632-.398.632-.695zm-.823 13.172c0-.263-.21-.478-.635-.645-.338.167-.505.382-.505.645s.167.463.505.592c.425-.129.635-.329.635-.592zm-.823-17.431c0-.33-.17-.56-.509-.695-.421.135-.63.366-.63.695 0 .265.209.446.63.545.34-.099.509-.28.509-.545zm.188-19.41a5.677 5.677 0 0 0-.441-.099h-.19c-.256.099-.553.346-.888.742h.822l.697-.643zm-2.786 11.589l-.318-.3-.38.3.38.248.318-.248zm-.508 28.964c0-.264-.234-.444-.697-.543-.381.1-.57.279-.57.543 0 .298.189.496.57.596.463-.1.697-.298.697-.596zm-.887 1.883c0-.264-.191-.464-.57-.593-.34.13-.51.329-.51.593 0 .263.17.461.51.596.379-.135.57-.333.57-.596zm1.077-6.24c-.085-.2-.295-.396-.634-.592l-1.014-.102h-.76c.166.463.42.91.76 1.339h.761a5.46 5.46 0 0 0 .887-.645zm-1.903-11.191c0-.263-.167-.475-.505-.642-.423.167-.636.379-.636.642 0 .267.213.479.636.643.338-.164.505-.376.505-.643zm-.888 12.132l-.44-.296-.318.296.317.296.441-.296zm-.632-.941c0-.263-.212-.495-.632-.694-.338.199-.51.43-.51.694 0 .266.172.479.51.645.42-.166.632-.38.632-.645zM249.98 35.05c0-.263-.193-.478-.57-.645-.382.167-.572.382-.572.645 0 .297.19.528.573.695.376-.167.57-.398.57-.695zm0-20.5c0 .3-.193.497-.57.594-.382-.097-.572-.295-.572-.593 0-.331.19-.547.573-.644.376.097.57.313.57.644zm-.57 10.548l-.51.347-.377-.347.505-.247.383.247zm-.193 28.72c0 .263-.231.461-.694.596-.339-.135-.508-.333-.508-.596 0-.264.17-.464.508-.593.463.13.694.329.694.593zm25.735 10.646l-.698-.1c-.634 0-1.393.654-2.28 1.958-.887 1.302-1.674 1.956-2.346 1.956 0-.595-.36-1.057-1.077-1.386-.256.855-1.058 1.286-2.407 1.286h-3.171c-2.579 0-3.868-.431-3.868-1.286 0-.333.213-.71.635-1.14-1.692-5.448-4.079-13.586-7.161-24.414h-3.168c.672-.23 1.476-.674 2.407-1.336h-3.295v-6.14l.377-.645h-.377c-.339-.097-.508-.296-.508-.592 0-.295.17-.494.508-.594.715.132.906.444.57.938 1.733-.99 5.11-1.715 10.138-2.177-.717-.098-1.075-.61-1.075-1.534 0-.826.275-2.046.824-3.665.548-1.617.822-2.838.822-3.666 0-6.467-3.76-9.983-11.279-10.545V3.855c3.716-.164 6.422-.576 8.111-1.237v.99c6.339 0 9.51 1.32 9.51 3.96 0 .197-.14.53-.415.993-.274.463-.411.758-.411.888 0 .497.148.745.444.745.42 0 .823-.084 1.204-.248V8.857h1.14c0 1.09-.59 1.899-1.775 2.426.463-.199.888-.296 1.27-.296 2.999 0 4.669 4.276 5.004 12.822l1.585 1.29c-1.646.33-2.937 1.782-3.867 4.358-.549 1.616-1.372 3.48-2.469 5.593l-3.045 2.18c-1.35.989-2.027 1.833-2.027 2.525 0 .793 1.118 1.934 3.362 3.417l-.511.248-.315.446c1.14 1.55 1.945 3.018 2.407 4.406.085.43.19 1.057.317 1.882.253 1.484.528 2.84.823 4.06.508 2.378 1.48 4.11 2.918 5.2l.127.247c-.253.395-.592.942-1.015 1.633v.298c0 .992 1.353 1.95 4.057 2.872zm-27.886-10.05h-.952l.952-.596v.596zm-.256-1.189c0 .264-.234.463-.696.593-.34-.13-.509-.33-.509-.593 0-.298.17-.529.509-.694.462.165.696.396.696.694zm-.887-16.195c0-.328-.192-.576-.571-.742-.38.166-.57.414-.57.742 0 .231.19.415.57.547.38-.132.57-.316.57-.547zm0-9.407c0-.263-.192-.479-.571-.645-.38.166-.57.382-.57.645s.19.479.57.646c.38-.167.57-.383.57-.646zm-1.584-3.714c0-.264-.191-.495-.57-.69-.382.195-.57.426-.57.69 0 .267.188.463.57.594.379-.131.57-.327.57-.594zm-1.079 12.678l-.252-.3-.444.3.444.443.252-.443zm-.252 17.23l-.444-.247c-.253 0-.382.083-.382.248l.382.246.444-.246zm-.256-15.598c0-.263-.188-.479-.57-.642-.42.163-.632.379-.632.642 0 .299.212.53.632.694.382-.164.57-.395.57-.694zm0-11.833c0-.33-.188-.561-.57-.694-.42.133-.632.364-.632.694 0 .296.212.495.632.592.382-.097.57-.296.57-.592zm-.57 9.359l-.318-.248-.505.248.318.247.505-.247zm-.189-4.408c0-.264-.212-.478-.634-.643-.383.165-.57.379-.57.643 0 .266.187.494.57.694.422-.2.634-.428.634-.694zm-.887 21.292c0-.264-.17-.495-.505-.694-.426.199-.636.43-.636.694 0 .266.21.462.636.596.335-.134.505-.33.505-.596zm-.505 1.189l-.318-.097c-.383 0-.57.163-.57.494l.062.199.696-.103.13-.493zm-.194-4.308c0-.297-.21-.529-.632-.695-.38.166-.57.398-.57.695 0 .23.19.412.57.545.422-.133.632-.315.632-.545zm-.632-11.34l-.38-.246c-.295 0-.446.08-.446.246l.317.297.509-.297zm-.509 3.467l-.317-.299-.318.299.318.248.317-.248zm0-5.597l-.317-.295-.318.295.318.248.317-.248zm0-12.478l-.317-.343-.318.343.318.247.317-.247zm.318 2.179c0-.264-.21-.48-.635-.643-.338.164-.505.38-.505.643 0 .265.167.478.505.645.425-.167.635-.38.635-.645zm1.017 4.953h-.826l-.95.098c-.338.166-.55.348-.635.545h.759c.213 0 .764-.212 1.652-.643zm-3.488 4.356c0-.263-.192-.478-.571-.645-.34.167-.509.382-.509.645 0 .297.17.528.509.695.379-.167.57-.398.57-.695zm-.762-6.139c0-.33-.166-.546-.505-.642-.426.096-.635.311-.635.642 0 .264.21.444.635.546.339-.102.505-.282.505-.546zm0-5.002c0-.264-.166-.495-.505-.69-.426.195-.635.426-.635.69 0 .267.21.463.635.594.339-.131.505-.327.505-.594zm-.697 21.787c0 .266-.212.481-.63.645-.426-.164-.636-.38-.636-.645s.21-.476.635-.641c.419.165.631.376.631.64zm12.36 4.308c-.93.034-2.344.495-4.246 1.388l1.584.543a19.584 19.584 0 0 0-.062 1.635c0 1.42.275 2.13.824 2.13v7.427c.42.167.989.415 1.71.743l.064.247-.064.347c-1.227.925-2.75 1.95-4.564 3.07-.17.07-2.641.101-7.414.101l-.823.543h-.887l.887-21.294 2.406-1.829h-1.013l-.57-.546.696-.643h-1.966c.043-1.123.191-2.775.447-4.953.04-.232.314-.678.823-1.336h-.7c0-2.873-.166-7.205-.505-12.998-.338-5.793-.505-10.128-.505-13V3.311a7.272 7.272 0 0 1 3.293-.793l.761.099c-1.52.131-2.28.842-2.28 2.13 0 .064.038.592.123 1.581h.509l1.648-2.474h.441c0 1.453.657 2.278 1.97 2.474.505-.097 1.032-.312 1.58-.64h3.171c.253-.43.826-1.044 1.714-1.834v8.17c-.425.263-.743.678-.952 1.237l.44.398.512.247c-.807 6.009-1.122 11.406-.952 16.19a9.057 9.057 0 0 0-1.588.597c.425.165.635.379.635.643 0 .266-.21.494-.635.694l-.505-.395-.064.543c2.07 0 3.109 1.108 3.109 3.318 0 .296-.162.735-.48 1.313-.316.575-.472 1.032-.472 1.36 0 .496.317 1.356.952 2.577l-.447.096-.505-.096a5.148 5.148 0 0 1-.762-1.29h-6.403c1.143 1.65 3.488 2.479 7.036 2.479.381 0 .742-.017 1.08-.051-.51.495-.825.922-.951 1.287.252.297.57.528.952.694v4.357c.548.097.862.694.949 1.78z" fill="#1A1918" mask="url(#b)"/><path d="M319.828 53.916c0 .267-.17.447-.506.547-.424-.1-.634-.28-.634-.547 0-.33.21-.562.634-.69.336.128.506.36.506.69zm-.506-39.365l-.952.298-.7-.298.192-.149c.126-.032.295-.064.508-.1l.759.1.193.149zm-1.142 39.365c0 .267-.17.447-.51.547-.339-.1-.505-.28-.505-.547 0-.33.166-.562.505-.69.34.128.51.36.51.69zm-3.613-19.954h.697v-.745h-.697v.745zm.505 6.14c0-.264-.166-.447-.505-.544-.508.097-.76.28-.76.543 0 .296.252.511.76.646.34-.135.505-.35.505-.646zm-7.161 11.935c0-.331-.19-.546-.57-.645-.465.1-.696.314-.696.645 0 .263.23.462.696.592.38-.13.57-.33.57-.592zm-.761 14.259c0 .263-.231.461-.696.596-.339-.135-.508-.333-.508-.596 0-.264.169-.447.508-.544.465.097.696.28.696.544zm0-12.38c0-.33-.231-.562-.696-.69-.339.128-.508.36-.508.69 0 .267.169.447.508.547.465-.1.696-.28.696-.547zm-1.14 9.012l-.253-.344-.382.344.382.2.253-.2zm0-11.241l-.253-.295-.382.295.382.248.253-.248zm-1.331 5.3c0-.266-.213-.478-.632-.642-.339.164-.508.376-.508.642 0 .265.169.463.508.595.42-.132.632-.33.632-.595zm-1.331 1.187h-.76v.645l.76-.645zm-1.901 3.814c0-.297-.17-.527-.509-.694-.339.167-.506.397-.506.694 0 .231.167.43.506.596.34-.167.509-.365.509-.596zm-1.52 4.308c0 .263-.216.461-.635.596-.382-.135-.57-.333-.57-.596 0-.264.188-.447.57-.544.419.097.634.28.634.544zm-3.044.793h-.254c-1.139 0-1.86-.264-2.157-.793h2.41v.793zm-1.776-8.915c0 .266-.21.479-.635.645-.339-.166-.505-.38-.505-.645 0-.264.166-.46.505-.592.426.132.635.328.635.592zm0-54.714c0-.364-.21-.611-.635-.745-.339.134-.505.381-.505.745 0 .263.166.443.505.545.426-.102.635-.282.635-.545zm-.822 47.288c0 .264-.17.48-.506.644-.425-.165-.635-.38-.635-.644 0-.298.21-.53.635-.693.336.164.506.395.506.693zm-1.331 15.548l-.38.248-.509-.248.51-.2.379.2zm-.889-48.031h.889v-.544h-.889v.544zm24.848 31.245l-.953.545c-.339.725-.57 1.352-.696 1.88.549.496.826 1.24.826 2.229 0 .363-.277 1.305-.826 2.823.17.265.4.463.696.595-.505.231-1.583 1.635-3.232 4.208-1.435 2.214-3.104 3.316-5.007 3.316-.718 0-1.733-.204-3.042-.617-1.31-.412-2.305-.619-2.977-.619-.552 0-1.396.207-2.539.619-1.14.413-2.006.617-2.598.617-.127 0-.526-.032-1.205-.096l3.171-3.716h1.585c-.088-.23-.297-.41-.635-.543l-.95-.098-.826.098c-1.774 2.84-3.356 4.26-4.751 4.26v-.547h-1.585v-5.05h3.991l-1.581 1.88c1.01 0 2.861-.823 5.545-2.475 2.681-1.65 4.255-2.888 4.723-3.714V18.117c0-2.181-1.482-3.865-4.438-5.051-2.367-.958-5.114-1.437-8.24-1.437V4.55c0-1.288 1.522-1.931 4.562-1.931 9.256 0 15.065 2.345 17.431 7.03.549 1.06 1.415 2.296 2.598 3.716a453.874 453.874 0 0 0-.064 2.77c0 1.324.339 2.46 1.017 3.419v.594c0 .826-.16 2.038-.477 3.638-.316 1.6-.476 2.8-.476 3.59v2.873c.466.1.783.28.953.544v.246c0 .53-.16 1.324-.477 2.378-.316 1.06-.476 1.85-.476 2.377 0 .135.318.661.953 1.587v.296c0 .295-.16.785-.477 1.46-.316.677-.476 1.213-.476 1.61l.953.643v.248c0 .196-.16.513-.477.939-.316.43-.476.745-.476.94 0 .335.16.803.476 1.416.318.607.477 1.081.477 1.409l-.953 1.237v.645l.953.642v.645zm-25.038-1.238c0 .264-.167.462-.506.593-.381-.131-.57-.33-.57-.593 0-.297.189-.527.57-.694.34.167.506.397.506.694zm0-15.004c0 .3-.167.53-.506.694-.381-.165-.57-.395-.57-.694 0-.264.189-.477.57-.643.34.166.506.38.506.643zm-3.168 33.028c0 .263-.17.461-.506.596-.468-.135-.699-.333-.699-.596 0-.264.231-.447.699-.544.336.097.506.28.506.544zm-1.393-26.738a.828.828 0 0 0-.383-.102c-.295 0-.443.167-.443.497l.127.148.634-.099.065-.444zm-1.587 27.334l-.758-.596h.758v.596zm0-3.022l-.758-1.286v1.286h.758zm-1.013-15.005c0-.263-.191-.475-.57-.642-.38.167-.571.38-.571.642 0 .268.191.48.57.645.38-.166.57-.377.57-.645zm-.57 18.77l-.888.247-.697-.247.126-.247.57-.2.761.2.128.247zm-2.663-12.53c0-.263-.17-.475-.509-.642-.379.167-.57.379-.57.642 0 .3.191.495.57.595.34-.1.509-.296.509-.595zm0-3.713c0-.264-.17-.48-.509-.644-.379.165-.57.38-.57.644 0 .263.191.446.57.543.34-.162.509-.344.509-.543zm1.9 9.359h-.443c-.97 0-1.901.413-2.788 1.237h.443c.97 0 1.902-.412 2.789-1.237zm-2.409-17.481h-.822v.596l.822-.596zm-.187 17.48c0-.296-.213-.527-.635-.694-.38.167-.57.398-.57.695 0 .263.19.446.57.543.422-.097.635-.28.635-.543zm8.998 0c0 1.947-.254 3.152-.759 3.614-.93.1-2.28.315-4.055.646-.888.627-2.496 1.5-4.82 2.625l.823.543h-1.646V55.105c0-.922 1.733-1.384 5.197-1.384 3.506 0 5.26 2.342 5.26 7.03zm-.062-27.533c0 .96-.805 1.818-2.407 2.576.294.167.866.578 1.71 1.237v.35c0 1.189-.414 3.002-1.237 5.446-.823 2.445-1.237 4.305-1.237 5.596 0 .361.022.726.065 1.088-.974.265-2.198.811-3.677 1.634-1.648.926-2.853 1.52-3.612 1.783v.298h-.698l.698-.298v-4.062c.38-.032.657-.195.824-.493l.128-.794-.128-.742c-.167-.264-.444-.428-.824-.495V3.36l6.022-.645c1.14-.13 2.154.226 3.042 1.065.888.844 1.33 1.726 1.33 2.651v26.786z" fill="#1A1918"/></g></svg>