<svg width="400" height="78" viewBox="0 0 400 78" xmlns="http://www.w3.org/2000/svg"><title>product-logos</title><g fill="none" fill-rule="evenodd"><path fill="#1A1918" d="M13.02 65.4L0 33.044h16.212l9.397 24.145 8.967-24.145h6.448L28.864 65.4H13.02M69.703 49.774h-7.247c-.327 0-.644.082-.952.244-.306.165-.583.37-.827.613-.206.246-.39.521-.554.828a1.898 1.898 0 0 0-.246.888v4.596c0 .206.052.42.154.644.102.225.215.44.338.644.204.204.45.388.737.55.286.166.552.246.798.246h5.897c.204 0 .43-.07.675-.214.246-.144.469-.317.675-.521.163-.163.296-.357.4-.582.1-.225.152-.44.152-.644v-7.292zm14.863-5.576v21.079H71.424l-.922-3.43a1.99 1.99 0 0 1-.215.643 12.3 12.3 0 0 0-.276.52 2.919 2.919 0 0 1-.43.644 11.84 11.84 0 0 1-.49.52 5.747 5.747 0 0 1-1.413.859 5.631 5.631 0 0 1-1.659.244H52.324c-.738 0-1.402-.06-1.996-.183a6.649 6.649 0 0 1-1.628-.552 4.691 4.691 0 0 1-1.381-.95 6.353 6.353 0 0 1-1.013-1.317 6.864 6.864 0 0 1-.769-1.807 14.255 14.255 0 0 1-.398-1.993 23.486 23.486 0 0 1-.154-2.082 65.086 65.086 0 0 1-.03-1.962v-1.838c0-.653.039-1.307.122-1.962.081-.652.194-1.297.338-1.93a8.843 8.843 0 0 1 .583-1.747 6.834 6.834 0 0 1 1.075-1.561c.43-.47.952-.849 1.567-1.134a6.552 6.552 0 0 1 1.656-.552c.615-.122 1.29-.184 2.028-.184h15.231c.286 0 .573-.081.859-.244.287-.162.553-.388.8-.675.162-.163.296-.367.397-.613.103-.244.154-.47.154-.674 0-.246-.062-.49-.185-.736a1.835 1.835 0 0 0-.49-.612 2.63 2.63 0 0 0-.676-.49 1.62 1.62 0 0 0-.736-.184H47.411v-6.312h28.25c.818 0 1.575.071 2.272.215.696.143 1.33.358 1.905.644a5.73 5.73 0 0 1 1.688 1.103c.47.45.869.94 1.198 1.47.327.49.602 1.01.829 1.563.223.55.398 1.113.521 1.684.204.778.338 1.554.4 2.329.06.777.092 1.513.092 2.207zM117.865 65.4l-13.02-32.356h16.213l9.397 24.145 8.966-24.145h6.449L133.71 65.4h-15.845M175.225 46.464v-5.086c0-.202-.052-.418-.154-.642a3.06 3.06 0 0 0-.4-.644 2.078 2.078 0 0 0-.552-.49 1.186 1.186 0 0 0-.615-.184h-7.124c-.204 0-.398.06-.583.184a3.484 3.484 0 0 0-.521.429c-.164.204-.298.419-.4.642-.102.225-.154.44-.154.644v5.147h10.503zm6.816-13.42c.696 0 1.392.062 2.088.185a7.347 7.347 0 0 1 2.027.674c.492.244.942.573 1.35.98.41.408.778.879 1.107 1.409.204.41.387.838.552 1.288.163.45.285.94.368 1.47.082.695.124 1.43.124 2.206v11.46h-24.995v3.492c0 .328.08.664.245 1.01.163.349.388.645.675.89.286.286.594.511.922.674.327.165.654.245.983.245h20.696v6.313h-30.891c-.656 0-1.3-.052-1.934-.155a5.52 5.52 0 0 1-1.75-.581 4.706 4.706 0 0 1-1.352-.859 6.013 6.013 0 0 1-1.105-1.347 5.218 5.218 0 0 1-.614-1.318 14.975 14.975 0 0 1-.43-1.685 11.336 11.336 0 0 1-.185-1.318c-.042-.47-.06-.97-.06-1.501V42.053c0-.49.018-.96.06-1.41.04-.45.081-.879.123-1.288.123-.693.286-1.336.492-1.93a7.35 7.35 0 0 1 .737-1.561 5.665 5.665 0 0 1 1.136-1.349 4.94 4.94 0 0 1 1.441-.858 7.747 7.747 0 0 1 1.599-.459 9.782 9.782 0 0 1 1.719-.154h24.872zM217.046 39.418h-7.307a.69.69 0 0 0-.46.184 1.215 1.215 0 0 0-.338.49 2.146 2.146 0 0 0-.186.581c-.04.225-.06.42-.06.583V57.19c0 .204.05.419.154.642.1.225.234.44.398.644.163.165.359.307.583.43.225.122.44.183.646.183h6.755c.205 0 .398-.05.584-.152.183-.102.337-.236.46-.399a1.66 1.66 0 0 0 .492-1.165V41.378c0-.244-.052-.48-.154-.705a1.967 1.967 0 0 0-.4-.581 2.058 2.058 0 0 0-.552-.49 1.184 1.184 0 0 0-.615-.184zm16.52 29.169a9.32 9.32 0 0 1-.153 1.685 7.73 7.73 0 0 1-.46 1.563c-.165.53-.38 1.02-.645 1.47-.267.45-.564.877-.892 1.288a9.118 9.118 0 0 1-1.043 1.102c-.37.326-.736.613-1.105.857a8.736 8.736 0 0 1-1.535.705 4.668 4.668 0 0 1-1.536.277h-29.969v-6.252h19.651c.532 0 .983-.091 1.352-.275.369-.183.675-.44.921-.767.246-.285.43-.612.552-.98.123-.367.186-.735.186-1.102V65.34H202a8.2 8.2 0 0 1-1.934-.215 7.633 7.633 0 0 1-1.627-.583 8.504 8.504 0 0 1-1.382-.858 6.424 6.424 0 0 1-1.137-1.102 6.598 6.598 0 0 1-.858-1.226 8.57 8.57 0 0 1-.615-1.41 8.715 8.715 0 0 1-.523-1.869 11.73 11.73 0 0 1-.152-1.87V41.992c0-.49.04-1 .123-1.532.081-.53.204-1.062.367-1.593.164-.53.379-1.042.645-1.533.265-.49.563-.959.89-1.408.369-.49.777-.928 1.23-1.318.45-.388.941-.704 1.473-.95a8.07 8.07 0 0 1 1.566-.582 7.013 7.013 0 0 1 1.75-.215h31.75v35.727zM253.157 33.044v24.268c0 .204.063.419.186.642.123.226.265.42.429.583.204.163.418.297.644.399.225.102.44.152.646.152h6.694c.204 0 .419-.04.644-.123a1.57 1.57 0 0 0 .584-.367c.162-.163.306-.337.428-.521.124-.184.186-.378.186-.581v-24.39h14.923V65.4h-31.382c-.697 0-1.351-.07-1.965-.215a8.966 8.966 0 0 1-1.72-.581 8.175 8.175 0 0 1-1.473-1.012 9.895 9.895 0 0 1-2.242-2.757 11.381 11.381 0 0 1-.768-1.686 16.664 16.664 0 0 1-.4-1.745 10.3 10.3 0 0 1-.153-1.747V33.044h14.74M307.323 49.774h-7.247c-.327 0-.644.082-.952.244-.306.165-.583.37-.827.613-.207.246-.39.521-.554.828a1.898 1.898 0 0 0-.246.888v4.596c0 .206.052.42.153.644.103.225.215.44.339.644.204.204.45.388.737.55.285.166.552.246.798.246h5.897c.204 0 .429-.07.675-.214.246-.144.469-.317.675-.521.163-.163.296-.357.4-.582.1-.225.152-.44.152-.644v-7.292zm14.862-5.576v21.079h-13.141l-.923-3.43c-.04.245-.113.458-.215.643-.102.183-.193.356-.275.52a2.92 2.92 0 0 1-.431.644 11.84 11.84 0 0 1-.49.52 5.739 5.739 0 0 1-1.412.859 5.631 5.631 0 0 1-1.66.244h-13.695a9.86 9.86 0 0 1-1.995-.183 6.642 6.642 0 0 1-1.628-.552 4.696 4.696 0 0 1-1.382-.95 6.365 6.365 0 0 1-1.012-1.317 6.835 6.835 0 0 1-.77-1.807 14.385 14.385 0 0 1-.397-1.993 23.485 23.485 0 0 1-.154-2.082 65.085 65.085 0 0 1-.031-1.962v-1.838c0-.653.04-1.307.122-1.962.082-.652.194-1.297.338-1.93a8.814 8.814 0 0 1 .584-1.747 6.817 6.817 0 0 1 1.075-1.561c.429-.47.952-.849 1.566-1.134a6.558 6.558 0 0 1 1.657-.552c.615-.122 1.29-.184 2.027-.184h15.232c.285 0 .573-.081.858-.244a3.01 3.01 0 0 0 .8-.675c.163-.163.297-.367.398-.613.102-.244.154-.47.154-.674 0-.246-.062-.49-.185-.736a1.84 1.84 0 0 0-.49-.612 2.63 2.63 0 0 0-.677-.49 1.62 1.62 0 0 0-.735-.184H285.03v-6.312h28.25c.818 0 1.574.071 2.272.215.696.143 1.33.358 1.905.644a5.724 5.724 0 0 1 1.687 1.103c.471.45.87.94 1.198 1.47.328.49.603 1.01.83 1.563.223.55.398 1.113.52 1.684.205.778.339 1.554.4 2.329.06.777.092 1.513.092 2.207zM342.575 65.4H327.59V33.106h14.985v2.88a4.19 4.19 0 0 1 .799-.92c.123-.163.276-.315.46-.459.184-.142.358-.254.523-.337.244-.163.49-.316.736-.46.245-.143.491-.254.737-.337a18.4 18.4 0 0 1 .83-.215c.265-.06.52-.091.766-.091h8.906v8.947h-7.862a8.9 8.9 0 0 0-2.149.246c-.697.162-1.29.387-1.78.673a2.612 2.612 0 0 0-.738.46c-.205.184-.39.399-.552.643a2.1 2.1 0 0 0-.523.827 3.189 3.189 0 0 0-.153 1.011V65.4M383.23 39.418h-6.633c-.204 0-.421.071-.644.215a2.294 2.294 0 0 0-.583.52 2.758 2.758 0 0 0-.4.675 1.9 1.9 0 0 0-.154.735v15.563c0 .207.052.43.154.676.102.244.256.45.46.613.163.204.358.367.584.49.224.122.46.183.706.183h6.51c.203 0 .41-.07.614-.215.204-.142.389-.296.552-.458.164-.205.298-.43.4-.675a1.77 1.77 0 0 0 .154-.674V41.441c0-.205-.052-.43-.154-.676a2.788 2.788 0 0 0-.4-.673 2.071 2.071 0 0 0-.552-.49 1.184 1.184 0 0 0-.615-.184zm16.643-17.956V65.4h-31.444c-.86 0-1.525-.031-1.996-.092-.47-.06-.829-.144-1.074-.245-.247-.101-.41-.192-.491-.276a.986.986 0 0 0-.246-.183 6.872 6.872 0 0 1-1.475-.92 7.778 7.778 0 0 1-1.166-1.164 7.524 7.524 0 0 1-.859-1.348 11.068 11.068 0 0 1-.615-1.471c-.164-.53-.287-1.05-.368-1.563a9.28 9.28 0 0 1-.123-1.501v-14.34c0-.734.052-1.428.154-2.082a10.01 10.01 0 0 1 .46-1.839c.205-.571.45-1.082.737-1.532.287-.449.592-.877.922-1.287a8.164 8.164 0 0 1 1.319-1.073 8.048 8.048 0 0 1 1.504-.765c.696-.286 1.26-.48 1.69-.583.43-.1.757-.153.983-.153.224 0 .378.021.461.061a.455.455 0 0 0 .183.062h16.459V21.462h14.985zM12.588 71.669h4.684v.86h-2.541v1.276h2.474v.87H14.73v1.446h2.6v.862h-4.743V71.67M18.11 71.669h2.143v4.452h2.516v.862h-4.66V71.67M23.624 71.682l2.135-.013v5.321h-2.135v-5.308M26.368 71.669h2.726l1.069 3.028 1.151-3.028h2.66v5.321h-2.1v-4.246l-1.585 4.24h-1.465l-1.533-4.195v4.194h-.923V71.67M34.972 71.682l2.134-.013v5.321h-2.134v-5.308M37.698 71.66h2.77l2.305 4.351v-4.35h.947v5.314h-2.768l-2.338-4.43v4.43h-.916V71.66M47.082 72.877l-.847 1.813h1.67l-.823-1.813zm1.762-1.195l2.303 5.308h-2.27l-.627-1.41h-2.463l-.738 1.41h-1.024l2.693-5.308h2.126zM51.656 71.66h5.31v.899h-1.592v4.431h-2.117V72.56h-1.601v-.899M57.677 71.669h4.684v.86h-2.54v1.276h2.472v.87H59.82v1.446h2.6v.862h-4.743V71.67M69.053 76.99l-2.042-5.33h2.253l1.627 4.202 1.693-4.202H73.6l-2.167 5.33h-2.38M76.962 72.877l-.846 1.813h1.668l-.822-1.813zm1.763-1.195l2.302 5.308h-2.27l-.626-1.41h-2.464l-.737 1.41h-1.025l2.693-5.308h2.127zM81.9 71.669h2.143v4.452h2.515v.862H81.9V71.67M88.854 76.99l-2.041-5.33h2.252l1.627 4.202 1.693-4.202h1.017l-2.167 5.33h-2.381M94.164 71.669h4.684v.86h-2.541v1.276h2.473v.87h-2.473v1.446h2.6v.862h-4.743V71.67M106.098 72.552v1.253h1.33c.045 0 .08-.005.106-.017a.166.166 0 0 0 .063-.056.154.154 0 0 0 .033-.074.53.53 0 0 0 .009-.113v-.808a.194.194 0 0 0-.017-.089.127.127 0 0 0-.05-.06.239.239 0 0 0-.08-.03.563.563 0 0 0-.09-.006h-1.304zm-2.143-.876h4.566c.22 0 .411.024.576.074a.98.98 0 0 1 .398.23c.05.049.094.108.13.174a.98.98 0 0 1 .09.22c.033.122.05.264.05.422v1.092c0 .054-.002.108-.003.16a.991.991 0 0 1-.023.159.581.581 0 0 1-.152.282.562.562 0 0 1-.253.14.78.78 0 0 1-.187.042c-.067.006-.147.01-.237.01l1.212 2.302h-2.355l-1.01-2.293h-.676v2.293h-2.126v-5.307zM113.49 72.877l-.846 1.813h1.669l-.823-1.813zm1.763-1.195l2.302 5.308h-2.27l-.626-1.41h-2.463l-.738 1.41h-1.025l2.694-5.308h2.126zM118.065 71.66h5.31v.899h-1.592v4.431h-2.117V72.56h-1.601v-.899M123.807 71.66h5.31v.899h-1.591v4.431h-2.118V72.56h-1.6v-.899M129.913 71.669h2.143v4.452h2.516v.862h-4.659V71.67M135.266 71.669h4.685v.86h-2.542v1.276h2.474v.87h-2.474v1.446h2.6v.862h-4.743V71.67M145.76 71.676v.876h-2.837a.242.242 0 0 0-.08.013.38.38 0 0 0-.073.039.173.173 0 0 0-.055.052.108.108 0 0 0-.02.065v.395c0 .019.003.038.011.055.01.018.023.037.038.056a.433.433 0 0 0 .085.068c.035.019.068.029.102.029h1.864a1.913 1.913 0 0 1 .465.059c.08.02.154.046.225.081.071.035.137.074.199.12.045.039.087.081.126.126a.64.64 0 0 1 .102.147c.028.056.05.114.065.179.013.065.02.136.02.216v1.625c0 .054-.003.11-.008.163a1.08 1.08 0 0 1-.026.156.886.886 0 0 1-.071.207.946.946 0 0 1-.436.454 1.108 1.108 0 0 1-.28.1c-.101.023-.209.033-.321.033h-4.023v-.882h2.828a.32.32 0 0 0 .1-.016.555.555 0 0 0 .094-.036.294.294 0 0 0 .073-.056.115.115 0 0 0 .03-.077v-.47a.126.126 0 0 0-.026-.072.195.195 0 0 0-.068-.061.248.248 0 0 0-.17-.059h-2.05c-.077 0-.152-.007-.223-.019a2.471 2.471 0 0 1-.19-.04 1.004 1.004 0 0 1-.17-.07.734.734 0 0 1-.254-.224.77.77 0 0 1-.086-.16.951.951 0 0 1-.067-.363V72.72a.99.99 0 0 1 .018-.185c.01-.064.027-.128.05-.192a.895.895 0 0 1 .09-.185 1.45 1.45 0 0 1 .12-.172 1.02 1.02 0 0 1 .307-.23c.061-.024.128-.045.2-.059a.995.995 0 0 1 .223-.022h4.1M155.737 71.669v.86h-2.559v1.262h2.491v.89h-2.506v2.31h-2.11v-5.322h4.684M158.869 72.545a.388.388 0 0 0-.147.026.541.541 0 0 0-.115.062.35.35 0 0 0-.119.26v2.946c0 .035.012.07.035.1.022.034.046.061.076.087.033.025.07.045.109.063.04.017.08.025.12.025h1.133c.04 0 .078-.01.115-.029a.433.433 0 0 0 .166-.162.229.229 0 0 0 .024-.104v-2.994a.227.227 0 0 0-.024-.104.247.247 0 0 0-.077-.088.438.438 0 0 0-.102-.062.277.277 0 0 0-.11-.026h-1.084zm-1.143-.885h3.312c.1 0 .201.009.3.022.098.016.19.04.275.075.09.03.175.071.255.123a.91.91 0 0 1 .21.196 1.417 1.417 0 0 1 .301.807c.01.091.013.188.013.292v2.287a2.243 2.243 0 0 1-.068.6 1.24 1.24 0 0 1-.1.293 1.388 1.388 0 0 1-.153.242c-.096.11-.207.196-.33.26-.085.04-.174.07-.272.089-.095.02-.2.03-.313.03h-3.558a1.304 1.304 0 0 1-.498-.097c-.09-.039-.174-.089-.246-.148a1.164 1.164 0 0 1-.196-.2 1.619 1.619 0 0 1-.211-.432 1.453 1.453 0 0 1-.05-.222 1.313 1.313 0 0 1-.018-.216v-2.626a2.113 2.113 0 0 1 .077-.565c.028-.09.064-.171.105-.245.043-.075.09-.139.14-.193a.886.886 0 0 1 .188-.155c.067-.045.136-.084.21-.113.096-.035.198-.06.305-.078.108-.017.215-.026.322-.026zM165.306 72.552v1.253h1.329c.045 0 .08-.005.106-.017a.166.166 0 0 0 .064-.056.154.154 0 0 0 .032-.074.53.53 0 0 0 .01-.113v-.808a.194.194 0 0 0-.018-.089.127.127 0 0 0-.05-.06.238.238 0 0 0-.08-.03.553.553 0 0 0-.09-.006h-1.303zm-2.144-.876h4.565c.22 0 .413.024.577.074a.973.973 0 0 1 .398.23c.05.049.094.108.13.174.038.067.067.14.09.22.033.122.05.264.05.422v1.092c0 .054-.001.108-.003.16-.004.051-.01.105-.023.159a.581.581 0 0 1-.152.282.565.565 0 0 1-.253.14.789.789 0 0 1-.187.042c-.068.006-.147.01-.237.01l1.212 2.302h-2.355l-1.009-2.293h-.677v2.293h-2.126v-5.307zM170.098 71.669h4.684v.86h-2.541v1.276h2.474v.87h-2.474v1.446h2.6v.862h-4.743V71.67M177.137 76.99l-2.041-5.33h2.252l1.627 4.202 1.693-4.202h1.016l-2.167 5.33h-2.38M182.446 71.669h4.685v.86h-2.541v1.276h2.473v.87h-2.473v1.446h2.6v.862h-4.744V71.67M190.044 72.552v1.253h1.33c.045 0 .08-.005.106-.017a.17.17 0 0 0 .064-.056.157.157 0 0 0 .032-.074.501.501 0 0 0 .009-.113v-.808a.2.2 0 0 0-.017-.089.13.13 0 0 0-.05-.06.239.239 0 0 0-.08-.03.563.563 0 0 0-.09-.006h-1.304zm-2.143-.876h4.566c.219 0 .411.024.576.074a.98.98 0 0 1 .398.23c.05.049.093.108.13.174a.98.98 0 0 1 .09.22c.033.122.05.264.05.422v1.092c0 .054-.002.108-.003.16-.004.051-.01.105-.023.159a.57.57 0 0 1-.258.363.565.565 0 0 1-.147.06.79.79 0 0 1-.187.04c-.067.007-.147.011-.237.011l1.211 2.302h-2.353l-1.01-2.293h-.677v2.293h-2.126v-5.307z"/><path d="M94.125 8.456h2.289V6.74h-2.289v1.716zm6.863 13.42v-4.527h1.098v-1.593h-1.098v-.945h1.098V13.22h-1.098v-.945h1.098v-1.593h-1.098V8.544H98.75V2.822h-2.188V.085h-2.586v2.737h-2.192v5.722h-2.237v2.138h-1.094v1.593h1.094v.945h-1.094v1.59h1.094v.946h-1.094v1.593h1.094v4.527h-1.79V65.4h15.023V21.876h-1.793z" fill="#D9222A"/></g></svg>