<?xml version="1.0" encoding="UTF-8" standalone="no"?>
<svg width="98px" height="47px" viewBox="0 0 98 47" version="1.1" xmlns="http://www.w3.org/2000/svg" xmlns:xlink="http://www.w3.org/1999/xlink">
    <!-- Generator: Sketch 3.6.1 (26313) - http://www.bohemiancoding.com/sketch -->
    <title>Untitled</title>
    <desc>Created with Sketch.</desc>
    <defs></defs>
    <g id="Page-1" stroke="none" stroke-width="1" fill="none" fill-rule="evenodd">
        <g id="logo-white" fill="#FFFFFF">
            <g id="Page-1">
                <g id="RRP_Box-Logo_white">
                    <g id="g10" transform="translate(48.786885, 24.356156) scale(1, -1) translate(-48.786885, -24.356156) translate(0.000000, 0.749599)">
                        <g id="g12">
                            <path d="M87.2296548,9.83285201 C86.3495496,9.8280923 85.4704312,9.83631753 84.591094,9.82878319 C84.515531,9.65472527 84.5766177,9.4193616 84.5600569,9.22130786 C84.910235,9.21921309 85.2611803,9.21989304 85.6121256,9.22130786 C85.6272598,8.22022529 85.6135515,7.21918666 85.6189251,6.21818092 C85.8610772,6.21676617 86.1039974,6.21599847 86.3475753,6.21963953 C86.3524005,7.21995436 86.338582,8.22099297 86.3543748,9.22067174 C86.7024685,9.21989304 87.0507824,9.21989304 87.3995339,9.22067174 C87.3981081,9.4172998 87.4077592,9.61337957 87.3954759,9.80882321 C87.3541306,9.81507439 87.2708908,9.8266885 87.2296548,9.83285201 L87.2296548,9.83285201 L87.2296548,9.83285201 Z M90.3000968,9.83019793 C90.1948139,9.78534279 90.220257,9.6498779 90.1831885,9.56051843 C89.9994909,8.83253713 89.7889235,8.11154195 89.6237595,7.37884485 C89.37744,8.18303607 89.1903423,9.00450035 88.969466,9.81572144 C88.6055795,9.84454285 88.2388414,9.83631753 87.874955,9.82055795 C87.8776973,8.61996299 87.8741878,7.4194229 87.8762715,6.21818092 C88.0997799,6.21676617 88.3235071,6.21676617 88.5484414,6.21963953 C88.5642334,7.15381213 88.5160887,8.09016716 88.575201,9.0231334 C88.7719499,8.08129479 89.0245204,7.15107037 89.2550479,6.21676617 C89.484698,6.21754483 89.7152247,6.21963953 89.9463006,6.21338832 C90.2085222,7.1296956 90.4081228,8.063945 90.6598159,8.98320236 C90.7018198,8.06329794 90.6660677,7.14010333 90.6784603,6.21818092 C90.898678,6.21676617 91.1195544,6.21676617 91.3409791,6.21818092 C91.3369212,7.42284462 91.3651066,8.62887919 91.3327538,9.83152501 C90.9879502,9.82943024 90.6441332,9.83631753 90.3000968,9.83019793 L90.3000968,9.83019793 L90.3000968,9.83019793 Z M90.463067,26.977606 C90.1824205,25.6979716 89.5666214,24.5057445 88.7438738,23.4915126 C87.8846062,22.4217873 86.723306,21.6237157 85.4717477,21.0787634 C84.1018544,20.470641 82.581493,20.3888268 81.1091677,20.2759759 C78.6729495,20.1217793 76.2291635,20.2367139 73.7917386,20.1747502 C73.8027056,16.4059264 73.7937127,12.6371026 73.7957964,8.86762072 C71.7745707,8.86762072 69.7525772,8.86620598 67.7312418,8.86826778 C67.7304741,18.8772395 67.7304741,28.8854325 67.7312418,38.8942836 C69.939675,38.897793 72.1479984,38.8942836 74.357309,38.8957093 C76.7678646,38.8950513 79.1794072,38.9163273 81.587989,38.8090697 C82.8835255,38.7120113 84.214815,38.6756008 85.4414786,38.1979861 C86.8518397,37.6807804 88.0737875,36.7154615 88.9817492,35.5266342 C89.905174,34.3481159 90.4295079,32.8943249 90.6262568,31.4200255 C90.8230056,29.9449584 90.785169,28.4320551 90.463067,26.977606 L90.463067,26.977606 L90.463067,26.977606 Z M91.7985238,33.4943317 C91.4166515,34.7030094 90.8071035,35.843143 89.9898397,36.8138358 C89.1140113,37.8389252 88.0695108,38.7422804 86.8408729,39.316076 C85.5213183,40.0177473 84.0172981,40.2586932 82.5415735,40.3342562 C81.899014,40.3893107 81.2550295,40.4306564 80.6098387,40.4190314 C79.9740795,40.4945943 79.3320685,40.4437073 78.6936771,40.4588417 C75.0225697,40.4574161 71.3520105,40.4601578 67.6809031,40.4574161 C66.8533302,40.4395398 66.1275314,39.6862137 66.1468333,38.8571053 L66.1468333,8.85862772 C66.1315892,8.02976066 66.8595813,7.28584434 67.6858383,7.26391025 C69.6808528,7.25984148 71.6767446,7.265325 73.6727462,7.26116849 C74.5299302,7.20204517 75.3554194,7.92381907 75.3747214,8.78986442 C75.3809726,12.0551913 75.3795469,15.320957 75.3753794,18.5861742 C76.5711159,18.608876 77.7682782,18.5855162 78.9641241,18.5979089 C79.3747302,18.6597631 79.7902717,18.6358549 80.2044968,18.637829 C81.5832732,18.698367 82.9695069,18.7816069 84.3283239,19.047777 C86.3226799,19.4970967 88.1913545,20.5428041 89.5887746,22.0385989 C90.4905946,23.0292517 91.2192449,24.18781 91.6732808,25.4502261 C92.1466182,26.7905082 92.3489595,28.2174301 92.3330573,29.6347008 C92.3489595,30.937695 92.1802867,32.2455147 91.7985238,33.4943317 L91.7985238,33.4943317 L91.7985238,33.4943317 Z M96.2787801,7.75798644 C96.1658195,6.33719525 95.5886243,4.96742273 94.6983195,3.85907159 C93.395435,2.23475404 91.3705904,1.2259946 89.2914586,1.14627517 C87.7531113,1.13191932 86.2134484,1.14421337 84.6751019,1.1401446 L8.79363706,1.1401446 C8.19507785,1.13115162 7.59450076,1.16974465 7.00690861,1.29004212 C5.44590378,1.5956168 4.0018186,2.44115376 2.94846717,3.63065005 C2.10499201,4.60418335 1.50715664,5.79783615 1.27256066,7.06641577 C1.07027138,8.063945 1.16310958,9.08632548 1.14250252,10.0971358 L1.14250252,38.5765684 C1.12947367,39.8252757 1.43423678,41.0793569 2.04517776,42.1712356 C3.2079035,44.328014 5.53188539,45.801107 7.97766728,45.9324921 C8.06583132,45.9441172 8.15451077,45.9511361 8.24327803,45.9545359 L87.9842967,45.9545359 C88.6943032,45.9497104 89.409135,45.9848049 90.1129991,45.8671286 C91.7043171,45.6304599 93.2061435,44.8406135 94.3138151,43.675146 C95.6120931,42.3233485 96.340634,40.4540162 96.3172745,38.5812842 C96.3165065,28.9500284 96.3172745,19.3188822 96.3172745,9.68775801 C96.3063069,9.04442038 96.346885,8.39920745 96.2787801,7.75798644 L96.2787801,7.75798644 L96.2787801,7.75798644 Z M94.9764433,44.6259885 C93.5680564,46.0906369 91.5832407,46.9540721 89.5653057,47.0911601 C72.615962,47.0924761 55.6665092,47.0911601 38.7170562,47.0917084 C28.381497,47.0862249 18.0450604,47.1027851 7.70944632,47.0834831 C5.88557248,46.9018689 4.10428367,46.1601679 2.75932957,44.9025773 C2.53017324,44.6699663 2.29763906,44.4408648 2.06711185,44.2090215 C0.84180598,42.8096271 0.0947192664,40.994143 0.00462672062,39.1338038 C0.00599760081,28.9500284 0.00462672062,18.7671304 0.00526932345,8.58346466 C-0.0725281161,6.49819142 0.719369925,4.40459417 2.10499201,2.85121144 C2.5144136,2.43973901 2.90926,2.00761564 3.38535023,1.66986367 C4.70284286,0.678414606 6.32168786,0.0951048677 7.96738017,0.00287028313 L89.2874007,0.00287028313 C89.8067992,-0.0198348815 90.317206,0.0984891871 90.8257471,0.186568019 C92.3881125,0.536056924 93.8755719,1.3107808 94.9845592,2.47692825 C96.4514007,3.88584214 97.3293128,5.87010895 97.4544464,7.89485508 C97.4558723,18.3303131 97.4544464,28.7650145 97.455105,39.2004834 C97.3210875,41.2245606 96.4548008,43.2225362 94.9764433,44.6259885 L94.9764433,44.6259885 L94.9764433,44.6259885 Z M57.2936891,8.86762072 C57.1958631,8.84350418 57.1534207,8.94263528 57.1085655,9.00380947 C55.6307566,11.2185158 54.1413227,13.4249748 52.6620881,15.6388915 C51.8963693,16.7733222 51.1298828,17.9092884 50.3001164,18.9983156 C49.7752338,19.7014126 49.1670017,20.3653574 48.3897675,20.7919752 C47.8275969,21.1160513 47.1801028,21.243269 46.5423693,21.3126904 C45.5399817,21.417974 44.5306849,21.4007557 43.5241298,21.398014 C43.52073,17.2212162 43.5241298,13.0444185 43.5229235,8.86762072 C41.4980786,8.86903546 39.4733434,8.86278429 37.4484985,8.87100952 C37.4512403,18.8785556 37.4484985,28.8860905 37.4499243,38.8936255 C41.3349987,38.898451 45.2194151,38.8942836 49.1037218,38.8957093 C51.4697514,38.8930772 53.8640759,38.898451 56.1853599,38.3838775 C57.4938376,38.1003794 58.7343196,37.4613299 59.6755112,36.5021526 C60.6510295,35.5197249 61.3439272,34.2689338 61.7071556,32.934903 C62.0525077,31.6346505 62.1014207,30.2627832 61.9127876,28.9329198 C61.7200967,27.6732454 61.2509267,26.4458142 60.4776406,25.4268663 C59.690536,24.3542897 58.5877999,23.5396578 57.3735292,23.0113755 C56.3401048,22.5441795 55.2261824,22.3013692 54.1164275,22.100453 C55.3734698,21.3505267 56.5733738,20.473273 57.5406669,19.3670276 C58.6586471,18.0695169 59.5847041,16.621977 60.5030841,15.1806885 C61.8219805,13.0794033 63.1284842,10.971538 64.4563736,8.87584603 C62.0690679,8.85665367 59.6809947,8.87246817 57.2936891,8.86762072 L57.2936891,8.86762072 L57.2936891,8.86762072 Z M65.4250924,10.3192183 C64.7577479,11.391137 64.0799847,12.4562561 63.4140659,13.528723 C62.3621073,15.1985647 61.3472173,16.8930823 60.2100448,18.5064438 C59.4807365,19.5645439 58.6752073,20.5751569 57.7235971,21.4419918 C59.1194822,21.9772931 60.3834337,22.862114 61.3596101,23.9917193 C62.4625654,25.2515034 63.1635787,26.8359118 63.456618,28.4782263 C63.6354905,29.4055993 63.5770362,30.3501906 63.5853711,31.2878727 C63.455302,33.4756877 62.6034919,35.6269826 61.1388435,37.2644716 C60.7377788,37.6449182 60.3827757,38.0784454 59.922489,38.3906771 C59.230359,38.9369454 58.4302036,39.3284688 57.6087722,39.6387264 C56.4165451,40.0267403 55.1711279,40.2352237 53.9238463,40.3342562 C52.2788997,40.5042453 50.6228764,40.4513842 48.9697046,40.4588417 C45.139575,40.4588417 41.3102132,40.4581837 37.4808513,40.4588417 C36.8244739,40.4636672 36.1983654,40.0130315 35.9845081,39.3944904 C35.873083,39.1145018 35.8805406,38.8090697 35.8853661,38.5139466 L35.8853661,8.85798067 C35.8813083,8.03798597 36.585831,7.30045243 37.4051787,7.265325 C39.4485579,7.258339 41.4918274,7.26454634 43.5352065,7.2624955 C44.3807655,7.26052144 45.1258662,8.01317854 45.1258662,8.85730072 C45.1334335,12.5092269 45.1203827,16.1616903 45.1320078,19.8136055 C45.8640578,19.7730275 46.6125583,19.7571252 47.3191649,19.5376747 C48.0277454,19.2673372 48.5451705,18.6750072 48.9943804,18.0875028 C50.5087095,16.0881015 51.8433985,13.9614825 53.2613273,11.8948532 C54.0249624,10.757549 54.7729146,9.6100017 55.5503682,8.48300656 C55.7601677,8.19271995 55.9183124,7.85428803 56.2052103,7.62779669 C56.490792,7.3939684 56.8574202,7.26391025 57.2268998,7.26193619 C59.5895296,7.2624955 61.9527077,7.26391025 64.3152277,7.26116849 C64.5705405,7.25503792 64.8306787,7.29771067 65.063838,7.40562637 C65.6726184,7.66982239 66.0799344,8.33585083 66.0159965,9.00043161 C65.9953785,9.5013183 65.6726184,9.90795431 65.4250924,10.3192183 L65.4250924,10.3192183 L65.4250924,10.3192183 Z M82.7597075,28.6445963 C82.5787515,28.1554662 82.2374573,27.7178813 81.7799127,27.4605945 C81.1449207,27.0650133 80.3717445,27.0450533 79.6500031,26.9618135 C79.0796073,26.8888826 78.504386,26.9301187 77.9347578,26.8648648 C77.0830574,26.8661809 76.231357,26.8640971 75.3795469,26.8661809 C75.3769148,28.6549053 75.3781212,30.4430815 75.3788889,32.2318059 C76.3014364,32.2332316 77.2240936,32.2352057 78.1467508,32.2311479 C78.46315,32.1918858 78.7824008,32.1857443 79.1021996,32.1939696 C79.7828136,32.1390247 80.4734085,32.1327735 81.1400947,31.9642101 C81.8728029,31.7550686 82.5401477,31.2081422 82.7740745,30.4657832 C82.9413222,29.8740017 82.9488889,29.2322104 82.7597075,28.6445963 L82.7597075,28.6445963 L82.7597075,28.6445963 Z M81.6472108,33.4716299 C80.8710736,33.7137822 80.0510675,33.7212398 79.2468551,33.7762943 C77.4401443,33.8210398 75.6321178,33.8072214 73.8247494,33.7989961 L73.7993059,33.7708108 C73.7917386,31.0615129 73.7999639,28.352215 73.7957964,25.642917 C73.7993059,25.5211829 73.7751783,25.388372 73.8397742,25.2769469 C76.1638,25.3223504 78.5024119,25.1723213 80.8132769,25.4902558 C81.5371019,25.5844627 82.2484241,25.8252989 82.8455795,26.2537813 C83.85367,26.947995 84.4667276,28.147241 84.49272,29.3655696 C84.5270463,30.1753759 84.3716435,31.0086518 83.9512769,31.7095554 C83.438677,32.557198 82.5924606,33.1873642 81.6472108,33.4716299 L81.6472108,33.4716299 L81.6472108,33.4716299 Z M93.5528121,8.10751704 C93.4759334,6.68659423 92.6551593,5.32998216 91.440779,4.59180157 C90.8779507,4.22089623 90.2223407,4.01526419 89.5604797,3.91685693 C88.9220884,3.83911158 88.2787617,3.87149725 87.6368609,3.86601373 L8.86458287,3.86601373 C7.86280942,3.85963091 6.82120369,4.04212248 5.97977937,4.61725607 C5.07439526,5.1683499 4.41731593,6.07167221 4.08985104,7.07262312 C3.95842202,7.49511742 3.9130075,7.93829555 3.86896386,8.37641791 C3.86763685,18.4684979 3.86896386,28.5600404 3.86837164,38.6513636 C3.91103343,39.2122182 3.97362234,39.7818463 4.19103297,40.3060709 C4.50334141,41.0676222 4.99112251,41.7757641 5.66602328,42.2586429 C6.54184024,42.9589982 7.68395891,43.2521472 8.79231006,43.2286777 L88.3929285,43.2286777 C88.9674917,43.2473217 89.5432619,43.197641 90.1053222,43.0759069 C91.3829831,42.7566563 92.5264068,41.8768802 93.0974605,40.6818017 C93.4331614,40.0583254 93.5431609,39.3484288 93.5921839,38.6513636 C93.5914159,28.9954319 93.5921839,19.340268 93.5921839,9.68423764 C93.5748559,9.15936598 93.6313361,8.62887919 93.5528121,8.10751704 L93.5528121,8.10751704 L93.5528121,8.10751704 Z M90.8676417,44.0570184 C90.163119,44.3005964 89.4118765,44.3941453 88.6688593,44.3693597 L8.58591037,44.3693597 C8.3829323,44.367934 8.17927436,44.3804365 7.97834723,44.3487417 C6.52813144,44.232491 5.13493333,43.5403611 4.17377084,42.4463987 C3.2683977,41.4557458 2.75855091,40.1265404 2.72629684,38.7891096 C2.72697679,28.674317 2.72629684,18.559305 2.72697679,8.4446219 C2.71665681,6.86206689 3.40458642,5.29005116 4.58589033,4.23404571 C5.65638325,3.23583656 7.12601068,2.69977854 8.58449555,2.7251782 L87.9828708,2.7251782 C88.6702851,2.73144039 89.3643895,2.68670583 90.043359,2.8256363 C91.2907499,3.04652349 92.4499664,3.70566461 93.2872997,4.65584908 C94.2388005,5.69528335 94.7493159,7.11050328 94.7322075,8.51534841 L94.7322075,38.2365901 C94.7528254,38.9335456 94.695578,39.6393844 94.4872037,40.3081546 C93.9780039,42.0425922 92.5774033,43.4791649 90.8676417,44.0570184 L90.8676417,44.0570184 L90.8676417,44.0570184 Z M25.691501,27.7908121 C24.0705723,27.7901541 22.4503016,27.7901541 20.8301406,27.7901541 C20.1201343,27.8521179 19.4046445,27.8335836 18.6972703,27.9318483 C18.2886384,27.9807613 17.856537,28.0102626 17.497476,28.2304808 C17.0798511,28.4608983 16.7908695,28.8896 16.7000624,29.3547122 C16.5735028,29.9628347 16.5873212,30.6212959 16.834299,31.1977235 C17.1465306,31.8101231 17.8463376,32.1011884 18.4992056,32.1609588 C18.8616663,32.2180971 19.2304879,32.1711582 19.593826,32.2304899 C21.6261284,32.2366314 23.6584309,32.2318059 25.691501,32.2324639 C25.692159,30.7519133 25.692159,29.2713628 25.691501,27.7908121 L25.691501,27.7908121 L25.691501,27.7908121 Z M18.8369905,33.7818876 C18.1091079,33.7659853 17.3736581,33.6201236 16.7324152,33.2631465 C15.9047326,32.8247939 15.3096609,31.9993047 15.1293628,31.0828986 C14.9504903,30.1843689 14.9951261,29.2204757 15.351555,28.3687752 C15.7437364,27.4282418 16.6127647,26.7224029 17.5993598,26.488476 C18.2797551,26.3336214 18.9786846,26.3068617 19.6722403,26.2532329 C22.2081493,26.1521167 24.7454841,26.1912691 27.2828188,26.1878694 C27.2902764,28.7334294 27.2862186,31.2783313 27.2855605,33.8231236 C24.4695533,33.8148984 21.65223,33.8554764 18.8369905,33.7818876 L18.8369905,33.7818876 L18.8369905,33.7818876 Z M27.2875346,8.86762072 C27.2847928,13.0472699 27.2889603,17.2268094 27.2847928,21.4062393 C25.9535037,21.3959302 24.6002804,21.4709448 23.2937768,21.1627709 C22.2039819,20.890898 21.3260702,20.1093866 20.6553259,19.2391519 C19.0289137,17.1366604 17.6090108,14.8862234 16.1290086,12.680532 C15.2931007,11.4091229 14.4414002,10.1488015 13.6109758,8.87388291 C11.1879177,8.86150111 8.76480472,8.86620598 6.34229492,8.87100952 C7.80296228,11.1607194 9.22366576,13.4766296 10.6732893,15.7723604 C11.420419,16.9370601 12.1867959,18.0943024 13.0674493,19.1634792 C14.0230076,20.3096448 15.2140283,21.2391015 16.4902629,22.0035044 C16.5488269,22.0385989 16.5989463,22.0833444 16.6408404,22.1368636 C14.9209889,22.3784675 13.1981764,22.9171686 11.7905566,23.9628759 C10.4482894,24.9625218 9.48370529,26.4403306 9.07300052,28.0598336 C8.76271003,29.2878133 8.70080105,30.5778664 8.87143727,31.8321669 C9.1122406,33.6593857 9.95708664,35.4206926 11.3034006,36.6893599 C11.9735965,37.3195261 12.7778097,37.8031726 13.6433286,38.1140882 C14.8472904,38.5378547 16.1249507,38.6830584 17.3894506,38.7960189 C18.3979798,38.8654403 19.4087023,38.9060184 20.4207409,38.9060184 C24.7364911,38.9053603 29.0522413,38.9060184 33.3681011,38.9053603 C33.3700751,28.8929998 33.3694171,18.8799812 33.3687591,8.86762072 C31.3411725,8.8669846 29.3144632,8.8669846 27.2875346,8.86762072 L27.2875346,8.86762072 L27.2875346,8.86762072 Z M33.6920675,40.465093 C33.5112209,40.5015035 33.3260973,40.4979941 33.1430574,40.4979941 C28.7165401,40.495362 24.2906808,40.5015035 19.8648216,40.495362 C19.3171276,40.4202378 18.7627436,40.4897688 18.2136238,40.4415138 C16.3601938,40.3335981 14.4599345,40.17326 12.7235228,39.4646794 C10.8652564,38.7064182 9.33998219,37.2396861 8.40421936,35.4764051 C7.41971902,33.6841712 7.05853047,31.5885889 7.22509789,29.562428 C7.3482139,27.5424087 8.0939727,25.5356594 9.43765464,24.0068538 C10.3959876,22.8559725 11.6791315,22.0075622 13.0592239,21.446269 C11.6577458,20.1768339 10.6168639,18.5800326 9.57937078,17.0148165 C8.14833631,14.7685471 6.75171652,12.4989178 5.33443478,10.2436444 C5.06411914,9.82471444 4.7723739,9.37331103 4.78745359,8.85391192 C4.78886834,8.03378557 5.49336914,7.29694298 6.3141864,7.265325 C8.72214295,7.258339 11.1301214,7.265325 13.538045,7.26193619 C14.0416516,7.24745969 14.5446001,7.48192407 14.8527739,7.88101471 C15.0956939,8.20236 15.2890429,8.55737406 15.5173767,8.88900645 C16.8444984,10.8628546 18.1476022,12.8524953 19.4657309,14.8318269 C20.3251083,16.0777925 21.164416,17.3416344 22.120084,18.5180689 C22.3994145,18.8551957 22.7330319,19.1482351 23.1032793,19.382162 C23.535271,19.6458098 24.0506123,19.6843041 24.5389747,19.758551 C24.9236985,19.7709437 25.3054612,19.8321398 25.691501,19.8102057 C25.692159,16.1602647 25.691501,12.5105429 25.692159,8.86081023 C25.6838241,8.20651649 26.1324858,7.57977202 26.7488335,7.3637213 C27.0756514,7.23156845 27.4340542,7.265325 27.7787484,7.2624955 C29.6598153,7.2632632 31.5401146,7.26052144 33.4209622,7.26391025 C34.2500705,7.28323418 34.9806948,8.02830209 34.9642443,8.86081023 C34.9647927,18.881407 34.9655603,28.9019928 34.9642443,38.9225786 C34.9683021,39.6498031 34.4014157,40.3232891 33.6920675,40.465093 L33.6920675,40.465093 L33.6920675,40.465093 Z M54.1186209,29.4289591 C54.0442643,28.9123018 53.721614,28.4278876 53.2517859,28.1918768 C52.7811902,27.9518083 52.2396377,27.9614593 51.7292316,27.8871027 C50.9242507,27.8416992 50.1214633,27.7777613 49.313631,27.7901541 C47.918404,27.7908121 46.523835,27.7893864 45.128608,27.7908121 C45.1271823,29.2713628 45.12795,30.7519133 45.12795,32.2324639 C46.8912309,32.2345477 48.6538538,32.2318059 50.4171347,32.2332316 C51.1285667,32.1554753 51.84954,32.2338896 52.5568045,32.1142392 C53.0974797,31.9973305 53.6796102,31.7536429 53.9404065,31.2315021 C54.2142535,30.6783245 54.2334459,30.0268822 54.1186209,29.4289591 L54.1186209,29.4289591 L54.1186209,29.4289591 Z M54.8671215,27.4578527 C55.4265502,28.0570919 55.7167382,28.8723817 55.7574259,29.6835041 C55.8171963,30.5744666 55.6962298,31.5211416 55.1698119,32.2670101 C54.567831,33.1461281 53.5234396,33.6208914 52.4873832,33.7329746 C51.409323,33.8060151 50.3284114,33.7970221 49.2489255,33.805357 C47.3397829,33.7997638 45.4299823,33.8162143 43.52073,33.7976801 C43.5269813,31.2604551 43.519414,28.7230107 43.5241298,26.1864436 C45.2944296,26.1837018 47.0652778,26.1871017 48.835468,26.1843599 C50.2588803,26.2407305 51.6968788,26.1994944 53.1030729,26.4630324 C53.7739268,26.6034105 54.404751,26.9500787 54.8671215,27.4578527 L54.8671215,27.4578527 L54.8671215,27.4578527 Z" id="path14"></path>
                        </g>
                    </g>
                </g>
            </g>
        </g>
    </g>
</svg>