<?xml version="1.0" encoding="UTF-8" standalone="no"?>
<!DOCTYPE svg PUBLIC "-//W3C//DTD SVG 1.1//EN" "http://www.w3.org/Graphics/SVG/1.1/DTD/svg11.dtd">
<svg width="100%" height="100%" viewBox="0 0 1012 487" version="1.1" xmlns="http://www.w3.org/2000/svg" xmlns:xlink="http://www.w3.org/1999/xlink" xml:space="preserve" xmlns:serif="http://www.serif.com/" style="fill-rule:evenodd;clip-rule:evenodd;stroke-linejoin:round;stroke-miterlimit:2;">
    <g transform="matrix(4.16667,0,0,4.16667,190.102,481.008)">
        <path d="M0,-8.722C-0.412,-9.081 -0.925,-9.366 -1.525,-9.568C-2.127,-9.771 -2.824,-9.873 -3.594,-9.873L-15.635,-9.873L-13.889,-7.116L-3.308,-7.116C-2.81,-7.116 -2.417,-6.994 -2.138,-6.755C-1.853,-6.51 -1.713,-6.189 -1.713,-5.772C-1.713,-5.357 -1.852,-5.033 -2.137,-4.782C-2.416,-4.536 -2.81,-4.412 -3.308,-4.412L-10.105,-4.412L-10.107,-1.101L-8.679,1.151L-6.32,1.151L-6.345,-1.704L-3.609,-1.704C-2.838,-1.704 -2.142,-1.804 -1.54,-2.002C-0.939,-2.198 -0.423,-2.474 -0.006,-2.824C0.409,-3.169 0.729,-3.596 0.944,-4.09C1.16,-4.586 1.27,-5.147 1.27,-5.756C1.27,-6.365 1.16,-6.928 0.944,-7.43C0.729,-7.93 0.411,-8.365 0,-8.722" style="fill:rgb(35,31,32);fill-rule:nonzero;"/>
    </g>
    <g transform="matrix(-0.0130774,4.16665,4.16665,0.0130774,44.5908,464.692)">
        <path d="M-0.481,-3.675L3.661,-3.675L3.663,-0.466L-0.475,-3.662C-0.48,-3.668 -0.481,-3.673 -0.481,-3.675" style="fill:rgb(237,28,36);fill-rule:nonzero;"/>
    </g>
    <g transform="matrix(4.16667,0,0,4.16667,75.7588,452.222)">
        <path d="M0,5.095C-0.153,4.933 -0.302,4.786 -0.442,4.658L-0.663,4.459L-0.375,4.383C-0.037,4.292 0.273,4.155 0.547,3.972C0.864,3.761 1.137,3.5 1.356,3.198C1.576,2.894 1.747,2.548 1.865,2.167C1.982,1.786 2.042,1.378 2.042,0.952C2.042,0.17 1.881,-0.48 1.564,-0.978C1.245,-1.479 0.835,-1.881 0.347,-2.174C-0.146,-2.468 -0.7,-2.676 -1.3,-2.791C-1.905,-2.906 -2.498,-2.965 -3.062,-2.965L-13.569,-2.965L-11.529,-0.207L-2.806,-0.207C-2.25,-0.207 -1.81,-0.092 -1.499,0.133C-1.178,0.363 -1.016,0.712 -1.016,1.17C-1.016,1.584 -1.194,1.914 -1.545,2.15C-1.887,2.38 -2.311,2.496 -2.806,2.496L-9.862,2.496L-7.844,5.104L-3.627,5.104L-1.384,8.06L2.556,8.06C2.079,7.502 0.181,5.287 0,5.096L0,5.095Z" style="fill:rgb(35,31,32);fill-rule:nonzero;"/>
    </g>
    <g transform="matrix(4.16667,0,0,4.16667,119.603,484.37)">
        <path d="M0,-10.52C-0.301,-10.748 -0.684,-10.864 -1.137,-10.864C-1.609,-10.864 -2.004,-10.74 -2.31,-10.496C-2.623,-10.247 -2.886,-9.959 -3.093,-9.644L-8.237,-1.594L-6.52,0.344L-5.964,0.344L-1.196,-7.136L0.278,-4.747C1.114,-3.392 1.458,-2.835 1.621,-2.596L1.792,-2.344L1.487,-2.343C0.936,-2.344 -1.204,-2.364 -2.353,-2.376L-2.647,-2.379L-4.432,0.344L7.008,0.344L0.787,-9.646C0.571,-9.993 0.307,-10.287 0,-10.52" style="fill:rgb(35,31,32);fill-rule:nonzero;"/>
    </g>
    <g transform="matrix(-0.0150529,4.16664,4.16664,0.0150529,295.488,464.684)">
        <path d="M-0.483,-3.684L3.669,-3.684L3.67,-0.466L-0.477,-3.673C-0.482,-3.678 -0.483,-3.683 -0.483,-3.684" style="fill:rgb(237,28,36);fill-rule:nonzero;"/>
    </g>
    <g transform="matrix(4.16667,0,0,4.16667,323.484,454.036)">
        <path d="M0,4.224L-0.221,4.024L0.067,3.948C0.406,3.857 0.716,3.719 0.99,3.537C1.307,3.327 1.58,3.066 1.799,2.762C2.019,2.458 2.19,2.112 2.308,1.732C2.425,1.351 2.485,0.943 2.485,0.517C2.485,-0.265 2.324,-0.916 2.007,-1.414C1.689,-1.913 1.28,-2.314 0.79,-2.609C0.297,-2.904 -0.257,-3.112 -0.857,-3.226C-1.462,-3.341 -2.055,-3.4 -2.619,-3.4L-12.936,-3.4L-10.809,-0.642L-2.363,-0.642C-1.808,-0.642 -1.368,-0.528 -1.056,-0.302C-0.735,-0.073 -0.573,0.277 -0.573,0.735C-0.573,1.149 -0.751,1.479 -1.103,1.714C-1.444,1.945 -1.868,2.061 -2.363,2.061L-9.076,2.061L-7.058,4.668L-3.185,4.668L-0.941,7.624L3.006,7.624C2.528,7.067 0.628,4.857 0.443,4.661C0.285,4.494 0.136,4.347 0,4.224" style="fill:rgb(35,31,32);fill-rule:nonzero;"/>
    </g>
    <g transform="matrix(4.16667,0,0,4.16667,369.173,484.37)">
        <path d="M0,-10.52C-0.301,-10.748 -0.684,-10.864 -1.137,-10.864C-1.609,-10.864 -2.004,-10.74 -2.31,-10.496C-2.624,-10.245 -2.888,-9.958 -3.093,-9.644L-8.235,-1.599L-6.515,0.344L-5.964,0.344L-1.196,-7.136L1.768,-2.343L1.477,-2.344C0.847,-2.345 -1.596,-2.369 -2.648,-2.379L-4.432,0.344L7.009,0.344L0.787,-9.646C0.572,-9.993 0.307,-10.287 0,-10.52" style="fill:rgb(35,31,32);fill-rule:nonzero;"/>
    </g>
    <g transform="matrix(4.16667,0,0,4.16667,-109.515,78.7492)">
        <rect x="74.177" y="90.844" width="2.967" height="6.849" style="fill:rgb(35,31,32);"/>
    </g>
    <g transform="matrix(4.16666,0.00832499,0.00832499,-4.16666,199.394,451.268)">
        <path d="M0.003,-0.002L3.006,-0.002L3,2.75L-1.326,2.747L0.003,-0.002Z" style="fill:rgb(35,31,32);fill-rule:nonzero;"/>
    </g>
    <g transform="matrix(4.16667,0,0,4.16667,261.975,479.485)">
        <path d="M0,-7.999C-0.527,-8.475 -1.164,-8.849 -1.895,-9.111C-2.626,-9.374 -3.438,-9.508 -4.308,-9.508L-10.977,-9.516L-10.977,-6.763L-4.307,-6.75C-3.88,-6.75 -3.477,-6.679 -3.108,-6.537C-2.739,-6.395 -2.412,-6.198 -2.137,-5.955C-1.859,-5.711 -1.64,-5.413 -1.486,-5.069C-1.332,-4.727 -1.253,-4.352 -1.253,-3.953C-1.253,-3.544 -1.332,-3.166 -1.486,-2.829C-1.64,-2.492 -1.854,-2.2 -2.121,-1.961C-2.388,-1.722 -2.713,-1.533 -3.087,-1.403C-3.459,-1.273 -3.87,-1.207 -4.308,-1.207L-7.995,-1.207L-7.995,-5.299L-10.977,-5.299L-10.977,1.517L-4.308,1.517C-3.448,1.517 -2.642,1.372 -1.911,1.087C-1.182,0.803 -0.544,0.406 -0.016,-0.092C0.51,-0.588 0.93,-1.187 1.231,-1.871C1.532,-2.555 1.684,-3.306 1.684,-4.103C1.684,-4.891 1.535,-5.625 1.239,-6.286C0.944,-6.947 0.527,-7.523 0,-7.999" style="fill:rgb(35,31,32);fill-rule:nonzero;"/>
    </g>
    <g transform="matrix(4.16667,0,0,4.16667,418.075,451.218)">
        <path d="M0,5.577C-0.428,5.577 -0.831,5.511 -1.199,5.381C-1.567,5.25 -1.892,5.062 -2.164,4.823C-2.438,4.583 -2.651,4.291 -2.8,3.954C-2.949,3.618 -3.024,3.24 -3.024,2.831C-3.024,2.421 -2.946,2.039 -2.792,1.698C-2.638,1.355 -2.424,1.058 -2.158,0.813C-1.891,0.568 -1.568,0.375 -1.2,0.238C-0.832,0.102 -0.428,0.034 0,0.034L5.841,0.034L5.841,-2.724L0,-2.724C-0.86,-2.724 -1.667,-2.593 -2.399,-2.335C-3.129,-2.078 -3.767,-1.707 -4.293,-1.231C-4.82,-0.755 -5.24,-0.18 -5.54,0.481C-5.84,1.141 -5.992,1.882 -5.992,2.681C-5.992,3.479 -5.84,4.23 -5.539,4.913C-5.239,5.597 -4.819,6.196 -4.292,6.692C-3.765,7.19 -3.127,7.587 -2.397,7.871C-1.667,8.156 -0.86,8.301 0,8.301L6.023,8.301L3.957,5.577L0,5.577Z" style="fill:rgb(35,31,32);fill-rule:nonzero;"/>
    </g>
    <g transform="matrix(4.16667,0,0,4.16667,458.958,451.218)">
        <path d="M0,5.577L0,4.186L5.763,4.187L4.152,1.797L0,1.797L0,0.034L2.964,0.034L1.098,-2.724L-2.983,-2.724L-2.982,8.301L8.533,8.301L6.698,5.577L0,5.577Z" style="fill:rgb(35,31,32);fill-rule:nonzero;"/>
    </g>
    <g transform="matrix(4.16667,0,0,4.16667,524.505,452.217)">
        <path d="M0,5.097C-0.158,4.931 -0.307,4.784 -0.444,4.66L-0.665,4.46L-0.376,4.384C-0.038,4.293 0.273,4.156 0.546,3.973C0.863,3.763 1.135,3.501 1.355,3.198C1.575,2.895 1.746,2.549 1.864,2.168C1.981,1.787 2.041,1.379 2.041,0.953C2.041,0.171 1.88,-0.479 1.563,-0.977C1.245,-1.477 0.835,-1.88 0.346,-2.173C-0.146,-2.467 -0.701,-2.674 -1.301,-2.79C-1.906,-2.905 -2.499,-2.964 -3.063,-2.964L-13.382,-2.964L-11.524,-0.206L-2.807,-0.206C-2.251,-0.206 -1.812,-0.091 -1.499,0.134C-1.179,0.364 -1.017,0.713 -1.017,1.171C-1.017,1.585 -1.195,1.915 -1.546,2.151C-1.888,2.381 -2.312,2.497 -2.807,2.497L-9.704,2.497L-7.947,5.105L-3.628,5.105L-1.385,8.061L2.586,8.061L0.833,6.006C0.48,5.615 0.208,5.316 0,5.097" style="fill:rgb(35,31,32);fill-rule:nonzero;"/>
    </g>
    <g transform="matrix(4.16667,0,0,4.16667,540.932,452.736)">
        <path d="M0,-2.923C0,-2.923 -0.001,-2.923 -0.001,-2.922L-0.015,-0.013L2.24,0L0.008,-2.918C0.005,-2.921 0.002,-2.923 0,-2.923" style="fill:rgb(237,28,36);fill-rule:nonzero;"/>
    </g>
    <g transform="matrix(4.16667,0,0,4.16667,608.567,480.649)">
        <path d="M0,-8.501C-0.399,-8.852 -0.895,-9.128 -1.473,-9.324C-2.055,-9.522 -2.728,-9.622 -3.471,-9.622L-14.965,-9.622L-12.969,-6.938L-3.195,-6.938C-2.713,-6.938 -2.332,-6.819 -2.063,-6.586C-1.79,-6.35 -1.651,-6.026 -1.651,-5.626C-1.651,-5.219 -1.786,-4.902 -2.062,-4.659C-2.332,-4.419 -2.712,-4.298 -3.195,-4.298L-11.498,-4.298L-11.498,1.121L-8.65,1.121L-8.65,-1.662L-3.485,-1.662C-2.742,-1.662 -2.07,-1.76 -1.487,-1.951C-0.909,-2.143 -0.41,-2.412 -0.006,-2.752C0.395,-3.091 0.704,-3.506 0.912,-3.986C1.12,-4.469 1.226,-5.016 1.226,-5.609C1.226,-6.204 1.12,-6.753 0.912,-7.241C0.703,-7.729 0.396,-8.152 0,-8.501" style="fill:rgb(35,31,32);fill-rule:nonzero;"/>
    </g>
    <g transform="matrix(4.16667,0,0,4.16667,715.208,456.921)">
        <path d="M0,2.889C-0.15,3.265 -0.397,3.565 -0.734,3.779C-1.067,3.99 -1.505,4.133 -2.037,4.204C-2.563,4.275 -3.212,4.311 -3.966,4.311C-4.721,4.311 -5.37,4.275 -5.896,4.204C-6.428,4.133 -6.866,3.99 -7.199,3.779C-7.535,3.565 -7.782,3.265 -7.933,2.889C-8.082,2.518 -8.157,2.029 -8.157,1.436C-8.157,0.844 -8.082,0.356 -7.933,-0.016C-7.782,-0.393 -7.535,-0.69 -7.198,-0.898C-6.867,-1.103 -6.429,-1.244 -5.896,-1.315C-5.37,-1.386 -4.721,-1.423 -3.966,-1.423C-3.212,-1.423 -2.563,-1.386 -2.037,-1.315C-1.505,-1.244 -1.067,-1.103 -0.735,-0.898C-0.397,-0.689 -0.15,-0.393 0,-0.016C0.149,0.356 0.224,0.845 0.224,1.436C0.224,2.029 0.149,2.517 0,2.889M1.32,-2.77C0.151,-3.657 -1.628,-4.106 -3.966,-4.106C-6.315,-4.106 -8.096,-3.657 -9.259,-2.77C-10.417,-1.889 -11.004,-0.473 -11.004,1.436C-11.004,3.357 -10.42,4.778 -9.267,5.66C-8.106,6.546 -6.323,6.995 -3.966,6.995C-1.619,6.995 0.162,6.546 1.327,5.66C2.484,4.778 3.072,3.357 3.072,1.436C3.072,-0.473 2.482,-1.888 1.32,-2.77" style="fill:rgb(35,31,32);fill-rule:nonzero;"/>
    </g>
    <g transform="matrix(4.16667,0,0,4.16667,775.615,479.193)">
        <path d="M0,-7.803C-0.508,-8.265 -1.123,-8.629 -1.829,-8.886C-2.534,-9.142 -3.319,-9.273 -4.161,-9.273L-10.705,-9.273L-10.605,-6.588L-4.161,-6.588C-3.745,-6.588 -3.354,-6.518 -3,-6.38C-2.643,-6.241 -2.327,-6.05 -2.06,-5.812C-1.791,-5.573 -1.579,-5.282 -1.431,-4.949C-1.282,-4.615 -1.206,-4.248 -1.206,-3.861C-1.206,-3.46 -1.282,-3.091 -1.431,-2.763C-1.58,-2.435 -1.787,-2.15 -2.045,-1.916C-2.304,-1.683 -2.618,-1.5 -2.979,-1.372C-3.34,-1.245 -3.737,-1.181 -4.161,-1.181L-7.726,-1.181L-7.726,-5.17L-10.602,-5.17L-10.602,1.47L-4.161,1.47C-3.33,1.47 -2.55,1.33 -1.846,1.053C-1.141,0.775 -0.524,0.389 -0.015,-0.096C0.493,-0.58 0.899,-1.164 1.19,-1.83C1.48,-2.496 1.627,-3.229 1.627,-4.006C1.627,-4.774 1.482,-5.49 1.197,-6.134C0.911,-6.778 0.508,-7.34 0,-7.803" style="fill:rgb(35,31,32);fill-rule:nonzero;"/>
    </g>
    <g transform="matrix(4.16667,0,0,4.16667,826.359,460.805)">
        <path d="M0,1.204C0,1.592 -0.053,1.93 -0.157,2.207C-0.265,2.494 -0.437,2.724 -0.684,2.908C-0.926,3.089 -1.25,3.22 -1.645,3.296C-2.034,3.373 -2.528,3.411 -3.114,3.411C-3.894,3.411 -4.534,3.376 -5.015,3.306C-5.51,3.232 -5.899,3.108 -6.171,2.935C-6.451,2.761 -6.645,2.525 -6.748,2.238C-6.847,1.96 -6.897,1.612 -6.897,1.204L-6.897,-4.859L-9.745,-4.859L-9.745,1.204C-9.745,2.016 -9.617,2.732 -9.365,3.333C-9.115,3.931 -8.717,4.438 -8.182,4.841C-7.644,5.246 -6.951,5.554 -6.122,5.756C-5.284,5.96 -4.272,6.063 -3.114,6.063C0.862,6.063 2.877,4.429 2.877,1.204L2.877,-4.859L0,-4.859L0,1.204Z" style="fill:rgb(35,31,32);fill-rule:nonzero;"/>
    </g>
    <g transform="matrix(4.16667,0,0,4.16667,865.823,451.602)">
        <path d="M0,5.441C-0.414,5.441 -0.804,5.377 -1.159,5.249C-1.515,5.123 -1.829,4.94 -2.092,4.706C-2.356,4.472 -2.563,4.187 -2.708,3.858C-2.852,3.53 -2.924,3.161 -2.924,2.761C-2.924,2.362 -2.849,1.991 -2.7,1.657C-2.551,1.323 -2.344,1.033 -2.086,0.795C-1.83,0.556 -1.518,0.368 -1.16,0.234C-0.805,0.101 -0.414,0.034 0,0.034L4.131,0.034L5.964,-2.651L0,-2.651C-0.83,-2.651 -1.609,-2.523 -2.317,-2.273C-3.023,-2.021 -3.638,-1.659 -4.146,-1.197C-4.654,-0.735 -5.059,-0.173 -5.349,0.472C-5.64,1.116 -5.787,1.837 -5.787,2.616C-5.787,3.393 -5.64,4.126 -5.349,4.792C-5.059,5.458 -4.654,6.041 -4.145,6.526C-3.636,7.011 -3.02,7.397 -2.314,7.675C-1.61,7.952 -0.831,8.092 0,8.092L6.894,8.092L4.899,5.441L0,5.441Z" style="fill:rgb(35,31,32);fill-rule:nonzero;"/>
    </g>
    <g transform="matrix(4.16667,0,0,4.16667,939.659,483.134)">
        <path d="M0,-9.693C0.229,-9.893 0.504,-10.069 0.822,-10.218L-10.718,-10.218L-12.565,-7.534L-8.27,-7.534L-8.27,0.525L-5.408,0.525L-5.408,-7.534L-1.086,-7.534C-1.043,-7.87 -0.967,-8.179 -0.861,-8.455C-0.677,-8.936 -0.388,-9.353 0,-9.693" style="fill:rgb(35,31,32);fill-rule:nonzero;"/>
    </g>
    <g transform="matrix(4.16667,0,0,4.16667,988.131,464.187)">
        <path d="M0,-0.599C-0.604,-1.08 -1.503,-1.324 -2.674,-1.324L-7.968,-1.324C-8.33,-1.324 -8.606,-1.385 -8.788,-1.507C-8.978,-1.635 -9.075,-1.856 -9.075,-2.163C-9.075,-2.471 -8.978,-2.69 -8.786,-2.812C-8.604,-2.929 -8.336,-2.987 -7.968,-2.987L-1.258,-2.987L0.575,-5.671L-7.735,-5.671C-8.461,-5.671 -9.093,-5.59 -9.612,-5.43C-10.127,-5.272 -10.553,-5.046 -10.879,-4.761C-11.203,-4.478 -11.445,-4.128 -11.6,-3.725C-11.695,-3.479 -11.759,-3.209 -11.798,-2.903C-11.823,-2.704 -11.835,-2.527 -11.835,-2.359C-11.835,-1.903 -11.764,-1.482 -11.622,-1.107C-11.481,-0.735 -11.263,-0.412 -10.973,-0.151C-10.682,0.113 -10.309,0.321 -9.865,0.468C-9.419,0.617 -8.879,0.692 -8.259,0.692L-2.964,0.692C-2.586,0.692 -2.314,0.755 -2.135,0.886C-1.951,1.02 -1.857,1.243 -1.857,1.548C-1.857,1.854 -1.951,2.08 -2.135,2.218C-2.313,2.354 -2.584,2.421 -2.964,2.421L-10.286,2.421L-12.117,5.072L-3.197,5.072C-2.472,5.072 -1.84,4.991 -1.321,4.832C-0.806,4.673 -0.377,4.443 -0.047,4.147C0.281,3.853 0.523,3.486 0.675,3.054C0.826,2.619 0.903,2.123 0.903,1.581C0.903,0.611 0.599,-0.122 0,-0.599" style="fill:rgb(35,31,32);fill-rule:nonzero;"/>
    </g>
    <g transform="matrix(4.16667,0,0,4.16667,661.306,448.626)">
        <path d="M0,6.87L-0.036,6.799C-0.369,6.427 -0.635,6.134 -0.836,5.919C-0.982,5.764 -1.125,5.621 -1.261,5.497L-1.478,5.298L-1.194,5.222C-0.87,5.135 -0.572,5 -0.307,4.822C0,4.617 0.262,4.363 0.474,4.068C0.687,3.773 0.852,3.434 0.966,3.063C1.079,2.693 1.137,2.296 1.137,1.881C1.137,1.496 1.097,1.141 1.02,0.827C0.943,0.517 0.828,0.239 0.676,0C0.368,-0.488 -0.027,-0.88 -0.5,-1.165C-0.976,-1.452 -1.51,-1.655 -2.09,-1.767C-2.674,-1.879 -3.247,-1.937 -3.792,-1.937L-12.864,-1.937C-12.745,-1.877 -12.637,-1.818 -12.536,-1.758C-11.972,-1.417 -11.5,-0.951 -11.135,-0.372C-10.932,-0.05 -10.781,0.326 -10.687,0.748L-3.545,0.748C-3.008,0.748 -2.582,0.859 -2.28,1.079C-1.97,1.305 -1.812,1.645 -1.812,2.092C-1.812,2.497 -1.985,2.819 -2.326,3.049C-2.656,3.273 -3.066,3.388 -3.545,3.388L-10.358,3.388L-8.411,5.925L-4.337,5.925L-2.17,8.807L1.662,8.807L0.025,6.87L0,6.87Z" style="fill:rgb(35,31,32);fill-rule:nonzero;"/>
    </g>
    <g transform="matrix(4.16667,0,0,4.16667,128.196,290.614)">
        <path d="M0,-21.042C-0.1,-21.171 -0.252,-21.243 -0.41,-21.243C-0.466,-21.243 -0.522,-21.233 -0.577,-21.215C-0.787,-21.144 -0.928,-20.946 -0.928,-20.725L-0.928,-0.316C-0.928,-0.03 -0.696,0.201 -0.41,0.201L15.364,0.201C15.562,0.201 15.742,0.089 15.829,-0.088C15.916,-0.266 15.895,-0.478 15.774,-0.634L0,-21.042Z" style="fill:rgb(237,28,36);fill-rule:nonzero;"/>
    </g>
    <g transform="matrix(4.16667,0,0,4.16667,977.714,72.2092)">
        <path d="M0,63.34C0,68.402 -4.118,72.52 -9.179,72.52L-217.112,72.52C-222.174,72.52 -226.292,68.402 -226.292,63.34L-226.292,-0C-226.292,-5.062 -222.174,-9.18 -217.112,-9.18L-9.179,-9.18C-4.118,-9.18 0,-5.062 0,-0L0,63.34ZM-9.179,-11.848L-217.112,-11.848C-223.645,-11.848 -228.959,-6.533 -228.959,-0L-228.959,63.34C-228.959,69.872 -223.645,75.188 -217.112,75.188L-9.179,75.188C-2.647,75.188 2.667,69.872 2.667,63.34L2.667,-0C2.667,-6.533 -2.647,-11.848 -9.179,-11.848" style="fill:rgb(35,31,32);fill-rule:nonzero;"/>
    </g>
    <g transform="matrix(4.16667,0,0,4.16667,1000,66.7292)">
        <path d="M0,66.038C0,73.398 -5.988,79.386 -13.348,79.386L-223.984,79.386C-231.345,79.386 -237.333,73.398 -237.333,66.038L-237.333,0C-237.333,-7.36 -231.345,-13.347 -223.984,-13.347L-13.348,-13.347C-5.988,-13.347 0,-7.36 0,0L0,66.038ZM-13.348,-16.015L-223.984,-16.015C-232.815,-16.015 -240,-8.83 -240,0L-240,66.038C-240,74.869 -232.815,82.053 -223.984,82.053L-13.348,82.053C-4.517,82.053 2.667,74.869 2.667,66.038L2.667,0C2.667,-8.83 -4.517,-16.015 -13.348,-16.015" style="fill:rgb(35,31,32);fill-rule:nonzero;"/>
    </g>
    <g transform="matrix(4.16667,0,0,4.16667,917.436,203.825)">
        <path d="M0,0.968C-0.956,3.163 -2.317,4.982 -4.163,6.527C-6.033,8.09 -8.365,9.338 -11.095,10.234C-13.871,11.144 -17.103,11.605 -20.7,11.605L-40.686,11.605L-40.686,25.171C-40.686,25.457 -40.918,25.69 -41.204,25.69L-50.951,25.69C-51.236,25.69 -51.468,25.457 -51.468,25.171L-51.468,2.526C-51.468,2.239 -51.236,2.008 -50.951,2.008L-19.218,2.008C-16.295,2.008 -13.938,1.238 -12.211,-0.282C-10.429,-1.852 -9.486,-4.03 -9.486,-6.579C-9.486,-9.137 -10.436,-11.307 -12.233,-12.853C-13.956,-14.333 -16.306,-15.083 -19.218,-15.083L-57.714,-15.083C-57.939,-15.083 -58.138,-15.228 -58.207,-15.443C-58.715,-17.032 -59.392,-18.497 -60.216,-19.795C-61.209,-21.355 -62.359,-22.783 -63.633,-24.039C-63.783,-24.186 -63.829,-24.41 -63.749,-24.604C-63.669,-24.799 -63.48,-24.926 -63.27,-24.926L-20.626,-24.926C-17.036,-24.926 -13.81,-24.453 -11.039,-23.519C-8.317,-22.601 -6.004,-21.321 -4.162,-19.714C-2.327,-18.112 -0.967,-16.247 -0.004,-14.011C0.957,-11.777 1.444,-9.249 1.444,-6.496C1.444,-3.746 0.958,-1.235 0,0.968M2.519,-15.001C1.404,-17.588 -0.238,-19.84 -2.361,-21.692C-4.477,-23.54 -7.105,-25.001 -10.172,-26.035C-13.228,-27.064 -16.75,-27.586 -20.641,-27.586L-72.577,-27.586C-72.823,-27.586 -73.036,-27.412 -73.084,-27.17C-73.133,-26.928 -73.003,-26.685 -72.775,-26.59C-71.477,-26.05 -70.368,-25.501 -69.384,-24.911C-66.639,-23.263 -64.343,-21.009 -62.562,-18.21C-61.554,-16.624 -60.812,-14.746 -60.355,-12.628C-60.304,-12.388 -60.093,-12.219 -59.849,-12.219L-19.233,-12.219C-17,-12.219 -15.255,-11.693 -14.048,-10.656C-12.847,-9.623 -12.264,-8.256 -12.264,-6.477C-12.264,-4.695 -12.849,-3.313 -14.052,-2.253C-15.259,-1.191 -17.001,-0.653 -19.233,-0.653L-53.728,-0.653C-54.014,-0.653 -54.246,-0.421 -54.246,-0.135L-54.246,28.035C-54.246,28.322 -54.014,28.554 -53.728,28.554L-38.457,28.554C-38.171,28.554 -37.939,28.322 -37.939,28.035L-37.939,14.469L-20.715,14.469C-16.825,14.469 -13.304,13.961 -10.25,12.96C-7.185,11.954 -4.546,10.537 -2.406,8.747C-0.254,6.947 1.402,4.735 2.518,2.173C3.628,-0.381 4.191,-3.262 4.191,-6.394C4.191,-9.524 3.628,-12.42 2.519,-15.001" style="fill:rgb(35,31,32);fill-rule:nonzero;"/>
    </g>
    <g transform="matrix(4.16667,0,0,4.16667,646.12,102.598)">
        <path d="M0,49.575C-0.083,49.762 -0.269,49.882 -0.473,49.882L-13.571,49.882C-13.733,49.882 -13.886,49.805 -13.984,49.677L-24.156,36.251L-24.829,35.361L-45.268,35.361C-45.429,35.361 -45.58,35.287 -45.678,35.16L-51.87,27.149C-51.991,26.993 -52.012,26.782 -51.925,26.604C-51.838,26.427 -51.658,26.314 -51.46,26.314L-21.736,26.314C-18.928,26.314 -16.495,25.634 -14.502,24.292C-12.26,22.783 -11.075,20.579 -11.075,17.918C-11.075,14.325 -12.785,12.336 -14.22,11.3C-16.08,9.956 -18.608,9.274 -21.736,9.274L-56.166,9.274C-56.391,9.274 -56.591,9.128 -56.659,8.913C-57.17,7.3 -57.853,5.815 -58.688,4.5C-59.651,2.988 -60.76,1.599 -61.987,0.373C-62.135,0.225 -62.179,0.003 -62.099,-0.192C-62.019,-0.385 -61.83,-0.511 -61.621,-0.511L-22.991,-0.511C-20.339,-0.511 -17.55,-0.235 -14.701,0.311C-11.973,0.833 -9.462,1.773 -7.238,3.107C-5.092,4.394 -3.292,6.167 -1.887,8.375C-1.227,9.415 -0.719,10.634 -0.378,11.999C-0.02,13.438 0.162,15.07 0.162,16.851C0.162,18.751 -0.102,20.57 -0.624,22.261C-1.14,23.933 -1.888,25.452 -2.845,26.775C-3.789,28.081 -4.961,29.206 -6.332,30.119C-7.576,30.948 -9.094,31.889 -11.385,32.583C-11.403,32.589 -11.422,32.594 -11.44,32.596L-14.536,33.172L-11.941,35.975C-10.992,36.838 -1.21,47.763 -0.087,49.018C0.049,49.171 0.083,49.388 0,49.575M-3.195,41.228C-4.913,39.319 -6.307,37.798 -7.347,36.696C-8.09,35.909 -8.793,35.212 -9.447,34.611C-7.756,34.144 -6.202,33.443 -4.815,32.519C-3.17,31.423 -1.759,30.068 -0.622,28.495C0.513,26.928 1.395,25.138 2,23.177C2.604,21.222 2.909,19.129 2.909,16.954C2.909,14.947 2.7,13.09 2.287,11.432C1.874,9.779 1.249,8.286 0.429,6.996C-1.209,4.422 -3.316,2.35 -5.833,0.841C-8.335,-0.66 -11.149,-1.717 -14.197,-2.3C-17.217,-2.878 -20.181,-3.171 -23.006,-3.171L-70.767,-3.171C-71.012,-3.171 -71.225,-2.998 -71.274,-2.757C-71.324,-2.517 -71.197,-2.275 -70.971,-2.177C-69.758,-1.656 -68.74,-1.146 -67.856,-0.616C-65.111,1.031 -62.815,3.285 -61.034,6.085C-60.016,7.687 -59.269,9.586 -58.814,11.728C-58.764,11.968 -58.552,12.138 -58.308,12.138L-21.751,12.138C-19.216,12.138 -17.232,12.644 -15.853,13.64C-14.507,14.613 -13.853,16.045 -13.853,18.019C-13.853,19.767 -14.575,21.102 -16.06,22.101C-17.588,23.132 -19.503,23.654 -21.751,23.654L-57.102,23.654C-57.299,23.654 -57.479,23.766 -57.566,23.944C-57.653,24.121 -57.632,24.333 -57.511,24.489L-47.049,38.024C-46.951,38.151 -46.8,38.225 -46.64,38.225L-26.217,38.225L-15.372,52.541C-15.274,52.67 -15.121,52.746 -14.959,52.746L5.492,52.746C5.694,52.746 5.878,52.629 5.963,52.445C6.047,52.262 6.018,52.046 5.887,51.892L-3.195,41.228Z" style="fill:rgb(35,31,32);fill-rule:nonzero;"/>
    </g>
    <g transform="matrix(4.16667,0,0,4.16667,381.158,102.568)">
        <path d="M0,49.589C-0.085,49.773 -0.268,49.889 -0.47,49.889L-13.568,49.889C-13.73,49.889 -13.883,49.813 -13.981,49.684L-24.152,36.258L-24.826,35.368L-45.265,35.368C-45.425,35.368 -45.577,35.294 -45.675,35.167L-51.867,27.156C-51.988,27 -52.009,26.788 -51.922,26.611C-51.835,26.434 -51.655,26.321 -51.457,26.321L-21.733,26.321C-18.925,26.321 -16.491,25.641 -14.5,24.298C-12.257,22.79 -11.072,20.586 -11.072,17.925C-11.072,15.986 -11.59,14.305 -12.611,12.925C-13.102,12.263 -13.626,11.734 -14.217,11.307C-16.077,9.963 -18.605,9.281 -21.733,9.281L-63.309,9.281C-63.474,9.281 -63.628,9.203 -63.726,9.071L-70.188,0.321C-70.304,0.164 -70.322,-0.045 -70.234,-0.22C-70.146,-0.393 -69.967,-0.504 -69.771,-0.504L-22.988,-0.504C-20.336,-0.504 -17.547,-0.227 -14.698,0.318C-11.969,0.84 -9.458,1.78 -7.235,3.114C-5.089,4.401 -3.289,6.174 -1.884,8.382C-1.216,9.434 -0.704,10.671 -0.363,12.061C-0.188,12.773 -0.053,13.589 0.039,14.488C0.124,15.323 0.165,16.1 0.165,16.859C0.165,18.23 0.023,19.578 -0.257,20.865C-0.365,21.357 -0.478,21.796 -0.614,22.238L-0.636,22.31C-1.152,23.969 -1.895,25.474 -2.842,26.782C-3.786,28.088 -4.958,29.213 -6.329,30.126C-6.774,30.423 -7.09,30.662 -7.425,30.915C-8.049,31.387 -8.756,31.922 -10.468,32.953C-10.484,32.963 -10.501,32.972 -10.518,32.98L-12.851,34.056C-10.439,36.731 -1.225,47.669 -0.073,49.037C0.056,49.192 0.085,49.406 0,49.589M-3.191,41.235C-4.91,39.325 -6.304,37.805 -7.344,36.703C-8.087,35.916 -8.791,35.219 -9.443,34.618C-7.752,34.151 -6.198,33.45 -4.812,32.527C-3.167,31.43 -1.756,30.075 -0.619,28.502C0.504,26.951 1.38,25.179 1.986,23.233L2.003,23.184C2.159,22.681 2.297,22.148 2.426,21.555C2.749,20.075 2.913,18.529 2.913,16.961C2.913,16.107 2.866,15.239 2.771,14.31C2.665,13.269 2.512,12.351 2.305,11.504C1.892,9.822 1.262,8.308 0.432,7.003C-1.206,4.429 -3.313,2.358 -5.83,0.848C-8.332,-0.653 -11.146,-1.71 -14.194,-2.293C-17.214,-2.871 -20.178,-3.164 -23.003,-3.164L-75.261,-3.164C-75.456,-3.164 -75.635,-3.054 -75.723,-2.88C-75.811,-2.705 -75.793,-2.496 -75.677,-2.339L-65.135,11.936C-65.037,12.068 -64.882,12.146 -64.718,12.146L-21.748,12.146C-19.213,12.146 -17.229,12.651 -15.85,13.648C-15.488,13.909 -15.169,14.235 -14.846,14.67C-14.185,15.564 -13.85,16.693 -13.85,18.027C-13.85,19.775 -14.571,21.11 -16.057,22.109C-17.585,23.139 -19.5,23.661 -21.748,23.661L-57.099,23.661C-57.296,23.661 -57.477,23.774 -57.563,23.951C-57.65,24.128 -57.629,24.34 -57.508,24.496L-47.046,38.031C-46.948,38.158 -46.797,38.233 -46.636,38.233L-26.214,38.233L-15.369,52.548C-15.271,52.677 -15.118,52.753 -14.956,52.753L5.496,52.753C5.697,52.753 5.881,52.636 5.966,52.452C6.05,52.269 6.021,52.053 5.89,51.9L-3.191,41.235Z" style="fill:rgb(35,31,32);fill-rule:nonzero;"/>
    </g>
</svg>
