<?xml version="1.0" encoding="UTF-8" standalone="no"?>
<svg width="75px" height="36px" viewBox="0 0 75 36" version="1.1" xmlns="http://www.w3.org/2000/svg" xmlns:xlink="http://www.w3.org/1999/xlink">
    <!-- Generator: Sketch 3.6.1 (26313) - http://www.bohemiancoding.com/sketch -->
    <title>Untitled</title>
    <desc>Created with Sketch.</desc>
    <defs></defs>
    <g id="Page-1" stroke="none" stroke-width="1" fill="none" fill-rule="evenodd">
        <g id="RRP_Box-Logo_Black" fill="#231F20">
            <g id="g10" transform="translate(37.170731, 17.992475) scale(1, -1) translate(-37.170731, -17.992475) translate(0.000000, 0.013381)">
                <g id="g12">
                    <path d="M66.5126116,7.49754964 C65.8415315,7.49392037 65.1712039,7.50019215 64.5007092,7.4944472 C64.4430925,7.36172804 64.4896709,7.18226324 64.4770437,7.03124721 C64.7440541,7.02965 65.0116499,7.03016847 65.2792458,7.03124721 C65.2907858,6.26792179 65.2803329,5.50462983 65.2844304,4.74136295 C65.4690715,4.7402842 65.654298,4.73969884 65.8400262,4.74247514 C65.8437057,5.50521519 65.8331691,6.26850716 65.8452109,7.03076219 C66.1106325,7.03016847 66.3762213,7.03016847 66.6421447,7.03076219 C66.6410576,7.18069111 66.6484165,7.33020191 66.6390506,7.47922769 C66.6075245,7.48399424 66.5440541,7.49284999 66.5126116,7.49754964 L66.5126116,7.49754964 Z M68.8538241,7.49552595 C68.7735453,7.46132386 68.792946,7.35803187 68.7646812,7.28989529 C68.6246115,6.73480959 68.464054,6.18505072 68.3381168,5.6263692 C68.1502979,6.239565 68.0076359,6.86593154 67.8392178,7.48448762 C67.5617544,7.50646392 67.2821168,7.50019215 67.0046534,7.48817542 C67.006744,6.57272179 67.004068,5.65730996 67.0056569,4.74136295 C67.1760819,4.7402842 67.3466743,4.7402842 67.5181865,4.74247514 C67.5302283,5.45478175 67.4935175,6.16875246 67.5385906,6.8801392 C67.6886115,6.1619873 67.8811969,5.45269115 68.0569739,4.7402842 C68.2320819,4.74087793 68.4078589,4.74247514 68.584054,4.73770859 C68.7839983,5.4363929 68.9361934,6.14875803 69.1281098,6.84969181 C69.1601376,6.14826465 69.1328763,5.44432878 69.1423258,4.74136295 C69.3102422,4.7402842 69.4786603,4.7402842 69.6474965,4.74136295 C69.6444024,5.65991902 69.6658937,6.57952039 69.6412247,7.49653779 C69.3783119,7.49494058 69.1161516,7.50019215 68.8538241,7.49552595 L68.8538241,7.49552595 Z M68.9780889,20.5704246 C68.7640958,19.5947033 68.2945488,18.6856302 67.6672039,17.9122783 C67.0120123,17.0966128 66.126521,16.4880832 65.1722074,16.0725571 C64.1276639,15.6088637 62.9683887,15.5464804 61.8457406,15.4604317 C59.9881239,15.3428568 58.1247372,15.4304944 56.2662007,15.383247 C56.2745631,12.5095189 56.2677059,9.6357907 56.2692948,6.76156081 C54.7281101,6.76156081 53.1863401,6.76048206 51.6450719,6.76205419 C51.6444865,14.3938951 51.6444865,22.0251423 51.6450719,29.6568912 C53.3290022,29.6595672 55.0128488,29.6568912 56.6974481,29.6579784 C58.5354968,29.6574766 60.3742981,29.6736996 62.2108417,29.5919156 C63.1986883,29.5179087 64.2137963,29.4901456 65.1491273,29.1259644 C66.224528,28.7315951 67.1562631,27.9955394 67.8485837,27.0890586 C68.5526952,26.1904384 68.9525,25.0819227 69.1025209,23.9577694 C69.2525418,22.8330308 69.2236916,21.679442 68.9780889,20.5704246 L68.9780889,20.5704246 Z M69.9963746,25.5394279 C69.7051969,26.4610446 69.2404164,27.3303965 68.6172526,28.0705498 C67.9494338,28.8521805 67.1530018,29.5409888 66.2161656,29.978508 C65.2100053,30.5135323 64.06319,30.6972536 62.9379496,30.7548703 C62.4479984,30.7968494 61.9569601,30.8283755 61.4650019,30.8195114 C60.9802354,30.8771281 60.4907023,30.8383268 60.0039288,30.8498668 C57.2047094,30.8487797 54.405908,30.8508703 51.6066886,30.8487797 C50.9756642,30.8351491 50.4222426,30.2607379 50.4369604,29.6285428 L50.4369604,6.75470366 C50.4253367,6.12269253 50.9804308,5.55545631 51.6104517,5.53873157 C53.1316502,5.53562913 54.6535178,5.53981031 56.175469,5.53664098 C56.8290718,5.49155944 57.4585073,6.04191204 57.473225,6.70227161 C57.4779916,9.19208339 57.4769045,11.6822297 57.4737268,14.1719578 C58.3854759,14.1892679 59.2983121,14.1714561 60.2101448,14.1809056 C60.5232319,14.2280693 60.8400821,14.2098394 61.1559288,14.2113446 C62.2072458,14.2575049 63.2642493,14.3209753 64.3003468,14.52393 C65.8210437,14.8665362 67.2459077,15.6638881 68.3114408,16.8044316 C68.9990784,17.5598044 69.5546742,18.4432051 69.9008763,19.4057974 C70.2617962,20.4277626 70.4160819,21.5157904 70.4039564,22.5964594 C70.4160819,23.5899924 70.2874686,24.587205 69.9963746,25.5394279 L69.9963746,25.5394279 Z M73.4125696,5.91546466 C73.3264372,4.83211138 72.8863257,3.78765984 72.2074686,2.94254209 C71.2140191,1.70399996 69.6700749,0.934820883 68.084737,0.874034821 C66.9117475,0.86308848 65.7377545,0.872462696 64.5647649,0.869360257 L6.70514826,0.869360257 C6.24874688,0.862503114 5.79080682,0.891930291 5.34276781,0.983657118 C4.15250164,1.21665781 3.05138668,1.86137974 2.24820622,2.76837066 C1.60505641,3.51068981 1.14920694,4.42085006 0.970327502,5.38814203 C0.816081931,6.14875803 0.886871058,6.92832317 0.871158166,7.69906601 L0.871158166,29.4146334 C0.861223672,30.3667728 1.09360555,31.3230097 1.55944804,32.1555671 C2.44602642,33.8001107 4.21806261,34.9233441 6.08297128,35.0235253 C6.15019636,35.0323894 6.21781448,35.0377413 6.28549949,35.0403336 L67.0880262,35.0403336 C67.629406,35.0366542 68.1744652,35.0634138 68.711162,34.9736855 C69.9245418,34.7932256 71.0696846,34.1909678 71.9142839,33.3022988 C72.9042212,32.2715532 73.4597334,30.8461874 73.4419215,29.4182292 C73.4413361,22.0743967 73.4419215,14.7306477 73.4419215,7.38691549 C73.4335591,6.89637056 73.4644999,6.40439566 73.4125696,5.91546466 L73.4125696,5.91546466 Z M72.4195383,34.0273162 C71.3456428,35.1441106 69.8322213,35.8024799 68.2935453,35.9070096 C55.3696711,35.908013 42.4457132,35.9070096 29.5217554,35.9074277 C21.6408914,35.9032465 13.7593585,35.9158737 5.87845281,35.9011559 C4.48774902,35.7626751 3.1295163,35.197128 2.1039888,34.2382152 C1.92925709,34.0608493 1.75194978,33.8861594 1.57617278,33.7093789 C0.641877057,32.6423406 0.0722234407,31.2580341 0.00352787448,29.8395254 C0.00457317062,22.0743967 0.00352787448,14.3099369 0.00401785913,6.54489182 C-0.0553026885,4.95487096 0.548519568,3.35850305 1.60505641,2.17404873 C1.91724037,1.860301 2.21831075,1.53080693 2.58132955,1.27327105 C3.58591768,0.517291137 4.82028699,0.0725174616 6.07512737,0.00218859089 L68.0816429,0.00218859089 C68.4776847,-0.0151240972 68.8668694,0.0750980051 69.2546324,0.142258115 C70.4459355,0.408743404 71.5801236,0.999470358 72.4257264,1.88865779 C73.5441933,2.96295463 74.2136009,4.47595808 74.3090156,6.01982703 C74.3101027,13.9768638 74.3090156,21.9333235 74.3095173,29.8903686 C74.2073292,31.4337274 73.5467856,32.9571838 72.4195383,34.0273162 L72.4195383,34.0273162 Z M43.6864379,6.76156081 C43.6118456,6.74317196 43.5794832,6.81875941 43.5452811,6.86540471 C42.4184519,8.55411825 41.2827585,10.2365433 40.1548422,11.9246548 C39.5709816,12.7896582 38.9865356,13.6558324 38.3538388,14.4862157 C37.9536158,15.0223272 37.4898388,15.528585 36.8971977,15.8538811 C36.4685426,16.1009891 35.9748284,16.1979926 35.4885566,16.2509264 C34.7242361,16.3312052 33.9546472,16.3180762 33.187149,16.3159857 C33.1845567,13.1311774 33.187149,9.94636909 33.1862291,6.76156081 C31.6422849,6.76263955 30.0984243,6.757873 28.5544801,6.76414478 C28.5565707,14.3948986 28.5544801,22.025644 28.5555672,29.6563895 C31.5179365,29.6600689 34.479804,29.6568912 37.4415879,29.6579784 C39.2456854,29.6559714 41.0713579,29.6600689 42.8413369,29.2677066 C43.8390512,29.0515393 44.7849187,28.5642641 45.5025773,27.8328913 C46.24641,27.0837903 46.7747445,26.1300621 47.0517061,25.1128635 C47.3150371,24.121421 47.3523333,23.0753722 47.2085006,22.0613514 C47.0615737,21.1008496 46.7038316,20.1649333 46.1142009,19.3879856 C45.5140337,18.5701459 44.6731975,17.9489891 43.747316,17.5461738 C42.9593299,17.1899369 42.1099641,17.004794 41.263776,16.8515954 C42.2222707,16.2797766 43.1371975,15.6108707 43.8747585,14.7673585 C44.7272184,13.7780066 45.4333368,12.6742575 46.1336016,11.575275 C47.1392601,9.97304505 48.1354692,8.3657977 49.1479848,6.76783258 C47.3276643,6.75319844 45.5067584,6.76525697 43.6864379,6.76156081 L43.6864379,6.76156081 Z M49.8866329,7.86840398 C49.3777827,8.68574194 48.8609883,9.49789523 48.3532253,10.3156513 C47.5511068,11.5889056 46.7772532,12.8809753 45.9101591,14.1111634 C45.3540616,14.9179648 44.7398456,15.6885571 44.0142428,16.3495188 C45.0786051,16.757686 46.0423682,17.4323619 46.7867027,18.293686 C47.6277061,19.2542713 48.1622288,20.4623828 48.3856713,21.7146475 C48.5220615,22.4217695 48.4774901,23.1420203 48.4838455,23.8570029 C48.3846678,25.5252119 47.7351626,27.1655742 46.6183682,28.4141596 C46.3125563,28.7042502 46.0418664,29.0348146 45.6908978,29.2728913 C45.1631487,29.6894209 44.5530302,29.9879574 43.9266888,30.2245289 C43.0176156,30.5203895 42.067985,30.6793581 41.1169328,30.7548703 C39.862661,30.884487 38.5999433,30.8441804 37.3393998,30.8498668 C34.418926,30.8498668 31.4990375,30.8493651 28.5791491,30.8498668 C28.0786613,30.8535463 27.6012537,30.5099365 27.4381875,30.0382989 C27.3532258,29.8248076 27.3589122,29.5919156 27.3625917,29.3668843 L27.3625917,6.75421028 C27.3594976,6.12896431 27.8966962,5.56659498 28.5214488,5.53981031 C30.0795254,5.53448349 31.6375184,5.53921659 33.195595,5.53765282 C33.8403336,5.5361476 34.408473,6.11004863 34.408473,6.75369182 C34.414243,9.53828548 34.4042918,12.3232889 34.4131559,15.1078742 C34.9713441,15.0769334 35.5420758,15.064808 36.0808632,14.897477 C36.6211559,14.6913446 37.0156925,14.239693 37.3582151,13.7917209 C38.512891,12.2671774 39.5305913,10.6456304 40.6117621,9.06982556 C41.1940338,8.20263115 41.7643474,7.3276263 42.3571557,6.46829252 C42.5171279,6.24694897 42.6377132,5.98889462 42.8564728,5.81619498 C43.0742289,5.6379009 43.3537829,5.53873157 43.6355111,5.53722634 C45.4370163,5.53765282 47.2389396,5.53873157 49.0403611,5.53664098 C49.2350371,5.53196641 49.4333925,5.56450439 49.6111765,5.6467901 C50.0753716,5.84823958 50.38595,6.35608625 50.3371973,6.8628291 C50.3214761,7.24475522 50.0753716,7.55481514 49.8866329,7.86840398 L49.8866329,7.86840398 Z M63.1042772,21.8415047 C62.9662981,21.468543 62.7060612,21.1348845 62.3571831,20.9387033 C61.8730019,20.6370727 61.2834549,20.6218531 60.7331274,20.5583828 C60.2982006,20.502773 59.8595943,20.5342155 59.4252529,20.4844594 C58.7758313,20.4854629 58.1264097,20.4838741 57.4769045,20.4854629 C57.4748975,21.8493653 57.4758174,23.2128496 57.4764027,24.576752 C58.1798452,24.5778391 58.8833714,24.5793443 59.5868975,24.5762503 C59.8281518,24.546313 60.0715804,24.54163 60.3154271,24.5479018 C60.8343957,24.5060064 61.3609741,24.5012398 61.8693225,24.3727102 C62.4280124,24.2132398 62.9368625,23.7962085 63.1152319,23.2301597 C63.242758,22.7789263 63.248528,22.2895604 63.1042772,21.8415047 L63.1042772,21.8415047 Z M62.2559984,25.5221178 C61.6641936,25.7067589 61.0389392,25.7124454 60.4257267,25.7544244 C59.04811,25.7885429 57.6694898,25.7780063 56.2913714,25.7717345 L56.2719707,25.7502433 C56.2662007,23.6844036 56.2724725,21.6185639 56.2692948,19.5527242 C56.2719707,19.459902 56.2535735,19.3586337 56.3028279,19.273672 C58.0748975,19.3082922 59.8580891,19.193895 61.6201239,19.4363201 C62.1720403,19.5081528 62.7144235,19.6917904 63.1697545,20.0185082 C63.9384235,20.5478462 64.4058799,21.4622712 64.4256987,22.3912468 C64.451873,23.0087242 64.3333782,23.644097 64.0128486,24.178536 C63.6219914,24.8248635 62.976751,25.3053652 62.2559984,25.5221178 L62.2559984,25.5221178 Z M71.3340191,6.18198173 C71.2753989,5.0985281 70.6495592,4.0641114 69.7235941,3.50124869 C69.2944373,3.21843337 68.7945349,3.06163895 68.2898659,2.98660341 C67.8030924,2.92732257 67.3125558,2.95201665 66.8231063,2.94783547 L6.75924443,2.94783547 C5.99539218,2.94296857 5.20116781,3.08211839 4.55958177,3.52065775 C3.86922638,3.9408668 3.3682034,4.62965006 3.11851142,5.39287513 C3.01829679,5.71502703 2.98366822,6.05295037 2.95008494,6.38701866 C2.9490731,14.0822296 2.95008494,21.7770308 2.94963338,29.4716648 C2.98216299,29.8993163 3.02988703,30.3336578 3.19566264,30.733379 C3.43379782,31.3140619 3.80573092,31.8540201 4.32034275,32.2222152 C4.98815319,32.7562361 5.85901867,32.9797622 6.70413642,32.9618668 L67.3996081,32.9618668 C67.8377126,32.9760828 68.276737,32.9382013 68.7053084,32.845379 C69.6795244,32.6019504 70.551385,31.9311212 70.9868136,31.0198738 C71.2427857,30.5444731 71.3266602,30.003177 71.36404,29.4716648 C71.3634547,22.1090169 71.36404,14.7469543 71.36404,7.38423117 C71.3508275,6.98401655 71.3938937,6.57952039 71.3340191,6.18198173 L71.3340191,6.18198173 Z M69.2865767,33.5934765 C68.7493781,33.7792047 68.1765558,33.8505357 67.6100053,33.8316368 L6.54675663,33.8316368 C6.3919859,33.8305497 6.23669671,33.8400828 6.08348974,33.8159155 C4.97770022,33.7272744 3.91538666,33.1995253 3.18250027,32.365379 C2.49215325,31.6100062 2.10339507,30.596487 2.07880134,29.5766961 C2.07931981,21.8641667 2.07880134,14.15147 2.07931981,6.43902423 C2.07145082,5.232326 2.59599715,4.03366401 3.49674138,3.22845985 C4.31299223,2.46732537 5.43358314,2.05858113 6.54567789,2.07794838 L67.0869391,2.07794838 C67.6110924,2.08272329 68.1403467,2.04861319 68.658061,2.15454768 C69.6091969,2.32297416 70.4930993,2.82556927 71.1315662,3.55008493 C71.8570853,4.34265355 72.2463536,5.42175875 72.2333083,6.49295315 L72.2333083,29.1554 C72.2490296,29.6868285 72.205378,30.2250306 72.046493,30.7349679 C71.6582282,32.0574766 70.59027,33.1528633 69.2865767,33.5934765 L69.2865767,33.5934765 Z M19.5897695,21.1904942 C18.3538114,21.1899925 17.118355,21.1899925 15.8829822,21.1899925 C15.3416024,21.2372399 14.7960414,21.2231075 14.2566686,21.2980343 C13.9450868,21.3353305 13.6156094,21.3578253 13.3418255,21.5257416 C13.0233864,21.701435 12.803038,22.02832 12.7337976,22.3829681 C12.6372959,22.8466614 12.6478324,23.3487381 12.836153,23.7882642 C13.0742296,24.2552189 13.6078324,24.4771562 14.1056442,24.5227311 C14.3820205,24.566299 14.663247,24.5305081 14.9402923,24.5757485 C16.4899229,24.5804314 18.0395536,24.576752 19.5897695,24.5772537 C19.5902713,23.4483339 19.5902713,22.3194141 19.5897695,21.1904942 L19.5897695,21.1904942 Z M14.3632052,25.7586893 C13.8081948,25.7465638 13.2474143,25.6353443 12.7584666,25.3631492 C12.1273586,25.0289053 11.6736164,24.3994698 11.5361391,23.7007102 C11.3997488,23.0155813 11.4337837,22.2806127 11.7055607,21.6311911 C12.004599,20.9140343 12.6672331,20.3758322 13.4195119,20.1974629 C13.9383132,20.0793863 14.471247,20.0589821 15.0000832,20.0180901 C16.9337139,19.940989 18.8684316,19.9708427 20.8031493,19.9682504 C20.8088357,21.9092399 20.8057416,23.8497276 20.8052399,25.7901318 C18.6580344,25.78386 16.5098254,25.8148007 14.3632052,25.7586893 L14.3632052,25.7586893 Z M20.8067451,6.76156081 C20.8046545,9.94854331 20.8078322,13.1354422 20.8046545,16.3222574 C19.7895465,16.3143968 18.7577138,16.3715954 17.7615048,16.1366128 C16.9305362,15.9293097 16.2611285,15.3334073 15.749686,14.6698533 C14.5095467,13.0667035 13.4268707,11.3507454 12.298369,9.66890568 C11.6609893,8.69945623 11.0115677,7.73846113 10.3783691,6.76633572 C8.53078724,6.7568946 6.6831636,6.76048206 4.83599988,6.76414478 C5.94975874,8.51004857 7.03304512,10.2759301 8.13838307,12.0264248 C8.70806947,12.9145084 9.29243182,13.7969056 9.96393006,14.6121529 C10.6925433,15.4861041 11.6006966,16.1948149 12.5738255,16.7776721 C12.6184805,16.8044316 12.6566965,16.8385501 12.6886408,16.8793585 C11.3772541,17.0635815 10.0636095,17.474341 8.99029943,18.2716929 C7.96682071,19.0339229 7.23132525,20.1607521 6.91816289,21.3956232 C6.68156638,22.3319576 6.63436081,23.3156231 6.76447091,24.2720273 C6.94808345,25.6652816 7.59227856,27.0082781 8.61884299,27.9756369 C9.12986737,28.4561387 9.7430799,28.8249191 10.4030381,29.0619923 C11.321059,29.3851142 12.295275,29.495832 13.2594561,29.5819644 C14.0284596,29.6348982 14.7991355,29.665839 15.5708149,29.665839 C18.8615744,29.6653372 22.1523339,29.665839 25.4431771,29.6653372 C25.4446823,22.0309123 25.4441805,14.3959857 25.4436788,6.76156081 C23.897644,6.76107579 22.3522782,6.76107579 20.8067451,6.76156081 L20.8067451,6.76156081 Z M25.6902014,30.8546334 C25.552306,30.8823964 25.4111492,30.8797205 25.2715812,30.8797205 C21.8963618,30.8777135 18.5216441,30.8823964 15.1469265,30.8777135 C14.7293097,30.8204313 14.306592,30.8734487 13.8878882,30.8366543 C12.4746478,30.7543686 11.0257001,30.6321107 9.70168617,30.0918181 C8.28475798,29.5136439 7.12173641,28.3952606 6.40821726,27.0507589 C5.65753575,25.6841805 5.38212948,24.086299 5.50913714,22.5413514 C5.6030131,21.0010866 6.1716542,19.4709403 7.19621167,18.305226 C7.92694057,17.427679 8.90533776,16.7807661 9.95765829,16.3527801 C8.88903114,15.3848359 8.09535868,14.1672749 7.3042702,12.9737976 C6.21310646,11.2610171 5.14818384,9.53042485 4.06750652,7.8107789 C3.86139084,7.49134476 3.6389351,7.14714965 3.65043336,6.75110785 C3.6515121,6.12576152 4.18869397,5.56391902 4.81456713,5.53981031 C6.65063398,5.53448349 8.48671756,5.53981031 10.3227593,5.53722634 C10.7067593,5.52618802 11.0902576,5.7049671 11.3252401,6.00927372 C11.5104666,6.2542995 11.6578952,6.52499775 11.8319997,6.77786743 C12.84393,8.28292662 13.8375467,9.80002763 14.8426198,11.309268 C15.4978951,12.2593168 16.1378672,13.2229962 16.866564,14.1200275 C17.0795536,14.3770867 17.3339368,14.6005293 17.6162504,14.7788986 C17.9456442,14.9799299 18.3385919,15.0092819 18.7109682,15.0658951 C19.0043201,15.0753446 19.2954142,15.1220066 19.5897695,15.1052819 C19.5902713,12.3222018 19.5897695,9.53928896 19.5902713,6.75636778 C19.5839159,6.25746883 19.9260204,5.77957616 20.3959856,5.61483749 C20.6451842,5.51407094 20.9184664,5.53981031 21.1812956,5.53765282 C22.6156092,5.53823819 24.0493374,5.5361476 25.4834837,5.53873157 C26.1156788,5.55346606 26.6727798,6.12158033 26.6602363,6.75636778 C26.6606544,14.3970728 26.6612398,22.0377695 26.6602363,29.6784662 C26.6633303,30.2329749 26.2310795,30.7465079 25.6902014,30.8546334 L25.6902014,30.8546334 Z M41.2654484,22.4395813 C41.2087516,22.0456301 40.9627307,21.6762643 40.6044868,21.4963061 C40.2456575,21.3132538 39.8327237,21.3206127 39.4435391,21.2639158 C38.8297412,21.2292956 38.2176158,21.180543 37.6016437,21.1899925 C36.5377831,21.1904942 35.4744242,21.1894071 34.4105636,21.1904942 C34.4094765,22.3194141 34.4100619,23.4483339 34.4100619,24.5772537 C35.7545636,24.5788426 37.0985635,24.576752 38.4430652,24.5778391 C38.9855321,24.5185499 39.5352743,24.5783408 40.0745635,24.4871074 C40.4868283,24.3979645 40.9307028,24.2121527 41.1295599,23.8140203 C41.3383683,23.3922224 41.3530025,22.8954977 41.2654484,22.4395813 L41.2654484,22.4395813 Z M41.8361801,20.9366127 C42.2627446,21.3935326 42.4840129,22.0151911 42.5150373,22.6336719 C42.5606122,23.3130308 42.4683752,24.0348705 42.0669815,24.6035952 C41.6079711,25.2739227 40.8116227,25.6359297 40.0216297,25.7213931 C39.1996088,25.7770865 38.3754137,25.7702293 37.5523057,25.7765847 C36.0965845,25.7723199 34.6403615,25.7848635 33.1845567,25.7707311 C33.1893232,23.836097 33.1835532,21.9012956 33.187149,19.9671633 C34.5370026,19.9650727 35.8872744,19.967665 37.2370444,19.9655744 C38.3223963,20.008557 39.4188701,19.9771145 40.4910931,20.1780622 C41.0026192,20.2851005 41.4836227,20.549435 41.8361801,20.9366127 L41.8361801,20.9366127 Z" id="path14"></path>
                </g>
            </g>
        </g>
    </g>
</svg>