<?xml version="1.0" encoding="UTF-8" standalone="no"?>
<svg width="122px" height="60px" viewBox="0 0 122 59" version="1.1" xmlns="http://www.w3.org/2000/svg" xmlns:xlink="http://www.w3.org/1999/xlink">
    <!-- Generator: Sketch 3.6.1 (26313) - http://www.bohemiancoding.com/sketch -->
    <title>Rapdi Racer Products</title>
    <defs></defs>
    <g id="Page-1" stroke="none" stroke-width="1" fill="none" fill-rule="evenodd">
        <g id="RRP_Box-Logo_Black" transform="translate(0.000000, -1.000000)" fill="#231F20">
            <g id="g10" transform="translate(61.000000, 30.453435) scale(1, -1) translate(-61.000000, -30.453435) translate(0.000000, 0.953435)">
                <g id="g12">
                    <path d="M109.090902,12.2793765 C107.990228,12.2734326 106.890788,12.2837044 105.791073,12.2742954 C105.696573,12.0569299 105.772969,11.7630051 105.752258,11.5156733 C106.190196,11.5130574 106.629095,11.5139065 107.067993,11.5156733 C107.08692,10.2655101 107.069776,9.01540177 107.076496,7.7653345 C107.379336,7.76356774 107.683136,7.76260904 107.987759,7.76715603 C107.993794,9.01636047 107.976512,10.2664688 107.996263,11.5148789 C108.431595,11.5139065 108.867201,11.5139065 109.303356,11.5148789 C109.301573,11.7604303 109.313643,12.0052969 109.298282,12.2493691 C109.246574,12.2571757 109.142473,12.2716795 109.090902,12.2793765 L109.090902,12.2793765 Z M112.93085,12.2760621 C112.799181,12.2200465 112.831001,12.0508764 112.784642,11.9392833 C112.554907,11.0301721 112.291568,10.1297851 112.085011,9.21478472 C111.77696,10.2190678 111.542972,11.2449217 111.26674,12.2579837 C110.811658,12.2939762 110.353009,12.2837044 109.897926,12.2640236 C109.901355,10.7647071 109.896966,9.26545905 109.899572,7.7653345 C110.179096,7.76356774 110.458893,7.76356774 110.7402,7.76715603 C110.75995,8.93376131 110.699739,10.103092 110.773666,11.2681908 C111.019723,10.0920122 111.335592,8.93033737 111.623894,7.76356774 C111.911098,7.76454014 112.199399,7.76715603 112.488386,7.75934945 C112.816325,8.90364432 113.065949,10.0703455 113.380721,11.2183245 C113.433252,10.0695374 113.388539,8.9166416 113.404038,7.7653345 C113.679446,7.76356774 113.955678,7.76356774 114.232595,7.7653345 C114.22752,9.26973213 114.262769,10.7758417 114.222309,12.2777193 C113.791091,12.2751034 113.361108,12.2837044 112.93085,12.2760621 L112.93085,12.2760621 Z M113.134664,33.6899388 C112.783682,32.0919169 112.013553,30.6030503 110.984611,29.3364659 C109.909996,28.000581 108.457654,27.0039402 106.892434,26.3233976 C105.179222,25.5639674 103.277832,25.461797 101.436517,25.3208676 C98.3897401,25.1283051 95.3334996,25.2718368 92.2852141,25.1944557 C92.2989297,20.487906 92.2876829,15.7813563 92.2902889,11.0739848 C89.7625093,11.0739848 87.2337696,11.0722181 84.7058529,11.0747929 C84.7048928,23.5741097 84.7048928,36.0724541 84.7058529,48.5716203 C87.4677572,48.5760029 90.2295244,48.5716203 92.9925261,48.5734007 C96.0072084,48.572579 99.0231251,48.5991488 102.035339,48.4652042 C103.655559,48.3439967 105.320492,48.2985267 106.854579,47.7020761 C108.618401,47.0561839 110.14659,45.8506826 111.282102,44.3660617 C112.436953,42.8943147 113.092694,41.0788041 113.338752,39.2376824 C113.584809,37.395602 113.53749,35.5062712 113.134664,33.6899388 L113.134664,33.6899388 Z M114.804809,41.8280994 C114.327233,43.3375097 113.564921,44.7613215 112.542837,45.9735336 C111.447512,47.2536768 110.141241,48.381797 108.604685,49.0983594 C106.954428,49.9746145 105.073475,50.2755104 103.227907,50.3698742 C102.424312,50.438627 101.618934,50.49026 100.812047,50.4757425 C100.016955,50.5701063 99.2140459,50.506558 98.4156625,50.5254581 C93.8245126,50.5236777 89.2340484,50.5271016 84.6428984,50.5236777 C83.6079215,50.5013536 82.700225,49.5605915 82.7243644,48.5251916 L82.7243644,11.0627543 C82.7052998,10.0276558 83.6157393,9.09864463 84.6490704,9.0712531 C87.1440698,9.06617197 89.6401664,9.07301985 92.1364002,9.06782916 C93.2084091,8.99399529 94.2407801,9.89535468 94.2649195,10.9768819 C94.2727374,15.054659 94.2709544,19.1329839 94.2657424,23.2106241 C95.7611511,23.2389743 97.2583427,23.2098023 98.7538885,23.2252786 C99.2673994,23.3025227 99.7870824,23.2726659 100.305119,23.2751311 C102.029441,23.3507318 103.763089,23.4546826 105.462448,23.7870788 C107.956625,24.3481943 110.293621,25.6540856 112.041259,27.522051 C113.16909,28.7591894 114.080352,30.2060101 114.648177,31.7825296 C115.240141,33.4562891 115.493193,35.2382451 115.473306,37.0081488 C115.493193,38.6353427 115.282248,40.2685626 114.804809,41.8280994 L114.804809,41.8280994 Z M120.407894,9.68826101 C120.266623,7.91396094 119.544773,6.20337357 118.431343,4.81925215 C116.801933,2.79078607 114.269627,1.53103589 111.669429,1.43148137 C109.745546,1.41355362 107.820018,1.42890657 105.896135,1.42382544 L10.9974734,1.42382544 C10.248905,1.41259491 9.49781292,1.46079031 8.7629601,1.61101916 C6.8107407,1.99262427 5.00474299,3.04854037 3.68740362,4.53399675 C2.63253911,5.74975613 1.88487595,7.24040321 1.59148619,8.82461976 C1.33849975,10.0703455 1.4546048,11.3471058 1.42883324,12.6094171 L1.42883324,48.174854 C1.41253914,49.7342538 1.79368112,51.3003645 2.55773439,52.6639149 C4.01185915,55.3573241 6.91827077,57.1969393 9.97700751,57.3610145 C10.087267,57.375532 10.1981711,57.3842973 10.3091849,57.388543 L110.034671,57.388543 C110.922617,57.3825169 111.816598,57.4263433 112.696863,57.2793878 C114.686992,56.9838332 116.565202,55.9974641 117.950475,54.5420152 C119.574124,52.8538752 120.485249,50.519432 120.456035,48.1807431 C120.455075,36.1531222 120.456035,24.1256382 120.456035,12.0981815 C120.44232,11.2947743 120.493067,10.489025 120.407894,9.68826101 L120.407894,9.68826101 Z M118.77917,55.729438 C117.017816,57.5585075 114.535572,58.6367751 112.011907,58.8079721 C90.8147678,58.8096156 69.6174912,58.8079721 48.4202146,58.8086569 C35.494387,58.801809 22.5674621,58.8224896 9.64156581,58.7983851 C7.3605979,58.5715832 5.13288756,57.6453386 3.45086489,56.0748452 C3.16427805,55.784358 2.87346682,55.4982535 2.58516553,55.208725 C1.05277699,53.4611454 0.118457539,51.1939484 0.00578625618,48.8707358 C0.00750070245,36.1531222 0.00578625618,23.4366042 0.0065899063,10.7191276 C-0.0907049061,8.11501477 0.899656369,5.5005069 2.63253911,3.56062503 C3.14456878,3.04677361 3.63837045,2.50713307 4.23377707,2.0853446 C5.88145595,0.847211815 7.90601127,0.118768032 9.9641423,0.00358444196 L111.664355,0.00358444196 C112.313924,-0.0247700239 112.952247,0.122994408 113.588238,0.232988248 C115.542158,0.669433936 117.402401,1.63691785 118.789319,3.09321595 C120.623777,4.85268351 121.721708,7.3306583 121.878203,9.85918416 C121.879986,22.8911019 121.878203,35.9220746 121.879026,48.954006 C121.711421,51.4816965 120.628028,53.976791 118.77917,55.729438 L118.77917,55.729438 Z M71.6524704,11.0739848 C71.5301275,11.0438678 71.4770482,11.1676639 71.4209516,11.2440588 C69.5727785,14.0098091 67.7100669,16.7652601 65.8601108,19.5300242 C64.9024897,20.9467141 63.9439085,22.3653215 62.9061884,23.7253109 C62.2497612,24.6033465 61.4890957,25.4324881 60.5170732,25.9652533 C59.8140131,26.3699632 59.0042459,26.5288341 58.2066854,26.6155283 C56.9530823,26.7470076 55.6908384,26.7255053 54.4320234,26.7220813 C54.4277715,21.5060492 54.4320234,16.290017 54.4305147,11.0739848 C51.8982089,11.0757516 49.3660404,11.067945 46.8337346,11.0782168 C46.8371635,23.5757532 46.8337346,36.0732759 46.8355177,48.5707985 C51.6942584,48.5768247 56.5521762,48.5716203 61.4099569,48.5734007 C64.368954,48.5701137 67.3633373,48.5768247 70.2663749,47.9342194 C71.9027795,47.5801838 73.4541477,46.7821316 74.6312179,45.5843 C75.8512179,44.3574333 76.7177676,42.7954313 77.1720273,41.1294784 C77.6039306,39.5057085 77.665102,37.7925053 77.4291942,36.1317568 C77.1882117,34.5586612 76.6014596,33.0258312 75.6343747,31.7533576 C74.6500083,30.4139118 73.2709077,29.3965903 71.7523197,28.7368653 C70.4599016,28.1534257 69.0668111,27.8502015 67.6789325,27.5992951 C69.2510112,26.6627787 70.7516317,25.5672544 71.961345,24.1857626 C73.3595103,22.5654166 74.517653,20.7577126 75.6661948,18.9578151 C77.3156293,16.3337065 78.9495652,13.7013804 80.6102464,11.0842567 C77.6246411,11.0602891 74.6380757,11.0800384 71.6524704,11.0739848 L71.6524704,11.0739848 Z M81.8217428,12.8867563 C80.9871503,14.2253804 80.1395281,15.5555131 79.3067186,16.894822 C77.9911212,18.9801392 76.7218823,21.0962719 75.2997148,23.1110559 C74.3876294,24.4324233 73.3802208,25.6944881 72.1901207,26.7770013 C73.9358385,27.4454916 75.516558,28.550466 76.7373809,29.9611298 C78.1167558,31.5343623 78.993455,33.5129895 79.3599351,35.5639304 C79.583636,36.7220443 79.510532,37.9016605 79.5209559,39.0726484 C79.3582892,41.8048166 78.2930009,44.4913779 76.4612865,46.5362926 C75.9597081,47.0113987 75.515735,47.5527923 74.9400926,47.9427107 C74.0745029,48.6248968 73.0738149,49.1138356 72.0465187,49.5012888 C70.5554991,49.985845 68.9979589,50.2462015 67.4380871,50.3698742 C65.3808888,50.5821586 63.3098377,50.516145 61.2423526,50.5254581 C56.4523269,50.5254581 51.6632612,50.5246364 46.8741956,50.5254581 C46.0533187,50.5314843 45.2702968,49.9687253 45.0028432,49.1962841 C44.863493,48.8466312 44.8728196,48.4652042 44.8788544,48.0966511 L44.8788544,11.0619463 C44.8737797,10.0379276 45.7548679,9.11688739 46.7795581,9.07301985 C49.3350432,9.06429565 51.8903911,9.07204745 54.4458761,9.06948634 C55.5033466,9.06702111 56.4351824,10.0069478 56.4351824,11.0610971 C56.4446461,15.6216637 56.4283246,20.1829013 56.4428631,24.7434541 C57.3583774,24.6927798 58.2944651,24.6729209 59.1781593,24.3988687 C60.0643223,24.0612681 60.7114229,23.3215598 61.2732126,22.5878777 C63.1670586,20.0910027 64.8362435,17.4352569 66.6095295,14.8544269 C67.5645447,13.4341487 68.4999466,12.0010786 69.4722433,10.5936744 C69.7346222,10.2311611 69.9324007,9.80852353 70.2912,9.52567859 C70.6483535,9.23367118 71.106865,9.0712531 71.5689426,9.06878786 C74.5236879,9.06948634 77.4791189,9.0712531 80.4337271,9.06782916 C80.7530255,9.06017322 81.0783588,9.11346345 81.3699519,9.24822978 C82.1313032,9.57816076 82.6406995,10.4099046 82.5607377,11.2398406 C82.5349524,11.8653535 82.1313032,12.3731651 81.8217428,12.8867563 L81.8217428,12.8867563 Z M103.50071,35.7716951 C103.274403,35.160864 102.847575,34.614403 102.275361,34.2931003 C101.48123,33.7990941 100.514282,33.7741678 99.6116602,33.6702169 C98.8983134,33.5791401 98.1789318,33.6306361 97.4665451,33.5491463 C96.4013939,33.5507898 95.3362427,33.5481876 94.2709544,33.5507898 C94.2676626,35.7845691 94.2691713,38.0176636 94.2701314,40.2514429 C95.4238852,40.2532234 96.5777761,40.2556886 97.731667,40.2506212 C98.1273612,40.2015904 98.5266215,40.1939207 98.9265675,40.2041925 C99.7777558,40.1355768 100.641425,40.1277702 101.475195,39.9172663 C102.391532,39.656088 103.226124,38.9730802 103.518678,38.0460139 C103.72784,37.3069904 103.737304,36.5055142 103.50071,35.7716951 L103.50071,35.7716951 Z M102.109403,41.7997492 C101.138752,42.1021517 100.113239,42.1114648 99.1074759,42.1802175 C96.8479728,42.2360963 94.5868239,42.2188396 92.326498,42.2085678 L92.2946779,42.1733697 C92.2852141,38.7899678 92.2955008,35.406566 92.2902889,32.0231642 C92.2946779,31.8711412 92.2645036,31.7052855 92.3452883,31.5661365 C95.2517548,31.622837 98.176463,31.4354789 101.066471,31.8325191 C101.971698,31.9501658 102.86129,32.2509248 103.608103,32.7860183 C104.868838,33.6529602 105.635539,35.1505922 105.668045,36.6720547 C105.710974,37.68335 105.516625,38.7239543 104.990907,39.5992506 C104.349841,40.6577963 103.291548,41.444755 102.109403,41.7997492 L102.109403,41.7997492 Z M116.998751,10.1247587 C116.902605,8.35029432 115.876132,6.65614187 114.357407,5.73429361 C113.653524,5.27110283 112.833607,5.01430724 112.005872,4.89141514 C111.207489,4.79432586 110.402934,4.83476945 109.600161,4.82792157 L11.0861994,4.82792157 C9.83336434,4.81995063 8.53071435,5.04784817 7.47841465,5.76608148 C6.34612575,6.45429368 5.52437108,7.58237277 5.11483787,8.83237156 C4.95047048,9.35998722 4.8936743,9.91343309 4.83859257,10.4605652 C4.83693299,23.0636685 4.83859257,35.6661008 4.83785193,48.2682591 C4.8912055,48.9686605 4.96948026,49.6800186 5.24137772,50.3346761 C5.63195601,51.2857101 6.24198343,52.1700456 7.0860259,52.7730702 C8.18133763,53.6476817 9.60969082,54.0137695 10.9958138,53.9844606 L110.545713,53.9844606 C111.264272,54.0077434 111.984339,53.9457016 112.687262,53.7936786 C114.285126,53.3949949 115.715111,52.2963206 116.429281,50.803893 C116.849115,50.0252888 116.986682,49.1387619 117.04799,48.2682591 C117.04703,36.2098226 117.04799,24.1523449 117.04799,12.0937852 C117.02632,11.4383196 117.096955,10.7758417 116.998751,10.1247587 L116.998751,10.1247587 Z M113.640631,55.0189017 C112.759543,55.3230847 111.820026,55.4399095 110.890797,55.4089571 L10.7376867,55.4089571 C10.483839,55.4071767 10.2291408,55.4227898 9.97785787,55.3832091 C8.16419316,55.238034 6.4218357,54.3736942 5.21978941,53.0075417 C4.08751423,51.7704032 3.44989109,50.1104764 3.4095536,48.4402779 C3.41040396,35.8088106 3.4095536,23.1770695 3.41040396,10.5457392 C3.39749761,8.56942657 4.25783418,6.60627559 5.73519311,5.28752406 C7.07396992,4.04094921 8.91191119,3.3715139 10.7359174,3.40323329 L110.032888,3.40323329 C110.89258,3.41105358 111.760638,3.35518855 112.609769,3.5286865 C114.169778,3.80453291 115.619514,4.62767579 116.666697,5.81427688 C117.85666,7.11233411 118.49512,8.87967673 118.473724,10.6340632 L118.473724,47.7502852 C118.499509,48.6206511 118.427914,49.5021106 118.167318,50.3372783 C117.530504,52.5032636 115.778889,54.2972719 113.640631,55.0189017 L113.640631,55.0189017 Z M32.1302319,34.7054798 C30.1030706,34.704658 28.0767323,34.704658 26.0505311,34.704658 C25.1625851,34.7820391 24.2677813,34.7588933 23.383127,34.8816073 C22.8720849,34.9426904 22.3316914,34.9795321 21.8826436,35.254543 C21.3603547,35.542291 20.9989494,36.0776585 20.8853845,36.6584959 C20.7271068,37.4179261 20.7443885,38.2402198 21.0532631,38.9600692 C21.4437454,39.7248408 22.3189359,40.0883264 23.1354238,40.1629683 C23.5887234,40.2343232 24.049978,40.1757054 24.5043749,40.2497994 C27.0460072,40.2574691 29.5876395,40.2514429 32.1302319,40.2522647 C32.1310548,38.4033364 32.1310548,36.5544081 32.1302319,34.7054798 L32.1302319,34.7054798 Z M23.5578634,42.1872024 C22.647561,42.1673435 21.7277948,41.9851899 20.9258455,41.5393927 C19.8907314,40.991973 19.1465245,39.9610927 18.9210406,38.8166746 C18.6973396,37.6945805 18.753162,36.4908597 19.198918,35.4272466 C19.6893868,34.2526978 20.7762086,33.3712384 22.0100613,33.0791077 C22.8609753,32.8857235 23.7350685,32.8523058 24.6024412,32.7853335 C27.7738925,32.6590586 30.9471268,32.7079524 34.1203611,32.7037068 C34.1296877,35.8826308 34.124613,39.0607331 34.12379,42.2386985 C30.6020431,42.2284266 27.0786503,42.279101 23.5578634,42.1872024 L23.5578634,42.1872024 Z M34.1262588,11.0739848 C34.12283,16.2935779 34.1280419,21.513034 34.12283,26.7323531 C32.4578969,26.7194791 30.7655327,26.8131582 29.1315968,26.4283072 C27.7686806,26.0887891 26.6707492,25.1128289 25.8319049,24.02607 C23.7978859,21.4004548 22.022131,18.5900838 20.1712148,15.8355915 C19.125814,14.2478415 18.0606628,12.6739378 17.0221199,11.0818051 C13.9918018,11.0663426 10.9614151,11.0722181 7.93178283,11.0782168 C9.75851847,13.9376324 11.5352746,16.8297671 13.3481987,19.6967016 C14.2825719,21.1511919 15.2410159,22.596369 16.3423762,23.9315692 C17.5374138,25.3629136 19.0269248,26.5236297 20.6230057,27.4782245 C20.6962468,27.522051 20.758927,27.5779297 20.8113204,27.644765 C18.6604447,27.9464827 16.5058658,28.6192187 14.7454724,29.9251099 C13.06681,31.1734789 11.8604845,33.0189833 11.3468501,35.0414369 C10.9587955,36.5749517 10.8813711,38.1859846 11.0947716,39.7523693 C11.3959244,42.0342207 12.4525033,44.2337606 14.1362267,45.8180867 C14.9743852,46.6050454 15.980148,47.2090286 17.0625808,47.5973035 C18.5682761,48.1265079 20.16614,48.3078398 21.7475453,48.4489062 C23.0088291,48.5356004 24.2728561,48.5862747 25.5385289,48.5862747 C30.9358801,48.585453 36.3332312,48.5862747 41.7307196,48.585453 C41.7331884,36.0819042 41.7323655,23.5775336 41.7315425,11.0739848 C39.1958079,11.0731905 36.6611705,11.0731905 34.1262588,11.0739848 L34.1262588,11.0739848 Z M42.1358775,50.5332647 C41.9097078,50.5787347 41.678189,50.574352 41.4492761,50.574352 C35.9133976,50.571065 30.3783421,50.5787347 24.8432866,50.571065 C24.158331,50.477249 23.465009,50.5640802 22.7782704,50.5038188 C20.460339,50.3690525 18.0838422,50.1688204 15.9122559,49.283937 C13.588276,48.3370118 11.6807419,46.5053402 10.5104609,44.3033351 C9.27922787,42.0651731 8.82751928,39.4481863 9.03583136,36.9178937 C9.18980236,34.3952707 10.1224611,31.8892196 11.8028928,29.9800299 C13.0014005,28.5427963 14.6061222,27.483292 16.3320895,26.7823427 C14.5793768,25.1970579 13.277632,23.2029545 11.9801254,21.2482949 C10.1904492,18.4431282 8.44381249,15.6087896 6.67133564,12.7923788 C6.33327427,12.2692143 5.96841267,11.7054966 5.98727158,11.0568651 C5.98904088,10.0326821 6.87010168,9.11250474 7.89662982,9.07301985 C10.9080616,9.06429565 13.9195207,9.07301985 16.9309113,9.06878786 C17.5607303,9.05070945 18.1897264,9.34351121 18.5751339,9.84190011 C18.8789338,10.2431997 19.1207393,10.6865453 19.4062974,11.1006916 C21.0660186,13.5656554 22.6957026,16.0503411 24.344177,18.5221528 C25.4189291,20.0781287 26.4685817,21.6564287 27.6637565,23.1255734 C28.013092,23.5465812 28.4303197,23.9125321 28.8933573,24.2046627 C29.4336137,24.5339089 30.0781083,24.5819811 30.6888626,24.6747014 C31.1700048,24.6901776 31.6474438,24.7666 32.1302319,24.7392084 C32.1310548,20.1811208 32.1302319,15.6233072 32.1310548,11.0654798 C32.120631,10.2483904 32.681735,9.46570483 33.45255,9.19589826 C33.861274,9.03086429 34.3094989,9.07301985 34.7405792,9.06948634 C37.0930738,9.07044505 39.4446083,9.06702111 41.7968286,9.0712531 C42.8337257,9.09538504 43.747457,10.0258342 43.7268837,11.0654798 C43.7275695,23.5793141 43.7285295,36.0931347 43.7268837,48.6069554 C43.7319584,49.5151215 43.0230006,50.3561785 42.1358775,50.5332647 L42.1358775,50.5332647 Z M67.6816757,36.7512162 C67.5886841,36.1060087 67.185172,35.5010668 66.597597,35.2063339 C66.0090619,34.9065336 65.331787,34.9185859 64.6934644,34.8257286 C63.6867415,34.7690281 62.6827618,34.6891818 61.6724729,34.704658 C59.927578,34.7054798 58.1835061,34.7036993 56.4386113,34.7054798 C56.4368283,36.5544081 56.4377884,38.4033364 56.4377884,40.2522647 C58.6429777,40.2548669 60.8473442,40.2514429 63.0525336,40.2532234 C63.9422626,40.1561204 64.8439242,40.2540451 65.7284413,40.1046243 C66.4046189,39.9586275 67.1326414,39.6543076 67.4587976,39.0022522 C67.8012754,38.3114378 67.8252777,37.4979094 67.6816757,36.7512162 L67.6816757,36.7512162 Z M68.6177633,34.2896764 C69.3173946,35.038013 69.6803085,36.0561562 69.7311933,37.0690949 C69.8059432,38.1817389 69.6546604,39.3639574 68.9963131,40.2954063 C68.2434654,41.3932589 66.9373317,41.9861486 65.6416217,42.1261193 C64.2933812,42.2173331 62.9415746,42.2061025 61.591551,42.2165113 C59.2039446,42.2095265 56.8155152,42.2300701 54.4277715,42.2069243 C54.4355894,39.038409 54.4261257,35.8696198 54.4320234,32.7019263 C56.6459907,32.6985024 58.8606438,32.7027481 61.074474,32.6993241 C62.8546179,32.7697203 64.6530034,32.7182243 66.4116139,33.0473335 C67.2505953,33.2226393 68.0395149,33.6555624 68.6177633,34.2896764 L68.6177633,34.2896764 Z" id="path14"></path>
                </g>
            </g>
        </g>
    </g>
</svg>
