<?xml version="1.0" encoding="UTF-8" standalone="no"?>
<svg width="100px" height="50px" viewBox="0 0 100 50" version="1.1" xmlns="http://www.w3.org/2000/svg" xmlns:xlink="http://www.w3.org/1999/xlink">
    <!-- Generator: Sketch 3.7 (28169) - http://www.bohemiancoding.com/sketch -->
    <title>Slice 1</title>
    <desc>Created with Sketch.</desc>
    <defs></defs>
    <g id="Page-1" stroke="none" stroke-width="1" fill="none" fill-rule="evenodd">
        <g id="RRP_Box-Logo_white" transform="translate(1.000000, 0.000000)" fill="#FFFFFF" stroke="#FFFFFF">
            <g id="svg2">
                <g id="g10" transform="translate(49.004998, 24.301202) scale(1, -1) translate(-49.004998, -24.301202) translate(0.000000, 0.541203)">
                    <g id="g12">
                        <path d="M86.8467495,9.78966035 C85.9705075,9.78492155 85.0952482,9.79311072 84.2197705,9.78560944 C84.1445392,9.61231552 84.2053575,9.37798493 84.18887,9.18080046 C84.5375106,9.17871494 84.8869155,9.17939192 85.2363204,9.18080046 C85.2513885,8.18411203 85.2377398,7.18746728 85.2430901,6.19085529 C85.4841795,6.18944675 85.7260332,6.18868242 85.9685421,6.1923075 C85.9733464,7.1882316 85.9595886,8.18487635 85.9753118,9.18016716 C86.3218778,9.17939192 86.6686621,9.17939192 87.0158833,9.18016716 C87.0144638,9.37593218 87.0240725,9.57115125 87.0118433,9.76573703 C86.970679,9.77196081 86.8878045,9.78352393 86.8467495,9.78966035 L86.8467495,9.78966035 Z M89.9037149,9.78701798 C89.7988934,9.74235966 89.8242252,9.60748936 89.7873193,9.51852214 C89.6044277,8.79373625 89.3947848,8.0759057 89.2303461,7.34642468 C88.9851075,8.14708603 88.798831,8.96494465 88.5789243,9.77260502 C88.2166351,9.8012999 87.851507,9.79311072 87.4892177,9.77742026 C87.4919475,8.58209514 87.4884534,7.38682462 87.490528,6.19085529 C87.7130553,6.18944675 87.9358009,6.18944675 88.1597476,6.1923075 C88.1754708,7.1223797 88.1275368,8.05462475 88.1863897,8.98349587 C88.3822749,8.04579136 88.6337372,7.11964997 88.8632525,6.18944675 C89.0918944,6.19022199 89.3214097,6.1923075 89.551471,6.18608373 C89.812542,7.09836903 90.0112661,8.02851766 90.2618549,8.94374014 C90.3036743,8.02787344 90.2680787,7.10873107 90.280417,6.19085529 C90.4996686,6.18944675 90.7195753,6.18944675 90.940028,6.19085529 C90.935988,7.39023132 90.9640496,8.59097221 90.9318388,9.78833916 C90.5885485,9.78625365 90.2462409,9.79311072 89.9037149,9.78701798 L89.9037149,9.78701798 Z M90.0659698,26.8591603 C89.786555,25.5851426 89.1734586,24.3981486 88.3543225,23.3883684 C87.4988264,22.3233386 86.3426237,21.52877 85.0965584,20.9862097 C83.7326782,20.3807565 82.2189906,20.2993015 80.7531278,20.1869459 C78.3276026,20.0334262 75.8945434,20.1478563 73.4678171,20.0861645 C73.478736,16.3338833 73.4697825,12.5816021 73.4718571,8.82866582 C71.4595031,8.82866582 69.4463849,8.82725728 67.4339218,8.82931003 C67.4331575,18.794349 67.4331575,28.7586127 67.4339218,38.7235316 C69.6326614,38.7270256 71.8312918,38.7235316 74.0309049,38.724951 C76.4308799,38.7242959 78.8318376,38.7454786 81.2298471,38.6386917 C82.5196972,38.5420594 83.8451429,38.5058086 85.0664223,38.0302904 C86.4705932,37.5153549 87.6871775,36.554273 88.5911535,35.3706639 C89.5105251,34.1973185 90.0325579,32.7499087 90.228443,31.2820805 C90.4243282,29.813488 90.386658,28.3072253 90.0659698,26.8591603 L90.0659698,26.8591603 Z M91.3955646,33.3472819 C91.0153684,34.5506542 90.4084958,35.6857834 89.5948191,36.6522156 C88.7228355,37.6728055 87.6829191,38.5721956 86.4596743,39.1434726 C85.1459119,39.842064 83.6484934,40.0819524 82.1792458,40.1571836 C81.5395072,40.2119965 80.8983492,40.2531608 80.2559901,40.2415867 C79.6230213,40.316818 78.9838287,40.2661543 78.3482393,40.2812223 C74.6932456,40.2798029 71.0387978,40.2825326 67.3838041,40.2798029 C66.5598636,40.2620051 65.8372506,39.5119856 65.8564678,38.6865165 L65.8564678,8.81971232 C65.8412906,7.99448343 66.5660874,7.25383237 67.3887176,7.23199457 C69.3749753,7.22794365 71.3621065,7.23340311 73.349347,7.22926484 C74.2027685,7.17040103 75.0246343,7.88900683 75.0438516,8.75125079 C75.0500754,12.0022451 75.0486559,15.2536762 75.0445067,18.5045613 C76.2349948,18.5271634 77.4269023,18.5039062 78.6174995,18.5162445 C79.0263032,18.5778271 79.4400205,18.5540239 79.8524275,18.5559893 C81.225152,18.6162617 82.6053014,18.6991362 83.9581536,18.9641379 C85.9437561,19.4114854 87.8042281,20.4526029 89.1955148,21.9418321 C90.0933762,22.9281367 90.8188282,24.0816096 91.2708708,25.3384846 C91.7421306,26.6728838 91.9435844,28.0935423 91.927752,29.5045922 C91.9435844,30.8018671 91.7756517,32.1039464 91.3955646,33.3472819 L91.3955646,33.3472819 Z M95.8561551,7.72390209 C95.7436904,6.30934723 95.1690285,4.9455871 94.2826319,3.84210088 C92.9854662,2.22491301 90.969509,1.22058135 88.8995033,1.14121184 C87.3679087,1.126919 85.8350039,1.13915909 84.3034093,1.13510818 L8.75501403,1.13510818 C8.15908212,1.12615468 7.56114113,1.1645783 6.97612812,1.28434775 C5.42197508,1.58858116 3.98422847,2.43040678 2.93550055,3.61468196 C2.09572768,4.5839421 1.50051642,5.77235555 1.26695016,7.03536695 C1.0655488,8.02851766 1.1579795,9.04641059 1.13746288,10.0527841 L1.13746288,38.4072109 C1.12449122,39.6504373 1.42791663,40.8990139 2.03617599,41.9860999 C3.19379813,44.1334115 5.50757928,45.6000386 7.94262578,45.7308471 C8.03040284,45.7424211 8.1186931,45.7494092 8.2070707,45.7527941 L87.5980792,45.7527941 C88.304969,45.7479897 89.0166631,45.7829302 89.7174384,45.6657704 C91.3017713,45.4301405 92.7970059,44.643761 93.8998151,43.4834092 C95.1923949,42.1375451 95.9177377,40.276418 95.8944804,38.4119061 C95.8937161,28.8229251 95.8944804,19.2340532 95.8944804,9.64520326 C95.8835615,9.00468946 95.9239615,8.36230853 95.8561551,7.72390209 L95.8561551,7.72390209 Z M94.5595353,44.4300781 C93.1573297,45.8882976 91.1812266,46.7479429 89.1721483,46.8844292 C72.2972014,46.8857395 55.4221453,46.8844292 38.5470892,46.8849751 C28.2568962,46.8795157 17.9658297,46.8960032 7.67558216,46.876786 C5.85971392,46.6959689 4.08624378,45.9575235 2.74719314,44.7054528 C2.51904265,44.4738629 2.28752914,44.245767 2.05801379,44.0149414 C0.838086202,42.6216893 0.094278706,40.814174 0.00458160662,38.9620004 C0.00594646955,28.8229251 0.00458160662,18.6847232 0.00522138884,8.54575703 C-0.0722345716,6.46963673 0.716187563,4.38522898 2.09572768,2.83866458 C2.50335219,2.42899824 2.89646547,1.9987716 3.37046599,1.66250213 C4.6821757,0.675404872 6.29391503,0.0946554767 7.93238385,0.00282574069 L88.8954633,0.00282574069 C89.4125826,-0.0197797634 89.9207483,0.0980249411 90.4270579,0.185717166 C91.9825649,0.533672046 93.4634958,1.3049954 94.5676153,2.46602424 C96.0280186,3.86875393 96.9020768,5.84431113 97.0266615,7.86017 C97.028081,18.2498233 97.0266615,28.6387232 97.0273167,39.0283874 C96.8938877,41.0435802 96.0314035,43.032786 94.5595353,44.4300781 L94.5595353,44.4300781 Z M57.042183,8.82866582 C56.9447864,8.80465515 56.9025303,8.90335112 56.8578719,8.96425676 C55.3865497,11.169242 53.9036534,13.3660161 52.4309117,15.5702152 C51.6685539,16.6996666 50.9054317,17.8306466 50.0793075,18.9148937 C49.5567288,19.6149046 48.9511664,20.275935 48.1773437,20.7006804 C47.6176407,21.0233339 46.9729886,21.1499932 46.3380544,21.2191099 C45.3400666,21.3239314 44.3352,21.3067887 43.333063,21.304059 C43.3296781,17.1455946 43.333063,12.9871302 43.3318619,8.82866582 C41.3159048,8.83007436 39.3000568,8.82385058 37.2840997,8.83203976 C37.2868294,18.7956593 37.2840997,28.7592679 37.2855191,38.7228764 C41.1535407,38.7276808 45.0209071,38.7235316 48.8881643,38.724951 C51.2438085,38.7223305 53.6276235,38.7276808 55.9387187,38.2153658 C57.241453,37.9331122 58.4764902,37.2968677 59.4135505,36.3419004 C60.3847869,35.363785 61.0746433,34.118484 61.4362773,32.7903086 C61.7801136,31.4957634 61.8288119,30.1299178 61.6410068,28.8058916 C61.4491617,27.5517463 60.982051,26.3297026 60.2121591,25.3152273 C59.4285094,24.2473586 58.3306136,23.4363024 57.1216727,22.9103388 C56.0927844,22.4451936 54.9837514,22.203449 53.8788675,22.0034147 C55.1303922,21.2567801 56.3250295,20.383377 57.2880767,19.2819872 C58.4011498,17.9901718 59.323142,16.5489857 60.2374909,15.1140234 C61.5505983,13.0219615 62.8513672,10.9233483 64.1734281,8.836855 C61.7966012,8.81774692 59.4190099,8.83349197 57.042183,8.82866582 L57.042183,8.82866582 Z M65.1378948,10.2738919 C64.4734795,11.3411055 63.7986913,12.4015494 63.1356955,13.469309 C62.0883543,15.1318212 61.0779189,16.818901 59.9457378,18.4251809 C59.2196308,19.4786367 58.4176373,20.4848136 57.470204,21.3478438 C58.8599621,21.8807954 60.1183657,22.7617326 61.0902573,23.8863796 C62.1883714,25.1406341 62.8863077,26.718088 63.1780608,28.3531938 C63.3561481,29.2764963 63.2979504,30.2169415 63.3062488,31.1505077 C63.1767506,33.3287198 62.3286793,35.4705719 60.8704598,37.1008733 C60.4711555,37.4796501 60.1177106,37.9112743 59.6594442,38.2221355 C58.9703522,38.7660061 58.173709,39.155811 57.3558831,39.4647067 C56.1688891,39.8510175 54.9289385,40.0585859 53.6871316,40.1571836 C52.0494052,40.3264266 50.4006508,40.2737975 48.7547353,40.2812223 C44.9414175,40.2812223 41.128864,40.2805672 37.3163104,40.2812223 C36.6628141,40.2860267 36.0394539,39.8373689 35.8265353,39.2215428 C35.7155992,38.9427832 35.723024,38.6386917 35.7278284,38.344864 L35.7278284,8.8190681 C35.7237884,8.00267261 36.4252187,7.26837635 37.24097,7.23340311 C39.2753801,7.22644776 41.309681,7.23262786 43.3440911,7.23058603 C44.1859385,7.22862063 44.9277688,7.97797405 44.9277688,8.81839113 C44.9353029,12.4542877 44.9223094,16.0907193 44.9338834,19.726605 C45.6627202,19.686205 46.4079354,19.6703726 47.1114403,19.4518854 C47.8169107,19.1827344 48.3320646,18.5930044 48.7793028,18.0080788 C50.286985,16.0174535 51.6158156,13.9001689 53.0275206,11.8426107 C53.7878039,10.7102986 54.5324731,9.56778823 55.3065141,8.44573988 C55.5153928,8.15672742 55.6728434,7.81978098 55.9584819,7.59428378 C56.2428101,7.36148184 56.6078291,7.23199457 56.9756869,7.23002917 C59.3279463,7.23058603 61.6807516,7.23199457 64.0329018,7.22926484 C64.2870939,7.22316117 64.5460902,7.26564663 64.7782261,7.37308864 C65.3843345,7.63612502 65.7898625,8.29923003 65.7262053,8.96089374 C65.7056778,9.4595819 65.3843345,9.864433 65.1378948,10.2738919 L65.1378948,10.2738919 Z M82.3964228,28.5188336 C82.2162609,28.0318505 81.8764646,27.5961863 81.420928,27.3400288 C80.7887234,26.9461839 80.0189408,26.9263115 79.3003677,26.8434371 C78.7324755,26.7708263 78.1597791,26.8118814 77.5926512,26.7469139 C76.7446892,26.7482242 75.8967271,26.7461496 75.0486559,26.7482242 C75.0460354,28.5290974 75.0472364,30.3094246 75.0480008,32.0902977 C75.9664989,32.0917172 76.8851063,32.0936826 77.8037136,32.0896426 C78.118724,32.0505529 78.4365733,32.0444383 78.7549685,32.0526275 C79.4325956,31.9979238 80.120159,31.9917 80.7839191,31.8238765 C81.5134111,31.615653 82.1778263,31.0711273 82.4107266,30.3320267 C82.5772398,29.7428427 82.5847739,29.1038684 82.3964228,28.5188336 L82.3964228,28.5188336 Z M81.2888092,33.3246798 C80.5160784,33.5657692 79.699672,33.573194 78.8989888,33.6280069 C77.1002087,33.672556 75.3001182,33.6587982 73.500683,33.650609 L73.4753511,33.6225475 C73.4678171,30.9251415 73.4760062,28.2277356 73.4718571,25.5303297 C73.4753511,25.4091299 73.4513295,25.276902 73.5156419,25.1659659 C75.8294667,25.2111702 78.1578137,25.0617996 80.4585358,25.3783386 C81.1791834,25.472132 81.8873835,25.7119111 82.4819178,26.1385126 C83.4855834,26.8296792 84.0959501,28.0236613 84.1218279,29.2366423 C84.1560041,30.0428941 84.0012832,30.8725124 83.5827617,31.5703395 C83.0724121,32.4142616 82.2299095,33.0416618 81.2888092,33.3246798 L81.2888092,33.3246798 Z M93.1421524,8.07189846 C93.0656109,6.65721257 92.2484402,5.30655513 91.03939,4.57161466 C90.4790319,4.20233735 89.8262998,3.99760791 89.167344,3.89963259 C88.5317546,3.82222848 87.8912518,3.854472 87.2521683,3.84901255 L8.82564842,3.84901255 C7.8282721,3.84265775 6.79123833,4.0243483 5.9535073,4.59695744 C5.05209723,5.14563233 4.39790204,6.04498965 4.07187451,7.04154705 C3.94102237,7.46218689 3.89580719,7.90341978 3.85195687,8.33961905 C3.85063569,18.3874015 3.85195687,28.4346489 3.85136725,38.4816779 C3.89384179,39.0400706 3.95615597,39.6071984 4.17261231,40.129122 C4.48354992,40.8873307 4.96918999,41.5923643 5.64112839,42.0731236 C6.5131011,42.7704048 7.65020663,43.0622671 8.75369285,43.0389006 L88.0049175,43.0389006 C88.5769589,43.0574627 89.1502013,43.0080001 89.7097951,42.8868003 C90.9818474,42.568951 92.1202523,41.6930366 92.6887996,40.5032037 C93.0230272,39.882464 93.1325438,39.1756834 93.1813513,38.4816779 C93.180587,28.8681293 93.1813513,19.2553451 93.1813513,9.64169829 C93.1640994,9.11913049 93.2203318,8.59097221 93.1421524,8.07189846 L93.1421524,8.07189846 Z M90.4687681,43.8636054 C89.7673378,44.1061142 89.0193929,44.1992525 88.2796372,44.1745757 L8.54819908,44.1745757 C8.34611202,44.1731563 8.14334798,44.1856038 7.94330275,44.1540482 C6.49945247,44.0383078 5.11236957,43.3492158 4.15542596,42.2600552 C3.2540268,41.2737507 2.7464179,39.9503796 2.7143054,38.6188193 C2.71498238,28.5484238 2.7143054,18.47781 2.71498238,8.40752371 C2.70470769,6.83191503 3.38961774,5.26679941 4.56573651,4.21542911 C5.63153068,3.22160144 7.09470741,2.68789636 8.54679055,2.71318454 L87.5966597,2.71318454 C88.2810566,2.71941923 88.972114,2.67488102 89.6481033,2.81320169 C90.8900194,3.03311933 92.0441475,3.68936726 92.8778058,4.63538106 C93.8251298,5.67025289 94.3334048,7.07926095 94.3163713,8.47793972 L94.3163713,38.0687249 C94.3368988,38.7626213 94.2799022,39.4653619 94.072443,40.1311966 C93.5654783,41.8580212 92.1710252,43.2882884 90.4687681,43.8636054 L90.4687681,43.8636054 Z M25.5787076,27.668797 C23.9648937,27.6681418 22.3517349,27.6681418 20.7386853,27.6681418 C20.0317955,27.7298336 19.3194462,27.7113807 18.6151769,27.8092141 C18.2083386,27.8579124 17.7781338,27.8872842 17.4206489,28.1065358 C17.0048571,28.335942 16.7171439,28.7627619 16.6267354,29.2258326 C16.5007313,29.8312858 16.5144891,30.4868568 16.7603828,31.0607543 C17.071244,31.6704659 17.7679792,31.9602536 18.4179815,32.0197616 C18.7788513,32.0766491 19.146054,32.0299162 19.5077973,32.0889875 C21.5311793,32.095102 23.5545613,32.0902977 25.5787076,32.0909529 C25.5793627,30.6169009 25.5793627,29.1428489 25.5787076,27.668797 L25.5787076,27.668797 Z M18.7542838,33.6335755 C18.0295961,33.6177431 17.2973745,33.4725217 16.6589462,33.1171114 C15.8348965,32.6806828 15.2424368,31.858817 15.0629301,30.9464334 C14.8848428,30.0518476 14.9292827,29.0921852 15.2841471,28.2442232 C15.674607,27.307818 16.539821,26.6050774 17.5220855,26.3721772 C18.1994943,26.2180023 18.895356,26.1913601 19.5858674,26.1379667 C22.1106455,26.0372944 24.636843,26.0762749 27.1630405,26.07289 C27.1704654,28.6072767 27.1664254,31.1410083 27.1657702,33.6746306 C24.3621234,33.6664414 21.5571663,33.7068414 18.7542838,33.6335755 L18.7542838,33.6335755 Z M27.1677356,8.82866582 C27.1650059,12.9899691 27.1691551,17.1511632 27.1650059,21.3122481 C25.8395602,21.3019844 24.4922767,21.3766697 23.1915077,21.0698485 C22.1064963,20.7991689 21.2324381,20.0210878 20.564638,19.1546728 C18.9453646,17.0614098 17.5316941,14.8208508 16.0581881,12.624841 C15.2259493,11.3590125 14.3779873,10.104223 13.5512079,8.83490051 C11.1387854,8.82257307 8.72630824,8.82725728 6.31443165,8.83203976 C7.76868765,11.1116993 9.18315516,13.4174442 10.6264158,15.7030982 C11.3702661,16.8626858 12.1332791,18.0148485 13.010067,19.0793324 C13.9614311,20.220467 15.147224,21.145844 16.4178568,21.9068916 C16.4761637,21.9418321 16.5260631,21.9863812 16.5677733,22.0396655 C14.8554709,22.2802089 13.1402204,22.8165455 11.7387791,23.8576629 C10.4024036,24.852921 9.44205328,26.3242432 9.03315126,27.9366377 C8.72422273,29.1592273 8.66258552,30.4436179 8.83247274,31.6924129 C9.0722191,33.5116114 9.91335683,35.2651873 11.2537614,36.528286 C11.9210156,37.1556862 12.7216988,37.6372099 13.5834187,37.9467608 C14.7820959,38.3686672 16.0541481,38.5132335 17.3130977,38.6256982 C18.3172001,38.6948149 19.3234862,38.7352148 20.3310826,38.7352148 C24.6278895,38.7345597 28.9246964,38.7352148 33.2216125,38.7345597 C33.2235779,28.7661468 33.2229227,18.7970787 33.2222676,8.82866582 C31.2035807,8.82803252 29.1857674,8.82803252 27.1677356,8.82866582 L27.1677356,8.82866582 Z M33.5441569,40.2874461 C33.3641041,40.3236969 33.1797931,40.3202028 32.9975566,40.3202028 C28.5904687,40.3175823 24.1840361,40.3236969 19.7776034,40.3175823 C19.2323134,40.2427878 18.6803628,40.3120137 18.1336533,40.2639705 C16.2883586,40.1565285 14.3964402,39.9968941 12.6676502,39.2914237 C10.8175403,38.5364908 9.29896105,37.0761966 8.36730561,35.3206553 C7.38712657,33.5362881 7.0275234,31.449904 7.19335971,29.4326366 C7.31593532,27.4214838 8.05842075,25.4235429 9.3962048,23.9014477 C10.3503313,22.755618 11.627843,21.9109316 13.0018779,21.3521021 C11.6065512,20.0882391 10.5702381,18.4984467 9.53729887,16.9401008 C8.11254576,14.703691 6.72205616,12.4440239 5.31099535,10.1986497 C5.04186621,9.78155852 4.75140154,9.33213646 4.76641504,8.81501719 C4.76782357,7.99849067 5.46923209,7.2648823 6.2864465,7.23340311 C8.6838337,7.22644776 11.0812427,7.23340311 13.4785972,7.23002917 C13.9799932,7.21561621 14.4807341,7.44905145 14.7875553,7.84639035 C15.029409,8.16632514 15.2219093,8.51978096 15.4492409,8.84995768 C16.7705374,10.8151419 18.0679215,12.7960494 19.3802645,14.7666931 C20.2358698,16.0071897 21.0714935,17.2654841 22.0229667,18.4367549 C22.3010712,18.772402 22.6332242,19.0641551 23.0018464,19.2970553 C23.431942,19.5595458 23.9450213,19.5978711 24.43124,19.6717921 C24.8142752,19.6841304 25.1943622,19.7450579 25.5787076,19.7232201 C25.5793627,16.0892999 25.5787076,12.455598 25.5793627,8.82188518 C25.5710644,8.1704634 26.0177567,7.54646991 26.6313991,7.33136751 C26.9567824,7.19979472 27.3136122,7.23340311 27.6567933,7.23058603 C29.5296036,7.23135035 31.4016496,7.22862063 33.2742416,7.23199457 C34.0997107,7.25123368 34.827128,7.99303122 34.8107497,8.82188518 C34.8112956,18.7984982 34.8120599,28.7751003 34.8107497,38.7517023 C34.8147897,39.4757348 34.2503915,40.1462647 33.5441569,40.2874461 L33.5441569,40.2874461 Z M53.8810513,29.2997536 C53.8070211,28.785364 53.485787,28.3030761 53.0180212,28.0681013 C52.549491,27.8290865 52.0103156,27.8386951 51.5021498,27.7646649 C50.7007023,27.7194607 49.9014386,27.6558035 49.0971521,27.6681418 C47.7080492,27.668797 46.3196015,27.6673775 44.9304986,27.668797 C44.9290791,29.1428489 44.9298434,30.6169009 44.9298434,32.0909529 C46.6853847,32.0930275 48.4402709,32.0902977 50.1958122,32.0917172 C50.9041215,32.0143022 51.6219302,32.0923723 52.3260903,31.9732471 C52.8643922,31.8568516 53.4439676,31.6142335 53.7036191,31.0943845 C53.9762641,30.5436351 53.9953722,29.8950522 53.8810513,29.2997536 L53.8810513,29.2997536 Z M54.6262665,27.3372991 C55.1832397,27.9339079 55.4721539,28.7456192 55.512663,29.5531813 C55.5721711,30.440233 55.4517356,31.3827528 54.9276282,32.1253474 C54.3282896,33.0006067 53.2884824,33.473286 52.2569736,33.5848772 C51.1836454,33.6575971 50.1074783,33.6486436 49.0327306,33.656942 C47.1319679,33.6513734 45.23055,33.6677517 43.3296781,33.6492988 C43.3359019,31.1232105 43.3283679,28.5969038 43.333063,26.0714706 C45.0955924,26.0687409 46.8586677,26.0721257 48.6210879,26.069396 C50.0382524,26.1255192 51.469939,26.0844641 52.8699608,26.3468453 C53.5378702,26.4866073 54.1659255,26.8317538 54.6262665,27.3372991 L54.6262665,27.3372991 Z" id="path14"></path>
                    </g>
                </g>
            </g>
        </g>
    </g>
</svg>