<?xml version="1.0" encoding="UTF-8" standalone="no"?>
<svg width="124px" height="59px" viewBox="0 0 124 59" version="1.1" xmlns="http://www.w3.org/2000/svg" xmlns:xlink="http://www.w3.org/1999/xlink">
    <!-- Generator: Sketch 3.6.1 (26313) - http://www.bohemiancoding.com/sketch -->
    <title>Untitled 3</title>
    <desc>Created with Sketch.</desc>
    <defs></defs>
    <g id="Page-1" stroke="none" stroke-width="1" fill="none" fill-rule="evenodd">
        <g id="RRP_Box-Logo_white" fill="#FFFFFF">
            <g id="g10" transform="translate(61.951218, 29.987458) scale(1, -1) translate(-61.951218, -29.987458) translate(0.000000, 0.022301)">
                <g id="g12">
                    <path d="M110.854353,12.4959161 C109.735886,12.4898673 108.618673,12.5003202 107.501182,12.4907453 C107.405154,12.2695467 107.482785,11.9704387 107.461739,11.7187454 C107.906757,11.7160833 108.35275,11.7169474 108.798743,11.7187454 C108.817976,10.4465363 108.800555,9.17438305 108.807384,7.90227158 C109.115119,7.90047367 109.42383,7.89949806 109.733377,7.90412524 C109.739509,9.17535866 109.721948,10.4475119 109.742018,11.717937 C110.184387,11.7169474 110.627036,11.7169474 111.070241,11.717937 C111.068429,11.9678185 111.080694,12.2170032 111.065084,12.4653795 C111.012541,12.4733237 110.906757,12.4880833 110.854353,12.4959161 L110.854353,12.4959161 Z M114.756373,12.4925432 C114.622576,12.4355398 114.65491,12.2633865 114.607802,12.1498255 C114.374353,11.2246826 114.106757,10.3084179 113.896861,9.377282 C113.58383,10.399275 113.34606,11.4432192 113.065363,12.474146 C112.602924,12.5107732 112.136861,12.5003202 111.674422,12.4802924 C111.677907,10.9545363 111.673447,9.42884994 111.676095,7.90227158 C111.960137,7.90047367 112.244457,7.90047367 112.530311,7.90412524 C112.55038,9.09130291 112.489196,10.2812541 112.564318,11.4668987 C112.814353,10.2699788 113.135328,9.08781859 113.42829,7.90047367 C113.720137,7.90146322 114.013098,7.90412524 114.306757,7.89618099 C114.639997,9.06065483 114.893656,10.2479301 115.213516,11.416153 C115.266896,10.2471078 115.221461,9.07388131 115.23721,7.90227158 C115.51707,7.90047367 115.797767,7.90047367 116.079161,7.90227158 C116.074004,9.43319837 116.109823,10.9658673 116.068708,12.4942297 C115.63052,12.4915676 115.193586,12.5003202 114.756373,12.4925432 L114.756373,12.4925432 Z M114.963481,34.284041 C114.606826,32.6578389 113.824248,31.142717 112.778673,29.8537972 C111.686687,28.4943547 110.210868,27.4801387 108.620346,26.7875951 C106.87944,26.0147729 104.947314,25.9108007 103.076234,25.7673861 C99.9802066,25.5714279 96.874562,25.7174906 93.7770011,25.638745 C93.7909384,20.8491981 93.7795099,16.0596512 93.7821579,11.269268 C91.2135169,11.269268 88.6439002,11.2674701 86.0751198,11.2700903 C86.0741442,23.9898252 86.0741442,36.7085705 86.0751198,49.4281521 C88.8816703,49.432612 91.6880813,49.4281521 94.4957468,49.4299639 C97.5591613,49.4291277 100.62383,49.456166 103.684736,49.3198594 C105.331147,49.1965144 107.022994,49.1502427 108.581879,48.543274 C110.374213,47.8859918 111.927105,46.6592323 113.080973,45.1484309 C114.254492,43.6507306 114.920833,41.8032045 115.170868,39.9296157 C115.420903,38.0550513 115.372819,36.1324033 114.963481,34.284041 L114.963481,34.284041 Z M116.660624,42.5657132 C116.175328,44.1017411 115.400694,45.5506609 114.362088,46.7842497 C113.249056,48.0869674 111.92167,49.2349813 110.360276,49.9641799 C108.683342,50.8558872 106.771983,51.1620893 104.896583,51.2581172 C104.079997,51.3280823 103.2616,51.3806259 102.44167,51.3658524 C101.633726,51.4618802 100.817837,51.3972113 100.006548,51.4164447 C95.3411823,51.4146329 90.6765134,51.4181172 86.0111477,51.4146329 C84.9594404,51.3919151 84.0370711,50.4345632 84.0616007,49.3809047 L84.0616007,11.2578394 C84.0422279,10.2044875 84.9673846,9.25909385 86.0174195,9.23121928 C88.5527504,9.22604855 91.0891963,9.23301719 93.6257816,9.22773496 C94.7151196,9.15259907 95.7641788,10.0698534 95.7887084,11.1704527 C95.7966527,15.320139 95.7948408,19.4703828 95.7895446,23.6199297 C97.3091265,23.6487799 98.8305202,23.6190935 100.350241,23.6348426 C100.872053,23.7134489 101.400137,23.6830656 101.926548,23.6855743 C103.678743,23.7625081 105.440415,23.8682921 107.167245,24.2065499 C109.701739,24.7775604 112.076513,26.1064802 113.852401,28.0073861 C114.998464,29.2663407 115.924457,30.7386752 116.501461,32.3429957 C117.102994,34.0462709 117.360136,35.8596507 117.339927,37.6607656 C117.360136,39.3166541 117.145781,40.9786749 116.660624,42.5657132 L116.660624,42.5657132 Z M122.354283,9.85910777 C122.210729,8.05351896 121.47721,6.31276639 120.345781,4.90423681 C118.690032,2.83999993 116.116792,1.5580348 113.474562,1.4567247 C111.519579,1.4384808 109.562924,1.45410449 107.607942,1.44893376 L11.1752471,1.44893376 C10.4145781,1.43750519 9.65134471,1.48655049 8.90461302,1.63942853 C6.92083606,2.02776302 5.08564447,3.10229957 3.74701036,4.6139511 C2.67509401,5.85114968 1.9153449,7.36808344 1.6172125,8.98023671 C1.36013655,10.2479301 1.47811843,11.5472053 1.45193028,12.8317767 L1.45193028,49.024389 C1.43537279,50.6112879 1.82267591,52.2050161 2.59908007,53.5926119 C4.0767107,56.3335178 7.03010435,58.2055735 10.1382855,58.3725421 C10.2503273,58.3873156 10.3630241,58.3962355 10.4758325,58.400556 L111.813377,58.400556 C112.715677,58.3944236 113.624109,58.4390229 114.518603,58.2894759 C116.540903,57.9887094 118.449474,56.9849463 119.85714,55.5038314 C121.507035,53.785922 122.432889,51.4103123 122.403203,49.030382 C122.402227,36.7906611 122.403203,24.5510795 122.403203,12.3115258 C122.389265,11.4939509 122.440833,10.6739928 122.354283,9.85910777 L122.354283,9.85910777 Z M120.69923,56.7121937 C118.909405,58.5735177 116.387035,59.6707999 113.822576,59.8450159 C92.2827851,59.8466884 70.7428554,59.8450159 49.2029256,59.8457128 C36.0681524,59.8387441 22.9322642,59.8597894 9.79742136,59.8352598 C7.47958169,59.6044584 5.2158605,58.6618801 3.506648,57.063692 C3.21542849,56.7680822 2.9199163,56.4769324 2.62695464,56.1822982 C1.0697951,54.4039011 0.120372401,52.0967234 0.00587979079,49.7325423 C0.00762195103,36.7906611 0.00587979079,23.8498949 0.00669643189,10.908153 C-0.0921711475,8.25811826 0.91419928,5.59750509 2.67509401,3.62341454 C3.19540062,3.10050166 3.69718458,2.55134488 4.30221592,2.12211841 C5.97652947,0.862151895 8.03381165,0.120862436 10.1252123,0.00364765148 L113.469405,0.00364765148 C114.129474,-0.0252068286 114.778116,0.125163342 115.424387,0.237096858 C117.409893,0.681239007 119.300206,1.66578393 120.709544,3.14776299 C122.573655,4.93825772 123.689335,7.45993013 123.848359,10.033045 C123.850171,23.2947729 123.848359,36.5555392 123.849196,49.817281 C123.678882,52.3895457 122.577976,54.9286397 120.69923,56.7121937 L120.69923,56.7121937 Z M72.8107299,11.269268 C72.6864093,11.2386199 72.6324721,11.364599 72.5754686,11.4423412 C70.6974198,14.2568638 68.8045976,17.0609055 66.924737,19.8744246 C65.951636,21.316097 64.9775594,22.7597207 63.9230646,24.1436928 C63.2560263,25.0372119 62.4830646,25.880975 61.4953295,26.4231352 C60.7809044,26.8349819 59.9580473,26.9966544 59.1475943,27.0848774 C57.8737268,27.2186753 56.5910787,27.1967937 55.311915,27.1933094 C55.3075944,21.8852956 55.311915,16.5772818 55.3103819,11.269268 C52.7371415,11.2710659 50.1640406,11.2631217 47.5908002,11.2735746 C47.5942845,23.9914977 47.5908002,36.7094067 47.5926121,49.4273158 C52.5298942,49.4334482 57.46634,49.4281521 62.4026465,49.4299639 C65.4094757,49.426619 68.4522631,49.4334482 71.4022282,48.779511 C73.0650853,48.4192322 74.6415312,47.6071068 75.8376288,46.3881522 C77.07735,45.1396504 77.9579075,43.5501034 78.4195102,41.8547725 C78.8583952,40.2023683 78.9205555,38.4589537 78.6808343,36.7689189 C78.4359562,35.1680827 77.8397193,33.6082222 76.8570016,32.3133093 C75.8567228,30.9502431 74.4553291,29.9149818 72.9121933,29.243623 C71.5988832,28.6498948 70.1832735,28.3413233 68.77296,28.0859923 C70.3704512,27.132961 71.8953292,26.0181178 73.1245975,24.6122642 C74.545364,22.9633444 75.7222281,21.1237625 76.8893361,19.292125 C78.5654336,16.6217417 80.225782,13.9429962 81.9133081,11.279721 C78.8794405,11.2553307 75.8445974,11.2754283 72.8107299,11.269268 L72.8107299,11.269268 Z M83.1443882,13.1140066 C82.2963046,14.4762366 81.4349805,15.8298254 80.5887088,17.1927522 C79.2518447,19.3148427 77.9620886,21.4682921 76.5169319,23.5186057 C75.5901026,24.8632746 74.5664093,26.1475952 73.3570713,27.2491979 C75.1310086,27.9294767 76.7372803,29.0539366 77.9778378,30.4894766 C79.3795102,32.0904522 80.2703813,34.1039713 80.6427854,36.1910792 C80.8701025,37.3696158 80.7958168,38.5700339 80.8064091,39.7616715 C80.641113,42.5420198 79.5586043,45.2759571 77.6972803,47.3569326 C77.1875939,47.8404169 76.7364441,48.3913577 76.1514964,48.7881521 C75.2719145,49.4823681 74.2550504,49.9799291 73.211148,50.3742148 C71.6960261,50.8673158 70.1133084,51.1322635 68.5282213,51.2581172 C66.4377684,51.4741451 64.3332388,51.4069674 62.2323329,51.4164447 C57.3648766,51.4164447 52.4983959,51.4156085 47.6319152,51.4164447 C46.7977689,51.4225771 46.0020894,50.8498942 45.7303124,50.0638315 C45.5887097,49.7080127 45.598187,49.3198594 45.6043194,48.9448071 L45.6043194,11.2570171 C45.5991626,10.2149405 46.4944936,9.2776583 47.5357479,9.23301719 C50.1325423,9.22413914 52.7291973,9.23202764 55.3259916,9.22942137 C56.4005561,9.22691266 57.347455,10.1834144 57.347455,11.256153 C57.3570717,15.8971425 57.3404864,20.5388148 57.3552599,25.1797903 C58.2855735,25.1282224 59.2367929,25.1080133 60.134772,24.8291283 C61.0352598,24.4855743 61.6928208,23.7328217 62.2636918,22.9862015 C64.1881517,20.4452957 65.8843189,17.7427173 67.6862701,15.1163759 C68.656723,13.6710519 69.6072456,12.2127105 70.5952596,10.7804875 C70.8618798,10.4115816 71.0628554,9.98149104 71.4274547,9.69365829 C71.7903815,9.39650151 72.2563048,9.23121928 72.7258518,9.22871057 C75.7283605,9.22942137 78.731566,9.23121928 81.7339352,9.22773496 C82.0583952,9.21994402 82.3889875,9.27417398 82.6852941,9.41131684 C83.4589526,9.74706596 83.9765833,10.5934771 83.8953289,11.4380485 C83.8691268,12.074592 83.4589526,12.5913586 83.1443882,13.1140066 L83.1443882,13.1140066 Z M105.173795,36.4025078 C104.94383,35.780905 104.510102,35.2248075 103.928639,34.8978388 C103.12167,34.3951211 102.139092,34.3697552 101.221879,34.2639713 C100.497001,34.1712883 99.7659905,34.2236925 99.0420881,34.1407657 C97.9597188,34.1424382 96.8773495,34.1397901 95.7948408,34.1424382 C95.7914959,36.4156088 95.793029,38.6880827 95.7940046,40.9612533 C96.9664087,40.9630652 98.1389523,40.9655739 99.3114958,40.9604171 C99.7135864,40.9105216 100.119301,40.9027167 100.525712,40.9131697 C101.390659,40.8433439 102.26829,40.8353997 103.115537,40.6211837 C104.046687,40.3553997 104.894771,39.6603474 105.192053,38.7169328 C105.404597,37.9648771 105.414213,37.1492674 105.173795,36.4025078 L105.173795,36.4025078 Z M103.759997,42.536863 C102.773656,42.8445982 101.731565,42.8540756 100.709545,42.9240407 C98.4135167,42.9809048 96.1158164,42.9633439 93.8189524,42.9528909 L93.7866179,42.9170721 C93.7770011,39.474006 93.7874541,36.0309399 93.7821579,32.5878737 C93.7866179,32.4331699 93.7559558,32.2643894 93.8380464,32.1227867 C96.7914958,32.180487 99.7634818,31.989825 102.700206,32.3938668 C103.620067,32.513588 104.524039,32.8196507 105.282924,33.3641804 C106.564039,34.2464103 107.343133,35.7704521 107.376165,37.3187447 C107.419788,38.3478736 107.222297,39.4068283 106.688081,40.29756 C106.036652,41.3747725 104.961252,42.1756087 103.759997,42.536863 L103.759997,42.536863 Z M118.890032,10.3033029 C118.792332,8.49754683 117.749265,6.77351899 116.20599,5.83541449 C115.490729,5.36405562 114.657558,5.10273158 113.816443,4.97767235 C113.005154,4.87887096 112.187593,4.92002775 111.371844,4.91305911 L11.2654074,4.91305911 C9.99232031,4.90494761 8.66861302,5.13686398 7.59930295,5.86776292 C6.44871064,6.56811133 5.61367233,7.71608343 5.19751903,8.98812521 C5.03049465,9.52504506 4.97278036,10.0882506 4.91680824,10.6450311 C4.91512183,23.4703827 4.91680824,36.2950514 4.91605563,49.1194413 C4.97027165,49.8321939 5.04981172,50.5560963 5.3261044,51.2222984 C5.72299637,52.1901032 6.34288486,53.0900335 7.20057125,53.703692 C8.31358864,54.5937269 9.76503111,54.9662704 11.1735607,54.9364446 L112.33268,54.9364446 C113.062854,54.960138 113.794562,54.8970021 114.508847,54.7422983 C116.132541,54.336584 117.585642,53.2185353 118.311356,51.6997896 C118.737976,50.9074552 118.877767,50.0052949 118.940067,49.1194413 C118.939091,36.8483614 118.940067,24.5782572 118.940067,12.307052 C118.918046,11.6400276 118.989823,10.9658673 118.890032,10.3033029 L118.890032,10.3033029 Z M115.477628,55.9891275 C114.582297,56.2986746 113.627593,56.4175596 112.683342,56.3860613 L10.9112611,56.3860613 C10.6533098,56.3842495 10.3944945,56.400138 10.1391496,56.3598592 C8.29616704,56.212124 6.52564444,55.3325422 5.30416711,53.9422983 C4.15358875,52.6833436 3.50565845,50.9941451 3.4646689,49.2944935 C3.46553301,36.4402778 3.4646689,23.5857834 3.46553301,10.731707 C3.45241803,8.72054334 4.32666191,6.72277335 5.82790229,5.38076642 C7.18832038,4.11220896 9.0559719,3.43096856 10.9094631,3.4632473 L111.811565,3.4632473 C112.685154,3.47120549 113.567245,3.41435532 114.430102,3.5909128 C116.015328,3.8716236 117.488499,4.70928211 118.55261,5.91680821 C119.761809,7.23775592 120.410589,9.03626458 120.388847,10.8215886 L120.388847,48.5923333 C120.415049,49.4780475 120.342297,50.375051 120.077488,51.2249465 C119.43038,53.4291276 117.65045,55.2547721 115.477628,55.9891275 L115.477628,55.9891275 Z M32.6496159,35.3174904 C30.5896856,35.3166542 28.5305916,35.3166542 26.471637,35.3166542 C25.5693373,35.3953998 24.6600691,35.3718458 23.7611144,35.4967239 C23.2418113,35.5588841 22.6926824,35.5963754 22.2363758,35.876236 C21.7056441,36.1690583 21.3383967,36.7138667 21.222996,37.3049468 C21.0621598,38.0777691 21.0797207,38.9145635 21.3935883,39.647107 C21.7903827,40.4253648 22.6797207,40.7952603 23.5094071,40.8712185 C23.9700342,40.9438317 24.438745,40.8841802 24.9004872,40.9595809 C27.4832049,40.9673857 30.0659226,40.9612533 32.6496159,40.9620896 C32.6504521,39.0805565 32.6504521,37.1990235 32.6496159,35.3174904 L32.6496159,35.3174904 Z M23.9386754,42.9311488 C23.013658,42.9109397 22.0790238,42.7255738 21.264111,42.2719153 C20.2122643,41.7148422 19.4560274,40.665783 19.2268985,39.5011837 C18.9995814,38.3593022 19.0563061,37.1343545 19.5092678,36.0519852 C20.007665,34.8567239 21.1120552,33.9597204 22.3658531,33.6624382 C23.2305221,33.4656438 24.118745,33.4316368 25.0001387,33.3634835 C28.2228564,33.2349817 31.447386,33.2847378 34.6719155,33.2804173 C34.6813929,36.5153998 34.6762361,39.749546 34.6753998,42.9835529 C31.096724,42.9731 27.5163756,43.0246679 23.9386754,42.9311488 L23.9386754,42.9311488 Z M34.6779085,11.269268 C34.6744242,16.5809055 34.6797204,21.8924036 34.6744242,27.2037624 C32.9825776,27.1906613 31.2628564,27.2859923 29.602508,26.8943547 C28.2175603,26.5488495 27.1018809,25.5556788 26.2494767,24.4497555 C24.1825778,21.7778392 22.3781179,18.9179089 20.4972817,16.1148428 C19.4349821,14.4990937 18.3526128,12.8974352 17.2972818,11.2772262 C14.2179787,11.261491 11.138606,11.2674701 8.0599998,11.2735746 C9.91626456,14.1834143 11.7217419,17.1265501 13.5639718,20.0440413 C14.5134491,21.5241806 15.4873864,22.9948426 16.6065501,24.3535882 C17.8209055,25.8101736 19.3344943,26.9913582 20.9563758,27.9627868 C21.0308009,28.0073861 21.0944942,28.0642502 21.1477347,28.1322641 C18.9620901,28.4393024 16.7726825,29.1239017 14.9838324,30.4528215 C13.2780345,31.7232048 12.0522088,33.6012535 11.5302715,35.6593719 C11.135944,37.2199294 11.057268,38.8593719 11.2741182,40.4533788 C11.5801391,42.7754693 12.6537976,45.0137968 14.3647383,46.6260616 C15.2164456,47.4268978 16.2384665,48.0415319 17.3383968,48.4366538 C18.8684316,48.9751904 20.4921249,49.15972 22.0990935,49.303274 C23.380766,49.391497 24.6652259,49.443065 25.9513582,49.443065 C31.4359574,49.4422287 36.9205566,49.443065 42.4052951,49.4422287 C42.4078038,36.7181872 42.4069676,23.9933095 42.4061313,11.269268 C39.8294067,11.2684596 37.253797,11.2684596 34.6779085,11.269268 L34.6779085,11.269268 Z M42.8170024,51.424389 C42.5871766,51.4706607 42.3519153,51.4662008 42.1193021,51.4662008 C36.4939364,51.4628559 30.8694069,51.4706607 25.2448774,51.4628559 C24.5488496,51.3673855 23.84432,51.4557478 23.1464803,51.3944238 C20.7910796,51.2572809 18.3761668,51.0535179 16.1694769,50.1530301 C13.80793,49.1894064 11.8695607,47.3254344 10.6803621,45.0845982 C9.42922625,42.8069676 8.9702158,40.1438317 9.18189524,37.5689189 C9.33835517,35.001811 10.2860903,32.4515671 11.9936861,30.50871 C13.2115676,29.0461317 14.8422296,27.9679436 16.5960971,27.2546335 C14.8150519,25.6413931 13.4922645,23.6121248 12.1737837,21.622996 C10.3551774,18.7683619 8.58030641,15.8840414 6.77917753,13.0179648 C6.43565141,12.4855746 6.06489183,11.9119161 6.0840556,11.2518464 C6.08585351,10.2096025 6.98115662,9.27319837 8.02427855,9.23301719 C11.08439,9.22413914 14.1445293,9.23301719 17.2045989,9.22871057 C17.8445989,9.21031336 18.4837626,9.50827851 18.8754002,10.0154562 C19.184111,10.4238325 19.4298253,10.8749962 19.7199995,11.2964457 C21.40655,13.8048777 23.0625778,16.3333794 24.7376997,18.84878 C25.8298251,20.4321946 26.8964453,22.038327 28.1109401,23.5333792 C28.4659226,23.9618112 28.8898947,24.3342154 29.3604174,24.6314976 C29.9094069,24.9665499 30.5643198,25.0154698 31.184947,25.1098252 C31.6738668,25.1255743 32.1590236,25.2033443 32.6496159,25.1754698 C32.6504521,20.537003 32.6496159,15.8988149 32.6504521,11.260613 C32.6398598,10.4291147 33.210034,9.63262694 33.9933093,9.35806248 C34.4086403,9.19011824 34.8641106,9.23301719 35.3021594,9.22942137 C37.692682,9.23039698 40.082229,9.22691266 42.4724728,9.23121928 C43.5261313,9.25577677 44.454633,10.2026339 44.4337271,11.260613 C44.434424,23.9951214 44.4353996,36.7296158 44.4337271,49.4641103 C44.4388839,50.3882914 43.7184658,51.2441799 42.8170024,51.424389 L42.8170024,51.424389 Z M68.7757474,37.3993022 C68.6812526,36.7427169 68.2712178,36.1271071 67.6741446,35.8271768 C67.0760959,35.5220897 66.3878729,35.5343545 65.7392318,35.4398597 C64.7162353,35.3821594 63.6960263,35.300905 62.6694061,35.3166542 C60.8963051,35.3174904 59.1240403,35.3156786 57.3509393,35.3174904 C57.3491275,37.1990235 57.3501031,39.0805565 57.3501031,40.9620896 C59.5909393,40.9647377 61.8309392,40.9612533 64.0717754,40.9630652 C64.9758869,40.8642498 65.8921238,40.9639014 66.7909391,40.8118457 C67.4780471,40.6632742 68.217838,40.3535878 68.5492666,39.6900339 C68.8972805,38.9870374 68.9216708,38.1591628 68.7757474,37.3993022 L68.7757474,37.3993022 Z M69.7269669,34.8943545 C70.4379076,35.6558876 70.8066881,36.6919851 70.8583954,37.7227865 C70.9343536,38.8550513 70.7806254,40.0581175 70.1116359,41.005992 C69.3466185,42.1232045 68.0193711,42.7265495 66.7027161,42.8689885 C65.3326813,42.9618108 63.9590228,42.9503822 62.5871761,42.9609745 C60.1609741,42.9538665 57.7339358,42.9747724 55.3075944,42.9512184 C55.3155387,39.7268283 55.305922,36.5021594 55.311915,33.2786054 C57.561671,33.2751211 59.8121239,33.2794417 62.0617406,33.2759574 C63.8706604,33.347595 65.6981168,33.2951908 67.4851551,33.6301037 C68.3376986,33.8085009 69.1393711,34.2490584 69.7269669,34.8943545 L69.7269669,34.8943545 Z" id="path14"></path>
                </g>
            </g>
        </g>
    </g>
</svg>