<?xml version="1.0" encoding="UTF-8" standalone="no"?>
<!DOCTYPE svg PUBLIC "-//W3C//DTD SVG 1.1//EN" "http://www.w3.org/Graphics/SVG/1.1/DTD/svg11.dtd">
<svg width="100%" height="100%" viewBox="0 0 1381 125" version="1.1" xmlns="http://www.w3.org/2000/svg" xmlns:xlink="http://www.w3.org/1999/xlink" xml:space="preserve" xmlns:serif="http://www.serif.com/" style="fill-rule:evenodd;clip-rule:evenodd;stroke-linejoin:round;stroke-miterlimit:2;">
    <g transform="matrix(4.16667,0,0,4.16667,457.021,112.064)">
        <path d="M0,-23.326C-1.103,-24.287 -2.475,-25.049 -4.079,-25.589C-5.69,-26.131 -7.552,-26.406 -9.612,-26.406L-41.816,-26.406L-37.145,-19.031L-8.847,-19.031C-7.516,-19.031 -6.463,-18.706 -5.719,-18.067C-4.955,-17.411 -4.583,-16.551 -4.583,-15.437C-4.583,-14.326 -4.954,-13.458 -5.716,-12.786C-6.462,-12.132 -7.516,-11.8 -8.847,-11.8L-27.027,-11.8L-27.032,-2.943L-23.212,3.08L-16.904,3.08L-16.971,-4.558L-9.652,-4.558C-7.592,-4.558 -5.729,-4.826 -4.118,-5.353C-2.511,-5.878 -1.132,-6.618 -0.018,-7.551C1.094,-8.477 1.949,-9.617 2.525,-10.94C3.102,-12.264 3.395,-13.763 3.395,-15.393C3.395,-17.021 3.102,-18.528 2.524,-19.871C1.948,-21.209 1.099,-22.37 0,-23.326" style="fill:white;fill-rule:nonzero;"/>
    </g>
    <g transform="matrix(4.16667,0,0,4.16667,26.9204,109.238)">
        <path d="M0,-11.113C0,-11.113 -0.001,-11.113 -0.002,-11.112L-0.036,-0.036L8.546,0L0.031,-11.095C0.02,-11.108 0.006,-11.113 0,-11.113" style="fill:rgb(237,28,36);fill-rule:nonzero;"/>
    </g>
    <g transform="matrix(4.16667,0,0,4.16667,151.208,35.0813)">
        <path d="M0,13.626C-0.41,13.193 -0.808,12.799 -1.184,12.459L-1.772,11.924L-1.004,11.72C-0.099,11.479 0.731,11.11 1.463,10.623C2.312,10.058 3.04,9.361 3.626,8.55C4.214,7.74 4.672,6.813 4.988,5.795C5.302,4.777 5.461,3.684 5.461,2.547C5.461,0.453 5.031,-1.285 4.184,-2.618C3.33,-3.956 2.235,-5.031 0.929,-5.813C-0.389,-6.603 -1.871,-7.158 -3.476,-7.464C-5.095,-7.773 -6.68,-7.93 -8.189,-7.93L-36.29,-7.93L-30.835,-0.555L-7.505,-0.555C-6.018,-0.555 -4.841,-0.249 -4.007,0.355C-3.151,0.969 -2.717,1.902 -2.717,3.128C-2.717,4.237 -3.193,5.118 -4.133,5.749C-5.046,6.364 -6.181,6.676 -7.505,6.676L-26.376,6.676L-20.978,13.65L-9.701,13.65L-3.702,21.556L6.835,21.556C5.56,20.064 0.485,14.139 0,13.627L0,13.626Z" style="fill:white;fill-rule:nonzero;"/>
    </g>
    <g transform="matrix(4.16667,0,0,4.16667,268.467,121.067)">
        <path d="M0,-28.137C-0.805,-28.747 -1.829,-29.056 -3.041,-29.056C-4.303,-29.056 -5.359,-28.725 -6.178,-28.073C-7.013,-27.406 -7.718,-26.64 -8.272,-25.795L-22.03,-4.267L-17.437,0.919L-15.952,0.919L-3.199,-19.088L0.744,-12.698C2.98,-9.075 3.901,-7.585 4.334,-6.946L4.792,-6.273L3.979,-6.27C2.503,-6.272 -3.219,-6.325 -6.293,-6.357L-7.081,-6.366L-11.853,0.919L18.744,0.919L2.105,-25.8C1.528,-26.729 0.82,-27.515 0,-28.137" style="fill:white;fill-rule:nonzero;"/>
    </g>
    <g transform="matrix(4.16667,0,0,4.16667,697.843,109.287)">
        <path d="M0,-11.14L-0.001,-11.14L-0.039,-0.035L8.563,0L0.026,-11.123C0.016,-11.136 0.003,-11.14 0,-11.14" style="fill:rgb(237,28,36);fill-rule:nonzero;"/>
    </g>
    <g transform="matrix(4.16667,0,0,4.16667,813.749,39.9417)">
        <path d="M0,11.293L-0.591,10.758L0.179,10.554C1.086,10.313 1.916,9.943 2.647,9.456C3.496,8.893 4.224,8.195 4.811,7.383C5.399,6.572 5.857,5.646 6.172,4.628C6.486,3.61 6.646,2.518 6.646,1.38C6.646,-0.713 6.216,-2.451 5.368,-3.784C4.518,-5.118 3.423,-6.193 2.113,-6.98C0.794,-7.769 -0.688,-8.325 -2.292,-8.631C-3.911,-8.94 -5.496,-9.096 -7.005,-9.096L-34.596,-9.096L-28.907,-1.721L-6.321,-1.721C-4.835,-1.721 -3.658,-1.415 -2.823,-0.811C-1.967,-0.197 -1.533,0.737 -1.533,1.962C-1.533,3.069 -2.01,3.952 -2.95,4.583C-3.862,5.198 -4.997,5.509 -6.321,5.509L-24.273,5.509L-18.876,12.483L-8.518,12.483L-2.518,20.389L8.04,20.389C6.761,18.898 1.681,12.985 1.185,12.46C0.763,12.015 0.364,11.623 0,11.293" style="fill:white;fill-rule:nonzero;"/>
    </g>
    <g transform="matrix(4.16667,0,0,4.16667,935.942,121.067)">
        <path d="M0,-28.137C-0.806,-28.747 -1.829,-29.056 -3.041,-29.056C-4.304,-29.056 -5.358,-28.725 -6.178,-28.073C-7.019,-27.402 -7.723,-26.636 -8.271,-25.796L-22.024,-4.278L-17.424,0.919L-15.952,0.919L-3.199,-19.087L4.728,-6.27L3.949,-6.272C2.265,-6.275 -4.268,-6.336 -7.082,-6.366L-11.853,0.919L18.745,0.919L2.105,-25.8C1.529,-26.728 0.821,-27.514 0,-28.137" style="fill:white;fill-rule:nonzero;"/>
    </g>
    <g transform="matrix(4.16667,0,0,4.16667,-1069.21,-2830.38)">
        <rect x="372.361" y="690.948" width="7.937" height="18.318" style="fill:white;"/>
    </g>
    <g transform="matrix(4.16666,0.00778039,0.00778039,-4.16666,481.87,32.5308)">
        <path d="M0.007,-0.004L8.04,-0.004L8.026,7.357L-3.545,7.347L0.007,-0.004Z" style="fill:white;fill-rule:nonzero;"/>
    </g>
    <g transform="matrix(4.16667,0,0,4.16667,649.245,107.991)">
        <path d="M0,-21.392C-1.41,-22.664 -3.114,-23.666 -5.067,-24.367C-7.023,-25.072 -9.194,-25.428 -11.521,-25.428L-29.358,-25.449L-29.358,-18.086L-11.521,-18.053C-10.378,-18.053 -9.298,-17.861 -8.312,-17.484C-7.325,-17.101 -6.452,-16.577 -5.715,-15.926C-4.974,-15.272 -4.388,-14.475 -3.974,-13.558C-3.561,-12.642 -3.352,-11.638 -3.352,-10.573C-3.352,-9.478 -3.562,-8.466 -3.975,-7.565C-4.387,-6.665 -4.958,-5.885 -5.673,-5.245C-6.388,-4.603 -7.257,-4.101 -8.256,-3.754C-9.252,-3.405 -10.351,-3.228 -11.521,-3.228L-21.382,-3.228L-21.382,-14.172L-29.358,-14.172L-29.358,4.057L-11.521,4.057C-9.223,4.057 -7.066,3.67 -5.112,2.908C-3.16,2.149 -1.455,1.087 -0.043,-0.245C1.364,-1.573 2.486,-3.174 3.293,-5.004C4.097,-6.832 4.504,-8.841 4.504,-10.975C4.504,-13.08 4.104,-15.043 3.314,-16.812C2.523,-18.581 1.409,-20.122 0,-21.392" style="fill:white;fill-rule:nonzero;"/>
    </g>
    <g transform="matrix(4.16667,0,0,4.16667,1066.73,32.3979)">
        <path d="M0,14.914C-1.144,14.914 -2.223,14.737 -3.207,14.389C-4.19,14.04 -5.06,13.539 -5.787,12.898C-6.519,12.256 -7.091,11.474 -7.488,10.575C-7.887,9.676 -8.089,8.664 -8.089,7.569C-8.089,6.473 -7.88,5.453 -7.468,4.539C-7.055,3.624 -6.483,2.829 -5.771,2.173C-5.056,1.518 -4.194,1.001 -3.209,0.637C-2.225,0.273 -1.145,0.089 0,0.089L15.622,0.089L15.622,-7.286L0,-7.286C-2.301,-7.286 -4.459,-6.937 -6.415,-6.247C-8.368,-5.56 -10.073,-4.566 -11.481,-3.294C-12.891,-2.021 -14.013,-0.481 -14.816,1.286C-15.619,3.052 -16.026,5.03 -16.026,7.167C-16.026,9.304 -15.618,11.312 -14.814,13.138C-14.01,14.968 -12.888,16.569 -11.479,17.896C-10.069,19.23 -8.363,20.291 -6.41,21.05C-4.456,21.812 -2.3,22.2 0,22.2L16.108,22.2L10.582,14.914L0,14.914Z" style="fill:white;fill-rule:nonzero;"/>
    </g>
    <g transform="matrix(4.16667,0,0,4.16667,1176.07,32.3979)">
        <path d="M0,14.914L0,11.196L15.411,11.198L11.104,4.804L0,4.804L0,0.089L7.928,0.089L2.936,-7.286L-7.979,-7.286L-7.978,22.2L22.821,22.2L17.913,14.914L0,14.914Z" style="fill:white;fill-rule:nonzero;"/>
    </g>
    <g transform="matrix(4.16667,0,0,4.16667,1351.38,35.0767)">
        <path d="M0,13.628C-0.421,13.185 -0.819,12.792 -1.187,12.461L-1.776,11.925L-1.007,11.721C-0.1,11.48 0.73,11.111 1.462,10.624C2.309,10.06 3.036,9.362 3.626,8.55C4.212,7.741 4.67,6.814 4.985,5.795C5.3,4.778 5.46,3.685 5.46,2.548C5.46,0.454 5.029,-1.284 4.183,-2.617C3.33,-3.954 2.234,-5.029 0.926,-5.812C-0.392,-6.601 -1.873,-7.157 -3.478,-7.463C-5.098,-7.772 -6.684,-7.929 -8.191,-7.929L-35.789,-7.929L-30.821,-0.554L-7.507,-0.554C-6.021,-0.554 -4.844,-0.247 -4.009,0.357C-3.153,0.971 -2.719,1.903 -2.719,3.129C-2.719,4.237 -3.195,5.119 -4.135,5.75C-5.049,6.365 -6.183,6.677 -7.507,6.677L-25.951,6.677L-21.255,13.651L-9.704,13.651L-3.704,21.557L6.918,21.557L2.229,16.06C1.286,15.012 0.557,14.215 0,13.628" style="fill:white;fill-rule:nonzero;"/>
    </g>
</svg>
