<?xml version="1.0" encoding="UTF-8" standalone="no"?>
<!DOCTYPE svg PUBLIC "-//W3C//DTD SVG 1.1//EN" "http://www.w3.org/Graphics/SVG/1.1/DTD/svg11.dtd">
<svg width="100%" height="100%" viewBox="0 0 1381 125" version="1.1" xmlns="http://www.w3.org/2000/svg" xmlns:xlink="http://www.w3.org/1999/xlink" xml:space="preserve" xmlns:serif="http://www.serif.com/" style="fill-rule:evenodd;clip-rule:evenodd;stroke-linejoin:round;stroke-miterlimit:2;">
    <g transform="matrix(4.16667,0,0,4.16667,457.017,112.064)">
        <path d="M0,-23.325C-1.103,-24.287 -2.475,-25.049 -4.079,-25.588C-5.69,-26.131 -7.551,-26.405 -9.612,-26.405L-41.816,-26.405L-37.145,-19.03L-8.847,-19.03C-7.516,-19.03 -6.463,-18.706 -5.719,-18.066C-4.954,-17.41 -4.583,-16.551 -4.583,-15.436C-4.583,-14.325 -4.954,-13.458 -5.716,-12.786C-6.462,-12.132 -7.516,-11.8 -8.847,-11.8L-27.027,-11.8L-27.032,-2.942L-23.211,3.08L-16.904,3.08L-16.97,-4.557L-9.652,-4.557C-7.592,-4.557 -5.729,-4.825 -4.117,-5.352C-2.511,-5.878 -1.131,-6.617 -0.017,-7.551C1.094,-8.476 1.949,-9.616 2.525,-10.939C3.102,-12.264 3.395,-13.762 3.395,-15.392C3.395,-17.02 3.102,-18.527 2.524,-19.871C1.949,-21.208 1.099,-22.37 0,-23.325" style="fill:rgb(35,31,32);fill-rule:nonzero;"/>
    </g>
    <g transform="matrix(4.16667,0,0,4.16667,26.9179,109.24)">
        <path d="M0,-11.113C-0.001,-11.113 -0.001,-11.113 -0.002,-11.112L-0.036,-0.036L8.546,0L0.031,-11.095C0.02,-11.108 0.006,-11.113 0,-11.113" style="fill:rgb(237,28,36);fill-rule:nonzero;"/>
    </g>
    <g transform="matrix(4.16667,0,0,4.16667,151.204,35.0833)">
        <path d="M0,13.626C-0.41,13.192 -0.808,12.799 -1.183,12.459L-1.772,11.925L-1.004,11.72C-0.099,11.48 0.731,11.11 1.464,10.623C2.313,10.059 3.041,9.361 3.627,8.55C4.214,7.74 4.672,6.813 4.988,5.795C5.302,4.776 5.461,3.685 5.461,2.547C5.461,0.453 5.032,-1.284 4.185,-2.618C3.331,-3.956 2.235,-5.031 0.929,-5.813C-0.389,-6.603 -1.871,-7.157 -3.476,-7.464C-5.095,-7.773 -6.68,-7.93 -8.189,-7.93L-36.289,-7.93L-30.834,-0.555L-7.505,-0.555C-6.018,-0.555 -4.841,-0.249 -4.007,0.355C-3.151,0.969 -2.716,1.902 -2.716,3.128C-2.716,4.236 -3.193,5.118 -4.133,5.749C-5.046,6.364 -6.181,6.676 -7.505,6.676L-26.376,6.676L-20.978,13.649L-9.701,13.649L-3.702,21.556L6.835,21.556C5.56,20.064 0.485,14.139 0,13.627L0,13.626Z" style="fill:rgb(35,31,32);fill-rule:nonzero;"/>
    </g>
    <g transform="matrix(4.16667,0,0,4.16667,268.463,121.071)">
        <path d="M0,-28.138C-0.805,-28.747 -1.828,-29.057 -3.04,-29.057C-4.303,-29.057 -5.359,-28.726 -6.178,-28.074C-7.013,-27.407 -7.718,-26.64 -8.272,-25.795L-22.03,-4.268L-17.437,0.919L-15.952,0.919L-3.199,-19.088L0.744,-12.699C2.981,-9.076 3.901,-7.585 4.335,-6.947L4.792,-6.273L3.979,-6.271C2.503,-6.273 -3.219,-6.325 -6.292,-6.358L-7.08,-6.367L-11.852,0.919L18.744,0.919L2.105,-25.8C1.528,-26.729 0.821,-27.516 0,-28.138" style="fill:rgb(35,31,32);fill-rule:nonzero;"/>
    </g>
    <g transform="matrix(-0.014633,4.16664,4.16664,0.014633,738.87,68.4041)">
        <path d="M-1.293,-9.852L9.812,-9.852L9.817,-1.25L-1.276,-9.826C-1.289,-9.836 -1.294,-9.848 -1.293,-9.852" style="fill:rgb(237,28,36);fill-rule:nonzero;"/>
    </g>
    <g transform="matrix(4.16667,0,0,4.16667,813.745,39.9458)">
        <path d="M0,11.292L-0.591,10.758L0.179,10.553C1.086,10.313 1.916,9.943 2.648,9.456C3.496,8.892 4.224,8.195 4.811,7.383C5.399,6.572 5.857,5.646 6.172,4.628C6.486,3.609 6.646,2.518 6.646,1.38C6.646,-0.714 6.216,-2.451 5.368,-3.785C4.519,-5.119 3.423,-6.193 2.113,-6.98C0.794,-7.77 -0.688,-8.325 -2.292,-8.631C-3.91,-8.94 -5.496,-9.097 -7.005,-9.097L-34.596,-9.097L-28.907,-1.722L-6.321,-1.722C-4.834,-1.722 -3.657,-1.416 -2.822,-0.812C-1.967,-0.197 -1.532,0.736 -1.532,1.961C-1.532,3.069 -2.01,3.951 -2.949,4.582C-3.862,5.197 -4.997,5.509 -6.321,5.509L-24.272,5.509L-18.875,12.482L-8.517,12.482L-2.517,20.389L8.04,20.389C6.762,18.897 1.681,12.984 1.185,12.46C0.764,12.015 0.364,11.622 0,11.292" style="fill:rgb(35,31,32);fill-rule:nonzero;"/>
    </g>
    <g transform="matrix(4.16667,0,0,4.16667,935.937,121.071)">
        <path d="M0,-28.138C-0.806,-28.747 -1.828,-29.057 -3.041,-29.057C-4.304,-29.057 -5.358,-28.726 -6.178,-28.074C-7.018,-27.403 -7.723,-26.636 -8.271,-25.796L-22.024,-4.279L-17.424,0.919L-15.951,0.919L-3.198,-19.088L4.728,-6.271L3.95,-6.273C2.265,-6.276 -4.268,-6.336 -7.081,-6.367L-11.852,0.919L18.745,0.919L2.105,-25.8C1.53,-26.728 0.822,-27.515 0,-28.138" style="fill:rgb(35,31,32);fill-rule:nonzero;"/>
    </g>
    <g transform="matrix(4.16667,0,0,4.16667,-1063.84,-71.0046)">
        <rect x="371.072" y="28.699" width="7.937" height="18.318" style="fill:rgb(35,31,32);"/>
    </g>
    <g transform="matrix(4.16666,0.00778136,0.00778136,-4.16666,481.868,32.535)">
        <path d="M0.007,-0.004L8.039,-0.004L8.025,7.357L-3.545,7.347L0.007,-0.004Z" style="fill:rgb(35,31,32);fill-rule:nonzero;"/>
    </g>
    <g transform="matrix(4.16667,0,0,4.16667,649.243,107.993)">
        <path d="M0,-21.392C-1.41,-22.664 -3.114,-23.665 -5.067,-24.367C-7.023,-25.072 -9.195,-25.428 -11.521,-25.428L-29.358,-25.449L-29.358,-18.086L-11.521,-18.053C-10.378,-18.053 -9.299,-17.862 -8.313,-17.484C-7.326,-17.101 -6.452,-16.577 -5.715,-15.926C-4.974,-15.273 -4.388,-14.476 -3.974,-13.557C-3.562,-12.641 -3.353,-11.638 -3.353,-10.573C-3.353,-9.478 -3.562,-8.466 -3.975,-7.566C-4.387,-6.665 -4.958,-5.885 -5.673,-5.246C-6.389,-4.603 -7.257,-4.101 -8.256,-3.754C-9.252,-3.405 -10.352,-3.229 -11.521,-3.229L-21.382,-3.229L-21.382,-14.171L-29.358,-14.171L-29.358,4.057L-11.521,4.057C-9.223,4.057 -7.066,3.67 -5.113,2.908C-3.161,2.148 -1.455,1.087 -0.044,-0.246C1.364,-1.573 2.486,-3.173 3.293,-5.004C4.096,-6.832 4.504,-8.841 4.504,-10.975C4.504,-13.079 4.104,-15.043 3.314,-16.812C2.523,-18.581 1.408,-20.122 0,-21.392" style="fill:rgb(35,31,32);fill-rule:nonzero;"/>
    </g>
    <g transform="matrix(4.16667,0,0,4.16667,1066.72,32.4021)">
        <path d="M0,14.913C-1.144,14.913 -2.223,14.737 -3.207,14.388C-4.19,14.04 -5.059,13.539 -5.787,12.897C-6.519,12.256 -7.091,11.474 -7.488,10.574C-7.887,9.675 -8.088,8.664 -8.088,7.569C-8.088,6.472 -7.88,5.452 -7.468,4.539C-7.055,3.624 -6.483,2.828 -5.771,2.173C-5.056,1.517 -4.193,1.001 -3.209,0.637C-2.224,0.273 -1.145,0.089 0,0.089L15.622,0.089L15.622,-7.286L0,-7.286C-2.301,-7.286 -4.459,-6.938 -6.415,-6.248C-8.368,-5.56 -10.072,-4.566 -11.481,-3.294C-12.891,-2.022 -14.013,-0.482 -14.815,1.285C-15.618,3.051 -16.025,5.03 -16.025,7.167C-16.025,9.304 -15.618,11.311 -14.814,13.138C-14.01,14.968 -12.888,16.568 -11.479,17.896C-10.068,19.229 -8.363,20.29 -6.409,21.05C-4.456,21.812 -2.299,22.199 0,22.199L16.108,22.199L10.583,14.913L0,14.913Z" style="fill:rgb(35,31,32);fill-rule:nonzero;"/>
    </g>
    <g transform="matrix(4.16667,0,0,4.16667,1176.07,32.4021)">
        <path d="M0,14.913L0,11.196L15.411,11.197L11.104,4.804L0,4.804L0,0.089L7.928,0.089L2.936,-7.286L-7.979,-7.286L-7.978,22.199L22.821,22.199L17.913,14.913L0,14.913Z" style="fill:rgb(35,31,32);fill-rule:nonzero;"/>
    </g>
    <g transform="matrix(4.16667,0,0,4.16667,1351.37,35.0792)">
        <path d="M0,13.628C-0.421,13.185 -0.819,12.792 -1.187,12.46L-1.775,11.926L-1.006,11.721C-0.1,11.481 0.731,11.111 1.462,10.624C2.31,10.06 3.037,9.362 3.626,8.55C4.212,7.741 4.67,6.814 4.986,5.795C5.3,4.777 5.46,3.686 5.46,2.548C5.46,0.454 5.03,-1.283 4.183,-2.617C3.33,-3.953 2.235,-5.029 0.926,-5.812C-0.391,-6.601 -1.873,-7.156 -3.478,-7.463C-5.097,-7.772 -6.683,-7.929 -8.191,-7.929L-35.789,-7.929L-30.821,-0.554L-7.507,-0.554C-6.021,-0.554 -4.844,-0.248 -4.009,0.357C-3.153,0.971 -2.719,1.903 -2.719,3.129C-2.719,4.237 -3.195,5.119 -4.135,5.75C-5.048,6.365 -6.183,6.677 -7.507,6.677L-25.951,6.677L-21.255,13.65L-9.703,13.65L-3.704,21.557L6.918,21.557L2.229,16.06C1.286,15.012 0.557,14.215 0,13.628" style="fill:rgb(35,31,32);fill-rule:nonzero;"/>
    </g>
</svg>
